<svg xmlns="http://www.w3.org/2000/svg" width="600" height="400" viewBox="0 0 600 400"><rect width="100%" height="100%" fill="#DDDDDD"/><path fill="#999999" d="M127.92 178.355v35.43h-6.61v-35.43h6.61Zm13.01 35.43h-6.05v-25.14h3.7q1.18 0 1.54 1.11l.4 1.86q.66-.74 1.38-1.35.72-.61 1.54-1.05.82-.44 1.77-.7.94-.26 2.07-.26 2.37 0 3.91 1.29 1.53 1.28 2.29 3.42.58-1.25 1.47-2.15.88-.89 1.93-1.46 1.06-.56 2.24-.83 1.19-.27 2.39-.27 2.08 0 3.7.64 1.62.63 2.72 1.86t1.68 2.99q.58 1.76.58 4.04v16h-6.06v-16q0-2.4-1.05-3.61t-3.09-1.21q-.93 0-1.72.31-.8.32-1.4.92-.6.6-.94 1.51-.35.91-.35 2.08v16h-6.07v-16q0-2.52-1.02-3.67t-2.98-1.15q-1.32 0-2.46.64-1.14.65-2.12 1.78v18.4Zm48.27-6.49v-4.24q-2.62.12-4.41.45t-2.87.85q-1.08.51-1.54 1.2-.47.68-.47 1.49 0 1.59.95 2.28.94.69 2.46.69 1.86 0 3.22-.68 1.36-.67 2.66-2.04Zm-12.79-13.21-1.08-1.93q4.34-3.97 10.44-3.97 2.2 0 3.94.72 1.74.72 2.94 2.01 1.2 1.29 1.83 3.07.62 1.79.62 3.92v15.88h-2.74q-.86 0-1.33-.26-.46-.25-.73-1.04l-.54-1.81q-.95.86-1.86 1.51-.91.64-1.89 1.09-.98.44-2.09.67-1.12.23-2.46.23-1.6 0-2.94-.43-1.35-.43-2.33-1.28-.98-.86-1.52-2.13-.54-1.28-.54-2.97 0-.95.32-1.9.32-.94 1.04-1.8.72-.86 1.87-1.62 1.16-.76 2.83-1.32 1.68-.56 3.91-.92 2.23-.35 5.1-.43v-1.47q0-2.52-1.08-3.73t-3.11-1.21q-1.47 0-2.44.34t-1.7.77q-.74.43-1.34.77-.6.34-1.33.34-.64 0-1.08-.33-.44-.33-.71-.77Zm33.56 6.52q1.13 0 1.96-.31.84-.3 1.39-.84.55-.54.83-1.3.28-.76.28-1.67 0-1.86-1.11-2.95-1.12-1.09-3.35-1.09t-3.34 1.09q-1.12 1.09-1.12 2.95 0 .89.29 1.64.28.76.83 1.32.55.55 1.4.85.84.31 1.94.31Zm6.84 14.31q0-.74-.44-1.2-.44-.47-1.2-.73-.76-.25-1.78-.38-1.02-.12-2.15-.18-1.14-.06-2.36-.11-1.21-.05-2.36-.2-1.01.57-1.63 1.33-.63.76-.63 1.76 0 .66.34 1.24.33.57 1.05.99.72.42 1.87.65 1.15.23 2.82.23 1.69 0 2.92-.25 1.22-.26 2.02-.72.79-.45 1.16-1.07.37-.63.37-1.36Zm-1.2-25.41h7.23v2.25q0 1.08-1.3 1.33l-2.26.41q.52 1.3.52 2.85 0 1.86-.75 3.36-.75 1.51-2.07 2.56-1.32 1.06-3.12 1.63-1.8.58-3.89.58-.73 0-1.42-.07-.68-.08-1.35-.2-1.17.71-1.17 1.59 0 .76.7 1.12.7.35 1.85.5 1.15.15 2.62.18 1.47.04 3.01.16 1.55.13 3.02.43 1.47.31 2.62.97 1.15.66 1.85 1.8.69 1.14.69 2.93 0 1.66-.82 3.23t-2.37 2.8q-1.56 1.22-3.82 1.97-2.27.74-5.16.74-2.84 0-4.95-.55-2.11-.55-3.5-1.47-1.4-.92-2.09-2.12-.68-1.2-.68-2.49 0-1.77 1.06-2.96 1.07-1.19 2.93-1.9-1-.51-1.59-1.37-.59-.86-.59-2.25 0-.57.21-1.17t.61-1.18q.41-.59 1.02-1.12.61-.53 1.44-.94-1.91-1.03-3-2.75-1.09-1.71-1.09-4.01 0-1.87.75-3.37.75-1.51 2.08-2.58 1.34-1.06 3.16-1.62 1.83-.57 3.98-.57 1.62 0 3.04.33t2.6.97Zm15.83 8.82h11.41q0-1.18-.33-2.22-.33-1.04-.99-1.82-.66-.79-1.68-1.24-1.02-.45-2.36-.45-2.62 0-4.13 1.49-1.51 1.5-1.92 4.24Zm15.43 3.65h-15.56q.15 1.94.69 3.35.54 1.4 1.42 2.32.88.92 2.09 1.37 1.22.46 2.69.46t2.53-.35q1.07-.34 1.87-.75.79-.42 1.39-.76.6-.35 1.17-.35.75 0 1.12.57l1.74 2.2q-1 1.18-2.25 1.97-1.25.8-2.61 1.28-1.36.48-2.77.67-1.41.2-2.73.2-2.62 0-4.88-.87-2.25-.87-3.92-2.57-1.66-1.71-2.62-4.22-.95-2.51-.95-5.82 0-2.57.83-4.84.83-2.26 2.39-3.94 1.55-1.68 3.8-2.66 2.24-.98 5.05-.98 2.38 0 4.39.76t3.45 2.22q1.45 1.46 2.27 3.57.82 2.12.82 4.84 0 1.38-.29 1.85-.3.48-1.13.48Zm25.41 6.37h14.16v5.44h-20.75v-35.43h6.59v29.99Zm29.03-20.09q2.79 0 5.08.91 2.29.9 3.92 2.57t2.51 4.07q.89 2.4.89 5.36 0 2.99-.89 5.39-.88 2.4-2.51 4.09t-3.92 2.6q-2.29.91-5.08.91-2.82 0-5.12-.91-2.3-.91-3.93-2.6-1.63-1.69-2.53-4.09-.89-2.4-.89-5.39 0-2.96.89-5.36.9-2.4 2.53-4.07 1.63-1.67 3.93-2.57 2.3-.91 5.12-.91Zm0 21.24q3.14 0 4.64-2.1 1.51-2.11 1.51-6.18t-1.51-6.2q-1.5-2.13-4.64-2.13-3.19 0-4.72 2.15-1.53 2.14-1.53 6.18 0 4.04 1.53 6.16t4.72 2.12Zm30.31-2.2v-4.24q-2.63.12-4.41.45-1.79.33-2.87.85-1.08.51-1.54 1.2-.47.68-.47 1.49 0 1.59.94 2.28.95.69 2.47.69 1.86 0 3.22-.68 1.36-.67 2.66-2.04Zm-12.79-13.21-1.08-1.93q4.34-3.97 10.44-3.97 2.2 0 3.94.72 1.74.72 2.94 2.01 1.2 1.29 1.83 3.07.62 1.79.62 3.92v15.88h-2.74q-.86 0-1.33-.26-.46-.25-.73-1.04l-.54-1.81q-.96.86-1.86 1.51-.91.64-1.89 1.09-.98.44-2.09.67-1.12.23-2.47.23-1.59 0-2.94-.43-1.34-.43-2.32-1.28-.98-.86-1.52-2.13-.54-1.28-.54-2.97 0-.95.32-1.9.32-.94 1.04-1.8.72-.86 1.87-1.62 1.15-.76 2.83-1.32 1.68-.56 3.91-.92 2.23-.35 5.1-.43v-1.47q0-2.52-1.08-3.73t-3.11-1.21q-1.47 0-2.44.34t-1.7.77q-.74.43-1.34.77-.6.34-1.33.34-.64 0-1.08-.33-.44-.33-.71-.77Zm40.15 12.25v-11.27q-1.03-1.25-2.24-1.76-1.21-.52-2.61-.52-1.37 0-2.47.52-1.11.51-1.89 1.55-.78 1.04-1.2 2.65-.42 1.6-.42 3.78 0 2.21.36 3.74.35 1.53 1.02 2.5.66.97 1.61 1.4.96.43 2.13.43 1.89 0 3.21-.79 1.33-.78 2.5-2.23Zm0-28.96h6.05v36.41h-3.7q-1.2 0-1.51-1.1l-.52-2.43q-1.52 1.74-3.49 2.82-1.97 1.08-4.59 1.08-2.06 0-3.78-.86-1.71-.86-2.95-2.49-1.24-1.63-1.91-4.03-.67-2.4-.67-5.49 0-2.79.76-5.19.75-2.4 2.18-4.16 1.42-1.77 3.4-2.76 1.99-.99 4.46-.99 2.11 0 3.6.66 1.5.66 2.67 1.79v-13.26Zm12.23 11.27h6.07v25.14h-6.07v-25.14Zm6.91-7.32q0 .78-.32 1.47-.32.68-.85 1.2-.52.51-1.23.82-.71.3-1.52.3-.79 0-1.49-.3-.69-.31-1.21-.82-.51-.52-.82-1.2-.31-.69-.31-1.47 0-.81.31-1.52t.82-1.23q.52-.51 1.21-.82.7-.3 1.49-.3.81 0 1.52.3.71.31 1.23.82.53.52.85 1.23.32.71.32 1.52Zm10.58 8.43.42 1.98q.76-.76 1.6-1.41.85-.65 1.79-1.1.94-.45 2.02-.71 1.08-.26 2.35-.26 2.06 0 3.65.7 1.6.7 2.66 1.96 1.07 1.26 1.62 3.01.55 1.75.55 3.86v16h-6.05v-16q0-2.3-1.05-3.56-1.06-1.26-3.21-1.26-1.57 0-2.94.71-1.38.71-2.6 1.93v18.18h-6.05v-25.14h3.7q1.17 0 1.54 1.11Zm31.58 10.85q1.13 0 1.96-.31.83-.3 1.39-.84.55-.54.83-1.3.28-.76.28-1.67 0-1.86-1.11-2.95-1.12-1.09-3.35-1.09t-3.34 1.09q-1.12 1.09-1.12 2.95 0 .89.28 1.64.29.76.84 1.32.55.55 1.39.85.85.31 1.95.31Zm6.84 14.31q0-.74-.44-1.2-.45-.47-1.2-.73-.76-.25-1.78-.38-1.02-.12-2.16-.18-1.14-.06-2.35-.11-1.21-.05-2.36-.2-1.01.57-1.63 1.33-.63.76-.63 1.76 0 .66.33 1.24.33.57 1.06.99.72.42 1.87.65 1.15.23 2.82.23 1.69 0 2.91-.25 1.23-.26 2.03-.72.79-.45 1.16-1.07.37-.63.37-1.36Zm-1.2-25.41h7.22v2.25q0 1.08-1.29 1.33l-2.26.41q.52 1.3.52 2.85 0 1.86-.75 3.36-.75 1.51-2.07 2.56-1.32 1.06-3.13 1.63-1.8.58-3.88.58-.73 0-1.42-.07-.69-.08-1.35-.2-1.17.71-1.17 1.59 0 .76.7 1.12.69.35 1.84.5 1.16.15 2.63.18 1.47.04 3.01.16 1.54.13 3.01.43 1.47.31 2.62.97 1.16.66 1.85 1.8.7 1.14.7 2.93 0 1.66-.82 3.23t-2.37 2.8q-1.56 1.22-3.83 1.97-2.26.74-5.15.74-2.85 0-4.95-.55-2.11-.55-3.51-1.47-1.39-.92-2.08-2.12-.68-1.2-.68-2.49 0-1.77 1.06-2.96 1.07-1.19 2.93-1.9-1.01-.51-1.59-1.37-.59-.86-.59-2.25 0-.57.21-1.17.2-.6.61-1.18.4-.59 1.02-1.12.61-.53 1.44-.94-1.91-1.03-3-2.75-1.09-1.71-1.09-4.01 0-1.87.75-3.37.74-1.51 2.08-2.58 1.33-1.06 3.16-1.62 1.83-.57 3.98-.57 1.62 0 3.04.33t2.6.97Zm22.07 20.95q0-.76.28-1.45.28-.68.77-1.17.49-.49 1.18-.79.69-.29 1.47-.29t1.46.29q.67.3 1.17.79.51.49.8 1.17.29.69.29 1.45 0 .78-.29 1.46-.29.67-.8 1.16-.5.49-1.17.77-.68.28-1.46.28-.78 0-1.47-.28t-1.18-.77q-.49-.49-.77-1.16-.28-.68-.28-1.46Zm11.64 0q0-.76.28-1.45.28-.68.77-1.17.49-.49 1.18-.79.68-.29 1.47-.29.78 0 1.46.29.67.3 1.17.79.5.49.8 1.17.29.69.29 1.45 0 .78-.29 1.46-.3.67-.8 1.16-.5.49-1.17.77-.68.28-1.46.28-.79 0-1.47-.28-.69-.28-1.18-.77t-.77-1.16q-.28-.68-.28-1.46Zm11.64 0q0-.76.28-1.45.28-.68.77-1.17.49-.49 1.18-.79.68-.29 1.47-.29.78 0 1.45.29.68.3 1.18.79.5.49.8 1.17.29.69.29 1.45 0 .78-.29 1.46-.3.67-.8 1.16-.5.49-1.18.77-.67.28-1.45.28-.79 0-1.47-.28-.69-.28-1.18-.77t-.77-1.16q-.28-.68-.28-1.46Z"/></svg>