<svg xmlns="http://www.w3.org/2000/svg" width="900" height="600" viewBox="0 0 900 600"><rect width="100%" height="100%" fill="#DDDDDD"/><path fill="#999999" d="M193.64 267.75v52.78h-9.85v-52.78h9.85Zm19.38 52.78h-9.01v-37.45h5.51q1.75 0 2.3 1.64l.58 2.78q.99-1.1 2.06-2.01 1.08-.91 2.3-1.57 1.23-.66 2.63-1.04 1.41-.38 3.09-.38 3.54 0 5.82 1.91 2.28 1.92 3.41 5.1.88-1.87 2.19-3.2t2.88-2.17q1.57-.84 3.34-1.24 1.77-.4 3.56-.4 3.11 0 5.51.95 2.41.95 4.06 2.77 1.64 1.83 2.5 4.45.85 2.63.85 6.03v23.83h-9.01V296.7q0-3.58-1.57-5.39-1.57-1.8-4.6-1.8-1.39 0-2.57.47-1.19.47-2.08 1.37-.9.89-1.41 2.24-.51 1.35-.51 3.11v23.83h-9.05V296.7q0-3.76-1.52-5.48-1.51-1.71-4.43-1.71-1.97 0-3.67.96-1.7.97-3.16 2.65v27.41Zm71.91-9.67v-6.32q-3.91.19-6.57.68-2.67.49-4.27 1.26-1.61.76-2.3 1.79-.7 1.02-.7 2.22 0 2.38 1.41 3.4 1.4 1.02 3.67 1.02 2.77 0 4.8-1 2.02-1.01 3.96-3.05Zm-19.06-19.68-1.6-2.88q6.46-5.91 15.55-5.91 3.28 0 5.87 1.07 2.6 1.08 4.38 3 1.79 1.91 2.72 4.58.93 2.66.93 5.84v23.65h-4.08q-1.28 0-1.97-.38-.7-.39-1.1-1.55l-.8-2.71q-1.43 1.28-2.78 2.25-1.35.97-2.81 1.62-1.46.66-3.12 1.01-1.66.34-3.67.34-2.37 0-4.38-.63-2-.64-3.46-1.92-1.46-1.28-2.27-3.18-.8-1.89-.8-4.41 0-1.43.47-2.83.48-1.41 1.56-2.68 1.07-1.28 2.79-2.41 1.71-1.13 4.21-1.97 2.5-.84 5.83-1.37 3.32-.53 7.59-.64v-2.19q0-3.76-1.61-5.57-1.6-1.8-4.63-1.8-2.19 0-3.64.51-1.44.51-2.53 1.15-1.1.63-1.99 1.15-.9.51-1.99.51-.95 0-1.61-.5-.65-.49-1.06-1.15Zm50.01 9.71q1.68 0 2.92-.45 1.24-.46 2.06-1.26.82-.81 1.24-1.94.42-1.13.42-2.48 0-2.77-1.66-4.4-1.66-1.62-4.98-1.62-3.32 0-4.98 1.62-1.66 1.63-1.66 4.4 0 1.32.42 2.45.42 1.13 1.24 1.95.82.82 2.08 1.28 1.26.45 2.9.45Zm10.18 21.32q0-1.1-.65-1.79-.66-.69-1.79-1.08-1.13-.38-2.65-.56-1.51-.18-3.21-.28-1.7-.09-3.5-.16-1.81-.07-3.53-.29-1.49.84-2.42 1.97-.93 1.13-.93 2.63 0 .98.49 1.84.49.86 1.57 1.48 1.07.62 2.79.97 1.72.34 4.2.34 2.52 0 4.34-.38 1.83-.38 3.01-1.06 1.19-.67 1.74-1.61.54-.93.54-2.02Zm-1.79-37.85h10.77v3.36q0 1.6-1.93 1.97l-3.36.62q.77 1.93.77 4.23 0 2.78-1.12 5.02-1.11 2.25-3.08 3.82-1.97 1.56-4.66 2.42-2.68.86-5.78.86-1.1 0-2.12-.11t-2-.29q-1.76 1.06-1.76 2.37 0 1.13 1.04 1.66t2.76.75q1.71.22 3.9.27 2.19.06 4.49.24 2.3.18 4.49.64 2.19.46 3.91 1.44 1.71.99 2.75 2.68 1.05 1.7 1.05 4.37 0 2.48-1.23 4.81-1.22 2.34-3.54 4.17-2.32 1.82-5.69 2.93-3.38 1.12-7.69 1.12-4.23 0-7.37-.82-3.14-.83-5.22-2.19-2.08-1.37-3.1-3.16t-1.02-3.73q0-2.62 1.59-4.39 1.58-1.77 4.36-2.83-1.5-.77-2.38-2.05-.87-1.27-.87-3.35 0-.84.31-1.74.31-.89.91-1.77.6-.87 1.52-1.66.91-.78 2.15-1.4-2.85-1.54-4.47-4.09-1.63-2.56-1.63-5.99 0-2.77 1.12-5.02 1.11-2.24 3.1-3.83 1.99-1.59 4.71-2.43 2.72-.84 5.93-.84 2.41 0 4.53.5 2.11.49 3.86 1.44Zm23.58 13.14h17.01q0-1.75-.49-3.3-.49-1.56-1.48-2.72-.98-1.17-2.5-1.85-1.51-.67-3.52-.67-3.91 0-6.15 2.22-2.25 2.23-2.87 6.32Zm23 5.44h-23.18q.22 2.88 1.02 4.98.81 2.1 2.12 3.47t3.12 2.04q1.81.68 4 .68t3.78-.51q1.58-.52 2.77-1.14 1.19-.62 2.08-1.13.89-.51 1.73-.51 1.14 0 1.68.84l2.59 3.29q-1.49 1.75-3.35 2.93-1.87 1.19-3.89 1.9-2.03.71-4.13 1.01-2.09.29-4.07.29-3.9 0-7.26-1.3-3.36-1.29-5.84-3.83t-3.9-6.28q-1.43-3.74-1.43-8.67 0-3.83 1.24-7.21 1.24-3.37 3.56-5.87 2.32-2.5 5.66-3.96 3.34-1.46 7.54-1.46 3.54 0 6.53 1.13t5.15 3.3q2.15 2.17 3.37 5.33 1.23 3.16 1.23 7.21 0 2.04-.44 2.76-.44.71-1.68.71Zm37.85 9.49h21.1v8.1h-30.92v-52.78h9.82v44.68Zm43.25-29.93q4.16 0 7.58 1.35 3.41 1.35 5.84 3.83 2.42 2.48 3.74 6.06 1.31 3.58 1.31 7.99 0 4.46-1.31 8.03-1.32 3.58-3.74 6.1-2.43 2.52-5.84 3.87-3.42 1.35-7.58 1.35-4.2 0-7.63-1.35-3.43-1.35-5.86-3.87-2.42-2.52-3.75-6.1-1.34-3.57-1.34-8.03 0-4.41 1.34-7.99 1.33-3.58 3.75-6.06 2.43-2.48 5.86-3.83t7.63-1.35Zm0 31.64q4.67 0 6.92-3.14 2.24-3.14 2.24-9.19 0-6.06-2.24-9.24-2.25-3.17-6.92-3.17-4.74 0-7.02 3.19-2.29 3.19-2.29 9.22 0 6.02 2.29 9.18 2.28 3.15 7.02 3.15Zm45.15-3.28v-6.32q-3.9.19-6.57.68-2.66.49-4.27 1.26-1.6.76-2.3 1.79-.69 1.02-.69 2.22 0 2.38 1.4 3.4 1.41 1.02 3.67 1.02 2.78 0 4.8-1 2.03-1.01 3.96-3.05Zm-19.05-19.68-1.61-2.88q6.46-5.91 15.55-5.91 3.29 0 5.88 1.07 2.59 1.08 4.38 3 1.79 1.91 2.72 4.58.93 2.66.93 5.84v23.65h-4.09q-1.28 0-1.97-.38-.69-.39-1.1-1.55l-.8-2.71q-1.42 1.28-2.77 2.25t-2.81 1.62q-1.46.66-3.12 1.01-1.66.34-3.67.34-2.37 0-4.38-.63-2.01-.64-3.47-1.92-1.46-1.28-2.26-3.18-.81-1.89-.81-4.41 0-1.43.48-2.83.47-1.41 1.55-2.68 1.08-1.28 2.79-2.41 1.72-1.13 4.22-1.97 2.5-.84 5.82-1.37 3.32-.53 7.59-.64v-2.19q0-3.76-1.6-5.57-1.61-1.8-4.64-1.8-2.19 0-3.63.51t-2.54 1.15l-1.99 1.15q-.89.51-1.99.51-.95 0-1.6-.5-.66-.49-1.06-1.15Zm59.82 18.25v-16.79q-1.53-1.86-3.34-2.62-1.8-.77-3.88-.77-2.05 0-3.69.77-1.64.76-2.81 2.31-1.17 1.56-1.79 3.95-.62 2.39-.62 5.64 0 3.28.53 5.56t1.51 3.72q.99 1.45 2.41 2.08 1.43.64 3.18.64 2.81 0 4.78-1.16 1.97-1.17 3.72-3.33Zm0-43.14h9.02v54.24h-5.51q-1.79 0-2.27-1.64l-.76-3.62q-2.27 2.6-5.2 4.2-2.94 1.61-6.85 1.61-3.06 0-5.62-1.28-2.55-1.28-4.4-3.7-1.84-2.43-2.84-6.01-1.01-3.58-1.01-8.17 0-4.17 1.13-7.74 1.14-3.58 3.25-6.21 2.12-2.63 5.08-4.1 2.95-1.48 6.64-1.48 3.14 0 5.36.98 2.23.99 3.98 2.67v-19.75Zm18.22 16.79h9.05v37.45h-9.05v-37.45Zm10.29-10.91q0 1.17-.48 2.19-.47 1.02-1.25 1.79-.79.76-1.85 1.22-1.06.46-2.26.46-1.17 0-2.21-.46t-1.81-1.22q-.76-.77-1.22-1.79-.45-1.02-.45-2.19 0-1.21.45-2.27.46-1.05 1.22-1.82.77-.77 1.81-1.22 1.04-.46 2.21-.46 1.2 0 2.26.46 1.06.45 1.85 1.22.78.77 1.25 1.82.48 1.06.48 2.27Zm15.77 12.55.62 2.96q1.13-1.13 2.39-2.1 1.26-.97 2.66-1.64 1.41-.68 3.01-1.06 1.61-.38 3.51-.38 3.06 0 5.44 1.04 2.37 1.04 3.96 2.92 1.58 1.88 2.41 4.49.82 2.61.82 5.75v23.83h-9.02V296.7q0-3.44-1.57-5.32-1.57-1.87-4.78-1.87-2.34 0-4.38 1.05-2.04 1.06-3.87 2.89v27.08h-9.01v-37.45h5.51q1.75 0 2.3 1.64Zm47.05 16.17q1.67 0 2.92-.45 1.24-.46 2.06-1.26.82-.81 1.24-1.94.42-1.13.42-2.48 0-2.77-1.66-4.4-1.66-1.62-4.98-1.62-3.33 0-4.99 1.62-1.66 1.63-1.66 4.4 0 1.32.42 2.45.42 1.13 1.24 1.95.82.82 2.08 1.28 1.26.45 2.91.45Zm10.18 21.32q0-1.1-.66-1.79-.65-.69-1.79-1.08-1.13-.38-2.64-.56-1.52-.18-3.21-.28-1.7-.09-3.51-.16-1.81-.07-3.52-.29-1.5.84-2.43 1.97-.93 1.13-.93 2.63 0 .98.49 1.84.5.86 1.57 1.48 1.08.62 2.8.97 1.71.34 4.19.34 2.52 0 4.35-.38 1.82-.38 3.01-1.06 1.18-.67 1.73-1.61.55-.93.55-2.02Zm-1.79-37.85h10.77v3.36q0 1.6-1.94 1.97l-3.35.62q.76 1.93.76 4.23 0 2.78-1.11 5.02-1.11 2.25-3.09 3.82-1.97 1.56-4.65 2.42-2.68.86-5.78.86-1.1 0-2.12-.11t-2.01-.29q-1.75 1.06-1.75 2.37 0 1.13 1.04 1.66t2.76.75q1.71.22 3.9.27 2.19.06 4.49.24 2.3.18 4.49.64 2.19.46 3.91 1.44 1.71.99 2.75 2.68 1.04 1.7 1.04 4.37 0 2.48-1.22 4.81-1.22 2.34-3.54 4.17-2.32 1.82-5.7 2.93-3.37 1.12-7.68 1.12-4.23 0-7.37-.82-3.14-.83-5.22-2.19-2.08-1.37-3.1-3.16-1.03-1.79-1.03-3.73 0-2.62 1.59-4.39 1.59-1.77 4.36-2.83-1.49-.77-2.37-2.05-.88-1.27-.88-3.35 0-.84.31-1.74.32-.89.92-1.77.6-.87 1.51-1.66.91-.78 2.16-1.4-2.85-1.54-4.48-4.09-1.62-2.56-1.62-5.99 0-2.77 1.11-5.02 1.12-2.24 3.11-3.83 1.99-1.59 4.7-2.43 2.72-.84 5.94-.84 2.4 0 4.52.5 2.12.49 3.87 1.44Zm32.89 31.21q0-1.14.42-2.16.42-1.02 1.15-1.75t1.75-1.17q1.02-.44 2.19-.44t2.17.44q1 .44 1.75 1.17t1.19 1.75q.44 1.02.44 2.16 0 1.16-.44 2.17-.44 1-1.19 1.73t-1.75 1.15q-1 .42-2.17.42t-2.19-.42q-1.02-.42-1.75-1.15t-1.15-1.73q-.42-1.01-.42-2.17Zm17.33 0q0-1.14.42-2.16.42-1.02 1.15-1.75t1.76-1.17q1.02-.44 2.19-.44 1.16 0 2.17.44 1 .44 1.75 1.17t1.19 1.75q.43 1.02.43 2.16 0 1.16-.43 2.17-.44 1-1.19 1.73t-1.75 1.15q-1.01.42-2.17.42-1.17 0-2.19-.42-1.03-.42-1.76-1.15t-1.15-1.73q-.42-1.01-.42-2.17Zm17.34 0q0-1.14.42-2.16.42-1.02 1.15-1.75t1.75-1.17q1.03-.44 2.19-.44 1.17 0 2.18.44 1 .44 1.75 1.17t1.18 1.75q.44 1.02.44 2.16 0 1.16-.44 2.17-.43 1-1.18 1.73t-1.75 1.15q-1.01.42-2.18.42-1.16 0-2.19-.42-1.02-.42-1.75-1.15t-1.15-1.73q-.42-1.01-.42-2.17Z"/></svg>