<svg xmlns="http://www.w3.org/2000/svg" width="1070" height="566" viewBox="0 0 1070 566"><rect width="100%" height="100%" fill="#DDDDDD"/><path fill="#999999" d="M229.48 244.57v62.9h-11.75v-62.9h11.75Zm23.1 62.9h-10.75v-44.63h6.57q2.09 0 2.74 1.96l.7 3.3q1.17-1.3 2.46-2.39 1.28-1.09 2.74-1.87 1.45-.78 3.13-1.24 1.67-.46 3.67-.46 4.22 0 6.94 2.29 2.72 2.28 4.07 6.06 1.04-2.21 2.61-3.8 1.57-1.59 3.44-2.59 1.87-1 3.98-1.48t4.24-.48q3.69 0 6.57 1.13 2.87 1.13 4.82 3.31 1.96 2.17 2.98 5.31 1.03 3.13 1.03 7.17v28.41h-10.75v-28.41q0-4.26-1.87-6.41-1.87-2.16-5.48-2.16-1.65 0-3.07.57-1.41.57-2.48 1.63-1.06 1.07-1.67 2.68-.61 1.61-.61 3.69v28.41H267.8v-28.41q0-4.48-1.8-6.52-1.81-2.05-5.29-2.05-2.35 0-4.37 1.16-2.02 1.15-3.76 3.15v32.67Zm85.69-11.53v-7.52q-4.65.21-7.83.8-3.17.59-5.09 1.5-1.91.92-2.74 2.13-.82 1.22-.82 2.66 0 2.82 1.67 4.04 1.68 1.22 4.37 1.22 3.31 0 5.72-1.2 2.42-1.19 4.72-3.63Zm-22.7-23.44-1.92-3.44q7.7-7.05 18.53-7.05 3.92 0 7.01 1.29 3.08 1.28 5.22 3.56 2.13 2.29 3.24 5.46 1.11 3.18 1.11 6.96v28.19h-4.88q-1.52 0-2.35-.46-.82-.45-1.3-1.85l-.96-3.21q-1.69 1.52-3.3 2.67-1.61 1.15-3.35 1.94-1.74.78-3.72 1.19-1.98.42-4.37.42-2.83 0-5.22-.77-2.4-.76-4.14-2.28-1.74-1.52-2.69-3.78-.96-2.27-.96-5.27 0-1.69.57-3.37.56-1.67 1.84-3.2 1.29-1.52 3.33-2.87 2.05-1.35 5.03-2.35 2.98-1 6.93-1.63 3.96-.63 9.05-.76v-2.61q0-4.48-1.91-6.63-1.92-2.16-5.53-2.16-2.61 0-4.32.61-1.72.61-3.03 1.37-1.3.77-2.37 1.37-1.06.61-2.37.61-1.13 0-1.91-.58-.79-.59-1.26-1.37Zm59.59 11.57q2 0 3.48-.55 1.48-.54 2.46-1.5.98-.95 1.48-2.3.5-1.35.5-2.96 0-3.31-1.98-5.24-1.98-1.94-5.94-1.94-3.96 0-5.94 1.94-1.98 1.93-1.98 5.24 0 1.56.5 2.91t1.48 2.33q.98.98 2.48 1.52 1.5.55 3.46.55Zm12.14 25.4q0-1.3-.79-2.13-.78-.83-2.13-1.28-1.35-.46-3.15-.68-1.81-.22-3.83-.32-2.02-.11-4.18-.2-2.15-.09-4.19-.35-1.79 1-2.9 2.35-1.11 1.35-1.11 3.13 0 1.18.59 2.2.59 1.02 1.87 1.76 1.29.74 3.33 1.15 2.04.42 5 .42 3 0 5.18-.46 2.17-.46 3.59-1.26 1.41-.81 2.06-1.91.66-1.11.66-2.42Zm-2.13-45.11H398v4q0 1.92-2.31 2.35l-4 .74q.91 2.31.91 5.05 0 3.3-1.32 5.98-1.33 2.67-3.68 4.54-2.35 1.88-5.54 2.9-3.2 1.02-6.9 1.02-1.3 0-2.52-.13t-2.4-.35q-2.08 1.26-2.08 2.83 0 1.35 1.24 1.98 1.24.63 3.28.89 2.05.26 4.66.33 2.61.06 5.35.28 2.74.22 5.35.76 2.61.54 4.65 1.72 2.05 1.17 3.29 3.2 1.23 2.02 1.23 5.19 0 2.96-1.45 5.75-1.46 2.78-4.22 4.96-2.76 2.17-6.79 3.5-4.02 1.32-9.15 1.32-5.05 0-8.79-.98-3.74-.97-6.22-2.61-2.48-1.63-3.7-3.76-1.22-2.13-1.22-4.43 0-3.14 1.89-5.25 1.9-2.11 5.2-3.37-1.78-.91-2.82-2.43-1.05-1.53-1.05-4.01 0-1 .37-2.06.37-1.07 1.09-2.11.72-1.05 1.8-1.98 1.09-.94 2.57-1.68-3.39-1.82-5.33-4.87-1.93-3.04-1.93-7.13 0-3.31 1.32-5.98 1.33-2.68 3.7-4.57 2.37-1.89 5.61-2.89 3.24-1 7.07-1 2.87 0 5.39.58 2.53.59 4.62 1.72Zm28.1 15.66h20.27q0-2.09-.59-3.94-.59-1.84-1.76-3.24-1.18-1.39-2.98-2.19-1.81-.81-4.2-.81-4.65 0-7.33 2.66-2.67 2.65-3.41 7.52Zm27.4 6.48h-27.62q.26 3.44 1.22 5.94.95 2.5 2.52 4.13t3.72 2.44q2.15.8 4.76.8t4.5-.61q1.9-.6 3.31-1.34 1.41-.74 2.48-1.35 1.07-.61 2.07-.61 1.34 0 2 1l3.09 3.91q-1.79 2.09-4.01 3.51-2.21 1.41-4.63 2.26-2.41.85-4.91 1.19-2.51.35-4.85.35-4.66 0-8.66-1.54-4-1.55-6.96-4.57-2.96-3.02-4.66-7.48-1.69-4.46-1.69-10.33 0-4.57 1.48-8.59 1.48-4.03 4.24-7.01 2.76-2.98 6.74-4.72 3.98-1.74 8.98-1.74 4.22 0 7.79 1.35 3.57 1.35 6.13 3.94 2.57 2.59 4.03 6.35 1.45 3.76 1.45 8.59 0 2.44-.52 3.28-.52.85-2 .85Zm45.11 11.31h25.14v9.66h-36.84v-62.9h11.7v53.24Zm51.55-35.67q4.96 0 9.02 1.61 4.07 1.61 6.96 4.57 2.9 2.96 4.46 7.22 1.57 4.26 1.57 9.53 0 5.3-1.57 9.57-1.56 4.26-4.46 7.26-2.89 3-6.96 4.61-4.06 1.61-9.02 1.61-5 0-9.09-1.61t-6.98-4.61q-2.9-3-4.49-7.26-1.58-4.27-1.58-9.57 0-5.27 1.58-9.53 1.59-4.26 4.49-7.22 2.89-2.96 6.98-4.57 4.09-1.61 9.09-1.61Zm0 37.72q5.57 0 8.24-3.74 2.68-3.74 2.68-10.97 0-7.22-2.68-11-2.67-3.79-8.24-3.79-5.66 0-8.38 3.81-2.71 3.81-2.71 10.98 0 7.18 2.71 10.94 2.72 3.77 8.38 3.77Zm53.81-3.92v-7.52q-4.66.21-7.83.8-3.18.59-5.09 1.5-1.92.92-2.74 2.13-.83 1.22-.83 2.66 0 2.82 1.68 4.04 1.67 1.22 4.37 1.22 3.3 0 5.72-1.2 2.41-1.19 4.72-3.63Zm-22.71-23.44-1.91-3.44q7.7-7.05 18.53-7.05 3.91 0 7 1.29 3.09 1.28 5.22 3.56 2.13 2.29 3.24 5.46 1.11 3.18 1.11 6.96v28.19h-4.87q-1.52 0-2.35-.46-.83-.45-1.3-1.85l-.96-3.21q-1.7 1.52-3.31 2.67t-3.35 1.94q-1.74.78-3.72 1.19-1.98.42-4.37.42-2.83 0-5.22-.77-2.39-.76-4.13-2.28-1.74-1.52-2.7-3.78-.95-2.27-.95-5.27 0-1.69.56-3.37.57-1.67 1.85-3.2 1.28-1.52 3.33-2.87 2.04-1.35 5.02-2.35 2.98-1 6.94-1.63 3.96-.63 9.05-.76v-2.61q0-4.48-1.92-6.63-1.91-2.16-5.52-2.16-2.61 0-4.33.61-1.72.61-3.02 1.37-1.31.77-2.37 1.37-1.07.61-2.37.61-1.13 0-1.92-.58-.78-.59-1.26-1.37Zm71.3 21.75v-20.01q-1.83-2.22-3.98-3.14-2.16-.91-4.64-.91-2.43 0-4.39.91-1.96.92-3.35 2.77-1.39 1.84-2.13 4.69-.74 2.85-.74 6.72 0 3.92.63 6.64.63 2.72 1.81 4.44 1.17 1.71 2.87 2.48 1.69.76 3.78.76 3.35 0 5.7-1.4 2.35-1.39 4.44-3.95Zm0-51.42h10.74v64.64h-6.57q-2.13 0-2.69-1.96l-.92-4.3q-2.69 3.08-6.2 5-3.5 1.91-8.15 1.91-3.66 0-6.7-1.52-3.05-1.52-5.24-4.42-2.2-2.89-3.4-7.15-1.19-4.26-1.19-9.75 0-4.95 1.35-9.22 1.34-4.26 3.87-7.39 2.52-3.13 6.04-4.9 3.53-1.76 7.92-1.76 3.74 0 6.4 1.18 2.65 1.17 4.74 3.17v-23.53Zm21.7 20.01h10.79v44.63h-10.79v-44.63Zm12.27-13.01q0 1.39-.56 2.61-.57 1.22-1.51 2.13-.93.92-2.19 1.46-1.26.54-2.7.54-1.39 0-2.63-.54t-2.15-1.46q-.92-.91-1.46-2.13-.55-1.22-.55-2.61 0-1.43.55-2.69.54-1.27 1.46-2.18.91-.91 2.15-1.46 1.24-.54 2.63-.54 1.44 0 2.7.54 1.26.55 2.19 1.46.94.91 1.51 2.18.56 1.26.56 2.69Zm18.79 14.97.74 3.52q1.35-1.35 2.85-2.5t3.18-1.96q1.67-.8 3.59-1.26 1.91-.46 4.17-.46 3.66 0 6.48 1.24 2.83 1.24 4.72 3.48 1.9 2.24 2.87 5.35.98 3.11.98 6.85v28.41h-10.74v-28.41q0-4.08-1.87-6.32-1.87-2.25-5.7-2.25-2.78 0-5.22 1.27-2.44 1.26-4.61 3.43v32.28h-10.75v-44.63h6.57q2.09 0 2.74 1.96Zm56.07 19.27q2.01 0 3.48-.55 1.48-.54 2.46-1.5.98-.95 1.48-2.3.5-1.35.5-2.96 0-3.31-1.98-5.24-1.98-1.94-5.94-1.94-3.95 0-5.93 1.94-1.98 1.93-1.98 5.24 0 1.56.5 2.91t1.48 2.33q.98.98 2.48 1.52 1.5.55 3.45.55Zm12.14 25.4q0-1.3-.78-2.13-.78-.83-2.13-1.28-1.35-.46-3.16-.68-1.8-.22-3.83-.32-2.02-.11-4.17-.2-2.15-.09-4.2-.35-1.78 1-2.89 2.35t-1.11 3.13q0 1.18.59 2.2.58 1.02 1.87 1.76 1.28.74 3.32 1.15 2.05.42 5.01.42 3 0 5.17-.46 2.18-.46 3.59-1.26 1.42-.81 2.07-1.91.65-1.11.65-2.42Zm-2.13-45.11h12.83v4q0 1.92-2.3 2.35l-4.01.74q.92 2.31.92 5.05 0 3.3-1.33 5.98-1.33 2.67-3.67 4.54-2.35 1.88-5.55 2.9-3.2 1.02-6.9 1.02-1.3 0-2.52-.13t-2.39-.35q-2.09 1.26-2.09 2.83 0 1.35 1.24 1.98 1.24.63 3.29.89 2.04.26 4.65.33 2.61.06 5.35.28 2.74.22 5.35.76 2.61.54 4.66 1.72 2.04 1.17 3.28 3.2 1.24 2.02 1.24 5.19 0 2.96-1.46 5.75-1.46 2.78-4.22 4.96-2.76 2.17-6.78 3.5-4.03 1.32-9.16 1.32-5.05 0-8.79-.98-3.74-.97-6.22-2.61-2.48-1.63-3.7-3.76-1.21-2.13-1.21-4.43 0-3.14 1.89-5.25t5.2-3.37q-1.79-.91-2.83-2.43-1.04-1.53-1.04-4.01 0-1 .37-2.06.37-1.07 1.08-2.11.72-1.05 1.81-1.98 1.09-.94 2.56-1.68-3.39-1.82-5.32-4.87-1.94-3.04-1.94-7.13 0-3.31 1.33-5.98 1.32-2.68 3.69-4.57 2.38-1.89 5.62-2.89 3.24-1 7.06-1 2.88 0 5.4.58 2.52.59 4.61 1.72Zm39.19 37.19q0-1.34.5-2.56t1.37-2.09q.87-.87 2.09-1.39 1.22-.52 2.61-.52t2.59.52q1.2.52 2.09 1.39.89.87 1.41 2.09.52 1.22.52 2.56 0 1.4-.52 2.59-.52 1.2-1.41 2.07-.89.87-2.09 1.37-1.2.5-2.59.5t-2.61-.5q-1.22-.5-2.09-1.37-.87-.87-1.37-2.07-.5-1.19-.5-2.59Zm20.67 0q0-1.34.5-2.56t1.37-2.09q.87-.87 2.08-1.39 1.22-.52 2.61-.52 1.4 0 2.59.52 1.2.52 2.09 1.39.89.87 1.41 2.09.53 1.22.53 2.56 0 1.4-.53 2.59-.52 1.2-1.41 2.07-.89.87-2.09 1.37-1.19.5-2.59.5-1.39 0-2.61-.5-1.21-.5-2.08-1.37-.87-.87-1.37-2.07-.5-1.19-.5-2.59Zm20.66 0q0-1.34.5-2.56t1.37-2.09q.87-.87 2.09-1.39 1.21-.52 2.61-.52 1.39 0 2.58.52 1.2.52 2.09 1.39.89.87 1.42 2.09.52 1.22.52 2.56 0 1.4-.52 2.59-.53 1.2-1.42 2.07-.89.87-2.09 1.37-1.19.5-2.58.5-1.4 0-2.61-.5-1.22-.5-2.09-1.37-.87-.87-1.37-2.07-.5-1.19-.5-2.59Z"/></svg>