<?xml version="1.0" encoding="UTF-8"?>
<svg version="1.1" xmlns="http://www.w3.org/2000/svg" width="417" height="417">
<path d="M0 0 C137.61 0 275.22 0 417 0 C417 137.61 417 275.22 417 417 C279.39 417 141.78 417 0 417 C0 279.39 0 141.78 0 0 Z " fill="#000000" transform="translate(0,0)"/>
<path d="M0 0 C3.92560339 3.44416146 6.21417142 7.11424257 8 12 C8.7528125 11.67386719 9.505625 11.34773438 10.28125 11.01171875 C34.74810363 0.94586513 62.98168346 0.68303827 87.6953125 10.03515625 C89.85076603 10.93752409 91.92610799 11.92482557 94 13 C94.0825 12.29875 94.165 11.5975 94.25 10.875 C95.51745525 6.01642154 97.84385631 2.77076246 102 0 C105.32571874 -0.56474469 107.7271148 -0.8294868 110.6484375 1.07421875 C119.41089731 9.9033978 119.67195043 24.28863019 120 36 C121.29292969 35.95359375 122.58585938 35.9071875 123.91796875 35.859375 C137.26506828 35.52116446 149.39538854 35.85924863 160.00390625 45.02734375 C169.63352881 54.54389833 173.47904234 64.5332446 174 78 C166.96991184 83.06820309 161.56941491 83.14375645 153.1875 83.0625 C152.30384766 83.05798828 151.42019531 83.05347656 150.50976562 83.04882812 C148.33981441 83.03709866 146.16989828 83.01916495 144 83 C144.23904053 84.28124756 144.23904053 84.28124756 144.48291016 85.58837891 C147.69024949 106.74954975 146.05869416 128.13678812 133.453125 145.87109375 C125.69979347 155.76029527 115.62705232 162.45028387 104 167 C104.52207031 167.3403125 105.04414063 167.680625 105.58203125 168.03125 C108.0680711 169.668292 110.53590938 171.3300911 113 173 C113.94746094 173.63808594 114.89492188 174.27617187 115.87109375 174.93359375 C122.39311439 179.47334488 128.41593278 183.75669873 130 192 C130.71165234 198.8598619 130.18631876 204.38062873 126 210 C121.67770599 214.80646137 117.93134439 217.9141941 111.625 219.5 C109.02782662 220.24100469 109.02782662 220.24100469 107 222 C105.43523322 226.61500473 104.88616943 231.20180129 104.29199219 236.02148438 C102.49651251 248.18751055 94.58999319 259.52333126 86 268 C83.22899606 269.38550197 81.0665294 269.1877467 78 269 C77.01 268.34 76.02 267.68 75 267 C72.64844344 266.94598619 72.64844344 266.94598619 70.125 267.1875 C66.43612077 267.23575569 65.30744723 267.20050906 62.125 265.125 C56.97906133 257.55744313 54.85365658 249.8050895 54.9375 240.75 C54.94652344 239.48671875 54.95554687 238.2234375 54.96484375 236.921875 C54.97644531 235.95765625 54.98804688 234.9934375 55 234 C52.36 234 49.72 234 47 234 C47.04125 235.2375 47.0825 236.475 47.125 237.75 C47.09286885 247.95163915 45.6140541 257.57170106 38.875 265.5 C35.18528711 267.4250676 32.39728076 267.23142084 28.3046875 266.9453125 C25.71893651 266.80112682 25.71893651 266.80112682 23 269 C18.96101714 269.62828622 17.44805004 269.32218652 14.09375 266.91015625 C10.78324436 264.02135147 8.57505667 260.73501418 6.3125 257 C5.93544922 256.39671875 5.55839844 255.7934375 5.16992188 255.171875 C3.07329956 251.80557041 1.03181941 248.40571634 -1 245 C-1.43570313 245.39832031 -1.87140625 245.79664063 -2.3203125 246.20703125 C-11.08029197 254 -11.08029197 254 -17 254 C-17.185625 255.175625 -17.185625 255.175625 -17.375 256.375 C-18 259 -18 259 -20 261 C-21.91796875 261.45703125 -21.91796875 261.45703125 -24.1875 261.8125 C-29.15466951 262.80111141 -32.08876079 264.83772149 -36 268 C-36.50775218 262.0339119 -35.39899822 257.02545295 -32 252 C-28.21321394 249.04096235 -25.71567845 248.75207645 -21 249.125 C-16.22883597 249.2713457 -16.22883597 249.2713457 -12.0625 247.0625 C-11.381875 246.051875 -10.70125 245.04125 -10 244 C-9.53851563 243.34515625 -9.07703125 242.6903125 -8.6015625 242.015625 C-4.99190111 236.39173267 -4.16489067 231.60929384 -5 225 C-5.6422486 221.92876227 -5.6422486 221.92876227 -7.78515625 221.04296875 C-8.53667969 220.76066406 -9.28820312 220.47835937 -10.0625 220.1875 C-17.44483692 217.09585253 -23.08403573 213.04873569 -27 206 C-29.10880381 199.67358856 -29.17503385 191.75877512 -26.5625 185.625 C-20.05018439 178.95384742 -13.63651441 173.91376413 -5.40625 169.4453125 C-2.8897405 168.22654161 -2.8897405 168.22654161 -2 166 C-3.07701172 165.82984375 -3.07701172 165.82984375 -4.17578125 165.65625 C-16.05153109 162.89673966 -27.13357447 152.81507073 -34 143 C-41.41164659 130.56756056 -44.1792444 117.9614387 -44.1875 103.6875 C-44.19974609 102.58470703 -44.21199219 101.48191406 -44.22460938 100.34570312 C-44.2356203 94.19793653 -43.81274756 88.88247332 -42 83 C-42.55872803 83.01571045 -43.11745605 83.0314209 -43.69311523 83.04760742 C-46.2744699 83.11074924 -48.8556613 83.14923704 -51.4375 83.1875 C-52.31599609 83.21263672 -53.19449219 83.23777344 -54.09960938 83.26367188 C-60.2194152 83.3314188 -65.37364914 82.48052139 -71 80 C-72.57549033 78.42450967 -72.24617765 76.87613745 -72.3125 74.6875 C-72.16197307 64.1355623 -67.88858501 54.87266858 -61 47 C-50.99267672 37.52367754 -39.76728262 35.79704831 -26.5 35.9375 C-25.67757812 35.94201172 -24.85515625 35.94652344 -24.0078125 35.95117188 C-22.00517604 35.96281511 -20.00257773 35.98074444 -18 36 C-18.04640625 35.319375 -18.0928125 34.63875 -18.140625 33.9375 C-18.56224914 22.61388035 -16.91520861 10.18243502 -9.3671875 1.28515625 C-6.24167764 -1.65282302 -3.96889135 -1.22119734 0 0 Z " fill="#cccccc" transform="translate(157,74)"/>
</svg>
