<?xml version="1.0" encoding="UTF-8"?>
<svg version="1.1" xmlns="http://www.w3.org/2000/svg" width="212" height="189">
<path d="M0 0 C69.96 0 139.92 0 212 0 C212 62.37 212 124.74 212 189 C142.04 189 72.08 189 0 189 C0 126.63 0 64.26 0 0 Z " fill="#FEFEFE" transform="translate(0,0)"/>
<path d="M0 0 C21.12 0 42.24 0 64 0 C64 27.39 64 54.78 64 83 C53.44 83 42.88 83 32 83 C32 66.5 32 50 32 33 C21.44 33 10.88 33 0 33 C0 22.11 0 11.22 0 0 Z " fill="#060606" transform="translate(24,51)"/>
<path d="M0 0 C12.21 0 24.42 0 37 0 C31.77809795 12.59399906 26.51787328 25.16583103 21.125 37.6875 C16.22736041 49.0617865 11.45468705 60.48329729 6.74462891 71.9362793 C6.26815918 73.09426025 5.79168945 74.25224121 5.30078125 75.4453125 C4.87966064 76.47156738 4.45854004 77.49782227 4.0246582 78.55517578 C3.39534604 80.0567083 2.72809803 81.54380395 2 83 C-10.21 83 -22.42 83 -35 83 C-30.9375 73.25 -30.9375 73.25 -29.50561523 69.81567383 C-27.09580993 64.03525626 -24.68933488 58.25349686 -22.28942871 52.46896362 C-15.00486323 34.9125943 -7.64366611 17.40403977 0 0 Z " fill="#040404" transform="translate(150,51)"/>
<path d="M0 0 C4.0984789 2.37636575 6.62951348 4.69399027 8.69140625 9.046875 C9.35140625 10.036875 10.01140625 11.026875 10.69140625 12.046875 C11.82513992 17.37760352 10.76633433 21.62934406 8.19140625 26.359375 C5.09226275 31.01533124 2.15115608 33.66257673 -3.30859375 35.046875 C-9.60886604 36.08019991 -14.39196593 35.34503738 -19.6171875 31.59765625 C-23.33637381 28.18768635 -24.93572722 24.51170781 -26.18359375 19.609375 C-26.37437697 14.17205318 -25.45637231 9.98926949 -22.68359375 5.296875 C-16.43168201 -0.62598875 -8.30117468 -3.42721933 0 0 Z " fill="#030303" transform="translate(123.30859375,52.953125)"/>
</svg>
