<?xml version="1.0" encoding="UTF-8"?>
<svg version="1.1" xmlns="http://www.w3.org/2000/svg" width="225" height="225">
<path d="M0 0 C74.25 0 148.5 0 225 0 C225 74.25 225 148.5 225 225 C150.75 225 76.5 225 0 225 C0 150.75 0 76.5 0 0 Z " fill="#131621" transform="translate(0,0)"/>
<path d="M0 0 C22.11 0 44.22 0 67 0 C67 27.39 67 54.78 67 83 C55.78 83 44.56 83 33 83 C33 66.83 33 50.66 33 34 C22.11 34 11.22 34 0 34 C0 22.78 0 11.56 0 0 Z " fill="#B3B3B3" transform="translate(31,79)"/>
<path d="M0 0 C1.64510941 0.00015915 3.29022379 0.00585551 4.93530273 0.01586914 C6.23164894 0.01799156 6.23164894 0.01799156 7.55418396 0.02015686 C10.32578941 0.025773 13.09731528 0.0383282 15.86889648 0.05102539 C17.74324428 0.05603831 19.61759334 0.06060158 21.49194336 0.06469727 C26.09679192 0.07574767 30.70158069 0.09302309 35.30639648 0.11352539 C33.69939402 5.06427007 32.05591834 9.94678675 29.99389648 14.73071289 C29.56359131 15.73658447 29.13328613 16.74245605 28.68994141 17.77880859 C28.00508667 19.36761841 28.00508667 19.36761841 27.30639648 20.98852539 C22.80860111 31.50657488 18.43959316 42.06948918 14.18725586 52.68920898 C11.57732317 59.16108265 8.79271928 65.51981017 5.82714844 71.83691406 C3.93818968 75.90686357 2.12871648 80.01330539 0.30639648 84.11352539 C-12.56360352 84.11352539 -25.43360352 84.11352539 -38.69360352 84.11352539 C-36.70251236 78.14025191 -34.66276459 72.42896958 -32.17407227 66.67993164 C-31.83853836 65.89602051 -31.50300446 65.11210937 -31.15730286 64.30444336 C-30.43949263 62.62780512 -29.72019264 60.95180402 -28.99951172 59.27639771 C-27.09146534 54.84006491 -25.19451572 50.39900493 -23.29907227 45.95727539 C-22.91451874 45.05634659 -22.52996521 44.15541779 -22.13375854 43.22718811 C-17.61478943 32.61624962 -13.24380259 21.94480878 -8.89746094 11.26220703 C-8.61915939 10.5806958 -8.34085785 9.89918457 -8.05412292 9.19702148 C-7.30818088 7.3699848 -6.56523255 5.54172664 -5.82250977 3.71337891 C-4.2670374 0.13115027 -4.2670374 0.13115027 0 0 Z " fill="#B3B3B3" transform="translate(160.693603515625,77.886474609375)"/>
<path d="M0 0 C4.90331294 2.27653815 7.5537698 5.19814071 10 10 C11.70364993 15.82538363 11.19420731 20.59167839 8.41015625 25.98046875 C5.20790232 30.56652216 1.54561086 32.52440872 -3.90625 33.54296875 C-9.56762672 33.92182351 -13.21928864 33.46681831 -17.625 29.75 C-21.72381386 25.70306986 -23.29405957 22.40414639 -23.375 16.625 C-23.27484058 11.61035171 -22.44257804 8.81474864 -19 5 C-12.83115652 -0.43445735 -8.10048786 -0.75279403 0 0 Z " fill="#B3B3B3" transform="translate(129,78)"/>
<path d="M0 0 C0.33 0 0.66 0 1 0 C1.22036864 3.85645121 0.60355101 6.49223216 -1 10 C-1.99 10 -2.98 10 -4 10 C-2.68 6.7 -1.36 3.4 0 0 Z " fill="#21232A" transform="translate(178,120)"/>
</svg>
