<!-- by TradingView --><svg width="56" height="56" viewBox="0 0 56 56" xmlns="http://www.w3.org/2000/svg"><path fill="#172852" d="M0 0h56v56H0z"/><path d="M43.8 25.08c-2.43-1.55-4.9-2.38-7.84-3.28a703.6 703.6 0 0 1-8.28-2.76c-1.22-.42-8.8-3.02-6.22-5.33.4-.36 1.05-.73 1.61-.91 9.47-3.03 18.74 2.89 20.73 12.28ZM17.28 39.85c-6.93-6.51-7.17-17.24.05-23.7a.1.1 0 0 1 .18.07C18.93 26.92 27.95 34.6 38.9 33.6a28.97 28.97 0 0 0 4.38-.71.16.16 0 0 1 .1.12v.08a16.14 16.14 0 0 1-26.09 6.76Z" fill="#FFD83D"/><path d="M35.96 21.8c2.94.9 5.41 1.73 7.84 3.28a19.04 19.04 0 0 1 .06 4.96.1.1 0 0 1-.1.04.1.1 0 0 1-.05-.01c-2.88-1.91-6.76-4.79-7.75-8.27Z" fill="#FF6F03"/></svg>