<!-- by TradingView --><svg width="56" height="56" viewBox="0 0 56 56" xmlns="http://www.w3.org/2000/svg"><path fill="#4C964F" d="M0 0h56v56H0z"/><path d="M15.12 25.7c1.66-7.2 9.51-9.8 13.23-10.21 10.34 0 9.1 6.12 9.93 7.34.66.98.27 3.68 0 4.9.41.41 1.32 1.39 1.65 2.04.41.82-1.65 1.64-1.65 2.86 0 .98-.55 2.58-.83 3.26.83.55 2.73 2.2 3.72 4.5 1.24 2.85.83 3.67-2.9 4.48-2.97.66-5.37-1.36-6.2-2.45.34.98-.96 1.5-1.65 1.64-2.2 0-7.77-.17-12.4-.82-4.63-.65-5.24-4.08-4.96-5.71 0-.96.4-4.66 2.06-11.84Z" fill="#3A7F3D"/><path fill-rule="evenodd" d="M32.3 42.69c.97 1.12 3.23 2.79 5.98 2.18 3.72-.81 4.13-1.63 2.9-4.49-1-2.28-2.9-3.94-3.73-4.49.28-.68.83-2.28.83-3.26 0-.61.51-1.12.98-1.58.46-.46.88-.87.67-1.28a10.55 10.55 0 0 0-1.65-2.04c.27-1.22.66-3.92 0-4.9a3.64 3.64 0 0 1-.35-1.16c-.43-2.18-1.22-6.18-9.58-6.18-3.72.4-11.57 3.02-13.23 10.2-1.65 7.18-2.06 10.88-2.06 11.84-.28 1.63.33 5.06 4.96 5.71 4.63.65 10.2.82 12.4.82.61-.12 1.69-.54 1.7-1.31.01-.1 0-.21-.04-.33l.21.27Zm-1.9 1.2c.33-.06.8-.22 1.13-.47.17-.12.3-.26.37-.41a.7.7 0 0 0 .02-.53l.29-.15c.4.52 1.19 1.28 2.24 1.83 1.05.54 2.35.87 3.8.55.92-.2 1.63-.4 2.16-.63.53-.23.85-.48 1.03-.77.18-.3.24-.64.16-1.11a7.67 7.67 0 0 0-.58-1.75 11.16 11.16 0 0 0-3.66-4.42l-.11-.07.05-.13c.13-.33.34-.9.5-1.5.18-.6.31-1.23.31-1.7 0-.35.15-.67.35-.94.2-.28.45-.53.68-.75.24-.24.44-.44.57-.64.12-.18.14-.32.07-.45a6.3 6.3 0 0 0-.77-1.08c-.32-.38-.65-.72-.85-.92l-.06-.07.02-.08c.13-.6.3-1.58.34-2.52.03-.47.02-.92-.03-1.32s-.15-.72-.29-.93c-.12-.19-.2-.44-.26-.73l-.11-.5-.1-.5c-.16-.73-.4-1.6-.93-2.4-1.04-1.63-3.25-3.15-8.38-3.15-1.84.2-4.7.95-7.31 2.54-2.61 1.59-4.95 4-5.77 7.54-1.65 7.18-2.06 10.86-2.06 11.8v.02c-.13.79-.05 2.01.62 3.12.67 1.1 1.93 2.09 4.2 2.4 4.6.66 10.15.82 12.36.82Z" fill="#0C0B0C"/><path d="M21.32 30.59c-.33-.98.7-.95 1.25-.82 2.48 2.04 9.1 2.04 12.4 2.04 3.3 0 4.13-2.04 4.13-2.85 0-.82 1.24.4 1.24 1.22 0 .65-1.1 1.63-1.65 2.04.14.27.33.98 0 1.63-.41.82-4.55 1.23-8.68.82-4.14-.4-8.27-2.86-8.69-4.08Z" fill="#942A12"/><path d="m38.48 32.17.11-.08c.27-.2.68-.54 1.01-.9.17-.19.32-.38.42-.55.1-.18.16-.34.16-.46 0-.17-.07-.37-.18-.57a2.31 2.31 0 0 0-.6-.7.35.35 0 0 0-.12-.06v.02l-.01.09c0 .45-.23 1.2-.88 1.85-.65.64-1.73 1.17-3.42 1.17-1.66 0-4.14 0-6.53-.26-1.2-.13-2.37-.32-3.4-.61a7.2 7.2 0 0 1-2.55-1.19c-.26-.06-.6-.08-.82 0-.11.04-.18.1-.22.17-.03.09-.04.22.03.45.09.26.4.61.9 1.02.5.4 1.17.83 1.97 1.23 1.58.8 3.63 1.52 5.67 1.72 2.06.2 4.12.2 5.7.05.8-.08 1.48-.2 1.97-.33.25-.08.45-.15.6-.23.15-.08.22-.16.25-.22.3-.59.13-1.24 0-1.49l-.06-.12Zm-15.91-2.4c2.48 2.04 9.1 2.04 12.4 2.04 3.3 0 4.13-2.04 4.13-2.85 0-.82 1.24.4 1.24 1.22 0 .65-1.1 1.63-1.65 2.04.14.27.33.98 0 1.63-.41.82-4.55 1.23-8.68.82-4.14-.4-8.27-2.86-8.69-4.08-.33-.98.7-.95 1.25-.82Z" fill="#0C0B0C"/><path d="M30 24.06c-2.06 0-6.2-.4-6.2.4-.4 2.46 6.2 2.05 7.45 2.05 1.24 0 .87-2.45-1.24-2.45ZM35.8 24.47c1.65 0 2.62.54 2.9.81.32.23.13.91 0 1.23a5.8 5.8 0 0 1-2.9 0c-1.66-.41-2.9.4-2.9-.82s.83-1.22 2.9-1.22Z" fill="#F0F0F0"/><path d="M23.97 24.48v.01c-.05.27 0 .5.13.68.12.2.32.36.6.5.55.3 1.35.47 2.23.57a28.72 28.72 0 0 0 4.32.1c.24 0 .4-.11.47-.28.09-.19.1-.45 0-.73-.17-.54-.73-1.1-1.71-1.1-.5 0-1.1-.03-1.74-.05h-.11c-.68-.03-1.39-.06-2.03-.06-.64 0-1.21.03-1.62.1-.2.04-.35.08-.44.14-.1.05-.1.09-.1.1v.02Zm14.61.93v-.01c-.24-.23-1.16-.77-2.78-.77-.52 0-.96 0-1.32.02a3.4 3.4 0 0 0-.85.13.74.74 0 0 0-.43.3c-.08.13-.13.32-.13.61 0 .28.07.4.15.46.1.06.25.1.5.1l.38-.02a5.95 5.95 0 0 1 1.74.12c1.22.3 2.29.15 2.73.02.05-.14.11-.34.13-.52.03-.23-.02-.37-.1-.43l-.02-.01Zm.11 1.1a5.8 5.8 0 0 1-2.9 0 5.72 5.72 0 0 0-1.67-.12c-.75.04-1.22.06-1.22-.7 0-1.22.83-1.22 2.9-1.22 1.65 0 2.62.54 2.9.81.32.23.13.91 0 1.23ZM28.28 24c.64.03 1.24.05 1.73.05 2.1 0 2.48 2.45 1.24 2.45h-.5c-1.95.05-7.32.17-6.94-2.04 0-.63 2.4-.54 4.47-.46Z" fill="#0C0B0C"/><path d="M25.46 24.47c0-.33.83-.41 1.24-.41h1.65c1.24 0 1.66 2.45-.82 2.45s-2.07-1.63-2.07-2.04Z" fill="#0C0B0C"/><path d="M24.22 11.82c-3.3.32-4.96 5.57-5.38 7.75 1.52.68 5.13 1.3 7.45 1.63 2.9.41 7.85-1.22 9.92-.81 2.07.4 5.38 2.85 6.62 1.63.99-.98-2.49-2.2-4.55-2.75V14.8c0-2.04-2.9-3.79-5.8-3.79-2.89 0-4.13.82-6.2.82h-2.06Z" fill="#CA3639"/><path fill-rule="evenodd" d="M38.28 19.27V14.8c0-2.04-2.9-3.79-5.8-3.79-1.56 0-2.64.24-3.63.46-.84.18-1.62.36-2.56.36h-2.07c-3.3.32-4.96 5.57-5.38 7.75 1.52.68 5.13 1.3 7.45 1.63 1.5.22 3.57-.13 5.5-.44 1.77-.3 3.43-.57 4.42-.37.73.14 1.6.53 2.5.93 1.63.74 3.31 1.5 4.12.7.99-.98-2.49-2.2-4.55-2.75Zm-19.25.2c.75.32 1.96.62 3.27.89 1.38.28 2.85.52 4.01.68 1.42.2 3.35-.1 5.22-.4l.23-.05c.85-.13 1.68-.27 2.42-.35.8-.1 1.52-.12 2.06-.01.54.1 1.15.34 1.77.6l.76.35 1.12.48c.62.26 1.2.45 1.69.52.5.06.87-.02 1.13-.28.1-.1.13-.18.12-.25 0-.08-.04-.18-.13-.3-.2-.23-.58-.47-1.08-.72-.98-.49-2.36-.93-3.39-1.2l-.12-.03v-4.61c0-.95-.67-1.85-1.73-2.53a7.44 7.44 0 0 0-3.9-1.1c-1.42 0-2.44.2-3.37.4l-.23.06c-.84.18-1.63.36-2.6.36h-2.05c-1.56.16-2.77 1.48-3.64 3.1a16.86 16.86 0 0 0-1.56 4.4Z" fill="#0C0B0C"/><path d="M25.81 19.46c-.62.11-1.17.2-1.59.2a11.97 11.97 0 0 1-2.87-.35c-.2-.04-.34-.07-.44-.07v-.16c.11 0 .28.03.48.07a28.84 28.84 0 0 0 .73.14c.56.1 1.28.2 2.1.2.4 0 .94-.08 1.56-.2.5-.08 1.04-.2 1.6-.32l.44-.1c1.45-.3 3-.6 4.26-.6 1.48 0 3.06.3 4.45.56.47.1.93.18 1.35.25l-.03.16-1.37-.25a24.05 24.05 0 0 0-4.4-.56 22.3 22.3 0 0 0-4.66.7c-.57.12-1.11.24-1.6.33Zm5.63 2.12a1.67 1.67 0 0 0-.25-.32l.12-.12c.07.08.18.2.27.36.08.14.16.31.16.48.22.23.46.62.53 1.12a2.4 2.4 0 0 1-.54 1.82l-.13-.1c.48-.63.58-1.22.5-1.7a1.9 1.9 0 0 0-.48-1.03c-.9-.2-2.42-.38-4.14-.27-1.49.1-3.11.41-4.58 1.12.6-.16 1.34-.33 2.14-.46a13.09 13.09 0 0 1 6.07.35c.22.07.37.14.47.2l.12.1c.02.03.04.07.04.11h-.16v.01l-.01-.01a.37.37 0 0 0-.08-.07 2.1 2.1 0 0 0-.43-.19 12.93 12.93 0 0 0-5.99-.34c-.8.13-1.54.3-2.13.45 2.92-.18 6.68.23 8.32.48l-.02.16c-1.78-.27-6.04-.72-9-.41.02.27.14.5.29.68.16.2.36.33.49.4l-.08.14a1.77 1.77 0 0 1-.54-.44c-.18-.22-.33-.5-.33-.86v-.04l.04-.03c1.67-.99 3.61-1.4 5.36-1.5 1.68-.12 3.18.05 4.1.24a1.05 1.05 0 0 0-.13-.33Zm2.28 1.67a4.47 4.47 0 0 1 3.32-1.56v-.16a4.64 4.64 0 0 0-3.8 2.08l-.14.24.25-.13c.4-.2 1.12-.44 1.94-.5.81-.08 1.72.02 2.53.5l.09-.14a4.4 4.4 0 0 0-2.64-.53c-.51.04-1 .16-1.38.28 1.8-1.15 3.46-.9 4.2-.54l.07-.15c-.78-.39-2.56-.65-4.44.61Zm-4.37 4.51c.97-.07 1.8-.31 2.28-.51l.1.13a9.24 9.24 0 0 1-5.43 2.88l-.02-.16a9.2 9.2 0 0 0 5.1-2.58c-.5.17-1.22.35-2.02.4-.98.08-2.1-.02-3.11-.52l.07-.15c.98.48 2.07.58 3.03.51Zm3.47-.42.15-.06c.13.19.53.6 1.11.94.58.36 1.32.65 2.13.65.75 0 1.88-.24 1.88-1.1h.16c0 .95-1.2 1.27-2.04 1.27-.85 0-1.62-.32-2.21-.68a5.1 5.1 0 0 1-.9-.68c.13.3.33.67.58 1.04a5.3 5.3 0 0 0 1.34 1.4l-.1.13c-.5-.34-1-.89-1.37-1.44a4.7 4.7 0 0 1-.73-1.47Zm-11.59 1.87c.45-.25.98-.34 1.34-.34v.17c-.34 0-.84.08-1.26.31-.4.24-.73.62-.73 1.24h-.16c0-.69.36-1.12.81-1.38Zm8.9 4a26.59 26.59 0 0 1-6.77-1.73l.07-.15c1.44.6 3.93 1.38 6.72 1.72 2.8.33 5.88.23 8.5-.9l.07.15c-2.66 1.15-5.78 1.25-8.59.91Zm4.68 2.72c.73-.21 1.65-.28 2.65-.12l-.02.16a6.02 6.02 0 0 0-2.48.09c.13.22.26.52.27.8a.7.7 0 0 1-.14.46.83.83 0 0 1-.52.29h-.43v-.16h.4c.22-.05.34-.13.42-.23.08-.1.1-.22.1-.36 0-.26-.13-.55-.26-.76-.5.16-.9.38-1.15.62-.25.25-.34.53-.26.78.1.29.24.42.4.47.16.06.36.04.6-.01l.26-.07a19.26 19.26 0 0 1 .45-.1c.25-.04.5-.04.73.07.44.22.67.55.67.94 0 .39-.22.82-.64 1.23l-.53.49-.07.06c-.18.16-.33.3-.43.42-.1.12-.13.2-.12.28.02.07.1.15.3.25.14.08.34.1.58.06.24-.02.51-.1.79-.2.55-.18 1.1-.47 1.44-.67l.09.14c-.35.2-.79.52-1.02.83-.12.15-.17.28-.16.39.02.09.1.19.33.27.73.24 1.35.03 1.72-.19l.28-.21.1.12c-.06.07-.16.15-.28.22-.13.11-.24.23-.31.36-.07.1-.09.2-.07.28.02.08.08.16.23.24.3.15.62.12.9.01.1-.03.18-.07.26-.11.12-.14.3-.25.42-.31l.1.13c-.1.1-.24.2-.41.3l-.02.03a.33.33 0 0 0-.08.18c0 .06.02.12.09.2.14.13.35.16.57.14.23-.02.44-.1.57-.16l.08.14c-.15.07-.38.16-.63.18-.24.03-.52 0-.7-.2a.41.41 0 0 1-.15-.3l.02-.08-.06.02a1.3 1.3 0 0 1-1.04-.03c-.18-.09-.28-.2-.31-.34a.56.56 0 0 1 .08-.4l.06-.08c-.4.14-.9.2-1.47.01-.26-.08-.41-.22-.44-.4-.03-.17.06-.35.18-.51.07-.09.15-.18.25-.26-.19.08-.38.16-.57.22-.28.1-.56.18-.82.2-.25.04-.5.02-.68-.07-.2-.1-.34-.22-.38-.37-.03-.14.04-.29.15-.42a4.05 4.05 0 0 1 .52-.5l.52-.47c.4-.4.6-.8.6-1.12a.76.76 0 0 0-.1-.37c-.28.3-1 .96-1.96 1.58.12.37.1.67-.08.84l-.12-.12c.12-.1.16-.35.03-.73a3.48 3.48 0 0 0-.85-1.2 5.55 5.55 0 0 0-2.09-1.3c-.33-.1-.6-.12-.8-.05a.4.4 0 0 0-.2.16.6.6 0 0 0-.08.32c0 .5.08.85.2 1.1.1.25.27.4.44.52a3 3 0 0 0 .27.17c.02 0 .04.02.05.03l.22.12c.18.12.35.25.47.48.27.53.4.98.46 1.33.06.36.03.62-.05.78l-.15-.07c.06-.12.1-.34.04-.68a4.44 4.44 0 0 0-.45-1.29c-.1-.19-.24-.3-.4-.4l-.22-.13-.05-.03c-.1-.05-.2-.1-.29-.18a1.45 1.45 0 0 1-.5-.58c-.13-.28-.2-.65-.2-1.17 0-.16.03-.3.1-.4.07-.11.17-.19.3-.23.23-.09.55-.06.9.05.68.2 1.52.72 2.14 1.34.44.43.7.83.85 1.16.97-.63 1.68-1.3 1.92-1.56-.09-.1-.22-.2-.38-.28-.18-.1-.4-.1-.63-.06l-.35.08-.09.02-.27.07a1.3 1.3 0 0 1-.69 0c-.21-.07-.38-.24-.5-.57-.1-.33.02-.66.3-.94a3 3 0 0 1 1.28-.68ZM34.56 25.28c0-.65.27-.81.4-.81h.84c1.24 0 1.24.81 1.24 1.22 0 .41-.42.82-1.24.82-.83 0-1.24-.41-1.24-1.23Z" fill="#0C0B0C"/><path d="M28.77 25.28c0 .23-.19.41-.42.41a.41.41 0 0 1-.4-.4c0-.23.18-.41.4-.41.23 0 .42.18.42.4ZM27.13 24.78c0 .22-.19.4-.42.4a.41.41 0 0 1-.41-.4c0-.23.18-.41.41-.41.23 0 .42.18.42.4ZM27.12 25.78c0 .22-.18.4-.41.4a.41.41 0 0 1-.41-.4c0-.23.18-.4.41-.4.23 0 .41.17.41.4ZM36.67 25.47c0 .22-.19.4-.42.4a.41.41 0 0 1-.41-.4.41.41 0 0 1 .83 0ZM35.49 25.15c0 .23-.18.4-.41.4a.41.41 0 0 1-.42-.4c0-.23.19-.4.42-.4.23 0 .41.17.41.4Z" fill="#D9D9D9"/></svg>