<?xml version="1.0" encoding="UTF-8"?>
<svg version="1.1" xmlns="http://www.w3.org/2000/svg" width="64" height="64">
<path d="M0 0 C0.75071777 0.04930664 1.50143555 0.09861328 2.27490234 0.14941406 C8.31228518 0.64677879 13.41419001 1.91732255 18.75 4.875 C19.43835937 5.2359375 20.12671875 5.596875 20.8359375 5.96875 C24.34490939 8.08845547 26.12516248 9.90227319 27.3125 13.875 C27.93892091 17.40028363 27.569379 19.71502596 25.75 22.875 C25.255 23.37 25.255 23.37 24.75 23.875 C23.00194051 36.46423354 23.00194051 36.46423354 27.75 47.875 C28.41 47.875 29.07 47.875 29.75 47.875 C29.75 48.865 29.75 49.855 29.75 50.875 C26.45 51.535 23.15 52.195 19.75 52.875 C20.41 55.845 21.07 58.815 21.75 61.875 C10.53 61.875 -0.69 61.875 -12.25 61.875 C-10.25 52.875 -10.25 52.875 -9.25 50.875 C-10.24 51.37 -10.24 51.37 -11.25 51.875 C-13.79615009 52.10672827 -16.32396225 52.29394529 -18.875 52.4375 C-19.58140625 52.48068359 -20.2878125 52.52386719 -21.015625 52.56835938 C-22.76018537 52.67444751 -24.50506697 52.77522889 -26.25 52.875 C-26.25 51.885 -26.25 50.895 -26.25 49.875 C-26.85111064 44.79545479 -26.85111064 44.79545479 -27.609375 39.73828125 C-28.55961855 33.43726154 -27.65344091 28.05014 -26.25 21.875 C-26.03085937 20.78703125 -25.81171875 19.6990625 -25.5859375 18.578125 C-25.35132813 17.50046875 -25.11671875 16.4228125 -24.875 15.3125 C-24.66101563 14.32121094 -24.44703125 13.32992188 -24.2265625 12.30859375 C-23.25 9.875 -23.25 9.875 -21.1484375 8.53515625 C-20.52195312 8.31730469 -19.89546875 8.09945313 -19.25 7.875 C-19.25 7.215 -19.25 6.555 -19.25 5.875 C-13.43101669 0.39830982 -7.76957321 -0.53128255 0 0 Z M-3.25 46.875 C-3.25 47.535 -3.25 48.195 -3.25 48.875 C-4.24 49.205 -5.23 49.535 -6.25 49.875 C-4.27 49.875 -2.29 49.875 -0.25 49.875 C-0.25 48.885 -0.25 47.895 -0.25 46.875 C-1.24 46.875 -2.23 46.875 -3.25 46.875 Z " fill="#D3CEB1" transform="translate(31.25,2.125)"/>
<path d="M0 0 C0.75071777 0.04930664 1.50143555 0.09861328 2.27490234 0.14941406 C8.31228518 0.64677879 13.41419001 1.91732255 18.75 4.875 C19.43835937 5.2359375 20.12671875 5.596875 20.8359375 5.96875 C24.34490939 8.08845547 26.12516248 9.90227319 27.3125 13.875 C27.9245391 17.39422481 27.71739726 19.78337573 25.75 22.875 C24.76 23.205 23.77 23.535 22.75 23.875 C22.37875 22.905625 22.0075 21.93625 21.625 20.9375 C20.696875 19.4215625 20.696875 19.4215625 19.75 17.875 C16.69091587 17.05915432 16.69091587 17.05915432 13.75 16.875 C13.255 15.885 13.255 15.885 12.75 14.875 C11.43 16.525 10.11 18.175 8.75 19.875 C7.43 19.545 6.11 19.215 4.75 18.875 C4.75 17.225 4.75 15.575 4.75 13.875 C4.09 13.875 3.43 13.875 2.75 13.875 C2.75 15.525 2.75 17.175 2.75 18.875 C2.09 18.215 1.43 17.555 0.75 16.875 C0.09 17.865 -0.57 18.855 -1.25 19.875 C-2.24 19.545 -3.23 19.215 -4.25 18.875 C-4.58 19.865 -4.91 20.855 -5.25 21.875 C-3.27 22.205 -1.29 22.535 0.75 22.875 C0.75 23.205 0.75 23.535 0.75 23.875 C-1.56 23.875 -3.87 23.875 -6.25 23.875 C-6.58 24.865 -6.91 25.855 -7.25 26.875 C-8.9 26.545 -10.55 26.215 -12.25 25.875 C-12.58 26.865 -12.91 27.855 -13.25 28.875 C-15.53515625 30.04296875 -15.53515625 30.04296875 -18.3125 31.0625 C-19.23160156 31.40667969 -20.15070312 31.75085938 -21.09765625 32.10546875 C-21.80792969 32.35941406 -22.51820312 32.61335938 -23.25 32.875 C-23.00944414 34.81982525 -23.00944414 34.81982525 -22.25 36.875 C-18.73895978 38.91778703 -15.3372348 40.47509754 -11.53125 41.875 C-10.6340625 42.205 -9.736875 42.535 -8.8125 42.875 C-7.96816406 43.16375 -7.12382812 43.4525 -6.25390625 43.75 C-4.25 44.875 -4.25 44.875 -3.46484375 47 C-3.39394531 47.61875 -3.32304687 48.2375 -3.25 48.875 C-10.70141157 52.37260135 -18.16370736 52.56965822 -26.25 52.875 C-26.25 51.885 -26.25 50.895 -26.25 49.875 C-26.85111064 44.79545479 -26.85111064 44.79545479 -27.609375 39.73828125 C-28.55961855 33.43726154 -27.65344091 28.05014 -26.25 21.875 C-26.03085937 20.78703125 -25.81171875 19.6990625 -25.5859375 18.578125 C-25.35132813 17.50046875 -25.11671875 16.4228125 -24.875 15.3125 C-24.66101563 14.32121094 -24.44703125 13.32992188 -24.2265625 12.30859375 C-23.25 9.875 -23.25 9.875 -21.1484375 8.53515625 C-20.52195312 8.31730469 -19.89546875 8.09945313 -19.25 7.875 C-19.25 7.215 -19.25 6.555 -19.25 5.875 C-13.43101669 0.39830982 -7.76957321 -0.53128255 0 0 Z " fill="#754D41" transform="translate(31.25,2.125)"/>
<path d="M0 0 C2.31 0 4.62 0 7 0 C7.66 1.32 8.32 2.64 9 4 C9.66 3.67 10.32 3.34 11 3 C10.95359375 4.0621875 10.9071875 5.124375 10.859375 6.21875 C10.5253425 17.16098048 10.5253425 17.16098048 15 27 C15.66 27 16.32 27 17 27 C17 27.99 17 28.98 17 30 C13.7 30.66 10.4 31.32 7 32 C7.66 34.97 8.32 37.94 9 41 C-2.22 41 -13.44 41 -25 41 C-23 32 -23 32 -21.25 29.9375 C-18.38798058 28.74499191 -16.06903103 28.79074788 -13 29 C-13 28.01 -13 27.02 -13 26 C-12.07767578 25.80083984 -12.07767578 25.80083984 -11.13671875 25.59765625 C-10.32847656 25.42105469 -9.52023438 25.24445312 -8.6875 25.0625 C-7.48673828 24.80146484 -7.48673828 24.80146484 -6.26171875 24.53515625 C-3.854599 24.00113841 -3.854599 24.00113841 -1 23 C0.00217064 19.41672247 0.00217064 19.41672247 -1 16 C0.65 15.67 2.3 15.34 4 15 C3.34 14.62875 2.68 14.2575 2 13.875 C0 12 0 12 -0.3125 9 C0 6 0 6 1 3 C1.66 2.67 2.32 2.34 3 2 C2.01 1.34 1.02 0.68 0 0 Z " fill="#BCB59C" transform="translate(44,23)"/>
<path d="M0 0 C-0.33 1.32 -0.66 2.64 -1 4 C0.32 4 1.64 4 3 4 C5.01495907 4.61998741 7.0187415 5.27954236 9 6 C9 5.34 9 4.68 9 4 C9.99 4 10.98 4 12 4 C11.34 3.67 10.68 3.34 10 3 C10 2.01 10 1.02 10 0 C16.625 0.75 16.625 0.75 20 3 C20.66 5.97 21.32 8.94 22 12 C10.78 12 -0.44 12 -12 12 C-10 3 -10 3 -8.25 0.9375 C-5.38798058 -0.25500809 -3.06903103 -0.20925212 0 0 Z " fill="#E7E7E6" transform="translate(31,52)"/>
<path d="M0 0 C0.66515625 0.27070312 1.3303125 0.54140625 2.015625 0.8203125 C4.24301247 1.70077194 6.48527495 2.54377221 8.734375 3.3671875 C10.07302272 3.86950914 11.41156238 4.37211881 12.75 4.875 C13.77673828 5.24044922 13.77673828 5.24044922 14.82421875 5.61328125 C16.796875 6.3671875 16.796875 6.3671875 20 8 C20.953125 10.1953125 20.953125 10.1953125 21 12 C13.54858843 15.49760135 6.08629264 15.69465822 -2 16 C-2 12.33333333 -2 8.66666667 -2 5 C-1.67 5 -1.34 5 -1 5 C-0.67 3.35 -0.34 1.7 0 0 Z " fill="#724B3F" transform="translate(7,39)"/>
<path d="M0 0 C1.58971965 2.38457948 2.86741593 4.6304124 4.125 7.1875 C4.47820313 7.90292969 4.83140625 8.61835937 5.1953125 9.35546875 C5.46085937 9.89816406 5.72640625 10.44085938 6 11 C6.66 11 7.32 11 8 11 C8 11.99 8 12.98 8 14 C0.55473758 15.8613156 -5.76677863 15.06663468 -13 13 C-13 12.01 -13 11.02 -13 10 C-11.730447 9.35165346 -10.45930294 8.70642185 -9.1875 8.0625 C-8.47980469 7.70285156 -7.77210937 7.34320313 -7.04296875 6.97265625 C-5 6 -5 6 -2 5 C-0.78130071 2.49552484 -0.78130071 2.49552484 0 0 Z " fill="#714E41" transform="translate(53,39)"/>
<path d="M0 0 C0.99 0 1.98 0 3 0 C2.690625 0.5775 2.38125 1.155 2.0625 1.75 C1.07416636 3.84294184 0.4831387 5.74535275 0 8 C0.99 8 1.98 8 3 8 C2.67 9.32 2.34 10.64 2 12 C1.01 11.67 0.02 11.34 -1 11 C-1.33 11.99 -1.66 12.98 -2 14 C0.97 14.495 0.97 14.495 4 15 C4 15.33 4 15.66 4 16 C1.69 16 -0.62 16 -3 16 C-3.33 16.99 -3.66 17.98 -4 19 C-4.99 19 -5.98 19 -7 19 C-7.39278091 17.27478537 -7.76349151 15.54453752 -8.125 13.8125 C-8.33382813 12.84957031 -8.54265625 11.88664062 -8.7578125 10.89453125 C-9.03378894 7.59616771 -8.6157624 5.87190371 -7 3 C-3.9375 1.75 -3.9375 1.75 -1 1 C-0.67 0.67 -0.34 0.34 0 0 Z " fill="#85594E" transform="translate(28,10)"/>
<path d="M0 0 C0.33 0 0.66 0 1 0 C0.67 2.97 0.34 5.94 0 9 C1.32 7.68 2.64 6.36 4 5 C5.29012683 8.87038049 4.54732624 11.15594427 3.6875 15.125 C3.29111328 17.01605469 3.29111328 17.01605469 2.88671875 18.9453125 C2.59410156 19.95335938 2.30148438 20.96140625 2 22 C1.34 22.33 0.68 22.66 0 23 C-0.4683265 25.58605332 -0.4683265 25.58605332 -0.625 28.5625 C-0.73714844 30.08037109 -0.73714844 30.08037109 -0.8515625 31.62890625 C-0.90054687 32.41136719 -0.94953125 33.19382813 -1 34 C-1.33 33.34 -1.66 32.68 -2 32 C-2.66 32 -3.32 32 -4 32 C-5.8375047 20.7912213 -2.83748181 10.83918053 0 0 Z " fill="#825349" transform="translate(8,12)"/>
<path d="M0 0 C5.875 1.875 5.875 1.875 7 3 C7.3125 6.375 7.3125 6.375 7 10 C5.125 11.9375 5.125 11.9375 3 13 C1 13 1 13 -1.6875 10.75 C-4 8 -4 8 -4 5.9375 C-2.871981 3.75196319 -1.55983619 1.89893102 0 0 Z " fill="#242528" transform="translate(27,28)"/>
<path d="M0 0 C1.75 1.375 1.75 1.375 3 3 C3.66 3.66 4.32 4.32 5 5 C3.01230506 6.98769494 -0.76190368 6.4339874 -3.45703125 6.62109375 C-6.05012241 7.00746832 -7.68178412 7.83854093 -10 9 C-11.32 9 -12.64 9 -14 9 C-14 8.34 -14 7.68 -14 7 C-13.01 6.34 -12.02 5.68 -11 5 C-10.27617533 2.94074861 -10.27617533 2.94074861 -10 1 C-6.60444966 -0.04478472 -3.54294857 -0.30152754 0 0 Z " fill="#DFC2B1" transform="translate(44,33)"/>
<path d="M0 0 C1.43655854 -0.08131463 2.8744483 -0.13933559 4.3125 -0.1875 C5.51326172 -0.23970703 5.51326172 -0.23970703 6.73828125 -0.29296875 C9 0 9 0 10.8046875 1.34765625 C12 3 12 3 11.8125 5.625 C11 8 11 8 9 9 C6.6670134 9.04022391 4.33293334 9.04320247 2 9 C2 8.01 2 7.02 2 6 C0.68 6 -0.64 6 -2 6 C-1.33333333 4 -0.66666667 2 0 0 Z " fill="#B8B399" transform="translate(31,50)"/>
<path d="M0 0 C1.36884358 4.51718381 0.47075246 7.58774263 -1 12 C-2.98 11.01 -4.96 10.02 -7 9 C-7.07427838 5.65747276 -7.06546953 3.1964086 -6 0 C-3.50907189 -1.24546405 -2.58919267 -0.7767578 0 0 Z " fill="#3A3B40" transform="translate(51,26)"/>
<path d="M0 0 C2 2 2 2 2.1953125 4.3828125 C2.17210937 5.28773437 2.14890625 6.19265625 2.125 7.125 C2.10695313 8.03507812 2.08890625 8.94515625 2.0703125 9.8828125 C2.04710937 10.58148438 2.02390625 11.28015625 2 12 C-0.64 12 -3.28 12 -6 12 C-4.66958425 3.64989059 -4.66958425 3.64989059 -1.875 0.9375 C-0.946875 0.4734375 -0.946875 0.4734375 0 0 Z " fill="#C4BFA2" transform="translate(25,52)"/>
<path d="M0 0 C2.475 0.495 2.475 0.495 5 1 C6.14453125 2.77734375 6.14453125 2.77734375 6.8125 4.9375 C7.04582031 5.64777344 7.27914062 6.35804687 7.51953125 7.08984375 C8 9 8 9 8 11 C5.36 11 2.72 11 0 11 C0 7.37 0 3.74 0 0 Z " fill="#C9C4A9" transform="translate(45,53)"/>
<path d="M0 0 C1.58971965 2.38457948 2.86741593 4.6304124 4.125 7.1875 C4.47820313 7.90292969 4.83140625 8.61835937 5.1953125 9.35546875 C5.46085937 9.89816406 5.72640625 10.44085938 6 11 C6.66 11 7.32 11 8 11 C8 11.99 8 12.98 8 14 C4.64998162 15.11667279 2.40745188 14.76286236 -1 14 C-1.22226864 12.23086176 -1.42733873 10.45955629 -1.625 8.6875 C-1.74101563 7.70136719 -1.85703125 6.71523438 -1.9765625 5.69921875 C-2 3 -2 3 0 0 Z " fill="#765044" transform="translate(53,39)"/>
<path d="M0 0 C1.04882391 3.56071312 1.30386953 7.05527897 1.5625 10.75 C1.64628906 11.92046875 1.73007812 13.0909375 1.81640625 14.296875 C1.87699219 15.18890625 1.93757813 16.0809375 2 17 C-0.31 17.99 -2.62 18.98 -5 20 C-4.1875 18.0625 -4.1875 18.0625 -3 16 C-2.01 15.67 -1.02 15.34 0 15 C-0.33 13.02 -0.66 11.04 -1 9 C-1.66 10.32 -2.32 11.64 -3 13 C-3.02712066 11.56260487 -3.04645067 10.12506137 -3.0625 8.6875 C-3.07410156 7.88699219 -3.08570313 7.08648437 -3.09765625 6.26171875 C-3 4 -3 4 -2 1 C-1.34 0.67 -0.68 0.34 0 0 Z " fill="#865A4F" transform="translate(17,13)"/>
<path d="M0 0 C1.30211046 3.90633137 0.47812346 6.19538173 -0.4375 10.1875 C-0.72496094 11.45980469 -1.01242188 12.73210938 -1.30859375 14.04296875 C-1.53675781 15.01878906 -1.76492188 15.99460937 -2 17 C-2.66 17 -3.32 17 -4 17 C-4.57374185 10.11509775 -3.4753869 5.97332123 0 0 Z " fill="#966D61" transform="translate(12,17)"/>
<path d="M0 0 C0.66 0 1.32 0 2 0 C3.83691257 3.78187881 4.15837626 5.94568308 3 10 C1.68 9.67 0.36 9.34 -1 9 C-1.09765625 2.84765625 -1.09765625 2.84765625 -1 1 C-0.67 0.67 -0.34 0.34 0 0 Z " fill="#8A6154" transform="translate(37,12)"/>
<path d="M0 0 C0.66 0 1.32 0 2 0 C2.33 0.66 2.66 1.32 3 2 C4.97888961 2.72693904 6.97954558 3.39816251 9 4 C9 4.33 9 4.66 9 5 C6.69 5 4.38 5 2 5 C1.67 5.99 1.34 6.98 1 8 C0.01 7.67 -0.98 7.34 -2 7 C-1.34 4.69 -0.68 2.38 0 0 Z " fill="#888471" transform="translate(23,21)"/>
<path d="M0 0 C2.625 -0.1875 2.625 -0.1875 5 0 C5 1.65 5 3.3 5 5 C3.02 5.66 1.04 6.32 -1 7 C-1.625 5.1875 -1.625 5.1875 -2 3 C-1.34 2.01 -0.68 1.02 0 0 Z " fill="#A09A84" transform="translate(31,50)"/>
<path d="M0 0 C0.33 0 0.66 0 1 0 C0.67 2.97 0.34 5.94 0 9 C0.99 8.01 1.98 7.02 3 6 C2.57576756 7.46224799 2.13509755 8.91973412 1.6875 10.375 C1.44386719 11.18710937 1.20023438 11.99921875 0.94921875 12.8359375 C0 15 0 15 -3 17 C-2.22095672 5.47835991 -2.22095672 5.47835991 0 0 Z " fill="#7E5B52" transform="translate(8,12)"/>
<path d="M0 0 C1.99641149 2.99461723 2.6651717 4.48430284 3 8 C2.25 10.75 2.25 10.75 1 13 C0.01 13.33 -0.98 13.66 -2 14 C-2 12.02 -2 10.04 -2 8 C-1.67 8 -1.34 8 -1 8 C-0.67 5.36 -0.34 2.72 0 0 Z " fill="#6D4B41" transform="translate(56,12)"/>
<path d="M0 0 C1.65 0.33 3.3 0.66 5 1 C4.64766839 6.4611399 4.64766839 6.4611399 4 9 C1.9375 10.5 1.9375 10.5 0 11 C-1 8 -1 8 -0.22265625 6.17578125 C0.8515625 4.45052083 1.92578125 2.72526042 3 1 C2.01 0.67 1.02 0.34 0 0 Z " fill="#7C5247" transform="translate(28,9)"/>
<path d="M0 0 C0.99 0 1.98 0 3 0 C2.690625 0.5775 2.38125 1.155 2.0625 1.75 C1.07416636 3.84294184 0.4831387 5.74535275 0 8 C0.99 8 1.98 8 3 8 C2.67 9.32 2.34 10.64 2 12 C0.68 11.34 -0.64 10.68 -2 10 C-1.85950482 8.52031676 -1.71245174 7.04125484 -1.5625 5.5625 C-1.48128906 4.73878906 -1.40007813 3.91507813 -1.31640625 3.06640625 C-1 1 -1 1 0 0 Z " fill="#8F675A" transform="translate(28,10)"/>
<path d="M0 0 C3 0 3 0 4.5625 1.375 C5.036875 1.91125 5.51125 2.4475 6 3 C6.66 3.66 7.32 4.32 8 5 C7 6 7 6 4 6.125 C1 6 1 6 0 5 C-0.04063832 3.33382885 -0.042721 1.66611905 0 0 Z " fill="#D9BBAA" transform="translate(41,33)"/>
<path d="M0 0 C0.33 0.66 0.66 1.32 1 2 C1.66 2 2.32 2 3 2 C3.33 1.34 3.66 0.68 4 0 C4.33 1.98 4.66 3.96 5 6 C0.125 7 0.125 7 -1 7 C-1.04254356 5.00045254 -1.04080783 2.99958364 -1 1 C-0.67 0.67 -0.34 0.34 0 0 Z " fill="#100F0F" transform="translate(45,28)"/>
<path d="M0 0 C2 3 2 3 3 6 C1.68 7.32 0.36 8.64 -1 10 C-2.25 3.375 -2.25 3.375 0 0 Z " fill="#825B4F" transform="translate(53,39)"/>
<path d="M0 0 C2.625 -0.1875 2.625 -0.1875 5 0 C3.7934375 1.11375 3.7934375 1.11375 2.5625 2.25 C0.23011409 4.75304829 -0.63534394 5.7180955 -1 9 C-1.99 9 -2.98 9 -4 9 C-2.94124926 5.59687262 -1.99097846 2.98646769 0 0 Z " fill="#CDC7AA" transform="translate(45,24)"/>
<path d="M0 0 C1.33333333 0 2.66666667 0 4 0 C4 2.31 4 4.62 4 7 C2.35 7 0.7 7 -1 7 C-0.67 4.69 -0.34 2.38 0 0 Z " fill="#895F53" transform="translate(48,13)"/>
<path d="M0 0 C0.33 0.99 0.66 1.98 1 3 C-2.465 4.485 -2.465 4.485 -6 6 C-4.95125002 3.37812506 -4.35068687 2.20628639 -1.875 0.75 C-1.25625 0.5025 -0.6375 0.255 0 0 Z " fill="#936A5F" transform="translate(18,27)"/>
<path d="M0 0 C0.66 0 1.32 0 2 0 C2.66 2.31 3.32 4.62 4 7 C3.01 7.33 2.02 7.66 1 8 C0.40267181 5.23735711 0 2.83967231 0 0 Z " fill="#875D51" transform="translate(44,11)"/>
<path d="M0 0 C2.875 -0.125 2.875 -0.125 6 0 C6.66 0.66 7.32 1.32 8 2 C5.04335481 3.4783226 2.25770263 3.06032783 -1 3 C-0.67 2.01 -0.34 1.02 0 0 Z " fill="#ADABA2" transform="translate(34,56)"/>
</svg>
