<!-- by TradingView --><svg width="56" height="56" viewBox="0 0 56 56" xmlns="http://www.w3.org/2000/svg"><path fill="url(#a53jvkdep)" d="M0 0h56v56H0z"/><circle cx="28" cy="28" r="17" fill="#FFDD02"/><path d="M29.78 40.3c-9.16-10.21-6.95-15.7-11.43-20.39-.36 2.15-.35 1.68-.35 4.46 0 2.52.08 2.34-.64 4.42-.8 2.31-1.87 5.75-1.08 8.37.4 1.34 1.38 1.97 2.73 2.35 1.32.37 2.27 1.02 3.48 1.5 1.31.52 2.04 1.12 4.04.96 1.1-.08 2.86-.98 3.25-1.68Z" fill="#3A2A0C"/><path d="M18.34 19.91c.22.22.14.06.13.92 0 1.14.18 1.93.35 3.02.12.7.18.97.18 1.17 0 .32-.18.53-.8 2.29-.5 1.46-1.19 3.53-1.2 5.42-.01 1.87.64 3.58 2.53 4.37.64.26 1.03.38 1.75.48 1.13.17 1.12-.12 1.9.45 1.24.93 2.96 1.9 4.63 2.19.62.1 1.6 0 1.97.07.86-.42 1.65-.62 2.22-1.29-2.22-7-9.84-15.6-12.75-20h-.37l-.54.91Z" fill="#895729"/><path d="M32 39c-5.8-3.13-7.34-8.92-9.7-14.76l.1-.11c-.68.2-.09.1-.7.46-1.42.86-.37.82-.84 1.8-1.03 2.15-1.97 4.05-1.86 6.52.16 3.59 8.32 7.04 11.42 6.77.52-.04 1.2-.47 1.58-.68Z" fill="#A86617"/><path d="M22.3 24.24c.36.1.13 1.8.13 2.33-.1 1.93-.89 2 .13 2.07C28 34.5 36.7 26.77 37.7 27.81c-.8-1.97-1.54-3.73-2.87-5.37-1-1.24-5.31-2.7-5.7-3.4-.45-.82-1.91-4.34-3.32-4.02-.37.08-.26.12-.4.32.74 2.2 1 5.55-1.98 5.66-.93-1.08-1.77-2.18-3.05-2.87a1.25 1.25 0 0 0-.54-.13c-.38 0-.76.6-.96 1h.37c1.29 1.95 2.32 2.2 3.05 5.24Z" fill="#F59935"/><path d="M32 39c1.13-.42 2.09-2.4 2.7-3.38-6.71 1.38-11.95-6.66-12.4-7.08.17-.78.46-4.18 0-4.3-.92.67-.45.75-.6 2-.07.52-.18.47-.38.87-.45.88-1.33 3.26-1.32 5.01.03 3.76 6.06 6.75 9.2 6.88 1.02.04 2.06-.17 2.8 0Z" fill="#DA8515"/><path d="M34.7 35.61c.64-.3 1.01-.28 1.36-.86-3.83.36-12.26-.99-14.66-5.15-.28.31-.43.76-.4 1.2.15 2.07 2.32 4.28 4.23 4.73 1.78.41 3.33.47 4.91.47 1.43 0 2.89-.04 4.55-.39Z" fill="#727070"/><path d="M21.4 29.6c-.88 4.77 6.66 5.4 9.73 5.4 1.68 0 3.28-.1 4.93-.25 1.06-.52 1.64-2.39 1.75-3.4-3.62 3.31-12.77 1.87-15.25-2.71l-.28-.02c-.02.02-.06.02-.07.05l-.21.15c-.32.21-.4.32-.6.78Z" fill="#B0B0B0"/><path d="M22.61 23.79c2.31-.2 1.22-1.36.42-1.92L21.11 20c-.4.06-.78.09-1.1.29-.03 1.36.15 2.81.82 3.69 1.18.07 1.09-.06 1.78-.19Z" fill="#ECB595"/><path d="M22.56 28.64c-.63.46-1.07.83-.47 1.92.89 1.64 2.43 2.27 4.12 2.87 1.3.4 5.29.57 7.8.57h1.45c.93-.71 1.53-1.9 2.35-2.66.23-.22.19-1.38.19-1.76 0-.98-.14-.99-.3-1.77-.26-.52-.68-.79-1.2-.79-.78 0-1.28.04-2.08.27-2.05.58-4.84 2.76-6.92 2.71-1.74-.04-3.03-1.42-4.94-1.36Z" fill="#F4F4F4"/><path d="M24.45 21.04c.04.44.26.18 1.31.34.5.08.97.11 1.55.11.48-1.16-.3-.17 1.06-.87-.37-.26-.76.07-1.27-.24-.6-.36-.7-3.14-.65-3.6-.02-.02-.06-.07-.07-.05l-.23-.21c-.13-.16-.13-.22-.22-.42-.04-.1-.15-.37-.2-.43l-.31-.33c-1.06 1.72-.8 3.55-.97 5.7Z" fill="#985B17"/><path d="M34.95 31c2.28-2.56.44-3.53-1.68-2.73-.82.31-1.74 1.03-.99 1.84.36.39 1.8.94 2.67.89Z" fill="#2C2B2A"/><path d="M26.03 16.68c-.08.52-.1 3.79.97 4.3 1.99.16 2.44-.46 1.59-1.86a22.35 22.35 0 0 0-2.2-3.12c-.2.32-.04.34-.36.68Z" fill="#ECB595"/><path d="M31.01 23.68c-.24 1.33 2.75 1.85 2.97.64.3-1.59-2.77-1.67-2.97-.64Z" fill="#E8E8E8"/><path d="M26 28.16c.51 1.48 2.96.73 3-.19.03-.7-1.37-1.37-1.73-.68-.55 1.04-.73.38-1.27.87ZM31 27.2c.23.65.59.86 1.55.79.33-.03.6-.1.9-.3.4-.24.43-.3.55-.87-.4-.9-1.27-.9-1.56-.75-.74.35.25.18-.56.75-.22.15-.59.08-.88.37Z" fill="#131011"/><path d="M25.78 25.13c-.9-.61-2.36 1.16-1.53 1.71 1.08.73 2.24-1.24 1.53-1.71Z" fill="#E8E8E8"/><path d="M32 11.66c0 2.26 0 4.34-.59 4.34-.73 0-.97-.92-1.3-3.12-.33-2.17.1-2.88.75-2.88.64 0 1.14.53 1.14 1.66Z" fill="url(#b53jvkdep)"/><circle cx="31" cy="18" r="1" fill="url(#c53jvkdep)"/><path d="M37.73 13.24c-.96 2.1-1.83 4.03-2.34 3.73-.63-.38-.44-1.36.2-3.58.64-2.19 1.31-2.62 1.86-2.29.56.33.76 1.09.28 2.14Z" fill="url(#d53jvkdep)"/><path d="M34.89 19.46a1 1 0 1 1-1.78-.92 1 1 0 0 1 1.78.92Z" fill="url(#e53jvkdep)"/><path d="M42.09 17.14c-1.89 1.16-3.62 2.23-3.96 1.74-.43-.61.2-1.28 1.85-2.7 1.62-1.38 2.46-1.38 2.83-.85.38.54.22 1.23-.72 1.81Z" fill="url(#f53jvkdep)"/><path d="M37.55 20.84a1 1 0 1 1-1.1-1.68 1 1 0 0 1 1.1 1.68Z" fill="url(#g53jvkdep)"/><path d="M28.18 20.77c.01-.26.14-.5.38-.6.24-.1.51-.02.67.19.36.45.76.78 1.32.89.25.05.45.24.45.5 0 .24-.2.45-.45.41a3.12 3.12 0 0 1-.38-.07c-.6-.16-1.44.07-1.85.55-.7.82-1.8 1.36-2.84 1.36-.98 0-1.71-.33-2.15-.65-.2-.15-.17-.44.02-.6.19-.16.48-.14.7-.01.3.17.78.36 1.43.36 1.24 0 2.62-1.05 2.7-2.33Z" fill="#FCDCA3" fill-opacity=".62"/><defs><linearGradient id="a53jvkdep" x1="45" y1="7" x2="13.5" y2="52" gradientUnits="userSpaceOnUse"><stop stop-color="#F1B600"/><stop offset="1" stop-color="#FC6B02"/></linearGradient><linearGradient id="b53jvkdep" x1="30.1" y1="13.98" x2="32.37" y2="13.53" gradientUnits="userSpaceOnUse"><stop offset=".07" stop-color="#6C1A1C"/><stop offset=".47" stop-color="#DE1A26"/></linearGradient><linearGradient id="c53jvkdep" x1="30.1" y1="18.33" x2="31.38" y2="17.09" gradientUnits="userSpaceOnUse"><stop offset=".07" stop-color="#6C1A1C"/><stop offset=".47" stop-color="#DE1A26"/></linearGradient><linearGradient id="d53jvkdep" x1="35.11" y1="14.41" x2="37.31" y2="14.95" gradientUnits="userSpaceOnUse"><stop offset=".07" stop-color="#6C1A1C"/><stop offset=".47" stop-color="#DE1A26"/></linearGradient><linearGradient id="e53jvkdep" x1="33.05" y1="18.87" x2="34.76" y2="18.37" gradientUnits="userSpaceOnUse"><stop offset=".07" stop-color="#6C1A1C"/><stop offset=".47" stop-color="#DE1A26"/></linearGradient><linearGradient id="f53jvkdep" x1="39.05" y1="16.74" x2="40.68" y2="18.47" gradientUnits="userSpaceOnUse"><stop offset=".07" stop-color="#6C1A1C"/><stop offset=".47" stop-color="#DE1A26"/></linearGradient><linearGradient id="g53jvkdep" x1="36.23" y1="19.42" x2="37.97" y2="19.82" gradientUnits="userSpaceOnUse"><stop offset=".07" stop-color="#6C1A1C"/><stop offset=".47" stop-color="#DE1A26"/></linearGradient></defs></svg>