<!-- by TradingView --><svg xmlns="http://www.w3.org/2000/svg" width="56" height="56" viewBox="0 0 56 56"><path fill="url(#a1a0ztxjh)" d="M0 0h56v56H0z"/><path d="M20.71 22.88c2.08-1.18 4.18-2.42 6.26-3.6a2 2 0 0 1 2.02 0l3.1 1.67a.27.27 0 0 1 .12.23.27.27 0 0 1-.13.23l-7.75 4.28a.61.61 0 0 0-.22.22c-.06.1-.11.2-.11.31v3.59c0 .1.05.2.1.3.06.09.14.16.23.21l3.35 1.79a.57.57 0 0 0 .6 0l13.06-7.38c2.21-1.26 2.21-4.89 0-6.15L29.6 11.94a3.17 3.17 0 0 0-3.25 0l-11.73 6.64A3.18 3.18 0 0 0 13 21.35c0 4.43.02 8.87 0 13.3a3.11 3.11 0 0 0 1.63 2.76l11.73 6.66a3.28 3.28 0 0 0 3.25 0l11.78-6.7A3.14 3.14 0 0 0 43 34.6v-5.78l-14.01 7.91a2 2 0 0 1-1.01.27 2 2 0 0 1-1.01-.27l-6.02-3.48a1.95 1.95 0 0 1-.75-.72c-.17-.3-.2-.64-.2-1v-6.95c0-.94.2-1.41.71-1.7z" fill="#fff"/><defs><linearGradient id="a1a0ztxjh" x1="8.97" y1="4.49" x2="40.39" y2="51.21" gradientUnits="userSpaceOnUse"><stop stop-color="#1355AE"/><stop offset="1" stop-color="#009DDD"/></linearGradient></defs></svg>