<?xml version="1.0" encoding="UTF-8"?>
<svg version="1.1" xmlns="http://www.w3.org/2000/svg" width="64" height="64">
<path d="M0 0 C0.86625 0.556875 1.7325 1.11375 2.625 1.6875 C3.40875 2.120625 4.1925 2.55375 5 3 C7.03327085 2.1500831 7.03327085 2.1500831 9 1 C11.625 1.125 11.625 1.125 14 2 C15.41007319 4.04460612 15.94157926 5.61442311 16.3125 8.0625 C17.33465801 10.94312711 19.40314872 11.54322977 22 13 C25.36504504 18.04756757 24.36906613 23.94705999 24.375 29.875 C24.39949219 31.15503906 24.42398438 32.43507812 24.44921875 33.75390625 C24.45501953 35.60435547 24.45501953 35.60435547 24.4609375 37.4921875 C24.46915527 38.61995605 24.47737305 39.74772461 24.48583984 40.90966797 C23.75550821 45.55516435 21.48431782 47.85459583 17.83691406 50.66918945 C15.31862839 52.23583436 12.79337461 53.78684599 10.25 55.3125 C9.38117187 55.86228516 8.51234375 56.41207031 7.6171875 56.97851562 C3.22751878 59.63143103 -0.68661075 61.98120513 -5.93652344 61.55297852 C-10.475765 60.33653482 -14.31199115 57.80442993 -18.25 55.3125 C-19.13429688 54.78205078 -20.01859375 54.25160156 -20.9296875 53.70507812 C-25.45827009 50.91746875 -29.05579174 48.54224702 -32 44 C-32.80856377 39.36398766 -32.60300843 34.69897792 -32.5625 30 C-32.58634766 28.72898437 -32.61019531 27.45796875 -32.63476562 26.1484375 C-32.61840777 15.78846137 -32.61840777 15.78846137 -29.65234375 12.75 C-28.77707031 12.1725 -27.90179687 11.595 -27 11 C-26.01 10.34 -25.02 9.68 -24 9 C-23.62633887 7.00714063 -23.29259485 5.00636471 -23 3 C-22.34 2.34 -21.68 1.68 -21 1 C-18.625 1.375 -18.625 1.375 -16 2 C-12.04038967 2.31834221 -12.04038967 2.31834221 -9.125 0.4375 C-5.40450029 -1.27392987 -3.87955731 -1.15561282 0 0 Z " fill="#CB6E1A" transform="translate(36,2)"/>
<path d="M0 0 C2.75 1 2.75 1 5.375 2.6875 C6.15875 3.120625 6.9425 3.55375 7.75 4 C9.78327085 3.1500831 9.78327085 3.1500831 11.75 2 C14.375 2.125 14.375 2.125 16.75 3 C18.5441758 5.56310828 18.75 6.83119306 18.75 10 C18.09 10 17.43 10 16.75 10 C17.7999856 12.53746521 18.40685472 13.79096313 20.79272461 15.24438477 C22.75 17 22.75 17 23.28344727 19.84741211 C23.31898205 23.54539856 23.34385574 27.2393668 23.3125 30.9375 C23.34827148 32.87012695 23.34827148 32.87012695 23.38476562 34.84179688 C23.38283203 36.07865234 23.38089844 37.31550781 23.37890625 38.58984375 C23.37963135 39.72284912 23.38035645 40.85585449 23.38110352 42.02319336 C22.75 45 22.75 45 20.46264648 47.23730469 C19.56747314 47.81899414 18.6722998 48.40068359 17.75 49 C17.07388672 49.45802002 16.39777344 49.91604004 15.70117188 50.38793945 C13.55975469 51.7115568 11.4085467 53.01699917 9.25 54.3125 C8.50363281 54.77978516 7.75726563 55.24707031 6.98828125 55.72851562 C6.25996094 56.16486328 5.53164063 56.60121094 4.78125 57.05078125 C4.12705078 57.44950439 3.47285156 57.84822754 2.79882812 58.2590332 C0.04798425 59.25388677 -1.47205392 58.84845256 -4.25 58 C-6.5300293 56.90844727 -6.5300293 56.90844727 -8.82421875 55.56640625 C-9.65630859 55.08236328 -10.48839844 54.59832031 -11.34570312 54.09960938 C-12.20099609 53.59236328 -13.05628906 53.08511719 -13.9375 52.5625 C-14.80439453 52.05912109 -15.67128906 51.55574219 -16.56445312 51.03710938 C-22.96152491 47.28847509 -22.96152491 47.28847509 -25.25 45 C-25.76553363 40.37334244 -25.66682407 35.71458457 -25.6875 31.0625 C-25.72037109 29.76119141 -25.75324219 28.45988281 -25.78710938 27.11914062 C-25.79419922 25.87455078 -25.80128906 24.62996094 -25.80859375 23.34765625 C-25.82204834 22.20304932 -25.83550293 21.05844238 -25.84936523 19.87915039 C-25.25 17 -25.25 17 -22.71508789 15.10327148 C-21.49486938 14.5571521 -21.49486938 14.5571521 -20.25 14 C-18.47669606 20.82530653 -17.94861316 25.42239555 -20.55859375 32.01171875 C-21.62267607 35.0717069 -21.30548061 36.96549325 -20.25 40 C-17.48975143 44.74879856 -17.48975143 44.74879856 -13.25 48 C-13.25 48.66 -13.25 49.32 -13.25 50 C-12.445625 50.309375 -11.64125 50.61875 -10.8125 50.9375 C-8.25 52 -8.25 52 -7.25 53 C-5.31668191 53.15209159 -3.37658716 53.22186331 -1.4375 53.25 C-0.37917969 53.27578125 0.67914063 53.3015625 1.76953125 53.328125 C5.08110844 52.96354769 6.26789192 52.11955297 8.75 50 C9.41 50 10.07 50 10.75 50 C10.75 49.34 10.75 48.68 10.75 48 C12.41666667 46.33333333 14.08333333 44.66666667 15.75 43 C16.80287814 41.36622358 17.8227001 39.70818403 18.75 38 C13.12458159 38.45003347 10.13512875 39.68441485 5.75 43 C4.80598958 41.2421875 3.86197917 39.484375 2.91796875 37.7265625 C1.70236507 35.69497635 1.70236507 35.69497635 -1.25 34 C-1.59057617 31.93701172 -1.59057617 31.93701172 -1.54296875 29.4296875 C-1.53330078 28.53378906 -1.52363281 27.63789063 -1.51367188 26.71484375 C-1.48853516 25.77769531 -1.46339844 24.84054688 -1.4375 23.875 C-1.41719727 22.45767578 -1.41719727 22.45767578 -1.39648438 21.01171875 C-1.36106306 18.67391221 -1.31167271 16.33723763 -1.25 14 C-2.9 14 -4.55 14 -6.25 14 C-6.58 14.66 -6.91 15.32 -7.25 16 C-7.3325 15.21625 -7.415 14.4325 -7.5 13.625 C-7.95480489 10.90805183 -7.95480489 10.90805183 -10 9.9375 C-10.7425 9.628125 -11.485 9.31875 -12.25 9 C-13.93889872 7.6949419 -15.6103279 6.36639342 -17.25 5 C-16.92 4.34 -16.59 3.68 -16.25 3 C-15.68023437 3.38027344 -15.11046875 3.76054688 -14.5234375 4.15234375 C-12.25506472 5.297562 -12.25506472 5.297562 -10.1015625 4.06640625 C-8.99941406 3.32197266 -8.99941406 3.32197266 -7.875 2.5625 C-3.61580381 0 -3.61580381 0 0 0 Z " fill="#0D5C80" transform="translate(33.25,1)"/>
<path d="M0 0 C1.03115279 3.26913624 0.9638984 5.86041348 0.5625 9.25 C0.46066406 10.14203125 0.35882813 11.0340625 0.25390625 11.953125 C0.17011719 12.62859375 0.08632812 13.3040625 0 14 C-0.33 14 -0.66 14 -1 14 C-1.33 11.69 -1.66 9.38 -2 7 C-2.99 7.66 -3.98 8.32 -5 9 C-5.81182842 13.53803888 -5.6948867 18.14803978 -5.75 22.75 C-5.811875 24.02617188 -5.87375 25.30234375 -5.9375 26.6171875 C-6.20241941 33.3735899 -6.20241941 33.3735899 -3.16308594 39.09008789 C-0.84220465 40.64556696 1.46200671 41.83871383 4 43 C5.09828125 43.71027344 6.1965625 44.42054687 7.328125 45.15234375 C8.29234375 45.74144531 9.2565625 46.33054688 10.25 46.9375 C11.22453125 47.54464844 12.1990625 48.15179688 13.203125 48.77734375 C16.52007892 50.22735293 17.57910857 49.95653289 21 49 C23.33270249 47.91366919 23.33270249 47.91366919 25.609375 46.53125 C26.86427734 45.79841797 26.86427734 45.79841797 28.14453125 45.05078125 C29.00433594 44.53902344 29.86414062 44.02726562 30.75 43.5 C31.62527344 42.98824219 32.50054687 42.47648437 33.40234375 41.94921875 C37.42601352 39.77993461 37.42601352 39.77993461 41 37 C41.28188316 32.36045946 41.2318207 27.7095829 41.25 23.0625 C41.270625 21.74830078 41.29125 20.43410156 41.3125 19.08007812 C41.31765625 17.82775391 41.3228125 16.57542969 41.328125 15.28515625 C41.3374707 14.12894775 41.34681641 12.97273926 41.35644531 11.78149414 C41.23881836 10.86360107 41.12119141 9.94570801 41 9 C40.01 8.34 39.02 7.68 38 7 C37.67 9.31 37.34 11.62 37 14 C36.67 14 36.34 14 36 14 C35.67 9.38 35.34 4.76 35 0 C43.75 5.625 43.75 5.625 46 9 C46.47302142 13.61017011 46.37036358 18.24321896 46.375 22.875 C46.39949219 24.15503906 46.42398438 25.43507813 46.44921875 26.75390625 C46.45501953 28.60435547 46.45501953 28.60435547 46.4609375 30.4921875 C46.46915527 31.61995605 46.47737305 32.74772461 46.48583984 33.90966797 C45.75550821 38.55516435 43.48431782 40.85459583 39.83691406 43.66918945 C37.31862839 45.23583436 34.79337461 46.78684599 32.25 48.3125 C31.38117187 48.86228516 30.51234375 49.41207031 29.6171875 49.97851562 C25.22751878 52.63143103 21.31338925 54.98120513 16.06347656 54.55297852 C11.524235 53.33653482 7.68800885 50.80442993 3.75 48.3125 C2.86570312 47.78205078 1.98140625 47.25160156 1.0703125 46.70507812 C-3.45827009 43.91746875 -7.05579174 41.54224702 -10 37 C-10.80856377 32.36398766 -10.60300843 27.69897792 -10.5625 23 C-10.58634766 21.72898437 -10.61019531 20.45796875 -10.63476562 19.1484375 C-10.61840776 8.78845585 -10.61840776 8.78845585 -7.60546875 5.69921875 C-5.43986148 4.28686618 -3.33986942 3.08636795 -1 2 C-0.67 1.34 -0.34 0.68 0 0 Z " fill="#86D7F2" transform="translate(14,9)"/>
<path d="M0 0 C3.38723539 1.85491462 4.69487639 4.14914126 6.625 7.4375 C7.3675 6.798125 8.11 6.15875 8.875 5.5 C11.35284463 3.64161653 12.61099439 2.73890056 15.625 2.4375 C16.615 2.7675 17.605 3.0975 18.625 3.4375 C17.25812778 7.42421063 15.47304907 10.32244633 12.625 13.4375 C11.965 13.4375 11.305 13.4375 10.625 13.4375 C10.625 14.0975 10.625 14.7575 10.625 15.4375 C6.79768564 19.05218578 3.88229397 19.76748801 -1.375 19.9375 C-6.63229397 19.76748801 -9.54768564 19.05218578 -13.375 15.4375 C-13.375 14.7775 -13.375 14.1175 -13.375 13.4375 C-13.9525 13.23125 -14.53 13.025 -15.125 12.8125 C-18.21977636 10.92124778 -19.5668763 8.53714063 -21.375 5.4375 C-21.375 4.7775 -21.375 4.1175 -21.375 3.4375 C-17.13019536 3.10457415 -15.01957375 2.99864128 -11.4375 5.4375 C-10.756875 6.0975 -10.07625 6.7575 -9.375 7.4375 C-9.03726562 6.94378906 -8.69953125 6.45007812 -8.3515625 5.94140625 C-7.90554687 5.30074219 -7.45953125 4.66007812 -7 4 C-6.55914062 3.36191406 -6.11828125 2.72382812 -5.6640625 2.06640625 C-3.7705636 -0.32628782 -3.00360325 -0.71137972 0 0 Z " fill="#C5F1FB" transform="translate(33.375,35.5625)"/>
<path d="M0 0 C4.62 0 9.24 0 14 0 C14 1.32 14 2.64 14 4 C16.61695842 6.08573421 16.61695842 6.08573421 19.875 8.0625 C23.23642924 10.32753693 25.65956674 12.16925719 27.2421875 16.03125 C27.69267398 18.72030775 27.97962912 21.27539478 28 24 C27.23945312 24.13535156 26.47890625 24.27070312 25.6953125 24.41015625 C21.28656978 25.37496806 17.72802973 27.51464685 14 30 C13.05598958 28.2421875 12.11197917 26.484375 11.16796875 24.7265625 C9.95236507 22.69497635 9.95236507 22.69497635 7 21 C6.65942383 18.93701172 6.65942383 18.93701172 6.70703125 16.4296875 C6.71669922 15.53378906 6.72636719 14.63789063 6.73632812 13.71484375 C6.76146484 12.77769531 6.78660156 11.84054688 6.8125 10.875 C6.82603516 9.93011719 6.83957031 8.98523437 6.85351562 8.01171875 C6.88893694 5.67391221 6.93832729 3.33723763 7 1 C5.35 1 3.7 1 2 1 C1.67 1.66 1.34 2.32 1 3 C0.67 2.01 0.34 1.02 0 0 Z " fill="#4499BB" transform="translate(25,14)"/>
<path d="M0 0 C1.77330394 6.82530653 2.30138684 11.42239555 -0.30859375 18.01171875 C-1.37267607 21.0717069 -1.05548061 22.96549325 0 26 C2.76024857 30.74879856 2.76024857 30.74879856 7 34 C7 34.66 7 35.32 7 36 C7.804375 36.309375 8.60875 36.61875 9.4375 36.9375 C12 38 12 38 13 39 C14.93331809 39.15209159 16.87341284 39.22186331 18.8125 39.25 C19.87082031 39.27578125 20.92914063 39.3015625 22.01953125 39.328125 C25.29387524 38.96764676 26.60999318 38.19903775 29 36 C29.99 36.495 29.99 36.495 31 37 C27.92059576 40.25537019 25.1195677 43.14619454 21 45 C17.31225561 44.56813623 14.61122486 43.42980771 11.42578125 41.56640625 C10.59369141 41.08236328 9.76160156 40.59832031 8.90429688 40.09960938 C8.04900391 39.59236328 7.19371094 39.08511719 6.3125 38.5625 C5.44560547 38.05912109 4.57871094 37.55574219 3.68554688 37.03710938 C-2.71152491 33.28847509 -2.71152491 33.28847509 -5 31 C-5.48893343 26.37238884 -5.37040694 21.71297317 -5.375 17.0625 C-5.39949219 15.76119141 -5.42398437 14.45988281 -5.44921875 13.11914062 C-5.45308594 11.87455078 -5.45695313 10.62996094 -5.4609375 9.34765625 C-5.46915527 8.20304932 -5.47737305 7.05844238 -5.48583984 5.87915039 C-5 3 -5 3 -3.03369141 1.10327148 C-1 0 -1 0 0 0 Z " fill="#0D5C81" transform="translate(13,15)"/>
<path d="M0 0 C1.051875 0.474375 2.10375 0.94875 3.1875 1.4375 C5.51195509 2.45386093 7.27570353 3.04288722 9.8125 3.4375 C12 4 12 4 13.375 5.6875 C14.23247835 8.86016991 13.90212387 10.84256646 13 14 C10.9375 16.875 10.9375 16.875 9 19 C8.319375 18.360625 7.63875 17.72125 6.9375 17.0625 C3.53591161 14.6741507 1.09566299 14.32122847 -3 14 C-4.16516703 10.60548006 -3.83093313 8.65924103 -2.625 5.3125 C-2.34914063 4.52488281 -2.07328125 3.73726562 -1.7890625 2.92578125 C-1 1 -1 1 0 0 Z " fill="#FBA255" transform="translate(15,25)"/>
<path d="M0 0 C2.625 0.375 2.625 0.375 5 1 C5 1.99 5 2.98 5 4 C3.68 3.01 2.36 2.02 1 1 C1 1.66 1 2.32 1 3 C1.8353125 3.37125 1.8353125 3.37125 2.6875 3.75 C5.50221471 5.27146741 7.69885715 6.7610502 10 9 C10.8125 12.25 10.8125 12.25 11 15 C9.56967163 16.17544805 8.13046758 17.34010262 6.6875 18.5 C5.88699219 19.1496875 5.08648437 19.799375 4.26171875 20.46875 C2 22 2 22 -1 22 C-1 17.38 -1 12.76 -1 8 C-1.66 8 -2.32 8 -3 8 C-2.25 2.25 -2.25 2.25 0 0 Z " fill="#833300" transform="translate(15,3)"/>
<path d="M0 0 C3 2 3 2 3.73046875 4.6015625 C3.88128906 5.59929688 4.03210938 6.59703125 4.1875 7.625 C4.34605469 8.62789062 4.50460938 9.63078125 4.66796875 10.6640625 C4.77753906 11.43492188 4.88710938 12.20578125 5 13 C4.21625 13.15210938 3.4325 13.30421875 2.625 13.4609375 C0.08420765 13.93703245 0.08420765 13.93703245 -2 14.625 C-4.54500607 15.10218864 -6.50958213 14.62260447 -9 14 C-7.625 12.5 -7.625 12.5 -6 11 C-5.34 11 -4.68 11 -4 11 C-4 10.34 -4 9.68 -4 9 C-4.99 8.67 -5.98 8.34 -7 8 C-7.33 8.66 -7.66 9.32 -8 10 C-9.65 10 -11.3 10 -13 10 C-12.625 7.1875 -12.625 7.1875 -11 4 C-8.43604123 2.86237796 -5.94223333 2.18862051 -3.21484375 1.54296875 C-1.03982728 1.2126303 -1.03982728 1.2126303 0 0 Z " fill="#57C4ED" transform="translate(48,25)"/>
<path d="M0 0 C3.25166158 1.74479402 4.15429204 2.9656544 5.5625 6.375 C5.79481811 9.09716226 5.70190871 11.63329535 5.5625 14.375 C3.9125 14.045 2.2625 13.715 0.5625 13.375 C1.2225 13.045 1.8825 12.715 2.5625 12.375 C2.5625 11.055 2.5625 9.735 2.5625 8.375 C-0.0775 8.375 -2.7175 8.375 -5.4375 8.375 C-5.4375 9.695 -5.4375 11.015 -5.4375 12.375 C-4.7775 12.705 -4.1175 13.035 -3.4375 13.375 C-5.0875 13.705 -6.7375 14.035 -8.4375 14.375 C-8.85754622 8.28432974 -8.4941405 5.26683119 -4.4375 0.375 C-2.4375 -0.625 -2.4375 -0.625 0 0 Z " fill="#FDFDFD" transform="translate(33.4375,35.625)"/>
<path d="M0 0 C2.875 1.5625 2.875 1.5625 5 3 C4.34 4.65 3.68 6.3 3 8 C-1.62 8 -6.24 8 -11 8 C-11 7.34 -11 6.68 -11 6 C-11.66 6 -12.32 6 -13 6 C-13 5.01 -13 4.02 -13 3 C-5.65873016 -1.8452381 -5.65873016 -1.8452381 0 0 Z " fill="#062A4A" transform="translate(36,6)"/>
<path d="M0 0 C3.22117249 1.16510494 6.07418819 2.656616 9.0078125 4.41796875 C11.00334188 5.31450955 11.00334188 5.31450955 13.1796875 4.17578125 C13.75976562 3.80839844 14.33984375 3.44101563 14.9375 3.0625 C14.9375 3.7225 14.9375 4.3825 14.9375 5.0625 C13.40625 6.3515625 13.40625 6.3515625 11.4375 7.6875 C10.7878125 8.13351562 10.138125 8.57953125 9.46875 9.0390625 C8.9634375 9.37679688 8.458125 9.71453125 7.9375 10.0625 C7.9375 9.4025 7.9375 8.7425 7.9375 8.0625 C4.28044605 6.44909385 0.94426301 5.31292269 -3.0625 5.0625 C-5.79231832 6.41650645 -5.79231832 6.41650645 -8.0625 8.0625 C-8.7225 8.0625 -9.3825 8.0625 -10.0625 8.0625 C-10.3925 8.7225 -10.7225 9.3825 -11.0625 10.0625 C-13.0425 8.4125 -15.0225 6.7625 -17.0625 5.0625 C-16.7325 4.4025 -16.4025 3.7425 -16.0625 3.0625 C-15.20785156 3.63291016 -15.20785156 3.63291016 -14.3359375 4.21484375 C-12.06756472 5.360062 -12.06756472 5.360062 -9.9140625 4.12890625 C-8.81191406 3.38447266 -8.81191406 3.38447266 -7.6875 2.625 C-3.40745338 0.06953986 -3.40745338 0.06953986 0 0 Z " fill="#68B6EB" transform="translate(33.0625,0.9375)"/>
<path d="M0 0 C2.64 0 5.28 0 8 0 C8 1.65 8 3.3 8 5 C8.99 5.33 9.98 5.66 11 6 C11.33 4.68 11.66 3.36 12 2 C12.66 2.66 13.32 3.32 14 4 C11.73238447 7.02348737 10.37533971 8.70689482 6.6171875 9.5078125 C0.23165303 9.79373195 0.23165303 9.79373195 -2.7578125 7.8671875 C-4.125 6.5 -4.125 6.5 -6 4 C-5.01 3.34 -4.02 2.68 -3 2 C-3 3.32 -3 4.64 -3 6 C-2.01 5.34 -1.02 4.68 0 4 C0 2.68 0 1.36 0 0 Z " fill="#8FC5DD" transform="translate(28,44)"/>
<path d="M0 0 C2.375 0.25 2.375 0.25 5 1 C6.7941758 3.56310828 7 4.83119306 7 8 C4.69 8.33 2.38 8.66 0 9 C-0.33 9.99 -0.66 10.98 -1 12 C-1.66 12 -2.32 12 -3 12 C-3 12.99 -3 13.98 -3 15 C-1.35 14.67 0.3 14.34 2 14 C1.67 15.32 1.34 16.64 1 18 C-1.64 17.01 -4.28 16.02 -7 15 C-6.58443583 10.15175132 -4.62551755 8.11963138 -1 5 C1.3125 3.6875 1.3125 3.6875 3 3 C3 2.34 3 1.68 3 1 C0.525 2.485 0.525 2.485 -2 4 C-1.34 2.68 -0.68 1.36 0 0 Z " fill="#327896" transform="translate(45,3)"/>
<path d="M0 0 C1.48828125 1.11328125 1.48828125 1.11328125 3 3 C3.29296875 5.91796875 3.29296875 5.91796875 3.1875 9.1875 C3.16042969 10.27417969 3.13335937 11.36085938 3.10546875 12.48046875 C3.07066406 13.31191406 3.03585938 14.14335937 3 15 C-1.24925258 14.21007484 -3.08910865 12.15346563 -6 9 C-3.525 9.495 -3.525 9.495 -1 10 C-0.67 9.01 -0.34 8.02 0 7 C-1.65 7.33 -3.3 7.66 -5 8 C-5 5 -5 5 -3.625 3.3125 C-2 2 -2 2 0 2 C0 1.34 0 0.68 0 0 Z " fill="#236E89" transform="translate(47,10)"/>
<path d="M0 0 C0.66 0.33 1.32 0.66 2 1 C-1.07940424 4.25537019 -3.8804323 7.14619454 -8 9 C-12.62176184 8.87837469 -16.14704529 6.34199208 -20 4 C-19.01 3.34 -18.02 2.68 -17 2 C-16.67 2.33 -16.34 2.66 -16 3 C-14.06668191 3.15209159 -12.12658716 3.22186331 -10.1875 3.25 C-8.60001953 3.28867187 -8.60001953 3.28867187 -6.98046875 3.328125 C-3.70612476 2.96764676 -2.39000682 2.19903775 0 0 Z " fill="#117EA6" transform="translate(42,51)"/>
<path d="M0 0 C0.53625 0.226875 1.0725 0.45375 1.625 0.6875 C0.3758258 4.14675163 -1.05027795 6.83443203 -3.375 9.6875 C-4.365 9.3575 -5.355 9.0275 -6.375 8.6875 C-7.5625 5.625 -7.5625 5.625 -8.375 2.6875 C-2.95961538 -0.38942308 -2.95961538 -0.38942308 0 0 Z " fill="#F9FCFD" transform="translate(50.375,38.3125)"/>
<path d="M0 0 C6.52307692 -0.36923077 6.52307692 -0.36923077 8.9375 1.5 C9.288125 1.995 9.63875 2.49 10 3 C9.01 4.98 8.02 6.96 7 9 C2.97449681 7.6581656 2.11714364 5.5772427 0 2 C0 1.34 0 0.68 0 0 Z " fill="#FBFCFC" transform="translate(12,39)"/>
<path d="M0 0 C2.625 0.375 2.625 0.375 5 1 C5 1.99 5 2.98 5 4 C3.68 3.01 2.36 2.02 1 1 C1 1.66 1 2.32 1 3 C1.8353125 3.37125 1.8353125 3.37125 2.6875 3.75 C6.18656627 5.64138717 9.41864399 7.39009106 10.8125 11.25 C10.874375 11.8275 10.93625 12.405 11 13 C7.18315774 11.44499019 4.80804268 8.96404505 2 6 C0.35 6.66 -1.3 7.32 -3 8 C-2.25 2.25 -2.25 2.25 0 0 Z " fill="#AD6426" transform="translate(15,3)"/>
<path d="M0 0 C-1.63412443 1.70840281 -2.86906094 2.93453047 -5 4 C-3.68 4.66 -2.36 5.32 -1 6 C-2.65 7.32 -4.3 8.64 -6 10 C-10 3.25 -10 3.25 -10 1 C-3.71428571 -1.42857143 -3.71428571 -1.42857143 0 0 Z " fill="#49ADE5" transform="translate(45,34)"/>
<path d="M0 0 C1.14814997 2.29629994 1.30769809 4.07698086 1.5625 6.625 C1.64628906 7.44226563 1.73007812 8.25953125 1.81640625 9.1015625 C1.87699219 9.72804688 1.93757813 10.35453125 2 11 C3.32 11 4.64 11 6 11 C3.6875 13.5 3.6875 13.5 1 16 C0.01 16 -0.98 16 -2 16 C-2.05423638 14.08364783 -2.09289963 12.16685075 -2.125 10.25 C-2.14820313 9.18265625 -2.17140625 8.1153125 -2.1953125 7.015625 C-2.00487687 4.07529894 -1.52670104 2.47638122 0 0 Z " fill="#A7520A" transform="translate(16,9)"/>
<path d="M0 0 C2.64 0 5.28 0 8 0 C8 1.32 8 2.64 8 4 C2.25 5.125 2.25 5.125 0 4 C0 2.68 0 1.36 0 0 Z " fill="#0E2E44" transform="translate(28,44)"/>
<path d="M0 0 C0 1.65 0 3.3 0 5 C1.65 4.67 3.3 4.34 5 4 C4.67 5.32 4.34 6.64 4 8 C1.36 7.01 -1.28 6.02 -4 5 C-4 4.01 -4 3.02 -4 2 C-1 0 -1 0 0 0 Z " fill="#18567B" transform="translate(42,13)"/>
<path d="M0 0 C0.33 0 0.66 0 1 0 C1 2.31 1 4.62 1 7 C-0.98 7.33 -2.96 7.66 -5 8 C-5 5 -5 5 -3.625 3.3125 C-2 2 -2 2 0 2 C0 1.34 0 0.68 0 0 Z " fill="#1D679A" transform="translate(47,10)"/>
<path d="M0 0 C2.375 0.25 2.375 0.25 5 1 C6.7941758 3.56310828 7 4.83119306 7 8 C6.34 8 5.68 8 5 8 C4.34 5.69 3.68 3.38 3 1 C0.525 2.485 0.525 2.485 -2 4 C-1.34 2.68 -0.68 1.36 0 0 Z " fill="#01121A" transform="translate(45,3)"/>
<path d="M0 0 C2.625 0.375 2.625 0.375 5 1 C5 1.99 5 2.98 5 4 C3.68 3.01 2.36 2.02 1 1 C0.34 3.31 -0.32 5.62 -1 8 C-1.66 8 -2.32 8 -3 8 C-2.25 2.25 -2.25 2.25 0 0 Z " fill="#01121C" transform="translate(15,3)"/>
<path d="M0 0 C-2.17424117 2.50037734 -3.73045798 3.43628586 -7 4 C-7.66 3.01 -8.32 2.02 -9 1 C-5.57367167 -0.61798838 -3.61944899 -1.34053666 0 0 Z " fill="#112736" transform="translate(45,34)"/>
<path d="M0 0 C3.73487777 0.4979837 5.81237635 0.87491756 9 3 C7.25 4.125 7.25 4.125 5 5 C2.8125 4.3125 2.8125 4.3125 1 3 C0.67 2.01 0.34 1.02 0 0 Z " fill="#0D1E2C" transform="translate(19,33)"/>
<path d="M0 0 C1.4540625 0.0309375 1.4540625 0.0309375 2.9375 0.0625 C2.9375 1.0525 2.9375 2.0425 2.9375 3.0625 C1.2875 3.3925 -0.3625 3.7225 -2.0625 4.0625 C-2.7225 3.0725 -3.3825 2.0825 -4.0625 1.0625 C-3.0625 0.0625 -3.0625 0.0625 0 0 Z " fill="#1488B1" transform="translate(32.0625,55.9375)"/>
<path d="M0 0 C1.03115279 3.26913624 0.9638984 5.86041348 0.5625 9.25 C0.46066406 10.14203125 0.35882813 11.0340625 0.25390625 11.953125 C0.12822266 12.96632813 0.12822266 12.96632813 0 14 C-0.33 14 -0.66 14 -1 14 C-1.41676948 12.23397681 -1.8077738 10.46185699 -2.1875 8.6875 C-2.40792969 7.70136719 -2.62835938 6.71523437 -2.85546875 5.69921875 C-3 3 -3 3 -1.55078125 1.14453125 C-1.03902344 0.76683594 -0.52726563 0.38914062 0 0 Z " fill="#BEDEF1" transform="translate(14,9)"/>
<path d="M0 0 C-0.33 0.99 -0.66 1.98 -1 3 C-2.65 2.67 -4.3 2.34 -6 2 C-6 1.34 -6 0.68 -6 0 C-3.50907189 -1.24546405 -2.58919267 -0.7767578 0 0 Z " fill="#D4FBFE" transform="translate(35,36)"/>
</svg>
