<!-- by TradingView --><svg width="56" height="56" fill="none" xmlns="http://www.w3.org/2000/svg"><path fill="#4A5596" d="M0 0h56v56H0z"/><ellipse cx="40.636" cy="32.192" rx="5.364" ry="5.416" fill="#000300"/><path d="M19.854 28.207c-1.006-.052-1.371 1.17-1.428 1.787l3.352 2.147c2.355 1.318 6.93 2.73 11.146 1.318 3.835-1.283 4.553-4.92 4.808-5.53.204-.489.255-2.047.255-2.765.637-.279 1.821-1.067 1.465-1.993-.357-.926-1.635-1.072-2.23-1.03-.986-1.703-5.35-6.108-11.782-3.343-5.146 2.212-5.868 7.194-5.586 9.41z" fill="#F5E0CD"/><path d="M33.845 26.78c-2.178 1.543-6.24 2.234-7.998 2.386.133.707 2.345 4.2 5.54 3.036 2.556-.932 2.704-4.003 2.458-5.422z" fill="url(#paint0_linear_1530)"/><path d="M30.17 29.223c-.798.182-1.47-.213-1.705-.433l3.21-.948c-.17.385-.709 1.2-1.506 1.381z" fill="#F2F6F9"/><path fill-rule="evenodd" clip-rule="evenodd" d="M29.954 28.27c-2.986.854-4.373.664-5.31.535l-.11-.015 1.143.541c.227.903 1.93 3.962 5.526 3.091 2.779-.672 3.142-4.047 2.884-5.783l.652-.815c-.728.514-2.668 1.84-4.785 2.445zm-1.29 3.758c-1.43-.567-2.402-1.931-2.798-2.799.446-.02 1.392-.11 2.508-.316.241.2.873.518 1.73.404.457-.06.838-.326 1.127-.626.245-.255.428-.54.539-.757.974-.418 1.698-.864 2.015-1.1.15.937.11 2.56-.676 3.798-.403-.297-1.32-.666-2.573-.359-1.286.316-1.768 1.225-1.873 1.755zm.162.06a3.673 3.673 0 002.23.053c.9-.25 1.528-.753 1.958-1.366-.358-.265-1.225-.632-2.438-.334-1.237.303-1.669 1.183-1.75 1.648zm2.689-4.048c-.431.175-.905.34-1.41.48-.509.14-1.016.254-1.498.348.27.168.793.369 1.475.279.405-.054.753-.292 1.026-.576.168-.174.305-.363.407-.53z" fill="#000"/><path d="M29.18 24.852c-.672-.023-.885.68-.907 1.035.107-.524.514-.715.894-.732.38-.017.646.185.676.387.024.162-.211.337-.332.405.425-.072.496-.387.479-.536.01-.176-.138-.535-.81-.559z" fill="#0C0000"/><path d="M14.418 24.058c-.323-.65-.868-.888-1.1-.925-.597-.2-1.792 1.114-1.792 7.981 0 8.585 9.368 13.62 16.224 13.62 5.315 0 10.316-4.99 12.152-7.485l-3.28-6.135c-.287.472-1.219 1.578-2.655 2.232-1.436.654-3.86 1.011-4.892 1.108-11.47 0-14.254-9.582-14.657-10.396z" fill="#FDA925"/><path fill-rule="evenodd" clip-rule="evenodd" d="M11.804 33.624c-.083-2.136-.096-4.534.157-5.512.476-1.844 1.112-3.848 1.43-3.889.253-.032.952 1.697 1.27 2.566 1.27 2.94 5.764 8.779 13.578 8.618 5.706-.117 7.962-2.066 8.645-3.8l-.263-.493c-.286.472-1.218 1.578-2.654 2.232-1.168.532-3.033.653-4.244.732a27.92 27.92 0 00-.715.052c-10.544 0-13.706-8.173-14.46-10.124a5.585 5.585 0 00-.147-.36c-.258-.52-.647-.513-.911-.508-.066.002-.125.003-.172-.005-.597-.2-1.792 1.114-1.792 7.981 0 .874.097 1.711.278 2.51z" fill="#FFFFE0"/><path fill-rule="evenodd" clip-rule="evenodd" d="M39.387 36.29h-.588c-5.018 4.618-11.09 5.558-13.498 5.451-7.55-.051-11.715-4.614-13.517-8.195 1.56 7.095 9.783 11.187 15.964 11.187 5.314 0 10.315-4.99 12.152-7.484l-.513-.96z" fill="#BF6A0F"/><ellipse cx="15.115" cy="31.746" rx="2.042" ry="2.346" fill="#1C0000"/><ellipse cx="14.745" cy="32.031" rx="2.042" ry="2.346" fill="#BF6A0F"/><ellipse rx="1.288" ry="1.361" transform="matrix(.9485 .31679 -.31135 .9503 18.609 35.943)" fill="#1C0000"/><ellipse rx="1.288" ry="1.361" transform="matrix(.9485 .31679 -.31135 .9503 18.432 36.078)" fill="#BF6A0F"/><ellipse rx="1.434" ry="1.516" transform="matrix(.9485 .31679 -.31135 .9503 21.208 40.25)" fill="#1C0000"/><ellipse rx="1.434" ry="1.516" transform="matrix(.9485 .31679 -.31135 .9503 20.965 40.33)" fill="#BF6A0F"/><ellipse rx="1.434" ry="1.371" transform="matrix(.9485 .31679 -.31135 .9503 33.425 36.88)" fill="#1C0000"/><ellipse rx="1.434" ry="1.371" transform="matrix(.9485 .31679 -.31135 .9503 33.227 37.064)" fill="#BF6A0F"/><ellipse rx="2.55" ry="2.451" transform="matrix(.9485 .31679 -.31135 .9503 29.025 41.05)" fill="#1C0000"/><ellipse rx="2.55" ry="2.451" transform="matrix(.9485 .31679 -.31135 .9503 28.774 41.346)" fill="#BF6A0F"/><ellipse rx=".837" ry="1.122" transform="matrix(.78123 -.62424 .6169 .78704 24.926 25.427)" fill="#02050A"/><ellipse rx=".834" ry="1.125" transform="matrix(.96802 -.25087 .24639 .96917 32.261 23.23)" fill="#000005"/><ellipse rx=".366" ry=".282" transform="matrix(-.56798 -.82304 .81789 -.57538 24.808 24.913)" fill="#FEFDF9"/><ellipse rx=".366" ry=".281" transform="matrix(-.32883 -.94439 .9424 -.3345 32.482 22.79)" fill="#FEFDF9"/><ellipse rx=".352" ry=".29" transform="matrix(.7926 .60974 -.60237 .79822 29.93 31.807)" fill="#FFF6FD"/><path d="M28.468 12.924c-8.901.513-11.773 7.929-12.097 11.573-1.239-6.662 6.679-15.435 15.788-12.665 7.652 2.327 9.148 10.627 8.61 13.095 0-4.632-3.397-8.273-5.096-9.515-.298.792-1.057 2.325-5.152.943-2.982-1.007-2.638-2.614-2.053-3.43z" fill="#fff"/><ellipse cx="40.656" cy="32.192" rx="4.483" ry="4.44" transform="rotate(-90 40.656 32.192)" fill="#C37600"/><path fill-rule="evenodd" clip-rule="evenodd" d="M40.636 37.193c2.735 0 4.953-2.239 4.953-5.001 0-2.762-2.218-5.001-4.953-5.001-2.736 0-4.954 2.239-4.954 5 0 2.763 2.218 5.002 4.953 5.002zm-.009-.824c2.284 0 4.136-1.87 4.136-4.176 0-2.307-1.852-4.177-4.136-4.177-2.285 0-4.136 1.87-4.136 4.177 0 2.306 1.852 4.176 4.136 4.176z" fill="#F9C813"/><ellipse rx="1.513" ry="2.19" transform="matrix(.85598 -.517 .50974 .86033 34.738 33.782)" fill="#F3E0CF"/><ellipse cx="40.656" cy="32.192" rx="3.945" ry="3.907" transform="rotate(-90 40.656 32.192)" fill="url(#paint1_linear_1530)"/><path fill-rule="evenodd" clip-rule="evenodd" d="M41.63 29.44l.7.176-.159.647a1.328 1.328 0 01.214 2.215c.282.342.405.811.29 1.276a1.433 1.433 0 01-1.627 1.079l-.177.72-.7-.175.176-.717-.327-.081-.177.716-.7-.175.176-.716-1.165-.292.17-.694.63.158.791-3.22-.629-.159.17-.694.63.158.536.134.15-.613.7.176-.15.613.327.081.15-.613zm-.801 1.377l.814.204c.22.055.343.318.277.587-.066.269-.297.442-.516.387l-.815-.204.24-.974zm-.63 1.742l1.147.288c.202.05.311.31.245.58-.067.27-.284.45-.485.399l-1.147-.288.24-.979z" fill="#BF6E00"/><path fill-rule="evenodd" clip-rule="evenodd" d="M41.143 29.05l-.7-.175-.15.613-.537-.135-.63-.157-.17.694.63.157-.792 3.221-.63-.157-.17.693 1.165.292-.175.716.7.175.176-.716.327.082-.177.716.7.176.178-.72a1.433 1.433 0 001.628-1.08 1.455 1.455 0 00-.291-1.275 1.328 1.328 0 00-.214-2.216l.159-.647-.7-.175-.15.613-.328-.082.15-.613zm-.62 1.459l.815.204c.219.055.342.317.276.586-.066.269-.297.443-.515.388l-.815-.204.24-.974zm-.629 1.742l1.147.287c.202.05.311.31.245.581-.067.27-.284.449-.485.398l-1.148-.287.241-.98z" fill="#FFEE81"/><path fill-rule="evenodd" clip-rule="evenodd" d="M41.54 29.303l.7.175-.159.647a1.328 1.328 0 01.214 2.216c.283.342.406.81.291 1.276a1.433 1.433 0 01-1.628 1.078l-.177.72-.7-.175.176-.716-.327-.082-.176.716-.7-.175.176-.716-1.166-.292.17-.694.63.158.792-3.22-.63-.158.17-.694.63.158.536.134.151-.613.7.175-.15.613.327.082.15-.613zm-.8 1.377l.814.204c.219.055.342.317.276.586-.066.269-.297.443-.516.388l-.814-.204.24-.974zm-.63 1.742l1.147.287c.201.05.31.31.244.58-.066.271-.283.45-.485.4L39.87 33.4l.24-.98z" fill="#F9C813"/><path fill-rule="evenodd" clip-rule="evenodd" d="M18.631 16.836c-1.827 2.775-2.359 5.823-2.333 6.897.038 1.63.545 3.5.853 4.28.33.46.695.922 1.098 1.37.057-.202.15-.42.292-.625a1.766 1.766 0 011.133-.733 8.54 8.54 0 01.004-1.974c.492-4.211 4.05-7.326 7.604-7.963 1.762-.316 3.674-.436 5.504.182 1.835.62 3.572 1.976 4.993 4.583l.005.008.003.01c.177.481.387 1.31.448 2.242.061.933.073 1.983-.354 2.894l-.596.482c.401-.857.754-2.45.694-3.358a8.293 8.293 0 00-.429-2.162c-1.393-2.552-3.081-3.858-4.845-4.454-1.77-.598-3.632-.486-5.378-.173-3.46.62-6.917 3.657-7.395 7.74-.316 2.706.73 4.745 1.572 5.78.786.395 1.643.74 2.496 1.027 1.764.594 3.46.922 4.408.923.529-.018 1.392-.079 2.26-.203.835-.119 1.64-.292 2.16-.525-.004-.614.22-1.14.662-1.408.286-.172.624-.213.971-.14.1-.172.257-.384.452-.556.232-.204.54-.369.884-.301l-.049.254c-.232-.046-.461.06-.666.241-.15.132-.276.295-.365.435.544.196 1.085.654 1.468 1.3.688 1.163.6 2.497-.2 2.98-.8.483-2.005-.068-2.694-1.232a3.4 3.4 0 01-.388-.952c-.593.233-1.389.393-2.151.502-.895.127-1.782.19-2.33.208h-.01c-1.038 0-2.807-.35-4.6-.953-1.795-.605-3.666-1.48-4.886-2.562-3-2.66-4.437-6.382-4.719-7.234a.589.589 0 00-.378-.4.895.895 0 00-.463-.027l-.056.013-.058-.01c-.034-.005-.205 0-.434.243-.226.239-.493.696-.688 1.527-.25 1.065-.758 3.632-.42 6.565.336 2.928 1.514 6.206 4.627 8.73 3.787 3.07 8.154 4.456 12.3 4.007 4.143-.447 8.095-2.728 11.055-7.048l.492.343c-3.051 4.452-7.154 6.837-11.483 7.305-4.324.468-8.845-.98-12.738-4.137-3.267-2.65-4.497-6.092-4.847-9.13-.35-3.034.177-5.68.433-6.773.21-.896.514-1.464.837-1.806.299-.315.629-.449.902-.428.195-.035.469-.038.738.057.308.109.605.346.748.778.121.368.472 1.304 1.086 2.456a20.308 20.308 0 01-.16-2.184c-.028-1.198.54-4.368 2.434-7.245C20.04 13.606 23.302 11 28.64 11c5.336 0 8.532 2.55 10.38 5.424 1.837 2.854 2.345 6.022 2.345 7.316v.266c-.041.64-.206 1.963-.54 3.103l-.573-.17c.313-1.07.474-2.577.516-3.209-.003-1.2-.488-4.242-2.249-6.978-1.753-2.725-4.771-5.149-9.88-5.149-5.106 0-8.192 2.477-10.008 5.233zM18.46 29.61c.27.287.558.568.86.837.461.408 1.03.79 1.66 1.14a7.966 7.966 0 01-1.272-3.305c-.46.097-.762.345-.957.625a1.84 1.84 0 00-.291.703zm17.843 5.02c.01-.154.003-.32-.023-.491l-.611.525-.11-.131.683-.588a2.956 2.956 0 00-.2-.575l-.57.472-.107-.133.6-.497a3.15 3.15 0 00-.311-.476l-.511.432-.11-.132.51-.432a2.68 2.68 0 00-.494-.439l-.681.546-.106-.135.633-.507a2.012 2.012 0 00-.156-.08c-.418-.191-.796-.184-1.072-.017-.277.167-.462.5-.493.963-.03.461.097 1.016.41 1.545.314.53.738.906 1.154 1.097.418.19.796.184 1.073.017.276-.168.461-.5.492-.963z" fill="#000300"/><path fill-rule="evenodd" clip-rule="evenodd" d="M25.603 20.28zm1.7-5.12c.901.57.802 2.71-1.553 4.98.652-.645 1.632-1.984 1.263-3.149-.498-1.57-1.248-1.723-1.965-1.586.465-.302 1.521-.709 2.256-.244zm-2.177 5.216zm.065-.194c.273-.88.511-2.526-.358-3.376-1.173-1.147-1.906-.925-2.474-.463.27-.487 1.023-1.447 1.888-1.387 1.059.072 1.96 2.099.944 5.226zm.82.359c.05-.001.106-.003.166-.007 2.687-.136 3.893-1.42 3.635-2.266-.212-.691-1.09-1.013-1.542-1.078.522.305.909.81.38 2.063-.391.93-1.72 1.233-2.473 1.28-.055.004-.11.006-.167.008z" fill="#C19C58"/><defs><linearGradient id="paint0_linear_1530" x1="26.963" y1="30.407" x2="32.97" y2="28.249" gradientUnits="userSpaceOnUse"><stop stop-color="#C08695"/><stop offset="1" stop-color="#FAC5D5"/></linearGradient><linearGradient id="paint1_linear_1530" x1="40.656" y1="28.285" x2="40.656" y2="36.099" gradientUnits="userSpaceOnUse"><stop stop-color="#F99501"/><stop offset="1" stop-color="#FEA201"/></linearGradient></defs></svg>