<!-- by TradingView --><svg width="56" height="56" viewBox="0 0 56 56" xmlns="http://www.w3.org/2000/svg"><path fill="#FF8600" d="M0 0h56v56H0z"/><path d="M26.77 39.2a22 22 0 0 1-2.29-.52c-.08-.02-.13 0-.15.08l-1.07 3.83c0 .04-.03.05-.06.04l-2.79-.72a.07.07 0 0 1-.04-.03 5.92 5.92 0 0 0 1.07-3.99c.02-.1-.03-.18-.14-.2a3.84 3.84 0 0 1-.48-.15 28.41 28.41 0 0 1-5.8-2.97.14.14 0 0 1 .01-.16l2.33-2.72a.14.14 0 0 1 .18-.02 24.66 24.66 0 0 0 8.98 3.83c1.5.29 4.68.62 5.65-.91.52-.81.46-1.59-.18-2.34a8.61 8.61 0 0 0-2.66-1.98c-1.52-.78-3.03-1.58-4.54-2.38a18.5 18.5 0 0 1-3.47-2.35c-1.25-1.1-2.47-2.82-2.32-4.5.22-2.35 1.8-3.95 4.19-4.5 1.23-.27 2.62-.36 4.17-.24a.1.1 0 0 0 .1-.04c.06-.1.11-.22.14-.33.34-1.26.7-2.53 1.06-3.8.03-.11.1-.15.21-.12l2.67.69.04.03v.05l-1.07 3.84a.13.13 0 0 0 .06.14l.05.02a20.53 20.53 0 0 1 2.32.57.1.1 0 0 0 .07-.03l.01-.03 1.06-3.85.03-.04a40.97 40.97 0 0 1 2.44.6 1.74 1.74 0 0 0 .4.07.08.08 0 0 1 .04.05v.03l-1.1 4.03c-.02.03-.01.06 0 .1l.07.06a27.03 27.03 0 0 1 5.02 2.53.1.1 0 0 1 0 .11l-2.28 2.55a.16.16 0 0 1-.1.06c-.04 0-.08 0-.11-.03a27.44 27.44 0 0 0-8.11-3.19c-1.47-.3-3.55-.49-4.64.4-.7.58-.69 1.62-.18 2.32a7.88 7.88 0 0 0 2.72 2.2c2.23 1.2 4.57 2.31 6.59 3.68 1.49 1 2.8 2.23 3.5 3.84.15.35.24.71.27 1.07.25 4.09-3.51 5.72-7.1 5.76h-1.58c-.05 0-.09.02-.1.07l-1.17 4.2c0 .03-.02.06-.05.07a.13.13 0 0 1-.1.02l-2.74-.7a.05.05 0 0 1-.03-.02.05.05 0 0 1 0-.03l1.1-3.9c.02-.09-.02-.13-.1-.15Z" fill="#fff"/></svg>