<?xml version="1.0" encoding="UTF-8"?>
<svg version="1.1" xmlns="http://www.w3.org/2000/svg" width="64" height="64">
<path d="M0 0 C21.12 0 42.24 0 64 0 C64 21.12 64 42.24 64 64 C42.88 64 21.76 64 0 64 C0 42.88 0 21.76 0 0 Z " fill="#FC8609" transform="translate(0,0)"/>
<path d="M0 0 C1.2065625 0.0309375 1.2065625 0.0309375 2.4375 0.0625 C2.4375 1.0525 2.4375 2.0425 2.4375 3.0625 C4.7475 3.3925 7.0575 3.7225 9.4375 4.0625 C8.7775 5.3825 8.1175 6.7025 7.4375 8.0625 C7.96859375 8.42601562 8.4996875 8.78953125 9.046875 9.1640625 C13.47361232 12.31447775 17.03255591 15.05219982 19.4375 20.0625 C20.07812189 24.37437812 19.91828465 27.34132303 17.4375 31.0625 C21.25563447 30.78709296 21.25563447 30.78709296 24.4375 29.0625 C24.52435603 27.50077255 24.54452219 25.93520656 24.53515625 24.37109375 C24.53193359 23.42685547 24.52871094 22.48261719 24.52539062 21.50976562 C24.51701172 20.51654297 24.50863281 19.52332031 24.5 18.5 C24.49548828 17.50291016 24.49097656 16.50582031 24.48632812 15.47851562 C24.47450007 13.00645151 24.45801849 10.53450482 24.4375 8.0625 C24.7675 8.0625 25.0975 8.0625 25.4375 8.0625 C29.7630132 23.8738392 29.7630132 23.8738392 27.4375 30.0625 C25.16591169 32.9925791 24.04369245 33.97416421 20.32128906 34.51660156 C19.12729492 34.4956543 17.93330078 34.47470703 16.703125 34.453125 C15.40761719 34.44023438 14.11210938 34.42734375 12.77734375 34.4140625 C11.41405176 34.38064366 10.05077051 34.34678391 8.6875 34.3125 C7.30861936 34.29242707 5.92971088 34.27417767 4.55078125 34.2578125 C1.17898256 34.21065448 -2.19140687 34.14484538 -5.5625 34.0625 C-4.75 32.125 -4.75 32.125 -3.5625 30.0625 C-2.5725 29.7325 -1.5825 29.4025 -0.5625 29.0625 C-1.036875 28.32 -1.51125 27.5775 -2 26.8125 C-3.34119327 24.45199985 -4.074812 22.69601523 -4.5625 20.0625 C-6.5425 20.0625 -8.5225 20.0625 -10.5625 20.0625 C-9.9025 19.0725 -9.2425 18.0825 -8.5625 17.0625 C-7.5725 17.0625 -6.5825 17.0625 -5.5625 17.0625 C-6.32366551 15.91022177 -7.09682693 14.7658614 -7.875 13.625 C-8.30425781 12.98691406 -8.73351562 12.34882813 -9.17578125 11.69140625 C-10.5659052 9.7739316 -10.5659052 9.7739316 -13.5625 9.0625 C-13.5625 7.7425 -13.5625 6.4225 -13.5625 5.0625 C-10.2625 5.3925 -6.9625 5.7225 -3.5625 6.0625 C-3.5625 4.4125 -3.5625 2.7625 -3.5625 1.0625 C-2.5625 0.0625 -2.5625 0.0625 0 0 Z " fill="#FBF8F1" transform="translate(23.5625,14.9375)"/>
<path d="M0 0 C0.33 0 0.66 0 1 0 C1 9.24 1 18.48 1 28 C-7.25 28 -15.5 28 -24 28 C-21.60521082 25.60521082 -19.34226086 24.75190222 -16.25 23.375 C-7.91681404 19.27327613 -4.07456857 13.5764281 -1 5 C-0.30859478 2.22111387 -0.30859478 2.22111387 0 0 Z " fill="#FCF8F1" transform="translate(63,36)"/>
<path d="M0 0 C0.33 0 0.66 0 1 0 C1.14695313 0.61746094 1.29390625 1.23492187 1.4453125 1.87109375 C4.01909591 11.58934492 8.04526232 18.52631729 16.7421875 23.84765625 C19.79752886 25.40704328 22.64910678 26.287044 26 27 C26 27.33 26 27.66 26 28 C17.42 28 8.84 28 0 28 C0 18.76 0 9.52 0 0 Z " fill="#FDFBF7" transform="translate(0,36)"/>
<path d="M0 0 C7.92 0 15.84 0 24 0 C24 8.58 24 17.16 24 26 C22.95723333 23.91446666 21.92491816 21.81998451 21.02734375 19.66796875 C16.71875999 9.86169389 9.50251227 5.31932376 0 1 C0 0.67 0 0.34 0 0 Z " fill="#FCFAF5" transform="translate(40,0)"/>
<path d="M0 0 C8.58 0 17.16 0 26 0 C22 2 22 2 20.10546875 2.859375 C12.18011207 6.53958136 6.7653929 11.0508372 3 19 C2.20543106 21.32468171 1.58545685 23.60938453 1 26 C0.67 26 0.34 26 0 26 C0 17.42 0 8.84 0 0 Z " fill="#FDFBF7" transform="translate(0,0)"/>
<path d="M0 0 C0.33 0 0.66 0 1 0 C5.14058596 15.13536225 5.14058596 15.13536225 3 22 C1.375 24.625 1.375 24.625 -1 26 C-4.75 25.75 -4.75 25.75 -8 25 C-4 23 -4 23 0 21 C0 14.07 0 7.14 0 0 Z " fill="#F8E3C6" transform="translate(48,23)"/>
<path d="M0 0 C0.66 0.33 1.32 0.66 2 1 C0.38050958 2.50594681 -1.24575974 4.00460668 -2.875 5.5 C-3.77992187 6.3353125 -4.68484375 7.170625 -5.6171875 8.03125 C-8 10 -8 10 -10 10 C-10.66 11.32 -11.32 12.64 -12 14 C-12 9.93107143 -10.35494947 8.66377655 -7.734375 5.71875 C-5.35327319 3.35909956 -2.87603259 1.71192416 0 0 Z " fill="#F7972F" transform="translate(17,3)"/>
<path d="M0 0 C0.33 0 0.66 0 1 0 C1.4803318 1.58298026 1.95921612 3.16639978 2.4375 4.75 C2.83775391 6.07257812 2.83775391 6.07257812 3.24609375 7.421875 C3.88468494 9.60565835 4.46775833 11.78835498 5 14 C3.35 14 1.7 14 0 14 C0 9.38 0 4.76 0 0 Z " fill="#FAEAD6" transform="translate(0,36)"/>
<path d="M0 0 C1.32 0.33 2.64 0.66 4 1 C3.01 1.66 2.02 2.32 1 3 C0.63702064 4.97747122 0.63702064 4.97747122 0.8125 7.125 C0.874375 8.40375 0.93625 9.6825 1 11 C-1.31 11 -3.62 11 -6 11 C-5.54625 10.62875 -5.0925 10.2575 -4.625 9.875 C-2.52412879 7.45091784 -1.90871764 5.05069494 -1 2 C-0.67 1.34 -0.34 0.68 0 0 Z " fill="#F2C083" transform="translate(26,35)"/>
<path d="M0 0 C0.33 0 0.66 0 1 0 C3.13645572 6.66071488 2.93838047 12.10163546 2 19 C1.67 19 1.34 19 1 19 C0.17648136 12.61773055 -0.12086218 6.43255401 0 0 Z " fill="#F8D9AF" transform="translate(48,23)"/>
<path d="M0 0 C2.97 0.33 5.94 0.66 9 1 C9.33 1.99 9.66 2.98 10 4 C9.01 4 8.02 4 7 4 C7 3.34 7 2.68 7 2 C4.69 2 2.38 2 0 2 C0 1.34 0 0.68 0 0 Z " fill="#F3CA94" transform="translate(10,20)"/>
</svg>
