<!-- by TradingView --><svg width="56" height="56" viewBox="0 0 56 56" xmlns="http://www.w3.org/2000/svg"><path fill="#F0F3FA" d="M0 0h56v56H0z"/><path d="M30.05 11.12c1.02.25 1.88.49 2.58.71a18.03 18.03 0 0 1 6.78 4.1 17.76 17.76 0 0 1 3.73 5.7 17.9 17.9 0 0 1 1.04 8.88 17.17 17.17 0 0 1-5.23 10.06l-1.92 1.83a17 17 0 1 1-6.98-31.28Z" fill="#001057"/><path d="m37.03 42.4 1.92-1.83a17.17 17.17 0 0 0 5.23-10.06c.4-3.05.06-6.01-1.04-8.89a17.76 17.76 0 0 0-3.74-5.7 18.03 18.03 0 0 0-6.78-4.1 35.8 35.8 0 0 0-2.57-.7 17 17 0 0 1 6.98 31.28Z" fill="#000F47"/><path d="M14.47 37.7a16.95 16.95 0 0 1-2.12-15.05 16.16 16.16 0 0 1 3.63-6.15 16.08 16.08 0 0 1 10.75-5.13c4.1-.2 7.78.97 11.03 3.52a16.23 16.23 0 0 1 4.76 6.04 16.89 16.89 0 0 1-3.47 19.1 16.64 16.64 0 0 1-6.75 4 14.8 14.8 0 0 1-8.15.22 17.02 17.02 0 0 1-7.13-3.7c-.92-.8-1.77-1.75-2.55-2.85Z" fill="#001067"/><path d="M38.96 39.65a15.99 15.99 0 0 1-10.24 4.55A15.2 15.2 0 0 1 17.05 40a15.99 15.99 0 0 1-4.77-8.35 17.32 17.32 0 0 1-.31-4.27 16.29 16.29 0 0 1 7.99-13.45 15.47 15.47 0 0 1 7.16-2.07c2.77-.13 5.39.45 7.87 1.74a15.69 15.69 0 0 1 7.54 8.17 17.17 17.17 0 0 1 1.04 8.39c-.33 2.6-1.22 5-2.67 7.2a13.8 13.8 0 0 1-1.94 2.3Z" fill="#00107D"/><path d="M38.97 38.97a15.56 15.56 0 0 1-9.66 4.73c-2.45.23-4.82-.1-7.12-.97a15.77 15.77 0 0 1-9.53-11.3c-.58-2.84-.43-5.66.45-8.45a15.98 15.98 0 0 1 3.92-6.3 14.84 14.84 0 0 1 8.7-4.28 16.5 16.5 0 0 1 7.3.79 16.77 16.77 0 0 1 6.64 4.74 15.74 15.74 0 0 1 3.56 10.69 16.05 16.05 0 0 1-4.26 10.35Z" fill="#011095"/><path d="M40.16 19.3c.15.21.28.4.39.6.35.6.69 1.27 1.02 2.01A16 16 0 0 1 42.3 24c.18.62.27 1.32.4 2.03.04.24.07.51.08.82.04 1.27.03 2.21-.03 2.83-.07.78-.28 1.82-.64 3.1-.07.26-.18.57-.33.92-.18.45-.32.83-.51 1.2-.46.87-.83 1.48-1.1 1.85-.1.14-.5.6-1.18 1.4-.44.52-.83.93-1.17 1.25a15.05 15.05 0 0 1-5.46 3.18 14.84 14.84 0 0 1-17.56-6.97l-.41-.75a15.23 15.23 0 0 1-1.55-5.84 15.15 15.15 0 0 1 2.01-8.82c.52-.81 1.02-1.53 1.5-2.16.59-.76 1.2-1.4 1.84-1.9.76-.6 1.55-1.15 2.37-1.63.53-.3 1.04-.56 1.53-.75a15.26 15.26 0 0 1 6.5-1.1c1.37.08 2.8.36 4.26.86a18.27 18.27 0 0 1 2.26 1.04c1.34.78 2.54 1.74 3.61 2.86.18.19.52.63 1.01 1.31l.42.57Z" fill="#1927A8"/><path d="M29.1 42.96c-.9.05-1.6.06-2.11.03a16.84 16.84 0 0 1-5.8-1.57 10 10 0 0 1-1.76-1.12h.02l1.06.6c.63.38 1.25.66 1.92.98.1.05.3.1.6.13l.76.22c.29.1.55.16.78.21l.98.21a19.1 19.1 0 0 0 3.4.12c.45-.03.87-.09 1.26-.16a15.76 15.76 0 0 0 4.1-1.4c.2-.12.39-.22.55-.29.2-.08.32-.25.52-.34a2 2 0 0 0 .26-.15c.14-.1.23-.15.27-.17a.8.8 0 0 0 .22-.16l.23-.18a14.83 14.83 0 0 0 3.98-4.61c.33-.38.57-.82.74-1.32.03-.07.05-.2.06-.37a20.76 20.76 0 0 0 .72-2.33 25.87 25.87 0 0 0 .25-1.61l.04-.36a20.03 20.03 0 0 0-.06-3.2c0-.16-.05-.4-.11-.71l-.18-.92c-.05-.29-.16-.54-.23-.81-.05-.2-.1-.41-.18-.61-.3-.85-.66-1.65-1.07-2.41a7.8 7.8 0 0 0-.59-.92 3.29 3.29 0 0 1-.14-.24.61.61 0 0 0-.18-.22.08.08 0 0 1-.04-.07l-.01-.05c-.07-.06-.18-.2-.33-.42A15.45 15.45 0 0 0 34.7 15a13.84 13.84 0 0 0-7.95-1.79 14.77 14.77 0 0 0-5.43 1.54c-.15.08-.25.17-.39.23l-.3.16c-1.2.73-2.28 1.6-3.24 2.6a3.88 3.88 0 0 0-.48.58l-.06.05A14.88 14.88 0 0 0 13.42 29a15.44 15.44 0 0 0 2.63 7.6l.2.24c.07.1.14.22.2.35a.1.1 0 0 0 .06.06c.04.02.07.05.09.1l.06.13.15.18c.16.3.35.54.55.75l1.4 1.36c-.71-.53-1.33-1.1-1.85-1.72-.44-.53-.97-1.2-1.58-2l-.66-1.2c-.28-.5-.47-.91-.6-1.24-.23-.67-.45-1.4-.64-2.21-.11-.51-.2-1.07-.25-1.69-.06-.77-.09-1.49-.09-2.15 0-.93.1-1.84.31-2.73.14-.6.35-1.28.62-2.05a15.46 15.46 0 0 1 2.12-3.95c.24-.33.48-.62.73-.86.35-.33.64-.68 1.06-1.06.35-.31.77-.67 1.27-1.08.46-.37.92-.67 1.38-.92 1.26-.66 2.42-1.1 3.77-1.48a14.25 14.25 0 0 1 11 1.7c.67.38 1.27.91 1.96 1.4.2.14.44.36.73.66.36.37.8.85 1.32 1.44.17.19.3.38.42.57.57.95.94 1.6 1.12 1.96.5.99.91 2.03 1.21 3.13.32 1.16.47 2.4.45 3.71-.02 2.27-.5 4.43-1.42 6.5-.22.47-.47.89-.78 1.4a14.32 14.32 0 0 1-5.6 5.36c-.43.21-.8.44-1.3.66a15.13 15.13 0 0 1-3.69 1.02v-.02h-.01l-.67.04Z" fill="#3542B6"/><path d="M41.14 33.62a14.83 14.83 0 0 1-5.76 6.97c-.2.08-.32.25-.52.33-.16.07-.34.17-.54.29a15.76 15.76 0 0 1-4.1 1.4c-.4.07-.82.13-1.27.16a19.1 19.1 0 0 1-3.4-.12l-.98-.2a7.64 7.64 0 0 1-.78-.22l-.76-.22a5.86 5.86 0 0 0-.41-.18l-.41-.16-.6-.27a6.8 6.8 0 0 1-.57-.3l-.58-.33c-.2-.1-.38-.23-.57-.37a133.13 133.13 0 0 0-1.23-.9.66.66 0 0 1-.2-.17 1.6 1.6 0 0 0-.18-.2 2.34 2.34 0 0 1-.55-.62l-.02-.02h-.05l-.4-.37v.01a.02.02 0 0 1-.02 0 2.73 2.73 0 0 0-.43-.47 1.1 1.1 0 0 1-.15-.18l-.06-.14a.18.18 0 0 0-.1-.1.1.1 0 0 1-.05-.05 1.53 1.53 0 0 0-.2-.35l-.2-.25a15.29 15.29 0 0 1-1.88-3.72c-.25-.73-.45-1.54-.61-2.46-.07-.41-.12-.88-.14-1.41a24 24 0 0 1-.02-1.43 14.88 14.88 0 0 1 7.52-12.58c.14-.06.24-.15.4-.23a14.77 14.77 0 0 1 5.42-1.54 15.03 15.03 0 0 1 3 .12l.48.07.47.08c1.46.31 2.8.82 4 1.51a15.45 15.45 0 0 1 4.34 3.74c.15.22.26.36.33.42l.01.05c0 .03.01.05.04.07.06.04.12.1.18.22l.14.24c.21.28.4.59.59.92a16.88 16.88 0 0 1 1.26 3.02c.06.27.17.52.22.8l.18.93a5.61 5.61 0 0 1 .16 1.18l.03.47a20 20 0 0 1-.09 2.98 25.87 25.87 0 0 1-.27 1.43c-.02.02-.04.06-.04.1l-.01.11c-.18.66-.38 1.3-.62 1.94Z" fill="#001067"/><path d="M35.47 16.46a7.7 7.7 0 0 0-1.4.6c.06-.1.15-.18.25-.23l.5-.25c.03-.01.03-.03.02-.05-.36-.47-.8-.83-1.32-1.1-1.1-.56-2.26-.94-3.51-1.14a13.32 13.32 0 0 0-7.84 1.06c-.63.29-1.2.65-1.32 1.4l-.6-.24c-.17-.6.37-.82.79-1.07a8.8 8.8 0 0 1 2.42-1.07 92.2 92.2 0 0 0 1.43-.37 12.84 12.84 0 0 1 6.34.1c.84.23 1.67.53 2.49.9.27.12.65.35 1.12.67.3.2.52.47.63.79Z" fill="#00107D"/><path d="M34.32 16.83a12.41 12.41 0 0 0-10.6-1.16c-.65.23-1.2.48-1.68.75a2.5 2.5 0 0 0-.66.57l-.53-.24c.11-.75.7-1.11 1.32-1.4 2.5-1.15 5.11-1.5 7.84-1.06 1.25.2 2.42.58 3.51 1.14.52.27.96.63 1.32 1.1.01.02.01.04-.01.05l-.51.25Z" fill="#0B1AA3"/><path d="M34.32 16.83a.65.65 0 0 0-.25.23l-1.58.86v-.04c0-.01 0-.02-.02-.03h-.03l.34-.2.54-.35c.02-.01.03-.03.01-.06-.17-.4-.46-.7-.86-.9a9.35 9.35 0 0 0-2.27-.73 11.91 11.91 0 0 0-6.34.46c-.23.08-.48.2-.75.36-.43.26-.59.64-.46 1.12l.53.33a.12.12 0 0 0-.08.06L21.38 17c.2-.24.42-.43.66-.57a12.41 12.41 0 0 1 12.27.4Z" fill="#2836B1"/><path d="M32.78 17.66a5.32 5.32 0 0 0-1.69-1.01 10.65 10.65 0 0 0-4.79-.42 8.7 8.7 0 0 0-3.65 1.32c-.13-.48.03-.86.46-1.12.27-.16.52-.28.75-.36a11.9 11.9 0 0 1 6.34-.46c.83.16 1.58.4 2.27.73.4.2.69.5.86.9.02.03.01.05-.01.06l-.54.36Z" fill="#3542B6"/><path d="m32.78 17.66-.34.19a.19.19 0 0 1-.14-.01c-.4-.17-.83-.33-1.29-.48a12.53 12.53 0 0 0-2.35-.48l-1.14-.01c-.44 0-.82.02-1.13.07a11 11 0 0 0-2.43.64l-.78.3-.53-.33a8.7 8.7 0 0 1 3.65-1.32c1.56-.2 3.34-.11 4.8.42.6.21 1.16.55 1.68 1Z" fill="#4853BC"/><path d="m20.26 16.51.59.24.53.24 1.72.95 2.3 1.52-1.01.15a33.92 33.92 0 0 0-3.22-1.92 6.04 6.04 0 0 0-1-.43c-.16-.05-.26.02-.3.23-.09.53-.15 1.06-.18 1.6a21.43 21.43 0 0 0 .1 3.5l-.13.23a.08.08 0 0 0 0 .07l.55 1.12-.41.44c-.02 0-.03 0-.04.02a.83.83 0 0 0-.4.27c-.15-.01-.31.01-.46.08a.5.5 0 0 0-.26.21.7.7 0 0 0-.08.34l-.01.88c0 .18.1.25.31.22a12 12 0 0 1-.02 1.93l-1.11.36h-.02l-.01-.02c.04-.17.05-.35.05-.53 0-.18.04-.52.14-1 .21-.99.5-1.96.88-2.9l.5-.92a.11.11 0 0 0 0-.08 10.3 10.3 0 0 1-.27-1.93v-1.37a14.24 14.24 0 0 1 .28-3.05c.04-.18.1-.35.19-.49a.13.13 0 0 1 .1-.06c.23-.01.46.02.69.1ZM36.54 21.62c-.02.08-.03.25-.05.52-.01.17-.08.58-.2 1.23-.02.1 0 .15.05.22a9.96 9.96 0 0 1 1.31 3.9 139.68 139.68 0 0 1 .14 1.11c0 .02-.02.03-.04.02a4.34 4.34 0 0 0-1.18-.27c-.05-.5-.06-.92-.04-1.25.02-.27.03-.48.02-.63h.03c.11.04.2.02.29-.04a.1.1 0 0 0 .04-.07c.05-.37 0-.74 0-1.12 0-.17-.1-.3-.26-.39a1.65 1.65 0 0 0-.5-.16l-.38-.21a3.36 3.36 0 0 0-.9-.89c.3-.35.53-.73.7-1.14l.15.12c.02.01.04 0 .04-.02a14.85 14.85 0 0 0 .06-3.67c0-.26 0-.48-.04-.66a9.1 9.1 0 0 1-.08-.66c0-.07-.05-.14-.12-.22a.1.1 0 0 0-.08-.03c-.17.01-.3.05-.41.1-.63.32-1.4.72-2.28 1.2-.45.24-1 .58-1.63 1l-.96-.15c.13-.15.29-.27.48-.38l1.07-.7.72-.46 1.58-.86c.45-.25.92-.45 1.4-.6l.48-.05a.15.15 0 0 1 .15.07c.15.28.24.58.28.9l.13 1.17c.04.37.06.76.06 1.17.02.67.02 1.15.02 1.45 0 .12-.02.27-.05.45Z" fill="#FAAD25"/><path d="m31.77 18.37-1.07.71a5.49 5.49 0 0 1-.72.23l.39-.17c.03 0 .03-.03 0-.05-.32-.37-.7-.6-1.14-.68a7.5 7.5 0 0 0-4.44.47l-.68-.49a.09.09 0 0 1-.04-.07c0-.24.12-.4.37-.5a8.5 8.5 0 0 1 3.58-.62 7.83 7.83 0 0 1 2.92.52c.37.12.64.34.83.65Z" fill="#0B1AA3"/><path d="M24.39 19.6a8.27 8.27 0 0 0-3.4 1.68c-.37.33-.77.76-1.2 1.3 0-.17 0-.35-.02-.51l-.05-.5c-.06-.83-.07-1.65-.03-2.48.03-.54.09-1.07.19-1.6.03-.2.13-.28.3-.23.32.1.65.25.99.43a42.18 42.18 0 0 1 3.22 1.92ZM35.58 22.45a6.56 6.56 0 0 0-1.23-1.28 8.56 8.56 0 0 0-3.17-1.56c.64-.42 1.18-.76 1.63-1 .89-.48 1.65-.88 2.28-1.2.1-.05.24-.09.41-.1a.1.1 0 0 1 .08.03c.07.08.12.15.12.22l.08.66a36.52 36.52 0 0 0 .1 1.62c.06.7.01 1.6-.12 2.7 0 .04-.02.04-.04.03a.5.5 0 0 1-.14-.12Z" fill="#C27628"/><path d="M18.76 18.44c-.43-.2-.83-.13-1.2.23a14.12 14.12 0 0 0-3.08 5.72 14.74 14.74 0 0 0 1.1 10.05c.1.18.45.66.72.62a.18.18 0 0 0 .15-.16l.05-.38h.1c.08.85.4 1.58 1.1 2.08l.26.27.01.01a.05.05 0 0 1 0 .04l-.01.01c-.34.28.01.86.22 1.09.4.45.81.82 1.23 1.12a16.23 16.23 0 0 0 5.24 2.57 16.43 16.43 0 0 0 6.17.07c2.35-.5 4.4-1.6 6.15-3.28.2-.19.56-.56.6-.86a.15.15 0 0 0-.12-.16.88.88 0 0 0-.31-.02 15.1 15.1 0 0 1-2.38-.9l.14-.1c.27.07.53.17.78.29.3.13.5.21.64.23.7.08 1.53-.41 2.03-.87.36-.33.46-.71.29-1.14.22-.6.26-1.22.12-1.86l-.1-.46c.33.43.61.87.86 1.34.02.12.06.21.12.27a.16.16 0 0 0 .21 0c.13-.1.22-.2.3-.34.28-.5.4-.92.62-1.59a14.44 14.44 0 0 0 .2-8.06c-.35-1.3-.88-2.54-1.58-3.7a9.97 9.97 0 0 0-1.18-1.58 1.9 1.9 0 0 0-1.03-.61l-.42.38-.14-1.22a.1.1 0 0 1 .06-.1.1.1 0 0 1 .03-.01c.5-.02.73.22 1.1.61a13.33 13.33 0 0 1 2.42 3.4c.26.47.43.83.53 1.1.34.9.46 1.5.79 2.8.17.68.24 1.3.22 2.07l-.02 1.15c0 .43-.03.82-.09 1.15-.07.46-.18 1.02-.31 1.68a11.05 11.05 0 0 1-1.08 3c-.22.41-.55.76-.79 1.16-.29.49-.56.97-.91 1.43a11.41 11.41 0 0 1-2.51 2.46 10.48 10.48 0 0 1-3 1.77c-.93.36-1.79.6-2.57.76-.76.15-1.61.25-2.55.3-.44.01-1.01-.02-1.7-.11-.72-.1-1.33-.2-1.84-.33a13.75 13.75 0 0 1-2.5-.93c-.52-.27-1.29-.62-1.85-1.04-.28-.2-.75-.56-1.41-1.1-.51-.4-1-.87-1.4-1.44-.37-.51-.79-1.07-1.26-1.66-.13-.17-.43-.71-.89-1.63-.17-.33-.42-1.08-.77-2.24-.28-.9-.44-1.87-.49-2.89-.04-.97-.01-1.9.1-2.83.04-.34.1-.69.2-1.06.25-1 .44-1.69.57-2.06.23-.66.64-1.33 1.02-2.08a11.1 11.1 0 0 1 2.18-2.92 2.32 2.32 0 0 1 .56-.39.13.13 0 0 1 .1.03l.03.04c.12.26.18.52.17.8Z" fill="#00107D"/><path d="m18.76 18.44-.07.42c-.75.02-1.21.5-1.63 1.05a12.81 12.81 0 0 0-2.44 5.97 13.6 13.6 0 0 0 .6 6.68c.08.23.83 2.1 1.21 1.37.18-.32.21-.79.2-1.15.03-.14.07-.2.13-.18.05.08.13.1.24.05l-.11.5h-.02a.9.9 0 0 1-.01.2l-.05.13c-.2.3-.3.65-.31 1.04l-.05.38a.18.18 0 0 1-.15.16c-.27.04-.61-.44-.72-.62a14.74 14.74 0 0 1-1.09-10.05 14.12 14.12 0 0 1 3.08-5.72c.36-.36.76-.44 1.19-.23Z" fill="#011095"/><path d="M39.52 34c.9-1.7 1.37-3.55 1.41-5.57.07-3.05-.76-5.8-2.47-8.25l-1.28-1.8c.39.08.73.28 1.03.61.47.52.86 1.05 1.18 1.58a15.14 15.14 0 0 1 1.93 5.37c.3 2.17.11 4.3-.55 6.4-.21.66-.34 1.08-.62 1.58-.08.13-.17.25-.3.35a.16.16 0 0 1-.2-.01.48.48 0 0 1-.13-.27Z" fill="#0B1AA3"/><path d="M30.7 19.08c-.2.1-.35.23-.48.38a30.13 30.13 0 0 0-4.46-.03c-.4-.09-.65-.27-.97-.55a7.5 7.5 0 0 1 4.44-.47c.44.08.82.3 1.15.68.02.02.02.04-.01.05l-.4.17h.01c.23-.05.47-.13.72-.23Z" fill="#3542B6"/><path d="m37.18 18.38 1.28 1.8a13.51 13.51 0 0 1 2.47 8.25A12.19 12.19 0 0 1 39.52 34a10.06 10.06 0 0 0-.96-1.52c.25-.1.4-.22.46-.39.12-.33.2-.68.21-1.05l.69.41c.11.07.14.05.07-.07l-.05-.06c.12-.86.2-1.73.24-2.6.11-2.35-.34-4.56-1.35-6.64a8.27 8.27 0 0 0-1.04-1.6c-.22-.26-.5-.48-.77-.7a1.55 1.55 0 0 1-.24-.36l-.02-.65.42-.38ZM18.7 18.86c.1 1.22.16 2.13.17 2.71 0 .08-.05.18-.15.3-.1-.23-.22-.45-.36-.65-.42-.59-.9.02-1.13.38a11.68 11.68 0 0 0-1.7 5.51 10.8 10.8 0 0 0 .53 4.14.26.26 0 0 0-.14.15c-.01.04 0 .06.06.06.16.47.38.9.66 1.32 0 .36-.03.83-.2 1.15-.4.72-1.14-1.14-1.22-1.37a13.6 13.6 0 0 1-.6-6.68c.3-2.18 1.11-4.17 2.44-5.97.42-.56.88-1.03 1.63-1.05Z" fill="#1927A8"/><path d="m30.22 19.46.96.15c1.22.33 2.27.84 3.17 1.56-.4-.12-.8-.22-1.2-.31-.53-.12-1.46-.23-1.34.61.08.57.45 1.26.71 1.74.08.15.2.27.37.34-.04.06-.1.1-.16.1l-2.2-.13.12-.01c.03 0 .03-.02.02-.05-.18-.5-.35-.88-.51-1.15a2.9 2.9 0 0 0-2.61-1.48c-1-.02-2.05.35-2.39 1.36-.12.4-.19.83-.18 1.3v.04l-.32.03-2.06.08.36-.27a.21.21 0 0 0 .09-.2.21.21 0 0 0-.12-.16.9.9 0 0 0-.46-.09c-.33.02-.65.1-.96.26.58-1 1.07-2.03 1.47-3.1.4-.18.87-.34 1.4-.47l1.02-.15.36-.03c1.49-.1 2.98-.09 4.46.03Z" fill="#FFDD41"/><path d="M36.78 19.41c.1.19.18.3.24.35.26.23.55.45.77.71.42.52.77 1.05 1.04 1.6a13.38 13.38 0 0 1 1.35 6.63c-.04.88-.12 1.75-.24 2.61-.46-.34-.95-.64-1.47-.91-.03-.01-.03-.03-.03-.05l.06-.48c0-.04.02-.05.05-.03l1.08.47h.03l.02-.03v-.03l-.35-.21c.22-.83.33-1.66.3-2.51-.05-1.9-.55-3.9-1.57-5.5-.16-.25-.54-.78-.89-.6a1 1 0 0 0-.35.38l-.1-.2.06-2.2Z" fill="#3542B6"/><path d="M22.98 20.07c-.4 1.08-.89 2.11-1.47 3.1-.49.2-.92.48-1.3.84l-.56-1.12a.08.08 0 0 1 0-.07l.15-.24c.42-.54.82-.97 1.2-1.29a8.27 8.27 0 0 1 1.98-1.22Z" fill="#F7CB0F"/><path d="m18.72 21.87-.12.22-.03.04c-.18-.1-.34-.15-.46-.16-1.04-.07-1.7 2.8-1.85 3.5-.32 1.57-.3 3.14.08 4.7-.07.05-.1.08-.1.1l.02.01.03.02h.06l.67-.33a.07.07 0 0 1 .06 0 .06.06 0 0 1 .04.05l.06.42c0 .06-.01.1-.06.13l-1.06.68a10.8 10.8 0 0 1-.53-4.14c.12-2.03.7-3.87 1.7-5.51.22-.36.71-.97 1.13-.38.14.2.26.42.36.65Z" fill="#3542B6"/><path d="M34.35 21.17c.46.37.87.8 1.23 1.28-.18.4-.42.79-.7 1.14a5.14 5.14 0 0 0-1.2-.57c-.23-.07-.5-.1-.79-.08-.19.02-.31.1-.37.27a5.95 5.95 0 0 1-.7-1.74c-.13-.84.8-.73 1.32-.61l1.2.3Z" fill="#F7CB0F"/><path d="M30.52 23.52a.2.2 0 0 0-.13 0c-.3-.04-.65-.02-.88-.03-.96-.03-1.81-.04-2.56-.02l-1.97.03c0-.48.06-.92.18-1.3.34-1.02 1.39-1.4 2.39-1.37a2.9 2.9 0 0 1 2.6 1.48c.17.27.34.66.52 1.15.01.03 0 .04-.02.05l-.13.01Z" fill="#FEEF74"/><path d="m39.33 30.04-.4-.22a11 11 0 0 0-.71-6.45c-.23-.52-.53-1.03-1.13-1.13l-.27-.43a1 1 0 0 1 .35-.38c.35-.18.73.35.89.6a10.97 10.97 0 0 1 1.57 5.5c.03.85-.08 1.68-.3 2.5ZM18.57 22.13a11.47 11.47 0 0 0-1.43 3.69c-.06.34-.1.77-.15 1.07-.08.45-.05.96-.05 1.5 0 .22 0 .45.04.67l.08.7-.72.41c-.37-1.56-.4-3.13-.08-4.7.15-.7.8-3.57 1.85-3.5.12.01.28.06.46.16Z" fill="#4853BC"/><path d="m36.71 21.62.11.19.27.43a11.3 11.3 0 0 1 1.54 5.16c.03.68 0 1.43-.07 2.24l-.73-.28a.2.2 0 0 0 0-.15l.02-.34c0-.03.01-.05.04-.06a.3.3 0 0 1 .12 0c.04 0 .04 0 .02-.03a1.77 1.77 0 0 1-.2-.21h-.03l-.15-1.09a9.96 9.96 0 0 0-1.31-3.89c-.05-.07-.07-.13-.05-.22a14.46 14.46 0 0 0 .25-1.75.3.3 0 0 1 .17 0Z" fill="#00107D"/><path d="m38.92 29.82-.36-.18c.08-.81.1-1.56.07-2.24a11.3 11.3 0 0 0-1.54-5.16c.6.1.9.61 1.13 1.13a11 11 0 0 1 .7 6.45Z" fill="#5863C2"/><path d="M18.77 24.3a18.1 18.1 0 0 0-.88 2.91c-.24.55-.25 1.04-.34 1.58-.03.16 0 .36.08.62 0 .02 0 .04-.02.06l-.55.28-.08-.69a5.1 5.1 0 0 1-.04-.68c0-.53-.03-1.04.05-1.49.06-.3.09-.73.15-1.07.26-1.32.74-2.55 1.43-3.7l.03-.03c.24.38.4.83.39 1.27-.01.3-.14.64-.22.95Z" fill="#00107D"/><path d="m22.6 23.64-.45.2-1.14.25-1.21.36.4-.44a4.13 4.13 0 0 1 2.27-1.09.9.9 0 0 1 .46.09.21.21 0 0 1 .03.36l-.36.27ZM34.87 23.6c.34.22.64.51.9.88l-.59-.19-.77-.22c-.31-.1-.63-.17-.94-.21a1.4 1.4 0 0 1-.58-.31.7.7 0 0 1-.37-.34c.06-.16.18-.25.37-.27.3-.02.56.01.79.08.42.14.82.33 1.2.57Z" fill="#383220"/><path d="M30.39 23.52c.04.09.04.2-.02.34a.16.16 0 0 0-.02.08.66.66 0 0 1-.11.46.38.38 0 0 1-.28.14c-1.12.01-2.6 0-4.45-.01-.24.03-.4-.03-.45-.17-.06-.16-.1-.44-.09-.83v-.03l1.98-.03c.75-.02 1.6-.01 2.56.02.23.01.58-.01.88.03Z" fill="#F70549"/><path d="m30.52 23.52 2.21.13c.29.26.4.58.34.95-.41-.1-.76-.16-1.06-.16l-1.33-.01c-.03 0-.04.02-.04.05a63.72 63.72 0 0 1 0 4.94v.98c0 .13.03.24.1.34.11.18.27.34.44.48a.66.66 0 0 0-.26-.08c-.04 0-.04.01 0 .06l.26.28v.04c-.01.03 0 .05.05.06.27.07.3.14.09.22-.2-.24-.38-.46-.58-.67a2.84 2.84 0 0 1-.37-.51l-.39-.63c.05 0 .09 0 .12-.02s.04-.04.03-.07a.36.36 0 0 0-.06-.13c0-.35.03-.7.05-1.05l.17-2.1c.04-.36.02-1.1-.05-2.22.1-.13.13-.29.11-.46 0-.03 0-.05.02-.08.06-.14.06-.25.02-.34a.2.2 0 0 1 .13 0ZM24.97 23.53c0 .4.03.67.1.83.05.14.2.2.44.17 0 1.54.1 3.05.27 4.56l-.41.74c-.15.25-.3.5-.43.77-.2.34-.48.6-.86.75-.02-.8-.04-1.6-.04-2.41-.01-.79-.08-1.43-.17-2.14a5.6 5.6 0 0 1 .03-1.2c.08-.7-.29-1.26-.66-1.85-.05-.08-.03-.12.07-.13l1.35-.06.31-.03Z" fill="#F78A08"/><path d="m24.66 23.56-1.35.06c-.1 0-.12.05-.07.13.37.6.74 1.15.66 1.84-.05.53-.06.93-.03 1.2.1.72.16 1.36.17 2.15 0 .8.02 1.6.04 2.41-.4.17-.85.27-1.31.28l-.32-.08-.6-4.4a8.78 8.78 0 0 1-.12-1.47c.03-.64.2-1.17.42-1.84l.45-.2 2.06-.08Z" fill="#F7CB0F"/><path d="M34.41 24.07c-.08.87-.09 1.74-.01 2.6.01.22-.03.4-.15.56-.08.1-.12.17-.14.22a.81.81 0 0 0-.05.26 244 244 0 0 1-.07 2.78 1.3 1.3 0 0 1-.4.88l-.31.13-.57.13-.5-.04c.26.03.51 0 .75-.11a.08.08 0 0 0 .04-.06c.06-.32.1-.7.13-1.12.06-1.27.08-2.48.04-3.61l.01-.94c0-.39-.03-.77-.11-1.15a.99.99 0 0 0-.34-.95.26.26 0 0 0 .16-.1c.25.19.44.29.58.3.31.05.63.12.94.22Z" fill="#CCD652"/><path d="M26.2 23.69c.07 0 .12-.02.12-.05 0-.03-.05-.05-.12-.05-.07 0-.13.02-.13.04 0 .03.06.06.13.06ZM25.41 23.91c-.07.06-.14.08-.2.06-.03-.01-.04-.03-.04-.06 0-.08.04-.12.1-.12.05 0 .1.02.15.07a.03.03 0 0 1 0 .05Z" fill="#D9CAB0"/><path d="M22.15 23.84c-.22.67-.39 1.2-.42 1.84-.01.31.03.8.12 1.48l.6 4.4-.23-.06-.44-.13-.24-.12a13 13 0 0 1-.63-3.75 33.7 33.7 0 0 1 .1-3.41l1.14-.25Z" fill="#E5D82C"/><path d="M35.18 24.29c.01.57.04 1.13.1 1.67.02.16.02.3.02.46-.02 1.2-.05 2.42-.09 3.62 0 .39-.14.68-.38.88-.15.04-.38.13-.68.29-.09.05-.28.1-.55.16.25-.25.38-.55.4-.88a244 244 0 0 0 .06-2.78c0-.09.02-.17.05-.26.02-.05.06-.12.14-.22a.79.79 0 0 0 .15-.56c-.08-.86-.07-1.73.01-2.6l.77.22Z" fill="#94C896"/><path d="M21.01 24.09a33.7 33.7 0 0 0-.1 3.4 13 13 0 0 0 .63 3.76 2.62 2.62 0 0 1-.48-.19 2059.58 2059.58 0 0 1-.9-.46c-.06-1.11-.11-2.52-.15-4.23 0-.6-.1-1.23-.25-1.9l.04-.02 1.21-.36Z" fill="#CCD652"/><path d="M28.83 24.32c.03-.08.08-.11.15-.1.1.02.18.06.24.12.05.03.04.05-.02.05h-.32a.06.06 0 0 1-.04-.02.06.06 0 0 1-.01-.05ZM28.35 24.36h-.16c-.12-.07-.1-.11.03-.13.05 0 .1.03.14.09.02.02.01.03-.01.04Z" fill="#D9CAB0"/><path d="m35.77 24.48.38.21c-.02.02-.03.05-.04.09-.08 0-.13.02-.13.08-.02.26-.02.7 0 1.3 0 .08.05.14.15.18.2.08.35.12.42.13 0 .15 0 .36-.02.63-.02.33 0 .75.04 1.25-.03 0-.04.03-.04.06 0 .02 0 .03.03.05l.06.02.01.6c-.14.07-.15.15 0 .22-.05.15-.05.31 0 .48-.07-.04-.13-.02-.2.06l-.05.2a.33.33 0 0 0 0 .23c.03.04.08.1.15.15.36.26.7.54 1.02.84l-.03.01-1.3-1.04a.08.08 0 0 0-.07-.01l-.34.1c-.03.01-.04 0-.04-.03v-1.38h-.04v1.6a.07.07 0 0 0 .03.07c.08.04.12.09.14.13-.3-.11-.62-.03-.96.24l-.1-.03c.23-.2.36-.5.37-.88l.1-3.62-.03-.46c-.06-.54-.09-1.1-.1-1.67l.59.19Z" fill="#678FA6"/><path d="M30.24 24.4c.07 1.12.09 1.86.05 2.23a123.32 123.32 0 0 0-.22 3.14l-.5-.88-.2-.46a1.48 1.48 0 0 0-.35-.47.09.09 0 0 1-.02-.08.08.08 0 0 1 .05-.06l.27-.13a.06.06 0 0 0 .03-.04.06.06 0 0 0 0-.05A26.4 26.4 0 0 1 29 27c-.25-.46-.62-.79-1.14-.81-.63-.04-1.1.23-1.39.78a103.71 103.71 0 0 1-.35.73l.28.13a.1.1 0 0 1 .05.07.1.1 0 0 1-.02.08c-.18.2-.3.41-.38.65a2.5 2.5 0 0 1-.27.46 41.8 41.8 0 0 1-.27-4.56c1.85.02 3.33.02 4.45 0 .1 0 .2-.04.28-.13Z" fill="#F6660B"/><path d="M33.07 24.6c.08.38.11.76.11 1.15a1467.38 1467.38 0 0 0-.05 4.55c-.03.43-.07.8-.13 1.12 0 .02-.01.04-.04.06-.24.1-.49.14-.75.1a2.64 2.64 0 0 1-.94-.29 2.1 2.1 0 0 1-.54-.55.58.58 0 0 1-.1-.34v-.98a64.04 64.04 0 0 0 0-4.95c0-.02.02-.04.05-.04l1.33.01c.3 0 .65.06 1.06.16Z" fill="#FAC30C"/><path d="M19.76 24.47c.16.67.24 1.3.25 1.9.04 1.7.09 3.12.15 4.23l-.3-.12-.27-.17c-.1-.42-.15-.82-.15-1.2-.01-.8 0-1.74.01-2.83.06-.33.08-.75.06-1.25 0-.1-.03-.18-.07-.22 0-.03-.02-.05-.07-.07.1-.12.23-.21.39-.27Z" fill="#B1D27C"/><path d="M36.15 24.7c.16.02.33.07.5.15.17.09.25.22.25.4 0 .37.06.74.01 1.11a.1.1 0 0 1-.04.07.32.32 0 0 1-.29.05c-.05-.12-.16-.2-.32-.21a.14.14 0 0 1-.13-.14l-.02-1.35c.01-.04.02-.07.04-.09ZM19.37 24.74c.05.02.07.04.07.07a.7.7 0 0 0-.09.26c.02.25.03.5.02.77 0 .11-.02.21-.06.31a.1.1 0 0 1-.05.06.58.58 0 0 0-.27.2.27.27 0 0 1-.13.06c-.2.03-.31-.04-.31-.22v-.88a.7.7 0 0 1 .09-.34.5.5 0 0 1 .26-.21c.15-.07.3-.1.47-.08Z" fill="#F70549"/><path d="m36.11 24.78.02 1.35a.14.14 0 0 0 .13.14c.16.02.27.09.32.2h-.03a3.49 3.49 0 0 1-.42-.13c-.1-.04-.15-.1-.15-.18a13.2 13.2 0 0 1 0-1.3c0-.06.05-.09.13-.08ZM19.44 24.8c.04.05.06.13.07.23.02.5 0 .92-.06 1.25l-.46.14c.07-.1.16-.17.27-.21a.1.1 0 0 0 .05-.06c.04-.1.06-.2.06-.3.01-.27 0-.53-.02-.78a.7.7 0 0 1 .1-.26Z" fill="#383220"/><path d="m19.1 25.16-.02-.01v-.03a.18.18 0 0 1 .08-.1.1.1 0 0 1 .09 0h.02a.1.1 0 0 1 .06.07v.11l-.01.02h-.03l-.2-.06Z" fill="#C27628"/><path d="M36.65 25.3c.03.02.07.02.08 0 .02-.03 0-.06-.03-.08-.03-.02-.07-.01-.08.01-.01.02 0 .06.03.07Z" fill="#F6660B"/><path d="M36.7 25.86c.07 0 .12-.03.13-.07 0-.04-.04-.08-.1-.09-.07 0-.13.02-.13.07 0 .04.04.08.1.09Z" fill="#E19624"/><path d="M30.07 29.77c.03.04.05.09.06.13 0 .03 0 .05-.03.07a.23.23 0 0 1-.12.02c-.13.08-.21.08-.25.01a12.03 12.03 0 0 1-.47-.78h-.02l-.01.02c-.3.4-.65.73-1.07.98a.95.95 0 0 1-.26.1c-.58.14-1.32-.65-1.61-1.07l-.02-.02a.06.06 0 0 0-.08.03l-.46.8c-.01.02-.03.03-.06.02a.38.38 0 0 1-.15-.07c-.1-.05-.15-.11-.15-.18l.41-.74c.15-.23.24-.38.27-.46.08-.24.2-.45.38-.65a.1.1 0 0 0 .02-.08.1.1 0 0 0-.05-.07l-.27-.12a.04.04 0 0 1-.02-.02v-.03l.36-.69c.3-.55.76-.82 1.4-.78.51.02.88.35 1.13.82a26.15 26.15 0 0 0 .35.64.06.06 0 0 1-.03.04l-.27.13a.09.09 0 0 0-.03.14c.15.14.26.3.34.47l.2.46.51.88Z" fill="#010100"/><path d="M19.45 26.28a96.45 96.45 0 0 0-.01 2.83c0 .38.05.78.15 1.2l-.2-.07c-.14-.05-.22-.12-.25-.22a.58.58 0 0 0-.1-.18l-.08-.53v-.13c-.02-.02-.06-.03-.1-.03v-.56c.1-.05.12-.1.07-.15-.02-.02-.05-.03-.09-.04.06-.64.07-1.28.02-1.93.05 0 .09-.02.13-.05l.46-.14Z" fill="#94C896"/><path d="M27.73 26.96c.16 0 .3.06.4.2a2.35 2.35 0 0 1 .33.59v.01a.03.03 0 0 1-.04.01 3.72 3.72 0 0 0-1.4 0v-.03c.08-.22.2-.41.32-.58.1-.14.24-.2.4-.2Z" fill="#FEEF74"/><path d="M17.9 27.21c-.1.48-.15.82-.15 1a2.4 2.4 0 0 1-.04.55h.02l1.11-.36c.04 0 .07.02.09.04.05.06.02.1-.07.15l-1.11.3a.08.08 0 0 0-.05.02.08.08 0 0 0-.02.05v.5c0 .04.02.05.05.04l1.13-.35c.04 0 .08.01.1.03v.13l-1.24.39h-.02V30.29a.02.02 0 0 0 0 .02.02.02 0 0 0 .02 0c.42-.2.86-.35 1.32-.46.03.04.07.1.1.18l-1.39.49-.01.01v.02c.02.3.08.59.2.88l-.02.05-.31.31c-.02.02-.04.02-.05-.01l-.08-.24-.2-.7c-.02-.07-.06-.08-.12-.05l-1.18.68c-.05 0-.07-.02-.06-.06.02-.06.07-.11.14-.15l1.06-.68a.12.12 0 0 0 .06-.13l-.06-.42a.07.07 0 0 0-.04-.05.07.07 0 0 0-.06 0l-.67.32-.03.01h-.03c-.01 0-.02 0-.03-.02l-.01-.02c0-.01.02-.04.09-.09l.72-.42.55-.28c.02-.02.03-.04.02-.06a1.36 1.36 0 0 1-.08-.62c.1-.54.1-1.03.34-1.58Z" fill="#040827"/><path d="M26.82 29.36c-.05 0-.1.03-.12.08a.09.09 0 0 1-.07.06.09.09 0 0 1-.08-.04l-.24-.32a.67.67 0 0 1-.14-.24.47.47 0 0 1 0-.26c.06-.27.2-.48.39-.63.13-.1.35-.16.65-.18a5.19 5.19 0 0 1 1.48.08c.12.02.25.11.4.28.31.34.3.76-.02 1.11a2.56 2.56 0 0 1-.19.17h-.04l-.06-.02a.16.16 0 0 0-.07-.06.18.18 0 0 0-.09 0 .2.2 0 0 0-.08.03.22.22 0 0 0-.07.07c-.07.1-.13.25-.2.43-.03.1-.12.19-.26.26-.2.1-.39.1-.56-.02-.27-.19-.26-.8-.63-.8Z" fill="#876043"/><path d="M37.8 28.57h.03c.01 0 .02 0 .03.02.05.07.11.14.17.19.02.02.02.03-.02.02a.3.3 0 0 0-.12.01c-.03.01-.04.03-.04.06l-.02.34v-.38c0-.03-.02-.05-.05-.05l-1.16-.3a.15.15 0 0 1-.06-.02c-.02-.02-.03-.03-.03-.05 0-.03.01-.05.04-.06.42.04.8.13 1.18.27.02 0 .03 0 .04-.02v-.03Z" fill="#010100"/><path d="m37.52 31.27.77 1.03c.1.12.19.18.27.17.07.08.1.13.1.18l.1.46c.14.64.1 1.26-.12 1.86l-.1.15.16-.54v-.1a.4.4 0 0 0-.03-.04.1.1 0 0 0-.08-.05.1.1 0 0 0-.1.04l-.4.6c-.44.56-1.01.86-1.72.88-.32 0-.61.03-.92.03a.55.55 0 0 0-.38.18 1.95 1.95 0 0 1-.58-.45.83.83 0 0 0-.23-.21 4.66 4.66 0 0 1-.57-1.18 7.4 7.4 0 0 1-.14-.73l-.03-.02h-.04a.36.36 0 0 0 .04-.24c-.03-.18-.09-.34-.09-.52 0-.21-.01-.4-.04-.55a1.35 1.35 0 0 1-.02-.33l.03-.32c0-.07-.04-.1-.12-.07l.32-.13c.27-.06.46-.11.55-.16.3-.16.53-.25.68-.29l.11.03c-.02.08-.07.12-.15.12-.03 0-.06 0-.08.02a2 2 0 0 0-.2.1l-.07.06c-.03.02-.06.03-.1.03a.09.09 0 0 0-.08.03c-.05.05-.12.08-.23.1a.06.06 0 0 0-.06.05.92.92 0 0 0 0 .36c.1.52.22 1.04.35 1.58.03.1.09.24.18.44.25.52.7.78 1.32.8.83 0 1.38-.36 1.65-1.1.08-.25.13-.49.12-.71 0-.14-.05-.3-.16-.45a9.93 9.93 0 0 0-1.7-1.82.07.07 0 0 1 0-.04V28.9h.03v1.38c0 .03.02.04.05.03l.33-.1a.08.08 0 0 1 .07 0l1.3 1.05Z" fill="#0290CC"/><path d="m36.62 28.48 1.16.3c.03 0 .04.02.04.05l.01.38a.2.2 0 0 1 0 .15l-1.2-.29-.01-.59ZM18.86 28.59v.56l-1.13.35c-.03.01-.05 0-.05-.03v-.5a.08.08 0 0 1 .07-.09l1.11-.3Z" fill="#FAAD25"/><path d="m36.63 29.07 1.2.29.73.28.36.18.41.22.35.2v.04l-.02.02h-.03l-1.08-.46c-.03-.02-.05 0-.05.03l-.06.48c0 .02 0 .04.03.05a10.65 10.65 0 0 1 1.52.97c.07.12.04.14-.07.07l-.69-.4-.8-.4a.05.05 0 0 0-.05 0 .05.05 0 0 0-.03.02l-.29 1.01a.06.06 0 0 1-.04.04h-.05c-.17-.13-.3-.27-.36-.43l.2-.84a.1.1 0 0 0-.08-.12l-1.27-.37c-.02 0-.04-.02-.04-.04l.01-.07c.07-.08.13-.1.2-.06l1.18.35c.02 0 .02 0 .02-.02v-.49c0-.01 0-.03-.02-.03a4.15 4.15 0 0 0-1.19-.3c-.14-.06-.13-.14.01-.22Z" fill="#040827"/><path d="M29.98 29.99c.14.2.27.42.4.63.1.18.22.35.36.5.2.22.39.44.58.68-.5 0-1.27.04-2.33.13-.7.05-1.59.05-2.69-.01-.58-.03-1.16-.13-1.75-.22a.09.09 0 0 1-.04-.15c.25-.22.42-.43.58-.76.13-.26.28-.52.43-.78.05.04.1.06.15.07.03 0 .05 0 .06-.03l.46-.8.02-.01.03-.01a.05.05 0 0 1 .05.02c.29.42 1.03 1.2 1.61 1.06.11-.02.2-.05.26-.1a3.36 3.36 0 0 0 1.08-.98.04.04 0 0 1 .04 0l.02.02.43.75c.04.07.12.07.25-.01Z" fill="#FBC641"/><path d="m18.96 29.31.08.53a7.2 7.2 0 0 0-1.35.44v-.55a.03.03 0 0 1 .03-.03l1.24-.39ZM36.62 29.78a1.04 1.04 0 0 1 0-.48c.42.04.82.13 1.19.29.02 0 .02.02.02.03v.5h-.02l-1.19-.34Z" fill="#FAAD25"/><path d="M25.37 29.83c0 .07.05.13.15.18-.15.26-.3.52-.43.78-.16.33-.33.54-.58.76a.09.09 0 0 0 .04.15 20.03 20.03 0 0 0 4.44.22c1.06-.08 1.83-.13 2.33-.12.2-.08.18-.15-.1-.22-.03-.01-.05-.03-.04-.06v-.04l-.26-.28c-.04-.05-.04-.07 0-.06.08 0 .17.03.26.08.04.01.06.04.09.07-.01.04 0 .08.04.1l.56.4-1.36.2c-.3.04-.58.06-.84.07l-.84.04c-.67.05-1.2.07-1.6.04l-.98-.03c-.14 0-.29-.04-.4-.05a21.41 21.41 0 0 1-3.08-.43c.46-.01.9-.1 1.31-.28.38-.16.67-.4.86-.75l.43-.77Z" fill="#E19624"/><path d="M36.43 29.84v.07c0 .02 0 .04.03.04l1.27.37a.1.1 0 0 1 .07.12l-.19.84c-.04 0-.06 0-.06-.02-.32-.3-.66-.58-1.02-.84a.44.44 0 0 1-.14-.15.33.33 0 0 1 0-.24l.04-.19ZM19.39 30.24c-.05-.01-.1.04-.17.13l-1.29 1.05a3.18 3.18 0 0 1-.2-.9l.02-.01 1.4-.5c.02.1.1.18.24.23Z" fill="#FAAD25"/><path d="M19.22 30.37a.5.5 0 0 0 .3.07h.02a2.72 2.72 0 0 0-.29.04h.03c.08-.02.14-.02.17 0s.03.04-.01.05a47.75 47.75 0 0 1-.35.11c.05-.02.06 0 .04.02a.1.1 0 0 1-.03.03c-.04.02-.03.03.01.03a9.94 9.94 0 0 0 .34-.05v-.01l-.02-.02c-.01-.02-.01-.03.01-.03.14-.03.28-.04.42-.01l-.13.14c-.5.45-.85.79-1.04 1.02-.18.21-.34.44-.48.7v.05l.03.06.62.6a3 3 0 0 1-.7-.6c-.13.33-.14.68-.02 1.03.11.36.3.64.58.85.39.3.7.32 1.2.2.42-.1.74-.23.95-.4.15-.18.27-.37.36-.57l.15-.45c.09-.33.17-.66.24-1 .05-.22.07-.44.06-.66a.59.59 0 0 0 .03-.15c0-.05.03-.07.07-.05l.44.13c.07.37.09.7.05.96l-.15 1.17c-.03.1-.08.3-.15.65-.07.37-.29.79-.65 1.24l-.27.27h-.03c-.06-.04-.12-.06-.16-.05-.7.25-1.4.28-2.08.08-.33-.09-.65-.28-.97-.56-.3-.26-.51-.68-.77-1.07-.05-.08-.13-.11-.22-.08v-.63l.04-.13a.9.9 0 0 0 0-.2h.02l.12-.5c.38-.39.67-.73.89-1.02.03-.04.04-.1.03-.16l.01-.05 1.29-1.05Z" fill="#0290CC"/><path d="M20.16 30.6a2059.58 2059.58 0 0 0 .9.46c.15.08.31.14.48.19l.24.12c-.04-.02-.06 0-.07.05 0 .07-.02.13-.03.15-.06-.05-.12-.11-.2-.13a2.93 2.93 0 0 1-1.25-.53c-.14-.1-.33-.1-.5-.17l.13-.14c.04 0 .06-.02.06-.04 0-.03-.02-.05-.05-.08l.29.12Z" fill="#94C896"/><path d="M35.9 30.7c.6.52 1.1 1.08 1.53 1.68a1.7 1.7 0 0 1-.74.9c-.51.31-1.03.49-1.55.53l-.64.03c-.1-.2-.15-.35-.18-.44-.13-.54-.25-1.06-.34-1.58a.92.92 0 0 1 0-.36c0-.03.02-.05.05-.06.1-.01.18-.04.23-.1a.09.09 0 0 1 .07-.02c.05 0 .08 0 .1-.03l.07-.05.2-.11a.19.19 0 0 1 .09-.02c.08 0 .13-.04.15-.12.34-.27.66-.35.96-.24Z" fill="#BEE8F4"/><path d="M39.23 31.03c-.02.37-.09.72-.2 1.05-.06.17-.22.3-.47.4-.08 0-.17-.06-.27-.18l-.77-1.03h.03l.06.01c.07.16.19.3.36.42a.06.06 0 0 0 .05 0h.03l.01-.03.29-1a.05.05 0 0 1 .03-.04.05.05 0 0 1 .04 0l.81.4Z" fill="#3542B6"/><path d="M19.73 30.74c.17.07.36.08.5.17l.47.3c.17.08.43.17.78.23.08.02.14.08.2.13.01.22 0 .44-.06.67l-.24.99-.15.45c-.09.2-.2.39-.36.57a30.3 30.3 0 0 0-1.48-.62h.03v-.02c-.58-.34-.96-.54-1.25-1.04a3 3 0 0 0 .7.6l-.63-.6a.12.12 0 0 1-.03-.06v-.06c.14-.25.3-.48.48-.7a13 13 0 0 1 1.04-1.01Z" fill="#BEE8F4"/><path d="M17.48 31.53c-.1.5-.34.87-.72 1.07-.06-.02-.1.04-.12.18-.28-.41-.5-.85-.66-1.32l1.18-.68c.06-.03.1-.02.11.05l.2.7Z" fill="#3542B6"/><path d="M31.27 31.29c.29.16.6.25.94.3l.5.04-.84.16-.56-.4c-.04-.02-.05-.06-.04-.1Z" fill="#C27628"/><path d="M17.92 31.47c0 .07 0 .12-.03.16-.22.3-.51.63-.89 1.02-.1.05-.19.03-.24-.05.38-.2.62-.56.72-1.07l.08.24c.01.03.03.03.05.01l.31-.31Z" fill="#2836B1"/><path d="m22.45 31.55.32.08c1.02.22 2.05.37 3.08.43.11.01.26.05.4.05.26 0 .59 0 .98.03.4.03.93.01 1.6-.04l.84-.04c.26 0 .54-.03.84-.07l1.36-.2.84-.16.57-.13c.08-.03.12 0 .12.07l-.03.32c0 .1 0 .21.02.33.03.15.04.34.04.55 0 .18.06.34.09.52.01.1 0 .18-.04.24l-.43.41-.68.52a7.3 7.3 0 0 1-6.8 1.3 8.96 8.96 0 0 1-2.3-1.15l-1.15-.98.15-1.17c.04-.27.02-.59-.05-.96l.23.05Z" fill="#1F160D"/><path d="m24.67 32.34-.21.74c-.09 0-.22 0-.4-.04-.09-.02-.16.03-.2.15-.09.23-.17.49-.26.78-.02.07-.05.07-.08 0-.22-.45-.4-.91-.53-1.38a.9.9 0 0 1-.04-.33.13.13 0 0 1 .04-.1.13.13 0 0 1 .1-.02l1.58.2ZM31.5 33.03l-.03-.74 1-.14c.1-.02.13.02.1.12-.14.64-.33 1.2-.56 1.65-.08.15-.12.14-.14-.02a1.46 1.46 0 0 0-.38-.87Z" fill="#D9CAB0"/><path d="m31.47 32.3.02.73-.7.08c-.23.03-.47.05-.72.06-.2 0-.4.02-.64.04l-.64.03h-2.03c-.52 0-.96-.08-1.45-.07-.25 0-.56-.08-.85-.09l.21-.74.39.03c.14 0 .26 0 .38.02.2.03.42.04.62.04l.63.01c.56.04 1.09.04 1.59.03l1.15-.05c.38 0 .68-.06 1.03-.06.3.01.66-.06 1-.07Z" fill="#F4EBDB"/><path d="M37.43 32.38c.1.16.16.3.16.45 0 .22-.04.46-.13.7-.26.75-.81 1.11-1.64 1.1-.63 0-1.07-.27-1.32-.79.23 0 .44-.02.64-.03a3.44 3.44 0 0 0 1.55-.54c.36-.22.6-.52.74-.9ZM18.17 32.57c.3.5.67.7 1.25 1.04v.01h-.03v.01l.02.02c.48.18.97.38 1.46.6-.2.17-.53.3-.96.4-.48.12-.8.1-1.19-.2-.27-.2-.47-.5-.58-.85-.12-.35-.1-.7.03-1.03Z" fill="#19C2F2"/><path d="M16.81 33.48v.65a.6.6 0 0 0-.21.39h-.1c0-.4.1-.74.31-1.04Z" fill="#00107D"/><path d="M27.92 33.49c.74 0 1.4.03 2 .11.2.03.56.13.73.3.32.34-.29.71-.54.83a5.1 5.1 0 0 1-1.36.37c-1.15.17-2.7.1-3.7-.56-.22-.14-.47-.45-.2-.68.24-.22.69-.28 1.04-.31a28.7 28.7 0 0 1 2.03-.06Z" fill="#2E251E"/><path d="M34.26 35.46a24.91 24.91 0 0 1-4.95 2.65c-.2.08-.42.14-.64.21a2.5 2.5 0 0 1-1.61.08c-.87-.26-1.71-.6-2.54-1.03a32.26 32.26 0 0 1-3.2-1.85c.36-.45.58-.87.65-1.24l.15-.65 1.15.98c.74.69 1.61 1.17 2.62 1.43l.56.15c.2.05.4.09.57.1.59.03 1.17.02 1.75-.03.33-.04.62-.15.93-.23a7.73 7.73 0 0 0 2.68-1.46c.33-.15.55-.36.67-.63l.44-.4c0-.02.01-.02.03-.01a.07.07 0 0 1 .04.05l.13.7c.11.36.3.75.57 1.18Z" fill="#E19624"/><path d="M40.34 35.3c.3-.54.57-1.1.8-1.68-.01.17-.03.3-.06.37-.17.5-.41.94-.74 1.32Z" fill="#4853BC"/><path d="M21.02 35.8a1.4 1.4 0 0 1-.45.32l-.56.27c-.38.1-.65.13-.79.11a4.89 4.89 0 0 1-.65-.12 2.95 2.95 0 0 1-.63-.3 2.88 2.88 0 0 1-1.07-1.51.9.9 0 0 0-.07-.44l.02-.02c.1-.03.17 0 .22.08.26.4.48.81.77 1.07.32.28.64.47.97.56.69.2 1.38.17 2.08-.08.04-.01.1 0 .16.06Z" fill="#19C2F2"/><path d="M33.05 33.94c-.12.27-.34.48-.67.62.03-.01.03-.05-.01-.1l.68-.52Z" fill="#CCD652"/><path d="M16.8 34.13c.07.2.1.34.07.44-.12.37-.02.84.3 1.4l.54.63a2.7 2.7 0 0 1-1.11-2.08.6.6 0 0 1 .2-.4Z" fill="#001067"/><path d="M38.54 35.12c-.04.1-.1.2-.17.3a2.55 2.55 0 0 1-2.1 1.07c-.26 0-.5-.08-.76-.15l-.44-.22a.55.55 0 0 1 .38-.18l.92-.03c.7-.02 1.28-.32 1.71-.88a12.04 12.04 0 0 0 .46-.63.1.1 0 0 1 .13.04l.02.04v.1l-.15.54Z" fill="#19C2F2"/><path d="M32.37 34.46c.04.05.04.09 0 .1a7.74 7.74 0 0 1-2.67 1.47c-.31.08-.6.2-.93.23-.58.05-1.16.06-1.75.03a3.03 3.03 0 0 1-.57-.1l-.56-.15c-1-.26-1.88-.74-2.62-1.43.73.5 1.5.89 2.3 1.15a7.3 7.3 0 0 0 6.8-1.3Z" fill="#FEEF74"/><path d="M38.64 34.97c.17.43.07.8-.3 1.14-.5.46-1.31.95-2.02.87-.13-.02-.34-.1-.64-.23a4.89 4.89 0 0 0-.78-.3l.61-.1c.25.06.5.14.75.14.87 0 1.58-.36 2.11-1.07.07-.1.13-.2.17-.3l.1-.15Z" fill="#000F47"/><path d="M34.49 35.67a9.78 9.78 0 0 0-1.4.72h.02l.65-.25a6.99 6.99 0 0 0-1.17.7l.02.01h.02l1.3-.72c-.01.1.01.16.08.2a61.41 61.41 0 0 0 .63.24v.03c0 .02-.01.02-.03.02a1.5 1.5 0 0 0-1.33.03c-.3.14-.68.36-1.16.67-.57.37-1.25.7-2.03.98-.25.09-.38.24-.39.47 0 .03-.01.05-.03.07-.09.1-.17.15-.24.16-.34.02-.7.06-1.1.12h-.78a3.12 3.12 0 0 1-1.55-.49 8.32 8.32 0 0 0-1.26-.65 9.2 9.2 0 0 1-.68-.38c-.6-.37-1.24-.66-1.8-1.01a.95.95 0 0 0-.81-.11c-.22.07-.37.15-.64.02-.06-.11-.08-.2-.05-.3.04-.12.14-.26.3-.4l.26-.28c.82.56 1.89 1.17 3.2 1.85.83.43 1.67.77 2.54 1.03a2.5 2.5 0 0 0 1.61-.08l.64-.2a24.92 24.92 0 0 0 4.95-2.66c.05.02.12.09.23.21Z" fill="#040827"/><path d="M21.05 35.8a1.1 1.1 0 0 0-.3.4c-.02.1 0 .19.06.3a.52.52 0 0 1-.24-.38c.17-.07.32-.18.45-.32h.03ZM17.94 36.08c.25.15.46.25.63.3.12.04.34.08.65.12.14.02.4-.02.79-.11.04.17-.1.3-.4.37-.38.1-.78.1-1.2.02-.38-.22-.77-.4-1.05-.74-.02-.02-.01-.03.01-.04.2-.04.38-.01.57.08Z" fill="#000F47"/><path d="M18.4 36.78c.43.09.83.08 1.2-.02.31-.08.45-.2.4-.37l.57-.27c.02.17.1.29.24.38l.23.26c-.33 0-.64.09-.94.27-.25.1-.49.2-.7.34-.32.2-.39.46-.19.77.16.25.34.45.52.6a12.51 12.51 0 0 0 7.77 2.78 12.89 12.89 0 0 0 8.87-3.13c.23-.2.49-.5.77-.93.11-.01.21 0 .3.02a.15.15 0 0 1 .12.16c-.03.3-.4.67-.6.86a12.57 12.57 0 0 1-7.83 3.5c-1.63.1-3.12 0-4.48-.3-.36-.07-.9-.25-1.65-.53-1.29-.5-2.5-1.25-3.6-2.03-.4-.3-.81-.67-1.22-1.12-.2-.23-.56-.81-.22-1.09a.04.04 0 0 0 .02-.03.05.05 0 0 0-.02-.03l-.25-.27-.54-.62c.3.4.72.66 1.23.8Z" fill="#011095"/><path d="m33.94 36.13-1.3.73h-.03l-.02-.03c.37-.27.76-.5 1.17-.7h.18Z" fill="#000F47"/><path d="M34.76 36.56c.76.36 1.56.67 2.38.9-.28.43-.54.74-.77.93a12.89 12.89 0 0 1-8.87 3.14c-2.9-.05-5.48-.98-7.77-2.8a2.4 2.4 0 0 1-.52-.6c-.2-.3-.14-.56.18-.76.22-.13.46-.25.7-.34-.3.35-.56.75-.22 1.17.16.2.33.36.54.5a12.6 12.6 0 0 0 5.97 2.3c1.35.14 2.67.1 3.95-.15a11.8 11.8 0 0 0 4.7-2c.3-.22.68-.52.82-.88.14-.32-.11-.53-.38-.68l-.98-.5.27-.23Z" fill="#0B1AA3"/><path d="m21.04 36.76.34.26-.27-.13c-.03-.02-.05-.01-.06.02-.16.4-.17.77.17 1.1.23.23.51.43.84.6a11.64 11.64 0 0 0 11.65-.07c.29-.17.87-.58.96-.96.08-.3-.23-.46-.46-.58l.28-.2c.33.15.66.32.98.5.27.14.52.35.38.67-.14.36-.52.66-.83.87a11.8 11.8 0 0 1-4.69 2.01c-1.28.24-2.6.3-3.95.15a12.6 12.6 0 0 1-5.97-2.3c-.2-.14-.38-.3-.54-.5-.34-.42-.09-.82.23-1.17.3-.18.61-.27.94-.27Z" fill="#2836B1"/><path d="m32.54 36.86-.74.38a.02.02 0 1 0 .02.05l.74-.39c.01 0 .02-.01.01-.02v-.01a.02.02 0 0 0-.03-.01Z" fill="#000F47"/><path d="M21.38 37.02a12.3 12.3 0 0 0 2.78 1.5c.24.08.46.18.71.25.63.15 1.05.24 1.28.28.28.05.6.03.9.08a13.43 13.43 0 0 0 2.25-.06c1.77-.26 3.41-.95 4.91-2.07.23.12.54.28.46.58-.09.38-.67.8-.96.96-3.6 2.15-8 2.1-11.65.08-.33-.18-.6-.38-.84-.61-.34-.33-.33-.7-.17-1.1 0-.03.03-.04.05-.02l.28.13Z" fill="#4853BC"/></svg>