<?xml version="1.0" encoding="UTF-8"?>
<svg version="1.1" xmlns="http://www.w3.org/2000/svg" width="64" height="64">
<path d="M0 0 C21.12 0 42.24 0 64 0 C64 21.12 64 42.24 64 64 C42.88 64 21.76 64 0 64 C0 42.88 0 21.76 0 0 Z " fill="#EA8A0D" transform="translate(0,0)"/>
<path d="M0 0 C0.804375 0.37125 1.60875 0.7425 2.4375 1.125 C6.55565416 2.13647646 8.69107624 1.50698749 12.68359375 0.453125 C16.86547028 -0.36491493 21.1603779 0.08018895 25 2 C25.5775 1.690625 26.155 1.38125 26.75 1.0625 C29.60616511 -0.28624463 31.87975041 -0.14182953 35 0 C34.97679687 0.74765625 34.95359375 1.4953125 34.9296875 2.265625 C34.91164062 3.25046875 34.89359375 4.2353125 34.875 5.25 C34.85179687 6.22453125 34.82859375 7.1990625 34.8046875 8.203125 C35.00624045 11.08936326 35.69248829 12.48089442 37 15 C37.57706301 19.60900975 37.5589415 23.72241943 35.6875 28 C33.45441675 30.64661718 31.74746498 31.88533822 28.30078125 32.4140625 C26.82158203 32.51847656 26.82158203 32.51847656 25.3125 32.625 C24.31863281 32.69976562 23.32476562 32.77453125 22.30078125 32.8515625 C21.54152344 32.90054688 20.78226563 32.94953125 20 33 C19.91878076 34.60332791 19.86070866 36.20784026 19.8125 37.8125 C19.77769531 38.70582031 19.74289063 39.59914062 19.70703125 40.51953125 C19.74916396 43.07412766 19.74916396 43.07412766 21.57421875 44.57421875 C22.04472656 45.04472656 22.51523437 45.51523437 23 46 C22.67 47.32 22.34 48.64 22 50 C11.77 50 1.54 50 -9 50 C-8.01 48.35 -7.02 46.7 -6 45 C-5.505 44.01 -5.01 43.02 -4.5 42 C-0.66666667 34.33333333 -0.66666667 34.33333333 2 33 C2.36548445 31.67511887 2.6937566 30.33981486 3 29 C3.64794837 27.65747062 4.31234325 26.32263011 5 25 C4.07767578 24.96132813 4.07767578 24.96132813 3.13671875 24.921875 C-3.43710021 24.46055437 -3.43710021 24.46055437 -6.0625 22.3125 C-7.28389671 19.29972145 -7.40323941 17.22591528 -7 14 C-6.02727325 12.64664105 -5.0260734 11.31337396 -4 10 C-3.27954633 6.84881675 -3.27954633 6.84881675 -3 4 C-2.34 4 -1.68 4 -1 4 C-0.67 2.68 -0.34 1.36 0 0 Z " fill="#3B5F28" transform="translate(18,14)"/>
<path d="M0 0 C0.804375 0.37125 1.60875 0.7425 2.4375 1.125 C6.55565416 2.13647646 8.69107624 1.50698749 12.68359375 0.453125 C16.86547028 -0.36491493 21.1603779 0.08018895 25 2 C25.5775 1.690625 26.155 1.38125 26.75 1.0625 C29.60616511 -0.28624463 31.87975041 -0.14182953 35 0 C34.97679687 0.74765625 34.95359375 1.4953125 34.9296875 2.265625 C34.91164062 3.25046875 34.89359375 4.2353125 34.875 5.25 C34.85179687 6.22453125 34.82859375 7.1990625 34.8046875 8.203125 C35.00624045 11.08936326 35.69248829 12.48089442 37 15 C37.57706301 19.60900975 37.5589415 23.72241943 35.6875 28 C32.85640692 31.35536957 30.54279708 32.25714808 26.3125 32.625 C25.50425781 32.69976562 24.69601563 32.77453125 23.86328125 32.8515625 C23.24839844 32.90054688 22.63351563 32.94953125 22 33 C24.54340474 24.55806088 24.54340474 24.55806088 26.6875 21.9375 C28.82044578 18.78886576 28.18661418 15.73228355 28 12 C24.6210018 10.99841931 21.43723472 10.80421884 17.921875 10.68359375 C16.76171875 10.64169922 15.6015625 10.59980469 14.40625 10.55664062 C13.1996875 10.51732422 11.993125 10.47800781 10.75 10.4375 C9.52796875 10.39431641 8.3059375 10.35113281 7.046875 10.30664062 C4.0313608 10.20062645 1.01576552 10.09856064 -2 10 C-1.85950482 8.52031676 -1.71245174 7.04125484 -1.5625 5.5625 C-1.48128906 4.73878906 -1.40007813 3.91507813 -1.31640625 3.06640625 C-1 1 -1 1 0 0 Z " fill="#FDFDFD" transform="translate(18,14)"/>
<path d="M0 0 C0.66 0.33 1.32 0.66 2 1 C3.54023996 1.06950541 5.08334988 1.08452357 6.625 1.0625 C7.44226563 1.05347656 8.25953125 1.04445312 9.1015625 1.03515625 C9.72804688 1.02355469 10.35453125 1.01195312 11 1 C12.39195915 5.17587745 10.82323219 7.13474776 9 11 C8.34 11 7.68 11 7 11 C6.91878076 12.60332791 6.86070866 14.20784026 6.8125 15.8125 C6.77769531 16.70582031 6.74289063 17.59914063 6.70703125 18.51953125 C6.74916396 21.07412766 6.74916396 21.07412766 8.57421875 22.57421875 C9.04472656 23.04472656 9.51523437 23.51523437 10 24 C9.67 25.32 9.34 26.64 9 28 C1.74 28 -5.52 28 -13 28 C-11.00494424 22.01483271 -9.46928713 17.60642639 -6.5 12.3125 C-4.23727478 8.24852642 -2.05285832 4.17456249 0 0 Z " fill="#BB78F7" transform="translate(31,36)"/>
<path d="M0 0 C0.33 0.66 0.66 1.32 1 2 C4.3 2 7.6 2 11 2 C9.87987208 4.29416573 8.75417159 6.58529094 7.625 8.875 C7.30789062 9.52597656 6.99078125 10.17695312 6.6640625 10.84765625 C5.31109879 13.58177041 4.17227482 15.82772518 2 18 C1.71125 18.763125 1.4225 19.52625 1.125 20.3125 C-0.25094897 23.59948922 -1.32646092 25.60067006 -4 28 C-7.04445555 28.42065016 -9.94745271 28.29351416 -13 28 C-14.03258817 14.38513379 -14.03258817 14.38513379 -10.375 9.375 C-7.59022992 6.2793411 -4.54729207 4.14487427 -1 2 C-0.67 1.34 -0.34 0.68 0 0 Z " fill="#F2AF21" transform="translate(13,36)"/>
<path d="M0 0 C0 0.66 0 1.32 0 2 C0.66 2.33 1.32 2.66 2 3 C1.01 3 0.02 3 -1 3 C-0.90460937 3.91523437 -0.80921875 4.83046875 -0.7109375 5.7734375 C-0.60007812 6.96195313 -0.48921875 8.15046875 -0.375 9.375 C-0.25898437 10.55835938 -0.14296875 11.74171875 -0.0234375 12.9609375 C-0.01570313 13.96382812 -0.00796875 14.96671875 0 16 C-2 18 -2 18 -4.1640625 18.1953125 C-4.97617187 18.17210938 -5.78828125 18.14890625 -6.625 18.125 C-7.44226562 18.10695313 -8.25953125 18.08890625 -9.1015625 18.0703125 C-9.72804688 18.04710938 -10.35453125 18.02390625 -11 18 C-11.185625 17.1028125 -11.185625 17.1028125 -11.375 16.1875 C-11.95475985 13.73768652 -11.95475985 13.73768652 -14 11 C-14.19850603 7.29455413 -14.17664871 4.52994613 -13 1 C-11.20994059 0.63779734 -9.41787943 0.28547531 -7.625 -0.0625 C-6.12839844 -0.35833984 -6.12839844 -0.35833984 -4.6015625 -0.66015625 C-2 -1 -2 -1 0 0 Z " fill="#A96917" transform="translate(51,46)"/>
<path d="M0 0 C1.125 1.625 1.125 1.625 2 4 C0.66160285 9.26698643 -1.91212946 13.82909461 -4.5 18.5625 C-8.08737483 25.12154874 -8.08737483 25.12154874 -11 32 C-13.97 32 -16.94 32 -20 32 C-19.566875 31.29875 -19.13375 30.5975 -18.6875 29.875 C-17.55968608 27.95353924 -16.49639106 25.99278211 -15.5 24 C-11.66666667 16.33333333 -11.66666667 16.33333333 -9 15 C-8.87625 14.443125 -8.7525 13.88625 -8.625 13.3125 C-7.39249571 8.75223413 -4.36881733 5.20839746 -1 2 C-0.67 1.34 -0.34 0.68 0 0 Z " fill="#5BD62A" transform="translate(29,32)"/>
<path d="M0 0 C0.77601562 0.15339844 1.55203125 0.30679687 2.3515625 0.46484375 C7.02199468 1.14990714 11.66255085 1.35746477 16.375 1.5625 C17.30183594 1.60568359 18.22867188 1.64886719 19.18359375 1.69335938 C21.45560294 1.79876186 23.72770925 1.90088606 26 2 C26 4.31 26 6.62 26 9 C25.01 9 24.02 9 23 9 C23 9.66 23 10.32 23 11 C21.35 11 19.7 11 18 11 C18 9.68 18 8.36 18 7 C17.34 7 16.68 7 16 7 C16 6.34 16 5.68 16 5 C14.02 5 12.04 5 10 5 C9.67 6.32 9.34 7.64 9 9 C6.03 9 3.06 9 0 9 C-0.66 7.68 -1.32 6.36 -2 5 C-1.125 2.8125 -1.125 2.8125 0 1 C0 0.67 0 0.34 0 0 Z " fill="#F48F4E" transform="translate(16,25)"/>
<path d="M0 0 C1.98 0.66 3.96 1.32 6 2 C4.75124037 4.66725358 3.50102473 7.33380899 2.25 10 C1.72792969 11.11568359 1.72792969 11.11568359 1.1953125 12.25390625 C-5.48898566 26.48898566 -5.48898566 26.48898566 -7 28 C-8.99958364 28.04080783 -11.00045254 28.04254356 -13 28 C-11.0343461 21.17802471 -8.1705289 15.31285783 -4.71875 9.11328125 C-3.06195516 6.11222332 -1.51255388 3.07583365 0 0 Z " fill="#5D9EB6" transform="translate(31,36)"/>
<path d="M0 0 C3.125 -0.1875 3.125 -0.1875 6 0 C5.10933347 6.05653241 2.53649572 11.83132826 -2 16 C-4.7998771 16.4245495 -7.14436042 16.23796996 -10 16 C-8.87548273 13.0280615 -7.77706209 10.66559313 -6 8 C-5.34 8 -4.68 8 -4 8 C-3.566875 6.8553125 -3.566875 6.8553125 -3.125 5.6875 C-2 3 -2 3 0 0 Z " fill="#E6D918" transform="translate(11,48)"/>
<path d="M0 0 C0.268125 0.598125 0.53625 1.19625 0.8125 1.8125 C1.8694745 4.05510787 1.8694745 4.05510787 3.6875 5.5 C4.120625 5.995 4.55375 6.49 5 7 C4.67 8.32 4.34 9.64 4 11 C-1.28 11 -6.56 11 -12 11 C-10.68 8.03 -9.36 5.06 -8 2 C-5.03 2.495 -5.03 2.495 -2 3 C-1.34 2.01 -0.68 1.02 0 0 Z " fill="#9A49B6" transform="translate(36,53)"/>
<path d="M0 0 C2.09749995 2.35968744 2.96905704 3.54616994 3.1875 6.75 C3.125625 7.4925 3.06375 8.235 3 9 C2.01 9 1.02 9 0 9 C-3.5806548 10.30205629 -4.41983053 11.64213987 -6 15 C-7.29470975 16.37086915 -8.62150897 17.71340837 -10 19 C-10.68646848 14.34726917 -11.1029754 10.55373476 -8.2890625 6.58984375 C-5.70620486 4.0209727 -3.27480235 1.63740118 0 0 Z " fill="#F86834" transform="translate(10,31)"/>
<path d="M0 0 C3.93736123 -0.08696177 7.87447628 -0.14037835 11.8125 -0.1875 C13.49182617 -0.22520508 13.49182617 -0.22520508 15.20507812 -0.26367188 C16.27822266 -0.27333984 17.35136719 -0.28300781 18.45703125 -0.29296875 C19.9416687 -0.31653442 19.9416687 -0.31653442 21.45629883 -0.34057617 C24 0 24 0 25.82299805 1.3347168 C27.6615807 3.93603857 27.37907118 5.90425205 27 9 C25.625 11.375 25.625 11.375 24 13 C23.34 13 22.68 13 22 13 C22 12.34 22 11.68 22 11 C21.01 11 20.02 11 19 11 C19 10.34 19 9.68 19 9 C19.99 9 20.98 9 22 9 C22 6.69 22 4.38 22 2 C21.10692139 2.01571045 21.10692139 2.01571045 20.19580078 2.03173828 C17.50557657 2.07323949 14.81541963 2.09930704 12.125 2.125 C10.71927734 2.15013672 10.71927734 2.15013672 9.28515625 2.17578125 C7.94130859 2.18544922 7.94130859 2.18544922 6.5703125 2.1953125 C5.74289551 2.20578613 4.91547852 2.21625977 4.06298828 2.22705078 C2 2 2 2 0 0 Z " fill="#665B48" transform="translate(20,25)"/>
<path d="M0 0 C1.98 0.66 3.96 1.32 6 2 C4.02 6.29 2.04 10.58 0 15 C-2.475 14.01 -2.475 14.01 -5 13 C-4.39254603 8.14036821 -2.27241033 4.2594482 0 0 Z " fill="#6CBAF9" transform="translate(31,36)"/>
<path d="M0 0 C0.33 0 0.66 0 1 0 C1 1.98 1 3.96 1 6 C9.58 6 18.16 6 27 6 C27 6.33 27 6.66 27 7 C14.625 7.495 14.625 7.495 2 8 C-0.49780387 13.41109477 -0.49780387 13.41109477 0.875 16.375 C1.24625 16.91125 1.6175 17.4475 2 18 C-2.875 17.125 -2.875 17.125 -4 16 C-4.41306346 11.35303604 -3.80311433 9.58798634 -1 6 C-0.27954633 2.84881675 -0.27954633 2.84881675 0 0 Z " fill="#422C30" transform="translate(15,18)"/>
<path d="M0 0 C1.125 1.625 1.125 1.625 2 4 C1.02545943 8.58034067 -0.92699566 11.51726175 -4 15 C-5.65 14.67 -7.3 14.34 -9 14 C-7.31166085 9.07567747 -4.6564355 5.6564355 -1 2 C-0.67 1.34 -0.34 0.68 0 0 Z " fill="#63F876" transform="translate(29,32)"/>
<path d="M0 0 C0.66 0 1.32 0 2 0 C3.75357726 5.26073179 3.92263539 10.89111911 1.6875 16 C-1.14359308 19.35536957 -3.45720292 20.25714808 -7.6875 20.625 C-8.49574219 20.69976562 -9.30398437 20.77453125 -10.13671875 20.8515625 C-11.05904297 20.92503906 -11.05904297 20.92503906 -12 21 C-12 20.34 -12 19.68 -12 19 C-5.375 16 -5.375 16 -2 16 C-0.24836544 12.22777911 0.22490027 9.333361 0.125 5.1875 C0.10695313 4.21167969 0.08890625 3.23585938 0.0703125 2.23046875 C0.04710937 1.49441406 0.02390625 0.75835938 0 0 Z " fill="#E7E6E5" transform="translate(52,26)"/>
<path d="M0 0 C1.2065625 0.0309375 1.2065625 0.0309375 2.4375 0.0625 C2.4375 0.7225 2.4375 1.3825 2.4375 2.0625 C1.7775 2.0625 1.1175 2.0625 0.4375 2.0625 C0.355 2.949375 0.2725 3.83625 0.1875 4.75 C-0.6559086 8.47505464 -2.01802764 10.27178838 -4.5625 13.0625 C-5.2225 12.4025 -5.8825 11.7425 -6.5625 11.0625 C-7.2225 10.7325 -7.8825 10.4025 -8.5625 10.0625 C-8.5625 8.7425 -8.5625 7.4225 -8.5625 6.0625 C-6.9125 5.4025 -5.2625 4.7425 -3.5625 4.0625 C-3.5625 3.0725 -3.5625 2.0825 -3.5625 1.0625 C-2.5625 0.0625 -2.5625 0.0625 0 0 Z " fill="#A458D5" transform="translate(37.5625,44.9375)"/>
<path d="M0 0 C0.33 0.66 0.66 1.32 1 2 C0.00390625 4.1640625 0.00390625 4.1640625 -1.4375 6.625 C-1.91058594 7.44226562 -2.38367188 8.25953125 -2.87109375 9.1015625 C-3.24363281 9.72804688 -3.61617187 10.35453125 -4 11 C-4.33 10.34 -4.66 9.68 -5 9 C-7.02463255 8.34786708 -7.02463255 8.34786708 -9 8 C-8.40138258 5.64828869 -7.73075648 3.3140622 -7 1 C-4.53721199 -0.231394 -2.7204945 -0.07159196 0 0 Z " fill="#41CD36" transform="translate(25,46)"/>
<path d="M0 0 C0.268125 0.598125 0.53625 1.19625 0.8125 1.8125 C1.8694745 4.05510787 1.8694745 4.05510787 3.6875 5.5 C4.120625 5.995 4.55375 6.49 5 7 C4.67 8.32 4.34 9.64 4 11 C1.03 11 -1.94 11 -5 11 C-3.55049545 7.2089881 -1.84827434 3.6125362 0 0 Z " fill="#E1C8A8" transform="translate(36,53)"/>
<path d="M0 0 C0 0.66 0 1.32 0 2 C0.66 2.33 1.32 2.66 2 3 C1.01 3 0.02 3 -1 3 C-1.33 3.99 -1.66 4.98 -2 6 C-2.99 6 -3.98 6 -5 6 C-5.66 7.32 -6.32 8.64 -7 10 C-8.32 9.67 -9.64 9.34 -11 9 C-10.67 8.01 -10.34 7.02 -10 6 C-9.34 6 -8.68 6 -8 6 C-6.36323743 4.0399719 -6.36323743 4.0399719 -5 2 C-6.32 2.33 -7.64 2.66 -9 3 C-7 0 -7 0 -4.5 -0.75 C-2 -1 -2 -1 0 0 Z " fill="#5E3A13" transform="translate(51,46)"/>
<path d="M0 0 C0.33 0.66 0.66 1.32 1 2 C4.3 2 7.6 2 11 2 C9.6875 4.9375 9.6875 4.9375 8 8 C7.01 8.33 6.02 8.66 5 9 C2.5 6.75 2.5 6.75 0 4 C0 2.68 0 1.36 0 0 Z " fill="#EEEC69" transform="translate(13,36)"/>
<path d="M0 0 C1.98 0 3.96 0 6 0 C6 2.31 6 4.62 6 7 C5.01 7 4.02 7 3 7 C3 7.66 3 8.32 3 9 C1.35 9 -0.3 9 -2 9 C-2 8.34 -2 7.68 -2 7 C-1.34 7 -0.68 7 0 7 C0 5.68 0 4.36 0 3 C0.66 3 1.32 3 2 3 C2 2.34 2 1.68 2 1 C1.34 0.67 0.68 0.34 0 0 Z " fill="#75D638" transform="translate(36,27)"/>
<path d="M0 0 C1.65 0 3.3 0 5 0 C5 0.66 5 1.32 5 2 C5.66 2 6.32 2 7 2 C7 3.32 7 4.64 7 6 C9.64 6 12.28 6 15 6 C13 8 13 8 9.625 8.375 C5.45670704 7.94379728 4.61935691 7.104423 2 4 C1.34 4 0.68 4 0 4 C0 2.68 0 1.36 0 0 Z " fill="#47802E" transform="translate(27,30)"/>
<path d="M0 0 C0.99 0 1.98 0 3 0 C3 2.97 3 5.94 3 9 C1.02 9 -0.96 9 -3 9 C-3 6.69 -3 4.38 -3 2 C-2.34 2 -1.68 2 -1 2 C-0.67 1.34 -0.34 0.68 0 0 Z " fill="#DFB351" transform="translate(46,52)"/>
<path d="M0 0 C1.98 0 3.96 0 6 0 C5.01 0.495 5.01 0.495 4 1 C4.33 2.98 4.66 4.96 5 7 C1 7 1 7 -2 5 C-1.34 3.35 -0.68 1.7 0 0 Z " fill="#F8CDCE" transform="translate(47,14)"/>
<path d="M0 0 C0.99 0.33 1.98 0.66 3 1 C3.33 3.31 3.66 5.62 4 8 C2.02 8.99 2.02 8.99 0 10 C0 9.34 0 8.68 0 8 C-0.99 8 -1.98 8 -3 8 C-3 7.34 -3 6.68 -3 6 C-2.01 6 -1.02 6 0 6 C0 4.02 0 2.04 0 0 Z " fill="#6F459A" transform="translate(42,28)"/>
<path d="M0 0 C2.97 0.495 2.97 0.495 6 1 C5.690625 1.5775 5.38125 2.155 5.0625 2.75 C4.07416636 4.84294184 3.4831387 6.74535275 3 9 C1.68 8.67 0.36 8.34 -1 8 C-1 4.88742431 -0.82638376 2.89234315 0 0 Z " fill="#8BAED2" transform="translate(16,25)"/>
<path d="M0 0 C1.98 0 3.96 0 6 0 C5.67 2.31 5.34 4.62 5 7 C3.35 7 1.7 7 0 7 C0 4.69 0 2.38 0 0 Z " fill="#EAE74A" transform="translate(19,27)"/>
<path d="M0 0 C0.66 0.66 1.32 1.32 2 2 C0.35 5.3 -1.3 8.6 -3 12 C-3.99 12 -4.98 12 -6 12 C-3.20930233 2.13953488 -3.20930233 2.13953488 0 0 Z " fill="#65A7E4" transform="translate(28,51)"/>
<path d="M0 0 C0 0.99 0 1.98 0 3 C-3.03525486 5.02350324 -4.19426202 5.32124018 -7.6875 5.625 C-8.49574219 5.69976562 -9.30398437 5.77453125 -10.13671875 5.8515625 C-11.05904297 5.92503906 -11.05904297 5.92503906 -12 6 C-12 5.34 -12 4.68 -12 4 C-10.3767313 3.3291288 -8.75132422 2.66342971 -7.125 2 C-6.22007813 1.62875 -5.31515625 1.2575 -4.3828125 0.875 C-2 0 -2 0 0 0 Z " fill="#E0DFDF" transform="translate(52,41)"/>
<path d="M0 0 C0 0.33 0 0.66 0 1 C0.66 1 1.32 1 2 1 C1.34 2.32 0.68 3.64 0 5 C-1.98 4.34 -3.96 3.68 -6 3 C-6 2.01 -6 1.02 -6 0 C-3 -1 -3 -1 0 0 Z " fill="#E39B39" transform="translate(44,47)"/>
<path d="M0 0 C0 0.66 0 1.32 0 2 C0.66 2.33 1.32 2.66 2 3 C1.01 3 0.02 3 -1 3 C-1.33 3.66 -1.66 4.32 -2 5 C-2.66 4.34 -3.32 3.68 -4 3 C-6.58354218 2.83312552 -6.58354218 2.83312552 -9 3 C-7 0 -7 0 -4.5 -0.75 C-2 -1 -2 -1 0 0 Z " fill="#9D6016" transform="translate(51,46)"/>
<path d="M0 0 C1.32 0.99 2.64 1.98 4 3 C3.35546875 3.23460937 2.7109375 3.46921875 2.046875 3.7109375 C-0.2077908 4.81161073 -0.2077908 4.81161073 -0.609375 7.1640625 C-0.65578125 7.97617187 -0.7021875 8.78828125 -0.75 9.625 C-0.80671875 10.44226562 -0.8634375 11.25953125 -0.921875 12.1015625 C-0.94765625 12.72804688 -0.9734375 13.35453125 -1 14 C-1.33 14 -1.66 14 -2 14 C-2.05410687 12.22950311 -2.09284119 10.45853151 -2.125 8.6875 C-2.14820312 7.70136719 -2.17140625 6.71523438 -2.1953125 5.69921875 C-2 3 -2 3 0 0 Z " fill="#4486B9" transform="translate(25,48)"/>
<path d="M0 0 C1.98 0 3.96 0 6 0 C6 1.32 6 2.64 6 4 C4.35 4.33 2.7 4.66 1 5 C0.67 3.35 0.34 1.7 0 0 Z " fill="#ECF736" transform="translate(11,48)"/>
<path d="M0 0 C2.475 0.495 2.475 0.495 5 1 C5 1.66 5 2.32 5 3 C4.34 3 3.68 3 3 3 C3 4.32 3 5.64 3 7 C2.34 7 1.68 7 1 7 C0.67 4.69 0.34 2.38 0 0 Z " fill="#F4E778" transform="translate(33,27)"/>
<path d="M0 0 C1.32 0.66 2.64 1.32 4 2 C4 2.66 4 3.32 4 4 C2.37373596 5.38232443 0.7074998 6.71937515 -1 8 C-1.04241723 5.66705225 -1.04092937 3.33297433 -1 1 C-0.67 0.67 -0.34 0.34 0 0 Z " fill="#D8C4C5" transform="translate(18,14)"/>
<path d="M0 0 C0.99 0.33 1.98 0.66 3 1 C4.6875 4.5625 4.6875 4.5625 6 8 C1.125 7.125 1.125 7.125 0 6 C-0.04080783 4.00041636 -0.04254356 1.99954746 0 0 Z " fill="#4A1F33" transform="translate(11,28)"/>
<path d="M0 0 C1.9375 0.375 1.9375 0.375 4 1 C5.35439668 3.70879335 5.06501451 6.00933268 5 9 C4.34 8.67 3.68 8.34 3 8 C2.66666667 6.66666667 2.33333333 5.33333333 2 4 C1.34 3.67 0.68 3.34 0 3 C0 2.01 0 1.02 0 0 Z " fill="#30282E" transform="translate(42,25)"/>
<path d="M0 0 C0.0825 0.61875 0.165 1.2375 0.25 1.875 C0.81258459 4.18437567 0.81258459 4.18437567 3.0625 5.25 C3.701875 5.4975 4.34125 5.745 5 6 C4 7 4 7 0.4375 7.0625 C-0.696875 7.041875 -1.83125 7.02125 -3 7 C-2.01 4.69 -1.02 2.38 0 0 Z " fill="#B767E5" transform="translate(27,57)"/>
<path d="M0 0 C1.65 0 3.3 0 5 0 C5.33 0.99 5.66 1.98 6 3 C4.625 4.5 4.625 4.5 3 6 C2.34 6 1.68 6 1 6 C0.67 4.02 0.34 2.04 0 0 Z " fill="#CF7806" transform="translate(37,50)"/>
<path d="M0 0 C1.2375 0.185625 2.475 0.37125 3.75 0.5625 C6.76279577 0.94711223 9.10010827 1.0874594 12 0 C11.67 0.99 11.34 1.98 11 3 C7.37 3 3.74 3 0 3 C0 2.01 0 1.02 0 0 Z " fill="#948C39" transform="translate(14,35)"/>
<path d="M0 0 C0.99 0 1.98 0 3 0 C3 2.31 3 4.62 3 7 C2.01 7 1.02 7 0 7 C0 4.69 0 2.38 0 0 Z " fill="#58C9E6" transform="translate(39,27)"/>
<path d="M0 0 C0.99 0 1.98 0 3 0 C3 1.98 3 3.96 3 6 C1.68 5.67 0.36 5.34 -1 5 C-0.67 3.35 -0.34 1.7 0 0 Z " fill="#FEF679" transform="translate(46,55)"/>
<path d="M0 0 C0.33 0.66 0.66 1.32 1 2 C3.64 2 6.28 2 9 2 C7 4 7 4 3.375 4.125 C2.26125 4.08375 1.1475 4.0425 0 4 C0 2.68 0 1.36 0 0 Z " fill="#313F59" transform="translate(33,34)"/>
<path d="M0 0 C0.33 0 0.66 0 1 0 C1.33 3.3 1.66 6.6 2 10 C0.02 10.99 0.02 10.99 -2 12 C-2.66 11.34 -3.32 10.68 -4 10 C-3.01 9.67 -2.02 9.34 -1 9 C-0.67 6.03 -0.34 3.06 0 0 Z " fill="#78643E" transform="translate(49,52)"/>
<path d="M0 0 C0.99 0 1.98 0 3 0 C2.34 3.96 1.68 7.92 1 12 C0.67 12 0.34 12 0 12 C-0.19477739 10.37585622 -0.38059458 8.75063577 -0.5625 7.125 C-0.66691406 6.22007813 -0.77132812 5.31515625 -0.87890625 4.3828125 C-1 2 -1 2 0 0 Z " fill="#FBFBFA" transform="translate(50,49)"/>
<path d="M0 0 C0.99 0.33 1.98 0.66 3 1 C3 2.98 3 4.96 3 7 C2.01 7 1.02 7 0 7 C0 4.69 0 2.38 0 0 Z " fill="#6FFB3D" transform="translate(19,27)"/>
</svg>
