<?xml version="1.0" encoding="UTF-8"?>
<svg version="1.1" xmlns="http://www.w3.org/2000/svg" width="64" height="64">
<path d="M0 0 C0.99 0 1.98 0 3 0 C3.36351562 1.0415625 3.72703125 2.083125 4.1015625 3.15625 C6.6679157 10.48363682 9.26551851 17.79596951 12 25.0625 C12.24266602 25.70864258 12.48533203 26.35478516 12.73535156 27.02050781 C14.04339854 30.49312265 15.3694468 33.95813538 16.7109375 37.41796875 C16.989375 38.14298584 17.2678125 38.86800293 17.5546875 39.61499023 C18.08813785 41.00339004 18.62692021 42.38975694 19.171875 43.77368164 C20.4531007 47.12096989 21 49.35189815 21 53 C18.02211984 53.50893577 15.0430746 54.00730636 12.0625 54.5 C11.23169922 54.64308594 10.40089844 54.78617188 9.54492188 54.93359375 C-1.63301411 56.76033815 -8.96037643 55.75618704 -19.5625 51.5 C-20.66658203 51.07074219 -21.77066406 50.64148437 -22.90820312 50.19921875 C-25.61104634 49.14616295 -28.30767832 48.07960855 -31 47 C-30.19152223 43.29301225 -28.80541124 41.10436206 -26.5 38.0625 C-23.46209065 33.98672838 -20.50368113 29.87746648 -17.625 25.6875 C-13.93689536 20.32822295 -10.17889434 15.02480856 -6.36181641 9.7565918 C-4.55973723 7.2547652 -2.88809604 4.79693525 -1.3984375 2.09375 C-0.93695313 1.4028125 -0.47546875 0.711875 0 0 Z M-1 6 C0 8 0 8 0 8 Z M-2 10 C-1 13 -1 13 -1 13 Z M-3 13 C-4.17134222 16.62350621 -5.33627802 20.24903999 -6.5 23.875 C-6.83386719 24.90753906 -7.16773437 25.94007812 -7.51171875 27.00390625 C-7.82753906 27.99003906 -8.14335937 28.97617187 -8.46875 29.9921875 C-8.76201172 30.90339355 -9.05527344 31.81459961 -9.35742188 32.75341797 C-10.0916657 34.9310363 -10.0916657 34.9310363 -10 37 C-10.54527344 37.17015625 -11.09054688 37.3403125 -11.65234375 37.515625 C-17.28384978 39.32540814 -22.63939569 41.50345378 -28 44 C-23.12439838 45.62520054 -19.1629391 42.893103 -14.54296875 41.03125 C-9.98923696 39.70579775 -7.05621894 40.07092034 -2.76953125 42.0078125 C-1.45670886 42.75724804 -0.14421259 43.50725512 1.16796875 44.2578125 C3.17594624 45.30207217 3.17594624 45.30207217 6 44 C1.71 41.69 -2.58 39.38 -7 37 C-5.86569379 30.89219734 -4.50778638 25.1032267 -2.48828125 19.2265625 C-1.94359759 16.74280502 -2.3137478 15.40709353 -3 13 Z " fill="#1793CD" transform="translate(37,4)"/>
<path d="M0 0 C0.66 0.33 1.32 0.66 2 1 C2.4140625 3.72265625 2.4140625 3.72265625 2.625 7.0625 C2.69976562 8.16722656 2.77453125 9.27195312 2.8515625 10.41015625 C2.90054687 11.26480469 2.94953125 12.11945312 3 13 C1.02 13.99 1.02 13.99 -1 15 C-0.41992188 14.77183594 0.16015625 14.54367188 0.7578125 14.30859375 C1.53898437 14.02113281 2.32015625 13.73367187 3.125 13.4375 C3.89070313 13.14746094 4.65640625 12.85742188 5.4453125 12.55859375 C11.93062985 11.14055035 17.51591465 14.38505208 23.25 17.0625 C24.85786894 17.80664821 26.46717822 18.54769469 28.078125 19.28515625 C28.78356445 19.61394775 29.48900391 19.94273926 30.21582031 20.28149414 C31.98863237 21.12451875 31.98863237 21.12451875 34 21 C34 21.66 34 22.32 34 23 C35.98 23.66 37.96 24.32 40 25 C40 25.33 40 25.66 40 26 C37.02211984 26.50893577 34.0430746 27.00730636 31.0625 27.5 C30.23169922 27.64308594 29.40089844 27.78617188 28.54492188 27.93359375 C17.36698589 29.76033815 10.03962357 28.75618704 -0.5625 24.5 C-1.66658203 24.07074219 -2.77066406 23.64148438 -3.90820312 23.19921875 C-6.61104634 22.14616295 -9.30767832 21.07960855 -12 20 C-11.16860333 16.09679504 -9.54415508 13.7570253 -7.125 10.5625 C-4.53915175 7.13219577 -2.14818901 3.72217655 0 0 Z " fill="#3A38CD" transform="translate(18,31)"/>
<path d="M0 0 C0.66 0 1.32 0 2 0 C2.68701108 7.09911447 1.43004102 12.80006941 -0.75 19.5 C-1.12825928 20.70245361 -1.12825928 20.70245361 -1.51416016 21.92919922 C-1.901604 23.06252686 -1.901604 23.06252686 -2.296875 24.21875 C-2.52729492 24.89873047 -2.75771484 25.57871094 -2.99511719 26.27929688 C-4.31778469 28.5441561 -5.56438409 29.10621697 -8 30 C-8.99 30 -9.98 30 -11 30 C-12.51805717 24.67754346 -13.3456727 19.79904709 -10.90185547 14.71582031 C-7.77932236 9.57844168 -4.24850896 4.27936794 0 0 Z " fill="#1A78D1" transform="translate(31,13)"/>
<path d="M0 0 C2.64920076 0.94976983 5.29411973 1.90927908 7.9375 2.875 C8.69224609 3.14441406 9.44699219 3.41382813 10.22460938 3.69140625 C15.88671875 5.7734375 15.88671875 5.7734375 17 8 C18.97888961 8.72693904 20.97954558 9.39816251 23 10 C23 10.33 23 10.66 23 11 C19.91747911 11.50509639 16.83386475 12.00317999 13.75 12.5 C12.87730469 12.64308594 12.00460938 12.78617188 11.10546875 12.93359375 C9.83896484 13.13662109 9.83896484 13.13662109 8.546875 13.34375 C7.77182617 13.46943359 6.99677734 13.59511719 6.19824219 13.72460938 C4 14 4 14 0 14 C0 9.38 0 4.76 0 0 Z " fill="#304BD9" transform="translate(35,46)"/>
<path d="M0 0 C0.66 0.33 1.32 0.66 2 1 C2.4140625 3.72265625 2.4140625 3.72265625 2.625 7.0625 C2.69976562 8.16722656 2.77453125 9.27195312 2.8515625 10.41015625 C2.90054687 11.26480469 2.94953125 12.11945312 3 13 C1.02 13.99 1.02 13.99 -1 15 C-0.34 15 0.32 15 1 15 C1 17.97 1 20.94 1 24 C-3.84659077 23.40895235 -7.60748167 22.02055843 -12 20 C-11.39345544 16.09422063 -9.48209031 13.67506798 -7.125 10.5625 C-4.53915175 7.13219577 -2.14818901 3.72217655 0 0 Z " fill="#471EB7" transform="translate(18,31)"/>
<path d="M0 0 C0.66 0.33 1.32 0.66 2 1 C2.4140625 3.72265625 2.4140625 3.72265625 2.625 7.0625 C2.69976562 8.16722656 2.77453125 9.27195312 2.8515625 10.41015625 C2.90054687 11.26480469 2.94953125 12.11945312 3 13 C0.09399739 14.25664978 -1.79604584 15 -5 15 C-5.875 12.5625 -5.875 12.5625 -6 9 C-4.29484528 5.77332262 -2.21776683 2.89273934 0 0 Z " fill="#3A36CD" transform="translate(18,31)"/>
<path d="M0 0 C0 4.29 0 8.58 0 13 C-1.65 12.67 -3.3 12.34 -5 12 C-5.08090971 10.37581255 -5.13914995 8.75048255 -5.1875 7.125 C-5.22230469 6.22007813 -5.25710937 5.31515625 -5.29296875 4.3828125 C-5.19628906 3.59648438 -5.09960938 2.81015625 -5 2 C-2 0 -2 0 0 0 Z " fill="#4129C1" transform="translate(24,44)"/>
<path d="M0 0 C0.99 0.33 1.98 0.66 3 1 C2.54965877 2.62723299 2.08944646 4.25173664 1.625 5.875 C1.36976562 6.77992187 1.11453125 7.68484375 0.8515625 8.6171875 C0 11 0 11 -2 13 C-2.66 13.99 -3.32 14.98 -4 16 C-5.56659619 9.25158562 -5.56659619 9.25158562 -3.953125 5.6875 C-2.70581148 3.72543379 -1.41655623 1.84299357 0 0 Z M-1 6 C0 8 0 8 0 8 Z " fill="#39BED5" transform="translate(37,4)"/>
<path d="M0 0 C0.66 0 1.32 0 2 0 C2 1.65 2 3.3 2 5 C1.01 5.495 1.01 5.495 0 6 C0.66 7.65 1.32 9.3 2 11 C-0.31 10.34 -2.62 9.68 -5 9 C-4.42676569 5.13066838 -2.61046448 2.84777943 0 0 Z " fill="#4F0DA8" transform="translate(11,42)"/>
<path d="M0 0 C1.32 0 2.64 0 4 0 C4 0.66 4 1.32 4 2 C5.98 2.66 7.96 3.32 10 4 C10 4.33 10 4.66 10 5 C6.7 5.33 3.4 5.66 0 6 C0 4.02 0 2.04 0 0 Z " fill="#235DDB" transform="translate(48,52)"/>
<path d="M0 0 C0 2.31 0 4.62 0 7 C-0.99 7 -1.98 7 -3 7 C-3.33 5.02 -3.66 3.04 -4 1 C-2 0 -2 0 0 0 Z " fill="#4B16B0" transform="translate(16,47)"/>
</svg>
