<?xml version="1.0" encoding="UTF-8"?>
<svg version="1.1" xmlns="http://www.w3.org/2000/svg" width="200" height="200">
<path d="M0 0 C66 0 132 0 200 0 C200 66 200 132 200 200 C134 200 68 200 0 200 C0 134 0 68 0 0 Z " fill="#FEFEFE" transform="translate(0,0)"/>
<path d="M0 0 C0.66 0 1.32 0 2 0 C2.40726318 0.70906494 2.81452637 1.41812988 3.23413086 2.14868164 C4.79305909 4.86124754 6.35328684 7.57306112 7.91430664 10.28442383 C8.90281056 12.00221768 9.88990755 13.7208209 10.87695312 15.43945312 C11.52470703 16.56416016 12.17246094 17.68886719 12.83984375 18.84765625 C13.16826767 19.43503067 13.49669159 20.02240509 13.83506775 20.62757874 C15.55874753 23.67540953 17.34694931 26.51888185 19.49243164 29.28881836 C28.21676839 41.02908549 27.02925964 53.34370747 26.5625 67.4375 C26.51726697 69.82609573 26.47621807 72.21477455 26.43945312 74.60351562 C26.34118114 80.40418336 26.19134364 86.20169461 26 92 C25.32394211 91.85993027 24.64788422 91.71986053 23.95133972 91.57554626 C23.05885025 91.39326981 22.16636078 91.21099335 21.24682617 91.02319336 C20.36451828 90.84187363 19.48221039 90.66055389 18.57316589 90.47373962 C4.77101479 87.93265749 -7.60741302 90.79315328 -19.72485352 97.59887695 C-20.52770279 98.04866409 -21.33055206 98.49845123 -22.1577301 98.96186829 C-23.0696537 99.47574348 -23.0696537 99.47574348 -24 100 C-24.23422665 92.60167765 -24.41062436 85.20418458 -24.51812172 77.80287266 C-24.56978325 74.36389069 -24.63952843 70.92748765 -24.75439453 67.48999023 C-25.27860964 51.36539105 -25.39243575 38.83868936 -15.29803467 25.74661255 C-13.25933548 23.00337488 -11.68419782 20.08145869 -10.03125 17.08984375 C-9.44085938 16.06181641 -8.85046875 15.03378906 -8.2421875 13.97460938 C-7.04432687 11.88641063 -5.85191586 9.79507934 -4.6640625 7.70117188 C-4.08398438 6.69505859 -3.50390625 5.68894531 -2.90625 4.65234375 C-2.13764648 3.30644165 -2.13764648 3.30644165 -1.35351562 1.93334961 C-0.90685547 1.29534424 -0.46019531 0.65733887 0 0 Z " fill="#061066" transform="translate(99,27)"/>
<path d="M0 0 C1 1 1 1 1.11352539 4.41821289 C1.11327433 5.93636987 1.10771425 7.45453257 1.09765625 8.97265625 C1.09664917 9.67934448 1.09564209 10.38603271 1.09460449 11.11413574 C1.08935745 13.76360691 1.07539629 16.41305502 1.0625 19.0625 C1.041875 24.981875 1.02125 30.90125 1 37 C-14.84 37 -30.68 37 -47 37 C-49.64547895 29.06356314 -49.00776045 20.01934558 -45.5 12.5 C-41.31001904 5.19942428 -35.54963076 -0.19458961 -27.6796875 -3.33984375 C-18.1773428 -5.68080039 -8.56072585 -4.73693497 0 0 Z " fill="#071066" transform="translate(124,137)"/>
<path d="M0 0 C2.6883819 2.6883819 4.07072375 4.64735331 5.86328125 7.91796875 C6.41322754 8.91280273 6.96317383 9.90763672 7.52978516 10.93261719 C8.11808105 12.00672852 8.70637695 13.08083984 9.3125 14.1875 C10.57503329 16.46843942 11.83940386 18.7483627 13.10546875 21.02734375 C13.42837891 21.60892242 13.75128906 22.1905011 14.08398438 22.78970337 C17.35009772 28.65745827 20.72674591 34.45809386 24.125 40.25 C28.74095087 48.12736901 33.33474434 56.01620289 37.875 63.9375 C38.39336426 64.83823242 38.91172852 65.73896484 39.44580078 66.66699219 C39.9148584 67.4871582 40.38391602 68.30732422 40.8671875 69.15234375 C41.28081543 69.87413818 41.69444336 70.59593262 42.12060547 71.33959961 C43 73 43 73 43 74 C28.81 74 14.62 74 0 74 C0 49.58 0 25.16 0 0 Z " fill="#0A1368" transform="translate(142,100)"/>
<path d="M0 0 C0.33 0 0.66 0 1 0 C1 24.42 1 48.84 1 74 C-13.19 74 -27.38 74 -42 74 C-38.06502911 66.13005822 -34.1001037 58.53776904 -29.625 51 C-23.49529245 40.58914762 -17.47577848 30.12036794 -11.50634766 19.6171875 C-8.56632697 14.45319916 -5.61370577 9.29743398 -2.59375 4.1796875 C-2.11615234 3.36999512 -1.63855469 2.56030273 -1.14648438 1.72607422 C-0.76814453 1.15646973 -0.38980469 0.58686523 0 0 Z " fill="#0A1368" transform="translate(57,100)"/>
<path d="M0 0 C0.66 0 1.32 0 2 0 C2.20002134 7.3969583 2.38376156 14.79413062 2.54658794 22.19200706 C2.62270562 25.62696334 2.70447645 29.06159273 2.79907227 32.49609375 C2.90751837 36.44238731 2.99154711 40.38901628 3.07421875 44.3359375 C3.11157639 45.57242035 3.14893402 46.8089032 3.18742371 48.08285522 C3.20767105 49.22388702 3.2279184 50.36491882 3.2487793 51.54052734 C3.28541939 53.05276382 3.28541939 53.05276382 3.32279968 54.59555054 C3.21627579 55.38901886 3.10975189 56.18248718 3 57 C2.01 57.66 1.02 58.32 0 59 C0 39.53 0 20.06 0 0 Z " fill="#3C3F83" transform="translate(75,68)"/>
</svg>
