<!-- by TradingView --><svg width="56" height="56" viewBox="0 0 56 56" xmlns="http://www.w3.org/2000/svg"><path fill="url(#a)" d="M0 0h56v56H0z"/><path d="M27.97 12.02a44.88 44.88 0 0 0-7.2 1.9.12.12 0 0 1-.09-.11c0-.05.02-.1.07-.12a13.58 13.58 0 0 1 7.22-1.67Z" fill="#A17AA8"/><path d="M40.56 17.94c-1.19-1.25-2-2.06-2.44-2.42a16.61 16.61 0 0 0-5.31-2.9.57.57 0 0 0-.33-.01l-1.5.4c-5.57 1.8-11.05 4-16.46 6.59a7.9 7.9 0 0 1 1.68-2.56c1.45-1.46 2.67-2.36 3.66-2.7.41-.14.81-.3 1.2-.5a44.88 44.88 0 0 1 6.9-1.82c.46-.02.95-.02 1.45-.02.37 0 .88.07 1.53.2.6.1 1.06.17 1.38.17.5.01.97.1 1.44.28a16.3 16.3 0 0 1 6.89 5c.04.06.07.12.06.16 0 .08-.05.12-.15.13Z" fill="#231C31"/><path d="m40.56 17.94-.09.32c-.32.05-.52.14-.6.27l-1.44.44-1.9.07c-.4.02-.5-.15-.3-.5l.26-.42c.23-.37.54-.53.94-.48l2.43.32c.03 0 .05 0 .05-.02v-.09c0-.1-.02-.16-.08-.17l-3.05-.61.51-.9c.1-.16.08-.18-.07-.07l-1.13.9-3.12-.27c-.27-.03-.37-.18-.3-.46.02-.12.12-.28.27-.49v-.05l-.06-.06c-.05-.06-.1-.06-.13 0-.36.55-.78.83-1.28.83h-.33c-.56.02-.96 0-1.2-.06-.4-.1-.66-.33-.79-.69a.33.33 0 0 1 .05-.32L30.98 13l1.5-.4a.57.57 0 0 1 .33.02c1.95.64 3.72 1.6 5.31 2.9.44.36 1.25 1.17 2.44 2.42Z" fill="#FDD1ED"/><path d="m30.98 13-1.78 2.43c-.07.1-.09.21-.05.32.13.36.39.6.79.7.24.05.64.08 1.2.06h.33c.5-.01.92-.29 1.28-.84.04-.06.08-.06.13 0l.06.06v.05c-.15.21-.24.38-.27.5-.07.27.03.42.3.45l3.12.28c-.33.44-.54.6-.64.47l-2.6-.2a.45.45 0 0 0-.47.26 4.19 4.19 0 0 0-.46 1.56c-.24.13-.42.15-.53.06-.1-.06-.12-.2-.09-.4.13-.66.46-1.23.98-1.7.05-.05.06-.1.03-.17l-.06-.1c-.04-.07-.1-.08-.15-.03l-.85.7a2.18 2.18 0 0 0-1.57-.13c-.22.06-.27.2-.16.39.33.57.76.63 1.3.2-.25.42-.6.75-1 .96-.26.14-.67.27-1.24.42l-.65.18a8.9 8.9 0 0 1-1.52.33l-2.18.27c.53-.61.93-1.24 1.2-1.9.03-.08 0-.13-.1-.15-.05-.01-.1 0-.14.06-.65.86-1.39 1.69-2.23 2.48-.26.25-.74.49-1.44.73l-.72.27-2.58 1.29-1.28.74c-.37.16-.86.47-1.5.93-.65.47-1.75 1.05-3.32 1.74-.09-.09-.12-.17-.09-.25.1-.24.2-.62.28-1.12l.1-.5c.48-1.9 1.19-3.5 2.1-4.8C19.94 17 25.42 14.8 30.99 13Z" fill="#996C90"/><path d="M36.78 17.07c-.56.54-1 1.14-1.3 1.78a.41.41 0 0 1-.23.22.4.4 0 0 0-.18.12c-.09.12-.06.18.09.19l2.23.1c.02.67-.14 1.34-.48 2-.06.13-.03.22.09.29.47.27.95.39 1.44.37.07 0 .1.03.12.1l.01.1-.08-.06a.75.75 0 0 0-.63-.09l-1.8-.57c-.1-.03-.15 0-.19.08l-.03.08c-.02.12-.08.14-.17.08a6.6 6.6 0 0 0-1.95-.96.48.48 0 0 0-.44.1.5.5 0 0 0-.2.41c0 .66-.38.97-1.14.92-.14 0-.19-.08-.14-.2.04-.12.18-.24.4-.36a.23.23 0 0 0 .1-.1c.05-.12.02-.17-.1-.18-.4 0-.75.06-1.08.21-.46.69-.99 1.08-1.58 1.18a.7.7 0 0 0-.32.18.64.64 0 0 1-.42.14c-.14 0-.18-.06-.13-.18.09-.24.31-.46.66-.67.48-.17.75-.51.82-1.03.01-.14.1-.2.23-.18l.53.07c.07 0 .13-.02.17-.07a.2.2 0 0 0 .05-.13.16.16 0 0 0-.09-.14l-.64-.36c-.11-.07-.11-.13 0-.2l.16-.1a.08.08 0 0 1 .08 0c.31.2.59.25.81.19a.34.34 0 0 0 .26-.3c.05-.36.19-.55.41-.57.12 0 .2-.06.25-.17l.08-.18a6.05 6.05 0 0 0 3-1.7c.1.12.31-.03.64-.48l1.12-.9c.15-.11.18-.09.08.08l-.5.89Z" fill="#5639D4"/><path d="m31.91 19.1.54.08-.08.18a.28.28 0 0 1-.25.17c-.22.02-.36.21-.41.57a.34.34 0 0 1-.26.3c-.22.06-.5 0-.81-.18a.08.08 0 0 0-.08 0l-.16.1c-.11.06-.11.12 0 .19l.64.36c.06.03.09.08.09.15a.2.2 0 0 1-.05.12.18.18 0 0 1-.17.07l-.53-.07c-.14-.02-.22.04-.23.18-.07.52-.34.86-.82 1.03a1.66 1.66 0 0 0-1.13-.12c-.14-.07-.29-.05-.45.07.14-.24.21-.44.23-.6.12-.04.2-.1.25-.19.06-.1.03-.17-.08-.2l-.1-.05c.2-.03.35-.1.43-.21.29.18.48.19.57.01.13-.23-.07-.38-.6-.43.35-.26.47-.53.36-.79a.37.37 0 0 0-.3-.25.36.36 0 0 0-.37.15c-.28.37-.9.64-1.86.82-.55.1-.95.2-1.19.31-.5.22-1.03.37-1.58.45-.15.02-.19-.03-.13-.16.24-.5.52-.87.85-1.08l2.18-.27c.46-.05.96-.17 1.52-.33.14-.05.36-.11.65-.18.57-.15.98-.28 1.23-.42.42-.21.75-.54 1-.97l.44-.44.85-.71c.06-.05.1-.04.15.02l.06.11c.03.06.02.12-.03.16a3.03 3.03 0 0 0-.98 1.72c-.03.2 0 .32.09.4.11.08.29.06.52-.07Z" fill="#261449"/><path d="m36.78 17.07 3.05.6c.06.02.09.08.08.18v.1h-.05l-2.43-.3c-.4-.06-.71.1-.94.47l-.25.43c-.21.34-.11.5.3.5l1.89-.08c-.39.26-.73.43-1.04.5l-2.23-.1c-.15 0-.17-.06-.09-.18a.4.4 0 0 1 .18-.12c.11-.04.19-.11.24-.22.3-.64.73-1.24 1.3-1.78Z" fill="#9C86D0"/><path d="m31.25 17.47-.43.44c-.54.44-.97.38-1.3-.2-.1-.19-.06-.32.16-.38.54-.15 1.06-.1 1.57.14ZM35.44 17.48a6.05 6.05 0 0 1-2.99 1.7l-.54-.08c.04-.5.2-1.02.47-1.56.1-.2.25-.28.47-.26l2.6.2Z" fill="#FDD1ED"/><path d="M21 19.1c.05-.01.1 0 .18.04.08.05.12.12.13.21 0 .1-.02.16-.1.22-.46.4-.62.73-.5 1 .13.24.06.4-.2.5a33.57 33.57 0 0 0-3.95 1.69c-.14.07-.34.22-.62.44a2.1 2.1 0 0 1-.7.45c-.17.04-.21-.02-.13-.16a16.08 16.08 0 0 1 5.4-5.69.28.28 0 0 1 .34.02c.11.08.15.19.12.32-.09.32-.17.54-.24.66-.24.37-.15.47.27.3Z" fill="#A17AA8"/><path d="M24.23 20.08c-.32.21-.6.57-.84 1.08-.06.13-.02.18.12.16a6.22 6.22 0 0 0 1.58-.45c.24-.1.64-.2 1.2-.3.95-.19 1.57-.46 1.85-.83.09-.12.21-.17.36-.15.16.02.26.1.31.25.1.27-.01.53-.36.79-.25-.04-.43-.02-.52.06-.11.1-.1.15.05.17.18.02.35.09.5.19-.08.1-.22.18-.43.21-.23-.02-.36.03-.4.16 0 .04 0 .07.02.1.05.11.16.17.31.18-.02.16-.1.36-.23.6.08.12-.04.25-.37.38l-5.55-.12c-.62.4-1.16.59-1.62.57-.59.11-1.16.35-1.73.73h-.1c-.07.02-.12-.01-.15-.09-.02-.07 0-.13.06-.17.9-.65 1.88-1.14 2.93-1.49.06-.02.06-.04 0-.07-.35-.14-.49-.3-.42-.47l.72-.27c.7-.24 1.18-.48 1.44-.73.84-.8 1.58-1.62 2.23-2.48.04-.05.09-.07.15-.06.1.01.12.07.08.15a6.77 6.77 0 0 1-1.2 1.9Z" fill="#070118"/><path d="M40.47 18.26c.12 0 .21.02.29.1.15.16.14.3-.05.4l-1.6 1.68c-.19.09-.33.13-.43.13-.16 0-.19-.07-.1-.2l1.3-1.84c.07-.12.27-.22.6-.27Z" fill="#261449"/><path d="m39.88 18.53-1.3 1.84c-.09.13-.06.2.1.2.1 0 .24-.04.43-.13a.46.46 0 0 0-.1.17c-.02.13.03.19.16.19.49-.01.96.14 1.4.46-.2-.08-.35-.1-.44-.02-.1.07-.11.15-.05.25.14.21.12.4-.08.55.03-.1.04-.18.03-.27-.01-.13-.08-.2-.2-.22-.23-.02-.39.1-.49.4-.06.18.03.3.28.37-.3-.02-.41.05-.36.2.03.1.1.19.22.29l-.75-.33a.27.27 0 0 1-.16-.15l-.01-.1c-.01-.06-.05-.1-.12-.09-.49.02-.97-.1-1.44-.37-.12-.07-.15-.16-.09-.28.34-.66.5-1.33.48-2.01.3-.08.65-.25 1.04-.5l1.45-.45Z" fill="#3F2789"/><path d="M40.7 18.76c.49-.06.75.15.79.63-.48.16-.87.41-1.19.76-.16.18-.12.3.1.35.62.17 1.23.22 1.8.14l.18.52a.87.87 0 0 1-.1.24l-1.71-.14a2.3 2.3 0 0 0-1.4-.46c-.13 0-.18-.06-.15-.2 0-.04.04-.1.08-.16l1.6-1.68Z" fill="#7E5373"/><path d="M41.49 19.4c.09.05.14.12.16.19.02.1-.02.16-.11.2l-.47.17c-.05.02-.06.05-.05.1.01.05.04.07.09.07.56-.06.92.1 1.1.51-.58.08-1.19.03-1.81-.14-.22-.06-.26-.18-.1-.35.32-.35.71-.6 1.19-.76Z" fill="#FED4DA"/><path d="M33.4 19.86c.13.13.01.37-.35.74a.22.22 0 0 1-.25.05.3.3 0 0 1-.1-.05.29.29 0 0 1-.06-.1.22.22 0 0 1 .05-.25c.35-.38.58-.5.71-.39Z" fill="#9C52E4"/><path d="M28.45 20.63c.53.05.73.2.6.43-.09.18-.28.17-.57-.01-.15-.1-.32-.17-.5-.2-.15-.01-.16-.06-.05-.16.1-.08.27-.1.52-.06Z" fill="#996C90"/><path d="M37.86 22.2a6.56 6.56 0 0 0-.96 1.26v.08c.09.12.19.15.32.08.71-.37 1.14-.82 1.27-1.34l.08.05c.03.07.08.12.16.15a4.97 4.97 0 0 1-1.14 1.83l-2.35-.26a.38.38 0 0 0-.37.16.39.39 0 0 0-.05.4c.23.6.26 1.25.1 1.91l-.36-1.33c-.04-.13-.1-.16-.22-.09-.49.3-.94.67-1.37 1.09a2.6 2.6 0 0 1-.71.42c-.27.12-.46.22-.58.3-.1-.32-.07-.58.07-.78.09-.12.27-.26.54-.42l.25-.15c.32-.22.76-.7 1.33-1.46l.37-.49c.2-.25.34-.58.43-1l.07-.3a.21.21 0 0 0-.07-.2.2.2 0 0 0-.22-.05 6.2 6.2 0 0 0-1.62.84c-.3.22-.62.81-.97 1.76l-.18.47c-.1.24-.26.32-.5.24a1.01 1.01 0 0 0-.55.04c-.14.03-.18.12-.13.25.13.4-.02.79-.45 1.18a.23.23 0 0 0-.06.25c.03.1.1.15.2.17l.13.01a.3.3 0 0 1 .26.22c.09.25 0 .4-.23.45v-.13a.15.15 0 0 0-.09-.15c-.06-.03-.12-.02-.17.03L29 28.8c-.11.12-.2.1-.26-.05-.08-.2-.02-.41.18-.65l.78-.68a.25.25 0 0 0 .08-.28 1.97 1.97 0 0 1 .25-1.56c.3-.12.52-.37.66-.73a.33.33 0 0 0-.03-.3.6.6 0 0 1-.02-.67c.37-.66.54-1.39.49-2.18.33-.15.69-.22 1.08-.2.12 0 .16.05.1.16a.23.23 0 0 1-.1.1c-.22.13-.35.25-.4.37-.04.12 0 .2.14.2.76.05 1.14-.26 1.14-.92 0-.17.07-.3.2-.41.13-.1.28-.14.45-.1a6.6 6.6 0 0 1 1.94.96c.1.06.15.04.18-.07l.02-.1c.04-.07.1-.1.18-.07l1.81.57Z" fill="#E28CF6"/><path d="m42.38 21.16.87 2.68c-.17 2.5-.17 4.9 0 7.2l-.28.06c-.12.03-.2-.02-.23-.13a.85.85 0 0 0-.32-.43c-.12-2.5-.14-4.77-.06-6.78.01-.25-.06-.4-.23-.46l.1-.27c.39-.7.4-1.25.06-1.63a.88.88 0 0 0 .09-.24Z" fill="#4D4468"/><path d="m28.05 21.26.1.04c.11.04.14.11.08.21a.46.46 0 0 1-.25.19c-.16 0-.26-.07-.31-.18a.15.15 0 0 1-.01-.1c.03-.13.16-.18.39-.16Z" fill="#7E5373"/><path d="m40.57 21.26 1.72.14c.35.38.33.93-.06 1.63l-2.52 1.68-.15-.63c.16-.54.13-.96-.09-1.27a.72.72 0 0 1-.2-.28c-.06-.16.06-.23.35-.21.17-.06.3-.15.38-.28.2-.16.22-.34.08-.55-.07-.1-.05-.19.05-.25.1-.07.24-.06.44.02Z" fill="#030306"/><path d="M40 22.04a.67.67 0 0 1-.38.28c-.25-.07-.34-.2-.28-.38.1-.28.26-.41.48-.39.13.02.2.09.2.22.02.09 0 .18-.02.27Z" fill="#5639D4"/><path d="M20.8 21.57c-.07.17.07.33.42.47.06.03.06.05 0 .07-1.06.35-2.03.84-2.94 1.5-.06.03-.08.1-.05.16.03.08.08.1.16.1l.09-.01-1.22 1.56c.05-.27.17-.55.36-.82.05-.07.05-.14-.01-.21a.47.47 0 0 0-.22-.13c-.2-.06-.2-.15-.05-.27.41-.32.7-.7.87-1.13l2.59-1.3Z" fill="#4D4468"/><path d="M31.12 21.7c.05.8-.12 1.52-.5 2.18a.6.6 0 0 0 .03.66c.06.1.07.2.03.31-.14.36-.36.6-.66.73-.37-.02-.7-.13-.99-.33a.61.61 0 0 0-.25-.1l-.58-.08c.28-.09.6-.11 1-.07.04 0 .08-.01.1-.06.02-.04.01-.08-.02-.11a.77.77 0 0 0-.4-.18.3.3 0 0 1-.26-.2c-.04-.1-.02-.2.06-.27.04-.03.07-.1.1-.18.04-.1 0-.2-.1-.3-.08-.06-.29-.19-.63-.37a.24.24 0 0 1-.11-.16c-.04-.14.01-.22.16-.24l.19-.02c.17-.02.19-.09.05-.2-.36-.27-.4-.43-.14-.48.38-.1.75-.05 1.14.12-.36.21-.58.43-.67.67-.05.12 0 .18.13.18.16 0 .3-.04.42-.14.12.21.33.29.62.23.29-.06.31-.17.07-.33-.07-.05-.2-.07-.37-.08.6-.1 1.12-.49 1.58-1.18Z" fill="#9C52E4"/><path d="m31.68 26.9-.18 1.7c-.12.4-.61.57-1.5.52-.11-.01-.17-.07-.17-.2 0-.04 0-.08.02-.13l.5-.85c.24-.05.32-.2.23-.45a.3.3 0 0 0-.26-.22l-.13-.02a.22.22 0 0 1-.2-.16c-.03-.1-.01-.18.06-.25.43-.4.58-.79.45-1.18-.05-.13 0-.22.13-.26.24-.06.42-.07.55-.03.24.08.4 0 .5-.24l.18-.47c.35-.95.67-1.54.97-1.76.43-.33.97-.6 1.62-.84a.2.2 0 0 1 .22.04c.06.06.09.13.07.22l-.07.28c-.09.43-.23.76-.43 1.01l-.37.5a7 7 0 0 1-1.33 1.44l-.25.16c-.27.16-.45.3-.54.42-.14.2-.16.46-.07.77Z" fill="#FEF8FD"/><path d="M28.2 22.23c-.26.05-.22.2.14.48.14.11.12.18-.05.2l-.2.02c-.14.02-.19.1-.15.24.02.08.06.13.11.16.34.18.55.3.63.38.1.1.14.19.1.29a.43.43 0 0 1-.1.18c-.08.08-.1.17-.06.28.05.1.13.17.25.2.19.03.32.08.4.17.04.03.05.07.03.11-.02.04-.06.06-.1.06a2.55 2.55 0 0 0-1 .06l-.58.29.1-.52c.02-.12-.03-.21-.15-.26-.35-.14-.64-.02-.86.37-.21.38-.47.65-.77.8-.45-.32-.67-.6-.67-.84.1-.07.16-.15.19-.23.02-.1 0-.16-.07-.21-.07-.04-.16-.05-.27-.02.02-.22-.1-.35-.35-.38a8.5 8.5 0 0 0-1.78.11c-.12-.18-.4-.22-.88-.12 1.6-.4 3.2-.76 4.8-1.06.57-.1.73-.21.47-.31.33-.13.45-.26.37-.38.17-.12.32-.14.45-.07Z" fill="#3F2789"/><path d="M38.49 22.28c-.13.52-.56.97-1.27 1.34-.13.07-.23.04-.32-.08v-.08c0-.03 0-.06.02-.08.28-.45.6-.84.94-1.19a.75.75 0 0 1 .63.09Z" fill="#FEF8FD"/><path d="M39.47 22.8c.22.32.25.74.1 1.28a6.98 6.98 0 0 1-1.4 3.26c.13-.84.29-1.66.46-2.47.06-.27-.28-.45-1.04-.56.6-.68.98-1.29 1.13-1.83l.75.33ZM27.38 22.68c.26.1.1.2-.47.3-1.6.31-3.2.66-4.8 1.07-.1-.02-.28.02-.55.1l.26-1.6 5.56.13Z" fill="#9C86D0"/><path d="m21.82 22.56-.26 1.6-1.2.25c-.33.08-.5.28-.52.62l-.08 1.76c-.33-.1-.45-.46-.36-1.12.13-1 .4-1.84.8-2.54.47.02 1-.18 1.62-.57Z" fill="#4D4468"/><path d="M18.22 22.86c-.18.44-.47.81-.88 1.13-.16.12-.14.21.05.27.1.03.17.07.22.13.06.07.06.14.01.2-.19.28-.3.56-.36.83l-1.09 1.14c.1-.36.3-.7.57-1.02.03-.03.03-.06 0-.09l-.08-.08c-.05-.05-.1-.05-.15 0-.29.33-.54.58-.74.74-.3.24-.53.5-.71.78-.46.7-1.04 1.42-1.73 2.15-.08.08-.13.1-.16.05-.03-.04-.04-.13-.04-.25.53-.68 1.09-1.38 1.67-2.08.16-.2.4-.69.74-1.49l1.4-1.67 1.28-.74Z" fill="#030306"/><path d="M29.54 22.88c.18 0 .3.03.37.08.24.16.22.27-.07.33-.3.06-.5-.02-.62-.23a.7.7 0 0 1 .32-.18Z" fill="#E28CF6"/><path d="m42.23 23.03-.1.28c-.57.62-1.27 1.57-2.09 2.87-.44.7-.78 1.22-1.02 1.55l.69-3.02 2.52-1.68Z" fill="#7E5373"/><path d="M20.2 23.13a6.8 6.8 0 0 0-.8 2.54c-.09.66.03 1.03.36 1.12l.63 2.76c0 .2.09.4.24.61-.04.03-.1.05-.19.04a4.83 4.83 0 0 1-1.04-3.08c0-.18-.09-.24-.26-.18-.46.17-.86.4-1.2.7a.42.42 0 0 0-.15.29c-.07 1.1.19 2.06.77 2.9l.2 2.88c0 .11-.03.2-.12.28l-.88.72c-.53.2-.92.53-1.15 1.01-.06.12-.02.17.1.16.35-.01.65-.19.92-.52l2.41.22c-1.74.02-2.79.72-3.13 2.09-.24-.51-.87-.6-1.88-.26l-.36-.58 1.04-1.06a1.6 1.6 0 0 0-.32.54c-.05.13 0 .2.14.2.3 0 .58-.07.83-.24.08-.06.12-.14.1-.24-.15-.67.08-1.12.68-1.34a1.8 1.8 0 0 0 .78-.61c.07-.1.1-.2.07-.31a.35.35 0 0 0-.2-.25 5.15 5.15 0 0 1-1.93-1.5 9.26 9.26 0 0 0-.28-.33c-.5-.58-.74-1.07-.7-1.47.09-1.08.1-1.77.03-2.06-.04-.14.02-.21.16-.23.26-.02.4-.22.38-.59 0-.12.05-.21.16-.27.29-.15.47-.32.56-.51l1.1-1.14 1.2-1.56a4.65 4.65 0 0 1 1.73-.73Z" fill="#9C86D0"/><path d="M42.13 23.3c.17.06.24.21.23.46a77.8 77.8 0 0 0 .06 6.78c.04.05.06.13.04.25.02.17-.03.36-.15.6-.07.12-.11.22-.13.3-.13.48-.17.94-.14 1.38a5.56 5.56 0 0 1-4.4 2.26l1.15-1.7c.05-.06.03-.1-.05-.1h-.1a.27.27 0 0 0-.25.09l-2.11 2.3-1.18-1.24.54-.33c.08-.05.08-.1-.01-.14l-.41-.2-.5-.6c-.1-.12-.1-.23.03-.33l.86-.68c.15-.12.3-.12.44 0 .36.3.69.4.98.3.1-.04.12-.1.04-.18l-.62-.62c-.17-.17-.17-.35-.01-.52l1.7-1.87c.05-.07.12-.1.2-.11l1.64-.2c.2-.02.21-.07.02-.14-.27-.1-.66-.2-1.16-.27-.14-.01-.19-.09-.14-.22l.32-.84c.24-.33.58-.85 1.02-1.55.82-1.3 1.52-2.26 2.1-2.87Z" fill="#FED4DA"/><path d="m16.94 23.6-1.4 1.67-3.25 1.32c-.16-.18-.21-.3-.17-.32a19.64 19.64 0 0 0 3.32-1.74 8.78 8.78 0 0 1 1.5-.93Z" fill="#231C31"/><path d="M43.26 31.05a51.46 51.46 0 0 1-.01-7.2c.9 2.48 1 4.98.26 7.5-.01.05-.05.09-.12.1a.13.13 0 0 1-.13-.08c-.07-.12-.07-.23 0-.32Z" fill="#FDD1ED"/><path d="M22.11 24.05c.47-.1.76-.06.88.12l-2.2.57a.45.45 0 0 0-.35.4l-.18 1.43c-.02.16.04.25.2.27l.27.03c.13.02.16.08.1.2l-.12.22c-.07.14-.05.26.05.36l.45.45c.07.07.11.16.13.26.18 1.2-.14 1.6-.95 1.2l-.63-2.77.09-1.76c.01-.34.18-.54.51-.62l1.2-.25c.27-.1.45-.13.55-.11Z" fill="#261449"/><path d="M25.12 24.44c-.12.12-.2.24-.26.36-.06.13-.02.2.12.22.07.02.17-.02.29-.11 0 .23.22.5.67.82.04.54.22.99.57 1.33.22.21.58.28 1.1.21l.12-.01c-.1.3-.1.52 0 .67.08.1.17.13.28.07l.65-.35c.12.14.2.28.25.45-.2.24-.26.46-.18.65.06.15.15.17.26.05l1.1-1.1c.05-.06.1-.07.17-.04.06.03.1.08.1.15v.13l-.5.85a.5.5 0 0 0-.27.2c-.06.08-.05.17.03.24.24.2.38.5.42.89a.38.38 0 0 1-.1.3c-.15.18-.39.23-.71.16a.3.3 0 0 0-.27.06l-.21.17c-.13.1-.21.07-.24-.1l-.06-.3.7-.91c.12-.17.09-.2-.1-.11-.25.12-.49.29-.72.5a.26.26 0 0 1-.3.05c-.48-.2-.86-.15-1.15.15-.1.12-.18.1-.24-.04-.05-.13-.05-.24 0-.33.33-.55.74-.67 1.23-.36.15.1.26.14.35.13.13-.02.24-.1.31-.24.06-.11.04-.2-.06-.29-.26-.2-.5-.24-.73-.08a.59.59 0 0 1-.3-.44.25.25 0 0 0-.2-.22c-.22-.07-.3-.18-.26-.33.05-.16-.01-.23-.17-.22l-.3.04c-.12.02-.2-.03-.27-.13-.13-.25-.3-.36-.53-.32-.37-.24-.63-.23-.8.02-.1.15-.04.44.17.88-.02-.02-.1.02-.21.13-.12-.23-.29-.4-.5-.5a.05.05 0 0 1-.04-.05l-.16-1.38c-.01-.12.03-.2.13-.25.18-.1.3-.22.33-.36.04-.12 0-.14-.1-.08l-1.65 1.09c-.14.18-.18.35-.11.52.02.04.07.1.14.16.07.05.11.1.14.17.04.08.03.18-.02.3-.4.95-.83 1.83-1.31 2.64-.06.1-.15.13-.26.1-.3-.1-.58-.26-.83-.49a1.19 1.19 0 0 1-.24-.6c.81.4 1.13 0 .95-1.2a.43.43 0 0 0-.13-.26l-.45-.45c-.1-.1-.12-.22-.05-.36l.12-.23c.06-.1.02-.17-.1-.19l-.27-.03c-.16-.02-.23-.11-.2-.27l.18-1.42a.45.45 0 0 1 .35-.41l2.2-.57a8.49 8.49 0 0 1 1.78-.11c.26.03.37.16.35.38Z" fill="#5639D4"/><path d="M37.6 24.31c.75.1 1.1.3 1.04.56-.18.81-.34 1.63-.48 2.47-.44.97-.95 1.91-1.52 2.83-.23.37-.52.7-.87 1.02l-1 .9a11.36 11.36 0 0 1-8.15 2.95l-3.83-.68a8.25 8.25 0 0 0-3.16-.56c-.19 0-.25-.08-.19-.27.2-.55-.03-1.36-.7-2.42l-.18-.29a4.44 4.44 0 0 1-.77-2.9c.01-.11.06-.21.15-.29.34-.3.74-.52 1.2-.7.17-.05.26 0 .26.2 0 1.16.35 2.19 1.04 3.07l.9 1c.09.1.19.11.3.04l.72-.4c.6-.32.72-.2.37.37-.02.04-.17.16-.43.34-.2.15-.22.32-.05.5.9 1 2.09 1.63 3.58 1.88 1.42.24 2.74.08 3.95-.47.86-.4.83-.72-.1-.97-.2-.05-.67.06-1.4.34a.43.43 0 0 0-.24.24c-.12.26-.38.37-.77.31-.2-.03-.22-.1-.08-.22.06-.04.18-.1.36-.16.1-.04.19-.1.25-.2.12-.22.26-.37.4-.46.93-.59 2.16-1.24 3.67-1.95.2-.02.37-.1.53-.27l.72-.39c.15-.08.18-.04.1.1l-.45.87c-.61 0-1 .1-1.2.32a.56.56 0 0 1-.23.17l-.83.3c-.1.04-.15.1-.17.21a.67.67 0 0 0-.01.28c.12.44.28.45.47.03l.1-.2c.04-.1.13-.15.25-.15a2 2 0 0 1 .73.19l-.32.34c-.03.03-.02.06 0 .09l.1.1c.05.04.1.04.15 0 1.62-1.33 2.6-3 2.95-5.05l.16-.8c.16-.67.13-1.31-.1-1.93a.39.39 0 0 1 .05-.4c.1-.11.22-.16.37-.15l2.35.26Z" fill="#FEF8FD"/><path d="m39.56 24.08.14.63-.68 3.02-.32.84c-.05.13 0 .2.13.22.5.08.9.17 1.16.27.2.07.2.12-.01.14l-1.64.2a.33.33 0 0 0-.21.1l-1.7 1.87c-.15.18-.15.36.02.53l.62.62c.08.08.06.14-.04.17-.3.1-.62 0-.98-.29-.14-.12-.29-.12-.44 0l-.86.68c-.13.1-.14.2-.04.33l.5.6-.5.08-.53-.37a.28.28 0 0 0-.31-.02L32 34.74l-.44.22c-.55-.04-1.06.1-1.52.4l-3.48.31a5.4 5.4 0 0 0-3.02-.01c-.17.04-.21-.02-.12-.17a.8.8 0 0 1 .1-.14c.06-.07.16-.1.3-.1.92-.05 1.85-.12 2.79-.21 3.08.1 5.8-.89 8.15-2.96l1-.89c.35-.31.64-.65.86-1.02.58-.92 1.08-1.86 1.53-2.83a6.98 6.98 0 0 0 1.4-3.26Z" fill="#261449"/><path d="M25.27 24.9c-.12.1-.21.13-.3.12-.13-.02-.17-.1-.11-.22.05-.12.14-.24.26-.36.11-.03.2-.03.27.02s.1.12.07.2a.46.46 0 0 1-.2.24Z" fill="#E28CF6"/><path d="M27.61 25.35c-.28.28-.46.6-.54.97-.03.12.01.2.12.23.39.13.7.31.93.54-.17.12-.3.17-.4.17h-.1c-.53.08-.9.01-1.11-.2a1.96 1.96 0 0 1-.57-1.33c.3-.14.56-.4.77-.8.22-.38.5-.5.86-.36.12.05.17.14.14.26l-.1.52Z" fill="#070118"/><path d="m34.92 26.52-.16.8c0-.57-.01-.98-.06-1.22-.13-.65-.3-.66-.53-.04l-.15.53c-.11.44-.3.48-.58.12-.03-.03-.1-.05-.21-.04-.13.02-.2.09-.21.2l-.09.65c-.16-.78-.43-.5-.8.88-.2.5-.29 1.02-.28 1.55 0 .12.06.18.18.18h.37a.83.83 0 0 1-.53.26c-.62 0-.9-.13-.83-.4.43-.15.58-.61.46-1.4l.18-1.69c.12-.07.3-.17.58-.3.35-.15.59-.29.71-.41.42-.42.88-.78 1.37-1.09.11-.07.18-.04.22.09l.36 1.33Z" fill="#5639D4"/><path d="M15.54 25.27c-.33.8-.58 1.3-.74 1.49-.58.7-1.14 1.4-1.68 2.08-.39.7-.7.96-.94.79-.21-1.6-.24-2.57-.08-2.94.09-.2.15-.23.19-.1l3.25-1.32Z" fill="#A17AA8"/><path d="m28.2 25.06.58.1c.1 0 .18.04.25.1.3.2.62.3.99.32-.3.5-.39 1.02-.25 1.56.03.11 0 .2-.08.28l-.78.68a1.2 1.2 0 0 0-.25-.45c.13-.25.2-.42.22-.5.07-.6-.07-.65-.43-.19-.1.13-.2.17-.33.13a2.32 2.32 0 0 0-.93-.54c-.1-.04-.15-.11-.12-.23.08-.36.26-.69.54-.97l.6-.29Z" fill="#9C86D0"/><path d="M16.17 26.56a1.2 1.2 0 0 1-.56.51.28.28 0 0 0-.16.27c.01.37-.12.57-.38.6-.14 0-.2.08-.16.22.07.3.06.98-.04 2.06-.03.4.2.89.7 1.47l.29.33a5.15 5.15 0 0 0 1.93 1.5c.1.05.17.13.2.25a.35.35 0 0 1-.1.34 1.8 1.8 0 0 1-.75.58c-.6.22-.83.67-.69 1.34.03.1 0 .18-.1.24-.24.17-.52.25-.82.24-.14 0-.19-.07-.14-.2.06-.18.17-.36.32-.54.1-.18.23-.32.39-.44.05-.03.05-.06.01-.1-.04-.03-.07-.03-.1-.02l-1.16.93c-.12.1-.22.08-.3-.06l-.4-.7c-.08-.15-.05-.25.11-.3.12-.05.22-.15.32-.33.08-.14.04-.2-.13-.16-.27.07-.54.2-.79.38-.5-.8-.78-1.47-.86-2a2.5 2.5 0 0 0-.28-.93c.31.04.55-.12.7-.47.07-.12.03-.17-.1-.15-.2.02-.38.1-.58.27a5.67 5.67 0 0 1-.36-2.06c.24.17.55-.1.95-.79 0 .12.01.2.04.25.03.04.08.03.16-.05a15.3 15.3 0 0 0 1.73-2.15c.18-.28.42-.54.71-.78.2-.16.45-.4.74-.73.05-.06.1-.06.15 0l.08.07c.03.03.03.06 0 .09-.27.32-.47.66-.57 1.02Z" fill="#996C90"/><path d="M24.87 28.29c.2.72.58 1.1 1.11 1.15.54.05.57-.06.1-.3-.48-.25-.8-.58-1-.98-.2-.44-.27-.73-.17-.88.17-.25.43-.26.8-.02-.1.3.02.54.36.7.1.06.18.13.24.23.3.5.77.74 1.43.69.23-.16.47-.13.73.08.1.08.12.18.06.29-.07.14-.18.22-.31.24-.09 0-.2-.04-.35-.13-.49-.3-.9-.19-1.22.36-.05.09-.06.2 0 .33.05.14.13.16.23.04.29-.3.67-.35 1.15-.15.11.04.21.03.3-.05.23-.21.47-.38.72-.5.19-.1.22-.06.1.1l-.7.92-.81 1.15a.37.37 0 0 1-.27.15l-.24.04c-.21-.08-.4-.1-.56-.07l-1-.03a.2.2 0 0 0-.1-.06l-.15-.33a.39.39 0 0 0-.24-.22l-1.27-.44-.63-.27c-.28-.12-.36-.32-.24-.6.22-.51.55-.96.98-1.34.15-.13.12-.2-.07-.22-.29-.03-.43-.2-.42-.48a.32.32 0 0 0-.16-.3.8.8 0 0 1-.39-.64l1.66-1.08c.1-.06.13-.04.1.08-.04.14-.16.26-.34.36-.1.05-.14.13-.13.24l.16 1.4.04.04c.21.1.38.27.5.5Z" fill="#FDD1ED"/><path d="M34.76 27.33a8.13 8.13 0 0 1-2.95 5.05c-.05.05-.1.04-.15 0l-.1-.1c-.02-.03-.03-.06 0-.09l.32-.34c.47-.3.77-.68.9-1.15l.44-.86c.08-.15.05-.19-.1-.1l-.72.38h-.37c-.12.01-.18-.05-.18-.17 0-.53.09-1.05.28-1.55-.04.1-.02.22.05.33.05.08.11.1.2.1a.2.2 0 0 0 .16-.14l.39-1.17.09-.64c.02-.12.09-.2.2-.2.12-.02.19 0 .22.03.27.36.47.32.58-.12l.15-.53c.23-.62.4-.61.53.04.05.24.07.65.06 1.23Z" fill="#3F2789"/><path d="M25.2 26.43c.14-.04.32-.04.52 0 .06.02.1.06.11.12.02.05 0 .1-.04.14-.14.12-.3.2-.49.23-.13.03-.21-.03-.23-.16a.76.76 0 0 1-.02-.12c0-.1.04-.18.14-.2Z" fill="#FEC6FB"/><path d="M28.66 27.65 28 28c-.11.06-.2.04-.28-.07-.1-.15-.1-.37 0-.67.09 0 .22-.05.39-.17.12.04.24 0 .33-.13.36-.46.5-.4.43.18-.01.1-.09.26-.22.51Z" fill="#FEF8FD"/><path d="M22.88 26.75c.03.29.16.5.4.64.1.07.16.17.15.3 0 .29.13.45.42.48.2.02.22.1.07.22-.43.38-.76.83-.98 1.35-.12.27-.04.47.24.59l.63.27c.1.07.17.14.22.22.03.05.03.1 0 .16a.15.15 0 0 1-.16.07l-.45-.06a.1.1 0 0 0-.1.04.26.26 0 0 0-.06.13c0 .05.01.08.06.1l.92.25c.1.03.2.03.32 0a1.3 1.3 0 0 1 1 .14c-.2 0-.38.03-.52.1-.11.06-.12.14-.03.23l.12.13c.08.08.17.1.28.06.34-.13.73-.2 1.16-.23.12 0 .15-.06.09-.16a.35.35 0 0 0-.09-.1c.16-.03.35 0 .56.07-.13.27-.17.5-.13.68.03.13.11.17.23.11a.56.56 0 0 0 .33-.43c.11-.54.44-.75 1-.64.1.02.2 0 .27-.09l.22-.23a.52.52 0 0 1 .3-.14c.68-.1 1.24-.44 1.7-1.03-.08.28.2.42.82.4a36.97 36.97 0 0 0-3.68 1.96c-.13.09-.27.24-.4.46a.45.45 0 0 1-.24.2c-.18.06-.3.12-.36.16-.14.12-.11.2.08.22.4.06.65-.05.77-.31a.43.43 0 0 1 .25-.24c.72-.28 1.19-.39 1.4-.34.92.25.95.57.09.97-1.21.55-2.53.7-3.95.47a5.97 5.97 0 0 1-3.58-1.87c-.17-.19-.16-.36.05-.5.26-.2.4-.3.43-.35.35-.57.23-.7-.37-.36l-.72.4c-.11.06-.21.05-.3-.04l-.9-1c.1 0 .15-.02.19-.05.25.23.53.4.84.48.1.04.2 0 .25-.1.48-.8.92-1.68 1.31-2.63.05-.12.06-.22.02-.3a.45.45 0 0 0-.13-.17.5.5 0 0 1-.15-.16c-.07-.17-.03-.34.11-.53Z" fill="#9C52E4"/><path d="m32.93 27.52-.39 1.17a.2.2 0 0 1-.16.14.19.19 0 0 1-.2-.1c-.07-.11-.09-.23-.05-.33.37-1.37.64-1.66.8-.88Z" fill="#FDD1ED"/><path d="M27.74 28.88c-.66.05-1.13-.18-1.43-.69a.57.57 0 0 0-.24-.22c-.34-.17-.46-.4-.36-.71.23-.04.4.07.54.32.05.1.14.15.25.13l.3-.04c.17-.02.23.06.18.22-.04.15.05.26.27.33.11.03.18.1.2.22.02.2.12.34.29.44Z" fill="#E28CF6"/><path d="M25.08 28.16c.2.4.52.73 1 .97.47.26.44.36-.1.3-.53-.04-.9-.42-1.11-1.14.12-.1.19-.15.21-.13Z" fill="#9C52E4"/><path d="M15.65 28.87c.46.26.75.57.88.93.03.1 0 .18-.08.25-.17.12-.34.1-.51-.09a3.4 3.4 0 0 1-.79-1.56c-.01-.07 0-.12.07-.16a.2.2 0 0 1 .09-.03c.04 0 .07.02.09.06.04.1.07.2.07.29 0 .13.06.24.18.3Z" fill="#FEF8FD"/><path d="M31.5 28.6c.12.78-.03 1.24-.46 1.38-.45.59-1.01.93-1.7 1.03a.52.52 0 0 0-.29.14l-.22.23a.29.29 0 0 1-.28.09c-.55-.11-.88.1-.99.64a.56.56 0 0 1-.33.43c-.12.06-.2.02-.23-.11-.04-.18 0-.4.12-.68l.25-.04c.11 0 .2-.06.27-.15l.81-1.15.06.3c.03.17.1.2.24.1l.2-.17a.3.3 0 0 1 .28-.06c.32.07.56.02.72-.16.07-.1.1-.2.09-.3a1.32 1.32 0 0 0-.42-.9c-.08-.06-.1-.15-.03-.24a.5.5 0 0 1 .26-.2.41.41 0 0 0-.03.14c0 .13.06.19.18.2.88.05 1.38-.13 1.5-.53Z" fill="#9C86D0"/><path d="M25.47 31.6a1.3 1.3 0 0 0-.91-.09.64.64 0 0 1-.33 0l-.91-.25c-.05-.02-.07-.05-.06-.1.01-.05.03-.1.07-.13a.1.1 0 0 1 .1-.03l.44.05c.07.01.12-.01.15-.07a.15.15 0 0 0 0-.16.69.69 0 0 0-.21-.22l1.27.44c.1.04.19.1.23.22l.16.33ZM32.78 30.7c-.13.47-.43.85-.9 1.15a2 2 0 0 0-.73-.19c-.12 0-.2.05-.26.16l-.09.2c-.2.41-.35.4-.47-.04a.67.67 0 0 1 .01-.28c.02-.1.08-.17.17-.2l.83-.31c.1-.03.17-.09.24-.17.18-.21.58-.32 1.2-.32ZM22.8 34.36c-.3.18-.7.21-1.22.1-.1-.02-.2 0-.29.08-.1.08-.08.14.04.17l.82.24-.18.23-1.93.4-2.4-.22c.3-.35.34-.57.12-.65l.88-.72c.09-.07.13-.17.12-.28l-.2-2.88.18.28c.67 1.06.9 1.87.7 2.42-.06.19 0 .28.2.27a8.25 8.25 0 0 1 3.15.56Z" fill="#E28CF6"/><path d="m42.7 31.27-.53 1.97c-.05.18-.09.18-.12-.01l-.01-.17c-.03-.43.01-.9.14-1.38.02-.07.06-.17.13-.3.12-.23.17-.42.16-.59.11.12.19.28.22.48Z" fill="#A17AA8"/><path d="M12.52 32.04c-.1-.14-.08-.25.02-.35.2-.16.39-.25.58-.27.13-.02.17.03.1.16-.16.34-.39.5-.7.46Z" fill="#FED4DA"/><path d="M42.7 31.27c.54.84.56 1.84.03 3-2.47 5.48-6.7 8.72-12.7 9.73a.66.66 0 0 1-.33-.07c-.1-.06-.13-.15-.09-.26.54-1.34.84-2.65.9-3.92.03-.6.11-1.14.25-1.6.15-.51.17-1.06.07-1.63-.02-.13.02-.2.13-.25l4.14-1.6 1.18 1.25c-.28.34-.49.6-.62.8-.38.54-.29.63.26.27.53-.35 1.1-.9 1.72-1.66 1.7 0 3.17-.76 4.4-2.27l.01.17c.03.2.07.2.12 0l.52-1.96Z" fill="#FEC6FB"/><path d="m25.57 31.65 1 .03c.04.03.07.06.09.1.06.1.03.16-.09.17-.43.02-.82.1-1.16.22-.1.04-.2.02-.28-.06l-.12-.13c-.1-.09-.08-.17.03-.23.14-.07.32-.1.53-.1Z" fill="#3F2789"/><path d="M24.59 33.05c.35.1.65.11.68.01.03-.1-.22-.26-.57-.37-.35-.1-.66-.11-.69-.01-.03.1.23.26.58.37Z" fill="#FEC6FB"/><path d="M14.15 34.2c-.09.1-.2.2-.36.3-.09.06-.17.04-.22-.06l-.05-.08c-.06-.1-.04-.18.06-.23.1-.05.22-.14.37-.28.21-.19.38-.3.5-.33a.5.5 0 0 1 .27-.01c.1.03.14.09.16.18.02.09 0 .16-.08.2a.84.84 0 0 1-.36.14.43.43 0 0 0-.3.17Z" fill="#E28CF6"/><path d="M37.64 35.33A7.94 7.94 0 0 1 35.92 37c-.55.36-.63.27-.26-.27.13-.2.34-.46.62-.8l2.1-2.3c.07-.08.15-.1.25-.09h.11c.08 0 .1.03.05.1l-1.15 1.7Z" fill="#FEF8FD"/><path d="M34.71 34.1c.05.18.05.35 0 .5a.26.26 0 0 1-.17.18l-1.91.7a.45.45 0 0 1-.45-.06.46.46 0 0 1-.19-.43l.02-.25 1.86-1.04c.1-.06.21-.05.31.02l.53.37Z" fill="#FEC6FB"/><path d="m35.22 34.01.4.2c.1.04.1.09.02.14l-.54.32-4.13 1.6c-.12.04-.16.12-.14.24.1.58.08 1.13-.07 1.64-.14.46-.22 1-.25 1.6a12.07 12.07 0 0 1-.9 3.92c-.04.11-.01.2.1.26.07.05.18.07.33.07l-3.54-.01c.15-.18 0-.3-.45-.36a8.1 8.1 0 0 1-.54-.09c-.4-.07-.6-.01-.63.19a15.7 15.7 0 0 1-8.82-5.07l.18-.48c.08-.19.18-.2.3-.04a5.1 5.1 0 0 0 1.56 1.38c.1.05.13.03.1-.08a3.53 3.53 0 0 0-1.3-1.77c.35-1.37 1.4-2.07 3.14-2.1l1.93-.4c.17.33.43.3.8-.07.09-.1.08-.17-.03-.23-.2-.1-.4-.08-.6.08l-.81-.24c-.12-.03-.13-.1-.04-.17.09-.08.18-.1.3-.08.51.11.92.08 1.2-.1l3.83.68c-.94.1-1.87.16-2.79.2-.14 0-.24.04-.3.1a.8.8 0 0 0-.1.15c-.09.15-.05.21.12.17 1.1-.28 2.1-.28 3.02.01.85.62 1.96.66 3.35.12.54.22 1.11.21 1.72 0 .37-.14.43-.35.19-.65-.03-.04-.12-.1-.26-.18l.44-.22L32 35c-.01.18.05.32.19.43.14.1.29.12.45.06l1.91-.7a.26.26 0 0 0 .17-.18.86.86 0 0 0 0-.5l.51-.09Z" fill="#996C90"/><path d="m15.71 35.77-1.04 1.06-1-1.86c.24-.18.5-.3.78-.38.17-.03.2.02.13.16-.1.18-.2.28-.31.32-.17.06-.2.17-.12.31l.4.7c.08.14.18.16.3.06l1.17-.93c.02-.01.05 0 .1.03.03.03.03.06-.02.1-.16.1-.28.25-.39.43Z" fill="#E28CF6"/><path d="M17.76 34.71c.22.08.18.3-.13.65-.27.34-.57.51-.92.53-.12 0-.16-.05-.1-.17.23-.48.62-.82 1.15-1Z" fill="#FEF8FD"/><path d="M31.57 34.96c.14.08.22.14.25.18.25.3.19.51-.18.64-.61.22-1.18.23-1.72.02l.13-.44c.46-.3.97-.44 1.52-.4Z" fill="#FDD1ED"/><path d="m30.05 35.36-.13.43c-1.39.54-2.5.5-3.35-.12l3.48-.31Z" fill="#FED4DA"/><path d="M39.27 35.78a.24.24 0 0 1-.01-.17c.03-.1.1-.15.2-.16.05 0 .1 0 .14.04l1.13 1.03c.26.23.28.48.08.77l-.19.26c-.18.26-.34.24-.48-.03l-.87-1.74Z" fill="#FEF8FD"/><path d="M25.76 36.52c.12-.03.16 0 .12.1-.05.1-.1.16-.16.18-.2.04-.23 0-.1-.15a.67.67 0 0 1 .14-.13Z" fill="#9C86D0"/><path d="M16.9 37.67a3.53 3.53 0 0 1 1.3 1.77c.03.1 0 .13-.1.08a5.1 5.1 0 0 1-1.55-1.38c-.13-.17-.23-.15-.3.04l-.19.48-1.02-1.25c1-.34 1.63-.25 1.87.26Z" fill="#B7D5F4"/><path d="M26.5 43.99c-.56 0-1.1-.09-1.62-.27.03-.2.24-.25.63-.18.21.05.4.08.54.1.45.05.6.17.45.35Z" fill="#FED4DA"/><defs><linearGradient id="a" x1="10.42" y1="9.71" x2="68.15" y2="76.02" gradientUnits="userSpaceOnUse"><stop stop-color="#1A1E21"/><stop offset="1" stop-color="#06060A"/></linearGradient></defs></svg>