<?xml version="1.0" encoding="UTF-8"?>
<svg version="1.1" xmlns="http://www.w3.org/2000/svg" width="64" height="64">
<path d="M0 0 C21.12 0 42.24 0 64 0 C64 21.12 64 42.24 64 64 C42.88 64 21.76 64 0 64 C0 42.88 0 21.76 0 0 Z " fill="#010101" transform="translate(0,0)"/>
<path d="M0 0 C21.12 0 42.24 0 64 0 C64 21.12 64 42.24 64 64 C42.88 64 21.76 64 0 64 C0 42.88 0 21.76 0 0 Z M12 15 C7.49389052 21.5910258 5.10646374 28.54517391 6.41015625 36.50390625 C8.198643 43.51862974 11.22379216 49.41830688 17.296875 53.5703125 C24.54643524 57.51029089 31.0051472 58.99181743 39.0625 56.9375 C46.25686172 54.43511331 51.26137274 50.95157416 54.9375 44.1875 C58.2920196 36.58013183 58.81113734 30.32420736 56.0625 22.421875 C52.90626067 15.22750594 48.7796896 11.08745655 41.57421875 7.91015625 C30.91044434 4.13980809 19.86786723 6.67754488 12 15 Z " fill="#000000" transform="translate(0,0)"/>
<path d="M0 0 C5.68417638 5.37369616 8.6899744 12.50409168 9.12890625 20.28515625 C8.72672154 27.19542084 6.00910672 33.81703378 1.2421875 38.859375 C-4.67442655 43.69806341 -11.80658743 46.44776475 -19.5 46 C-26.51509994 44.82046992 -32.89008089 41.87295802 -37.4375 36.3125 C-41.64543566 29.95277906 -43.90940718 22.90857956 -42.62890625 15.29296875 C-40.64900026 8.07430528 -37.55562339 2.36998014 -31.234375 -1.8125 C-20.32874653 -7.60849835 -10.2152581 -6.98390095 0 0 Z M-35 5 C-38.9987795 11.68270608 -41.35855389 18.27695803 -39.50390625 26.08984375 C-37.32973338 32.48952772 -33.98413993 37.18506874 -27.875 40.3125 C-22.14911534 42.95264526 -16.79005112 44.2171046 -10.65234375 42.24609375 C-2.63193377 38.8317289 1.63279765 35.03837032 5 27 C7.22792077 20.3162377 6.16425278 15.18088583 3.125 9.0390625 C-0.70334806 2.10018163 -5.68094235 -0.56031412 -13 -3 C-21.37304302 -3.72181405 -29.03900068 -1.13131358 -35 5 Z " fill="#F9F9F9" transform="translate(49,12)"/>
<path d="M0 0 C2.73316601 0.62136718 2.73316601 0.62136718 6.125 -0.25 C9.5625 -0.5625 9.5625 -0.5625 11.9375 0.9375 C13.98663305 4.09001239 14.27685625 6.72413123 14.5625 10.4375 C10.2725 10.4375 5.9825 10.4375 1.5625 10.4375 C2.2225 12.0875 2.8825 13.7375 3.5625 15.4375 C5.5425 15.4375 7.5225 15.4375 9.5625 15.4375 C9.8925 14.7775 10.2225 14.1175 10.5625 13.4375 C11.5525 13.4375 12.5425 13.4375 13.5625 13.4375 C13.25 15.3125 13.25 15.3125 12.5625 17.4375 C9.34317978 19.58371348 9.08468228 19.66287198 5.5625 19.0625 C0.96741343 18.21423644 0.96741343 18.21423644 -3.4375 19.4375 C-7.04191333 19.82928406 -8.8214863 19.8481758 -11.875 17.8125 C-13.4375 15.4375 -13.4375 15.4375 -13.4375 12.3125 C-12.4375 9.4375 -12.4375 9.4375 -10.8125 8.0625 C-7.6427173 7.22834666 -4.69846908 7.31207811 -1.4375 7.4375 C-1.7675 6.1175 -2.0975 4.7975 -2.4375 3.4375 C-4.4175 3.4375 -6.3975 3.4375 -8.4375 3.4375 C-8.7675 4.0975 -9.0975 4.7575 -9.4375 5.4375 C-10.4275 5.4375 -11.4175 5.4375 -12.4375 5.4375 C-10.06502277 -1.17154372 -6.78125833 -1.56490577 0 0 Z " fill="#F8F8F8" transform="translate(31.4375,22.5625)"/>
<path d="M0 0 C2.64 0 5.28 0 8 0 C7.125 4.875 7.125 4.875 6 6 C4.33382885 6.04063832 2.66611905 6.042721 1 6 C-0.0625 4.125 -0.0625 4.125 -1 2 C-0.67 1.34 -0.34 0.68 0 0 Z " fill="#020202" transform="translate(22,33)"/>
<path d="M0 0 C0.66 1.65 1.32 3.3 2 5 C-1.3 5 -4.6 5 -8 5 C-7.67 3.68 -7.34 2.36 -7 1 C-4.53721199 -0.231394 -2.7204945 -0.07159196 0 0 Z " fill="#050505" transform="translate(41,25)"/>
<path d="M0 0 C0.99 0 1.98 0 3 0 C2.6875 1.875 2.6875 1.875 2 4 C-1.22791555 6.1519437 -2.28400809 6.20086443 -6 6 C-5.67 5.01 -5.34 4.02 -5 3 C-3.67696283 2.6278958 -2.34262065 2.29369827 -1 2 C-0.67 1.34 -0.34 0.68 0 0 Z " fill="#FEFEFE" transform="translate(42,36)"/>
</svg>
