<?xml version="1.0" encoding="UTF-8"?>
<svg version="1.1" xmlns="http://www.w3.org/2000/svg" width="64" height="64">
<path d="M0 0 C21.12 0 42.24 0 64 0 C64 21.12 64 42.24 64 64 C42.88 64 21.76 64 0 64 C0 42.88 0 21.76 0 0 Z " fill="#1E0E4B" transform="translate(0,0)"/>
<path d="M0 0 C-1.04704426 2.25517225 -1.91514073 3.91514073 -3.6875 5.6875 C-5.51065309 8.89972211 -5.18888927 11.24379773 -4.62109375 14.83203125 C-3.08858236 20.18136344 1.76695867 22.51729421 6.125 25.4375 C10.12685886 28.2107703 12.72845928 30.10945877 14 35 C14.21711397 41.01405695 12.97678648 45.34147869 9 50 C6.75 51.375 6.75 51.375 5 52 C7 48 7 48 8.03515625 46.1328125 C9.70731319 42.43646558 9.88911839 38.94933983 9 35 C7.06086553 32.42431075 4.6556186 30.79204338 2 29 C0.57846959 27.96498059 -0.83826657 26.92334279 -2.25 25.875 C-2.89453125 25.41867188 -3.5390625 24.96234375 -4.203125 24.4921875 C-7.59923937 21.671936 -8.88079153 19.51940833 -9.875 15.1875 C-10.26694253 10.80264297 -9.21423182 7.83800183 -7 4 C-2.79487179 0 -2.79487179 0 0 0 Z " fill="#EAE9EE" transform="translate(30,6)"/>
<path d="M0 0 C0.99 0.33 1.98 0.66 3 1 C2.67 1.99 2.34 2.98 2 4 C1.88046231 5.97654185 1.82473804 7.95738456 1.8125 9.9375 C1.79832031 10.97777344 1.78414062 12.01804687 1.76953125 13.08984375 C1.99607718 15.95046613 2.52266381 17.57670151 4 20 C4.66 20 5.32 20 6 20 C6 20.66 6 21.32 6 22 C2.65829712 21.0717492 1.06538058 20.07068171 -1.3125 17.5 C-3.4874735 12.98894385 -3.90436131 8.93732391 -3 4 C-1.47265625 1.6953125 -1.47265625 1.6953125 0 0 Z " fill="#E0DEE6" transform="translate(24,36)"/>
<path d="M0 0 C4.45217009 1.3603853 6.73458525 2.88869175 9 7 C9.63167637 11.73055413 10.15321227 16.23331419 7.47265625 20.33984375 C6.98667969 20.88769531 6.50070313 21.43554688 6 22 C5.01 21.67 4.02 21.34 3 21 C3.495 19.7315625 3.495 19.7315625 4 18.4375 C5.42057992 13.55425651 5.85487226 9.78746019 3.625 5.125 C2.17239958 2.90335175 2.17239958 2.90335175 0 2 C0 1.34 0 0.68 0 0 Z " fill="#EAE8ED" transform="translate(34,6)"/>
<path d="M0 0 C0.66 0.33 1.32 0.66 2 1 C1.8125 2.8125 1.8125 2.8125 1 5 C-1.5625 6.75 -1.5625 6.75 -4 8 C-2.66666667 5.33333333 -1.33333333 2.66666667 0 0 Z " fill="#DBD8E1" transform="translate(39,50)"/>
</svg>
