<!-- by TradingView --><svg width="56" height="56" viewBox="0 0 56 56" xmlns="http://www.w3.org/2000/svg"><path fill="url(#a)" d="M0 0h56v56H0z"/><path d="M41.75 35.44a9.35 9.35 0 0 1-3.93 5.6A12.37 12.37 0 0 1 33.08 43a.1.1 0 0 1-.06-.06A801.58 801.58 0 0 1 33 37.3c.07-5.32-6.57-7.37-9.29-2.87-.48.8-.72 1.69-.7 2.68l-.02 5.79a.12.12 0 0 1-.04.08.1.1 0 0 1-.09.03A11.4 11.4 0 0 1 15.98 39c-1.7-2.18-2.3-4.82-1.81-7.91.4-2.54 1.58-4.85 2.77-7.1 2.05-3.93 4.4-7.8 7.25-11.15.62-.73 1.29-1.4 2.02-2.02.67-.53 1.42-1.03 2.3-.75.56.18 1.24.7 1.66 1.08.97.89 1.93 1.95 2.86 3.18a69.26 69.26 0 0 1 6.41 10.4c.77 1.5 1.27 2.55 1.5 3.16.96 2.44 1.36 4.94.81 7.54ZM32.95 24c0-2.72-2.16-5-4.95-5a4.97 4.97 0 0 0-4.94 5c0 2.72 2.16 5 4.94 5a4.97 4.97 0 0 0 4.95-5Z" fill="#fff"/><defs><linearGradient id="a" x1="49.26" y1="6.73" x2="15.09" y2="49.45" gradientUnits="userSpaceOnUse"><stop stop-color="#62DC56"/><stop offset="1" stop-color="#40DF9F"/></linearGradient></defs></svg>