<?xml version="1.0" encoding="UTF-8"?>
<svg version="1.1" xmlns="http://www.w3.org/2000/svg" width="64" height="64">
<path d="M0 0 C2.90298965 2.61269068 2.99652916 3.96355617 3.375 7.9375 C3.21476639 11.67163974 2.52718653 14.12423601 0 17 C-2.6875 17.8125 -2.6875 17.8125 -5 18 C-3.63875 18.3403125 -3.63875 18.3403125 -2.25 18.6875 C1.5609913 20.22655418 2.86484819 21.52049335 5 25 C5.75 28.3125 5.75 28.3125 6 31 C6.99 31.33 7.98 31.66 9 32 C8.49396008 34.16874252 8.00016187 35.99967627 7 38 C5.68 38 4.36 38 3 38 C3 37.01 3 36.02 3 35 C1.63875 35.495 1.63875 35.495 0.25 36 C-3 37 -3 37 -7 37 C-7 38.32 -7 39.64 -7 41 C-5.68 41.66 -4.36 42.32 -3 43 C-3 44.32 -3 45.64 -3 47 C-17.75409836 49.62295082 -17.75409836 49.62295082 -23 47 C-22.625 44.5625 -22.625 44.5625 -22 42 C-21.01 41.505 -21.01 41.505 -20 41 C-19.34786708 38.97536745 -19.34786708 38.97536745 -19 37 C-20.32 36.34 -21.64 35.68 -23 35 C-23.495 35.495 -23.495 35.495 -24 36 C-26.30116431 37.41610111 -28.58276553 38.79138276 -31 40 C-31.66 39.67 -32.32 39.34 -33 39 C-33.34649722 33.45604455 -32.77354493 28.89992938 -30 24 C-27.38073897 21.10163739 -24.74068053 19.24689351 -21 18 C-21.94875 17.67 -22.8975 17.34 -23.875 17 C-27.27006117 14.82716085 -27.49193978 14.48109578 -28.375 10.8125 C-28.58125 9.554375 -28.7875 8.29625 -29 7 C-30.32 7 -31.64 7 -33 7 C-32.67 5.02 -32.34 3.04 -32 1 C-30.68 2.32 -29.36 3.64 -28 5 C-27.773125 4.236875 -27.54625 3.47375 -27.3125 2.6875 C-25.69106292 -0.63258545 -24.31744527 -1.4570022 -21 -3 C-14.25421654 -5.31284004 -5.85069816 -3.85289879 0 0 Z M-16 37 C-16.33 38.32 -16.66 39.64 -17 41 C-13.71303767 41.79953138 -12.28976808 42.09658936 -9 41 C-9.33 39.68 -9.66 38.36 -10 37 C-11.98 37 -13.96 37 -16 37 Z " fill="#575757" transform="translate(45,12)"/>
<path d="M0 0 C2.90298965 2.61269068 2.99652916 3.96355617 3.375 7.9375 C3.1756267 11.75407462 2.84312555 14.24049579 0 17 C-2.62856195 17.53687948 -5.14051522 17.7506296 -7.8203125 17.859375 C-9.97780056 17.75776236 -9.97780056 17.75776236 -11 19 C-11.66 19 -12.32 19 -13 19 C-13 18.34 -13 17.68 -13 17 C-13.67546875 17.02320312 -14.3509375 17.04640625 -15.046875 17.0703125 C-16.38492187 17.09738281 -16.38492187 17.09738281 -17.75 17.125 C-18.63171875 17.14820312 -19.5134375 17.17140625 -20.421875 17.1953125 C-23.19977368 16.98486563 -24.73513742 16.61775898 -27 15 C-28.11714584 12.37576119 -28.45369812 9.82255969 -29 7 C-30.32 7 -31.64 7 -33 7 C-32.67 5.02 -32.34 3.04 -32 1 C-30.68 2.32 -29.36 3.64 -28 5 C-27.773125 4.236875 -27.54625 3.47375 -27.3125 2.6875 C-25.69106292 -0.63258545 -24.31744527 -1.4570022 -21 -3 C-14.25421654 -5.31284004 -5.85069816 -3.85289879 0 0 Z " fill="#A4A4A4" transform="translate(45,12)"/>
<path d="M0 0 C3.54085699 0.72262388 4.95198649 2.00748182 7.09375 4.890625 C8.49381479 7.39719261 8.85983517 9.78769231 9.0625 12.625 C10.0525 12.955 11.0425 13.285 12.0625 13.625 C11.55646008 15.79374252 11.06266187 17.62467627 10.0625 19.625 C8.7425 19.625 7.4225 19.625 6.0625 19.625 C6.0625 18.635 6.0625 17.645 6.0625 16.625 C5.33804688 16.86476563 4.61359375 17.10453125 3.8671875 17.3515625 C-5.73539104 20.29635325 -5.73539104 20.29635325 -10.9375 17.625 C-9.86348892 14.70982708 -9.15939824 12.84689824 -6.9375 10.625 C-4.20880593 10.65787583 -1.6408382 11.18897771 1.0625 11.625 C-3.36355006 10.17975116 -3.36355006 10.17975116 -7.9375 9.625 C-7.59759204 6.56582833 -7.08051602 4.82098492 -5.25 2.3125 C-2.9375 0.625 -2.9375 0.625 0 0 Z " fill="#E1E1E1" transform="translate(41.9375,30.375)"/>
<path d="M0 0 C3.3 0.33 6.6 0.66 10 1 C10 1.66 10 2.32 10 3 C6.75370153 4.08209949 6.12563502 3.78140875 3 3 C2.01 3.33 1.02 3.66 0 4 C-1.21869929 6.50447516 -1.21869929 6.50447516 -2 9 C-1.34 9.33 -0.68 9.66 0 10 C-1.32 10 -2.64 10 -4 10 C-4 11.32 -4 12.64 -4 14 C-1.69 14 0.62 14 3 14 C3.33 12.68 3.66 11.36 4 10 C4.12375 10.928125 4.12375 10.928125 4.25 11.875 C4.81258459 14.18437567 4.81258459 14.18437567 7.0625 15.25 C8.0215625 15.62125 8.0215625 15.62125 9 16 C9 17.32 9 18.64 9 20 C-5.75409836 22.62295082 -5.75409836 22.62295082 -11 20 C-10.625 17.5625 -10.625 17.5625 -10 15 C-9.34 14.67 -8.68 14.34 -8 14 C-7.30906104 11.42048126 -7.30906104 11.42048126 -6.875 8.4375 C-6.62363281 6.91962891 -6.62363281 6.91962891 -6.3671875 5.37109375 C-6.24601562 4.58863281 -6.12484375 3.80617187 -6 3 C-5.195625 2.87625 -4.39125 2.7525 -3.5625 2.625 C-2.716875 2.41875 -1.87125 2.2125 -1 2 C-0.67 1.34 -0.34 0.68 0 0 Z " fill="#A8A8A8" transform="translate(33,39)"/>
<path d="M0 0 C2 2 2 2 2.125 5.625 C2.08375 6.73875 2.0425 7.8525 2 9 C1.01 9.495 1.01 9.495 0 10 C0 8.02 0 6.04 0 4 C-0.99 4 -1.98 4 -3 4 C-3.680625 4.7425 -3.680625 4.7425 -4.375 5.5 C-6 7 -6 7 -8.6875 7.1875 C-9.450625 7.125625 -10.21375 7.06375 -11 7 C-11.33 5.35 -11.66 3.7 -12 2 C-12.99 2 -13.98 2 -15 2 C-15 2.66 -15 3.32 -15 4 C-16.32 3.67 -17.64 3.34 -19 3 C-19 4.32 -19 5.64 -19 7 C-19.99 7 -20.98 7 -22 7 C-22.66 5.68 -23.32 4.36 -24 3 C-24.99 3.66 -25.98 4.32 -27 5 C-26.8125 2.6875 -26.8125 2.6875 -26 0 C-18.44172551 -5.87865794 -7.85453123 -4.90908202 0 0 Z " fill="#D0D1D0" transform="translate(45,12)"/>
<path d="M0 0 C0.66 0.66 1.32 1.32 2 2 C4.57061311 2.64767793 4.57061311 2.64767793 7 3 C5.8553125 4.299375 5.8553125 4.299375 4.6875 5.625 C2.24779927 8.53600655 0.57001723 11.52943561 -1 15 C-1.99 14.67 -2.98 14.34 -4 14 C-4.33 14.66 -4.66 15.32 -5 16 C-7.52480693 13.47519307 -7.55738633 11.86176966 -8.125 8.375 C-8.29257812 7.37210938 -8.46015625 6.36921875 -8.6328125 5.3359375 C-8.75398438 4.56507812 -8.87515625 3.79421875 -9 3 C-2.84765625 2.12109375 -2.84765625 2.12109375 -1 2 C-0.67 2.33 -0.34 2.66 0 3 C0 2.01 0 1.02 0 0 Z " fill="#949494" transform="translate(33,27)"/>
<path d="M0 0 C1.32 1.32 2.64 2.64 4 4 C4.33 3.34 4.66 2.68 5 2 C5.66 2 6.32 2 7 2 C7.66 1.34 8.32 0.68 9 0 C10.19287411 3.87684087 11 6.91621923 11 11 C13.97 11.495 13.97 11.495 17 12 C17 12.33 17 12.66 17 13 C13.7 13 10.4 13 7 13 C6.67 13.66 6.34 14.32 6 15 C5.01 12.03 4.02 9.06 3 6 C1.68 6 0.36 6 -1 6 C-0.67 4.02 -0.34 2.04 0 0 Z " fill="#8D8D8D" transform="translate(13,13)"/>
<path d="M0 0 C0.66 0 1.32 0 2 0 C2.33 0.66 2.66 1.32 3 2 C3.66 1.67 4.32 1.34 5 1 C6.76462683 4.08809695 7 5.23312136 7 9 C7.99 9.33 8.98 9.66 10 10 C9.49396008 12.16874252 9.00016187 13.99967627 8 16 C6.68 16 5.36 16 4 16 C4 15.01 4 14.02 4 13 C3.34 13 2.68 13 2 13 C1.66307215 11.39658445 1.33058907 9.79223445 1 8.1875 C0.814375 7.29417969 0.62875 6.40085937 0.4375 5.48046875 C0 3 0 3 0 0 Z " fill="#888888" transform="translate(44,34)"/>
<path d="M0 0 C0.12375 0.928125 0.12375 0.928125 0.25 1.875 C0.81258459 4.18437567 0.81258459 4.18437567 3.0625 5.25 C3.701875 5.4975 4.34125 5.745 5 6 C5 7.32 5 8.64 5 10 C-9.75409836 12.62295082 -9.75409836 12.62295082 -15 10 C-14.67 9.34 -14.34 8.68 -14 8 C-13.34 8.33 -12.68 8.66 -12 9 C-9.6670134 9.04022391 -7.33293334 9.04320247 -5 9 C-4.67 7.35 -4.34 5.7 -4 4 C-3.01 4 -2.02 4 -1 4 C-0.67 2.68 -0.34 1.36 0 0 Z " fill="#2F2F2F" transform="translate(37,49)"/>
<path d="M0 0 C0.08153933 1.58246707 0.13943557 3.16616273 0.1875 4.75 C0.22230469 5.63171875 0.25710937 6.5134375 0.29296875 7.421875 C-0.05076316 10.44671583 -1.00227459 11.75583602 -3 14 C-4.98 13.34 -6.96 12.68 -9 12 C-8.55396127 6.94489444 -6.35299176 4.59833262 -3 1 C-1 0 -1 0 0 0 Z " fill="#ECECEC" transform="translate(22,31)"/>
<path d="M0 0 C3.4374823 -0.02901394 6.87493312 -0.04680335 10.3125 -0.0625 C11.28896484 -0.07087891 12.26542969 -0.07925781 13.27148438 -0.08789062 C14.20927734 -0.09111328 15.14707031 -0.09433594 16.11328125 -0.09765625 C16.97735596 -0.10289307 17.84143066 -0.10812988 18.73168945 -0.11352539 C21 0 21 0 24 1 C24 1.66 24 2.32 24 3 C23.04287109 3.09087891 23.04287109 3.09087891 22.06640625 3.18359375 C21.24011719 3.26738281 20.41382812 3.35117187 19.5625 3.4375 C18.32693359 3.55931641 18.32693359 3.55931641 17.06640625 3.68359375 C15.01337975 3.78930815 15.01337975 3.78930815 14 5 C13.34 5 12.68 5 12 5 C12 4.34 12 3.68 12 3 C10.95199219 3.01740234 10.95199219 3.01740234 9.8828125 3.03515625 C8.97273438 3.04417969 8.06265625 3.05320312 7.125 3.0625 C5.76761719 3.07990234 5.76761719 3.07990234 4.3828125 3.09765625 C2 3 2 3 0 2 C0 1.34 0 0.68 0 0 Z " fill="#0C130F" transform="translate(20,26)"/>
<path d="M0 0 C1.32 0.33 2.64 0.66 4 1 C4.33 2.65 4.66 4.3 5 6 C5.66 4.68 6.32 3.36 7 2 C7.1953125 8.0546875 7.1953125 8.0546875 7 10 C6.34 10.66 5.68 11.32 5 12 C4.67 11.01 4.34 10.02 4 9 C2.35 8.67 0.7 8.34 -1 8 C-1.33 6.02 -1.66 4.04 -2 2 C-1.34 1.67 -0.68 1.34 0 1 C0 0.67 0 0.34 0 0 Z " fill="#181F1A" transform="translate(41,14)"/>
<path d="M0 0 C0.66 0.33 1.32 0.66 2 1 C2 1.66 2 2.32 2 3 C2.99 3.33 3.98 3.66 5 4 C5.75 6 5.75 6 6 8 C5 9 5 9 1.625 9.1875 C-2 9 -2 9 -5 7 C-3.88820837 3.66462511 -2.52588702 2.36292656 0 0 Z " fill="#808080" transform="translate(27,50)"/>
<path d="M0 0 C0.86625 0.12375 1.7325 0.2475 2.625 0.375 C4.4375 2.875 4.4375 2.875 5.625 5.375 C0.875 8.25 0.875 8.25 -1.375 9.375 C-2.035 9.045 -2.695 8.715 -3.375 8.375 C-3.41741723 6.04205225 -3.41592937 3.70797433 -3.375 1.375 C-2.375 0.375 -2.375 0.375 0 0 Z " fill="#1B3821" transform="translate(15.375,42.625)"/>
<path d="M0 0 C1.32 0.33 2.64 0.66 4 1 C4.33 2.98 4.66 4.96 5 7 C2.525 8.485 2.525 8.485 0 10 C-1.5 8.8125 -1.5 8.8125 -3 7 C-3.1875 4.3125 -3.1875 4.3125 -3 2 C-1.68 2.33 -0.36 2.66 1 3 C0.67 2.01 0.34 1.02 0 0 Z " fill="#1D2620" transform="translate(29,13)"/>
<path d="M0 0 C-0.66 0.66 -1.32 1.32 -2 2 C-2.99 3.485 -2.99 3.485 -4 5 C-3.67 5.33 -3.34 5.66 -3 6 C-4.1875 7.5 -4.1875 7.5 -6 9 C-8.6875 9.1875 -8.6875 9.1875 -11 9 C-10.66009204 5.94082833 -10.14301602 4.19598492 -8.3125 1.6875 C-5.37575119 -0.45553291 -3.55482252 -0.32316568 0 0 Z " fill="#E3E3E3" transform="translate(45,31)"/>
<path d="M0 0 C0.33 0.66 0.66 1.32 1 2 C-0.32 2.33 -1.64 2.66 -3 3 C-2.24849977 6.27773504 -2.24849977 6.27773504 1 8 C0.67 8.99 0.34 9.98 0 11 C-1.65 11.33 -3.3 11.66 -5 12 C-5.66 8.37 -6.32 4.74 -7 1 C-3.535 0.505 -3.535 0.505 0 0 Z " fill="#909290" transform="translate(31,29)"/>
<path d="M0 0 C1.32 1.32 2.64 2.64 4 4 C4.33 3.34 4.66 2.68 5 2 C5.66 2 6.32 2 7 2 C7.66 1.34 8.32 0.68 9 0 C9.33 2.31 9.66 4.62 10 7 C8.68 7 7.36 7 6 7 C5.34 7.66 4.68 8.32 4 9 C3.67 8.01 3.34 7.02 3 6 C1.68 6 0.36 6 -1 6 C-0.67 4.02 -0.34 2.04 0 0 Z " fill="#5E5E5E" transform="translate(13,13)"/>
<path d="M0 0 C1.98 0.66 3.96 1.32 6 2 C5.49396008 4.16874252 5.00016187 5.99967627 4 8 C2.68 8 1.36 8 0 8 C0 7.01 0 6.02 0 5 C-0.66 5 -1.32 5 -2 5 C-1.125 1.125 -1.125 1.125 0 0 Z " fill="#356639" transform="translate(48,42)"/>
<path d="M0 0 C1.32 0.33 2.64 0.66 4 1 C4 1.66 4 2.32 4 3 C5.423125 2.690625 5.423125 2.690625 6.875 2.375 C7.90625 2.25125 8.9375 2.1275 10 2 C10.66 2.66 11.32 3.32 12 4 C10.68 5.65 9.36 7.3 8 9 C7.38125 8.2884375 7.38125 8.2884375 6.75 7.5625 C4.817815 5.83733482 3.51807725 5.43415125 1 5 C0.67 3.35 0.34 1.7 0 0 Z M11 0 C15 1 15 1 15 1 Z " fill="#AEAEAE" transform="translate(23,19)"/>
<path d="M0 0 C0.33 0 0.66 0 1 0 C1.36923077 6.4 1.36923077 6.4 -0.5 9.4375 C-0.995 9.953125 -1.49 10.46875 -2 11 C-4.475 10.01 -4.475 10.01 -7 9 C-6.57847656 8.51789062 -6.15695312 8.03578125 -5.72265625 7.5390625 C-5.17480469 6.90742187 -4.62695312 6.27578125 -4.0625 5.625 C-3.51722656 4.99851562 -2.97195312 4.37203125 -2.41015625 3.7265625 C-0.93041376 2.04367666 -0.93041376 2.04367666 0 0 Z " fill="#ADADAD" transform="translate(21,34)"/>
<path d="M0 0 C1.65 0.33 3.3 0.66 5 1 C5.33 2.32 5.66 3.64 6 5 C5.34 4.67 4.68 4.34 4 4 C4 3.34 4 2.68 4 2 C3.34 2 2.68 2 2 2 C2.061875 2.78375 2.12375 3.5675 2.1875 4.375 C2.125625 5.24125 2.06375 6.1075 2 7 C1.01 7.66 0.02 8.32 -1 9 C-1.66 8.34 -2.32 7.68 -3 7 C-3 4.14793183 -1.51823194 2.27734792 0 0 Z " fill="#EBEBEB" transform="translate(42,32)"/>
<path d="M0 0 C3.63 0 7.26 0 11 0 C11.33 0.99 11.66 1.98 12 3 C10.37509046 3.02698189 8.75005367 3.04638757 7.125 3.0625 C5.76761719 3.07990234 5.76761719 3.07990234 4.3828125 3.09765625 C2 3 2 3 0 2 C0 1.34 0 0.68 0 0 Z " fill="#070B08" transform="translate(20,26)"/>
<path d="M0 0 C2.1875 1.4375 2.1875 1.4375 4 3 C3.67 3.99 3.34 4.98 3 6 C1.02 5.34 -0.96 4.68 -3 4 C-3 3.01 -3 2.02 -3 1 C-2.01 0.67 -1.02 0.34 0 0 Z " fill="#808080" transform="translate(39,53)"/>
<path d="M0 0 C0.99 0 1.98 0 3 0 C3.33 1.65 3.66 3.3 4 5 C2.68 5.99 1.36 6.98 0 8 C-0.79953138 4.71303767 -1.09658936 3.28976808 0 0 Z " fill="#456B56" transform="translate(14,44)"/>
<path d="M0 0 C2.0625 0.4375 2.0625 0.4375 4 1 C4 1.66 4 2.32 4 3 C4.66 3.33 5.32 3.66 6 4 C3.69 4.66 1.38 5.32 -1 6 C-1.042721 4.33388095 -1.04063832 2.66617115 -1 1 C-0.67 0.67 -0.34 0.34 0 0 Z " fill="#9B9B9B" transform="translate(27,45)"/>
<path d="M0 0 C2.09749995 2.35968744 2.96905704 3.54616994 3.1875 6.75 C3.125625 7.4925 3.06375 8.235 3 9 C2.67 8.34 2.34 7.68 2 7 C1.01 7.33 0.02 7.66 -1 8 C-1.33 6.35 -1.66 4.7 -2 3 C-1.67 3.66 -1.34 4.32 -1 5 C-0.67 3.35 -0.34 1.7 0 0 Z " fill="#B5B5B5" transform="translate(48,35)"/>
<path d="M0 0 C1.32 0 2.64 0 4 0 C4 0.66 4 1.32 4 2 C5.65 2.33 7.3 2.66 9 3 C9 3.33 9 3.66 9 4 C3.375 4.25 3.375 4.25 0 2 C0 1.34 0 0.68 0 0 Z " fill="#A1A1A1" transform="translate(22,55)"/>
<path d="M0 0 C1.65 0 3.3 0 5 0 C4.67 1.32 4.34 2.64 4 4 C2.35 3.67 0.7 3.34 -1 3 C-0.67 2.01 -0.34 1.02 0 0 Z " fill="#A4A4A4" transform="translate(28,31)"/>
<path d="M0 0 C0.99 0 1.98 0 3 0 C3.33 1.65 3.66 3.3 4 5 C3.01 5.495 3.01 5.495 2 6 C2 5.34 2 4.68 2 4 C1.01 4 0.02 4 -1 4 C-0.67 2.68 -0.34 1.36 0 0 Z " fill="#AAAAAA" transform="translate(42,23)"/>
<path d="M0 0 C0.66 0.33 1.32 0.66 2 1 C2 1.66 2 2.32 2 3 C2.66 3.66 3.32 4.32 4 5 C1.36 5 -1.28 5 -4 5 C-2.68 3.35 -1.36 1.7 0 0 Z " fill="#3D3D3D" transform="translate(27,50)"/>
<path d="M0 0 C2 1.0625 2 1.0625 4 3 C4.25 6.6875 4.25 6.6875 4 10 C3.01 10.495 3.01 10.495 2 11 C2.04125 10.05125 2.0825 9.1025 2.125 8.125 C2.34973818 4.89755144 2.34973818 4.89755144 0 3 C0 2.01 0 1.02 0 0 Z " fill="#B3B3B3" transform="translate(43,11)"/>
<path d="M0 0 C1.65 0 3.3 0 5 0 C4.34 0.66 3.68 1.32 3 2 C2.01 3.485 2.01 3.485 1 5 C-0.32 4.67 -1.64 4.34 -3 4 C-2.34 3.34 -1.68 2.68 -1 2 C-0.67 1.34 -0.34 0.68 0 0 Z " fill="#AFAFAF" transform="translate(40,31)"/>
<path d="M0 0 C0.33 0 0.66 0 1 0 C1.1953125 6.0546875 1.1953125 6.0546875 1 8 C0.34 8.66 -0.32 9.32 -1 10 C-1.66 8.68 -2.32 7.36 -3 6 C-2.34 5.67 -1.68 5.34 -1 5 C-0.34444881 2.47266765 -0.34444881 2.47266765 0 0 Z " fill="#606060" transform="translate(47,16)"/>
<path d="M0 0 C0.66 0 1.32 0 2 0 C2 0.66 2 1.32 2 2 C2.99 2 3.98 2 5 2 C4.67 2.99 4.34 3.98 4 5 C2.68 4.67 1.36 4.34 0 4 C0 2.68 0 1.36 0 0 Z " fill="#193C26" transform="translate(40,18)"/>
<path d="M0 0 C0.66 0.33 1.32 0.66 2 1 C2 1.99 2 2.98 2 4 C1.01 4 0.02 4 -1 4 C-0.67 2.68 -0.34 1.36 0 0 Z " fill="#AEAEAE" transform="translate(50,19)"/>
<path d="M0 0 C2 1 2 1 2 1 Z " fill="#B0B0B0" transform="translate(13,11)"/>
<path d="" fill="#545454" transform="translate(0,0)"/>
</svg>
