<!-- by TradingView --><svg width="56" height="56" viewBox="0 0 56 56" xmlns="http://www.w3.org/2000/svg"><path fill="url(#a)" d="M0 0h56v56H0z"/><path d="M33.27 12.75c-.38.79-.65 1.59-.8 2.4-.02.12.02.22.12.29.59.4 1.26.51 2 .34l.14.06a55.3 55.3 0 0 1 2.57 1.35c.93.53 1.72 1.07 2.36 1.61.36.3.8.75 1.3 1.33.02.03.03.07.03.1 0 .06.02.1.06.13a.2.2 0 0 1 .08.14c.02.2.01.35-.03.47 0 .02-.03.04-.06.04-.02 0-.05 0-.06-.02a8.31 8.31 0 0 0-.85-.96 5.1 5.1 0 0 0-1.4-.93 8.6 8.6 0 0 0-1.53-.57 17 17 0 0 0-3.57-.56 30.9 30.9 0 0 0-7.6.6.96.96 0 0 0-.3.12 37.3 37.3 0 0 0-3.43 2.3c-.14-.93-.2-1.67-.15-2.2.04-.54.18-1.04.44-1.5a.1.1 0 0 1 .08-.06.1.1 0 0 1 .1.05c.14.2.28.34.4.43.13.09.16.06.1-.07a2.5 2.5 0 0 0-.45-.67.12.12 0 0 1-.02-.14c.14-.3.39-.39.74-.28l.12.03c.44.14.82.2 1.14.2.48-.02.9.03 1.26.13.05.02.09 0 .13-.03.3-.3.7-.64 1.2-1.03.21-.16.37-.34.49-.52.09-.15.19-.37.3-.66.1-.3.3-.59.6-.85.04-.02.04-.05.01-.07-.01-.02-.03-.02-.06 0a1.67 1.67 0 0 0-.86.97c-.16.44-.31.7-.46.77-.35.18-.71.47-1.08.87l-.3.19a.05.05 0 0 1-.06 0 .06.06 0 0 1-.03-.03.05.05 0 0 1 .01-.07c.7-.69 1.03-1.3 1.01-1.84a.12.12 0 0 0-.06-.1.12.12 0 0 0-.13 0c-.27.15-.54.35-.8.57a.15.15 0 0 1-.09.03.2.2 0 0 1-.07 0c-.04-.03-.06-.06-.04-.1l.42-.94c.03-.06.03-.1.02-.16l-.55-2 .22-.15c.06-.03.06-.06 0-.08a.3.3 0 0 0-.2.01c-1 .35-1.84.78-2.55 1.3-.58.43-.98.87-1.2 1.34a41.28 41.28 0 0 0-1.62 4.1v-.7c.02-.44.18-.8.47-1.06.05-.05.1-.12.14-.2a.96.96 0 0 1 .07-.12c.12-.16.13-.36.03-.62-.09-.22-.21-.39-.37-.5a.73.73 0 0 0-.59-.16.84.84 0 0 0-.5.32c-.1.13-.12.3-.05.53.05.19.13.35.25.48.1.12.07.16-.08.13-.23-.05-.49-.23-.78-.55l-.31-.31c-.06-.06-.11-.05-.16.02-.18.27-.39.53-.63.78-.2.2-.58.29-1.11.27-.55 0-.89-.12-1.03-.34-.04-.05-.09-.06-.13 0-.3.32-.48.67-.55 1.03 0 .03-.01.04-.03.03l-.3-.06c-.04 0-.05-.03-.03-.06.03-.07.1-.15.2-.24.04-.04.06-.1.05-.17l1.82-2.05c.02.17.1.3.24.4.17.12.15.18-.06.2-.27.01-.45.08-.54.21-.04.06-.03.09.04.08h.12c.32-.04.55-.07.68-.12a.9.9 0 0 0 .5-.38 8.48 8.48 0 0 1 1.9-2.22c.23-.18.48-.4.74-.67.22-.23.5-.42.85-.57.21-.08.54-.19.97-.31l.49-.14a7.9 7.9 0 0 1 3.75-.24c.13.03.2.1.19.23 0 .03 0 .06.02.1.01.03.03.04.05.04.03 0 .05 0 .06-.03l.08-.2c.04-.07.1-.1.18-.09l2.17.41a34.87 34.87 0 0 1 4.15 1.17Z" fill="#353247"/><path d="M25.66 11.9a9.31 9.31 0 0 0-2.7 1.5c-.27.24-.46.45-.56.64-.43.77-.68 1.26-.75 1.47l-1.38 3.8a.92.92 0 0 1-.2.3c-.04.04-.07.03-.1-.02-.04-.06-.04-.13 0-.19.18-.33.3-.65.34-.96l.2-.57c.59-1.61 1.06-2.8 1.42-3.54.22-.47.62-.91 1.2-1.34.7-.52 1.56-.95 2.55-1.3a.3.3 0 0 1 .2-.01c.06.02.06.05 0 .08l-.22.14Z" fill="#14171A"/><path d="m25.66 11.9.55 2c.01.06 0 .11-.02.16l-.42.95c-.02.04 0 .07.04.1a.2.2 0 0 0 .07 0c.03 0 .06-.01.09-.04.26-.22.53-.4.8-.57a.12.12 0 0 1 .13 0c.04.03.06.06.06.1.02.54-.32 1.16-1 1.85a.05.05 0 0 0-.02.07l.03.03h.05c.19-.12.3-.18.3-.2.37-.4.74-.68 1.1-.86.13-.08.29-.33.45-.77l.03-.09c.14-.38.42-.67.83-.89h.06c.03.03.02.06 0 .08-.3.26-.51.55-.62.85-.1.3-.2.51-.3.66-.1.18-.27.36-.48.52-.5.38-.9.73-1.2 1.03a.12.12 0 0 1-.13.03c-.36-.1-.78-.15-1.26-.14a3.68 3.68 0 0 1-1.26-.22c-.35-.1-.6-.01-.74.28-.02.05-.02.1.02.14.2.21.35.44.45.67.06.13.03.16-.1.07a1.91 1.91 0 0 1-.4-.43.1.1 0 0 0-.1-.05.1.1 0 0 0-.08.06c-.26.46-.4.96-.44 1.5-.04.53.01 1.27.15 2.2l-1.34 1.09c-.37.3-1.01.95-1.93 1.97-.02-.27-.02-.52-.02-.76 0-.14 0-.25.03-.32.06-.21.01-.24-.15-.1a3.3 3.3 0 0 0-.13.15c-.24.25-.48.38-.71.38a.07.07 0 0 1-.07-.05.07.07 0 0 1 .02-.08c.2-.21.4-.36.62-.44.15-.05.14-.1-.01-.13l-.22-.05a.12.12 0 0 1-.1-.1c-.05-.18.02-.35.21-.48.25-.18.46-.37.65-.57.06-.07.06-.14 0-.22a.85.85 0 0 0-.59-.34.87.87 0 0 0-.37.07c-.1.04-.19.06-.24.07-.12 0-.18-.05-.18-.18l.67-1.23c.01-.03 0-.05-.02-.08a.08.08 0 0 0-.08-.02l-.06.01a.08.08 0 0 0-.05.04l-1.52 2.7c-.52.13-.98.5-1.37 1.1-.03.04-.06.05-.1.03-.05-.03-.06-.07-.04-.12.2-.53.23-1.06.1-1.58a.3.3 0 0 1 0-.16l.18-.78c.03-.2.09-.4.17-.59a102.2 102.2 0 0 0 .56-1.3l.96-1.68c.03-.06.01-.08-.05-.06-.11.03-.2.1-.26.2-.51.84-.96 1.65-1.34 2.43-.07.15-.13.32-.2.54-.04.18-.1.36-.17.54l-.5.33c-.11.07-.21.05-.3-.05l-.04-.06c-.07-.09-.06-.16.04-.2.13-.07.27-.16.41-.27.25-.2.22-.27-.08-.22-.07.02-.19.08-.34.2-.18.12-.25.07-.2-.14l-.05-.3c-.01-.06-.04-.08-.09-.05l-.8.48c-.05.03-.1.02-.15-.01v-.05l.05-.07a4.5 4.5 0 0 0 1.05-.78c.19-.18.37-.32.56-.4.18-.07.48-.18.91-.32.27-.1.26-.14-.02-.14-.45-.01-.92.14-1.4.46-.02.02-.05.02-.08 0a.08.08 0 0 1-.02-.05c-.01-.03 0-.05.02-.08l.26-.38a.23.23 0 0 1 .1-.09.18.18 0 0 0 .08-.06.05.05 0 0 0 0-.05.05.05 0 0 0-.04-.03.75.75 0 0 1-.42-.09l.32-.66c.03-.08.02-.1-.06-.06l-.1.07.6-.89c.02.08 0 .13-.04.17-.1.1-.17.17-.2.24-.02.03 0 .05.02.06l.3.06c.03 0 .04 0 .04-.03.07-.37.25-.71.55-1.03.04-.06.09-.05.13 0 .14.22.48.33 1.03.34.53.01.9-.08 1.1-.28.25-.24.46-.5.64-.77.05-.07.1-.08.16-.02l.3.31c.3.32.56.5.8.55.14.03.17 0 .07-.13-.12-.13-.2-.3-.25-.48-.07-.22-.05-.4.05-.53a.84.84 0 0 1 .5-.32c.2-.04.4.01.59.15.16.12.28.3.37.51.1.26.09.46-.03.62a.98.98 0 0 0-.07.11.74.74 0 0 1-.14.2c-.3.28-.45.63-.46 1.08-.01.23-.02.46-.01.7-.05.31-.16.63-.35.96-.03.06-.03.13 0 .2.03.04.07.05.1 0 .12-.1.18-.2.21-.28l1.38-3.81c.07-.21.32-.7.75-1.47a2.64 2.64 0 0 1 .62-.7 9.31 9.31 0 0 1 2.64-1.44Z" fill="#3A385A"/><path d="M34.6 15.78c-.76.17-1.42.06-2-.34a.26.26 0 0 1-.13-.28c.15-.82.42-1.62.8-2.41.5.15.98.37 1.41.65a17.1 17.1 0 0 1 1.57 1.22 21.38 21.38 0 0 1 3.61 3.86c.02.03.02.05.01.08l-.03.04h-.03a18.73 18.73 0 0 0-1.96-1.35 71.02 71.02 0 0 0-2.75-1.48 6.06 6.06 0 0 0-1.66-.54c-.02 0-.03 0-.03.02 0 .03 0 .04.02.04l1.17.49Z" fill="#33303B"/><path d="M35.89 18.5c-.28.07-.73.15-1.33.23-.37.05-.87.17-1.49.38-.08.02-.11.08-.1.16l.01.05c0 .02.02.03.05.03.62-.18 1.28-.32 1.98-.43a7.3 7.3 0 0 1 1.55-.1c.61.03 1.1.15 1.43.36.18.1.46.25.84.42.29.12.5.22.65.3.03.01.04.04.03.07v.05c-.02.03-.03.04-.06.03l-.54-.26a7.12 7.12 0 0 0-1-.43 6.26 6.26 0 0 0-5.03.64c-.05.04-.07.07-.06.11 0 .04.01.09.04.14l-.03.14c0 .04 0 .07.03.1a.1.1 0 0 0 .1.02c.47-.12.9-.3 1.28-.56a.35.35 0 0 1 .27-.05c.04 0 .04.04.02.1l-1.88 1.19c-.06.03-.1.02-.14-.03a1.97 1.97 0 0 0-.91-.71 14.66 14.66 0 0 0-3.33-.89l1.24-.14c.7.2 1.4.45 2.08.73.2.09.44.02.73-.19.04-.03.05-.07.02-.12-.15-.25-.31-.4-.47-.48a2.6 2.6 0 0 1-1.26-1.12c1.78-.15 3.54-.07 5.28.26Z" fill="#8B59C7"/><path d="m30.25 18.26.4.44c.04.04.03.05-.02.04l-1.25-.36c.25-.12.54-.17.87-.12Z" fill="#8B59C7"/><path d="M30.6 18.24c.28.5.7.87 1.26 1.12.17.07.33.23.48.48.03.05.02.09-.02.12-.29.21-.53.28-.74.2a19.8 19.8 0 0 0-2.08-.74 4.13 4.13 0 0 0-3.2.1c-.2.1-.48.3-.83.6-.5.44-.94.73-1.3.9-.45.2-.98.28-1.59.25-.1 0-.15.04-.15.14v.08c-.01.08.03.12.1.12l1.4.06c.05 0 .1-.01.13-.05 1.47-1.42 2.68-2.12 3.64-2.09l.57.03c1.15.17 2.26.46 3.33.89.38.15.68.39.9.7.05.06.09.07.14.04L34.53 20a3.7 3.7 0 0 1 1.38-.48c.4 0 .83.07 1.25.2.96.29 1.89.66 2.78 1.12.22.11.26.08.13-.11a1.15 1.15 0 0 0-.14-.13.98.98 0 0 0-.16-.12l-.4-.2c-.96-.5-1.7-.79-2.23-.87a6.26 6.26 0 0 0-4.28.83.45.45 0 0 1-.05-.14c0-.04.02-.07.07-.1a6.26 6.26 0 0 1 5.03-.65c.22.06.56.2 1 .43l.54.26c.03.01.04 0 .05-.03l.01-.05c0-.03 0-.05-.03-.07a9.18 9.18 0 0 0-.65-.3c-.38-.17-.66-.31-.84-.42-.34-.2-.82-.33-1.43-.36-.5-.02-1.01 0-1.55.1-.7.11-1.36.25-1.98.43-.03 0-.04 0-.05-.03v-.05c-.02-.08 0-.14.1-.16.61-.2 1.1-.33 1.48-.38.6-.08 1.05-.16 1.33-.23 1.36.18 2.62.65 3.78 1.4.13.09.2.2.23.34.01.05.04.1.07.13l.35.3a.1.1 0 0 1 .03.08l.01 1.29c0 .18-.05.33-.17.46-.64.68-1.04 1.12-1.2 1.31a5.1 5.1 0 0 1-1.85 1.26c-.08.03-.08.07-.03.13.91.83 1.5 1.87 1.77 3.1.01.05.04.09.08.12l.34.2.06.06c.47.67.43 1.33-.1 1.98-.04.04-.03.07.03.08.35.07.61.25.8.55.03.05.06.06.11.04.09-.03.21-.1.38-.19.34-.17.59-.27.76-.27.27-.02.52.13.74.45a14.7 14.7 0 0 1 .21.33c.03.07.03.17.02.3 0 .05.02.08.07.09.56.06.92.4 1.1 1 0 .05.02.05.03.01l.02-.04.03.66c0 .05.03.1.08.12.1.07.2.22.26.44.17.57.12 1.07-.16 1.51a.15.15 0 0 0 0 .15c.02.06.05.1.09.13.06.03.08.08.08.15l-.05 1.07a.2.2 0 0 1-.04.12c-.16.18-.23.32-.23.42v.11c.02.3.01.53 0 .66a1 1 0 0 1-.25.55c-.27.3-.66.41-1.16.35-.05 0-.09.01-.1.06a.12.12 0 0 0-.02.08c.01.03 0 .06-.01.09-.41.6-.97.84-1.69.7-.05-.01-.1 0-.12.05-.13.27-.37.42-.71.47-.3.04-.6 0-.9-.14a.13.13 0 0 0-.14.02c-.5.39-.96.32-1.4-.22-.03-.04-.06-.04-.1-.02-.23.12-.4.22-.54.28-.55.3-.92.3-1.12.03.66-.07 1.2-.26 1.58-.6.04-.02.04-.06.01-.1a.28.28 0 0 1-.05-.1c-.18-.97-.12-1.68.18-2.13.14-.22.33-.3.57-.27.2.03.4.13.61.3.02.02.03.02.04 0 .38-.74.87-.9 1.45-.52.05.03.08.03.1-.02.2-.4.5-.59.86-.56.37.03.63.25.79.66 0 .03.02.05.04.05.05 0 .07-.02.06-.07v-.1c-.04-.56.02-.93.2-1.1.28-.29.62-.35 1-.2.06.02.1.02.16 0 .34-.12.57-.35.69-.7.18-.29.19-.67.01-1.14-.01-.19-.08-.27-.2-.25-.17.02-.38.14-.62.36-.15.11-.28.16-.38.15-.1-.01-.1-.05-.03-.11l.8-.66c.07-.06.1-.13.1-.22 0-.48-.2-.87-.58-1.17-.1-.07-.2-.08-.34-.04l-.09.01a9.88 9.88 0 0 0-.42.67c-.1.17-.2.25-.3.25-.14 0-.16-.05-.07-.16.14-.17.27-.36.38-.59.16-.29.22-.5.18-.66-.06-.2-.15-.38-.3-.52-.16-.17-.33-.23-.52-.18-.78.22-1.08.48-.9.77.03.66-.01 1.2-.12 1.6-.09.32-.26.5-.52.56-.24.04-.5-.03-.78-.2-.49-.34-.85-.82-1.08-1.45a.92.92 0 0 1-.03-.5c.03-.18.1-.32.2-.44.23-.28.53-.57.9-.87.47-.38.61-.84.44-1.37 0-.2-.07-.36-.26-.5-.2-.17-.46-.14-.75.09a4.17 4.17 0 0 0-.74.79 9.7 9.7 0 0 1-1.87 1.54.94.94 0 0 0-.35.51 3.73 3.73 0 0 0-.11.76 5.04 5.04 0 0 1-1.45 3.1l-.38.47-.2-.07c-.05-.01-.06-.05-.01-.09l.35-.38.3-.39c.14-.2.25-.34.35-.43.14-.13.11-.18-.07-.13-.52.12-1 .3-1.44.5-.6.29-1 .47-1.19.54-.1.05-.22.02-.32-.09.06-.07.2-.14.4-.21l.3-.12c.04-.03.03-.05-.02-.04-1.46.18-2.93.28-4.4.28-.14-.02-.27-.12-.37-.28h1.2a20.79 20.79 0 0 0 5.35-.63c.57-.18.96-.5 1.15-.93-.02-.27.03-.5.14-.69a.07.07 0 0 0 0-.07.07.07 0 0 0-.07-.04c-2.17.03-4.32-.13-6.44-.5-2.53-.43-4.43-1.26-5.71-2.46a3.26 3.26 0 0 1-.78-1.01c-.15-.3-.2-.57-.18-.8.05-.44.33-.74.85-.9.4-.11.84-.14 1.33-.07.17.03.38.13.64.3.62.43 1.12.73 1.52.92 1.17.54 2.37.92 3.59 1.14 2.5.45 5 .52 7.5.2a.44.44 0 0 0 .3-.18c.3-.4.65-.72 1.06-.97.04-.03.06-.06.05-.11a5.35 5.35 0 0 0-1.45-2.73l-.23-.26a.16.16 0 0 0-.17-.05l-2.02.42c-.07.01-.07.04-.02.08.25.2.26.29.02.29l-2.02-1.1c-.05-.03-.05-.07 0-.1l.03-.04c.05-.03.1-.04.15-.02.31.13.72.32 1.21.57.1.06.2.08.26.08a8.34 8.34 0 0 0 3.18-.82c.48-.24.79-.43.9-.58a14 14 0 0 1 1.35-1.46c.12-.1.2-.24.24-.4.03-.08 0-.12-.08-.12l-7.44.1c-.04 0-.08.01-.1.03-.05.03-.05.07-.01.1.05.04.07.09.06.14-.02.18-.07.44-.13.77-.1.5-.4.83-.88 1.02-.25.02-.8.08-1.65.19-1.1.14-2.31.1-3.64-.11a4.03 4.03 0 0 1-2.09-1.05c-.1-.1-.05-.15.17-.13.06 0 .11.03.16.07.35.34.73.58 1.15.71.32.11.8.2 1.43.26 1.3.12 2.72.06 4.26-.2.41-.06.67-.26.77-.58.11-.36.17-.72.19-1.1 0-.04-.02-.06-.06-.06-3.27-.15-6.49-.26-9.65-.32-.11 0-.19-.04-.22-.12-.1-.13-.15-.25-.14-.37l.58-.42c.53.07 1.03-.02 1.51-.27a7.72 7.72 0 0 0 1.47-1.1c.4-.34.94-.55 1.63-.64l1.01-.02c1.12.18 2.18.48 3.17.89.15.06.3.08.46.06.02 0 .04-.02.05-.05 0-.02 0-.04-.02-.06a7.53 7.53 0 0 0-3.77-1.31c.4-.1.79-.14 1.14-.1l1.25.37c.05.01.06 0 .02-.04l-.4-.44c.12-.03.24-.03.36-.02Z" fill="#FEFDFE"/><path d="M28.23 18.47c1.26.1 2.4.47 3.44 1.1-.85-.22-1.67-.46-2.46-.69-.36-.1-.64-.08-.86.06l-1 .02c.03-.1 0-.16-.08-.17-.14-.02-.34 0-.58.06-.18.05-.32.07-.42.07-.16 0-.35.06-.55.19a46.28 46.28 0 0 0-1.47.95c-.06 0-.08-.03-.04-.08a.29.29 0 0 0 .05-.12c.41-.28.83-.54 1.26-.8.23-.14.47-.23.73-.29.69-.14 1.35-.24 1.98-.3Z" fill="#AE78F2"/><path d="M14.1 18.47c.1.07.24.1.42.09.02 0 .04 0 .05.03v.05a.18.18 0 0 1-.08.06.23.23 0 0 0-.11.1 3.6 3.6 0 0 1-.26.37c-.02.03-.03.05-.02.08 0 .01 0 .03.02.04.03.03.06.03.09.01.47-.32.94-.47 1.39-.46.28 0 .29.05.02.14-.42.14-.73.25-.91.33a1.8 1.8 0 0 0-.56.4c-.3.3-.66.56-1.05.77.25-.73.58-1.4 1-2Z" fill="#181F31"/><path d="M27.35 18.96a3.1 3.1 0 0 0-1.84.8c-.55.48-.97.79-1.26.94-.49.25-1 .34-1.52.27l1.53-1.12c0 .05-.02.1-.05.13-.04.05-.02.08.04.08a45.94 45.94 0 0 1 1.47-.95c.2-.13.39-.2.55-.2.1 0 .24-.02.42-.06.24-.06.44-.08.58-.06.09.01.11.07.08.17ZM31.67 19.58c.1.03.21.1.34.2.02.02.02.04.02.06-.01.03-.03.05-.05.05-.16.02-.31 0-.46-.06-1-.41-2.05-.71-3.17-.9.22-.13.5-.15.86-.05.8.23 1.61.47 2.46.7Z" fill="#8B59C7"/><path d="m29.5 19.42-1.23.14-.57-.03c-.96-.03-2.17.67-3.64 2.09a.19.19 0 0 1-.14.05l-1.38-.06c-.08 0-.12-.04-.12-.12v-.08c.01-.1.06-.15.16-.14.6.03 1.14-.06 1.6-.26.35-.16.78-.45 1.3-.89.34-.3.61-.5.82-.6.92-.46 1.99-.49 3.2-.1ZM34.53 20c.02-.06.01-.1-.02-.1-.1-.02-.19 0-.27.05-.39.26-.82.44-1.29.56a.1.1 0 0 1-.1-.03.1.1 0 0 1-.02-.09l.03-.14a6.26 6.26 0 0 1 4.28-.84c.53.1 1.27.38 2.23.87l.4.2.16.13.14.13c.13.19.1.22-.13.1-.9-.45-1.82-.82-2.78-1.11-.42-.13-.84-.2-1.25-.2-.26 0-.72.15-1.38.48Z" fill="#AE78F2"/><path d="m17.77 20.9-2.57 4.9-.52 1.12-.04.01c-.02 0-.03-.01-.02-.04a28.35 28.35 0 0 1 2.09-4.57l1.52-2.7a.08.08 0 0 1 .05-.04l.06-.01c.03 0 .06 0 .08.02.03.03.03.05.01.08l-.66 1.23ZM26.1 21.56l.02.07c.01.07-.02.1-.09.1l-1.56-.07c-.06 0-.07-.03-.03-.08.38-.38.97-.82 1.77-1.32.5-.31 1-.47 1.5-.49a12.72 12.72 0 0 1 4.08 1c.08.04.23.2.47.47.03.04.05.08.04.13l-.01.38c-.01.15-.08.22-.23.21l-2.37-.1c-.05 0-.08-.03-.08-.1l.02-.54a.25.25 0 0 0-.04-.16l-.46-.55c-.14-.18-.33-.3-.54-.38-.9-.31-1.67-.06-2.3.74-.04.04-.11.22-.21.53-.02.06-.01.1.02.16ZM34.39 20.96l-.04.9c0 .05-.04.08-.1.08l-1.65-.07a.05.05 0 0 1-.05-.03l.01-.06c.07-.09.08-.15.05-.2-.04-.04-.03-.08.01-.11 1.03-.7 1.9-1.22 2.6-1.54.35-.15.75-.2 1.2-.14.3.04.74.16 1.3.36.83.3 1.6.62 2.3.99.05.02.07.06.07.11l-.02.52c0 .06-.04.09-.1.08l-1.89-.08v.02l-.01-.55a.72.72 0 0 0-.16-.46 1.9 1.9 0 0 0-.54-.49c-1.15-.56-2.13-.38-2.93.53a.22.22 0 0 0-.05.14Z" fill="#14171A"/><path d="m15.15 20.9-.98 3.53c.03-.22-.04-.38-.2-.48a.31.31 0 0 1-.1-.1c-.18-.28-.46-.41-.85-.4l.02-2.9.01.05c.05.04.1.04.14 0l.81-.46c.05-.03.08-.02.1.04l.04.3c-.05.22.02.26.2.13.15-.11.27-.17.34-.18.3-.06.33.01.08.2-.14.12-.28.21-.4.27-.1.05-.12.12-.05.21l.04.06c.09.1.19.12.3.05l.5-.33Z" fill="#181F31"/><path d="M27.36 20.51c.12 0 .22.03.3.08.04.04.04.07 0 .12a.4.4 0 0 1-.6.02c-.03-.04-.03-.08.02-.12.07-.06.17-.1.28-.1Z" fill="#14171A"/><path d="m15.48 20.82-.19.78a.3.3 0 0 0 0 .15c.14.52.1 1.05-.1 1.58-.01.05 0 .09.05.12.03.02.07.01.1-.03.39-.6.85-.97 1.37-1.1l-.15.28a28.35 28.35 0 0 0-1.94 4.29c-.01.03 0 .04.02.04l.04-.01.52-1.11c.12.55.14 1.11.08 1.68-.02.18.03.33.17.45.04.03.06.08.06.13-.03.3-.02.53.03.7.19.7.35 1.2.48 1.55.02.05.01.1-.03.13-.1.1-.2.16-.3.2-.08.03-.1.01-.07-.06l.14-.3c.02-.06 0-.07-.05-.04a.87.87 0 0 0-.44.49 2.63 2.63 0 0 0-.1.73c-.02.2-.17.6-.46 1.18l-.14.3c-.02.03-.01.05.03.06h.06c.02 0 .04 0 .05-.02.16-.25.47-.78.92-1.6.12-.21.25-.38.38-.5a.13.13 0 0 1 .12-.04c.04 0 .08.03.1.07l.41.82c.15.28.32.52.54.73l.68.63-1.4.65a.1.1 0 0 0-.07.1c0 .03.02.06.06.08l.56.24a59.03 59.03 0 0 0 5.79 2.29l.97.36V36.88c0 .03-.01.04-.04.03l-3.4-1.16a980.04 980.04 0 0 1-4.51-1.9.22.22 0 0 1-.14-.06c-.2-.2-.44-.22-.72-.08-.04.03-.08.02-.12-.02l-.32-.4a.13.13 0 0 0-.12-.05c-.06 0-.11.05-.14.14a.4.4 0 0 0 0 .15.25.25 0 0 0-.08-.07 49.82 49.82 0 0 1-.67-.98c-.04-.06-.02-.13.06-.2l-.03.12c.1.04.17.01.22-.08l.58-1.12c.05-.1.07-.2.06-.27a.54.54 0 0 0-.16-.22c-.04-.05-.04-.09.01-.13.15-.11.35-.24.61-.38.11-.06.23-.18.35-.37l.08-.13c.04-.06.04-.13 0-.19a1.22 1.22 0 0 1-.26-.56c-.05-.35-.1-.55-.11-.59a3.44 3.44 0 0 0-.43-.71.27.27 0 0 1-.05-.14c-.05-.47.05-.88.3-1.23a.1.1 0 0 0 0-.1.09.09 0 0 0-.09-.05c-.11 0-.17-.05-.18-.18-.01-.44-.05-.9-.1-1.36.31-1.02.6-2.07.85-3.15.04-.15.12-.36.26-.62Z" fill="#181F31"/><path d="M17.77 20.9c0 .13.06.19.18.18.05 0 .13-.03.24-.07a.87.87 0 0 1 .37-.07c.24.02.44.14.6.34.05.08.05.15-.01.22-.19.2-.4.4-.65.57-.19.14-.26.3-.21.49.01.05.05.08.1.1l.22.04c.15.03.16.08 0 .13-.2.08-.41.23-.61.45a.07.07 0 0 0-.02.07c.02.03.04.05.07.05.23 0 .47-.13.7-.38l.15-.14c.15-.15.2-.12.14.09a12.37 12.37 0 0 0-.01 1.08 3.13 3.13 0 0 0-.75 2.88c.2.96.48 1.74.84 2.32.32.53.75 1 1.28 1.4.47.36.99.72 1.56 1.08 1.42.92 2.57 1.67 3.45 2.27.47.32 1.14.88 2 1.69l.28.26c.05.18.16.32.32.43l.6.9c.05.06.03.1-.04.1-.5.07-.99.1-1.5.07-.2 0-.34-.12-.43-.33a.77.77 0 0 0-.12-.2.95.95 0 0 0-1-.3c-.32.08-.62.28-.91.6a.2.2 0 0 1-.13.06c-1.05.1-2.03.03-2.94-.2-.07-.34-.4-.66-.99-.96-.14-.08-.21-.2-.22-.37l3.4 1.16c.03 0 .05 0 .05-.03V36.82l-.98-.36a3.68 3.68 0 0 0-.96-.68c-1.32-.7-2.65-1.6-3.98-2.68a42.2 42.2 0 0 1-.68-.64c-.21-.2-.4-.44-.53-.72l-.42-.82a.13.13 0 0 0-.1-.08c-.04 0-.08.01-.12.04-.13.13-.26.3-.37.5-.46.83-.76 1.36-.93 1.6a.05.05 0 0 1-.05.03h-.05c-.05 0-.06-.03-.04-.07l.14-.29c.3-.58.44-.97.46-1.18v-.08c.02-.3.05-.52.1-.65a.87.87 0 0 1 .44-.5c.06-.02.07 0 .05.05l-.14.3c-.03.07 0 .1.06.07a.92.92 0 0 0 .31-.21.11.11 0 0 0 .03-.13c-.13-.34-.3-.86-.48-1.54a2.12 2.12 0 0 1-.03-.7c0-.06-.02-.1-.06-.14a.48.48 0 0 1-.17-.45 5.1 5.1 0 0 0-.08-1.68l2.57-4.91Z" fill="#33303B"/><path d="M36.75 21.51c.17-.03.28-.18.25-.33-.04-.15-.2-.23-.37-.2-.17.04-.29.2-.25.34.03.15.2.23.37.2ZM28.7 21.2v.08a.1.1 0 0 1-.05.06c-.21.16-.44.15-.66-.01l-.02-.01c-.02 0-.03-.02-.03-.04s0-.03.02-.04l.02-.01c.18-.21.4-.26.65-.16a.1.1 0 0 1 .05.05l.02.08Z" fill="#14171A"/><path d="M22.15 21.4c0 .1.04.23.14.36-.79.79-1.54 1.6-2.25 2.45a1 1 0 0 0-.23.5 15.2 15.2 0 0 0 .4 3.22 6.72 6.72 0 0 0 2.6 3.39c.6.4 1.46.97 2.6 1.7.33.2.8.55 1.43 1.03.49.37.98.71 1.47 1.02h-1.2l-.8-.68a9.2 9.2 0 0 0-.85-.63l-4.04-2.63a6.2 6.2 0 0 1-2.49-2.73c-.25-.6-.4-1.2-.43-1.8 0-.07.01-.08.07-.03a.3.3 0 0 1 .09.19l-.02.04c-.08.15-.15.1-.18-.16-.1-.67-.05-1.18.14-1.53.2-.37.53-.82.98-1.36.57-.68 1.43-1.46 2.57-2.36Z" fill="#8B59C7"/><path d="M35.67 21.75c.14.03.27-.01.3-.1.01-.1-.09-.2-.23-.22-.14-.04-.28.01-.3.1-.01.1.09.2.23.22ZM27.38 21.76c.13-.02.23-.09.23-.15-.01-.07-.13-.11-.26-.1-.13.02-.23.09-.22.16 0 .06.12.1.25.09Z" fill="#14171A"/><path d="M24.1 23.23a.16.16 0 0 0-.05.04c-.03.03-.03.07 0 .1.36.5.84.84 1.43 1.03 1.07.35 2.26.55 3.56.6-.64.37-1.2.67-1.7.9-.12.06-.18.13-.2.22a.96.96 0 0 0-.43.18c-.1.08-.09.12.04.11a3.96 3.96 0 0 0 1.39-.4 16.39 16.39 0 0 0 3.33-1.8c.49-.2.78-.54.88-1.03l.13-.77c0-.05-.01-.1-.06-.14-.04-.03-.04-.07 0-.1a.18.18 0 0 1 .11-.03l7.44-.1c.08 0 .1.04.08.12a.87.87 0 0 1-.24.4 14 14 0 0 0-1.34 1.46c-.12.15-.42.34-.9.58-.96.47-2.02.74-3.19.82a.53.53 0 0 1-.26-.08c-.5-.25-.9-.44-1.2-.57a.14.14 0 0 0-.16.02l-.04.04c-.04.03-.04.07.01.1l2.02 1.1c0 .12.13.23.35.32.07.02.1 0 .13-.06a.1.1 0 0 0 0-.06c-.05-.13-.01-.2.09-.23l1.85-.45a5.35 5.35 0 0 1 1.45 2.73c.01.05 0 .08-.05.1-.41.26-.76.59-1.05.98a.44.44 0 0 1-.31.18c-2.5.32-5 .25-7.5-.2-1.22-.22-2.42-.6-3.6-1.14-.38-.19-.89-.49-1.5-.91a1.67 1.67 0 0 0-.65-.3c-.49-.08-.93-.05-1.33.07-.51.15-.8.45-.85.88-.03.24.03.5.18.8.2.4.46.74.78 1.02-.03.2.13.42.46.67.74.55 1.42.97 2.05 1.26a18.91 18.91 0 0 0 7.7 1.76c.6.01 1.22.03 1.87.07-.2.44-.58.75-1.15.93-.13.04-.6.13-1.4.28-1.28.24-2.6.35-3.96.34-.5-.3-.98-.65-1.46-1.02a21.8 21.8 0 0 0-1.43-1.03c-1.14-.73-2.01-1.3-2.6-1.7a6.72 6.72 0 0 1-2.76-3.99 15.2 15.2 0 0 1-.25-2.63c.03-.18.1-.34.23-.49.72-.85 1.47-1.66 2.25-2.45.03.08.1.12.22.12 3.16.06 6.38.17 9.65.32.04 0 .06.02.06.06-.01.38-.08.74-.2 1.1-.1.32-.35.52-.76.59-1.54.25-2.96.31-4.26.19a6.93 6.93 0 0 1-1.43-.26c-.42-.13-.8-.37-1.15-.7a.25.25 0 0 0-.16-.08c-.22-.02-.28.03-.17.13Z" fill="#AE78F2"/><path d="M24.1 23.23c.62.58 1.32.92 2.08 1.05 1.33.2 2.54.25 3.64.1l1.65-.18a16.4 16.4 0 0 1-3.51 1.88c-.52.21-.92.32-1.21.33-.13 0-.14-.03-.04-.1.12-.1.26-.16.44-.19.08.05.18.05.29 0a146.2 146.2 0 0 0 3.14-1.58c.06-.19 0-.24-.19-.16l-1.35.62c-1.3-.05-2.5-.25-3.56-.6a2.8 2.8 0 0 1-1.43-1.03c-.03-.03-.03-.07 0-.1a.16.16 0 0 1 .04-.04Z" fill="#8B59C7"/><path d="M13.01 23.45c.4-.02.68.12.85.4l.1.1c.17.1.24.25.2.48l-.18.51c-.02.06-.04.06-.07 0-.11-.18-.26-.33-.45-.43a.17.17 0 0 0-.16 0c-.05.03-.07.07-.07.12l.03.06c.03.03.05.08.06.12a7 7 0 0 1 0 2.51c-.02.05-.01.1.01.15a.2.2 0 0 1 .01.1c0 .09.02.1.08.04l.08-.1c.12-.3.18-.28.18.03l-.01.35c-.02.39 0 .69.08.9.04.1.07.28.1.54 0 .06-.01.1-.07.14l-.47.27c-.06.04-.1.02-.1-.04a3.99 3.99 0 0 1-.02-.75c.01-.38 0-.66-.06-.85-.08-.28-.12-.5-.12-.67v-3.98Z" fill="#353247"/><path d="M27.15 26.12c.01-.1.07-.17.19-.22.5-.23 1.06-.53 1.7-.9l1.35-.62c.19-.08.25-.03.19.16a146.2 146.2 0 0 1-3.14 1.58c-.11.05-.21.05-.3 0Z" fill="#FEFDFE"/><path d="m13.57 32.28.29-.72a2 2 0 0 0 .14-.73c0-.22.02-.45.04-.68l.18-.65c.06-.23.07-.47.02-.71a3.8 3.8 0 0 1-.12-.66 65.22 65.22 0 0 1 0-2.84c.01-.15.1-.39.25-.7.05.47.09.92.1 1.36 0 .13.07.18.18.18.04 0 .07.01.1.05a.1.1 0 0 1-.02.1c-.24.35-.34.76-.3 1.23.01.05.03.1.06.14.2.26.34.5.43.71.02.04.06.24.12.59.03.2.11.4.25.56.04.06.05.13 0 .19l-.08.13c-.12.19-.24.3-.34.37-.27.14-.47.27-.62.38-.05.04-.05.08 0 .13.08.09.13.16.15.22.01.07 0 .16-.06.27l-.58 1.12c-.05.09-.12.12-.22.08l.03-.12Z" fill="#3A385A"/><path d="m37.17 25.55-1.85.45c-.1.03-.13.1-.1.23a.1.1 0 0 1 0 .06c-.01.06-.05.08-.12.06-.22-.1-.34-.2-.35-.32.24 0 .23-.1-.02-.29-.05-.04-.04-.07.02-.08l2.03-.42c.06-.01.11 0 .16.05l.23.26Z" fill="#8B59C7"/><path d="M35.62 30.91a3.96 3.96 0 0 0-.7 0c-.32.03-.55.04-.71.03l-2.32-.13a22.68 22.68 0 0 1-4.41-.8c-.91-.27-2.1-.8-3.55-1.58a.18.18 0 0 0-.15-.01c-.1.03-.16.1-.2.18.17.2.33.35.47.44 1.27.75 2.55 1.28 3.83 1.6 2.35.58 4.75.83 7.22.75.03 0 .05 0 .07.03.01.03.02.05 0 .08-.1.23-.17.48-.18.74-1.9.03-3.8-.1-5.69-.37a16.48 16.48 0 0 1-3.25-.77 9.7 9.7 0 0 1-2.9-1.65 3.6 3.6 0 0 1-.45-.45c-.16-.2-.27-.36-.33-.5a1.5 1.5 0 0 1-.06-.62c0-.06-.03-.08-.08-.08-.09 0-.13-.04-.12-.12.45-.4 1-.56 1.65-.47.3.05.66.23 1.1.55.25.17.43.29.56.36 1.48.78 3.02 1.3 4.61 1.54 2.23.35 4.54.4 6.94.16.07 0 .08.01.02.05l-1.37 1.04Z" fill="#38C2FD"/><path d="M22.1 27.68c0 .08.04.12.13.12.06 0 .08.02.08.08-.02.25 0 .45.07.61.05.14.16.31.33.51.14.17.29.32.44.45a9.7 9.7 0 0 0 2.9 1.65c.92.33 2 .59 3.26.77 1.88.28 3.78.4 5.68.37.02.15-.03.22-.16.22a31.2 31.2 0 0 1-7.6-.75 12.37 12.37 0 0 1-3.06-1.18 4.55 4.55 0 0 1-2.06-2.08c-.1-.21-.1-.47 0-.77Z" fill="#0183C5"/><path d="M35.62 30.91c-.1.13-.22.2-.33.2-2.62.14-5.2-.14-7.73-.84a13.23 13.23 0 0 1-3.7-1.68c-.04-.02-.13-.02-.28 0 .04-.08.1-.14.2-.17.05-.02.1-.01.15.01 1.45.79 2.64 1.31 3.55 1.57 1.5.43 2.97.7 4.42.8.37.04 1.14.08 2.31.14.16.01.4 0 .7-.03.24-.02.47-.02.71 0Z" fill="#0183C5"/><path d="M39.35 29.23c-.1.47-.29.83-.57 1.08l-1.04.89c-.34.3-.37.77-.07 1.41.22.48.51.92.88 1.34.37.43.77.58 1.19.48.24-.06.44-.25.6-.56.34-.67.34-1.33 0-1.98-.18-.28.12-.54.9-.76.19-.05.36 0 .53.18.14.14.23.32.29.52.04.15-.02.37-.17.66-.12.22-.25.42-.4.59-.08.1-.06.16.08.16.1 0 .2-.08.3-.25.25-.04.46-.22.63-.55.03-.06.01-.1-.06-.11l-.06-.02c.13-.04.24-.03.34.04.38.3.58.68.59 1.16 0 .1-.04.17-.1.23l-.8.66c-.09.06-.07.1.02.1.1.02.23-.03.38-.14.16.05.34.04.51-.04.05-.02.1-.02.15 0 .13.03.18 0 .16-.07.18.47.17.85-.01 1.14a1.57 1.57 0 0 1-1.2.27 1.62 1.62 0 0 0-.46-.01.43.43 0 0 0-.33.27l-.24.61c0 .03-.03.05-.06.05-.02 0-.05 0-.07-.02-.22-.27-.47-.34-.77-.2-.18.08-.4.26-.68.56-.04.04-.08.04-.11 0-.22-.28-.5-.34-.83-.19-.29.13-.5.35-.67.66-.03.05-.07.06-.11.02a.86.86 0 0 0-.9-.16c-.3.1-.54.31-.73.63a.26.26 0 0 0-.04.14c0 .1-.04.2-.14.3a.11.11 0 0 0-.03.06l-.01.35c0 .06-.04.08-.09.08-.12-.02-.18-.07-.2-.15a3.61 3.61 0 0 0-1-2.08c-.36-.35-.73-.7-1.13-1.05a5.04 5.04 0 0 0 1.46-3.22c.03-.3.06-.51.1-.65a.94.94 0 0 1 .39-.54 9.7 9.7 0 0 0 1.92-1.62c.27-.33.48-.56.65-.68.3-.23.55-.26.76-.1.18.15.26.31.25.5Z" fill="#AE78F2"/><path d="M39.35 29.23c.17.53.03 1-.44 1.37-.37.3-.67.6-.9.87a.95.95 0 0 0-.2.43.92.92 0 0 0 .03.5c.23.64.6 1.12 1.09 1.45.27.18.53.25.77.2.26-.04.43-.23.52-.55.11-.4.15-.94.12-1.6.34.64.34 1.3 0 1.97-.16.31-.35.5-.6.56-.42.1-.82-.05-1.19-.48a5.57 5.57 0 0 1-.88-1.34c-.3-.64-.27-1.1.07-1.41l1.04-.9c.28-.24.47-.6.57-1.07ZM34.82 33.52c-.65-.04-1.27-.06-1.87-.07-2.7-.05-5.26-.63-7.7-1.76-.63-.3-1.31-.71-2.05-1.26-.33-.25-.49-.47-.46-.68 1.28 1.21 3.18 2.03 5.71 2.47 2.12.37 4.27.53 6.44.5.03 0 .06.01.07.04.01.02.01.05 0 .07-.11.19-.16.41-.14.69Z" fill="#8B59C7"/><path d="M39.17 30.97c-.19.2-.38.36-.57.51-.34.27-.43.58-.29.93.12.29.3.55.55.8.3.3.57.4.8.29a.15.15 0 0 0 .08-.12c.04-.28.14-.48.3-.59.05.38-.04.7-.26.95a.18.18 0 0 1-.12.07c-.46.04-.91-.3-1.37-1.03a1.19 1.19 0 0 1-.19-.88c.1-.48.45-.79 1.07-.93Z" fill="#8B59C7"/><path d="M40.04 32.8c-.16.1-.25.3-.3.58 0 .06-.03.1-.08.12-.23.11-.5.02-.8-.3a2.46 2.46 0 0 1-.55-.79c-.14-.35-.05-.66.29-.93.2-.15.38-.32.57-.5.44.05.71.28.81.68.1.37.11.75.06 1.13Z" fill="#AE78F2"/><path d="m42.38 32.31.06.02c.07.01.1.05.06.11-.17.33-.38.51-.63.55a9.91 9.91 0 0 1 .42-.67.15.15 0 0 1 .1 0Z" fill="#8B59C7"/><path d="M14.16 33.77c-.07.29-.05.57.06.85.05.12.07.28.05.48-.01.25.11.44.39.56.2.1.45.14.75.14.41 0 .84-.03 1.3-.08 2 1.03 4.16 1.63 6.5 1.8.38.03.72.03 1 0 .05 0 .06.01.03.06l-.37.54c-.03.03-.02.05.02.05h.07c.05 0 .1-.01.13-.06.43-.55.78-.92 1.07-1.1.59-.37 1.04-.28 1.37.27.09.15.08.35-.01.59-.36.9-.63 1.78-.8 2.63 0 .07.02.09.1.07l.05-.02c.05-.02.08-.06.1-.13.1-.67.25-1.23.43-1.67.14-.33.25-.67.34-1.05.01-.04.04-.06.08-.05 1.2.06 2.4-.1 3.61-.5a4.22 4.22 0 0 0 .86-.41c.12-.07.28-.1.48-.1.28 0 .5-.1.64-.3a.27.27 0 0 1 .12-.1c.38-.14.79-.09 1.24.16-.08.35-.13.8-.15 1.35a2.1 2.1 0 0 1-.59 1.43c-.21.22-.62.49-1.2.8-.52.28-.9.52-1.13.72a.3.3 0 0 0-.11.2c0 .09.01.16.07.22l.37.47c.05.06.04.09-.03.1l-1.6.2.04-1.18c0-.06-.03-.1-.09-.1l-.08-.03c-.05 0-.09.02-.09.08l-.02 1.2-2.72.17a7.43 7.43 0 0 1-2.94-.53c-.51-.2-.98-.64-1.4-1.36a.13.13 0 0 0-.13-.07c-.05 0-.09 0-.12.02-.05.03-.08.06-.09.1l-.14.68c0 .03-.03.06-.06.06-.04.01-.07 0-.09-.02l-.33-.42a.18.18 0 0 0-.16-.07.18.18 0 0 0-.16.09l-.57.83a.1.1 0 0 1-.1.05.1.1 0 0 1-.1-.06c-.3-.49-.71-.86-1.24-1.11a.24.24 0 0 1-.14-.2.24.24 0 0 1 .1-.22l.38-.32a.13.13 0 0 0 .05-.1.14.14 0 0 0-.05-.12 2.62 2.62 0 0 0-1.98-.57c-.28.03-.42.2-.42.47 0 .16.05.4.16.72l.05.19c.02.06 0 .09-.06.1l-.46.1c-.05 0-.1 0-.13-.04a6.8 6.8 0 0 1-1.11-1.13c-.4-.56-.76-.99-1.1-1.26a.42.42 0 0 1-.2-.24c.16-.1.3-.22.45-.33.16-.12.42-.23.77-.34.22-.07.38-.13.49-.18.12-.06.12-.1-.02-.13-.36-.07-.93.16-1.7.7-.04.02-.06.07-.06.14l-.49-.8.26.31c.15.18.31.19.49.01l.56-.55c.05-.05.04-.08-.03-.1l-.3-.06a.03.03 0 0 1-.03-.02v-.05l.03-.03.24-.1a.08.08 0 0 0 .05-.07.08.08 0 0 0-.05-.09l-.36-.16a.18.18 0 0 1-.11-.18l.02-.6c0-.06-.03-.1-.1-.1-.07-.01-.15 0-.25.04-.05.01-.07.05-.04.1.11.23.15.43.1.58-.11.3-.16.29-.16-.02v-.15a.1.1 0 0 0-.06-.1.11.11 0 0 0-.12 0 1 1 0 0 1-.4.16c-.05.02-.08 0-.08-.07l.01-2.07c0-.05.02-.1.06-.13l.33-.27c.06-.04.1-.04.14.02l.62.81Z" fill="#353247"/><path d="M17.86 33.1a24.86 24.86 0 0 0 3.98 2.68c.42.21.73.44.96.68a59.03 59.03 0 0 1-6.35-2.53.1.1 0 0 1-.06-.09.1.1 0 0 1 .06-.1l1.4-.64ZM20.33 35.75c0 .17.08.3.22.37.59.3.92.62 1 .97-1.44-.22-2.76-.61-3.97-1.17a10.07 10.07 0 0 1-3.32-2.39.4.4 0 0 1 0-.15c.03-.09.08-.13.14-.14.05 0 .1.01.12.05l.32.4c.04.04.08.05.13.02.27-.14.51-.12.71.08.04.04.09.06.14.07a987.02 987.02 0 0 0 4.51 1.9ZM14.16 33.77l.56.56a.88.88 0 0 0-.16.74c.04.19.18.29.4.31.06 0 .1-.02.1-.07a.62.62 0 0 0-.08-.5.1.1 0 0 1 0-.1.1.1 0 0 1 .09-.05h.04l1.59 1.06c-.45.05-.88.08-1.3.08-.29 0-.54-.05-.74-.14-.28-.12-.4-.3-.39-.56.02-.2 0-.36-.05-.48a1.36 1.36 0 0 1-.06-.85Z" fill="#3A385A"/><path d="M43.63 34.25c.03.08-.03.1-.16.06a.21.21 0 0 0-.15.01.77.77 0 0 1-.51.04c.25-.22.45-.34.62-.36.12-.02.19.06.2.25Z" fill="#8B59C7"/><path d="M15.1 34.66h-.03a.1.1 0 0 0-.1.05.1.1 0 0 0 .01.1c.1.15.12.32.08.5 0 .05-.04.08-.1.07-.22-.02-.36-.12-.4-.3a.88.88 0 0 1 .16-.75l.39.33Z" fill="#181F31"/><path d="M31.21 35.45c-.96.12-1.93.2-2.9.26-.24.02-.41.01-.51-.02a.43.43 0 0 1-.31-.33c1.47 0 2.94-.1 4.4-.28.06 0 .06 0 .01.04l-.29.12c-.2.07-.33.14-.4.21ZM43.62 35.4c-.12.34-.35.57-.7.69a.2.2 0 0 1-.14 0c-.39-.15-.72-.09-1 .2-.19.17-.25.54-.21 1.1v.1c0 .05-.01.07-.05.07-.03 0-.04-.02-.05-.05-.16-.41-.42-.63-.78-.66-.38-.03-.66.16-.86.56-.03.05-.06.05-.1.02-.6-.39-1.08-.22-1.46.52 0 .02-.02.02-.04 0a1.32 1.32 0 0 0-.6-.3c-.25-.04-.44.05-.58.27-.3.45-.36 1.16-.18 2.13l.05.1c.03.04.03.08-.01.1-.39.34-.91.53-1.58.6.13-.54.17-1.01.1-1.42-.1-.63-.29-1.3-.58-1.98a2.67 2.67 0 0 0-1.41-1.46l.38-.46c.4.35.77.7 1.12 1.05.56.56.9 1.25 1.02 2.08.01.08.07.13.2.15.05 0 .07-.02.08-.08l.01-.34c0-.03.01-.06.03-.08.1-.1.15-.2.14-.29 0-.05.02-.1.04-.14.2-.32.43-.53.73-.63a.86.86 0 0 1 .9.16c.04.04.08.03.11-.02.16-.3.38-.52.67-.66.33-.15.6-.09.83.18.03.05.07.05.11 0 .28-.28.5-.47.68-.56.3-.13.55-.06.77.2.02.03.05.04.07.03.03 0 .05-.02.06-.05l.24-.6a.43.43 0 0 1 .33-.28c.1-.02.25-.02.47.01l.27.03c.32 0 .62-.1.92-.3Z" fill="#8B59C7"/><path d="M28.01 36.38a.76.76 0 0 1-.32-.43c.1.1.2.11.27.04a.2.2 0 0 1 .13-.05h.21c.23 0 .4 0 .52-.03.48-.08.93-.12 1.35-.11.13 0 .32-.03.57-.1l.23-.05c.24-.05.36.05.35.3 0 .09.03.2.1.37.03.04.02.07-.02.1-.76.54-1.6.84-2.54.91a.1.1 0 0 1-.11-.05l-.64-1.1c-.04-.08-.09-.08-.15-.02-.04.05-.02.12.05.22Z" fill="#181F31"/><path d="M43.12 36.37c-.04-.05-.03-.09.03-.12l.31-.18c.06-.03.09-.02.1.04.11.34.13.64.07.9-.1.38-.17.38-.19-.02 0-.07-.11-.27-.32-.62ZM42.8 36.35c-.42.05-.62.17-.63.35l.01 1.15c0 .25.06.48.15.7l.3.66c-.43.1-.72-.29-.87-1.19-.03-.2 0-.6.07-1.19.03-.27.13-.44.28-.5.18-.1.41-.1.68.02Z" fill="#8B59C7"/><path d="M42.63 39.2a9.36 9.36 0 0 1-.3-.65 1.92 1.92 0 0 1-.15-.7V36.7c0-.18.2-.3.61-.35.36.5.55 1.1.58 1.79.03.65-.22 1-.74 1.07Z" fill="#AE78F2"/><path d="M34.18 39.54a5.7 5.7 0 0 0-.2.65c-.06.29-.14.5-.24.62-.2.25-.44.46-.73.63-.18.11-.47.25-.87.42-.1.04-.12.1-.05.17.03.03.07.05.12.05h1.5a15.25 15.25 0 0 1-5.76 3.61l-.82.31c-.96-.11-1.82-.27-2.57-.48a18.3 18.3 0 0 1-5.95-2.86 17.16 17.16 0 0 1-4.51-4.82c.34.27.7.7 1.1 1.26.2.29.57.67 1.1 1.14.05.03.09.04.14.03l.46-.1c.06 0 .08-.04.07-.1l-.06-.19c-.11-.32-.16-.56-.16-.72 0-.28.14-.44.42-.47.72-.08 1.37.1 1.98.57.03.03.05.07.05.11 0 .05-.02.09-.05.11l-.38.32a.24.24 0 0 0-.1.22c.02.1.06.16.15.2.52.25.93.62 1.24 1.11a.1.1 0 0 0 .1.06.1.1 0 0 0 .09-.05l.58-.83a.18.18 0 0 1 .15-.09c.06 0 .12.02.16.07l.33.42c.02.02.05.03.09.02.03 0 .05-.03.06-.06l.14-.68c.01-.04.04-.07.09-.1a.27.27 0 0 1 .13-.02c.05 0 .09.03.12.07.42.72.89 1.17 1.4 1.36 1.11.4 2.09.58 2.94.53l2.72-.18-.02.16c-.01.07.02.1.08.1a.3.3 0 0 0 .13-.02c.02 0 .04-.04.05-.08v-.11l1.6-.21c.07-.01.08-.04.04-.1l-.38-.47a.3.3 0 0 1-.07-.22.3.3 0 0 1 .1-.2c.24-.2.62-.44 1.14-.72.59-.3.99-.58 1.2-.8.36-.37.56-.85.59-1.43.02-.55.07-1 .15-1.35a4.62 4.62 0 0 1 1.21 4.7.35.35 0 0 1-.23.24l-.04.01c-.1.04-.14 0-.11-.1.06-.25.07-.49.05-.7l-.3-1.89c-.02-.1-.05-.16-.09-.2a.22.22 0 0 0-.16-.03c-.06 0-.09.04-.08.1l.16 1Z" fill="#33303B"/><path d="m13.9 37.6-.07-.14c0-.07.02-.12.06-.14.77-.54 1.34-.77 1.7-.7.14.03.14.07.02.13-.1.05-.27.11-.5.18-.34.11-.6.22-.76.35l-.44.32Z" fill="#14171A"/><path d="M41.18 40.05c-.18-.04-.3-.1-.4-.16-.07-.05-.1-.17-.1-.35a3.1 3.1 0 0 0-.61-1.93c-.03-.26.13-.43.49-.5.26-.05.5.13.74.56a8.22 8.22 0 0 1 .57 1.64c-.12.41-.36.66-.7.74ZM39.03 40.63l-.34-2.88c.42-.45.77-.4 1.03.16.3.62.41 1.3.36 2.07-.03.3-.13.5-.3.58-.18.1-.43.12-.75.07Z" fill="#AE78F2"/><path d="M40.06 37.61c.42.58.63 1.22.61 1.93 0 .18.04.3.12.35.08.07.21.12.39.16-.28.14-.53.17-.75.08-.05-.02-.07-.06-.07-.11.05-.7-.05-1.37-.3-2.02a.54.54 0 0 1 0-.39ZM39.03 40.63a.73.73 0 0 1-.33-.15.12.12 0 0 1-.06-.12 3.9 3.9 0 0 0-.02-1.24 3.73 3.73 0 0 1-.12-.7c-.01-.27.05-.49.19-.67l.34 2.88ZM37.98 38.08c-.39-.02-.6.05-.65.23-.18.64-.11 1.24.19 1.82.06.12.23.22.5.3.04.01.1 0 .13-.03l.07-.05a.07.07 0 0 1 .06-.01c.07.01.1.07.08.16-.17.27-.42.33-.77.18-.31-.14-.49-.53-.53-1.16-.04-.5 0-.94.11-1.32.05-.16.17-.26.35-.3.1-.02.26.04.46.18Z" fill="#8B59C7"/><path d="M38.36 40.5c.01-.1-.01-.15-.08-.16-.03-.01-.05 0-.07.01l-.06.05a.15.15 0 0 1-.14.03c-.26-.08-.43-.18-.5-.3a2.42 2.42 0 0 1-.19-1.82c.05-.18.27-.25.66-.23.4.65.52 1.46.38 2.42Z" fill="#AE78F2"/><path d="M34.18 39.54c.15.7.18 1.4.07 2.07 0 .04 0 .06.03.08l.03.03c.04.02.03.04 0 .06l-.6.3h-1.5a.15.15 0 0 1-.12-.05c-.07-.07-.05-.13.05-.17.4-.17.69-.3.87-.42.3-.17.53-.38.73-.63.1-.13.18-.33.25-.62.05-.22.11-.44.19-.65Z" fill="#181F31"/><path d="M29.4 41.9a.5.5 0 0 1 0 .1c0 .05-.03.08-.05.1a.3.3 0 0 1-.13.01c-.06 0-.1-.03-.08-.1l.02-.16.02-1.2c0-.05.04-.08.1-.07l.07.02c.06.01.1.05.09.11l-.03 1.19Z" fill="#14171A"/><defs><linearGradient id="a" x1="10.42" y1="9.71" x2="68.15" y2="76.02" gradientUnits="userSpaceOnUse"><stop stop-color="#1A1E21"/><stop offset="1" stop-color="#06060A"/></linearGradient></defs></svg>