<!-- by TradingView --><svg width="56" height="56" viewBox="0 0 56 56" xmlns="http://www.w3.org/2000/svg"><path fill="#FF6E00" d="M0 0h56v56H0z"/><path d="M19.57 30.13h1.56a.11.11 0 0 0 .11-.11V26.6a.11.11 0 0 1 .11-.1h1.62a.11.11 0 0 0 .11-.12v-1.56a.11.11 0 0 0-.11-.11h-3.4a.11.11 0 0 1-.11-.11v-5.24a.11.11 0 0 0-.11-.1h-1.62a.11.11 0 0 1-.07-.04.11.11 0 0 1-.04-.08v-5.2a.11.11 0 0 1 .11-.1h1.62a.11.11 0 0 0 .1-.12v-1.6a.11.11 0 0 1 .08-.11l.04-.01h12.45a.11.11 0 0 1 .11.11v1.62a.11.11 0 0 0 .11.1h1.6a.11.11 0 0 1 .12.12v5.18a.11.11 0 0 0 .1.12h1.58a.11.11 0 0 1 .11.1v7.03a.11.11 0 0 0 .11.11h1.61a.11.11 0 0 1 .11.11v5.25a.11.11 0 0 0 .12.1h1.56a.11.11 0 0 1 .11.12v1.58a.11.11 0 0 0 .11.1h3.4a.11.11 0 0 1 .12.12v5.23a.11.11 0 0 1-.11.11h-1.57a.11.11 0 0 0-.12.11v1.57a.11.11 0 0 1-.1.11h-27a.11.11 0 0 1-.1-.11V35.7a.11.11 0 0 1 .1-.11h1.62a.11.11 0 0 0 .1-.11v-1.61a.11.11 0 0 1 .12-.11h1.57a.11.11 0 0 0 .11-.11v-1.57a.11.11 0 0 1 .11-.11h1.62a.11.11 0 0 0 .1-.11v-1.62a.11.11 0 0 1 .12-.11Z" fill="#fff"/><path d="M28.5 15.54v-1.6a.1.1 0 0 1 .1-.1h1.64a.1.1 0 0 1 .1.1v1.6a.1.1 0 0 0 .1.1h1.59a.1.1 0 0 1 .1.09v5.26a.1.1 0 0 0 .1.1h1.63a.1.1 0 0 1 .1.1v7.06a.1.1 0 0 0 .1.1h1.6a.1.1 0 0 1 .1.1v5.2a.1.1 0 0 0 .1.1h1.62a.1.1 0 0 1 .1.1v3.43a.1.1 0 0 0 .1.1h1.59a.1.1 0 0 1 .1.1v1.64a.1.1 0 0 1-.1.1h-5.21a.1.1 0 0 1-.1-.1v-1.65a.1.1 0 0 0-.1-.1h-1.63a.1.1 0 0 1-.1-.1V35.7a.1.1 0 0 1 .1-.1h1.63a.1.1 0 0 0 .1-.1v-1.64a.1.1 0 0 0-.1-.1h-1.63a.1.1 0 0 1-.1-.1v-1.59a.1.1 0 0 0-.1-.1h-8.86a.1.1 0 0 1-.1-.1v-3.42a.1.1 0 0 1 .1-.1h1.6a.1.1 0 0 1 .1.1v1.6a.1.1 0 0 0 .1.1h7.06a.1.1 0 0 0 .1-.1v-1.6a.1.1 0 0 0-.1-.1h-1.6a.1.1 0 0 1-.1-.1v-5.27a.1.1 0 0 0-.09-.1h-1.65a.1.1 0 0 0-.1.1v1.64a.1.1 0 0 1-.1.1H26.8a.1.1 0 0 1-.1-.1v-1.64a.1.1 0 0 0-.1-.1h-1.63a.1.1 0 0 1-.1-.1v-1.59a.1.1 0 0 0-.1-.1h-1.6a.1.1 0 0 1-.1-.1v-1.63a.1.1 0 0 1 .1-.1h3.44a.1.1 0 0 0 .1-.1v-3.42a.1.1 0 0 0-.1-.1h-5.27a.1.1 0 0 1-.1-.1v-1.6a.1.1 0 0 1 .1-.1h5.27a.1.1 0 0 1 .1.1v1.6a.1.1 0 0 0 .1.1h1.59a.1.1 0 0 0 .1-.1Z" fill="#FF6E00"/><path d="M21.15 15.63h-1.6a.1.1 0 0 0-.1.12v1.6c0 .05.05.1.1.1h1.6c.06 0 .11-.05.11-.11v-1.6a.1.1 0 0 0-.11-.1Z" fill="#FF6E00"/><path d="M30.24 17.46h-1.65a.1.1 0 0 0-.1.1v1.6c0 .05.05.09.1.09h1.65a.1.1 0 0 0 .1-.1v-1.6a.1.1 0 0 0-.1-.09ZM28.38 19.25h-1.56a.12.12 0 0 0-.12.11v1.6c0 .06.05.12.11.12h1.56c.07 0 .12-.05.12-.11v-1.6a.12.12 0 0 0-.1-.12ZM32.02 21.09l-1.57-.01a.11.11 0 0 0-.11.11l-.01 1.57c0 .06.05.11.11.11l1.57.01c.06 0 .11-.05.12-.11V21.2a.11.11 0 0 0-.11-.11Z" fill="#fff"/><path d="M26.6 24.7h-1.64a.09.09 0 0 0-.09.1v3.46c0 .05.04.09.09.09h1.65c.05 0 .09-.04.09-.1V24.8a.09.09 0 0 0-.1-.09ZM21.35 31.97h1.62a.1.1 0 0 1 .1.1v3.43a.1.1 0 0 0 .1.1h3.42a.1.1 0 0 1 .1.1v1.57a.1.1 0 0 0 .11.1h1.59a.1.1 0 0 1 .1.1v1.64a.1.1 0 0 1-.1.1h-5.21a.1.1 0 0 1-.1-.1v-1.63a.1.1 0 0 0-.1-.1h-5.25a.1.1 0 0 1-.1-.1V35.7a.1.1 0 0 1 .1-.1h3.41a.1.1 0 0 0 .1-.1v-3.43a.1.1 0 0 1 .11-.1ZM41.11 35.6h-1.63a.1.1 0 0 0-.1.1l-.01 1.56c0 .06.05.1.1.1h1.64a.1.1 0 0 0 .1-.1V35.7a.1.1 0 0 0-.1-.1ZM17.52 37.37l-1.58.01a.1.1 0 0 0-.1.1v1.63c0 .06.05.11.1.11h1.59a.1.1 0 0 0 .1-.11v-1.63a.1.1 0 0 0-.1-.1Z" fill="#FF6E00"/></svg>