<?xml version="1.0" encoding="UTF-8"?>
<svg version="1.1" xmlns="http://www.w3.org/2000/svg" width="64" height="64">
<path d="M0 0 C2.94998615 1.53375774 3.68385288 2.27577931 5.625 5.1875 C5.625 6.1775 5.625 7.1675 5.625 8.1875 C6.8934375 8.4659375 6.8934375 8.4659375 8.1875 8.75 C14.42426391 11.35810127 19.20160329 16.58320953 21.9609375 22.76171875 C24.31177355 31.34918457 23.27809623 39.49076944 19.20703125 47.296875 C17.26012964 49.6235426 15.48403417 50.2841413 12.625 51.1875 C12.625 52.1775 12.625 53.1675 12.625 54.1875 C6.81063742 58.44011002 -0.59528689 60.51522079 -7.75390625 59.89453125 C-9.83711184 59.52100823 -11.91324445 59.10396387 -13.9765625 58.6328125 C-16.37776751 57.93764421 -16.37776751 57.93764421 -18.375 59.1875 C-26.41327265 56.91943967 -33.70311378 51.69207259 -37.8125 44.375 C-40.91546258 37.19939903 -41.11264438 30.46403179 -38.24609375 23.21484375 C-37.95863281 22.54582031 -37.67117187 21.87679688 -37.375 21.1875 C-36.983125 20.135625 -36.59125 19.08375 -36.1875 18 C-33.43786264 13.73332133 -29.22978968 9.86817939 -24.1796875 8.6640625 C-23.58414062 8.50679687 -22.98859375 8.34953125 -22.375 8.1875 C-21.70058869 6.5239521 -21.0349679 4.85683058 -20.375 3.1875 C-14.26895746 -2.44884696 -7.49294017 -3.5758658 0 0 Z " fill="#2D2F46" transform="translate(40.375,2.8125)"/>
<path d="M0 0 C2.94998615 1.53375774 3.68385288 2.27577931 5.625 5.1875 C5.625 6.1775 5.625 7.1675 5.625 8.1875 C6.470625 8.373125 7.31625 8.55875 8.1875 8.75 C14.42426391 11.35810127 19.20160329 16.58320953 21.9609375 22.76171875 C24.33102609 31.41951296 23.25473641 39.55160981 19.109375 47.39453125 C17.36625668 49.5000347 16.29230871 49.83983797 13.625 50.1875 C13.42359524 46.56221432 13.76723235 44.32248292 15.625 41.1875 C14.965 41.1875 14.305 41.1875 13.625 41.1875 C13.295 40.1975 12.965 39.2075 12.625 38.1875 C12.955 37.8575 13.285 37.5275 13.625 37.1875 C12.635 36.6925 12.635 36.6925 11.625 36.1875 C11.625 34.5375 11.625 32.8875 11.625 31.1875 C11.295 31.8475 10.965 32.5075 10.625 33.1875 C9.965 33.1875 9.305 33.1875 8.625 33.1875 C8.8725 32.61 9.12 32.0325 9.375 31.4375 C9.4575 30.695 9.54 29.9525 9.625 29.1875 C7.77067913 26.91605926 7.77067913 26.91605926 5.625 25.1875 C6.615 21.7225 6.615 21.7225 7.625 18.1875 C6.305 17.8575 4.985 17.5275 3.625 17.1875 C3.625 14.8775 3.625 12.5675 3.625 10.1875 C2.305 12.8275 0.985 15.4675 -0.375 18.1875 C0.285 18.5175 0.945 18.8475 1.625 19.1875 C1.32058521 22.73900592 0.64906007 24.15888802 -1.6875 26.9375 C-4.11979578 28.97384065 -5.29500563 29.8452784 -8.375 30.1875 C-8.375 29.1975 -8.375 28.2075 -8.375 27.1875 C-7.055 27.1875 -5.735 27.1875 -4.375 27.1875 C-4.375 26.5275 -4.375 25.8675 -4.375 25.1875 C-6.025 25.1875 -7.675 25.1875 -9.375 25.1875 C-9.705 25.8475 -10.035 26.5075 -10.375 27.1875 C-13.375 22.5625 -13.375 22.5625 -13.375 19.1875 C-11.725 18.5275 -10.075 17.8675 -8.375 17.1875 C-10.025 15.5375 -11.675 13.8875 -13.375 12.1875 C-12.715 11.8575 -12.055 11.5275 -11.375 11.1875 C-11.705 10.5275 -12.035 9.8675 -12.375 9.1875 C-13.035 9.1875 -13.695 9.1875 -14.375 9.1875 C-14.375 8.5275 -14.375 7.8675 -14.375 7.1875 C-15.035 6.8575 -15.695 6.5275 -16.375 6.1875 C-16.045 5.1975 -15.715 4.2075 -15.375 3.1875 C-17.025 3.5175 -18.675 3.8475 -20.375 4.1875 C-14.31681735 -2.19815199 -8.09470563 -3.86304713 0 0 Z " fill="#231D40" transform="translate(40.375,2.8125)"/>
<path d="M0 0 C0.33 0 0.66 0 1 0 C1 2.97 1 5.94 1 9 C0.01 9 -0.98 9 -2 9 C0.0072908 12.0109362 0.83884224 12.63016497 4 14 C4.3125 16.8125 4.3125 16.8125 4 20 C-1.81964467 24.24959665 -9.21596447 26.32809557 -16.37890625 25.70703125 C-18.46211184 25.33350823 -20.53824445 24.91646387 -22.6015625 24.4453125 C-25.00276751 23.75014421 -25.00276751 23.75014421 -27 25 C-29.12890625 24.2578125 -29.12890625 24.2578125 -31.5625 23.125 C-32.77099609 22.57199219 -32.77099609 22.57199219 -34.00390625 22.0078125 C-36 21 -36 21 -37 20 C-36.82364548 17.30917128 -36.38164079 14.67148554 -36 12 C-35.2575 12.66 -34.515 13.32 -33.75 14 C-31.02757055 16.39211447 -31.02757055 16.39211447 -27 16 C-27 15.01 -27 14.02 -27 13 C-25.35 13 -23.7 13 -22 13 C-22.226875 12.443125 -22.45375 11.88625 -22.6875 11.3125 C-23.12979676 8.03950399 -21.93512486 6.58016648 -20 4 C-19.34 4 -18.68 4 -18 4 C-17.67 4.33 -17.34 4.66 -17 5 C-16.34 4.34 -15.68 3.68 -15 3 C-14.01 3.33 -13.02 3.66 -12 4 C-11.01 3.67 -10.02 3.34 -9 3 C-8.4225 3.66 -7.845 4.32 -7.25 5 C-5.00346023 7.44290923 -5.00346023 7.44290923 -1 7 C-1.66 6.67 -2.32 6.34 -3 6 C-3 5.01 -3 4.02 -3 3 C-2.34 3 -1.68 3 -1 3 C-0.67 2.01 -0.34 1.02 0 0 Z " fill="#2A4675" transform="translate(49,37)"/>
<path d="M0 0 C1.43088528 2.86177057 0.59991697 4.93375773 0 8 C1.32 8.33 2.64 8.66 4 9 C3.125 13.75 3.125 13.75 2 16 C2.99 16.33 3.98 16.66 5 17 C6.6875 19.0625 6.6875 19.0625 8 21 C7.01 21 6.02 21 5 21 C5 21.99 5 22.98 5 24 C5.33 23.34 5.66 22.68 6 22 C6.66 22 7.32 22 8 22 C8 23.65 8 25.3 8 27 C8.99 27.33 9.98 27.66 11 28 C10.67 29.32 10.34 30.64 10 32 C10.66 32 11.32 32 12 32 C11.67 35.3 11.34 38.6 11 42 C10.34 42 9.68 42 9 42 C8.67 41.01 8.34 40.02 8 39 C7.360625 38.690625 6.72125 38.38125 6.0625 38.0625 C3.54531085 36.7657662 3.03113052 35.5778263 2 33 C3.485 32.505 3.485 32.505 5 32 C4.67 31.01 4.34 30.02 4 29 C3.34 28.67 2.68 28.34 2 28 C2.66 29.32 3.32 30.64 4 32 C2.3125 32.8125 2.3125 32.8125 0 33 C-3.03169839 30.46183391 -4.74169637 28.77491089 -6 25 C-6.66 24.67 -7.32 24.34 -8 24 C-8.25 21.75 -8.25 21.75 -8 19 C-6.71034824 17.62437146 -5.37310707 16.29233607 -4 15 C-2.74563813 12.36777038 -2.74563813 12.36777038 -2 10 C-3.32 9.67 -4.64 9.34 -6 9 C-6 8.01 -6 7.02 -6 6 C-4.68 5.67 -3.36 5.34 -2 5 C-1.855625 4.360625 -1.71125 3.72125 -1.5625 3.0625 C-1 1 -1 1 0 0 Z " fill="#543F48" transform="translate(44,12)"/>
<path d="M0 0 C0.66 1.65 1.32 3.3 2 5 C2.66 5 3.32 5 4 5 C3.67 6.98 3.34 8.96 3 11 C0.525 10.505 0.525 10.505 -2 10 C-1.67 9.01 -1.34 8.02 -1 7 C-1.66 7 -2.32 7 -3 7 C-2.649375 7.680625 -2.29875 8.36125 -1.9375 9.0625 C-0.74243146 12.8070481 -1.00099691 15.21805972 -2 19 C-4.0625 20.4375 -4.0625 20.4375 -6 21 C-6 22.98 -6 24.96 -6 27 C-4.35 27 -2.7 27 -1 27 C-0.67 27.99 -0.34 28.98 0 30 C-0.99 30.33 -1.98 30.66 -3 31 C-3 30.34 -3 29.68 -3 29 C-3.99 29 -4.98 29 -6 29 C-6.66 29.66 -7.32 30.32 -8 31 C-9.65 29.68 -11.3 28.36 -13 27 C-11.68 26.34 -10.36 25.68 -9 25 C-11.64 24.34 -14.28 23.68 -17 23 C-17.81048196 16.84033708 -15.38865283 11.98997325 -12 7 C-8.82837462 3.98604624 -4.58295232 0 0 0 Z " fill="#58DDC9" transform="translate(18,11)"/>
<path d="M0 0 C0.33 0 0.66 0 1 0 C1 2.97 1 5.94 1 9 C0.01 9 -0.98 9 -2 9 C-1.67 9.66 -1.34 10.32 -1 11 C-1.66 11 -2.32 11 -3 11 C-3 12.32 -3 13.64 -3 15 C-2.34 15 -1.68 15 -1 15 C-1 15.66 -1 16.32 -1 17 C-3.35438733 18.42944945 -4.48032433 19.08661261 -7.25 18.625 C-8.11625 18.315625 -8.11625 18.315625 -9 18 C-8.01 17.01 -7.02 16.02 -6 15 C-9.39914975 16.13304992 -10.05254451 17.12518475 -12 20 C-12.99 18.68 -13.98 17.36 -15 16 C-15 16.66 -15 17.32 -15 18 C-20.22015915 19.74005305 -20.22015915 19.74005305 -23 20 C-25.5 18.3125 -25.5 18.3125 -27 16 C-27 15.01 -27 14.02 -27 13 C-25.35 13 -23.7 13 -22 13 C-22.3403125 12.1646875 -22.3403125 12.1646875 -22.6875 11.3125 C-23.12979676 8.03950399 -21.93512486 6.58016648 -20 4 C-19.34 4 -18.68 4 -18 4 C-17.67 4.33 -17.34 4.66 -17 5 C-16.34 4.34 -15.68 3.68 -15 3 C-14.01 3.33 -13.02 3.66 -12 4 C-11.01 3.67 -10.02 3.34 -9 3 C-8.4225 3.66 -7.845 4.32 -7.25 5 C-5.00346023 7.44290923 -5.00346023 7.44290923 -1 7 C-1.66 6.67 -2.32 6.34 -3 6 C-3 5.01 -3 4.02 -3 3 C-2.34 3 -1.68 3 -1 3 C-0.67 2.01 -0.34 1.02 0 0 Z " fill="#F7D0AB" transform="translate(49,37)"/>
<path d="M0 0 C0.66 0.33 1.32 0.66 2 1 C1.484375 1.4125 0.96875 1.825 0.4375 2.25 C-0.036875 2.8275 -0.51125 3.405 -1 4 C-0.77242269 6.16299211 -0.77242269 6.16299211 0 8 C0.99 7.67 1.98 7.34 3 7 C2.67 8.98 2.34 10.96 2 13 C2.66 13.33 3.32 13.66 4 14 C4 14.66 4 15.32 4 16 C3.01 16.33 2.02 16.66 1 17 C0.67 17.66 0.34 18.32 0 19 C-0.99 18.67 -1.98 18.34 -3 18 C-4.65 19.65 -6.3 21.3 -8 23 C-4.06924356 22.42547254 -4.06924356 22.42547254 -1 20 C2 24.75 2 24.75 2 27 C2.66 27.33 3.32 27.66 4 28 C3.34 28 2.68 28 2 28 C2 28.99 2 29.98 2 31 C1.05125 30.814375 0.1025 30.62875 -0.875 30.4375 C-3.89868793 29.71313368 -3.89868793 29.71313368 -6 31 C-6 30.01 -6 29.02 -6 28 C-7.32 29.32 -8.64 30.64 -10 32 C-9.67 32.66 -9.34 33.32 -9 34 C-10.65 34 -12.3 34 -14 34 C-14.25 31.25 -14.25 31.25 -14 28 C-12.68733482 26.64631404 -11.35432675 25.31200404 -10 24 C-9.55443363 20.52458232 -10.22343477 17.39747287 -11 14 C-10.34 14 -9.68 14 -9 14 C-9 14.66 -9 15.32 -9 16 C-7.68 16 -6.36 16 -5 16 C-5.309375 15.484375 -5.61875 14.96875 -5.9375 14.4375 C-7.3611971 11.17137135 -7.93621263 8.57209272 -8 5 C-5.43593129 2.29348303 -3.52812251 1.17604084 0 0 Z " fill="#221A31" transform="translate(26,4)"/>
<path d="M0 0 C1.79093191 -0.08086147 3.58289628 -0.13912702 5.375 -0.1875 C6.87160156 -0.23970703 6.87160156 -0.23970703 8.3984375 -0.29296875 C9.25695313 -0.19628906 10.11546875 -0.09960938 11 0 C13 3 13 3 12.6875 5.5625 C12 8 12 8 11 10 C11.66 10.33 12.32 10.66 13 11 C12.69558521 14.55150592 12.02406007 15.97138802 9.6875 18.75 C7.25520422 20.78634065 6.07999437 21.6577784 3 22 C3 21.01 3 20.02 3 19 C4.32 19 5.64 19 7 19 C7 18.34 7 17.68 7 17 C5.35 17 3.7 17 2 17 C1.67 17.66 1.34 18.32 1 19 C-2 14.375 -2 14.375 -2 11 C-0.35 10.34 1.3 9.68 3 9 C1.35 7.35 -0.3 5.7 -2 4 C-1.34 3.67 -0.68 3.34 0 3 C0 2.01 0 1.02 0 0 Z " fill="#D9A58D" transform="translate(29,11)"/>
<path d="M0 0 C5.6231182 1.36318017 8.76835844 5.47570181 12 10 C14.7004403 14.99344576 15.35110827 19.38226762 15 25 C14.67 24.34 14.34 23.68 14 23 C12.68 23 11.36 23 10 23 C10 22.34 10 21.68 10 21 C5.87026372 21.56739868 5.87026372 21.56739868 2 23 C2.2475 22.4225 2.495 21.845 2.75 21.25 C2.8325 20.5075 2.915 19.765 3 19 C2.319375 18.443125 1.63875 17.88625 0.9375 17.3125 C0.298125 16.549375 -0.34125 15.78625 -1 15 C-0.75770455 12.65332368 -0.16071706 10.53024165 0.48046875 8.26171875 C1.16020084 5.3025843 0.74737142 2.91474854 0 0 Z " fill="#6ECC53" transform="translate(47,13)"/>
<path d="M0 0 C4.95 0.99 4.95 0.99 10 2 C9.01 3.32 8.02 4.64 7 6 C7.99 6.66 8.98 7.32 10 8 C10.99 7.34 11.98 6.68 13 6 C13.66 6.33 14.32 6.66 15 7 C15 8.32 15 9.64 15 11 C14.01 11 13.02 11 12 11 C10.89163577 12.88316159 10.89163577 12.88316159 10 15 C10.33 15.66 10.66 16.32 11 17 C10.01 17 9.02 17 8 17 C8.66 18.32 9.32 19.64 10 21 C5.59423824 19.19636192 4.2087288 16.69073837 2.0390625 12.59765625 C0.36068595 8.40171487 0.19003912 4.4975925 0 0 Z " fill="#176D7B" transform="translate(0,33)"/>
<path d="M0 0 C1.43088528 2.86177057 0.59991697 4.93375773 0 8 C1.32 8.33 2.64 8.66 4 9 C3.39009109 12.55780196 2.4216319 15.6828589 1 19 C0.34 19 -0.32 19 -1 19 C-1.33 19.66 -1.66 20.32 -2 21 C-1.34 21.33 -0.68 21.66 0 22 C-1.98 22.99 -1.98 22.99 -4 24 C-3.360625 24.598125 -2.72125 25.19625 -2.0625 25.8125 C0 28 0 28 1 31 C0.01 31.33 -0.98 31.66 -2 32 C-6 27.25 -6 27.25 -6 25 C-6.66 24.67 -7.32 24.34 -8 24 C-8.25 21.75 -8.25 21.75 -8 19 C-6.71034824 17.62437146 -5.37310707 16.29233607 -4 15 C-2.74563813 12.36777038 -2.74563813 12.36777038 -2 10 C-3.32 9.67 -4.64 9.34 -6 9 C-6 8.01 -6 7.02 -6 6 C-4.68 5.67 -3.36 5.34 -2 5 C-1.855625 4.360625 -1.71125 3.72125 -1.5625 3.0625 C-1 1 -1 1 0 0 Z " fill="#140C21" transform="translate(44,12)"/>
<path d="M0 0 C3.0625 0.1875 3.0625 0.1875 5.0625 2.1875 C5.3925 2.8475 5.7225 3.5075 6.0625 4.1875 C7.0525 4.1875 8.0425 4.1875 9.0625 4.1875 C7.0825 5.1775 7.0825 5.1775 5.0625 6.1875 C5.0625 8.1675 5.0625 10.1475 5.0625 12.1875 C6.7125 12.1875 8.3625 12.1875 10.0625 12.1875 C10.3925 13.1775 10.7225 14.1675 11.0625 15.1875 C10.0725 15.5175 9.0825 15.8475 8.0625 16.1875 C8.0625 15.5275 8.0625 14.8675 8.0625 14.1875 C7.0725 14.1875 6.0825 14.1875 5.0625 14.1875 C4.4025 14.8475 3.7425 15.5075 3.0625 16.1875 C1.4125 14.8675 -0.2375 13.5475 -1.9375 12.1875 C-0.6175 11.5275 0.7025 10.8675 2.0625 10.1875 C-0.2475 9.5275 -2.5575 8.8675 -4.9375 8.1875 C-3.92735959 0.25068253 -3.92735959 0.25068253 0 0 Z " fill="#338CA5" transform="translate(6.9375,25.8125)"/>
<path d="M0 0 C0.33 0.99 0.66 1.98 1 3 C0.67 3.66 0.34 4.32 0 5 C3.93075644 4.42547254 3.93075644 4.42547254 7 2 C10 6.75 10 6.75 10 9 C10.66 9.33 11.32 9.66 12 10 C11.34 10 10.68 10 10 10 C10 10.99 10 11.98 10 13 C9.05125 12.814375 8.1025 12.62875 7.125 12.4375 C4.10131207 11.71313368 4.10131207 11.71313368 2 13 C2 12.01 2 11.02 2 10 C0.68 11.32 -0.64 12.64 -2 14 C-1.67 14.66 -1.34 15.32 -1 16 C-2.65 16 -4.3 16 -6 16 C-6.25 13.25 -6.25 13.25 -6 10 C-4.71034824 8.62437146 -3.37310707 7.29233607 -2 6 C-0.73215876 2.86649283 -0.73215876 2.86649283 0 0 Z " fill="#1E0F25" transform="translate(18,22)"/>
<path d="M0 0 C0.680625 0.639375 1.36125 1.27875 2.0625 1.9375 C4.90653919 4.26872152 4.90653919 4.26872152 8.625 4.5 C12 5 12 5 13.9375 6.9375 C15 9 15 9 15 11 C13.35 11 11.7 11 10 11 C9.67 11.66 9.34 12.32 9 13 C7.51960029 12.35699811 6.04071218 11.71051501 4.5625 11.0625 C3.73878906 10.70285156 2.91507813 10.34320313 2.06640625 9.97265625 C0 9 0 9 -1 8 C-0.82364548 5.30917128 -0.38164079 2.67148554 0 0 Z " fill="#292749" transform="translate(13,49)"/>
<path d="M0 0 C1.32 0 2.64 0 4 0 C4 0.66 4 1.32 4 2 C5.32 2 6.64 2 8 2 C9.54415517 6.38340822 8.09478078 8.84548978 6.19140625 12.87109375 C4.79743924 15.36195284 3.20441659 17.18922923 1 19 C0.79859524 15.37471432 1.14223235 13.13498292 3 10 C2.34 10 1.68 10 1 10 C0.67 9.01 0.34 8.02 0 7 C0.33 6.67 0.66 6.34 1 6 C0.34 5.67 -0.32 5.34 -1 5 C-0.67 3.35 -0.34 1.7 0 0 Z " fill="#56AF56" transform="translate(53,34)"/>
<path d="M0 0 C2.29491977 1.52994652 3.78177116 2.54990301 5 5.0625 C6.25346936 7.49109689 7.51150574 8.0046023 10 9 C2.8622669 11.47075377 -2.69557232 10.582626 -10 9 C-9.30390625 8.30777344 -9.30390625 8.30777344 -8.59375 7.6015625 C-7.54271126 6.54537161 -6.51066504 5.46988712 -5.5 4.375 C-4 3 -4 3 -1 2 C-0.67 1.34 -0.34 0.68 0 0 Z " fill="#18204B" transform="translate(34,52)"/>
<path d="M0 0 C5.01113235 1.4317521 6.94469549 3.98445693 10 8 C7 10 7 10 5 10 C5 11.65 5 13.3 5 15 C3.02 15 1.04 15 -1 15 C-0.84402344 14.41992188 -0.68804687 13.83984375 -0.52734375 13.2421875 C0.66056198 8.47483073 1.24917875 4.87179712 0 0 Z " fill="#97E772" transform="translate(47,13)"/>
<path d="M0 0 C1.65 0 3.3 0 5 0 C5 0.99 5 1.98 5 3 C3.35 3.33 1.7 3.66 0 4 C0.99 6.31 1.98 8.62 3 11 C3.33 10.67 3.66 10.34 4 10 C5.66617115 9.95936168 7.33388095 9.957279 9 10 C9 10.66 9 11.32 9 12 C7.68 12 6.36 12 5 12 C5 12.66 5 13.32 5 14 C1.74456771 13.65120368 0.98126893 12.97866739 -1.25 10.4375 C-2.11625 9.2309375 -2.11625 9.2309375 -3 8 C-3.99 8.66 -4.98 9.32 -6 10 C-6.99 9.67 -7.98 9.34 -9 9 C-7.91793075 6.04890203 -7.32605724 5.15905231 -4.4375 3.75 C-2 3 -2 3 -1 3 C-0.67 2.01 -0.34 1.02 0 0 Z " fill="#B86561" transform="translate(27,18)"/>
<path d="M0 0 C1.8871875 0.0309375 1.8871875 0.0309375 3.8125 0.0625 C3.8125 0.3925 3.8125 0.7225 3.8125 1.0625 C1.8325 1.0625 -0.1475 1.0625 -2.1875 1.0625 C-1.8575 2.0525 -1.5275 3.0425 -1.1875 4.0625 C0.82758358 4.79573796 0.82758358 4.79573796 2.8125 5.0625 C2.8125 6.0525 2.8125 7.0425 2.8125 8.0625 C1.843125 8.18625 0.87375 8.31 -0.125 8.4375 C-1.135625 8.64375 -2.14625 8.85 -3.1875 9.0625 C-3.5175 9.7225 -3.8475 10.3825 -4.1875 11.0625 C-4.8475 11.0625 -5.5075 11.0625 -6.1875 11.0625 C-6.1875 10.4025 -6.1875 9.7425 -6.1875 9.0625 C-6.8475 8.7325 -7.5075 8.4025 -8.1875 8.0625 C-7.8575 7.0725 -7.5275 6.0825 -7.1875 5.0625 C-8.8375 5.3925 -10.4875 5.7225 -12.1875 6.0625 C-8.18978325 1.84869045 -5.85577596 -0.09599633 0 0 Z " fill="#93777F" transform="translate(32.1875,0.9375)"/>
<path d="M0 0 C0.33 1.32 0.66 2.64 1 4 C1.66 2.68 2.32 1.36 3 0 C3 0.66 3 1.32 3 2 C3.66 2 4.32 2 5 2 C5.33 2.66 5.66 3.32 6 4 C6.99 3.34 7.98 2.68 9 2 C9 4.31 9 6.62 9 9 C7.35 8.67 5.7 8.34 4 8 C3.67 8.99 3.34 9.98 3 11 C2.690625 10.195625 2.38125 9.39125 2.0625 8.5625 C1.23664655 6.10919595 1.23664655 6.10919595 0 5 C-0.66 6.98 -1.32 8.96 -2 11 C-2.99 10.67 -3.98 10.34 -5 10 C-5.33 8.35 -5.66 6.7 -6 5 C-5.38125 4.731875 -4.7625 4.46375 -4.125 4.1875 C-1.7004767 3.04443152 -1.7004767 3.04443152 0 0 Z " fill="#160F29" transform="translate(14,45)"/>
<path d="M0 0 C0.66 0.33 1.32 0.66 2 1 C1.484375 1.4125 0.96875 1.825 0.4375 2.25 C-0.036875 2.8275 -0.51125 3.405 -1 4 C-0.77242269 6.16299211 -0.77242269 6.16299211 0 8 C0.99 7.67 1.98 7.34 3 7 C3 7.99 3 8.98 3 10 C2.34 10 1.68 10 1 10 C0.67 11.98 0.34 13.96 0 16 C-0.99 16 -1.98 16 -3 16 C-2.95875 14.88625 -2.9175 13.7725 -2.875 12.625 C-2.58878141 8.95633975 -2.58878141 8.95633975 -5 7 C-5.99 7 -6.98 7 -8 7 C-6.89300099 3.78970286 -5.98396175 2.99031023 -3 1.1875 C-1.515 0.5996875 -1.515 0.5996875 0 0 Z " fill="#593F55" transform="translate(26,4)"/>
<path d="M0 0 C2.97 0.99 5.94 1.98 9 3 C9 4.32 9 5.64 9 7 C9.66 7 10.32 7 11 7 C11 7.66 11 8.32 11 9 C8.64561267 10.42944945 7.51967567 11.08661261 4.75 10.625 C4.1725 10.41875 3.595 10.2125 3 10 C3.99 9.01 4.98 8.02 6 7 C4.68 7 3.36 7 2 7 C2 6.34 2 5.68 2 5 C1.01 5.33 0.02 5.66 -1 6 C-1.66 4.68 -2.32 3.36 -3 2 C-2.01 2 -1.02 2 0 2 C0 1.34 0 0.68 0 0 Z " fill="#F3D5B0" transform="translate(37,45)"/>
<path d="M0 0 C1.43088528 2.86177057 0.59991697 4.93375773 0 8 C1.32 8.33 2.64 8.66 4 9 C3.67 10.65 3.34 12.3 3 14 C1.02 14 -0.96 14 -3 14 C-2.67 12.68 -2.34 11.36 -2 10 C-3.32 9.67 -4.64 9.34 -6 9 C-6 8.01 -6 7.02 -6 6 C-4.68 5.67 -3.36 5.34 -2 5 C-1.855625 4.360625 -1.71125 3.72125 -1.5625 3.0625 C-1 1 -1 1 0 0 Z " fill="#1F0815" transform="translate(44,12)"/>
<path d="M0 0 C1.1446875 0.556875 1.1446875 0.556875 2.3125 1.125 C3.6428125 1.558125 3.6428125 1.558125 5 2 C5.99 1.34 6.98 0.68 8 0 C8.66 0.33 9.32 0.66 10 1 C10 2.32 10 3.64 10 5 C9.01 5 8.02 5 7 5 C5.89163577 6.88316159 5.89163577 6.88316159 5 9 C5.33 9.66 5.66 10.32 6 11 C5.01 11 4.02 11 3 11 C3.66 12.32 4.32 13.64 5 15 C4.01 14.67 3.02 14.34 2 14 C1.80522261 12.37585622 1.61940542 10.75063577 1.4375 9.125 C1.33308594 8.22007813 1.22867187 7.31515625 1.12109375 6.3828125 C1 4 1 4 2 2 C1.34 2 0.68 2 0 2 C0 1.34 0 0.68 0 0 Z " fill="#426D90" transform="translate(5,39)"/>
<path d="M0 0 C2.64 0 5.28 0 8 0 C8 2.31 8 4.62 8 7 C5.21571665 7.77341204 3.52724898 8.17574966 0.75 7.25 C-1 6 -1 6 -2 3 C-1.34 3 -0.68 3 0 3 C0 2.01 0 1.02 0 0 Z " fill="#F9D3A8" transform="translate(29,11)"/>
<path d="M0 0 C0.66 0.33 1.32 0.66 2 1 C2 1.99 2 2.98 2 4 C2.99 4.33 3.98 4.66 5 5 C4.01 5.495 4.01 5.495 3 6 C3.66 8.97 4.32 11.94 5 15 C2.525 14.01 2.525 14.01 0 13 C0 10.69 0 8.38 0 6 C-0.99 6.33 -1.98 6.66 -3 7 C-3.33 5.35 -3.66 3.7 -4 2 C-2.125 0.9375 -2.125 0.9375 0 0 Z " fill="#617886" transform="translate(44,7)"/>
<path d="M0 0 C0.66 0.33 1.32 0.66 2 1 C1.44570313 1.37511719 0.89140625 1.75023437 0.3203125 2.13671875 C-5.26332048 5.96437295 -5.26332048 5.96437295 -8 12 C-7.01 12.66 -6.02 13.32 -5 14 C-8 16 -8 16 -12 16 C-12.66 18.31 -13.32 20.62 -14 23 C-14.33 23 -14.66 23 -15 23 C-15.81048196 16.84033708 -13.38865283 11.98997325 -10 7 C-6.97184876 4.12238783 -3.7322667 1.86613335 0 0 Z " fill="#2ECDC3" transform="translate(16,11)"/>
<path d="M0 0 C0.33 0 0.66 0 1 0 C1 2.64 1 5.28 1 8 C1.66 8.33 2.32 8.66 3 9 C3 9.66 3 10.32 3 11 C0.5625 10.625 0.5625 10.625 -2 10 C-2.33 9.34 -2.66 8.68 -3 8 C-3.99 9.485 -3.99 9.485 -5 11 C-6.125 7.6875 -6.125 7.6875 -7 4 C-6.34 3.01 -5.68 2.02 -5 1 C-3.68 1.33 -2.36 1.66 -1 2 C-0.67 1.34 -0.34 0.68 0 0 Z " fill="#675362" transform="translate(25,40)"/>
<path d="M0 0 C3.1875 0.875 3.1875 0.875 6 2 C6.75 4.25 6.75 4.25 7 7 C5.0625 9.3125 5.0625 9.3125 3 11 C1.49440461 9.03617993 0.10868317 7.21736634 -1 5 C-1.66 4.01 -2.32 3.02 -3 2 C-2.01 1.34 -1.02 0.68 0 0 Z " fill="#52CCBD" transform="translate(10,20)"/>
<path d="M0 0 C0.33 0 0.66 0 1 0 C1 2.97 1 5.94 1 9 C0.01 9 -0.98 9 -2 9 C-1.67 9.66 -1.34 10.32 -1 11 C-2.258125 10.87625 -3.51625 10.7525 -4.8125 10.625 C-5.52019531 10.55539063 -6.22789063 10.48578125 -6.95703125 10.4140625 C-9 10 -9 10 -12 8 C-11.67 6.35 -11.34 4.7 -11 3 C-10.34 3 -9.68 3 -9 3 C-8.38125 3.66 -7.7625 4.32 -7.125 5 C-5.0008924 7.4569098 -5.0008924 7.4569098 -1 7 C-1.66 6.67 -2.32 6.34 -3 6 C-3 5.01 -3 4.02 -3 3 C-2.34 3 -1.68 3 -1 3 C-0.67 2.01 -0.34 1.02 0 0 Z " fill="#F2B18F" transform="translate(49,37)"/>
<path d="M0 0 C0.99 0 1.98 0 3 0 C3 0.66 3 1.32 3 2 C3.66 2 4.32 2 5 2 C4.67 5.3 4.34 8.6 4 12 C3.34 12 2.68 12 2 12 C1.67 11.01 1.34 10.02 1 9 C0.360625 8.690625 -0.27875 8.38125 -0.9375 8.0625 C-3.45468915 6.7657662 -3.96886948 5.5778263 -5 3 C-4.360625 2.87625 -3.72125 2.7525 -3.0625 2.625 C-2.0415625 2.315625 -2.0415625 2.315625 -1 2 C-0.67 1.34 -0.34 0.68 0 0 Z " fill="#29192A" transform="translate(51,42)"/>
<path d="M0 0 C0.99 2.97 1.98 5.94 3 9 C-3.15384615 7.46153846 -3.15384615 7.46153846 -6 6 C-6.8125 3.875 -6.8125 3.875 -7 2 C-2.25 0 -2.25 0 0 0 Z " fill="#8EE25E" transform="translate(58,21)"/>
<path d="M0 0 C0.66 0 1.32 0 2 0 C2 0.99 2 1.98 2 3 C4.475 3.99 4.475 3.99 7 5 C1.71698113 7.83018868 1.71698113 7.83018868 -1 8 C-3.25 6.25 -3.25 6.25 -5 4 C-5 3.01 -5 2.02 -5 1 C-3.35 1 -1.7 1 0 1 C0 0.67 0 0.34 0 0 Z " fill="#65CBD9" transform="translate(27,49)"/>
<path d="M0 0 C3 0 3 0 5 1 C3.02 1.99 3.02 1.99 1 3 C1 4.98 1 6.96 1 9 C2.65 9 4.3 9 6 9 C6.33 9.99 6.66 10.98 7 12 C6.01 12.33 5.02 12.66 4 13 C4 12.34 4 11.68 4 11 C3.01 11 2.02 11 1 11 C0.34 11.66 -0.32 12.32 -1 13 C-2.65 11.68 -4.3 10.36 -6 9 C-4.02 8.34 -2.04 7.68 0 7 C-0.185625 6.030625 -0.37125 5.06125 -0.5625 4.0625 C-0.706875 3.051875 -0.85125 2.04125 -1 1 C-0.67 0.67 -0.34 0.34 0 0 Z " fill="#8493A2" transform="translate(11,29)"/>
<path d="M0 0 C0.33 1.98 0.66 3.96 1 6 C1.66 6 2.32 6 3 6 C3.33 4.35 3.66 2.7 4 1 C4.66 1.66 5.32 2.32 6 3 C5.625 6.625 5.625 6.625 5 10 C4.67 9.34 4.34 8.68 4 8 C2.35 8 0.7 8 -1 8 C-1.33 8.66 -1.66 9.32 -2 10 C-5 5.375 -5 5.375 -5 2 C-1.125 0 -1.125 0 0 0 Z " fill="#FBCFA9" transform="translate(32,20)"/>
<path d="M0 0 C0.66 0 1.32 0 2 0 C2.33 0.66 2.66 1.32 3 2 C4.65 1.67 6.3 1.34 8 1 C8 2.32 8 3.64 8 5 C8.66 5.33 9.32 5.66 10 6 C8.68 6 7.36 6 6 6 C5.34 6.66 4.68 7.32 4 8 C3.01 7.34 2.02 6.68 1 6 C-0.32567199 5.31822584 -1.65753688 4.64808564 -3 4 C-2.34 3.67 -1.68 3.34 -1 3 C-0.67 2.01 -0.34 1.02 0 0 Z " fill="#916F78" transform="translate(18,32)"/>
<path d="M0 0 C0.99 0.33 1.98 0.66 3 1 C-0.85421412 10.59453303 -0.85421412 10.59453303 -5 14 C-5.08927756 10.78600767 -4.8534403 8.0937211 -4 5 C-4 4.34 -4 3.68 -4 3 C-3.01 3 -2.02 3 -1 3 C-0.67 2.01 -0.34 1.02 0 0 Z " fill="#367469" transform="translate(59,39)"/>
<path d="M0 0 C0.33 1.32 0.66 2.64 1 4 C-0.32 4.33 -1.64 4.66 -3 5 C-3 5.66 -3 6.32 -3 7 C-4.32 7 -5.64 7 -7 7 C-7 4.69 -7 2.38 -7 0 C-4.3333581 -1.33332095 -2.83319697 -0.67102033 0 0 Z " fill="#241930" transform="translate(43,4)"/>
<path d="M0 0 C0 2.33333333 0 4.66666667 0 7 C-1.33333333 7.66666667 -2.66666667 8.33333333 -4 9 C-4.33 8.01 -4.66 7.02 -5 6 C-5.99 7.485 -5.99 7.485 -7 9 C-7.99 8.67 -8.98 8.34 -10 8 C-9.34 6.35 -8.68 4.7 -8 3 C-6.68 3.33 -5.36 3.66 -4 4 C-3.67 3.01 -3.34 2.02 -3 1 C-2.01 0.67 -1.02 0.34 0 0 Z " fill="#36304D" transform="translate(19,40)"/>
<path d="M0 0 C0.928125 0.5259375 0.928125 0.5259375 1.875 1.0625 C2.57625 1.371875 3.2775 1.68125 4 2 C4.66 1.67 5.32 1.34 6 1 C8.0625 2.6875 8.0625 2.6875 10 5 C9.75 7.75 9.75 7.75 9 10 C8.34 8.68 7.68 7.36 7 6 C6.071875 6.309375 6.071875 6.309375 5.125 6.625 C4.42375 6.74875 3.7225 6.8725 3 7 C2.34 6.34 1.68 5.68 1 5 C0.34 4.67 -0.32 4.34 -1 4 C-0.67 2.68 -0.34 1.36 0 0 Z " fill="#0C0717" transform="translate(18,36)"/>
<path d="M0 0 C3 0 3 0 6 1 C7.6875 3.0625 7.6875 3.0625 9 5 C7.68 5.33 6.36 5.66 5 6 C5 5.34 5 4.68 5 4 C4.01 4.495 4.01 4.495 3 5 C3.33 6.65 3.66 8.3 4 10 C2.35 8.68 0.7 7.36 -1 6 C-0.67 4.02 -0.34 2.04 0 0 Z " fill="#5D4657" transform="translate(43,28)"/>
<path d="M0 0 C6.48979592 0.48979592 6.48979592 0.48979592 8.9375 2.9375 C10 5 10 5 10 7 C6.6936092 6.44893487 3.80017874 5.90012129 1 4 C0.25 1.875 0.25 1.875 0 0 Z " fill="#294A79" transform="translate(18,53)"/>
<path d="M0 0 C0.61875 0.495 1.2375 0.99 1.875 1.5 C3.83880904 3.19222773 3.83880904 3.19222773 6 3 C6.33 3.99 6.66 4.98 7 6 C5.5625 8.1875 5.5625 8.1875 4 10 C3.608125 9.360625 3.21625 8.72125 2.8125 8.0625 C0.61527704 5.56221181 -0.75791433 5.35049575 -4 5 C-3.67 4.01 -3.34 3.02 -3 2 C-1.515 2.99 -1.515 2.99 0 4 C0 2.68 0 1.36 0 0 Z " fill="#AC7E79" transform="translate(33,47)"/>
<path d="M0 0 C2.64 0.33 5.28 0.66 8 1 C7.01 2.485 7.01 2.485 6 4 C5.01 4 4.02 4 3 4 C3 4.99 3 5.98 3 7 C3.66 7.33 4.32 7.66 5 8 C3.35 7.67 1.7 7.34 0 7 C0 4.69 0 2.38 0 0 Z " fill="#2C6A9A" transform="translate(2,34)"/>
<path d="M0 0 C4.41889613 1.35021826 6.34345343 3.26115668 9 7 C6.69 7 4.38 7 2 7 C0.5393715 4.35261084 0 3.10551666 0 0 Z " fill="#B1F180" transform="translate(47,13)"/>
<path d="M0 0 C4 4.75 4 4.75 4 7 C4.66 7.33 5.32 7.66 6 8 C5.34 8 4.68 8 4 8 C4 8.99 4 9.98 4 11 C3.01 10.67 2.02 10.34 1 10 C1 8.68 1 7.36 1 6 C-0.65 5.67 -2.3 5.34 -4 5 C-2.68 3.35 -1.36 1.7 0 0 Z " fill="#080416" transform="translate(24,24)"/>
<path d="M0 0 C1.5625 1.5625 1.5625 1.5625 3 4 C2.6875 7.75 2.6875 7.75 2 11 C-1.2542015 8.16569547 -2.5206753 6.31392226 -3 2 C-2.01 1.34 -1.02 0.68 0 0 Z " fill="#120B20" transform="translate(21,9)"/>
<path d="M0 0 C0.66 0 1.32 0 2 0 C4.13562754 2.13562754 4.63318342 3.06546739 5 6 C4.34 6.66 3.68 7.32 3 8 C1.68 7.34 0.36 6.68 -1 6 C-1.042721 4.33388095 -1.04063832 2.66617115 -1 1 C-0.67 0.67 -0.34 0.34 0 0 Z " fill="#4B7B90" transform="translate(17,14)"/>
<path d="M0 0 C2.475 0.99 2.475 0.99 5 2 C5 3.32 5 4.64 5 6 C4.34 6 3.68 6 3 6 C3 6.66 3 7.32 3 8 C2.01 8.33 1.02 8.66 0 9 C0 8.01 0 7.02 0 6 C0.66 6 1.32 6 2 6 C2 5.34 2 4.68 2 4 C1.34 4 0.68 4 0 4 C0 2.68 0 1.36 0 0 Z " fill="#4288A2" transform="translate(46,48)"/>
<path d="M0 0 C0.33 0 0.66 0 1 0 C1 2.97 1 5.94 1 9 C0.01 9 -0.98 9 -2 9 C-1.67 9.66 -1.34 10.32 -1 11 C-2.9375 10.625 -2.9375 10.625 -5 10 C-5.33 9.34 -5.66 8.68 -6 8 C-4.35 7.67 -2.7 7.34 -1 7 C-1.66 6.67 -2.32 6.34 -3 6 C-3 5.01 -3 4.02 -3 3 C-2.34 3 -1.68 3 -1 3 C-0.67 2.01 -0.34 1.02 0 0 Z " fill="#D9A093" transform="translate(49,37)"/>
<path d="M0 0 C2.875 -0.125 2.875 -0.125 6 0 C6.66 0.66 7.32 1.32 8 2 C7.67 2.66 7.34 3.32 7 4 C4.36 4 1.72 4 -1 4 C-0.67 2.68 -0.34 1.36 0 0 Z " fill="#3DB1B2" transform="translate(4,26)"/>
<path d="M0 0 C1.32 0.33 2.64 0.66 4 1 C4.33 2.65 4.66 4.3 5 6 C3.35 6.33 1.7 6.66 0 7 C0 4.69 0 2.38 0 0 Z " fill="#EAA387" transform="translate(37,11)"/>
<path d="M0 0 C0.66 0.33 1.32 0.66 2 1 C2 2.32 2 3.64 2 5 C0.35 5.66 -1.3 6.32 -3 7 C-3.33 5.35 -3.66 3.7 -4 2 C-2.125 0.9375 -2.125 0.9375 0 0 Z " fill="#64545C" transform="translate(44,7)"/>
<path d="M0 0 C2.29491977 1.52994652 3.78177116 2.54990301 5 5.0625 C6.25346936 7.49109689 7.51150574 8.0046023 10 9 C8.35 9.33 6.7 9.66 5 10 C5 9.34 5 8.68 5 8 C4.01 7.67 3.02 7.34 2 7 C0.3125 3.9375 0.3125 3.9375 -1 1 C-0.67 0.67 -0.34 0.34 0 0 Z " fill="#101539" transform="translate(34,52)"/>
<path d="M0 0 C0.66 0.33 1.32 0.66 2 1 C0.25 5.875 0.25 5.875 -2 7 C-2.99 6.67 -3.98 6.34 -5 6 C-3.63016497 2.83884224 -3.0109362 2.0072908 0 0 Z " fill="#85697E" transform="translate(23,21)"/>
<path d="M0 0 C0.66 0.33 1.32 0.66 2 1 C2.59355614 3.64860427 2.74209269 6.29197322 3 9 C1.68 8.67 0.36 8.34 -1 8 C-0.67 5.36 -0.34 2.72 0 0 Z " fill="#A2CAD4" transform="translate(13,49)"/>
<path d="M0 0 C2.31 0.33 4.62 0.66 7 1 C7.33 2.32 7.66 3.64 8 5 C4.85262818 4.30058404 1.97411124 3.23921302 -1 2 C-0.67 1.34 -0.34 0.68 0 0 Z " fill="#7DD950" transform="translate(53,25)"/>
<path d="M0 0 C0.33 0.99 0.66 1.98 1 3 C-0.32 3.99 -1.64 4.98 -3 6 C-2.34 6.66 -1.68 7.32 -1 8 C-2.98 8.99 -2.98 8.99 -5 10 C-5 8.02 -5 6.04 -5 4 C-4.360625 3.71125 -3.72125 3.4225 -3.0625 3.125 C-0.84793921 2.17176549 -0.84793921 2.17176549 0 0 Z " fill="#325975" transform="translate(44,49)"/>
<path d="M0 0 C0.66 0 1.32 0 2 0 C2.12375 0.639375 2.2475 1.27875 2.375 1.9375 C2.684375 2.9584375 2.684375 2.9584375 3 4 C3.66 4.33 4.32 4.66 5 5 C2.36 5.33 -0.28 5.66 -3 6 C-2.01 4.02 -1.02 2.04 0 0 Z " fill="#E2A187" transform="translate(29,41)"/>
<path d="M0 0 C0.66 0 1.32 0 2 0 C1.52758009 4.25177923 -0.84964071 6.29969203 -4 9 C-4.99 9 -5.98 9 -7 9 C-7 8.01 -7 7.02 -7 6 C-6.21625 5.938125 -5.4325 5.87625 -4.625 5.8125 C-3.75875 5.544375 -2.8925 5.27625 -2 5 C-0.62533375 2.52363988 -0.62533375 2.52363988 0 0 Z " fill="#D48A79" transform="translate(39,24)"/>
<path d="M0 0 C0.66 0.33 1.32 0.66 2 1 C-0.95658236 4.2522406 -3.86262631 5.62087544 -8 7 C-6.89300099 3.78970286 -5.98396175 2.99031023 -3 1.1875 C-1.515 0.5996875 -1.515 0.5996875 0 0 Z " fill="#55546B" transform="translate(26,4)"/>
<path d="M0 0 C0.78375 0.04125 1.5675 0.0825 2.375 0.125 C2.375 1.115 2.375 2.105 2.375 3.125 C0.395 4.115 0.395 4.115 -1.625 5.125 C-1.625 4.465 -1.625 3.805 -1.625 3.125 C-2.615 2.795 -3.605 2.465 -4.625 2.125 C-2.625 0.125 -2.625 0.125 0 0 Z " fill="#315B86" transform="translate(32.625,54.875)"/>
<path d="M0 0 C2.52588702 2.36292656 3.88820837 3.66462511 5 7 C4.01 7 3.02 7 2 7 C2.66 8.32 3.32 9.64 4 11 C3.01 10.67 2.02 10.34 1 10 C0.67 6.7 0.34 3.4 0 0 Z " fill="#777384" transform="translate(6,43)"/>
<path d="M0 0 C0.33 0.66 0.66 1.32 1 2 C1.99 2 2.98 2 4 2 C4 2.66 4 3.32 4 4 C2.329375 4.2165625 2.329375 4.2165625 0.625 4.4375 C-2.82142047 4.78372035 -2.82142047 4.78372035 -5 6 C-5 5.01 -5 4.02 -5 3 C-4.01 3 -3.02 3 -2 3 C-2 2.34 -2 1.68 -2 1 C-1.34 0.67 -0.68 0.34 0 0 Z " fill="#7CCA6C" transform="translate(54,30)"/>
<path d="M0 0 C1.2065625 0.0309375 1.2065625 0.0309375 2.4375 0.0625 C2.1075 1.7125 1.7775 3.3625 1.4375 5.0625 C0.1175 5.3925 -1.2025 5.7225 -2.5625 6.0625 C-2.94468767 4.40635343 -3.27645102 2.73792976 -3.5625 1.0625 C-2.5625 0.0625 -2.5625 0.0625 0 0 Z " fill="#080217" transform="translate(43.5625,25.9375)"/>
<path d="M0 0 C2.97 0.495 2.97 0.495 6 1 C6 1.99 6 2.98 6 4 C4.02 4.99 4.02 4.99 2 6 C1.34 4.02 0.68 2.04 0 0 Z " fill="#6EBBB4" transform="translate(10,25)"/>
<path d="M0 0 C0.66 2.31 1.32 4.62 2 7 C0.35 7 -1.3 7 -3 7 C-3 5.02 -3 3.04 -3 1 C-1 0 -1 0 0 0 Z " fill="#090313" transform="translate(15,31)"/>
<path d="M0 0 C2.31 0.66 4.62 1.32 7 2 C6 4 6 4 4 5 C3.01 5.33 2.02 5.66 1 6 C1 5.34 1 4.68 1 4 C0.34 3.67 -0.32 3.34 -1 3 C-0.67 2.01 -0.34 1.02 0 0 Z " fill="#DCB2A3" transform="translate(25,6)"/>
<path d="M0 0 C0.33 0.66 0.66 1.32 1 2 C1.66 2 2.32 2 3 2 C3 2.66 3 3.32 3 4 C0.64561267 5.42944945 -0.48032433 6.08661261 -3.25 5.625 C-3.8275 5.41875 -4.405 5.2125 -5 5 C-3.35 3.35 -1.7 1.7 0 0 Z " fill="#78E3E7" transform="translate(45,50)"/>
<path d="M0 0 C0.99 0.33 1.98 0.66 3 1 C3.33 2.98 3.66 4.96 4 7 C3.67 6.34 3.34 5.68 3 5 C1.35 5 -0.3 5 -2 5 C-2 4.34 -2 3.68 -2 3 C-1.34 3 -0.68 3 0 3 C0 2.01 0 1.02 0 0 Z " fill="#3A5273" transform="translate(28,32)"/>
<path d="M0 0 C2.475 0.99 2.475 0.99 5 2 C4.67 3.65 4.34 5.3 4 7 C2.68 6.67 1.36 6.34 0 6 C0 4.02 0 2.04 0 0 Z " fill="#253A62" transform="translate(43,19)"/>
<path d="M0 0 C1.65 0 3.3 0 5 0 C4.67 1.98 4.34 3.96 4 6 C3.01 5.67 2.02 5.34 1 5 C0.67 3.35 0.34 1.7 0 0 Z " fill="#18355B" transform="translate(8,50)"/>
<path d="M0 0 C2.31 0.66 4.62 1.32 7 2 C7 2.33 7 2.66 7 3 C6.05125 3.12375 5.1025 3.2475 4.125 3.375 C0.91332809 3.71687177 0.91332809 3.71687177 -1 6 C-1.66 4.68 -2.32 3.36 -3 2 C-2.01 2 -1.02 2 0 2 C0 1.34 0 0.68 0 0 Z " fill="#FDCEA4" transform="translate(37,45)"/>
<path d="M0 0 C0.99 0.33 1.98 0.66 3 1 C2.34 2.32 1.68 3.64 1 5 C-0.65 5 -2.3 5 -4 5 C-4 4.34 -4 3.68 -4 3 C-3.01 3 -2.02 3 -1 3 C-0.67 2.01 -0.34 1.02 0 0 Z " fill="#3E9961" transform="translate(59,39)"/>
<path d="M0 0 C2.99324263 1.0975223 3.84610901 1.67682892 5.25 4.625 C5.4975 5.40875 5.745 6.1925 6 7 C3.49642139 6.1654738 1.33214148 5.20628008 -1 4 C-0.67 2.68 -0.34 1.36 0 0 Z " fill="#1D1624" transform="translate(18,36)"/>
<path d="M0 0 C0.66 0 1.32 0 2 0 C2 2.31 2 4.62 2 7 C1.67 6.34 1.34 5.68 1 5 C-0.32 5 -1.64 5 -3 5 C-2.67 4.01 -2.34 3.02 -2 2 C-1.34 2 -0.68 2 0 2 C0 1.34 0 0.68 0 0 Z " fill="#5EC754" transform="translate(60,31)"/>
<path d="M0 0 C0.763125 0.20625 1.52625 0.4125 2.3125 0.625 C2.6425 1.945 2.9725 3.265 3.3125 4.625 C0.3425 3.635 -2.6275 2.645 -5.6875 1.625 C-2.6875 -0.375 -2.6875 -0.375 0 0 Z " fill="#389DAA" transform="translate(7.6875,29.375)"/>
<path d="M0 0 C1.65 0.33 3.3 0.66 5 1 C4.67 1.99 4.34 2.98 4 4 C2.35 4 0.7 4 -1 4 C-0.67 2.68 -0.34 1.36 0 0 Z " fill="#8AD77A" transform="translate(47,24)"/>
<path d="M0 0 C0.33 0.99 0.66 1.98 1 3 C0.67 3.66 0.34 4.32 0 5 C-3.0625 5.625 -3.0625 5.625 -6 6 C-6.66 5.01 -7.32 4.02 -8 3 C-6.865625 2.87625 -5.73125 2.7525 -4.5625 2.625 C-3.386875 2.41875 -2.21125 2.2125 -1 2 C-0.67 1.34 -0.34 0.68 0 0 Z " fill="#472C34" transform="translate(36,6)"/>
<path d="M0 0 C0.99 0.33 1.98 0.66 3 1 C3.33 2.98 3.66 4.96 4 7 C3.01 7 2.02 7 1 7 C0.34 5.02 -0.32 3.04 -1 1 C-0.67 0.67 -0.34 0.34 0 0 Z " fill="#6BB8C0" transform="translate(33,40)"/>
<path d="M0 0 C0 3 0 3 -1 5 C-1.99 5 -2.98 5 -4 5 C-4.66 5.66 -5.32 6.32 -6 7 C-6 6.01 -6 5.02 -6 4 C-3 1.8125 -3 1.8125 0 0 Z " fill="#72E3D1" transform="translate(17,12)"/>
<path d="M0 0 C1.98 0 3.96 0 6 0 C6 0.66 6 1.32 6 2 C5.34 2 4.68 2 4 2 C4 3.32 4 4.64 4 6 C3.34 6 2.68 6 2 6 C1.34 4.02 0.68 2.04 0 0 Z " fill="#0B0921" transform="translate(30,32)"/>
<path d="M0 0 C1.33332095 2.6666419 0.67102033 4.16680303 0 7 C-2.97 6.505 -2.97 6.505 -6 6 C-4.68 5.67 -3.36 5.34 -2 5 C-1.855625 4.360625 -1.71125 3.72125 -1.5625 3.0625 C-1 1 -1 1 0 0 Z " fill="#180D1A" transform="translate(44,12)"/>
<path d="M0 0 C0.66 0.33 1.32 0.66 2 1 C2 2.98 2 4.96 2 7 C1.01 7.33 0.02 7.66 -1 8 C-0.67 5.36 -0.34 2.72 0 0 Z " fill="#5B5976" transform="translate(51,50)"/>
<path d="M0 0 C2.475 0.495 2.475 0.495 5 1 C4.34 2.32 3.68 3.64 3 5 C2.34 4.67 1.68 4.34 1 4 C0.375 1.9375 0.375 1.9375 0 0 Z " fill="#504877" transform="translate(18,53)"/>
<path d="M0 0 C2.475 0.99 2.475 0.99 5 2 C3.68 3.32 2.36 4.64 1 6 C0.67 4.02 0.34 2.04 0 0 Z " fill="#B6F293" transform="translate(47,13)"/>
</svg>
