<?xml version="1.0" encoding="UTF-8"?>
<svg version="1.1" xmlns="http://www.w3.org/2000/svg" width="64" height="64">
<path d="M0 0 C7.94331474 6.5618687 13.07181443 12.87182344 14.18359375 23.2578125 C14.5696826 32.40694839 12.4360265 39.57331424 6.625 46.6875 C-0.14927948 53.83732589 -7.29935249 56.90518972 -17 57.6875 C-25.61672935 57.40027569 -32.90358413 54.28868992 -39.125 48.375 C-45.02056161 42.03827391 -48.13713174 35.17202381 -48.5625 26.5 C-48.20740123 17.33845184 -44.71597891 9.8972266 -38.41015625 3.3203125 C-26.99145651 -6.40022164 -12.95962203 -6.73900346 0 0 Z " fill="#F8F8F8" transform="translate(49.125,5.625)"/>
<path d="M0 0 C7.94331474 6.5618687 13.07181443 12.87182344 14.18359375 23.2578125 C14.5696826 32.40694839 12.4360265 39.57331424 6.625 46.6875 C-0.14927948 53.83732589 -7.29935249 56.90518972 -17 57.6875 C-25.61672935 57.40027569 -32.90358413 54.28868992 -39.125 48.375 C-45.02056161 42.03827391 -48.13713174 35.17202381 -48.5625 26.5 C-48.20740123 17.33845184 -44.71597891 9.8972266 -38.41015625 3.3203125 C-26.99145651 -6.40022164 -12.95962203 -6.73900346 0 0 Z M-38.125 6.375 C-44.04818735 12.77844579 -46.47451624 19.53204905 -46.34375 28.1953125 C-45.41710179 37.42870005 -40.73769605 44.29607529 -33.80859375 50.17578125 C-32.02254755 51.57183181 -32.02254755 51.57183181 -29.125 52.375 C-29.125 49.405 -29.125 46.435 -29.125 43.375 C-27.125 43.375 -27.125 43.375 -24.6875 45.75 C-23.841875 46.61625 -22.99625 47.4825 -22.125 48.375 C-18.8493083 50.55879446 -17.92429471 50.91775639 -14.125 50.375 C-10.69745126 48.1431078 -8.46425079 46.24813844 -7.125 42.375 C-7.02957459 39.43963955 -7.25750618 36.54947545 -7.5 33.625 C-7.55671875 32.83222656 -7.6134375 32.03945313 -7.671875 31.22265625 C-7.81283695 29.27268265 -7.9675712 27.32371329 -8.125 25.375 C-9.115 25.045 -10.105 24.715 -11.125 24.375 C-11.62 23.385 -11.62 23.385 -12.125 22.375 C-10.805 22.375 -9.485 22.375 -8.125 22.375 C-8.3725 21.01375 -8.3725 21.01375 -8.625 19.625 C-9.125 16.375 -9.125 16.375 -9.125 12.375 C-7.625 10.625 -7.625 10.625 -6.125 9.375 C-6.28613281 10.34953125 -6.44726562 11.3240625 -6.61328125 12.328125 C-7.22091592 16.59985049 -7.30873973 20.81573028 -7.3125 25.125 C-7.33086914 26.25615234 -7.33086914 26.25615234 -7.34960938 27.41015625 C-7.35988446 31.26673682 -7.31364411 33.09203384 -5.125 36.375 C-4.31675781 35.96507812 -3.50851563 35.55515625 -2.67578125 35.1328125 C-1.60714844 34.59398437 -0.53851563 34.05515625 0.5625 33.5 C1.61824219 32.96632812 2.67398438 32.43265625 3.76171875 31.8828125 C6.43495905 30.58811895 9.1021133 29.43476746 11.875 28.375 C12.42515143 19.75596098 10.32807688 13.67559014 4.6875 7.0625 C-1.94115681 0.19938909 -7.54670043 -2.23739675 -17.1015625 -2.71875 C-25.54232984 -2.45702078 -31.95550236 0.73513441 -38.125 6.375 Z " fill="#34AB72" transform="translate(49.125,5.625)"/>
<path d="M0 0 C0 0.66 0 1.32 0 2 C-2.01171875 3.296875 -2.01171875 3.296875 -4.6875 4.75 C-11.90599748 8.95059458 -16.31354747 14.17407306 -18.6875 22.375 C-19.71647733 31.01840955 -18.37745623 37.42796879 -14.375 45.125 C-10.13785561 50.25417479 -5.67070438 54.25570534 0.8125 56.0625 C6.2620317 56.3141852 11.68405079 55.07052219 17 54 C17.94488281 53.81179687 18.88976563 53.62359375 19.86328125 53.4296875 C20.56839844 53.28789063 21.27351563 53.14609375 22 53 C22.495 54.98 22.495 54.98 23 57 C12.83529975 60.49932304 5.09877276 61.26142481 -5 57 C-13.10074804 52.38946787 -18.9570834 45.33196583 -21.52734375 36.34375 C-23.21514959 27.97446482 -21.93954839 20.57011258 -18 13 C-13.75346727 6.9756347 -7.93095356 0 0 0 Z " fill="#32C67F" transform="translate(23,3)"/>
<path d="M0 0 C0.33 0 0.66 0 1 0 C1.00257812 0.96421875 1.00515625 1.9284375 1.0078125 2.921875 C0.94819005 10.62255766 0.94819005 10.62255766 4.75 16.875 C7.86569497 17.9535098 9.76983711 18.6111119 13 18 C14.68798827 16.56249809 14.68798827 16.56249809 16 15 C16.66 15 17.32 15 18 15 C18.66 13.68 19.32 12.36 20 11 C20.99 11 21.98 11 23 11 C23 11.99 23 12.98 23 14 C24.32 14.66 25.64 15.32 27 16 C26.34 16.33 25.68 16.66 25 17 C25 17.66 25 18.32 25 19 C25.66 19 26.32 19 27 19 C26.67 19.99 26.34 20.98 26 22 C25.01 21.67 24.02 21.34 23 21 C23 20.34 23 19.68 23 19 C22.46632813 19.20496094 21.93265625 19.40992187 21.3828125 19.62109375 C13.67814929 22.40703598 6.10979226 23.92074027 -2 22 C-3.125 14.25 -3.125 14.25 -2 12 C-1.34 12 -0.68 12 0 12 C0 8.04 0 4.08 0 0 Z " fill="#2F8059" transform="translate(22,37)"/>
<path d="M0 0 C6.82284965 5.6362671 12.27101872 11.44779105 13.875 20.375 C14.06505989 22.77505855 14.02894432 24.96320569 13.875 27.375 C12.885 27.87 12.885 27.87 11.875 28.375 C11.72804687 27.4571875 11.58109375 26.539375 11.4296875 25.59375 C9.70353505 16.14951362 7.37886355 10.54107378 0.375 4.0625 C-7.27786842 -1.10318618 -14.71957329 -2.25563312 -23.875 -1.1875 C-24.98875 -0.9090625 -24.98875 -0.9090625 -26.125 -0.625 C-25.795 -1.615 -25.465 -2.605 -25.125 -3.625 C-17.18171646 -7.12004476 -7.19489567 -3.74134575 0 0 Z " fill="#35C781" transform="translate(49.125,5.625)"/>
<path d="M0 0 C0.33 1.32 0.66 2.64 1 4 C-8.44867528 7.25282264 -15.33084094 7.76261687 -25 5 C-24.67 4.01 -24.34 3.02 -24 2 C-23.0925 2.20625 -22.185 2.4125 -21.25 2.625 C-13.7728043 3.72819281 -7.1778495 0 0 0 Z " fill="#F6FBF9" transform="translate(45,56)"/>
<path d="M0 0 C0.99 0 1.98 0 3 0 C3 0.99 3 1.98 3 3 C4.32 3.66 5.64 4.32 7 5 C6.01 5.495 6.01 5.495 5 6 C5 6.66 5 7.32 5 8 C5.66 8 6.32 8 7 8 C6.67 8.99 6.34 9.98 6 11 C5.01 10.67 4.02 10.34 3 10 C3 9.34 3 8.68 3 8 C2.01 8.495 2.01 8.495 1 9 C-1.3329866 9.04022391 -3.66706666 9.04320247 -6 9 C-5.07544441 7.491987 -4.1349253 5.99375083 -3.1875 4.5 C-2.66542969 3.6646875 -2.14335938 2.829375 -1.60546875 1.96875 C-1.07566406 1.3190625 -0.54585937 0.669375 0 0 Z " fill="#2F8E60" transform="translate(42,48)"/>
<path d="M0 0 C0.66 0 1.32 0 2 0 C3.125 4.75 3.125 4.75 2 7 C1.7677354 9.71262116 1.58063765 12.40773126 1.4375 15.125 C1.39431641 15.87910156 1.35113281 16.63320313 1.30664062 17.41015625 C1.2005168 19.27321888 1.09974999 21.13658524 1 23 C0.67 23 0.34 23 0 23 C0 20.69 0 18.38 0 16 C-1.32 15.67 -2.64 15.34 -4 15 C-4 14.34 -4 13.68 -4 13 C-2.68 13 -1.36 13 0 13 C-0.99 10.03 -1.98 7.06 -3 4 C-2.34 3.34 -1.68 2.68 -1 2 C-0.67 1.34 -0.34 0.68 0 0 Z " fill="#2F2B2C" transform="translate(41,15)"/>
<path d="M0 0 C0 3 0 3 -1.53125 4.82421875 C-2.50578125 5.74654297 -2.50578125 5.74654297 -3.5 6.6875 C-4.1496875 7.31011719 -4.799375 7.93273438 -5.46875 8.57421875 C-5.9740625 9.04472656 -6.479375 9.51523437 -7 10 C-7.33 9.34 -7.66 8.68 -8 8 C-8.99 8.33 -9.98 8.66 -11 9 C-10.81640625 7.171875 -10.81640625 7.171875 -10 5 C-7.71484375 3.515625 -7.71484375 3.515625 -4.9375 2.25 C-4.01839844 1.82203125 -3.09929688 1.3940625 -2.15234375 0.953125 C-1.44207031 0.63859375 -0.73179688 0.3240625 0 0 Z " fill="#88DDB4" transform="translate(57,48)"/>
<path d="M0 0 C0.66 0.66 1.32 1.32 2 2 C4.10820797 1.6814823 4.10820797 1.6814823 6 1 C6.625 2.8125 6.625 2.8125 7 5 C6.01 6.485 6.01 6.485 5 8 C1.125 7.125 1.125 7.125 0 6 C-1 3 -1 3 0 0 Z " fill="#949393" transform="translate(30,30)"/>
<path d="M0 0 C0.66 0.33 1.32 0.66 2 1 C0.515 2.485 0.515 2.485 -1 4 C-0.01 4.66 0.98 5.32 2 6 C-1.9813783 7.3271261 -5.85045227 7.06915913 -10 7 C-7.5682889 3.35243335 -6.06120946 3.26912796 -2 2 C-1.34 1.34 -0.68 0.68 0 0 Z " fill="#284B39" transform="translate(38,52)"/>
<path d="M0 0 C0.33 0.66 0.66 1.32 1 2 C3.52733235 2.65555119 3.52733235 2.65555119 6 3 C5.67 3.66 5.34 4.32 5 5 C4.01 5.33 3.02 5.66 2 6 C1.34 6.66 0.68 7.32 0 8 C0 5.36 0 2.72 0 0 Z " fill="#333031" transform="translate(22,26)"/>
<path d="M0 0 C0.66 0 1.32 0 2 0 C3.125 4.75 3.125 4.75 2 7 C1.34 7 0.68 7 0 7 C0 6.34 0 5.68 0 5 C-0.99 5.33 -1.98 5.66 -3 6 C-2 4 -1 2 0 0 Z " fill="#908E8E" transform="translate(41,15)"/>
</svg>
