<?xml version="1.0" encoding="UTF-8"?>
<svg version="1.1" xmlns="http://www.w3.org/2000/svg" width="64" height="64">
<path d="M0 0 C21.12 0 42.24 0 64 0 C64 21.12 64 42.24 64 64 C42.88 64 21.76 64 0 64 C0 42.88 0 21.76 0 0 Z " fill="#000101" transform="translate(0,0)"/>
<path d="M0 0 C2.31 0 4.62 0 7 0 C10.78341014 8.06795525 14.20503019 16.26284153 17.50415039 24.53735352 C18.32446663 26.59247982 19.1513009 28.64490773 19.97851562 30.69726562 C20.50299372 32.00765665 21.02709679 33.31819785 21.55078125 34.62890625 C22.02169189 35.80525635 22.49260254 36.98160645 22.9777832 38.19360352 C24 41 24 41 24 43 C22.02 43 20.04 43 18 43 C17.35004703 41.58521865 16.70521278 40.16808513 16.0625 38.75 C15.70285156 37.96109375 15.34320313 37.1721875 14.97265625 36.359375 C14 34 14 34 13 30 C8.38 30 3.76 30 -1 30 C-1 28.35 -1 26.7 -1 25 C2.63 24.67 6.26 24.34 10 24 C8.02 18.72 6.04 13.44 4 8 C2.06061181 10.90908228 1.03225043 13.40862379 -0.125 16.6875 C-0.47820313 17.68136719 -0.83140625 18.67523437 -1.1953125 19.69921875 C-1.59363281 20.83810547 -1.59363281 20.83810547 -2 22 C-3.65 21.01 -5.3 20.02 -7 19 C-6.02241999 16.20776841 -5.04301077 13.41620228 -4.0625 10.625 C-3.78470703 9.8309375 -3.50691406 9.036875 -3.22070312 8.21875 C-2.95322266 7.45820313 -2.68574219 6.69765625 -2.41015625 5.9140625 C-2.16402588 5.2123291 -1.91789551 4.5105957 -1.66430664 3.78759766 C-1 2 -1 2 0 0 Z " fill="#F8F8F8" transform="translate(28,11)"/>
<path d="M0 0 C1.66042444 2.49063665 2.55324168 4.25176398 3.5078125 7.01171875 C3.77207031 7.76904297 4.03632812 8.52636719 4.30859375 9.30664062 C4.57800781 10.09232422 4.84742187 10.87800781 5.125 11.6875 C5.54072266 12.88342773 5.54072266 12.88342773 5.96484375 14.10351562 C6.6470154 16.06769952 7.32401098 18.03367973 8 20 C7.14535156 20.04898438 6.29070313 20.09796875 5.41015625 20.1484375 C4.30542969 20.22320312 3.20070313 20.29796875 2.0625 20.375 C0.96035156 20.44460937 -0.14179688 20.51421875 -1.27734375 20.5859375 C-2.17582031 20.72257812 -3.07429688 20.85921875 -4 21 C-4.33 21.66 -4.66 22.32 -5 23 C-5.66 23 -6.32 23 -7 23 C-6.67 23.99 -6.34 24.98 -6 26 C-7.1796875 28.41015625 -7.1796875 28.41015625 -8.875 31.0625 C-9.70644531 32.37927734 -9.70644531 32.37927734 -10.5546875 33.72265625 C-11.03164063 34.47417969 -11.50859375 35.22570313 -12 36 C-12.33 36.66 -12.66 37.32 -13 38 C-14.98 38 -16.96 38 -19 38 C-17.25 31.25 -17.25 31.25 -15 29 C-15.680625 28.443125 -16.36125 27.88625 -17.0625 27.3125 C-17.701875 26.549375 -18.34125 25.78625 -19 25 C-18.75 22.25 -18.75 22.25 -18 20 C-17.01 20.33 -16.02 20.66 -15 21 C-15.66 20.01 -16.32 19.02 -17 18 C-16.01 18 -15.02 18 -14 18 C-14 17.67 -14 17.34 -14 17 C-14 16.67 -14 16.34 -14 16 C-7.25 15 -7.25 15 -5 15 C-3.35 10.05 -1.7 5.1 0 0 Z " fill="#040606" transform="translate(31,16)"/>
<path d="M0 0 C1.48555383 0.92734572 2.96327506 1.86724813 4.4375 2.8125 C5.67306641 3.59560547 5.67306641 3.59560547 6.93359375 4.39453125 C9 6 9 6 10 9 C8.8203125 11.41015625 8.8203125 11.41015625 7.125 14.0625 C6.29355469 15.37927734 6.29355469 15.37927734 5.4453125 16.72265625 C4.96835937 17.47417969 4.49140625 18.22570312 4 19 C3.67 19.66 3.34 20.32 3 21 C1.02 21 -0.96 21 -3 21 C-1.25 14.25 -1.25 14.25 1 12 C0.319375 11.443125 -0.36125 10.88625 -1.0625 10.3125 C-1.701875 9.549375 -2.34125 8.78625 -3 8 C-2.75 5.25 -2.75 5.25 -2 3 C-1.01 3.33 -0.02 3.66 1 4 C0.34 3.01 -0.32 2.02 -1 1 C-0.67 0.67 -0.34 0.34 0 0 Z " fill="#061310" transform="translate(15,33)"/>
<path d="M0 0 C1.67542976 0.28604898 3.34385343 0.61781233 5 1 C4.125 5.75 4.125 5.75 3 8 C1.02 8 -0.96 8 -3 8 C-1.125 1.125 -1.125 1.125 0 0 Z " fill="#F6F6F6" transform="translate(15,46)"/>
<path d="M0 0 C1.48555383 0.92734572 2.96327506 1.86724813 4.4375 2.8125 C5.26121094 3.33457031 6.08492187 3.85664062 6.93359375 4.39453125 C9 6 9 6 10 9 C6.22089522 9 5.53893899 8.00296038 2.8125 5.5 C2.09707031 4.8503125 1.38164062 4.200625 0.64453125 3.53125 C0.10183594 3.0259375 -0.44085938 2.520625 -1 2 C-0.67 1.34 -0.34 0.68 0 0 Z " fill="#78EADB" transform="translate(15,33)"/>
<path d="M0 0 C1.31896465 0.92838287 2.62998689 1.86805732 3.9375 2.8125 C4.66839844 3.33457031 5.39929688 3.85664062 6.15234375 4.39453125 C8 6 8 6 9 9 C4.27745665 7.50867052 4.27745665 7.50867052 2.875 4.9375 C2.58625 4.298125 2.2975 3.65875 2 3 C1.01 2.67 0.02 2.34 -1 2 C-0.67 1.34 -0.34 0.68 0 0 Z " fill="#75E9DA" transform="translate(13,36)"/>
<path d="M0 0 C2.875 0.1875 2.875 0.1875 6 1 C7.375 3.5625 7.375 3.5625 8 6 C4.08597051 4.73058503 2.20927127 3.48832306 0 0 Z " fill="#78F1E1" transform="translate(17,32)"/>
<path d="M0 0 C3.41158256 1.13719419 4.11854601 2.04342944 6 5 C6 5.66 6 6.32 6 7 C4.125 6.6875 4.125 6.6875 2 6 C0 3 0 3 0 0 Z " fill="#34645A" transform="translate(12,38)"/>
</svg>
