<?xml version="1.0" encoding="UTF-8"?>
<svg version="1.1" xmlns="http://www.w3.org/2000/svg" width="64" height="64">
<path d="M0 0 C21.12 0 42.24 0 64 0 C64 21.12 64 42.24 64 64 C42.88 64 21.76 64 0 64 C0 42.88 0 21.76 0 0 Z " fill="#6ABD5B" transform="translate(0,0)"/>
<path d="M0 0 C7.24914676 0.36860068 7.24914676 0.36860068 10.75 3.3125 C11.4925 4.199375 12.235 5.08625 13 6 C13.721875 6.680625 14.44375 7.36125 15.1875 8.0625 C18.06424249 11.13763852 18.96152695 12.99970072 19.125 17.25 C19.08375 18.1575 19.0425 19.065 19 20 C18.34 20.33 17.68 20.66 17 21 C16.360625 20.154375 15.72125 19.30875 15.0625 18.4375 C12.37924598 15.80610943 12.37924598 15.80610943 9.91015625 15.92578125 C8.35812487 16.14598399 6.81074655 16.40123779 5.26953125 16.6875 C3 17 3 17 -0.6875 16.25 C-4.36863321 15.97217863 -4.75784198 16.20236469 -7.4375 18.4375 C-8.283125 19.283125 -9.12875 20.12875 -10 21 C-11 20 -11 20 -11.0625 16.9375 C-11.041875 15.968125 -11.02125 14.99875 -11 14 C-10.34 14 -9.68 14 -9 14 C-8.896875 13.05125 -8.79375 12.1025 -8.6875 11.125 C-8 8 -8 8 -5 6 C-5.66 5.34 -6.32 4.68 -7 4 C-4.69 3.34 -2.38 2.68 0 2 C0 1.34 0 0.68 0 0 Z " fill="#212121" transform="translate(28,5)"/>
<path d="M0 0 C0.66 0 1.32 0 2 0 C2.99 2.31 3.98 4.62 5 7 C7.31 7 9.62 7 12 7 C11.67 7.66 11.34 8.32 11 9 C10.04013703 11.8795889 10.00791285 13.09495421 10.25 16 C10.32576624 19.62989178 10.03120824 19.96078964 7.5625 23.0625 C4.80680726 24.9934486 2.71370737 25.30711131 -0.625 25.125 C-3.84712249 24.53817162 -4.96380737 24.0300134 -7.5625 21.875 C-9.3302125 18.339575 -9.28957903 15.90931685 -9 12 C-8.7763932 9.0745356 -8.7763932 9.0745356 -10 7 C-7.25 6.75 -7.25 6.75 -4 7 C-1.625 9 -1.625 9 0 11 C-0.34786708 9.02463255 -0.34786708 9.02463255 -1 7 C-1.66 6.67 -2.32 6.34 -3 6 C-2.01 4.02 -1.02 2.04 0 0 Z " fill="#F4F4F4" transform="translate(31,28)"/>
<path d="M0 0 C0.66 0.33 1.32 0.66 2 1 C1.835 1.598125 1.67 2.19625 1.5 2.8125 C0.83666545 5.71458864 0.95000343 7.80455888 1.6875 10.6875 C2.11362506 15.20442563 0.78598498 17.85651484 -1 22 C-1.66 22 -2.32 22 -3 22 C-3.66 23.32 -4.32 24.64 -5 26 C-5.66 26 -6.32 26 -7 26 C-7.33 26.66 -7.66 27.32 -8 28 C-15.37974684 29.53164557 -15.37974684 29.53164557 -19 28 C-19.33 27.34 -19.66 26.68 -20 26 C-21.61995892 24.95499149 -21.61995892 24.95499149 -23.5 24 C-26.88888889 22.22222222 -26.88888889 22.22222222 -28 20 C-28.039992 18.00039988 -28.04346799 15.99952758 -28 14 C-28.66 14 -29.32 14 -30 14 C-29.125 9.25 -29.125 9.25 -28 7 C-28.66 7 -29.32 7 -30 7 C-29 5 -29 5 -26 4 C-24.68 5.65 -23.36 7.3 -22 9 C-22.33 9.33 -22.66 9.66 -23 10 C-23.2595604 13.4391753 -23.33851615 16.14242575 -22.0625 19.375 C-18.7142833 22.01298892 -15.18432763 22.27113857 -11 22 C-7.75471516 20.92044488 -7.75471516 20.92044488 -6 18 C-5.7902794 15.41915266 -5.87359929 13.01482041 -6.1171875 10.4375 C-5.97011947 7.37848502 -4.99654214 6.26242548 -3 4 C-2.443125 3.2575 -1.88625 2.515 -1.3125 1.75 C-0.879375 1.1725 -0.44625 0.595 0 0 Z " fill="#020202" transform="translate(46,30)"/>
<path d="M0 0 C2.52851112 0.42811176 2.52851112 0.42811176 6.0234375 -0.40625 C9.2734375 -0.71875 9.2734375 -0.71875 12.2109375 1.09375 C14.2734375 3.28125 14.2734375 3.28125 14.2734375 5.28125 C15.5934375 5.61125 16.9134375 5.94125 18.2734375 6.28125 C17.9434375 6.94125 17.6134375 7.60125 17.2734375 8.28125 C16.6134375 7.95125 15.9534375 7.62125 15.2734375 7.28125 C15.3146875 8.065 15.3559375 8.84875 15.3984375 9.65625 C15.2734375 12.28125 15.2734375 12.28125 13.2734375 14.28125 C10.61806378 14.84645003 7.98199037 15.01913198 5.2734375 15.28125 C2.64957263 12.22007432 2.2734375 11.54951873 2.2734375 7.28125 C1.6134375 7.28125 0.9534375 7.28125 0.2734375 7.28125 C-0.60161945 11.43777053 -0.81978792 14.18165469 0.2734375 18.28125 C-0.7165625 17.95125 -1.7065625 17.62125 -2.7265625 17.28125 C-3.0565625 16.62125 -3.3865625 15.96125 -3.7265625 15.28125 C-6.75590741 14.62352572 -6.75590741 14.62352572 -9.7265625 14.28125 C-9.7265625 13.95125 -9.7265625 13.62125 -9.7265625 13.28125 C-8.7778125 12.9925 -7.8290625 12.70375 -6.8515625 12.40625 C-3.67444672 11.51299891 -3.67444672 11.51299891 -1.7265625 9.28125 C-1.7265625 7.96125 -1.7265625 6.64125 -1.7265625 5.28125 C-6.5162946 5.04696687 -6.5162946 5.04696687 -10.7265625 7.28125 C-11.0565625 5.96125 -11.3865625 4.64125 -11.7265625 3.28125 C-7.73712618 -0.96556931 -5.37029609 -0.92775879 0 0 Z " fill="#2D322D" transform="translate(30.7265625,20.71875)"/>
<path d="M0 0 C0.33 0 0.66 0 1 0 C1 8.58 1 17.16 1 26 C-7.58 26 -16.16 26 -25 26 C-21 24 -21 24 -19.0703125 23.10546875 C-10.68504263 19.14856429 -4.47589954 13.79910237 -1.24609375 4.9296875 C-0.77480952 3.30161471 -0.37860314 1.65208641 0 0 Z " fill="#FEFEFE" transform="translate(63,38)"/>
<path d="M0 0 C2 4 2 4 2.89453125 5.9296875 C6.85143571 14.31495737 12.20089763 20.52410046 21.0703125 23.75390625 C22.69838529 24.22519048 24.34791359 24.62139686 26 25 C26 25.33 26 25.66 26 26 C17.42 26 8.84 26 0 26 C0 17.42 0 8.84 0 0 Z " fill="#FEFEFE" transform="translate(0,38)"/>
<path d="M0 0 C8.58 0 17.16 0 26 0 C26 8.58 26 17.16 26 26 C24 22 24 22 23.10546875 20.0703125 C19.14856429 11.68504263 13.79910237 5.47589954 4.9296875 2.24609375 C3.30161471 1.77480952 1.65208641 1.37860314 0 1 C0 0.67 0 0.34 0 0 Z " fill="#FEFEFE" transform="translate(38,0)"/>
<path d="M0 0 C8.58 0 17.16 0 26 0 C22 2 22 2 20.0703125 2.89453125 C11.68504263 6.85143571 5.47589954 12.20089763 2.24609375 21.0703125 C1.77480952 22.69838529 1.37860314 24.34791359 1 26 C0.67 26 0.34 26 0 26 C0 17.42 0 8.84 0 0 Z " fill="#FEFEFE" transform="translate(0,0)"/>
<path d="M0 0 C7.24914676 0.36860068 7.24914676 0.36860068 10.75 3.3125 C11.4925 4.199375 12.235 5.08625 13 6 C13.721875 6.680625 14.44375 7.36125 15.1875 8.0625 C18.06424249 11.13763852 18.96152695 12.99970072 19.125 17.25 C19.08375 18.1575 19.0425 19.065 19 20 C18.34 20.33 17.68 20.66 17 21 C15.79371992 18.66785852 14.8345262 16.50357861 14 14 C13.24519474 12.6044248 12.45011655 11.23019142 11.625 9.875 C11.20476563 9.17117188 10.78453125 8.46734375 10.3515625 7.7421875 C9.02558027 5.69978564 9.02558027 5.69978564 6 5 C6 5.33 6 5.66 6 6 C5.38511719 6.13277344 4.77023438 6.26554688 4.13671875 6.40234375 C2.92435547 6.66724609 2.92435547 6.66724609 1.6875 6.9375 C0.88699219 7.11152344 0.08648437 7.28554687 -0.73828125 7.46484375 C-3.145401 7.99886159 -3.145401 7.99886159 -6 9 C-5.67 9.99 -5.34 10.98 -5 12 C-6.08418846 15.5236125 -7.68033834 18.15314251 -10 21 C-11 20 -11 20 -11.0625 16.9375 C-11.041875 15.968125 -11.02125 14.99875 -11 14 C-10.34 14 -9.68 14 -9 14 C-8.896875 13.05125 -8.79375 12.1025 -8.6875 11.125 C-8 8 -8 8 -5 6 C-5.66 5.34 -6.32 4.68 -7 4 C-4.69 3.34 -2.38 2.68 0 2 C0 1.34 0 0.68 0 0 Z " fill="#020402" transform="translate(28,5)"/>
<path d="M0 0 C3.125 0.1875 3.125 0.1875 6.125 2.1875 C7.3125 5.3125 7.3125 5.3125 8.125 8.1875 C7.465 8.8475 6.805 9.5075 6.125 10.1875 C2.72156595 10.00185814 0.08760118 9.80853302 -2.8125 7.9375 C-4.24581965 5.57673823 -4.16034319 3.89826028 -3.875 1.1875 C-2.875 0.1875 -2.875 0.1875 0 0 Z " fill="#BDE1B6" transform="translate(37.875,24.8125)"/>
<path d="M0 0 C0.75 2.25 0.75 2.25 1 5 C-1.16357428 8.11554696 -2.53899759 8.89361483 -6.25 9.75 C-7.61125 9.87375 -7.61125 9.87375 -9 10 C-9.36103152 3.6217765 -9.36103152 3.6217765 -7.875 1.0625 C-5.214973 -0.44484863 -2.99793795 -0.19986253 0 0 Z " fill="#8CC581" transform="translate(29,25)"/>
<path d="M0 0 C1.08861328 0.22236328 1.08861328 0.22236328 2.19921875 0.44921875 C5.52517927 1.01813305 7.25606015 1.0701162 10.69921875 0.44921875 C11.75109375 0.34609375 12.80296875 0.24296875 13.88671875 0.13671875 C15.20671875 1.45671875 16.52671875 2.77671875 17.88671875 4.13671875 C9.96671875 4.13671875 2.04671875 4.13671875 -6.11328125 4.13671875 C-2.11328125 0.13671875 -2.11328125 0.13671875 0 0 Z " fill="#F4F4F4" transform="translate(26.11328125,19.86328125)"/>
<path d="M0 0 C0.29296875 6.0546875 0.29296875 6.0546875 0 8 C-0.99 8.66 -1.98 9.32 -3 10 C-3.99 9.34 -4.98 8.68 -6 8 C-6.45192646 5.06247802 -6.44914337 3.62024561 -4.6875 1.1875 C-3 0 -3 0 0 0 Z " fill="#5F615E" transform="translate(20,26)"/>
<path d="M0 0 C2 1 2 1 3.125 4.0625 C3.41375 5.031875 3.7025 6.00125 4 7 C3.34 7.66 2.68 8.32 2 9 C-1.625 8.625 -1.625 8.625 -5 8 C-3.62845496 5.04590299 -2.01136276 2.55991624 0 0 Z " fill="#8FBB86" transform="translate(42,26)"/>
<path d="M0 0 C1.4540625 0.0309375 1.4540625 0.0309375 2.9375 0.0625 C1.49496343 3.42841866 -0.39514727 5.57297079 -3.0625 8.0625 C-3.7225 7.7325 -4.3825 7.4025 -5.0625 7.0625 C-4.4025 6.0725 -3.7425 5.0825 -3.0625 4.0625 C-4.0525 4.3925 -5.0425 4.7225 -6.0625 5.0625 C-3.64893617 0.07446809 -3.64893617 0.07446809 0 0 Z " fill="#C4E0BE" transform="translate(26.0625,24.9375)"/>
<path d="M0 0 C1 3 1 3 1 5 C1.31478446 6.33783393 1.64587656 7.67203709 2 9 C1.01 8.67 0.02 8.34 -1 8 C-1.33 7.34 -1.66 6.68 -2 6 C-5.02934491 5.34227572 -5.02934491 5.34227572 -8 5 C-8 4.67 -8 4.34 -8 4 C-6.576875 3.566875 -6.576875 3.566875 -5.125 3.125 C-1.94788422 2.23174891 -1.94788422 2.23174891 0 0 Z " fill="#232A21" transform="translate(29,30)"/>
<path d="M0 0 C1.98 0.66 3.96 1.32 6 2 C5.67 2.66 5.34 3.32 5 4 C4.34 3.67 3.68 3.34 3 3 C3 3.99 3 4.98 3 6 C2.34 6 1.68 6 1 6 C0.67 4.02 0.34 2.04 0 0 Z " fill="#191A1A" transform="translate(43,25)"/>
</svg>
