<?xml version="1.0" encoding="UTF-8"?>
<svg version="1.1" xmlns="http://www.w3.org/2000/svg" width="64" height="64">
<path d="M0 0 C21.12 0 42.24 0 64 0 C64 21.12 64 42.24 64 64 C42.88 64 21.76 64 0 64 C0 42.88 0 21.76 0 0 Z " fill="#010101" transform="translate(0,0)"/>
<path d="M0 0 C0.66 0 1.32 0 2 0 C2.47421387 0.83249268 2.94842773 1.66498535 3.43701172 2.52270508 C5.19893432 5.61512884 6.96228887 8.70673406 8.72607422 11.7980957 C9.48883437 13.13543824 10.2512075 14.47300159 11.01318359 15.81079102 C12.10933056 17.73512204 13.20687293 19.65865121 14.3046875 21.58203125 C14.6443454 22.17901321 14.9840033 22.77599518 15.33395386 23.3910675 C16.81834818 25.98893265 18.33918575 28.50877862 20 31 C20 31.99 20 32.98 20 34 C7.46 34 -5.08 34 -18 34 C-17.01078062 30.04312248 -15.67280367 27.35010955 -13.69140625 23.80859375 C-13.36462387 23.22207535 -13.03784149 22.63555695 -12.70115662 22.03126526 C-12.01152363 20.79542477 -11.3196676 19.56082249 -10.62573242 18.32739258 C-9.5654985 16.44282982 -8.51164899 14.55481497 -7.45898438 12.66601562 C-2.35136962 3.52705442 -2.35136962 3.52705442 0 0 Z " fill="#D1D1D1" transform="translate(31,12)"/>
<path d="M0 0 C1 2 1 2 0.875 5.3125 C0.69375762 8.99139106 0.69375762 8.99139106 2.625 11.625 C4 14 4 14 3.375 16.6875 C2 19 2 19 -1 21 C-2.32 21 -3.64 21 -5 21 C-5 21.66 -5 22.32 -5 23 C-8.96 23.495 -8.96 23.495 -13 24 C-11.71075644 20.59797567 -10.2347924 17.49435446 -8.3984375 14.35546875 C-7.90859375 13.51435547 -7.41875 12.67324219 -6.9140625 11.80664062 C-6.40617187 10.94232422 -5.89828125 10.07800781 -5.375 9.1875 C-4.859375 8.30384766 -4.34375 7.42019531 -3.8125 6.50976562 C-2.54468886 4.33805211 -1.27377652 2.1682182 0 0 Z " fill="#D1D1D1" transform="translate(26,21)"/>
<path d="M0 0 C0.99 0 1.98 0 3 0 C3 0.66 3 1.32 3 2 C4.32 2 5.64 2 7 2 C7 3.32 7 4.64 7 6 C8.98 5.67 10.96 5.34 13 5 C15 8 15 8 15 11 C6.42 11 -2.16 11 -11 11 C-10.01 10.34 -9.02 9.68 -8 9 C-5.10947756 6.90437123 -3.2028524 5.34328867 -1.375 2.25 C-0.92125 1.5075 -0.4675 0.765 0 0 Z " fill="#D1D1D1" transform="translate(35,34)"/>
<path d="M0 0 C1.875 1.5625 1.875 1.5625 3 3 C1.35 3.33 -0.3 3.66 -2 4 C-2 3.34 -2 2.68 -2 2 C-5.89730729 3.47828897 -6.94269008 5.48542888 -9 9 C-10.32 9.99 -11.64 10.98 -13 12 C-5.41 12.33 2.18 12.66 10 13 C10.33 12.34 10.66 11.68 11 11 C11 11.99 11 12.98 11 14 C-1.54 14 -14.08 14 -27 14 C-23 12 -23 12 -19 12 C-19 11.34 -19 10.68 -19 10 C-18.38125 9.87625 -17.7625 9.7525 -17.125 9.625 C-14.30098355 8.79440693 -13.29316052 7.49374403 -11.8125 5 C-11.544375 4.34 -11.27625 3.68 -11 3 C-11.33 2.34 -11.66 1.68 -12 1 C-7.56980483 -0.79317423 -4.6336848 -1.33862005 0 0 Z " fill="#9A9A9A" transform="translate(40,32)"/>
<path d="M0 0 C0.66 0 1.32 0 2 0 C1.42655063 2.86724686 1.1385485 3.8614515 -1 6 C-0.68404492 7.67004829 -0.34820041 9.33637583 0 11 C-0.33333333 12.66666667 -0.66666667 14.33333333 -1 16 C-0.62277985 18.72502965 -0.62277985 18.72502965 0 21 C-1.9375 20.625 -1.9375 20.625 -4 20 C-5.87208821 16.25582359 -5.54506127 12.07611035 -5 8 C-3.71961557 5.01880641 -2.20506639 2.39216293 0 0 Z " fill="#B2B2B2" transform="translate(31,12)"/>
<path d="M0 0 C1.875 1.5625 1.875 1.5625 3 3 C1.35 3.33 -0.3 3.66 -2 4 C-2 3.34 -2 2.68 -2 2 C-4.46800047 3.15173355 -6.04783565 4.04783565 -8 6 C-8 5.34 -8 4.68 -8 4 C-9.32 3.34 -10.64 2.68 -12 2 C-7.55077661 -0.96614893 -5.13568669 -1.28392167 0 0 Z " fill="#AEAEAE" transform="translate(40,32)"/>
<path d="M0 0 C2.0625 0.75 2.0625 0.75 4 2 C4.33 2.99 4.66 3.98 5 5 C2.92446352 5.5534764 1.15634036 6 -1 6 C-1.33 4.35 -1.66 2.7 -2 1 C-1.34 0.67 -0.68 0.34 0 0 Z " fill="#B8B8B8" transform="translate(43,34)"/>
<path d="M0 0 C-0.33 1.98 -0.66 3.96 -1 6 C-1.33 5.34 -1.66 4.68 -2 4 C-4.01669827 2.86649466 -4.01669827 2.86649466 -6 2 C-3 0 -3 0 0 0 Z " fill="#040404" transform="translate(34,32)"/>
<path d="M0 0 C0.33 0.99 0.66 1.98 1 3 C-1.95664519 4.4783226 -4.74229737 4.06032783 -8 4 C-6.68 3.67 -5.36 3.34 -4 3 C-4 2.34 -4 1.68 -4 1 C-2.68 0.67 -1.36 0.34 0 0 Z " fill="#B5B5B5" transform="translate(25,41)"/>
</svg>
