<?xml version="1.0" encoding="UTF-8"?>
<svg version="1.1" xmlns="http://www.w3.org/2000/svg" width="64" height="64">
<path d="M0 0 C21.12 0 42.24 0 64 0 C64 21.12 64 42.24 64 64 C42.88 64 21.76 64 0 64 C0 42.88 0 21.76 0 0 Z " fill="#010101" transform="translate(0,0)"/>
<path d="M0 0 C0.99 0.66 1.98 1.32 3 2 C5.38677076 2.29452584 7.78626094 2.4928217 10.1875 2.625 C11.45980469 2.69976563 12.73210938 2.77453125 14.04296875 2.8515625 C15.01878906 2.90054687 15.99460938 2.94953125 17 3 C17.495 5.475 17.495 5.475 18 8 C15.08327116 8.02700675 12.16679323 8.04684237 9.25 8.0625 C8.425 8.07087891 7.6 8.07925781 6.75 8.08789062 C5.55117188 8.09272461 5.55117188 8.09272461 4.328125 8.09765625 C3.5949707 8.10289307 2.86181641 8.10812988 2.10644531 8.11352539 C0 8 0 8 -2.20800781 7.43139648 C-3.09504395 7.21785522 -3.09504395 7.21785522 -4 7 C-4.33 7.33 -4.66 7.66 -5 8 C-6.56172745 8.08685603 -8.12729344 8.10702219 -9.69140625 8.09765625 C-10.63564453 8.09443359 -11.57988281 8.09121094 -12.55273438 8.08789062 C-13.54595703 8.07951172 -14.53917969 8.07113281 -15.5625 8.0625 C-16.55958984 8.05798828 -17.55667969 8.05347656 -18.58398438 8.04882812 C-21.05604849 8.03700007 -23.52799518 8.02051849 -26 8 C-25.67 6.35 -25.34 4.7 -25 3 C-24.34926514 2.98018066 -23.69853027 2.96036133 -23.02807617 2.93994141 C-20.08080849 2.84470701 -17.13425115 2.73502182 -14.1875 2.625 C-13.16333984 2.5940625 -12.13917969 2.563125 -11.08398438 2.53125 C-9.60961914 2.47324219 -9.60961914 2.47324219 -8.10546875 2.4140625 C-7.19949951 2.3826416 -6.29353027 2.3512207 -5.36010742 2.31884766 C-2.73474608 2.13972081 -2.73474608 2.13972081 0 0 Z " fill="#FDFDFD" transform="translate(36,22)"/>
<path d="M0 0 C0.99 0.66 1.98 1.32 3 2 C5.41713479 2.3663859 5.41713479 2.3663859 8.10546875 2.4140625 C9.08837891 2.45273437 10.07128906 2.49140625 11.08398438 2.53125 C12.62022461 2.57765625 12.62022461 2.57765625 14.1875 2.625 C15.22326172 2.66367187 16.25902344 2.70234375 17.32617188 2.7421875 C19.88393622 2.83648296 22.44169287 2.92208202 25 3 C24.67 4.65 24.34 6.3 24 8 C10.66666667 8 -2.66666667 8 -16 8 C-16.33 6.35 -16.66 4.7 -17 3 C-15.94039062 2.95101562 -14.88078125 2.90203125 -13.7890625 2.8515625 C-12.40101503 2.77653291 -11.01299549 2.70098515 -9.625 2.625 C-8.57699219 2.57859375 -8.57699219 2.57859375 -7.5078125 2.53125 C-3.29814173 2.40500502 -3.29814173 2.40500502 0 0 Z " fill="#FDFDFD" transform="translate(28,33)"/>
<path d="M0 0 C3 2.625 3 2.625 5 5 C5 5.33 5 5.66 5 6 C3.35 6 1.7 6 0 6 C-0.33 5.01 -0.66 4.02 -1 3 C-1.54366211 3.48895752 -2.08732422 3.97791504 -2.64746094 4.48168945 C-5.55060176 6.35535412 -7.20990521 6.34771428 -10.640625 6.29296875 C-12.24550781 6.2784668 -12.24550781 6.2784668 -13.8828125 6.26367188 C-14.99398438 6.23853516 -16.10515625 6.21339844 -17.25 6.1875 C-18.93996094 6.16719727 -18.93996094 6.16719727 -20.6640625 6.14648438 C-23.44319264 6.11115645 -26.22135363 6.0618252 -29 6 C-27.84738733 2.54216198 -27.19468242 2.19381534 -24.1875 0.375 C-23.50042969 -0.05039063 -22.81335938 -0.47578125 -22.10546875 -0.9140625 C-14.99991124 -4.5788955 -6.87565936 -3.7383649 0 0 Z " fill="#FBFBFB" transform="translate(44,13)"/>
<path d="M0 0 C0.53915039 0.32145996 1.07830078 0.64291992 1.63378906 0.97412109 C4.49537032 2.21476951 6.74502744 2.31872533 9.859375 2.4140625 C11.53193359 2.47207031 11.53193359 2.47207031 13.23828125 2.53125 C14.39714844 2.5621875 15.55601563 2.593125 16.75 2.625 C18.51150391 2.68300781 18.51150391 2.68300781 20.30859375 2.7421875 C23.20557268 2.8363982 26.10254626 2.92201602 29 3 C24.32813078 7.79780867 19.77862849 10.08143735 13 10.375 C7.43735708 10.13409814 2.69136893 8.47994781 -1.5 4.8125 C-1.995 4.214375 -2.49 3.61625 -3 3 C-2.01 2.01 -1.02 1.02 0 0 Z " fill="#FBFBFB" transform="translate(19,44)"/>
</svg>
