<?xml version="1.0" encoding="UTF-8"?>
<svg version="1.1" xmlns="http://www.w3.org/2000/svg" width="64" height="64">
<path d="M0 0 C21.12 0 42.24 0 64 0 C64 21.12 64 42.24 64 64 C42.88 64 21.76 64 0 64 C0 42.88 0 21.76 0 0 Z " fill="#2B374B" transform="translate(0,0)"/>
<path d="M0 0 C3.06869765 1.39127093 5.89257022 3.09584561 8.75 4.875 C9.51699219 5.33519531 10.28398438 5.79539062 11.07421875 6.26953125 C16.65070452 9.65070452 16.65070452 9.65070452 19 12 C20.34112833 20.06289747 21.63594667 31.91991962 17.08203125 38.96875 C14.45063143 40.76381344 11.97885005 41.88656651 9 43 C7.40656812 43.96264565 5.82246827 44.94097837 4.25 45.9375 C0.70335126 48.04247663 -1.88053468 48.45714765 -6 48 C-9.2109375 46.46875 -9.2109375 46.46875 -12.375 44.5 C-13.43460938 43.8503125 -14.49421875 43.200625 -15.5859375 42.53125 C-16.38257813 42.0259375 -17.17921875 41.520625 -18 41 C-16.68902016 37.5072831 -15.15223419 34.39275517 -13.21484375 31.20703125 C-12.68439453 30.32982422 -12.15394531 29.45261719 -11.60742188 28.54882812 C-11.05634766 27.64583984 -10.50527344 26.74285156 -9.9375 25.8125 C-8.84189254 24.00684728 -7.74681389 22.20087356 -6.65234375 20.39453125 C-5.92519165 19.20114136 -5.92519165 19.20114136 -5.18334961 17.98364258 C-3.98123234 16.02426963 -3.98123234 16.02426963 -3 14 C-0.36 14 2.28 14 5 14 C4.25556641 15.28970703 4.25556641 15.28970703 3.49609375 16.60546875 C-1.14150105 24.66615952 -5.63497334 32.7882936 -10 41 C-6.25171876 43.53818217 -6.25171876 43.53818217 -1.8125 43.8125 C1.10787469 43.21417687 1.10787469 43.21417687 3 41 C2.54367188 40.40832031 2.08734375 39.81664062 1.6171875 39.20703125 C1.04226562 38.41683594 0.46734375 37.62664063 -0.125 36.8125 C-0.70507812 36.03519531 -1.28515625 35.25789063 -1.8828125 34.45703125 C-3 32 -3 32 -2.2421875 29.32421875 C-1.83226563 28.55722656 -1.42234375 27.79023437 -1 27 C-0.67 26.34 -0.34 25.68 0 25 C3.94875582 26.31625194 4.54992713 28.05365398 6.6875 31.5625 C7.31011719 32.57441406 7.93273438 33.58632813 8.57421875 34.62890625 C9.04472656 35.41136719 9.51523437 36.19382813 10 37 C10 33.16017277 6.57683526 29.88658918 4.43359375 26.82421875 C3 24 3 24 3.09765625 21.33203125 C4 19 4 19 7 16 C9.64 20.29 12.28 24.58 15 29 C15 23.72 15 18.44 15 13 C12.46917897 11.45806272 9.92794722 9.94199516 7.375 8.4375 C6.66214844 7.99986328 5.94929688 7.56222656 5.21484375 7.11132812 C1.94050979 5.20380329 -0.22361681 4.00792228 -4.0625 3.96875 C-7.78296632 5.27487116 -11.00844163 7.02780553 -14.375 9.0625 C-15.33599609 9.62807617 -15.33599609 9.62807617 -16.31640625 10.20507812 C-17.88254066 11.12839617 -19.44198034 12.06305393 -21 13 C-21 17.95 -21 22.9 -21 28 C-19.081875 25.091875 -19.081875 25.091875 -17.125 22.125 C-13.25 16.25 -13.25 16.25 -11 14 C-7.875 13.875 -7.875 13.875 -5 14 C-6.31928086 17.51716993 -7.87348391 20.65308518 -9.8203125 23.86328125 C-10.35527344 24.74951172 -10.89023437 25.63574219 -11.44140625 26.54882812 C-11.99699219 27.46083984 -12.55257813 28.37285156 -13.125 29.3125 C-13.68832031 30.24384766 -14.25164063 31.17519531 -14.83203125 32.13476562 C-16.2180446 34.42521142 -17.60745628 36.71352076 -19 39 C-21.16874252 38.49396008 -22.99967627 38.00016187 -25 37 C-25.14518182 32.9170404 -25.23403347 28.83474359 -25.3125 24.75 C-25.35439453 23.59113281 -25.39628906 22.43226562 -25.43945312 21.23828125 C-25.56308019 12.68328832 -25.56308019 12.68328832 -22.9140625 9.46875 C-21.95242187 8.9840625 -20.99078125 8.499375 -20 8 C-18.89785156 7.29359375 -17.79570312 6.5871875 -16.66015625 5.859375 C-15.46362839 5.15168054 -14.26435796 4.4486042 -13.0625 3.75 C-12.46759766 3.38648438 -11.87269531 3.02296875 -11.25976562 2.6484375 C-7.29636056 0.34403149 -4.54744313 -0.78936749 0 0 Z " fill="#96BDDB" transform="translate(35,8)"/>
<path d="M0 0 C2.64 0 5.28 0 8 0 C7.52691406 0.825 7.05382812 1.65 6.56640625 2.5 C1.33095813 11.64062133 -3.84590014 20.81329424 -9 30 C-10.98 29.01 -12.96 28.02 -15 27 C-13.68902016 23.5072831 -12.15223419 20.39275517 -10.21484375 17.20703125 C-9.68439453 16.32982422 -9.15394531 15.45261719 -8.60742188 14.54882812 C-8.05634766 13.64583984 -7.50527344 12.74285156 -6.9375 11.8125 C-5.84189254 10.00684728 -4.74681389 8.20087356 -3.65234375 6.39453125 C-2.92519165 5.20114136 -2.92519165 5.20114136 -2.18334961 3.98364258 C-0.98123234 2.02426963 -0.98123234 2.02426963 0 0 Z " fill="#FBFCFC" transform="translate(32,22)"/>
<path d="M0 0 C0.94875 0.04125 1.8975 0.0825 2.875 0.125 C1.55571914 3.64216993 0.00151609 6.77808518 -1.9453125 9.98828125 C-2.48027344 10.87451172 -3.01523437 11.76074219 -3.56640625 12.67382812 C-4.39978516 14.0418457 -4.39978516 14.0418457 -5.25 15.4375 C-5.81332031 16.36884766 -6.37664063 17.30019531 -6.95703125 18.25976562 C-8.3430446 20.55021142 -9.73245628 22.83852076 -11.125 25.125 C-13.29374252 24.61896008 -15.12467627 24.12516187 -17.125 23.125 C-16.50009528 19.98600491 -15.43638877 17.75943992 -13.69140625 15.0859375 C-12.9653418 13.96832031 -12.9653418 13.96832031 -12.22460938 12.828125 C-11.71736328 12.05984375 -11.21011719 11.2915625 -10.6875 10.5 C-10.18412109 9.72398438 -9.68074219 8.94796875 -9.16210938 8.1484375 C-3.93890306 0.15755612 -3.93890306 0.15755612 0 0 Z " fill="#FCFDFD" transform="translate(27.125,21.875)"/>
<path d="M0 0 C2.5546875 1.09375 2.5546875 1.09375 4.875 2.5 C5.65617187 2.9640625 6.43734375 3.428125 7.2421875 3.90625 C7.82226562 4.2671875 8.40234375 4.628125 9 5 C8.67 5.99 8.34 6.98 8 8 C3.248 6.152 3.248 6.152 1.0625 4.8125 C-2.89905801 3.25188624 -6.72667663 4.90810425 -10.61328125 6.21484375 C-14.51996919 7.91945795 -18.26251862 9.64286536 -21 13 C-22.50951104 17.60153934 -22.21315337 22.27342777 -21.98046875 27.05078125 C-22 31 -22 31 -23.5012207 32.74682617 C-23.99581787 33.16037354 -24.49041504 33.5739209 -25 34 C-25.14533755 30.417094 -25.23407931 26.83494583 -25.3125 23.25 C-25.35439453 22.23421875 -25.39628906 21.2184375 -25.43945312 20.171875 C-25.56303772 12.65793172 -25.56303772 12.65793172 -22.9140625 9.5625 C-21.95242187 9.046875 -20.99078125 8.53125 -20 8 C-18.89785156 7.29359375 -17.79570312 6.5871875 -16.66015625 5.859375 C-15.46362839 5.15168054 -14.26435796 4.4486042 -13.0625 3.75 C-12.46759766 3.38648438 -11.87269531 3.02296875 -11.25976562 2.6484375 C-7.33232189 0.36494016 -4.52329408 -0.61709333 0 0 Z " fill="#96BCDA" transform="translate(35,8)"/>
<path d="M0 0 C2.56681054 3.06042795 4.95045998 6.23596097 7.25 9.5 C7.77078125 10.2321875 8.2915625 10.964375 8.828125 11.71875 C10.17844312 14.34736928 10.2258175 16.08490132 10 19 C8.02 19.99 8.02 19.99 6 21 C4.8745809 19.39612733 3.74968028 17.79189084 2.625 16.1875 C1.99851562 15.29417969 1.37203125 14.40085937 0.7265625 13.48046875 C-3.01107814 8.1107814 -3.01107814 8.1107814 -2.75 5.5 C-2 3 -2 3 0 0 Z " fill="#299EEC" transform="translate(41,24)"/>
<path d="M0 0 C4.09189762 1.36396587 4.61547327 3.34848983 6.6875 7.0625 C7.31011719 8.16722656 7.93273438 9.27195312 8.57421875 10.41015625 C9.04472656 11.26480469 9.51523437 12.11945312 10 13 C6.61404779 16.02317161 6.61404779 16.02317161 3.9296875 15.921875 C0.26358465 14.17045744 -1.507488 10.66218222 -3 7 C-2.375 4.125 -2.375 4.125 -1 2 C-0.67 1.34 -0.34 0.68 0 0 Z " fill="#299EEC" transform="translate(35,33)"/>
<path d="M0 0 C2.23046875 -0.375 2.23046875 -0.375 5 0 C7.23828125 2.625 7.23828125 2.625 9.3125 6 C10.00988281 7.11375 10.70726562 8.2275 11.42578125 9.375 C11.94527344 10.24125 12.46476562 11.1075 13 12 C12.34 12.66 11.68 13.32 11 14 C10.52949219 13.31292969 10.05898438 12.62585937 9.57421875 11.91796875 C8.64029297 10.56638672 8.64029297 10.56638672 7.6875 9.1875 C7.07261719 8.29417969 6.45773438 7.40085937 5.82421875 6.48046875 C4.32284963 4.43899254 2.85214599 2.71537213 1 1 C0.34 2.32 -0.32 3.64 -1 5 C-0.67 3.35 -0.34 1.7 0 0 Z " fill="#243A54" transform="translate(34,32)"/>
</svg>
