<?xml version="1.0" encoding="UTF-8"?>
<svg version="1.1" xmlns="http://www.w3.org/2000/svg" width="64" height="64">
<path d="M0 0 C21.12 0 42.24 0 64 0 C64 21.12 64 42.24 64 64 C42.88 64 21.76 64 0 64 C0 42.88 0 21.76 0 0 Z " fill="#000000" transform="translate(0,0)"/>
<path d="M0 0 C5.94 0 11.88 0 18 0 C18.66 1.32 19.32 2.64 20 4 C20 2.68 20 1.36 20 0 C21.98 0 23.96 0 26 0 C27.98 5.61 29.96 11.22 32 17 C31.01 17.99 30.02 18.98 29 20 C30.32 19.67 31.64 19.34 33 19 C33.495 21.475 33.495 21.475 34 24 C29.85801522 27.76661741 25.66482626 30.94784764 20.8671875 33.83203125 C18.41636896 35.36507464 16.2071336 37.13773103 14 39 C10.10993227 37.61219205 7.03441292 35.7847773 3.6875 33.375 C2.80449219 32.74335937 1.92148437 32.11171875 1.01171875 31.4609375 C0.34785156 30.97882812 -0.31601562 30.49671875 -1 30 C-0.67 27.69 -0.34 25.38 0 23 C1.32 23.33 2.64 23.66 4 24 C3.01 23.34 2.02 22.68 1 22 C1.55350659 18.03320277 2.44918856 14.68317717 4 11 C4.35858516 9.67323492 4.7018576 8.34164079 5 7 C2.03 6.505 2.03 6.505 -1 6 C-0.67 4.02 -0.34 2.04 0 0 Z M7 22 C6.67 22.99 6.34 23.98 6 25 C6.66 25 7.32 25 8 25 C7.67 24.01 7.34 23.02 7 22 Z " fill="#131313" transform="translate(19,14)"/>
<path d="M0 0 C0.66 0 1.32 0 2 0 C2.33 1.98 2.66 3.96 3 6 C3.99 6.33 4.98 6.66 6 7 C4.625 8.5 4.625 8.5 3 10 C2.34 10 1.68 10 1 10 C1 10.66 1 11.32 1 12 C3.90600261 13.25664978 5.79604584 14 9 14 C3.25 19 3.25 19 1 19 C1.99 20.98 2.98 22.96 4 25 C2.3125 26.625 2.3125 26.625 0 28 C-3.94352196 26.82760158 -6.99545443 24.76327281 -10.3125 22.375 C-11.19550781 21.74335937 -12.07851563 21.11171875 -12.98828125 20.4609375 C-13.65214844 19.97882812 -14.31601562 19.49671875 -15 19 C-14.67 16.69 -14.34 14.38 -14 12 C-12.02 12.495 -12.02 12.495 -10 13 C-10.99 12.34 -11.98 11.68 -13 11 C-12.125 5.25 -12.125 5.25 -11 3 C-8.49609375 2.3671875 -8.49609375 2.3671875 -5.4375 1.875 C-4.42558594 1.70742188 -3.41367187 1.53984375 -2.37109375 1.3671875 C-1.58863281 1.24601562 -0.80617188 1.12484375 0 1 C0 0.67 0 0.34 0 0 Z M-7 11 C-7.33 11.99 -7.66 12.98 -8 14 C-7.34 14 -6.68 14 -6 14 C-6.33 13.01 -6.66 12.02 -7 11 Z " fill="#060606" transform="translate(33,25)"/>
<path d="M0 0 C1.98 0 3.96 0 6 0 C4.29977612 7.12647031 2.42080258 14.0834212 0 21 C-1.65 20.01 -3.3 19.02 -5 18 C-4.51030705 11.38914524 -2.66557258 6.05022986 0 0 Z " fill="#F7F7F7" transform="translate(17,21)"/>
<path d="M0 0 C6.4266106 3.42752566 12.16594374 7.65346984 18 12 C16.68 13.32 15.36 14.64 14 16 C10.10993227 14.61219205 7.03441292 12.7847773 3.6875 10.375 C2.80449219 9.74335937 1.92148437 9.11171875 1.01171875 8.4609375 C0.34785156 7.97882812 -0.31601562 7.49671875 -1 7 C-0.67 4.69 -0.34 2.38 0 0 Z " fill="#F8F8F8" transform="translate(19,37)"/>
<path d="M0 0 C5.94 0 11.88 0 18 0 C18.66 1.98 19.32 3.96 20 6 C13.07 6 6.14 6 -1 6 C-0.67 4.02 -0.34 2.04 0 0 Z " fill="#FDFDFD" transform="translate(19,14)"/>
<path d="M0 0 C0.33 1.65 0.66 3.3 1 5 C-3.69152647 9.26635689 -8.53193375 12.79017409 -14 16 C-16 14.625 -16 14.625 -18 13 C-18 12.34 -18 11.68 -18 11 C-16.56298828 9.76318359 -16.56298828 9.76318359 -14.5703125 8.3984375 C-13.85746094 7.90859375 -13.14460938 7.41875 -12.41015625 6.9140625 C-11.65605469 6.40617187 -10.90195312 5.89828125 -10.125 5.375 C-9.37863281 4.859375 -8.63226563 4.34375 -7.86328125 3.8125 C-2.265563 0 -2.265563 0 0 0 Z " fill="#F9F9F9" transform="translate(52,33)"/>
<path d="M0 0 C1.98 0 3.96 0 6 0 C7.98 5.61 9.96 11.22 12 17 C10.02 18.32 8.04 19.64 6 21 C4.99534271 17.87647773 3.99707073 14.75095147 3 11.625 C2.71382812 10.73554688 2.42765625 9.84609375 2.1328125 8.9296875 C1.72675781 7.65351563 1.72675781 7.65351563 1.3125 6.3515625 C1.06113281 5.56604004 0.80976562 4.78051758 0.55078125 3.97119141 C0 2 0 2 0 0 Z " fill="#FCFCFC" transform="translate(39,14)"/>
<path d="M0 0 C1.98 0 3.96 0 6 0 C5.53199289 4.05606165 5.12046792 7.46588679 3 11 C1.35 10.01 -0.3 9.02 -2 8 C-1.125 2.25 -1.125 2.25 0 0 Z " fill="#EFEFEF" transform="translate(22,28)"/>
<path d="M0 0 C3.93673644 1.31224548 6.22719294 2.91910327 9 6 C7.3125 7.625 7.3125 7.625 5 9 C1.17891204 8.09021715 0.21805555 7.32708333 -2 4 C-1.34 2.68 -0.68 1.36 0 0 Z " fill="#F8F8F8" transform="translate(28,35)"/>
<path d="M0 0 C2.64 0 5.28 0 8 0 C8.66 1.98 9.32 3.96 10 6 C6.37 6 2.74 6 -1 6 C-0.67 4.02 -0.34 2.04 0 0 Z " fill="#FBFBFB" transform="translate(24,21)"/>
<path d="M0 0 C0.33 1.98 0.66 3.96 1 6 C-0.98 7.32 -2.96 8.64 -5 10 C-7 8.625 -7 8.625 -9 7 C-9 6.34 -9 5.68 -9 5 C-7.5390625 3.7109375 -7.5390625 3.7109375 -5.625 2.375 C-4.99851562 1.92898437 -4.37203125 1.48296875 -3.7265625 1.0234375 C-2 0 -2 0 0 0 Z " fill="#FBFBFB" transform="translate(43,30)"/>
<path d="M0 0 C1.98 0 3.96 0 6 0 C6.66 2.31 7.32 4.62 8 7 C4.25 10 4.25 10 2 10 C1.34 6.7 0.68 3.4 0 0 Z " fill="#FEFEFE" transform="translate(34,21)"/>
</svg>
