<?xml version="1.0" encoding="utf-8"?>
<!-- Generator: Adobe Illustrator 24.3.0, SVG Export Plug-In . SVG Version: 6.00 Build 0)  -->
<svg version="1.1" id="katman_1" xmlns="http://www.w3.org/2000/svg" xmlns:xlink="http://www.w3.org/1999/xlink" x="0px" y="0px"
	 viewBox="0 0 560 400" style="enable-background:new 0 0 560 400;" xml:space="preserve">
<style type="text/css">
	.st0{fill-rule:evenodd;clip-rule:evenodd;fill:#263145;}
	.st1{fill-rule:evenodd;clip-rule:evenodd;fill:#CCD9E2;}
	.st2{fill-rule:evenodd;clip-rule:evenodd;fill:#AAAAAA;}
	.st3{fill-rule:evenodd;clip-rule:evenodd;fill:#5A5967;}
</style>
<g transform="matrix(.3 0 0 .3 130 50)">
	<path class="st0" d="M500,0c276.1,0,500,223.9,500,500s-223.9,500-500,500S0,776.1,0,500S223.9,0,500,0z"/>
	<path class="st1" d="M530.7,177h-69.9L172,680h514.8L650,620H276L530.7,177z"/>
	<path class="st2" d="M785.3,739l35.7-60.5L529.7,177L275,620h70l185.7-323.5L785.3,739z"/>
	<path class="st3" d="M172,680l35.7,59h577.6L530.7,295.1l-35.2,62L684.4,680H172z"/>
</g>
</svg>
