<?xml version="1.0" encoding="UTF-8"?>
<svg version="1.1" xmlns="http://www.w3.org/2000/svg" width="285" height="282">
<path d="M0 0 C21.58697985 18.65163981 36.21918639 46.22454773 39.0703125 74.6328125 C40.13617557 90.91229664 39.86180544 106.95490074 35.0703125 122.6328125 C34.86132324 123.32084961 34.65233398 124.00888672 34.43701172 124.71777344 C29.77986864 139.46016045 22.29006882 153.02665513 12.0703125 164.6328125 C11.38453125 165.45007813 10.69875 166.26734375 9.9921875 167.109375 C-8.0738772 188.09980269 -34.39021117 202.19144804 -61.9296875 205.6328125 C-67.1176124 205.95202596 -72.29595067 206.02287362 -77.4921875 206.0078125 C-78.19867432 206.00726868 -78.90516113 206.00672485 -79.63305664 206.00616455 C-90.81532703 205.96662999 -101.26053091 205.16428465 -111.9296875 201.6328125 C-112.61369629 201.41318848 -113.29770508 201.19356445 -114.00244141 200.96728516 C-143.66020502 191.23744536 -168.33742083 170.52890336 -182.9453125 142.9296875 C-191.42756988 126.03263502 -195.33111419 107.97984899 -195.3046875 89.1328125 C-195.30414368 88.47528992 -195.30359985 87.81776733 -195.30303955 87.14031982 C-195.26042743 75.89242471 -194.24587783 65.39963122 -190.9296875 54.6328125 C-190.72069824 53.94622559 -190.51170898 53.25963867 -190.29638672 52.55224609 C-185.44850821 37.20244649 -177.60389211 23.65770733 -166.9296875 11.6328125 C-166.26839844 10.81683594 -165.60710937 10.00085937 -164.92578125 9.16015625 C-123.3616605 -40.60637163 -47.56492422 -38.43245877 0 0 Z M-85.19140625 14.85546875 C-94.09826616 25.28921893 -97.31135203 36.46489506 -99.9296875 49.6328125 C-98.42571411 49.62495728 -98.42571411 49.62495728 -96.89135742 49.61694336 C-93.12102169 49.59864949 -89.35068976 49.58729266 -85.58032227 49.57788086 C-83.95791969 49.57289578 -82.3355215 49.5661053 -80.71313477 49.55737305 C-71.73062631 49.5102862 -62.86318811 49.53788158 -53.9296875 50.6328125 C-53.9296875 49.9728125 -53.9296875 49.3128125 -53.9296875 48.6328125 C-54.90808594 48.39498047 -54.90808594 48.39498047 -55.90625 48.15234375 C-63.09197 46.23403207 -67.32296299 44.195336 -71.8046875 38.0703125 C-73.8411241 31.84786733 -73.8411241 25.41775767 -71.8046875 19.1953125 C-68.48411117 14.65719152 -64.45173531 11.01332445 -58.9296875 9.6328125 C-51.28717282 8.62110215 -45.17527827 10.04046635 -38.9296875 14.6328125 C-31.51439491 22.28679477 -28.52337313 34.23663652 -27.9296875 44.6328125 C-27.99766247 46.05242474 -28.09442173 47.47092852 -28.21875 48.88671875 C-28.60069358 53.31140372 -28.65745739 57.22673578 -27.9296875 61.6328125 C-25.55821682 64.29270529 -23.34674836 65.42708077 -20.1484375 66.97265625 C-16.42162973 68.89485686 -13.70645717 71.20822906 -10.6796875 74.0703125 C-10.17179687 74.54992432 -9.66390625 75.02953613 -9.140625 75.52368164 C-7.72438754 76.88036854 -6.3264674 78.25610127 -4.9296875 79.6328125 C-4.259375 80.29023438 -3.5890625 80.94765625 -2.8984375 81.625 C1.88253158 86.68848089 5.06339396 92.5812421 8.37109375 98.65625 C9.90009467 101.63827903 9.90009467 101.63827903 12.0703125 103.6328125 C15.97015765 79.25878033 9.99405942 54.60925547 -4.39599609 34.61621094 C-15.22130222 20.6167224 -32.01427866 6.05178365 -49.9296875 2.6328125 C-63.61409657 1.58942647 -75.24301767 5.07890035 -85.19140625 14.85546875 Z M-119.9921875 8.1953125 C-120.66886475 8.55665283 -121.34554199 8.91799316 -122.04272461 9.2902832 C-127.45598158 12.24690856 -132.23127633 15.632679 -136.9296875 19.6328125 C-137.9196875 20.3753125 -138.9096875 21.1178125 -139.9296875 21.8828125 C-157.29008413 36.6535367 -166.66240325 59.40083083 -168.9296875 81.6328125 C-169.88451817 95.15958031 -168.4299833 107.65634358 -159.9296875 118.6328125 C-151.40786291 127.75432104 -141.91887117 132.47668065 -129.4206543 132.96826172 C-119.80236823 133.15351464 -109.10096827 132.08033302 -100.9296875 126.6328125 C-101.85587891 125.44751953 -101.85587891 125.44751953 -102.80078125 124.23828125 C-111.18331162 113.19039941 -117.83743288 100.93264001 -121.9296875 87.6328125 C-122.5896875 87.6328125 -123.2496875 87.6328125 -123.9296875 87.6328125 C-123.7646875 88.4371875 -123.5996875 89.2415625 -123.4296875 90.0703125 C-122.40986105 97.33657595 -122.24654086 103.02854955 -125.9296875 109.6328125 C-129.51921814 114.1453653 -133.32404196 116.51755318 -138.9296875 117.6328125 C-145.06250305 117.96431604 -150.21152989 116.78060528 -155.234375 113.19140625 C-160.14317485 108.67847736 -161.1926881 103.78536351 -161.4921875 97.2578125 C-161.26426061 90.68592042 -159.57430694 86.05758026 -155.9296875 80.6328125 C-155.47980469 79.95863281 -155.02992188 79.28445312 -154.56640625 78.58984375 C-150.01661053 72.69979813 -143.83826437 68.90045902 -137.6484375 64.9296875 C-137.03661621 64.53426758 -136.42479492 64.13884766 -135.79443359 63.73144531 C-133.9296875 62.6328125 -133.9296875 62.6328125 -131.95947266 61.80761719 C-129.74160427 60.92166848 -129.74160427 60.92166848 -126.9296875 58.6328125 C-125.74054383 55.27313278 -125.54778126 51.92127687 -125.3046875 48.3828125 C-123.61938243 32.13535601 -118.61172858 18.96753928 -110.9296875 4.6328125 C-114.30028338 4.6328125 -117.07540062 6.63716502 -119.9921875 8.1953125 Z M-96.9296875 76.6328125 C-96.41709091 82.27137502 -94.89569399 86.49845279 -92.3046875 91.5078125 C-91.94858398 92.20600098 -91.59248047 92.90418945 -91.22558594 93.62353516 C-85.92681246 103.9119609 -85.92681246 103.9119609 -76.9296875 110.6328125 C-68.10728397 100.99351976 -61.78980418 90.14424595 -57.9296875 77.6328125 C-71.11101557 73.59771207 -83.46709348 74.20086003 -96.9296875 76.6328125 Z M-33.9296875 89.6328125 C-34.40535156 90.8703125 -34.40535156 90.8703125 -34.890625 92.1328125 C-40.12890865 105.09828805 -46.99803472 117.63538719 -56.9296875 127.6328125 C-53.24059151 127.6328125 -52.17189612 126.33370677 -49.52734375 123.921875 C-44.19378886 119.61851776 -38.50693438 120.08470859 -31.9296875 120.6328125 C-26.47720552 122.34933461 -23.1418866 126.02900923 -19.9296875 130.6328125 C-18.09732993 136.1298852 -17.7524248 142.59928495 -19.87109375 148.05859375 C-23.59761122 154.26166829 -27.94074348 157.67158683 -34.9296875 159.6328125 C-48.99128207 161.00389768 -59.7694119 157.15402719 -71.85546875 150.36328125 C-76.15728301 147.75800023 -76.15728301 147.75800023 -80.9296875 146.6328125 C-83.81653163 147.69469139 -83.81653163 147.69469139 -86.8671875 149.3203125 C-102.31555552 156.74310694 -117.86050959 159.15093257 -134.9296875 158.6328125 C-121.97446561 172.55484199 -101.04969046 178.95339973 -82.47265625 179.91796875 C-59.52971457 180.61268498 -35.97279978 173.85331329 -18.90234375 157.8671875 C-11.74011624 149.75472387 -8.40457459 139.99965623 -8.68359375 129.265625 C-10.08310811 114.29304279 -18.28878905 102.66964248 -28.9296875 92.6328125 C-31.61451047 90.8330004 -31.61451047 90.8330004 -33.9296875 89.6328125 Z " fill="#018DF0" transform="translate(222.9296875,52.3671875)"/>
<path d="M0 0 C1.83014648 -0.01836914 1.83014648 -0.01836914 3.69726562 -0.03710938 C10.77652234 -0.0485214 17.31819974 0.43467147 24.1875 2.1875 C23.8575 2.8475 23.5275 3.5075 23.1875 4.1875 C20.59733786 4.70854424 18.04943742 5.12734605 15.4375 5.5 C-1.15921265 8.16655127 -17.70333197 15.26405899 -27.99609375 29.12890625 C-31.24997991 33.10040555 -35.51161485 34.93232493 -40.0625 37.125 C-46.9150361 40.57009726 -53.02320275 44.10606443 -58.8125 49.1875 C-59.62332031 49.81011719 -60.43414062 50.43273437 -61.26953125 51.07421875 C-78.51950408 65.40944963 -87.58685968 88.36386017 -89.8125 110.1875 C-90.7699707 123.7516683 -89.28095666 136.15747857 -80.8125 147.1875 C-72.77166062 155.860952 -63.06091708 160.06166669 -51.30371094 160.52270508 C-41.78424413 160.70716455 -32.47082461 159.1701324 -23.7109375 155.24609375 C-21.8125 155.1875 -21.8125 155.1875 -19.3671875 157.25 C-18.48289062 158.219375 -17.59859375 159.18875 -16.6875 160.1875 C-12.36941522 164.79546813 -7.96947824 168.4406818 -2.61328125 171.84765625 C-2.01902344 172.28980469 -1.42476563 172.73195312 -0.8125 173.1875 C-0.8125 173.8475 -0.8125 174.5075 -0.8125 175.1875 C-18.67776069 183.98422587 -35.64196574 188.86360729 -55.8125 188.1875 C-33.75710456 203.27097712 -9.40387678 210.88144013 17.375 206.0625 C33.16261328 202.90614926 52.70594766 195.32632905 61.9375 181.58203125 C67.84172483 171.29221634 69.86742167 161.40121308 67.0625 149.75 C63.97837485 139.57955939 58.54362512 131.74899918 51.1875 124.1875 C51.60902344 123.63320312 52.03054687 123.07890625 52.46484375 122.5078125 C53.28662109 121.42113281 53.28662109 121.42113281 54.125 120.3125 C54.67027344 119.59320313 55.21554688 118.87390625 55.77734375 118.1328125 C57.22714624 116.24392921 57.22714624 116.24392921 58.1875 114.1875 C65.51383306 117.43544862 69.51178321 124.89769877 73.5625 131.5 C74.23732422 132.57217773 74.23732422 132.57217773 74.92578125 133.66601562 C78.1875 138.92541318 78.1875 138.92541318 78.1875 141.1875 C78.8475 140.5275 79.5075 139.8675 80.1875 139.1875 C75.19685014 129.97603457 70.13806985 120.84255622 62.45703125 113.54296875 C61.1875 112.1875 61.1875 112.1875 61.1875 110.1875 C60.5275 110.1875 59.8675 110.1875 59.1875 110.1875 C59.1875 109.5275 59.1875 108.8675 59.1875 108.1875 C58.1975 107.8575 57.2075 107.5275 56.1875 107.1875 C57.62713639 103.82834842 59.31166589 101.47125062 62.1875 99.1875 C66.46468711 99.3567074 69.0411511 102.50531978 71.875 105.375 C72.40029297 105.90601318 72.92558594 106.43702637 73.46679688 106.98413086 C81.77804054 115.67028937 87.82924843 125.60322818 91.1875 137.1875 C91.48398438 138.03699219 91.78046875 138.88648438 92.0859375 139.76171875 C95.93304476 152.13246275 95.03691081 166.480258 93.1875 179.1875 C92.5275 179.1875 91.8675 179.1875 91.1875 179.1875 C90.8575 181.8275 90.5275 184.4675 90.1875 187.1875 C89.5275 187.1875 88.8675 187.1875 88.1875 187.1875 C86.62147584 191.31721989 86.62147584 191.31721989 86.31640625 195.66796875 C86.10817247 199.73799265 83.77005398 201.2115813 80.8984375 203.88671875 C57.57491383 223.68146722 31.4217554 234.65176334 0.625 234.5625 C-0.08148682 234.56195618 -0.78797363 234.56141235 -1.51586914 234.56085205 C-12.69813953 234.52131749 -23.14334341 233.71897215 -33.8125 230.1875 C-34.49650879 229.96787598 -35.18051758 229.74825195 -35.88525391 229.52197266 C-65.54301752 219.79213286 -90.22023333 199.08359086 -104.828125 171.484375 C-113.31038238 154.58732252 -117.21392669 136.53453649 -117.1875 117.6875 C-117.18695618 117.02997742 -117.18641235 116.37245483 -117.18585205 115.69500732 C-117.14323993 104.44711221 -116.12869033 93.95431872 -112.8125 83.1875 C-112.60351074 82.50091309 -112.39452148 81.81432617 -112.17919922 81.10693359 C-107.33132071 65.75713399 -99.48670461 52.21239483 -88.8125 40.1875 C-88.15121094 39.37152344 -87.48992187 38.55554687 -86.80859375 37.71484375 C-65.58600817 12.30411984 -32.33892791 0.01692252 0 0 Z " fill="#4F4EC1" transform="translate(144.8125,23.8125)"/>
<path d="M0 0 C30.25295373 5.51783433 56.07105636 23.59947564 73.55078125 48.60546875 C91.20448386 74.79730168 97.40205803 106.86243915 91.86645508 137.97900391 C91.08094678 141.70870502 90.11379546 145.3556271 89 149 C88.79101074 149.68803711 88.58202148 150.37607422 88.36669922 151.08496094 C83.67630958 165.93259136 76.1150104 179.19152632 66 191 C65.47148437 191.74765625 64.94296875 192.4953125 64.3984375 193.265625 C63.93695313 193.83796875 63.47546875 194.4103125 63 195 C62.34 195 61.68 195 61 195 C61.50712033 191.28111761 62.11608215 188.26545761 64 185 C64.66 185 65.32 185 66 185 C66.33 182.36 66.66 179.72 67 177 C67.66 177 68.32 177 69 177 C69.07526343 172.94735382 69.12911541 168.8949892 69.16479492 164.84179688 C69.17969923 163.46867774 69.20002997 162.09560461 69.22631836 160.72265625 C69.39625334 151.60614448 68.55069787 143.7362027 66 135 C65.08936083 131.18079996 65.18573675 128.36176802 65.73046875 124.46875 C68.27920283 101.12382331 61.24197217 77.5510577 47 59 C36.38193303 46.24727269 20.75093285 33.19674291 4 30 C-8.69661616 29.03192956 -19.06468756 31.84947423 -29 40 C-37.74130943 49.57381509 -41.97309658 60.66556335 -44.8125 73.12890625 C-46 76 -46 76 -48.375 77.40234375 C-51 78 -51 78 -55 78 C-55.33 78.66 -55.66 79.32 -56 80 C-57.32 79.67 -58.64 79.34 -60 79 C-59.50341703 73.33895411 -58.45489316 69.12325529 -56 64 C-56.33 64.33 -56.66 64.66 -57 65 C-57.99 65 -58.98 65 -60 65 C-60.19335938 66.13179688 -60.38671875 67.26359375 -60.5859375 68.4296875 C-60.84854286 69.91153202 -61.11158648 71.39329892 -61.375 72.875 C-61.50132813 73.62136719 -61.62765625 74.36773437 -61.7578125 75.13671875 C-62.7734375 80.7734375 -62.7734375 80.7734375 -65 83 C-67.63233792 83.8563027 -70.29546818 84.38929927 -73 85 C-73.22070033 78.15374846 -72.70995113 71.8268607 -71.3125 65.125 C-71.13315918 64.25367432 -70.95381836 63.38234863 -70.76904297 62.48461914 C-69.27451801 55.58892964 -67.15759456 49.32453111 -64 43 C-63.60554688 42.11699219 -63.21109375 41.23398438 -62.8046875 40.32421875 C-54.55407198 23.25483156 -39.00848966 11.50311287 -21.5390625 5.09765625 C-15.65067459 3.18250096 -9.71953585 2.24507245 -3.58984375 1.4296875 C-1.07686468 1.27080975 -1.07686468 1.27080975 0 0 Z " fill="#05B4ED" transform="translate(169,26)"/>
<path d="M0 0 C0.495 0.495 0.495 0.495 1 1 C0.9140625 2.9609375 0.9140625 2.9609375 0.625 5.375 C0.53476563 6.16648437 0.44453125 6.95796875 0.3515625 7.7734375 C0 10 0 10 -1 13 C-1.94359375 12.855625 -2.8871875 12.71125 -3.859375 12.5625 C-16.44809464 10.74244415 -28.31547193 10.85430069 -41 12 C-37.2690698 24.57542944 -31.87287708 36.12712292 -22.48046875 45.51953125 C-20.29102795 47.70897205 -18.42537897 50.15245301 -16.5 52.57421875 C-14.9825121 54.34447393 -14.9825121 54.34447393 -12 54 C-11.01 53.01 -11.01 53.01 -10 52 C-9.34 52 -8.68 52 -8 52 C-6.62689293 50.70766393 -5.28965176 49.37562854 -4 48 C-5.3697164 51.99500618 -7.25722422 54.80009492 -10 58 C-8.59546357 58.89434157 -7.17578131 59.76493192 -5.75 60.625 C-4.56664062 61.35589844 -4.56664062 61.35589844 -3.359375 62.1015625 C-1.04635128 63.26931666 -1.04635128 63.26931666 1.140625 62.2734375 C2.63989959 61.24662339 4.08101473 60.13518822 5.5 59 C11.3854191 54.29166472 16.63979203 54.3957299 24 55 C29.83581482 56.76175542 33.47658365 61.18563497 37 66 C38.82768377 71.48305131 39.16358753 77.93053635 37.09375 83.390625 C33.22647123 89.88567012 28.35662675 93.98642149 21 96 C7.77707786 97.28930987 -2.49497627 93.98147213 -14.125 88 C-14.77726562 87.66806641 -15.42953125 87.33613281 -16.1015625 86.99414062 C-19.71933614 85.04345547 -21.28095112 83.65107727 -23 80 C-23.73347656 79.70738281 -24.46695313 79.41476563 -25.22265625 79.11328125 C-29.06533678 77.57296627 -31.49070629 75.03779052 -34.4375 72.1875 C-35.53900367 71.13789285 -36.6418603 70.08970366 -37.74609375 69.04296875 C-38.28717773 68.52686035 -38.82826172 68.01075195 -39.38574219 67.47900391 C-40.89739466 66.09400834 -42.49961938 64.80973607 -44.10546875 63.53515625 C-47.34074313 60.70156236 -49.54472238 57.83120373 -51.875 54.25 C-52.29773193 53.60748291 -52.72046387 52.96496582 -53.15600586 52.30297852 C-56.32331835 47.35260401 -59.04179092 42.24364486 -61.5625 36.9375 C-61.89685059 36.23592773 -62.23120117 35.53435547 -62.57568359 34.81152344 C-64.36896292 30.88159095 -65.50607231 27.33709105 -66 23 C-66.66 23 -67.32 23 -68 23 C-67.505 24.2065625 -67.505 24.2065625 -67 25.4375 C-64.98481601 32.61659295 -65.42105 38.35337857 -69 45 C-71.76246444 49.75143885 -75.25334988 51.52050841 -80.28125 53.33203125 C-85.6386217 54.64828205 -90.40080786 54.27176287 -95.37109375 51.83984375 C-97.73248619 50.39606905 -100.03590391 48.96409609 -102 47 C-102.42232035 37.91093153 -98.80177259 31.20447382 -92.82421875 24.59375 C-90.92420961 22.67686689 -88.99726933 20.81477772 -87 19 C-86.34 19.66 -85.68 20.32 -85 21 C-84.37996094 20.50371094 -83.75992188 20.00742188 -83.12109375 19.49609375 C-70.68795189 9.958589 -57.09036459 4.76578317 -42 1 C-41.03191406 0.7525 -40.06382813 0.505 -39.06640625 0.25 C-26.88596172 -2.29569523 -12.24502927 -2.35545584 0 0 Z " fill="#056DE3" transform="translate(167,117)"/>
<path d="M0 0 C7.7741276 -0.74433137 13.57251405 0.42959044 20 5 C29.35196057 14.05093179 31.65694543 27.36206194 32.15234375 39.8359375 C32.23996991 49.28009027 32.23996991 49.28009027 31 53 C31.66 53.20625 32.32 53.4125 33 53.625 C37.11606263 55.51152871 40.4587703 58.20567979 44 61 C43.566875 61.48210937 43.13375 61.96421875 42.6875 62.4609375 C42.130625 63.09257813 41.57375 63.72421875 41 64.375 C40.443125 65.00148438 39.88625 65.62796875 39.3125 66.2734375 C37.79827513 67.90389833 37.79827513 67.90389833 38 70 C38.99 70.495 38.99 70.495 40 71 C40 71.66 40 72.32 40 73 C40.66 73 41.32 73 42 73 C47.35312105 78.54551653 51.76541282 84.91748376 55.9375 91.375 C56.31463135 91.95717285 56.6917627 92.5393457 57.08032227 93.13916016 C59.09382014 96.32609029 60.73008469 99.44955615 62 103 C60.515 103.495 60.515 103.495 59 104 C58.5153125 103.10539062 58.030625 102.21078125 57.53125 101.2890625 C50.0796203 87.65169844 50.0796203 87.65169844 39 77 C38.62875 78.11375 38.62875 78.11375 38.25 79.25 C36.90852699 82.20124062 35.39094474 83.84814974 33 86 C30.50638429 84.79618552 28.31856917 83.54571278 26 82 C25.52691406 82.99257812 25.05382812 83.98515625 24.56640625 85.0078125 C18.66848748 97.19775061 12.27632611 109.01011034 3 119 C-1.51478398 118.46884894 -4.34666857 116.63379708 -8 114 C-7.38511719 113.20335937 -7.38511719 113.20335937 -6.7578125 112.390625 C-6.21898437 111.68421875 -5.68015625 110.9778125 -5.125 110.25 C-4.59132812 109.55390625 -4.05765625 108.8578125 -3.5078125 108.140625 C-2.10761086 106.15277397 -1.02144735 104.20156614 0 102 C-0.99 102.495 -0.99 102.495 -2 103 C-0.57741412 99.26021239 1.08396606 95.67670408 2.81787109 92.07519531 C14.10230324 68.58898227 19.54319284 41.69205034 11.3125 16.1875 C9.13921618 10.58616849 5.53292506 4.76646253 0 2 C0 1.34 0 0.68 0 0 Z " fill="#03B7F5" transform="translate(164,61)"/>
<path d="M0 0 C0.433125 1.134375 0.86625 2.26875 1.3125 3.4375 C2.1478125 5.2009375 2.1478125 5.2009375 3 7 C3.99 7.33 4.98 7.66 6 8 C7.2890625 10.046875 7.2890625 10.046875 8.625 12.75 C21.17683555 36.64497582 40.78970364 54.29258703 66 64 C74.68610319 65.95409083 84.61367509 66.19479044 93 63 C92.67703059 68.32899523 89.8294198 71.56896994 86 75 C78.83106127 80.11853246 70.46353661 79.84371705 62 79 C54.79593952 77.55012619 48.36587739 74.33834248 41.875 71 C41.22273438 70.66806641 40.57046875 70.33613281 39.8984375 69.99414062 C36.28066386 68.04345547 34.71904888 66.65107727 33 63 C32.26652344 62.70738281 31.53304687 62.41476563 30.77734375 62.11328125 C26.93466322 60.57296627 24.50929371 58.03779052 21.5625 55.1875 C20.46099633 54.13789285 19.3581397 53.08970366 18.25390625 52.04296875 C17.71282227 51.52686035 17.17173828 51.01075195 16.61425781 50.47900391 C15.10260534 49.09400834 13.50038062 47.80973607 11.89453125 46.53515625 C8.65925687 43.70156236 6.45527762 40.83120373 4.125 37.25 C3.70226807 36.60748291 3.27953613 35.96496582 2.84399414 35.30297852 C-0.32331835 30.35260401 -3.04179092 25.24364486 -5.5625 19.9375 C-5.89685059 19.23592773 -6.23120117 18.53435547 -6.57568359 17.81152344 C-8.34580436 13.93234242 -9.82364824 10.32061801 -10 6 C-4 0 -4 0 0 0 Z " fill="#287CE6" transform="translate(111,134)"/>
<path d="M0 0 C0.495 0.495 0.495 0.495 1 1 C0.9140625 2.9609375 0.9140625 2.9609375 0.625 5.375 C0.53476563 6.16648437 0.44453125 6.95796875 0.3515625 7.7734375 C0 10 0 10 -1 13 C-1.94359375 12.855625 -2.8871875 12.71125 -3.859375 12.5625 C-17.0270582 10.65873857 -28.81281452 10.87703359 -42 13 C-43.14210937 13.11601562 -44.28421875 13.23203125 -45.4609375 13.3515625 C-49.4701242 14.08613755 -52.74395318 15.55548444 -56.3125 17.4375 C-56.93189453 17.75009766 -57.55128906 18.06269531 -58.18945312 18.38476562 C-60.79991516 19.72542637 -62.91283429 20.91283429 -65 23 C-65.99 23 -66.98 23 -68 23 C-67.505 24.2065625 -67.505 24.2065625 -67 25.4375 C-64.98481601 32.61659295 -65.42105 38.35337857 -69 45 C-71.76246444 49.75143885 -75.25334988 51.52050841 -80.28125 53.33203125 C-85.6386217 54.64828205 -90.40080786 54.27176287 -95.37109375 51.83984375 C-97.73248619 50.39606905 -100.03590391 48.96409609 -102 47 C-102.42232035 37.91093153 -98.80177259 31.20447382 -92.82421875 24.59375 C-90.92420961 22.67686689 -88.99726933 20.81477772 -87 19 C-86.34 19.66 -85.68 20.32 -85 21 C-84.37996094 20.50371094 -83.75992188 20.00742188 -83.12109375 19.49609375 C-70.68795189 9.958589 -57.09036459 4.76578317 -42 1 C-41.03191406 0.7525 -40.06382813 0.505 -39.06640625 0.25 C-26.88596172 -2.29569523 -12.24502927 -2.35545584 0 0 Z " fill="#1A68DF" transform="translate(167,117)"/>
<path d="M0 0 C0.66 0.33 1.32 0.66 2 1 C1.731875 1.61875 1.46375 2.2375 1.1875 2.875 C-0.4483787 7.17994393 -1.71271326 11.58031552 -3 16 C-0.30705714 15.48305254 2.35371766 14.91289449 5.0168457 14.25708008 C13.84997032 12.14530147 22.12658927 11.57198609 31.1875 11.6875 C32.46302734 11.68427734 33.73855469 11.68105469 35.05273438 11.67773438 C42.57780978 11.72024893 49.65619833 12.33877748 57 14 C57.09765625 22.49609375 57.09765625 22.49609375 57 25 C56 26 56 26 52.75976562 26.05004883 C51.3085227 26.02256898 49.8573495 25.99125731 48.40625 25.95703125 C46.8007945 25.93457885 45.1953247 25.91313076 43.58984375 25.89257812 C41.07137549 25.85601893 38.55365477 25.81379167 36.03564453 25.75317383 C20.59479668 25.39908268 6.6622282 27.35778849 -7.5625 33.75 C-8.29662109 34.06582031 -9.03074219 34.38164063 -9.78710938 34.70703125 C-11.53015102 35.45893157 -13.26602693 36.22741625 -15 37 C-15 37.99 -15 38.98 -15 40 C-17.26559907 41.68588965 -19.47037083 43.16622301 -21.875 44.625 C-22.52597656 45.03234375 -23.17695312 45.4396875 -23.84765625 45.859375 C-26.19477196 47.32087798 -28.52555996 48.76277998 -31 50 C-31.33 49.34 -31.66 48.68 -32 48 C-40.02707154 55.31001304 -44.85899728 62.29498642 -47 73 C-49.96918744 70.28900277 -50.87415792 68.28179144 -51.2734375 64.21484375 C-51.62321675 52.92773649 -48.24800256 45.48304416 -40.55078125 37.29296875 C-30.96876496 28.67942577 -19.20072128 22.06690709 -7 18 C-6.81824219 16.77023438 -6.81824219 16.77023438 -6.6328125 15.515625 C-6.46523437 14.43796875 -6.29765625 13.3603125 -6.125 12.25 C-5.96257812 11.18265625 -5.80015625 10.1153125 -5.6328125 9.015625 C-5.06776118 6.32291129 -4.36577086 4.36427561 -3 2 C-2.01 2 -1.02 2 0 2 C0 1.34 0 0.68 0 0 Z " fill="#188FE9" transform="translate(112,89)"/>
<path d="M0 0 C2.37519159 4.60193371 2.56514416 8.93978611 2 14 C0.16300351 19.51098947 -1.95402663 24.39575241 -7.26953125 27.1953125 C-16.20622398 31.02723772 -16.20622398 31.02723772 -21 30 C-23.4375 27.875 -23.4375 27.875 -25 25 C-25.37880101 19.44425182 -21.9656885 15.90022386 -18.69140625 11.7578125 C-17.85416016 10.88769531 -17.85416016 10.88769531 -17 10 C-16.34 10 -15.68 10 -15 10 C-15 9.34 -15 8.68 -15 8 C-12.91796875 6.30859375 -12.91796875 6.30859375 -10.1875 4.4375 C-9.29417969 3.81746094 -8.40085937 3.19742188 -7.48046875 2.55859375 C-4.94650182 0.96638461 -3.02557714 0 0 0 Z " fill="#373A9E" transform="translate(99,141)"/>
<path d="M0 0 C3.53750562 1.29420937 4.56461484 2.74088375 6.5625 5.9375 C10.29525514 14.79657219 10.7171282 23.43645641 10.5625 32.9375 C4.01170043 32.48572072 -0.13353065 31.34862511 -4.8828125 26.4453125 C-8.89142119 21.8411391 -9.56419523 18.72015623 -9.5 12.75 C-9.49097656 11.66332031 -9.48195312 10.57664062 -9.47265625 9.45703125 C-9.46105469 8.62558594 -9.44945312 7.79414062 -9.4375 6.9375 C-8.7775 6.9375 -8.1175 6.9375 -7.4375 6.9375 C-7.169375 6.15375 -6.90125 5.37 -6.625 4.5625 C-5.11240026 1.21885847 -3.76731509 -0.09659782 0 0 Z " fill="#016BB0" transform="translate(158.4375,68.0625)"/>
<path d="M0 0 C3.35659312 2.53791187 5.74350625 5.11995519 7.5625 8.9375 C8 12.75 8 12.75 7.5625 15.9375 C4.89291474 18.60708526 3.4827486 18.29826877 -0.25 18.375 C-9.96615152 18.24573856 -17.92383467 14.26411681 -26.4375 9.9375 C-26.1848068 6.52614174 -25.20245524 5.71812489 -22.625 3.3125 C-15.60169624 -1.92054986 -8.45083741 -2.61207702 0 0 Z " fill="#005CB4" transform="translate(194.4375,173.0625)"/>
<path d="M0 0 C5.08938811 1.59043379 8.87456643 4.7446951 13 8 C12.3503125 8.72316406 12.3503125 8.72316406 11.6875 9.4609375 C11.130625 10.09257813 10.57375 10.72421875 10 11.375 C9.443125 12.00148438 8.88625 12.62796875 8.3125 13.2734375 C6.79827513 14.90389833 6.79827513 14.90389833 7 17 C7.66 17.33 8.32 17.66 9 18 C9 18.66 9 19.32 9 20 C9.66 20 10.32 20 11 20 C16.35312105 25.54551653 20.76541282 31.91748376 24.9375 38.375 C25.31463135 38.95717285 25.6917627 39.5393457 26.08032227 40.13916016 C28.09382014 43.32609029 29.73008469 46.44955615 31 50 C30.01 50.33 29.02 50.66 28 51 C27.5153125 50.10539062 27.030625 49.21078125 26.53125 48.2890625 C19.0796203 34.65169844 19.0796203 34.65169844 8 24 C7.7525 24.7425 7.505 25.485 7.25 26.25 C5.90852699 29.20124062 4.39094474 30.84814974 2 33 C-0.95409701 31.62845496 -3.44008376 30.01136276 -6 28 C-5.5978125 26.2984375 -5.5978125 26.2984375 -5.1875 24.5625 C-3.93942295 18.9996423 -2.9934863 13.38746064 -2.0534668 7.76586914 C-1.10605826 2.21211652 -1.10605826 2.21211652 0 0 Z " fill="#028FCE" transform="translate(195,114)"/>
<path d="M0 0 C2.74932848 1.37466424 3.17609325 3.01668527 4.5625 5.75 C17.30793738 29.6012918 36.70837201 47.26126968 62 57 C70.68610319 58.95409083 80.61367509 59.19479044 89 56 C89 56.99 89 57.98 89 59 C77.4071941 63.80886763 66.54336301 62.72996338 55 58 C31.4163106 47.01470707 9.4434767 27.85125448 0 3 C0 2.01 0 1.02 0 0 Z " fill="#2CB6F7" transform="translate(115,141)"/>
<path d="M0 0 C3 1 3 1 4.6875 3.125 C6.29811491 6.65301361 6.36215469 9.16116023 6 13 C4 15 4 15 1.171875 15.265625 C0.04265625 15.26046875 -1.0865625 15.2553125 -2.25 15.25 C-3.36890625 15.25515625 -4.4878125 15.2603125 -5.640625 15.265625 C-9.06103339 14.9951741 -11.80578847 14.21960804 -15 13 C-13.39538659 8.82800514 -10.46864935 5.73571607 -7 3 C-4.25 2.25 -4.25 2.25 -2 2 C-1.34 1.34 -0.68 0.68 0 0 Z " fill="#004F9B" transform="translate(196,176)"/>
<path d="M0 0 C1.26650391 -0.00128906 2.53300781 -0.00257812 3.83789062 -0.00390625 C5.80338867 0.00189453 5.80338867 0.00189453 7.80859375 0.0078125 C9.77989258 0.00201172 9.77989258 0.00201172 11.79101562 -0.00390625 C13.05623047 -0.00261719 14.32144531 -0.00132813 15.625 0 C16.77556885 0.00112793 17.9261377 0.00225586 19.11157227 0.00341797 C21.94487846 0.12037819 24.49202307 0.48369625 27.24609375 1.1328125 C27.24609375 1.4628125 27.24609375 1.7928125 27.24609375 2.1328125 C26.50262695 2.1421582 25.75916016 2.15150391 24.99316406 2.16113281 C2.88933096 2.50852742 -16.28807877 4.72397061 -36.75390625 13.1328125 C-37.74390625 13.4628125 -38.73390625 13.7928125 -39.75390625 14.1328125 C-40.41390625 13.4728125 -41.07390625 12.8128125 -41.75390625 12.1328125 C-28.44735122 5.49817162 -15.13540391 0.01482306 0 0 Z " fill="#02CAF7" transform="translate(137.75390625,113.8671875)"/>
<path d="M0 0 C0.89203125 0.01804688 1.7840625 0.03609375 2.703125 0.0546875 C3.71632812 0.08949219 3.71632812 0.08949219 4.75 0.125 C1.82063578 3.14590685 -1.1945442 6.04844194 -4.3125 8.875 C-4.96347656 9.46796875 -5.61445313 10.0609375 -6.28515625 10.671875 C-8.34622177 12.19616203 -9.71957897 12.80674086 -12.25 13.125 C-14.5 12.1875 -14.5 12.1875 -16.25 11.125 C-15.9973068 7.71364174 -15.01495524 6.90562489 -12.4375 4.5 C-8.04120679 1.22433055 -5.52137831 -0.14529943 0 0 Z " fill="#0063C4" transform="translate(184.25,171.875)"/>
<path d="M0 0 C1.21236328 0.01353516 1.21236328 0.01353516 2.44921875 0.02734375 C3.37154297 0.04474609 3.37154297 0.04474609 4.3125 0.0625 C3.3125 2.0625 3.3125 2.0625 0.8125 2.9140625 C-11.32079006 5.59530294 -27.74834574 8.04221809 -39.6875 4.0625 C-39.6875 3.4025 -39.6875 2.7425 -39.6875 2.0625 C-38.73383545 2.03744385 -37.7801709 2.0123877 -36.79760742 1.98657227 C-33.25840893 1.89237929 -29.71940125 1.79218769 -26.18041992 1.69018555 C-24.64888982 1.64688167 -23.11731285 1.60520333 -21.58569336 1.56518555 C-19.38380818 1.50737268 -17.18215789 1.44371031 -14.98046875 1.37890625 C-14.29599167 1.36219376 -13.61151459 1.34548126 -12.90629578 1.32826233 C-8.43379265 1.18897463 -4.4653409 -0.06471509 0 0 Z " fill="#AE5CE1" transform="translate(118.6875,194.9375)"/>
<path d="M0 0 C2.64 1.98 5.28 3.96 8 6 C6.55311454 8.89377093 5.24918136 11.18533078 3.375 13.75 C2.70597656 14.67039063 2.70597656 14.67039063 2.0234375 15.609375 C1.68570313 16.06828125 1.34796875 16.5271875 1 17 C-1.475 16.01 -1.475 16.01 -4 15 C-2.9318153 9.88634986 -1.76892524 4.92772031 0 0 Z " fill="#0173C2" transform="translate(193,127)"/>
<path d="M0 0 C7.48435728 2.49478576 12.7360149 12.8762318 16.9375 19.375 C17.50331787 20.24838013 17.50331787 20.24838013 18.08056641 21.1394043 C20.09387751 24.32630609 21.73012451 27.44966747 23 31 C22.01 31.33 21.02 31.66 20 32 C19.27296875 30.65808594 19.27296875 30.65808594 18.53125 29.2890625 C13.71845771 20.55406259 8.29142399 12.97415053 1.765625 5.41015625 C0 3 0 3 0 0 Z " fill="#02C0FB" transform="translate(203,133)"/>
<path d="M0 0 C1.796875 0.796875 1.796875 0.796875 2.796875 1.796875 C2.984375 5.234375 2.984375 5.234375 2.796875 8.796875 C0.796875 10.796875 0.796875 10.796875 -1.8046875 10.9921875 C-2.80242187 10.96898437 -3.80015625 10.94578125 -4.828125 10.921875 C-6.33246094 10.89480469 -6.33246094 10.89480469 -7.8671875 10.8671875 C-8.63804687 10.84398437 -9.40890625 10.82078125 -10.203125 10.796875 C-10.203125 6.92870233 -9.11781984 6.25047049 -6.453125 3.546875 C-5.75703125 2.81984375 -5.0609375 2.0928125 -4.34375 1.34375 C-2.203125 -0.203125 -2.203125 -0.203125 0 0 Z " fill="#00407C" transform="translate(199.203125,180.203125)"/>
<path d="M0 0 C5.64343348 1.36810509 8.83434688 5.39607069 12 10 C16.24819125 18.42013292 18.1584941 25.64884837 18 35 C17.01 35 16.02 35 15 35 C14.90203125 34.18917969 14.8040625 33.37835938 14.703125 32.54296875 C13.13010287 20.89446868 10.89713623 11.19588411 2 3 C1.34 2.67 0.68 2.34 0 2 C0 1.34 0 0.68 0 0 Z " fill="#07DFFE" transform="translate(164,61)"/>
<path d="M0 0 C0.66 0.33 1.32 0.66 2 1 C1.39865234 1.84304687 1.39865234 1.84304687 0.78515625 2.703125 C-5.41637087 11.8718227 -9.63701908 21.86340555 -14 32 C-14.66 32 -15.32 32 -16 32 C-15.49802117 25.79219519 -13.44273164 20.95217881 -10.75 15.375 C-10.17572266 14.12589844 -10.17572266 14.12589844 -9.58984375 12.8515625 C-7.28584983 8.01240471 -5.04391601 4.5279681 -1 1 C-0.67 0.67 -0.34 0.34 0 0 Z " fill="#01ADF8" transform="translate(126,59)"/>
<path d="M0 0 C2.38566447 6.64463594 -1.34613669 14.39131406 -4.14306641 20.49414062 C-11.99150433 36.49575216 -11.99150433 36.49575216 -15 38 C-13.66807736 33.756875 -12.04693567 29.82068191 -10.125 25.8125 C-5.08017161 15.21784787 -5.08017161 15.21784787 -2.375 3.875 C-2.25125 2.92625 -2.1275 1.9775 -2 1 C-1.34 0.67 -0.68 0.34 0 0 Z " fill="#02DCFB" transform="translate(179,123)"/>
<path d="M0 0 C0.33 0.99 0.66 1.98 1 3 C-0.2578125 4.69140625 -0.2578125 4.69140625 -2.125 6.5625 C-7.82034351 12.74666541 -11.05656952 19.8729271 -13 28 C-13.66 28 -14.32 28 -15 28 C-14.95548603 17.53921737 -10.89043413 10.70495842 -3.625 3.375 C-2.4265935 2.23943129 -1.2218978 1.11025232 0 0 Z " fill="#866BE6" transform="translate(80,136)"/>
<path d="M0 0 C0.33 0.99 0.66 1.98 1 3 C-6.88897956 6.27246559 -14.26577218 7.14274465 -22.625 5.125 C-25 4 -25 4 -26 2 C-25.13834229 2.01571045 -25.13834229 2.01571045 -24.25927734 2.03173828 C-21.63123023 2.07357099 -19.00325346 2.099412 -16.375 2.125 C-15.47136719 2.14175781 -14.56773437 2.15851563 -13.63671875 2.17578125 C-8.67249848 2.21201643 -4.65588093 1.96444146 0 0 Z " fill="#00B1F6" transform="translate(203,197)"/>
<path d="M0 0 C1.00160156 0.54269531 2.00320312 1.08539063 3.03515625 1.64453125 C4.37752056 2.3673428 5.71997321 3.08999029 7.0625 3.8125 C7.71927734 4.16892578 8.37605469 4.52535156 9.05273438 4.89257812 C12.30013044 6.63625385 15.49986534 8.22898347 18.93359375 9.57421875 C19.94550781 10.04472656 20.95742187 10.51523438 22 11 C22.33 11.99 22.66 12.98 23 14 C15.00386066 12.14248976 7.55365598 9.02051076 1 4 C0.16015625 1.77734375 0.16015625 1.77734375 0 0 Z " fill="#1FB6F7" transform="translate(155,187)"/>
<path d="M0 0 C0.99 0.66 1.98 1.32 3 2 C1.5140084 6.59306496 -0.85014682 9.43569245 -4 13 C-5.32 12.34 -6.64 11.68 -8 11 C-7.04454634 9.53977837 -6.08553322 8.08188532 -5.125 6.625 C-4.59132812 5.81289062 -4.05765625 5.00078125 -3.5078125 4.1640625 C-2 2 -2 2 0 0 Z " fill="#017FDB" transform="translate(201,134)"/>
<path d="M0 0 C0.66 0.33 1.32 0.66 2 1 C1.731875 1.61875 1.46375 2.2375 1.1875 2.875 C-0.4483787 7.17994393 -1.71271326 11.58031552 -3 16 C-2.01 16.33 -1.02 16.66 0 17 C-2.31 17.66 -4.62 18.32 -7 19 C-6.7168444 16.91549283 -6.42314331 14.83241633 -6.125 12.75 C-5.96257812 11.58984375 -5.80015625 10.4296875 -5.6328125 9.234375 C-5.08179569 6.41806687 -4.44203518 4.44782443 -3 2 C-2.01 2 -1.02 2 0 2 C0 1.34 0 0.68 0 0 Z " fill="#0191DB" transform="translate(112,89)"/>
<path d="M0 0 C4.63013699 1.42465753 4.63013699 1.42465753 6.125 3.75 C5.9180365 7.47534303 3.49231675 9.32531861 1 12 C0.34 11.67 -0.32 11.34 -1 11 C-1.0270043 9.54176788 -1.04639787 8.08339325 -1.0625 6.625 C-1.07410156 5.81289062 -1.08570313 5.00078125 -1.09765625 4.1640625 C-1 2 -1 2 0 0 Z " fill="#017AC1" transform="translate(195,114)"/>
<path d="M0 0 C7.92 0 15.84 0 24 0 C24 0.33 24 0.66 24 1 C21.36 1.33 18.72 1.66 16 2 C16 2.33 16 2.66 16 3 C13.89590361 3.02701408 11.79170822 3.04640223 9.6875 3.0625 C8.51574219 3.07410156 7.34398438 3.08570313 6.13671875 3.09765625 C3 3 3 3 0 2 C0 1.34 0 0.68 0 0 Z " fill="#A53BC8" transform="translate(79,197)"/>
<path d="M0 0 C-1.2684375 0.804375 -1.2684375 0.804375 -2.5625 1.625 C-5.79229171 3.75773657 -8.62520488 6.22653777 -11.484375 8.828125 C-13 10 -13 10 -15 10 C-14.7473068 6.58864174 -13.76495524 5.78062489 -11.1875 3.375 C-4.50063532 -1.60736976 -4.50063532 -1.60736976 0 0 Z " fill="#086BCE" transform="translate(183,173)"/>
<path d="M0 0 C-2.45740296 1.64723726 -4.91587001 3.29284464 -7.375 4.9375 C-8.07367188 5.40607422 -8.77234375 5.87464844 -9.4921875 6.35742188 C-10.1625 6.80537109 -10.8328125 7.25332031 -11.5234375 7.71484375 C-12.14138184 8.12855225 -12.75932617 8.54226074 -13.39599609 8.96850586 C-15 10 -15 10 -17 11 C-16.67539864 7.99909355 -16.12817102 7.10918272 -13.78515625 5.11328125 C-12.88667969 4.51902344 -11.98820312 3.92476562 -11.0625 3.3125 C-10.16660156 2.71050781 -9.27070312 2.10851562 -8.34765625 1.48828125 C-4.92108315 -0.68397224 -3.87257886 -1.16177366 0 0 Z " fill="#31B3F7" transform="translate(98,128)"/>
<path d="M0 0 C2.1875 0.3125 2.1875 0.3125 4 1 C0.66666667 4.33333333 -2.66666667 7.66666667 -6 11 C-6.99 10.67 -7.98 10.34 -9 10 C-8.06409496 8.8944811 -7.12620142 7.79064547 -6.1875 6.6875 C-5.66542969 6.07261719 -5.14335937 5.45773438 -4.60546875 4.82421875 C-1.53272511 1.33280444 -1.53272511 1.33280444 0 0 Z " fill="#004789" transform="translate(197,180)"/>
<path d="M0 0 C0.99 0.99 1.98 1.98 3 3 C2.3503125 3.61488281 2.3503125 3.61488281 1.6875 4.2421875 C1.130625 4.78101562 0.57375 5.31984375 0 5.875 C-0.8353125 6.67550781 -0.8353125 6.67550781 -1.6875 7.4921875 C-3.21885522 8.91824988 -3.21885522 8.91824988 -3 11 C-2.34 11.66 -1.68 12.32 -1 13 C-1.66 13.66 -2.32 14.32 -3 15 C-4.65 13.02 -6.3 11.04 -8 9 C-7.195625 8.38125 -6.39125 7.7625 -5.5625 7.125 C-2.96125481 5.25835959 -2.96125481 5.25835959 -2 3 C-1.34 3 -0.68 3 0 3 C0 2.01 0 1.02 0 0 Z " fill="#02A6E7" transform="translate(205,120)"/>
<path d="M0 0 C4.00934092 3.31807524 5.72455018 7.05280069 7 12 C7 13.32 7 14.64 7 16 C6.01 15.67 5.02 15.34 4 15 C3.0859375 12.63671875 3.0859375 12.63671875 2.375 9.6875 C2.13523438 8.72199219 1.89546875 7.75648438 1.6484375 6.76171875 C1.32746094 5.39466797 1.32746094 5.39466797 1 4 C0.66822817 2.66627726 0.3355675 1.3327728 0 0 Z " fill="#005CA6" transform="translate(209,164)"/>
<path d="M0 0 C0.66 0.33 1.32 0.66 2 1 C0.22054913 5.04420651 -2.39529673 8.46078487 -5 12 C-5.99 11.67 -6.98 11.34 -8 11 C-7.59007812 10.45730469 -7.18015625 9.91460937 -6.7578125 9.35546875 C-6.21898437 8.64003906 -5.68015625 7.92460937 -5.125 7.1875 C-4.59132812 6.47980469 -4.05765625 5.77210938 -3.5078125 5.04296875 C-2.29185219 3.39543703 -1.13583859 1.70375789 0 0 Z " fill="#0179D0" transform="translate(199,132)"/>
<path d="M0 0 C0.66 0.33 1.32 0.66 2 1 C-6.87581699 11.583878 -6.87581699 11.583878 -12 15 C-10.57641609 10.45925821 -8.27867927 7.96026853 -4.875 4.6875 C-3.96492187 3.80449219 -3.05484375 2.92148437 -2.1171875 2.01171875 C-1.41851562 1.34785156 -0.71984375 0.68398438 0 0 Z " fill="#015C95" transform="translate(146,57)"/>
<path d="M0 0 C1.65087847 0.59024148 3.29562407 1.19766006 4.9375 1.8125 C6.31228516 2.31716797 6.31228516 2.31716797 7.71484375 2.83203125 C10 4 10 4 11 7 C9.37276701 6.54965877 7.74826336 6.08944646 6.125 5.625 C5.22007812 5.36976563 4.31515625 5.11453125 3.3828125 4.8515625 C1 4 1 4 -1 2 C-0.67 1.34 -0.34 0.68 0 0 Z " fill="#0FB5F6" transform="translate(167,194)"/>
<path d="M0 0 C0.66 0.33 1.32 0.66 2 1 C0.51131293 5.60139641 -1.74629855 8.50227094 -5 12 C-5.66 12 -6.32 12 -7 12 C-5.61735163 9.13132769 -4.07851447 6.43975968 -2.375 3.75 C-1.92898437 3.04359375 -1.48296875 2.3371875 -1.0234375 1.609375 C-0.68570313 1.07828125 -0.34796875 0.5471875 0 0 Z " fill="#0187E6" transform="translate(202,135)"/>
<path d="M0 0 C1.37384634 0.29202531 2.74494711 0.59721202 4.11328125 0.9140625 C4.81517578 1.06617188 5.51707031 1.21828125 6.24023438 1.375 C7.97122745 1.75181482 9.69886712 2.14397513 11.42578125 2.5390625 C11.42578125 2.8690625 11.42578125 3.1990625 11.42578125 3.5390625 C5.06590321 3.74096339 -0.42643004 3.1668458 -6.57421875 1.5390625 C-3.57421875 -0.4609375 -3.57421875 -0.4609375 0 0 Z " fill="#5B2485" transform="translate(81.57421875,182.4609375)"/>
<path d="M0 0 C0.66 0 1.32 0 2 0 C1.85831863 1.43791516 1.71148957 2.8753237 1.5625 4.3125 C1.48128906 5.11300781 1.40007812 5.91351563 1.31640625 6.73828125 C1 9 1 9 0 12 C-0.66 12 -1.32 12 -2 12 C-1.85904936 10.3745692 -1.71207913 8.74965949 -1.5625 7.125 C-1.48128906 6.22007812 -1.40007812 5.31515625 -1.31640625 4.3828125 C-1 2 -1 2 0 0 Z " fill="#A059E0" transform="translate(67,152)"/>
<path d="M0 0 C0.33 0.66 0.66 1.32 1 2 C-1.31 4.64 -3.62 7.28 -6 10 C-6.66 9.67 -7.32 9.34 -8 9 C-7.34 7.35 -6.68 5.7 -6 4 C-5.01 4 -4.02 4 -3 4 C-1.29467677 2.05990478 -1.29467677 2.05990478 0 0 Z " fill="#0074C1" transform="translate(162,165)"/>
<path d="M0 0 C0.33 0.99 0.66 1.98 1 3 C-1.31 5.31 -3.62 7.62 -6 10 C-6.33 9.01 -6.66 8.02 -7 7 C-4.69 4.69 -2.38 2.38 0 0 Z " fill="#758CF2" transform="translate(80,136)"/>
<path d="M0 0 C0.66 0.33 1.32 0.66 2 1 C1.34 2.65 0.68 4.3 0 6 C0.99 6.33 1.98 6.66 3 7 C0.69 7.66 -1.62 8.32 -4 9 C-2.94124926 5.59687262 -1.99097846 2.98646769 0 0 Z " fill="#0076BA" transform="translate(109,99)"/>
<path d="M0 0 C0 0.33 0 0.66 0 1 C-4.62 1 -9.24 1 -14 1 C-14 0.67 -14 0.34 -14 0 C-8.53190155 -2.4606443 -5.51272919 -1.71084699 0 0 Z " fill="#06A3BB" transform="translate(177,28)"/>
<path d="M0 0 C0.66 0.33 1.32 0.66 2 1 C-0.85276137 3.93200474 -3.65079784 6.64315404 -7 9 C-6.49396008 6.83125748 -6.00016187 5.00032373 -5 3 C-4.34 3 -3.68 3 -3 3 C-2.67 2.34 -2.34 1.68 -2 1 C-1.34 0.67 -0.68 0.34 0 0 Z " fill="#009BD7" transform="translate(164,162)"/>
<path d="M0 0 C2.5178998 1.2589499 2.92708464 2.39057117 4.1875 4.875 C4.55230469 5.57367188 4.91710937 6.27234375 5.29296875 6.9921875 C6 9 6 9 5 12 C4.15885829 10.56705502 3.32734313 9.12845595 2.5 7.6875 C1.80390625 6.48673828 1.80390625 6.48673828 1.09375 5.26171875 C0 3 0 3 0 0 Z " fill="#17AFF0" transform="translate(115,141)"/>
<path d="M0 0 C0.66 0.99 1.32 1.98 2 3 C-0.64 4.65 -3.28 6.3 -6 8 C-4.85240511 3.40962044 -3.70960782 2.66330818 0 0 Z " fill="#519FF3" transform="translate(87,131)"/>
<path d="M0 0 C0.33 1.32 0.66 2.64 1 4 C0.34 4 -0.32 4 -1 4 C-1.268125 4.639375 -1.53625 5.27875 -1.8125 5.9375 C-3 8 -3 8 -6 9 C-4.47291037 5.56404834 -2.40072955 2.88087546 0 0 Z " fill="#0292DE" transform="translate(204,119)"/>
<path d="M0 0 C3.3 0 6.6 0 10 0 C9.01 1.485 9.01 1.485 8 3 C5.36 2.67 2.72 2.34 0 2 C0 1.34 0 0.68 0 0 Z " fill="#A72CB6" transform="translate(79,197)"/>
<path d="M0 0 C2.97 0 5.94 0 9 0 C8.67 0.66 8.34 1.32 8 2 C4.9375 2.625 4.9375 2.625 2 3 C1.34 2.01 0.68 1.02 0 0 Z " fill="#7E64D3" transform="translate(114,195)"/>
<path d="M0 0 C1.89213369 2.38573379 3.02391783 4.07175348 4 7 C3.01 7.33 2.02 7.66 1 8 C0.26919734 6.02253397 -0.39421747 4.01927511 -1 2 C-0.67 1.34 -0.34 0.68 0 0 Z " fill="#02ABFA" transform="translate(222,157)"/>
<path d="M0 0 C0 0.66 0 1.32 0 2 C-3.3125 3.125 -3.3125 3.125 -7 4 C-7.99 3.34 -8.98 2.68 -10 2 C-8.7090864 1.66376204 -7.41723903 1.33110751 -6.125 1 C-5.40570313 0.814375 -4.68640625 0.62875 -3.9453125 0.4375 C-2 0 -2 0 0 0 Z " fill="#6063C1" transform="translate(130,192)"/>
</svg>
