<?xml version="1.0" encoding="UTF-8"?>
<!DOCTYPE svg PUBLIC "-//W3C//DTD SVG 1.1//EN" "http://www.w3.org/Graphics/SVG/1.1/DTD/svg11.dtd">
<svg xmlns="http://www.w3.org/2000/svg" version="1.1" width="64px" height="64px" style="shape-rendering:geometricPrecision; text-rendering:geometricPrecision; image-rendering:optimizeQuality; fill-rule:evenodd; clip-rule:evenodd" xmlns:xlink="http://www.w3.org/1999/xlink">
<g><path style="opacity:1" fill="#f9c616" d="M 33.5,2.5 C 33.2172,3.28913 32.7172,3.9558 32,4.5C 30.7012,4.03376 29.2012,4.03376 27.5,4.5C 27.5,5.5 27.5,6.5 27.5,7.5C 25.3812,7.53235 24.0478,6.53235 23.5,4.5C 26.5072,2.82547 29.8405,2.1588 33.5,2.5 Z"/></g>
<g><path style="opacity:1" fill="#fbd028" d="M 33.5,2.5 C 35.2161,2.62867 36.8828,2.962 38.5,3.5C 37.8776,5.12159 36.8776,6.45492 35.5,7.5C 35.631,6.76109 35.4643,6.09442 35,5.5C 34.3292,6.25244 33.4959,6.58577 32.5,6.5C 32.2648,5.90326 31.7648,5.56993 31,5.5C 29.6974,5.9783 28.5307,6.64497 27.5,7.5C 27.5,6.5 27.5,5.5 27.5,4.5C 29.2012,4.03376 30.7012,4.03376 32,4.5C 32.7172,3.9558 33.2172,3.28913 33.5,2.5 Z"/></g>
<g><path style="opacity:1" fill="#efb32c" d="M 23.5,4.5 C 24.0478,6.53235 25.3812,7.53235 27.5,7.5C 27.631,8.23891 27.4643,8.90558 27,9.5C 26.3457,8.30441 25.8457,8.30441 25.5,9.5C 26.9397,10.9524 28.6064,11.9524 30.5,12.5C 30.1667,13.1667 29.8333,13.8333 29.5,14.5C 27.5891,14.4257 26.4224,13.4257 26,11.5C 23.8266,14.277 23.3266,14.1103 24.5,11C 23.9747,10.3076 23.3081,9.80762 22.5,9.5C 22.5953,10.6912 22.262,12.0245 21.5,13.5C 20.8333,13.5 20.1667,13.5 19.5,13.5C 19.5,12.1667 19.5,10.8333 19.5,9.5C 18.5,9.5 17.5,9.5 16.5,9.5C 17.9923,6.67686 20.3257,5.01019 23.5,4.5 Z"/></g>
<g><path style="opacity:1" fill="#fac919" d="M 35.5,7.5 C 35.5,8.16667 35.8333,8.5 36.5,8.5C 36.1583,9.33825 35.4916,9.67158 34.5,9.5C 33.1779,9.33003 32.0113,9.66337 31,10.5C 30.1558,8.53722 30.6558,7.20389 32.5,6.5C 33.4959,6.58577 34.3292,6.25244 35,5.5C 35.4643,6.09442 35.631,6.76109 35.5,7.5 Z"/></g>
<g><path style="opacity:1" fill="#fbcb0e" d="M 38.5,3.5 C 41.1092,4.44306 43.1092,6.10973 44.5,8.5C 42.1667,8.5 39.8333,8.5 37.5,8.5C 37.1667,8.5 36.8333,8.5 36.5,8.5C 35.8333,8.5 35.5,8.16667 35.5,7.5C 36.8776,6.45492 37.8776,5.12159 38.5,3.5 Z"/></g>
<g><path style="opacity:1" fill="#b11715" d="M 37.5,8.5 C 39.8333,8.5 42.1667,8.5 44.5,8.5C 46.1667,9.5 47.5,10.8333 48.5,12.5C 46.3792,12.3253 44.3792,12.6586 42.5,13.5C 41.2422,12.9376 39.5755,12.271 37.5,11.5C 37.5,10.5 37.5,9.5 37.5,8.5 Z"/></g>
<g><path style="opacity:1" fill="#f4ba0f" d="M 32.5,6.5 C 30.6558,7.20389 30.1558,8.53722 31,10.5C 32.0113,9.66337 33.1779,9.33003 34.5,9.5C 33.205,10.4884 31.8717,11.4884 30.5,12.5C 28.6064,11.9524 26.9397,10.9524 25.5,9.5C 25.8457,8.30441 26.3457,8.30441 27,9.5C 27.4643,8.90558 27.631,8.23891 27.5,7.5C 28.5307,6.64497 29.6974,5.9783 31,5.5C 31.7648,5.56993 32.2648,5.90326 32.5,6.5 Z"/></g>
<g><path style="opacity:0.967" fill="#b21a14" d="M 36.5,8.5 C 36.8333,8.5 37.1667,8.5 37.5,8.5C 37.5,9.5 37.5,10.5 37.5,11.5C 39.5755,12.271 41.2422,12.9376 42.5,13.5C 40.7095,14.3913 38.8761,15.3913 37,16.5C 36.6174,15.944 36.1174,15.6107 35.5,15.5C 33.6208,14.6586 31.6208,14.3253 29.5,14.5C 29.8333,13.8333 30.1667,13.1667 30.5,12.5C 31.8717,11.4884 33.205,10.4884 34.5,9.5C 35.4916,9.67158 36.1583,9.33825 36.5,8.5 Z"/></g>
<g><path style="opacity:1" fill="#e18e19" d="M 16.5,9.5 C 17.5,9.5 18.5,9.5 19.5,9.5C 19.5,10.8333 19.5,12.1667 19.5,13.5C 18.6618,13.8417 18.3284,14.5084 18.5,15.5C 17.8333,15.5 17.1667,15.5 16.5,15.5C 16.0679,14.2905 15.4013,13.2905 14.5,12.5C 14.9321,11.2905 15.5987,10.2905 16.5,9.5 Z"/></g>
<g><path style="opacity:1" fill="#d8781b" d="M 14.5,12.5 C 15.4013,13.2905 16.0679,14.2905 16.5,15.5C 17.6005,16.6049 18.2671,17.9382 18.5,19.5C 16.8706,17.9397 15.704,18.273 15,20.5C 14.8784,18.563 14.045,17.2297 12.5,16.5C 12.6596,14.847 13.3263,13.5137 14.5,12.5 Z"/></g>
<g><path style="opacity:1" fill="#e29020" d="M 19.5,13.5 C 20.1667,13.5 20.8333,13.5 21.5,13.5C 22.4408,15.0495 23.1075,16.7162 23.5,18.5C 22.3121,17.3157 21.1455,17.3157 20,18.5C 19.4867,17.4734 18.9867,16.4734 18.5,15.5C 18.3284,14.5084 18.6618,13.8417 19.5,13.5 Z"/></g>
<g><path style="opacity:1" fill="#e6970e" d="M 29.5,14.5 C 28.3434,16.678 27.0101,18.678 25.5,20.5C 24.8333,19.8333 24.1667,19.1667 23.5,18.5C 23.1075,16.7162 22.4408,15.0495 21.5,13.5C 22.262,12.0245 22.5953,10.6912 22.5,9.5C 23.3081,9.80762 23.9747,10.3076 24.5,11C 23.3266,14.1103 23.8266,14.277 26,11.5C 26.4224,13.4257 27.5891,14.4257 29.5,14.5 Z"/></g>
<g><path style="opacity:1" fill="#b72713" d="M 48.5,12.5 C 49.1667,13.8333 49.8333,15.1667 50.5,16.5C 48.6612,17.7525 46.8278,17.7525 45,16.5C 43.7275,19.2224 41.5608,20.5557 38.5,20.5C 36.7497,19.3406 35.7497,17.674 35.5,15.5C 36.1174,15.6107 36.6174,15.944 37,16.5C 38.8761,15.3913 40.7095,14.3913 42.5,13.5C 44.3792,12.6586 46.3792,12.3253 48.5,12.5 Z"/></g>
<g><path style="opacity:1" fill="#ce600f" d="M 12.5,16.5 C 14.045,17.2297 14.8784,18.563 15,20.5C 15.704,18.273 16.8706,17.9397 18.5,19.5C 18.8333,20.8333 19.1667,22.1667 19.5,23.5C 19.1667,23.5 18.8333,23.5 18.5,23.5C 15.5614,22.544 13.228,20.8774 11.5,18.5C 11.3284,17.5084 11.6618,16.8417 12.5,16.5 Z"/></g>
<g><path style="opacity:1" fill="#d97b12" d="M 16.5,15.5 C 17.1667,15.5 17.8333,15.5 18.5,15.5C 18.9867,16.4734 19.4867,17.4734 20,18.5C 21.1455,17.3157 22.3121,17.3157 23.5,18.5C 24.1667,19.1667 24.8333,19.8333 25.5,20.5C 25.4431,21.609 25.1098,22.609 24.5,23.5C 22.64,22.9285 20.9733,22.9285 19.5,23.5C 19.1667,22.1667 18.8333,20.8333 18.5,19.5C 18.2671,17.9382 17.6005,16.6049 16.5,15.5 Z"/></g>
<g><path style="opacity:1" fill="#be3a12" d="M 50.5,16.5 C 51.404,17.209 51.7373,18.209 51.5,19.5C 50.4168,19.4606 49.4168,19.1272 48.5,18.5C 45.1546,19.6558 42.4879,21.6558 40.5,24.5C 39.3263,23.4863 38.6596,22.153 38.5,20.5C 41.5608,20.5557 43.7275,19.2224 45,16.5C 46.8278,17.7525 48.6612,17.7525 50.5,16.5 Z"/></g>
<g><path style="opacity:1" fill="#c64915" d="M 51.5,19.5 C 52.5,19.8333 53.1667,20.5 53.5,21.5C 51.3855,22.32 49.3855,22.6534 47.5,22.5C 44.8915,22.4003 42.5582,23.0669 40.5,24.5C 42.4879,21.6558 45.1546,19.6558 48.5,18.5C 49.4168,19.1272 50.4168,19.4606 51.5,19.5 Z"/></g>
<g><path style="opacity:1" fill="#c8510d" d="M 11.5,18.5 C 13.228,20.8774 15.5614,22.544 18.5,23.5C 18.5,24.8333 18.5,26.1667 18.5,27.5C 16.4508,27.2942 16.1175,26.4609 17.5,25C 14.9096,23.5549 12.243,22.3882 9.5,21.5C 9.93205,20.2905 10.5987,19.2905 11.5,18.5 Z"/></g>
<g><path style="opacity:1" fill="#c95c0e" d="M 24.5,23.5 C 22.8193,26.2028 21.1526,28.8695 19.5,31.5C 19.7373,30.209 19.404,29.209 18.5,28.5C 18.5,28.1667 18.5,27.8333 18.5,27.5C 18.5,26.1667 18.5,24.8333 18.5,23.5C 18.8333,23.5 19.1667,23.5 19.5,23.5C 20.9733,22.9285 22.64,22.9285 24.5,23.5 Z"/></g>
<g><path style="opacity:1" fill="#c8500b" d="M 47.5,22.5 C 47.5,23.5 47.5,24.5 47.5,25.5C 45.4862,25.3915 43.8195,26.0582 42.5,27.5C 41.5987,26.7095 40.9321,25.7095 40.5,24.5C 42.5582,23.0669 44.8915,22.4003 47.5,22.5 Z"/></g>
<g><path style="opacity:1" fill="#ba300f" d="M 9.5,21.5 C 9.6596,23.153 10.3263,24.4863 11.5,25.5C 11.5674,26.9587 11.2341,28.2921 10.5,29.5C 9.51163,28.205 8.51163,26.8717 7.5,25.5C 7.98869,24.0048 8.65536,22.6715 9.5,21.5 Z"/></g>
<g><path style="opacity:1" fill="#c54b18" d="M 9.5,21.5 C 12.243,22.3882 14.9096,23.5549 17.5,25C 16.1175,26.4609 16.4508,27.2942 18.5,27.5C 18.5,27.8333 18.5,28.1667 18.5,28.5C 17.1266,28.6567 15.7932,28.49 14.5,28C 13.9221,26.583 12.9221,25.7496 11.5,25.5C 10.3263,24.4863 9.6596,23.153 9.5,21.5 Z"/></g>
<g><path style="opacity:1" fill="#d06213" d="M 53.5,21.5 C 54.5,23.5 55.5,25.5 56.5,27.5C 54.6336,26.9862 52.8003,26.3195 51,25.5C 50.2352,25.5699 49.7352,25.9033 49.5,26.5C 47.1815,26.9925 45.1815,27.9925 43.5,29.5C 42.6618,29.1583 42.3284,28.4916 42.5,27.5C 43.8195,26.0582 45.4862,25.3915 47.5,25.5C 47.5,24.5 47.5,23.5 47.5,22.5C 49.3855,22.6534 51.3855,22.32 53.5,21.5 Z"/></g>
<g><path style="opacity:1" fill="#be3914" d="M 11.5,25.5 C 12.9221,25.7496 13.9221,26.583 14.5,28C 15.7932,28.49 17.1266,28.6567 18.5,28.5C 19.404,29.209 19.7373,30.209 19.5,31.5C 19.6716,32.4916 19.3382,33.1583 18.5,33.5C 17.603,32.4019 16.7697,32.4019 16,33.5C 15.6667,32.5 15.3333,31.5 15,30.5C 13.984,31.6341 13.3173,31.3008 13,29.5C 12.2303,30.5981 11.397,30.5981 10.5,29.5C 11.2341,28.2921 11.5674,26.9587 11.5,25.5 Z"/></g>
<g><path style="opacity:1" fill="#d56f0b" d="M 49.5,26.5 C 50.1667,27.1667 50.8333,27.8333 51.5,28.5C 51.6495,29.552 51.4828,30.552 51,31.5C 48.7109,29.6682 46.8776,30.3349 45.5,33.5C 44.3263,32.4863 43.6596,31.153 43.5,29.5C 45.1815,27.9925 47.1815,26.9925 49.5,26.5 Z"/></g>
<g><path style="opacity:1" fill="#de8b32" d="M 49.5,26.5 C 49.7352,25.9033 50.2352,25.5699 51,25.5C 52.8003,26.3195 54.6336,26.9862 56.5,27.5C 57.3382,27.8417 57.6716,28.5084 57.5,29.5C 56.7498,29.1263 55.7498,29.1263 54.5,29.5C 53.787,27.565 52.787,27.2317 51.5,28.5C 50.8333,27.8333 50.1667,27.1667 49.5,26.5 Z"/></g>
<g><path style="opacity:1" fill="#b72814" d="M 7.5,25.5 C 8.51163,26.8717 9.51163,28.205 10.5,29.5C 11.397,30.5981 12.2303,30.5981 13,29.5C 13.3173,31.3008 13.984,31.6341 15,30.5C 15.3333,31.5 15.6667,32.5 16,33.5C 16.7697,32.4019 17.603,32.4019 18.5,33.5C 18.2671,35.0618 17.6005,36.3951 16.5,37.5C 15.7777,36.4489 14.7777,35.7822 13.5,35.5C 11.1178,32.8222 8.45111,30.4889 5.5,28.5C 5.93205,27.2905 6.59872,26.2905 7.5,25.5 Z"/></g>
<g><path style="opacity:1" fill="#e18b16" d="M 57.5,29.5 C 58.3382,29.8417 58.6716,30.5084 58.5,31.5C 55.7633,31.8592 53.7633,33.1925 52.5,35.5C 52.1667,35.5 51.8333,35.5 51.5,35.5C 51.5,34.5 51.5,33.5 51.5,32.5C 49.6776,32.8308 48.0109,33.4975 46.5,34.5C 45.8333,34.5 45.5,34.1667 45.5,33.5C 46.8776,30.3349 48.7109,29.6682 51,31.5C 51.4828,30.552 51.6495,29.552 51.5,28.5C 52.787,27.2317 53.787,27.565 54.5,29.5C 55.7498,29.1263 56.7498,29.1263 57.5,29.5 Z"/></g>
<g><path style="opacity:1" fill="#b11915" d="M 4.5,32.5 C 8.13652,32.5618 10.6365,34.2285 12,37.5C 12.2784,36.5842 12.7784,35.9175 13.5,35.5C 14.7777,35.7822 15.7777,36.4489 16.5,37.5C 16.1667,38.1667 15.8333,38.8333 15.5,39.5C 14.5837,39.0183 13.5837,38.685 12.5,38.5C 11.9941,39.8239 10.6608,40.4906 8.5,40.5C 6.12695,38.4208 4.79362,35.7541 4.5,32.5 Z"/></g>
<g><path style="opacity:1" fill="#b31f17" d="M 5.5,28.5 C 8.45111,30.4889 11.1178,32.8222 13.5,35.5C 12.7784,35.9175 12.2784,36.5842 12,37.5C 10.6365,34.2285 8.13652,32.5618 4.5,32.5C 4.16667,32.5 3.83333,32.5 3.5,32.5C 3.98869,31.0048 4.65536,29.6715 5.5,28.5 Z"/></g>
<g><path style="opacity:1" fill="#e5981e" d="M 51.5,35.5 C 50.8333,36.8333 50.1667,38.1667 49.5,39.5C 49.1667,39.5 48.8333,39.5 48.5,39.5C 47.5592,37.9505 46.8925,36.2838 46.5,34.5C 48.0109,33.4975 49.6776,32.8308 51.5,32.5C 51.5,33.5 51.5,34.5 51.5,35.5 Z"/></g>
<g><path style="opacity:1" fill="#e99e14" d="M 58.5,31.5 C 59.1098,32.391 59.4431,33.391 59.5,34.5C 57.8211,34.8923 56.1545,35.3923 54.5,36C 55.5981,36.7697 55.5981,37.603 54.5,38.5C 53.0937,38.0269 52.427,37.0269 52.5,35.5C 53.7633,33.1925 55.7633,31.8592 58.5,31.5 Z"/></g>
<g><path style="opacity:1" fill="#f0b11c" d="M 59.5,34.5 C 59.5,35.5 59.5,36.5 59.5,37.5C 58.596,38.209 58.2627,39.209 58.5,40.5C 57.8333,40.8333 57.1667,41.1667 56.5,41.5C 56.573,39.9731 55.9063,38.9731 54.5,38.5C 55.5981,37.603 55.5981,36.7697 54.5,36C 56.1545,35.3923 57.8211,34.8923 59.5,34.5 Z"/></g>
<g><path style="opacity:1" fill="#fac91f" d="M 3.5,32.5 C 3.83333,32.5 4.16667,32.5 4.5,32.5C 4.79362,35.7541 6.12695,38.4208 8.5,40.5C 9.52743,42.1942 10.8608,43.5275 12.5,44.5C 12.5,44.8333 12.5,45.1667 12.5,45.5C 11.5272,46.7914 10.5272,46.7914 9.5,45.5C 8.57131,46.6888 8.23798,48.0222 8.5,49.5C 6.76733,48.9924 6.434,48.159 7.5,47C 6.87424,46.2496 6.37424,45.4162 6,44.5C 5.34569,45.6956 4.84569,45.6956 4.5,44.5C 6.03963,43.4679 6.53963,42.1346 6,40.5C 5.58605,40.9574 5.08605,41.2907 4.5,41.5C 3.54811,39.9547 3.21478,38.288 3.5,36.5C 3.5,35.1667 3.5,33.8333 3.5,32.5 Z"/></g>
<g><path style="opacity:1" fill="#b21b16" d="M 15.5,39.5 C 15.2525,41.8583 15.9192,43.8583 17.5,45.5C 15.7839,45.3713 14.1172,45.038 12.5,44.5C 10.8608,43.5275 9.52743,42.1942 8.5,40.5C 10.6608,40.4906 11.9941,39.8239 12.5,38.5C 13.5837,38.685 14.5837,39.0183 15.5,39.5 Z"/></g>
<g><path style="opacity:1" fill="#f0b321" d="M 51.5,35.5 C 51.8333,35.5 52.1667,35.5 52.5,35.5C 52.427,37.0269 53.0937,38.0269 54.5,38.5C 55.9063,38.9731 56.573,39.9731 56.5,41.5C 54.0833,42.6266 52.0833,42.6266 50.5,41.5C 49.6618,41.1583 49.3284,40.4916 49.5,39.5C 50.1667,38.1667 50.8333,36.8333 51.5,35.5 Z"/></g>
<g><path style="opacity:0.995" fill="#b11513" d="M 48.5,39.5 C 48.8333,39.5 49.1667,39.5 49.5,39.5C 49.3284,40.4916 49.6618,41.1583 50.5,41.5C 50.5,43.1667 50.5,44.8333 50.5,46.5C 48.2078,47.6861 45.8744,47.6861 43.5,46.5C 43.5,46.1667 43.5,45.8333 43.5,45.5C 47.314,45.3491 48.9807,43.3491 48.5,39.5 Z"/></g>
<g><path style="opacity:1" fill="#f6be11" d="M 56.5,41.5 C 57.1667,41.1667 57.8333,40.8333 58.5,40.5C 58.6882,42.1033 58.1882,43.4366 57,44.5C 56.6667,43.8333 56.3333,43.1667 56,42.5C 55.3021,43.6906 54.4687,44.6906 53.5,45.5C 52.609,46.1098 51.609,46.4431 50.5,46.5C 50.5,44.8333 50.5,43.1667 50.5,41.5C 52.0833,42.6266 54.0833,42.6266 56.5,41.5 Z"/></g>
<g><path style="opacity:1" fill="#f4b90b" d="M 12.5,44.5 C 14.1172,45.038 15.7839,45.3713 17.5,45.5C 17.5,45.8333 17.5,46.1667 17.5,46.5C 16.8902,47.391 16.5569,48.391 16.5,49.5C 14.9519,49.8212 14.2852,50.8212 14.5,52.5C 13.609,51.8902 12.609,51.5569 11.5,51.5C 12.77,49.4523 13.1033,47.4523 12.5,45.5C 12.5,45.1667 12.5,44.8333 12.5,44.5 Z"/></g>
<g><path style="opacity:1" fill="#f8c006" d="M 3.5,36.5 C 3.21478,38.288 3.54811,39.9547 4.5,41.5C 5.08605,41.2907 5.58605,40.9574 6,40.5C 6.53963,42.1346 6.03963,43.4679 4.5,44.5C 4.84569,45.6956 5.34569,45.6956 6,44.5C 6.37424,45.4162 6.87424,46.2496 7.5,47C 6.434,48.159 6.76733,48.9924 8.5,49.5C 7.83333,50.1667 7.16667,50.8333 6.5,51.5C 3.30414,46.8547 2.30414,41.8547 3.5,36.5 Z"/></g>
<g><path style="opacity:1" fill="#f8c108" d="M 12.5,45.5 C 13.1033,47.4523 12.77,49.4523 11.5,51.5C 10.7777,50.4489 9.77765,49.7822 8.5,49.5C 8.23798,48.0222 8.57131,46.6888 9.5,45.5C 10.5272,46.7914 11.5272,46.7914 12.5,45.5 Z"/></g>
<g><path style="opacity:1" fill="#b01614" d="M 43.5,46.5 C 45.8744,47.6861 48.2078,47.6861 50.5,46.5C 50.5,48.1667 50.5,49.8333 50.5,51.5C 49.6618,51.8417 49.3284,52.5084 49.5,53.5C 48.1798,55.4632 46.8465,57.4632 45.5,59.5C 44.2921,60.2341 42.9587,60.5674 41.5,60.5C 42.6506,56.2114 43.3173,51.5447 43.5,46.5 Z"/></g>
<g><path style="opacity:1" fill="#b82a13" d="M 38.5,45.5 C 39.8333,45.5 41.1667,45.5 42.5,45.5C 41.5038,50.3362 40.1705,55.3362 38.5,60.5C 37.5,60.5 36.5,60.5 35.5,60.5C 38.2273,55.965 39.2273,50.965 38.5,45.5 Z"/></g>
<g><path style="opacity:1" fill="#fbc809" d="M 53.5,45.5 C 53.2852,47.1788 53.9519,48.1788 55.5,48.5C 54.6016,49.1577 53.6016,49.8243 52.5,50.5C 53.8234,54.1609 53.1567,54.4943 50.5,51.5C 50.5,49.8333 50.5,48.1667 50.5,46.5C 51.609,46.4431 52.609,46.1098 53.5,45.5 Z"/></g>
<g><path style="opacity:1" fill="#fbce3d" d="M 59.5,37.5 C 59.81,40.7131 59.4767,43.7131 58.5,46.5C 57.5041,46.5858 56.6708,46.2524 56,45.5C 55.5172,46.448 55.3505,47.448 55.5,48.5C 53.9519,48.1788 53.2852,47.1788 53.5,45.5C 54.4687,44.6906 55.3021,43.6906 56,42.5C 56.3333,43.1667 56.6667,43.8333 57,44.5C 58.1882,43.4366 58.6882,42.1033 58.5,40.5C 58.2627,39.209 58.596,38.209 59.5,37.5 Z"/></g>
<g><path style="opacity:1" fill="#f1b312" d="M 16.5,49.5 C 17.7736,50.1894 17.7736,51.0228 16.5,52C 18.7562,53.4992 18.7562,55.1659 16.5,57C 16.7432,57.9021 17.0766,58.7354 17.5,59.5C 15.4471,59.5979 13.7804,58.9313 12.5,57.5C 13.3092,55.9724 13.9759,54.3057 14.5,52.5C 14.2852,50.8212 14.9519,49.8212 16.5,49.5 Z"/></g>
<g><path style="opacity:1" fill="#e79a15" d="M 17.5,46.5 C 17.5,46.1667 17.5,45.8333 17.5,45.5C 20.1667,45.5 22.8333,45.5 25.5,45.5C 25.6107,46.1174 25.944,46.6174 26.5,47C 24.2054,48.0616 23.5388,49.5616 24.5,51.5C 20.551,51.6932 20.551,52.1932 24.5,53C 23.552,53.4828 22.552,53.6495 21.5,53.5C 18.6591,52.3116 17.9924,50.3116 19.5,47.5C 19.0431,46.7025 18.3764,46.3691 17.5,46.5 Z"/></g>
<g><path style="opacity:1" fill="#d87714" d="M 25.5,45.5 C 26.8333,45.5 28.1667,45.5 29.5,45.5C 29.1719,48.6851 29.1719,52.0184 29.5,55.5C 27.9588,57.7936 26.6254,57.7936 25.5,55.5C 26.0016,54.2836 26.3349,53.1169 26.5,52C 25.9056,51.5357 25.2389,51.369 24.5,51.5C 23.5388,49.5616 24.2054,48.0616 26.5,47C 25.944,46.6174 25.6107,46.1174 25.5,45.5 Z"/></g>
<g><path style="opacity:1" fill="#f8c734" d="M 8.5,49.5 C 9.77765,49.7822 10.7777,50.4489 11.5,51.5C 12.609,51.5569 13.609,51.8902 14.5,52.5C 13.9759,54.3057 13.3092,55.9724 12.5,57.5C 10.1667,55.8333 8.16667,53.8333 6.5,51.5C 7.16667,50.8333 7.83333,50.1667 8.5,49.5 Z"/></g>
<g><path style="opacity:1" fill="#c54810" d="M 32.5,45.5 C 33.5,45.5 34.5,45.5 35.5,45.5C 36.4655,50.7087 36.1321,55.7087 34.5,60.5C 33.5,60.5 32.5,60.5 31.5,60.5C 32.9175,55.5183 33.2508,50.5183 32.5,45.5 Z"/></g>
<g><path style="opacity:1" fill="#bd3611" d="M 35.5,45.5 C 36.5,45.5 37.5,45.5 38.5,45.5C 39.2273,50.965 38.2273,55.965 35.5,60.5C 35.1667,60.5 34.8333,60.5 34.5,60.5C 36.1321,55.7087 36.4655,50.7087 35.5,45.5 Z"/></g>
<g><path style="opacity:1" fill="#fccd29" d="M 58.5,46.5 C 57.7539,50.3226 55.7539,53.3226 52.5,55.5C 51.5,54.8333 50.5,54.1667 49.5,53.5C 49.3284,52.5084 49.6618,51.8417 50.5,51.5C 53.1567,54.4943 53.8234,54.1609 52.5,50.5C 53.6016,49.8243 54.6016,49.1577 55.5,48.5C 55.3505,47.448 55.5172,46.448 56,45.5C 56.6708,46.2524 57.5041,46.5858 58.5,46.5 Z"/></g>
<g><path style="opacity:1" fill="#c9540e" d="M 30.5,45.5 C 31.1667,45.5 31.8333,45.5 32.5,45.5C 33.2508,50.5183 32.9175,55.5183 31.5,60.5C 30.5,60.5 29.5,60.5 28.5,60.5C 29.8695,58.9323 30.8695,57.099 31.5,55C 31.5231,52.2495 31.1897,49.0829 30.5,45.5 Z"/></g>
<g><path style="opacity:1" fill="#d16714" d="M 29.5,45.5 C 29.8333,45.5 30.1667,45.5 30.5,45.5C 31.1897,49.0829 31.5231,52.2495 31.5,55C 30.8695,57.099 29.8695,58.9323 28.5,60.5C 26.1667,60.5 23.8333,60.5 21.5,60.5C 21.8417,59.6618 22.5084,59.3284 23.5,59.5C 25.4352,58.8505 27.4352,58.5172 29.5,58.5C 29.5,57.5 29.5,56.5 29.5,55.5C 29.1719,52.0184 29.1719,48.6851 29.5,45.5 Z"/></g>
<g><path style="opacity:1" fill="#eca617" d="M 17.5,46.5 C 18.3764,46.3691 19.0431,46.7025 19.5,47.5C 17.9924,50.3116 18.6591,52.3116 21.5,53.5C 21.5,53.8333 21.5,54.1667 21.5,54.5C 19.0144,55.4616 19.0144,56.2949 21.5,57C 20.4293,57.8518 19.4293,58.6851 18.5,59.5C 18.1667,59.5 17.8333,59.5 17.5,59.5C 17.0766,58.7354 16.7432,57.9021 16.5,57C 18.7562,55.1659 18.7562,53.4992 16.5,52C 17.7736,51.0228 17.7736,50.1894 16.5,49.5C 16.5569,48.391 16.8902,47.391 17.5,46.5 Z"/></g>
<g><path style="opacity:0.921" fill="#b41e12" d="M 42.5,45.5 C 42.8333,45.5 43.1667,45.5 43.5,45.5C 43.5,45.8333 43.5,46.1667 43.5,46.5C 43.3173,51.5447 42.6506,56.2114 41.5,60.5C 40.5,60.5 39.5,60.5 38.5,60.5C 40.1705,55.3362 41.5038,50.3362 42.5,45.5 Z"/></g>
<g><path style="opacity:1" fill="#df8c2f" d="M 24.5,51.5 C 25.2389,51.369 25.9056,51.5357 26.5,52C 26.3349,53.1169 26.0016,54.2836 25.5,55.5C 26.6254,57.7936 27.9588,57.7936 29.5,55.5C 29.5,56.5 29.5,57.5 29.5,58.5C 27.4352,58.5172 25.4352,58.8505 23.5,59.5C 23.8799,57.302 23.2132,55.6354 21.5,54.5C 21.5,54.1667 21.5,53.8333 21.5,53.5C 22.552,53.6495 23.552,53.4828 24.5,53C 20.551,52.1932 20.551,51.6932 24.5,51.5 Z"/></g>
<g><path style="opacity:1" fill="#fbcb0b" d="M 49.5,53.5 C 50.5,54.1667 51.5,54.8333 52.5,55.5C 50.8791,57.942 48.5458,59.2753 45.5,59.5C 46.8465,57.4632 48.1798,55.4632 49.5,53.5 Z"/></g>
<g><path style="opacity:1" fill="#e4910f" d="M 21.5,54.5 C 23.2132,55.6354 23.8799,57.302 23.5,59.5C 22.5084,59.3284 21.8417,59.6618 21.5,60.5C 20.209,60.7373 19.209,60.404 18.5,59.5C 19.4293,58.6851 20.4293,57.8518 21.5,57C 19.0144,56.2949 19.0144,55.4616 21.5,54.5 Z"/></g>
</svg>
