<!-- by TradingView --><svg width="56" height="56" viewBox="0 0 56 56" xmlns="http://www.w3.org/2000/svg"><path fill="#1C2925" d="M0 0h56v56H0z"/><path d="M17.9 39h-4.74c-.85 0-1.41-.85-1.05-1.59l4.25-8.14A2.32 2.32 0 0 1 18.45 28h6.41c.25 0 .49.08.69.22l8.8 5.81-6.38-12.65-1 2.11c-.38.8-1.2 1.51-2.1 1.51h-4.24c-1.02 0-1.7-1.23-1.25-2.11l3.48-7c.27-.55.84-.89 1.46-.89h7.3c.62 0 1.18.34 1.45.88L43.88 37.4c.37.73-.18 1.59-1.04 1.59h-8.7c-.47 0-.92-.15-1.28-.42l-9.84-7.34-3.24 6.61A2.09 2.09 0 0 1 17.9 39Z" fill="#D7FE51"/></svg>