<?xml version="1.0" encoding="UTF-8"?>
<!DOCTYPE svg PUBLIC "-//W3C//DTD SVG 1.1//EN" "http://www.w3.org/Graphics/SVG/1.1/DTD/svg11.dtd">
<svg xmlns="http://www.w3.org/2000/svg" version="1.1" width="64px" height="64px" style="shape-rendering:geometricPrecision; text-rendering:geometricPrecision; image-rendering:optimizeQuality; fill-rule:evenodd; clip-rule:evenodd" xmlns:xlink="http://www.w3.org/1999/xlink">
<g><path style="opacity:0.993" fill="#000000" d="M 24.5,-0.5 C 28.8333,-0.5 33.1667,-0.5 37.5,-0.5C 51.1667,3.16667 59.8333,11.8333 63.5,25.5C 63.5,29.5 63.5,33.5 63.5,37.5C 59.8069,51.1932 51.1402,59.8598 37.5,63.5C 33.5,63.5 29.5,63.5 25.5,63.5C 11.8333,59.8333 3.16667,51.1667 -0.5,37.5C -0.5,33.1667 -0.5,28.8333 -0.5,24.5C 3.5,11.8333 11.8333,3.5 24.5,-0.5 Z"/></g>
<g><path style="opacity:1" fill="#fcfcfc" d="M 21.5,14.5 C 24.5,14.5 27.5,14.5 30.5,14.5C 30.5,15.8333 30.5,17.1667 30.5,18.5C 27.4816,18.6646 24.4816,18.498 21.5,18C 20.3157,16.8545 20.3157,15.6879 21.5,14.5 Z"/></g>
<g><path style="opacity:1" fill="#fbfbfb" d="M 39.5,17.5 C 42.1731,17.6845 42.8398,18.8511 41.5,21C 34.6558,23.7603 27.6558,25.9269 20.5,27.5C 20.5,26.5 20.5,25.5 20.5,24.5C 27.1275,22.7379 33.4608,20.4045 39.5,17.5 Z"/></g>
<g><path style="opacity:1" fill="#f8f8f8" d="M 37.5,26.5 C 39.288,26.2148 40.9547,26.5481 42.5,27.5C 42.2907,28.086 41.9574,28.586 41.5,29C 34.6678,32.0881 27.6678,34.5881 20.5,36.5C 20.281,35.325 20.6143,34.325 21.5,33.5C 27.1002,31.5315 32.4336,29.1982 37.5,26.5 Z"/></g>
<g><path style="opacity:1" fill="#fafafa" d="M 39.5,34.5 C 42.1731,34.6845 42.8398,35.8511 41.5,38C 36.1667,40 30.8333,42 25.5,44C 23.7412,44.7975 22.0745,44.6309 20.5,43.5C 26.5714,39.922 32.9047,36.922 39.5,34.5 Z"/></g>
<g><path style="opacity:1" fill="#fbfbfb" d="M 32.5,44.5 C 35.5184,44.3354 38.5184,44.502 41.5,45C 41.9574,45.414 42.2907,45.914 42.5,46.5C 39.2156,47.657 35.8823,47.8236 32.5,47C 31.4019,46.2303 31.4019,45.397 32.5,44.5 Z"/></g>
</svg>
