<!-- by TradingView --><svg width="56" height="56" viewBox="0 0 56 56" xmlns="http://www.w3.org/2000/svg"><path fill="#001B39" d="M0 0h56v56H0z"/><path d="M35.02 12.5a.51.51 0 0 0-.03.32c.03.1.1.15.2.15l.5.01.07.22a.99.99 0 0 0-.38.24.22.22 0 0 0-.06.22l.15.54c.01.06 0 .08-.06.04l-.54-.3a.2.2 0 0 0-.23.01l-.39.31c-.14.11-.18.09-.12-.09l.2-.53c.04-.1.01-.18-.08-.23l-.43-.25c-.14-.08-.13-.14.04-.16.14-.03.3-.03.47 0 .1 0 .17-.03.21-.13l.22-.53h.09l.07.01c.03.02.05.03.06.06.02.02.03.06.04.1Z" fill="#FCFBEF"/><path d="M21.16 12.57c0 .31.25.44.72.39.25-.03.28.03.07.18l-.43.32c-.08.07-.1.15-.04.24.1.13.16.29.19.46.01.1-.02.12-.1.07l-.52-.3c-.09-.05-.16-.05-.21 0l-.27.22c-.29.24-.36.19-.2-.16l.12-.3c.04-.1.02-.18-.07-.25l-.4-.28a.63.63 0 0 1 .3-.19c.23.09.41-.06.54-.45l.3.05Z" fill="#F3F5F4"/><path d="m35.69 12.98-.5-.01c-.1 0-.17-.05-.2-.15a.51.51 0 0 1 .03-.31c.38.07.6.23.67.47Z" fill="#001B39"/><path d="m38.23 14.42-1.29-.02c-.07-.34-.06-.63.03-.86l1.26.88Z" fill="#C31319"/><path d="M23.78 15.17c-.18.29-.51.47-1.01.56l-.67-.48c-.03-.03-.04-.06-.02-.1l.05-.06h.04c.57.2.88.01.9-.56 0-.06.04-.1.1-.1h.08c.02 0 .03.02.04.05.05.17.08.35.1.52.02.11.09.16.2.17h.19Z" fill="#F3F5F4"/><path d="M31.7 16.2c.01.05.03.1.06.12.02.04.06.05.1.05.06 0 .1 0 .16-.02 4.77 4.28 3.75 7.74 4.8 14.13l.27 2.23.17 2.59a.26.26 0 0 1-.47.17c-.07-.1-.16-.2-.27-.27a.22.22 0 0 0-.26 0 .84.84 0 0 0-.36.51c-.46.13-.9.17-1.33.1a5.23 5.23 0 0 0-.82-.07c-.28 0-.56.02-.83.03a.26.26 0 0 0-.21.13.25.25 0 0 0 0 .25c.14.22.32.37.56.46a23.9 23.9 0 0 1 4.58 2.13c.8.6 1.28 1.26 1.46 1.98a.45.45 0 0 1-.33.3 2.85 2.85 0 0 0-.8-1.42 12.65 12.65 0 0 0-5-2.38l-.22.03a3.2 3.2 0 0 0-2.78-1.8c.08-4.21-3.18-1.45-7.6.92l-.76.88a5.98 5.98 0 0 0-.03-.1c-2.06 1.04-4.24 1.48-5.52 3.13-.11 0-.22-.1-.32-.3.1-.26.2-.43.33-.53.3-.24.54-.47.7-.69 1.4-.8 2.9-1.49 4.48-2.03.15-.05.25-.12.3-.2.06-.15.03-.2-.13-.16a.86.86 0 0 1-.61-.06c-.1-.05-.18-.04-.25.04l-.29.29a.3.3 0 0 1-.25.08l-1.06-.15a.26.26 0 0 1-.22-.16l-.12-.3c-.06-.1-.13-.08-.2.07l-.15.35c-.04.09-.1.14-.2.16-.14.03-.23-.04-.3-.2a9.4 9.4 0 0 1-.23-.76V32.7c.12-4.5.24-8.03.79-12.32a2 2 0 0 0 .31-.89c2-2.61 1.24-2.01 3.92-3.75.5-.09.83-.27 1-.56.51-.07 1.05-.19 1.61-.37 2.27-.7 4.23.1 6.32 1.4Z" fill="#07D6D7"/><path d="M32.02 16.35a.51.51 0 0 1-.15.02c-.05 0-.09-.01-.11-.05a.26.26 0 0 1-.06-.12.67.67 0 0 0 .18-.44.24.24 0 0 0-.03-.12.25.25 0 0 0-.1-.1 1.88 1.88 0 0 1-.33-.2c-.17-.14-.15-.2.07-.2h.5c.1 0 .15-.05.18-.14l.11-.46c.07-.25.13-.26.2 0l.14.5a.14.14 0 0 0 .13.1h.69c.12 0 .13.03.03.1l-.49.32a.2.2 0 0 0-.09.23l.15.57c.03.12-.01.14-.12.07l-.36-.32c-.19-.17-.37-.09-.54.24Z" fill="#F3F5F4"/><path d="m36.94 14.4 1.3.02c1.2.84 2.24 1.85 3.13 3.04l-4.3-.04c-.02.03-.05.04-.08.04-.04-.02-.06-.05-.06-.1l.01-2.96Z" fill="#FCFBEF"/><path d="M36.32 31.42a8.96 8.96 0 0 0-.44 3.09c0 .48-.18.74-.56.8-.6-.95-.39-1.77-.46-2.76-.05-.82-.01-1.63.1-2.44a.6.6 0 0 0-.01-.33c-.06-.11-.16-.17-.3-.18a.23.23 0 0 1-.23-.16c-.17-.45-.06-.8.31-1.03a.28.28 0 0 0 .14-.22l.04-.44c.03-.32.12-.35.28-.08.06.1.09.32.08.64 0 .06.03.1.08.12l.07.04c.05.02.06.06.05.1-.15.37-.4.57-.73.59a.1.1 0 0 0-.1.1.1.1 0 0 0 .02.04l.04.09c0 .02.02.02.04.02.44-.06.75-.3.93-.68a.4.4 0 0 0 .02-.28 7.67 7.67 0 0 0-.6-1.49c-.62-1.15-.7-2.12-.88-3.27 0-.03-.02-.05-.05-.05h-.09a.04.04 0 0 0-.03.02.04.04 0 0 0-.01.03l.1 4.2c0 .2.08.23.2.08l.25-.08c.06-.02.1 0 .12.07l.02.08c.02.06 0 .11-.06.14-.1.06-.21.1-.33.12a.2.2 0 0 0-.17.2l.1 3.6-.02 2.57c.07.3-.2.53-.8.66a5.19 5.19 0 0 1-.61-2.38c0-.06-.04-.1-.1-.11-.1-.03-.15 0-.14.12.05.58.06 1.05 0 1.38-.02.18-.05.18-.1.01a3.62 3.62 0 0 1-.18-1.37c.07-.65.08-1.21.03-1.68.03-.37 0-.5-.07-.4L32 28.62c.32-.12.45-.36.37-.72a.1.1 0 0 0-.2-.04c-.13.2-.32.36-.55.45-.17.01-.25-.03-.24-.13.4-.65.44-1.13.1-1.43-.08-.19-.07-.32.05-.38a.12.12 0 0 1 .1-.02l.56.12c.1.02.15-.01.18-.1.05-.15-.03-.3-.24-.49l-.24-.03c-.14-.02-.15-.07-.03-.15.44-.31.5-.73.2-1.26l.13-.02c.05-.01.07-.04.08-.1a.1.1 0 0 0-.01-.07.1.1 0 0 0-.1-.06h-.34c.34-.08.64-.24.92-.47.07-.06.11-.04.12.05.11 1.4.12 2.45.41 4.08.02.1.07.14.17.15h.07c.1-.02.16-.08.18-.18.48-2.58-.06-5.59-.27-7.71-.06-.68-.24-1.15-.52-1.42a8.82 8.82 0 0 0-2.43-1.76c-.93-.4-1-.27-.23.37a5.5 5.5 0 0 1 2.13 4.57 39 39 0 0 1-.05 1.8l-1.87-2.36.14-2.63c0-.04.02-.07.06-.08.08-.02.08-.1-.01-.23l-.02-.03-2.37-1.1c-.18-.07-.21-.04-.1.12.17.24.42.49.74.76.11.1.1.12-.04.09-1.57-.4-2.83-.56-4.33.16-.35.17-.4.1-.16-.2l.36-.42c.24-.3.2-.36-.14-.18l-1.63.87a.46.46 0 0 0-.24.46c.1.76.05 1.57-.19 2.42 0 .04 0 .06.03.09.03.01.05.03.08.03.07.02.12 0 .15-.07.22-.46.43-.86.63-1.2.12-.2.16-.19.12.05l-.24 1.26-1.75 2.34c-.49-1.8-.63-3.78.63-5.35.34-.42.66-.84.96-1.26.04-.05.05-.11.03-.17a.17.17 0 0 0-.08-.1.13.13 0 0 0-.14 0c-.4.26-1.03.8-1.88 1.6a3.6 3.6 0 0 0-1.13 3.64c.08.34.04.95-.13 1.81-.3 1.05-.42 2.08-.39 3.1 0 .1-.02.2-.08.28a3.11 3.11 0 0 0-.54 2.4c.03.14.1.24.23.33.3.21.38.27.47.68.1.5.23.98.38 1.46l.3 3.3c-.23.45-.43.65-.6.58l-.34-.32-.54-3.22a.1.1 0 0 0-.02-.05l-.07-.07a.1.1 0 0 0-.1-.02.1.1 0 0 0-.06.07c-.1.44-.1.73-.03.9.36.7.53 1.42.52 2.14-.38.06-.58-.02-.61-.25-.13-.99-.14-2.34-.08-3.57.14-2.99.22-5.02.22-6.08 0-.46.04-.97.1-1.54.1-.84.05-1.68.31-2.48.07-.13.08-.3.04-.5.13-.96.62-1.9 1.48-2.83a9.84 9.84 0 0 1 3.15-2.42c3.36-1.45 6.82-.54 9.47 2 .57.56.97 1.1 1.2 1.61.39.9.74 2.38 1.07 4.48.38 2.45.64 4 .76 4.67.12.6.2 1.53.28 2.78Z" fill="#ECE9E3"/><path d="m34.4 18.44-.2-.13c.24-.37.1-.65-.4-.83-.05-.02-.07-.06-.05-.12a.1.1 0 0 1 .05-.05h.53c.1 0 .17-.04.22-.13l.25-.54c.04-.09.07-.09.1 0l.14.54c.02.08.08.13.17.13h.54c.14 0 .16.04.04.13l-.41.31a.18.18 0 0 0-.07.2l.16.57c.03.13 0 .16-.11.07l-.37-.3a.27.27 0 0 0-.26-.06.76.76 0 0 0-.33.2Z" fill="#F3F5F4"/><path d="M31.82 24.2c-.6-.19-2.24-.47-2.75.02-.28.28-.23.38.16.3.88-.18 1.83-.2 2.84-.08.3.53.23.95-.21 1.26-.12.08-.11.13.03.15l.24.03a2.73 2.73 0 0 0-.92.02c-1.57-.21-2.38.24-2.45 1.37.14.17.26.21.34.13.19-.18.3-.14.33.12.01.14.08.34.2.58.57.59 1.15.61 1.75.08 0 .1.07.14.24.13-.26.02-.42.1-.5.23a.18.18 0 0 0 .16.26c.24-.01.48-.07.72-.18l.27 2.28a15.15 15.15 0 0 1-4.65 3.04.4.4 0 0 1-.27.02 18.11 18.11 0 0 1-4.48-2c-.1-.07-.27-.26-.53-.57a4.6 4.6 0 0 0-.17-.63 1.52 1.52 0 0 1-.1-.64c.03-.36.13-.67.3-.95.35.1.69.11 1 .05.75.05 1.1-.12 1.03-.52.25-.3.4-.64.43-1.04.84 0 .85-.39.06-1.14-.35-.33-.96-.38-1.83-.16-.2-.05-.47-.06-.8-.01-.32-.25-.53-.6-.65-1.04-.03-.12-.02-.2.04-.26.07-.05.18-.07.32-.06.94-.18 1.73-.25 2.37-.23.73.03.77-.1.1-.42-.1-.05-.31-.07-.65-.07-.39 0-1.09.2-2.09.57l-.14-.59a26.46 26.46 0 0 1 4.58-5.53.64.64 0 0 1 .8-.05c1.9 1.34 3.7 3 5.38 5 .03-.66.05-1.26.05-1.8a5.5 5.5 0 0 0-2.13-4.57c-.77-.64-.7-.76.23-.37.7.3 1.5.88 2.43 1.76.28.27.46.74.52 1.42.2 2.12.75 5.13.27 7.7-.02.1-.08.17-.18.18h-.07c-.1 0-.15-.05-.17-.14-.29-1.63-.3-2.69-.41-4.08-.01-.09-.05-.1-.12-.05a2.3 2.3 0 0 1-.92.47Z" fill="#FCFBEF"/><path d="M21.54 23.82c-.16.21-.15.36.02.43l.14.59c-.12.09-.04.14.27.15-.14-.01-.25.01-.32.06-.06.05-.07.14-.04.26.12.44.33.79.65 1.04-.26-.07-.45.04-.57.33-.07.17-.07.32.01.45l.01.76-.42.53a.33.33 0 0 0-.08.25c.05.3.02.55-.07.73-.14.27-.25.26-.34-.03l-.78-2.4L19.8 24c.17-.86.21-1.47.13-1.8a3.6 3.6 0 0 1 1.13-3.65c.85-.8 1.47-1.34 1.88-1.6a.13.13 0 0 1 .14 0c.04.02.07.05.08.1.02.06.01.12-.03.17-.3.42-.62.84-.96 1.26-1.26 1.57-1.12 3.54-.63 5.35Z" fill="#F3F5F4"/><path d="m30.45 21.31-3.56-3.03a.47.47 0 0 0-.65.04l-2.95 3.16.24-1.26c.04-.24 0-.25-.12-.05-.2.34-.41.74-.63 1.2-.03.07-.08.09-.15.07a.22.22 0 0 1-.08-.03c-.03-.03-.04-.06-.03-.1.24-.84.3-1.65.19-2.4a.46.46 0 0 1 .24-.47l1.63-.87c.34-.18.38-.12.14.18l-.36.43c-.24.3-.19.36.16.2 1.5-.73 2.77-.58 4.33-.17.14.03.15 0 .04-.09a4.44 4.44 0 0 1-.74-.76c-.11-.16-.08-.2.1-.11l2.36 1.1c.01 0 .02 0 .03.02.09.13.1.21.01.23-.04.01-.06.04-.06.08l-.14 2.63Z" fill="#FCFBEF"/><path d="M41.37 17.46c.77.89 1.4 1.89 1.9 3l-1 .01c-.07.01-.19-.03-.34-.12-.16-.17-.3-.36-.4-.56-.28-.5-.54-.71-1.1-.63a.44.44 0 0 0-.25.12l-.84.81c.05.01.03.03-.04.06-.21.2-.43.31-.65.35l-1.7-.01c-.06-1.03-.2-2.35.11-3.07l4.3.04Z" fill="#C31319"/><path d="m30.45 21.31 1.87 2.36a29.12 29.12 0 0 0-5.37-5 .64.64 0 0 0-.8.05 26.46 26.46 0 0 0-4.6 5.53c-.16-.07-.17-.22 0-.43l1.74-2.34 2.95-3.16a.48.48 0 0 1 .65-.04l3.56 3.03Z" fill="#BBBFBA"/><path d="M13.12 19.73c.02-.18.1-.29.24-.32.08.05.15.07.2.07.1 0 .17-.04.18-.14l.12-.7c.14.2.25.43.32.7.03.1.1.14.2.14h.54c.12 0 .14.05.06.14a1 1 0 0 1-.34.2.29.29 0 0 0-.14.15.28.28 0 0 0-.02.2l.16.58c.01.05 0 .07-.06.04l-.58-.34c-.08-.05-.16-.04-.23.03l-.33.3c-.14.13-.19.1-.15-.08l.1-.31c.05-.15.07-.25.06-.31-.03-.13-.14-.25-.33-.35ZM18.85 19.48a2 2 0 0 1-.31.89l-.54.38c-.16.12-.2.1-.12-.1l.21-.45a.2.2 0 0 0-.07-.25l-.5-.33c-.14-.1-.12-.14.04-.14h.6c.02 0 .05 0 .07-.02a.12.12 0 0 0 .04-.05l.27-.58c.04-.08.07-.08.1 0l.21.65Z" fill="#F3F5F4"/><path d="M41.93 20.35a1 1 0 0 0-.39.06l-.14-.11a.3.3 0 0 1-.12-.25c0-.36-.24-.58-.72-.68a.32.32 0 0 0-.39.32v.12c0 .12-.06.19-.18.2l-.65.08.84-.8c.07-.07.16-.11.25-.13.56-.08.82.13 1.1.63.1.2.24.39.4.56Z" fill="#3D3938"/><path d="m41.54 20.4.3.1c.1.04.14.1.12.21-.06.36-.29.55-.67.58-.09 0-.15.05-.2.13l-.13.3a.3.3 0 0 1-.18.16c-.58.2-.68-.34-.98-.64a.56.56 0 0 0-.24-.14c-.12-.04-.2-.1-.25-.17-.11-.2.03-.53-.01-.78.07-.03.09-.05.04-.06l.65-.08c.12-.01.18-.08.18-.2v-.12a.32.32 0 0 1 .39-.32c.48.1.72.32.72.68 0 .1.04.19.12.25l.14.1Z" fill="#FCFBEF"/><path d="M39.3 20.15c.04.25-.1.59.01.78.05.07.13.13.25.17.1.02.17.07.24.14.3.3.4.83.98.64a.3.3 0 0 0 .18-.17l.14-.29c.04-.08.1-.13.2-.13.37-.03.6-.22.66-.58.02-.1-.02-.17-.12-.2l-.3-.1a1 1 0 0 1 .4-.06c.14.1.26.13.33.12-.11.56-.4.91-.86 1.05a.36.36 0 0 0-.2.17c-.18.32-.46.45-.85.39a.36.36 0 0 1-.22-.13c-.25-.3-.55-.53-.9-.7a.28.28 0 0 1-.18-.24c-.03-.31-.17-.48-.4-.5.21-.05.43-.16.64-.36Z" fill="#52DBB2"/><path d="m36.95 20.49 1.7.01c.25.03.38.2.42.51 0 .11.06.2.16.24.36.17.66.4.91.7.06.07.13.11.22.13.4.06.67-.07.84-.4a.34.34 0 0 1 .2-.16c.47-.14.76-.49.87-1.05l1-.02c.54 1 .93 2.02 1.18 3.1l-6-.01c.12-.26.14-.53.05-.82l.6-.48a.2.2 0 0 0 .07-.24c-.05-.11-.14-.16-.28-.14l-.46.24a.5.5 0 0 1-.27.06c-.28-.02-.48.09-.6.32-.03-.09-.14-.06-.32.08l-.31.02.02-2.09Z" fill="#FCFBEF"/><path d="M18.9 21.12c.05.2.04.38-.03.5-.06-.14-.05-.3.04-.5Z" fill="#BBBFBA"/><path d="m11.89 22.53.33-.93c.21-.03.4-.03.54.02.12.04.12.09.02.16l-.38.26a.23.23 0 0 0-.1.27l.12.44c.03.11 0 .15-.11.1a.98.98 0 0 1-.42-.32Z" fill="#F3F5F4"/><path d="M38.5 22.72c.38-.47.07-.55-.93-.24.1-.23.3-.34.6-.32.09 0 .18-.01.26-.06l.46-.24c.14-.02.23.03.28.14a.2.2 0 0 1-.06.24l-.6.48Z" fill="#52DBB2"/><path d="M38.5 22.72c.09.3.07.56-.06.82h-1.43c-.1 0-.16.05-.2.13l-.05.09c-.13.12-.24.12-.32-.01a.13.13 0 0 1-.02-.07l.01-.07.5-1.03.31-.02.5.61c.04.04.08.07.12.08h.18c.1-.03.14-.08.07-.18a.88.88 0 0 0-.41-.37.14.14 0 0 1-.1-.12c0-.07-.01-.1-.03-.1 1-.31 1.3-.23.93.24Z" fill="#ECE9E3"/><path d="M37.57 22.48c.02 0 .03.03.04.1 0 .06.03.1.09.12.16.07.3.19.41.37.06.1.04.15-.08.18a.42.42 0 0 1-.17 0 .24.24 0 0 1-.12-.08l-.5-.6c.18-.15.29-.18.33-.1Z" fill="#52DBB2"/><path d="M38.44 23.54h6c.32.94.5 1.87.52 2.8 0 .11-.05.18-.14.21a.77.77 0 0 1-.36.03h-7.5c-.09-.87-.08-1.76.01-2.64.01-.08-.06-.14-.21-.18l.05-.09a.21.21 0 0 1 .2-.12l1.43-.01Z" fill="#C31319"/><path d="M34.86 32.55c0-.21-.03-.4-.1-.58 0-.02-.02-.02-.04 0a.06.06 0 0 0-.02.04v.01h-.01l-.01.01h-.01l-.01-.01a.07.07 0 0 1-.02-.05l-.01-.16c-.02-.11-.08-.14-.17-.08-.12.07-.2.2-.2.37l-.1-3.6a.2.2 0 0 1 .17-.2.98.98 0 0 0 .33-.12c.06-.03.08-.08.06-.14l-.02-.08c-.02-.06-.06-.09-.12-.07l-.24.08c-.13.15-.2.12-.2-.07l-.11-4.21a.04.04 0 0 1 .04-.05h.09c.03 0 .04.02.05.05.18 1.15.26 2.12.89 3.27.23.42.42.92.6 1.49a.4.4 0 0 1-.03.28c-.18.39-.5.62-.93.68-.02 0-.03 0-.04-.02l-.04-.1a.1.1 0 0 1 0-.08.1.1 0 0 1 .08-.05c.34-.02.58-.22.73-.59.01-.04 0-.08-.05-.1l-.07-.04a.12.12 0 0 1-.08-.12c0-.32-.02-.53-.08-.64-.16-.27-.25-.24-.28.08l-.04.44a.28.28 0 0 1-.14.22c-.37.24-.48.58-.3 1.03.03.1.1.15.21.16.15 0 .25.07.3.18a.6.6 0 0 1 .03.33c-.12.81-.16 1.62-.1 2.44ZM19.8 24l.22 2.97.36 4.5-.51.77c-.15-.48-.28-.96-.38-1.46-.09-.41-.16-.47-.47-.68a.55.55 0 0 1-.23-.33c-.21-.79.08-1.72.54-2.4a.45.45 0 0 0 .08-.28c-.03-1.02.1-2.05.4-3.1Z" fill="#B7CD95"/><path d="m31.82 24.2.34-.01a.1.1 0 0 1 .1.06.1.1 0 0 1 .01.08c0 .05-.03.08-.08.09l-.12.02c-1-.12-1.96-.1-2.84.08-.39.08-.44-.02-.16-.3.51-.49 2.15-.21 2.75-.03ZM21.97 24.99c-.3-.01-.4-.06-.27-.15 1-.38 1.7-.57 2.1-.57.33 0 .55.02.65.07.66.31.62.45-.1.42-.65-.02-1.44.05-2.38.23Z" fill="#9E9E9E"/><path d="M11.26 27.21a.43.43 0 0 1-.17-.24c.27-.28.3-.48.09-.6-.05-.08-.06-.22-.04-.4.3 0 .48-.21.54-.61.05-.36.12-.36.22-.02l.12.47c.03.1.1.15.2.15h.47c.2 0 .22.05.05.16l-.38.25c-.07.05-.1.1-.07.18l.15.57c.03.09 0 .12-.1.1a.23.23 0 0 1-.11-.1c-.3-.37-.62-.34-.97.1Z" fill="#FCFBEF"/><path d="M31.2 25.9c-.98.11-1.8.57-2.44 1.37.07-1.13.88-1.58 2.45-1.37Z" fill="#BBBFBA"/><path d="M32.13 25.88c.2.18.29.34.24.49-.03.09-.09.12-.18.1l-.57-.12a.13.13 0 0 0-.1.02c-.1.06-.12.2-.03.38 0 .13-.04.2-.13.18a1.2 1.2 0 0 0-.4-.5.25.25 0 0 0-.27-.03l-.93.41c-.12.06-.18.15-.15.28l.13.88a.46.46 0 0 0-.1.13c-.13-.24-.2-.44-.21-.58-.03-.26-.14-.3-.33-.12-.08.08-.2.04-.34-.13a3.55 3.55 0 0 1 2.45-1.37c.28-.06.59-.06.92-.02Z" fill="#3D3938"/><path d="M24.83 27.66c.41-.12.56-.23.43-.35a3.56 3.56 0 0 0-2.2-.95c.87-.22 1.48-.17 1.83.16.8.75.78 1.13-.06 1.14Z" fill="#BBBFBA"/><path d="M22.26 26.35c.33-.05.6-.04.8 0 .87.08 1.6.4 2.2.96.13.12-.02.23-.43.35-.04.4-.18.75-.43 1.04l-.6.2a.3.3 0 0 1-.25-.03c-.61-.35-1.17-.42-1-1.34l.08-.49c0-.11-.04-.15-.14-.12l-.7.22-.09-.01c-.08-.13-.08-.28-.01-.45.12-.3.3-.4.57-.33Z" fill="#3D3938"/><path d="M31.36 26.93a1 1 0 0 1-.1.9.82.82 0 0 1-.67.43 1.1 1.1 0 0 1-.85-.29l-.13-.88c-.03-.13.03-.22.15-.28l.93-.4c.1-.05.18-.04.26.01.17.11.3.28.41.51Z" fill="#04ABED"/><path d="M39.4 26.58h5.43c.11 0 .17.05.17.16v2.9h-8.03l-.01-3.05h2.43Z" fill="#FCFBEF"/><path d="M31.38 28.18c-.6.53-1.18.5-1.74-.08a.46.46 0 0 1 .1-.13c.25.22.53.32.85.3.28-.03.5-.17.66-.44a1 1 0 0 0 .11-.9c.1.01.14-.05.13-.18.33.3.3.78-.1 1.43Z" fill="#9E9E9E"/><path d="M24.4 28.7c.07.4-.28.57-1.03.52a.82.82 0 0 0-.66-.38.8.8 0 0 1-.74-.67l-.18-1.03.7-.22c.1-.03.15 0 .14.12l-.08.49c-.17.92.39.99 1 1.34a.3.3 0 0 0 .25.02l.6-.19ZM21.71 27.89c.07.28.12.56.16.85.04.27.2.41.5.43-.17.28-.27.6-.3.95-.03.17 0 .39.1.64.07.2.13.41.17.63-.14.01-.16.15-.06.42l-.3 2.42-.07 1.56c-.15.22-.4.26-.75.12a.93.93 0 0 1-.39-.41.26.26 0 0 1 0-.25c.05-.1.07-.23.05-.39l-.44-3.4-.36-4.49.78 2.4c.09.29.2.3.34.03.1-.18.12-.42.07-.73a.33.33 0 0 1 .08-.25l.42-.53Z" fill="#ECE9E3"/><path d="m21.8 27.14.17 1.03a.81.81 0 0 0 .74.67c.28.02.5.14.66.38a2.1 2.1 0 0 1-1-.05c-.3-.02-.46-.16-.5-.43-.04-.29-.1-.57-.16-.85v-.76l.08.01ZM32 28.62c-.24.1-.48.17-.72.18a.18.18 0 0 1-.16-.26c.08-.14.24-.21.5-.23.23-.09.42-.24.56-.45a.1.1 0 0 1 .19.04c.08.36-.05.6-.37.72Z" fill="#9E9E9E"/><path d="M11.35 31.42c.01-.41-.06-.8-.22-1.17.38 0 .56-.22.56-.67 0-.04.02-.06.06-.07.03 0 .06 0 .08.02a7.66 7.66 0 0 0 .18.59c.04.09.1.13.2.13h.53a.11.11 0 0 1 .11.1.11.11 0 0 1-.06.12l-.44.2c-.08.03-.1.1-.08.2l.17.6c.03.1 0 .14-.1.09-.11-.06-.22-.15-.33-.3a.22.22 0 0 0-.26-.08c-.12.04-.26.12-.4.24Z" fill="#FCFBEF"/><path d="m45 29.63-.6 3.08h-3.64c-.03 0-.09.01-.17.06.1-.45.07-.75-.1-.9-.2-.03-.34.06-.43.26-.1.2-.3.39-.6.55l-2.37.03-.27-2.23c.15-.25.2-.53.15-.83l8.03-.02Z" fill="#C31319"/><path d="m32.34 31.3-2.6 1.8a.52.52 0 0 0-.22.4l-.1 1.65c.08.16.09.31.01.45a.1.1 0 0 1-.14.03.1.1 0 0 1-.04-.04c-.25-.76.06-1.24.02-1.97a.1.1 0 0 0-.15-.1l-1.66.74c-.1.04-.2.04-.3 0l-1.3-.61a.15.15 0 0 0-.23.16c.1.52.05.99-.13 1.4l-.07-1.47a.43.43 0 0 0-.22-.35l-2.74-1.5a.31.31 0 0 0-.19-.08c-.1-.27-.08-.4.06-.42.26.31.44.5.53.56 1.4.87 2.89 1.54 4.48 2 .1.04.19.03.27 0a15.15 15.15 0 0 0 4.65-3.05c.07-.1.1.03.07.4Z" fill="#9E9E9E"/><path d="M32.34 31.3c.05.47.04 1.03-.03 1.68-.04.38.02.84.18 1.37.05.17.08.17.1 0 .06-.34.05-.8 0-1.4 0-.1.04-.14.14-.11.06.01.1.05.1.1.03.92.23 1.72.6 2.4-.13.05-.27-.05-.41-.3-.06-.09-.13-.11-.22-.06-.11.05-.17.15-.19.31a.08.08 0 0 1-.1.07c-.06-.02-.1-.06-.11-.13a.17.17 0 0 0-.06-.1.17.17 0 0 0-.1-.04c-.46 0-.84.04-1.14.13a.58.58 0 0 1-.28.03 1.37 1.37 0 0 0-.64.03.77.77 0 0 1-.76-.13l.1-1.66a.51.51 0 0 1 .22-.4l2.6-1.8ZM20.38 31.46l.44 3.4c.02.16 0 .3-.05.39a.26.26 0 0 0 0 .25c.08.17.21.3.4.41-.17.03-.32-.03-.46-.2-.07-.07-.14-.09-.24-.05-.1.06-.2.21-.26.47a.9.9 0 0 1-.03-.6l-.31-3.29.5-.78Z" fill="#52DBB2"/><path d="M36.31 31.42c.17.37.2.65.08.82a6.04 6.04 0 0 0-.37 2.26h-.14c-.04-1.01.1-2.04.43-3.08Z" fill="#9E9E9E"/><path d="M34.86 32.55c.07.99-.15 1.81.46 2.76-.06.07-.12.1-.2.1-.1 0-.16-.04-.2-.14-.23-.73-.46-.93-.68-.6l.02-2.57c0-.17.08-.3.2-.37.1-.06.15-.03.17.08a.76.76 0 0 1 .01.18.07.07 0 0 0 .03.04h.02V32l.03-.04c.02-.02.03-.02.04 0 .07.18.1.37.1.58Z" fill="#52DBB2"/><path d="M22.47 31.9c-.07.08-.1.15-.1.21a12 12 0 0 1 .07 3.08.25.25 0 0 1-.06.05c-.06.03-.09.02-.1-.05a2.77 2.77 0 0 0-.3-.96l.3-2.42c.08 0 .14.03.2.08Z" fill="#BBBFBA"/><path d="m22.47 31.9 2.74 1.49a.43.43 0 0 1 .22.35l.07 1.48c-.72-.01-1.3.13-1.77.43-.5.16-.87.4-1.14.72a.97.97 0 0 0-.1-.52c-.04-.09-.11-.13-.21-.11l-.37.05.06-1.56c.16.3.26.62.31.96.01.07.04.08.1.05a.25.25 0 0 0 .06-.05 11.98 11.98 0 0 0-.07-3.08c0-.06.03-.13.1-.22Z" fill="#52DBB2"/><path d="M40.49 31.86c-.21.4-.45.7-.72.9a.41.41 0 0 0-.25 0 2.38 2.38 0 0 0-.06-.08c.3-.16.5-.35.6-.55.1-.2.24-.29.43-.27Z" fill="#3D3938"/><path d="M40.6 32.77c.03.25.1.47.2.64.09.13.06.24-.06.32-.25.17-.38.32-.41.44-.02.08 0 .1.07.05.24-.16.44-.36.59-.6a.22.22 0 0 0 0-.25c-.12-.21-.2-.43-.23-.66h3.64l-1.21 3.01H35.9c.04-.2.16-.38.36-.52a.22.22 0 0 1 .26 0c.1.08.2.17.27.27a.26.26 0 0 0 .47-.17l-.17-2.6 2.37-.02.06.08-.13.33c-.04.1-.02.18.04.26.3.35.37.77.22 1.25 0 .03.01.04.05.06.04.01.06.01.07 0 .17-.53.12-.99-.14-1.36a.25.25 0 0 1-.03-.26 1 1 0 0 1 .17-.27c.27-.21.5-.51.72-.9.17.15.2.46.1.9Z" fill="#FCFBEF"/><path d="M36.39 32.24c.34.5.17 1.39.25 2 .01.1-.02.17-.1.23-.15.1-.32.1-.52.03-.01-.82.11-1.58.37-2.26Z" fill="#F3F5F4"/><path d="m19.23 35.8-.3-.25a4.63 4.63 0 0 0-.52-2.15c-.07-.16-.07-.45.03-.9a.1.1 0 0 1 .06-.06.1.1 0 0 1 .1.02l.07.07a.1.1 0 0 1 .02.05l.54 3.22Z" fill="#9E9E9E"/><path d="M17.75 32.69v3.04h-4.9c-.53-.95-.91-1.96-1.16-3.03l6.06-.01Z" fill="#FCFBEF"/><path d="M39.77 32.77c-.07.09-.13.18-.17.27-.04.1-.03.18.03.26.26.37.31.83.14 1.35 0 .02-.03.02-.07 0-.04 0-.05-.02-.05-.04.15-.49.08-.9-.22-1.26a.23.23 0 0 1-.04-.26l.13-.33a.41.41 0 0 1 .25 0ZM40.76 32.71c.03.23.1.45.23.66.05.08.05.17 0 .25-.15.24-.35.44-.6.6-.06.04-.08.03-.06-.05.03-.12.16-.27.4-.44.13-.08.16-.2.08-.32a1.7 1.7 0 0 1-.22-.64c.08-.05.13-.06.17-.06Z" fill="#52DBB2"/><path d="M29.42 35.15c.24.18.5.22.76.13v.16a.26.26 0 0 0-.12.04c-.08.05-.1.12-.05.2.14.29.3.5.51.64a.4.4 0 0 1 .16.2l.21.66c.03.1 0 .16-.09.17l-.3-.51a.48.48 0 0 0-.19-.19c-1.01-.51-2.13-.62-3.06-1.34a6.67 6.67 0 0 0-1.12-.7c-.32-.16-.42-.09-.3.23.05.14 0 .53-.16 1.16a3.36 3.36 0 0 0-.05-.28c-.02-.1-.06-.11-.11-.02-.18.33-.5.5-.93.53-.1 0-.16.05-.2.14l-.43.88c-.1.22-.19.22-.26.02-.02-.06-.09-.08-.21-.07.12-.46.28-.92.48-1.35.06-.14-.01-.2-.23-.2.46-.3 1.05-.44 1.77-.43.18-.42.22-.9.13-1.4a.15.15 0 0 1 .14-.19c.03 0 .06 0 .08.02l1.32.6c.1.05.2.05.3 0l1.65-.72a.1.1 0 0 1 .14.04l.01.05c.04.73-.27 1.21-.02 1.97a.1.1 0 0 0 .18.01.47.47 0 0 0 0-.45Z" fill="#BBBFBA"/><path d="m30.8 37.35.2.19.33.68.47 1.28a.3.3 0 0 1-.02.26c-.81 1.43-1.5 2.9-2.07 4.43l-.24.67a.2.2 0 0 1-.2.14h-1.01c-.1 0-.17-.05-.18-.15-.16-1.01-.24-1.6-.25-1.76 0-.56-.22-.94-.28-1.57-.08-.86-.43-1.89-.67-2.61-.13-.41.05-.8-.08-1.15-.06-.18-.17-.24-.32-.16-.08.04-.13.02-.16-.05l-.1-.24a.19.19 0 0 0-.22-.1c-.36.08-.97-.04-1.24.08a.55.55 0 0 0-.21.13c-.06.1-.14.12-.24.07a.5.5 0 0 1-.08-.05.14.14 0 0 1-.04-.07v-.08c.27-.56.76-.99 1.48-1.29.16-.63.21-1.02.16-1.16-.12-.32-.02-.4.3-.24.38.19.75.43 1.12.71.93.72 2.05.83 3.06 1.34.08.04.15.1.2.19l.3.51Z" fill="#FCFBEF"/><path d="M30.18 35.44c1.3.1 2.22.71 2.78 1.8.22.26.34.51.37.76 0 .1-.03.13-.12.08a6.52 6.52 0 0 0-1.57-.73c-.3-.06-.5 0-.64.19l-.2-.19c.1 0 .12-.06.1-.17-.06-.14-.13-.37-.22-.66a.4.4 0 0 0-.16-.2c-.2-.14-.37-.35-.51-.64-.04-.08-.03-.15.05-.2a.25.25 0 0 1 .12-.04Z" fill="#ECE9E3"/><path d="M20.18 35.53a.9.9 0 0 0 .03.6c-.21.16-.42.15-.64 0 .17.06.37-.14.6-.6Z" fill="#9E9E9E"/><path d="M23.73 35.65c.22 0 .3.06.23.2-.2.43-.36.89-.48 1.35-.55.33-1.1.59-1.67.8-.32.1-.36.04-.15-.22.1-.11.16-.3.16-.54l.77-.87c.27-.32.65-.56 1.14-.72Z" fill="#F3F5F4"/><path d="m12.85 35.72 4.9.01c.07.25.14.5.24.75.06.17.15.24.29.2.1 0 .16-.06.2-.15l.15-.35c.07-.15.14-.17.2-.07l.12.3c.04.1.12.15.22.16l1.06.15a.3.3 0 0 0 .25-.08l.29-.3c.07-.07.16-.08.25-.03.2.1.4.12.61.06.16-.03.2.01.12.15-.04.09-.14.16-.3.21a25.47 25.47 0 0 0-4.47 2.03l-2.13-.02a11.26 11.26 0 0 1-2-3.02ZM35.9 35.71l7.29.01a15.66 15.66 0 0 1-1.77 2.84c-.07.09-.22.15-.45.18h-3.12a23.9 23.9 0 0 0-4.58-2.13 1.05 1.05 0 0 1-.56-.46.25.25 0 0 1 0-.25.26.26 0 0 1 .21-.13l.83-.03c.17 0 .44.02.82.08.43.06.87.02 1.33-.1Z" fill="#C31319"/><path d="M21.79 37.14 21 38.47c-.07.12-.04.16.1.13.06-.02.11-.05.16-.1s.11-.1.18-.12l2.01-.9a.22.22 0 0 1 .25.04c.32.27.63.27.95 0 .07-.06.17-.1.27-.09l.73.03.18 1.02a.15.15 0 0 1-.04.14.15.15 0 0 1-.13.04 3.31 3.31 0 0 1-1.57-.58c-.16-.1-.22-.07-.17.12l.7 2.59c.02.03.04.05.07.04l.1-.03c.04 0 .05-.04.04-.08a8.15 8.15 0 0 1-.3-1.16c-.08-.45 0-.49.26-.1.33.48.77.97 1.34 1.46.2.17.16.25-.1.25h-1.12a.1.1 0 0 0-.08.04.1.1 0 0 0-.02.09l.67 2.44a.08.08 0 0 0 .1.05c.02 0 .03-.02.04-.03.1-.22.3-.35.56-.37.08-.01.11-.05.09-.13-.23-.75-.06-1.53.5-2.35l.89 3.93c.02.1-.02.14-.12.14a16.47 16.47 0 0 1-11.28-4.7c.24-.4.54-.75.92-1.04.26-.1.49-.26.69-.5l3.9-1.6ZM38.98 41.02a17.3 17.3 0 0 1-6.88 3.51 2 2 0 0 1-.38.06c-.33.02-.45-.03-.37-.15.99-.9 1.86-1.83 2.63-2.8.2-.26.27-.61.21-1.05-.08-.56-.18-1-.32-1.29-.28-.14-.4-.31-.37-.51.03-.12.09-.15.2-.1.1.05.19.06.28.04.11-.02.15-.08.1-.2-.18-.48-.48-.92-.9-1.31 2.03.51 3.7 1.3 5 2.38.34.28.6.75.8 1.42Z" fill="#F3F5F4"/><path d="M26.79 40.91c-.57.82-.74 1.6-.51 2.35.02.08 0 .12-.1.13-.26.02-.44.15-.55.37a.07.07 0 0 1-.08.04.08.08 0 0 1-.06-.06l-.67-2.44a.1.1 0 0 1 .02-.09.1.1 0 0 1 .08-.04h1.12c.26 0 .3-.08.1-.25a7.28 7.28 0 0 1-1.34-1.47c-.25-.38-.34-.34-.27.1.05.31.15.7.31 1.17.01.04 0 .07-.04.08l-.1.03c-.03 0-.05 0-.06-.04l-.7-2.59c-.06-.19 0-.23.16-.12a3.31 3.31 0 0 0 1.65.57.15.15 0 0 0 .1-.17l-.19-1.02c.2-.05.33 0 .43.12.06.08.09.21.09.39-.01 1.01.19 2 .6 2.94Z" fill="#ECE9E3"/><path d="M32.07 38.37c-.32.1-.3.43.06 1 .05.09.05.17 0 .25a18.43 18.43 0 0 0-2.17 4.65c.02-.08-.07-.1-.25-.08.57-1.53 1.26-3 2.07-4.43a.3.3 0 0 0 .02-.26l-.47-1.28c.04-.1.12-.16.22-.16s.17.04.2.13c.06.15.17.21.32.18Z" fill="#BBBFBA"/><path d="M32.62 38.3c.08.03.17 0 .19-.05.01-.06-.04-.13-.12-.15-.08-.03-.16 0-.18.05-.02.05.03.12.11.15ZM32.07 38.37c.33.2.65.3.94.31.1 0 .15.06.15.15.04.56.35.9.38 1.51.04.7-.61 1.63-1.19 2.04a3.72 3.72 0 0 0-1.46 2.17.23.23 0 0 1-.17.18l-.75.2c-.14.03-.2-.02-.2-.16.01-.17.08-.34.19-.5.5-1.74 1.2-3 2.17-4.65a.22.22 0 0 0 0-.24c-.36-.58-.38-.91-.06-1Z" fill="#ECE9E3"/><path d="M16.98 38.76c-.16.22-.4.45-.7.7-.13.09-.23.26-.33.52l-1.1-1.24 2.13.02ZM40.97 38.74c.12.05.15.1.1.17a8.82 8.82 0 0 1-1.76 1.8 3.63 3.63 0 0 0-1.46-1.97h3.12Z" fill="#FCFBEF"/><path d="M31.35 44.44c.22-.73.62-1.38 1.22-1.95.5-.47.82-.83.94-1.1.32-.64.44-1.34.36-2.09.14.3.24.73.32 1.29.06.44 0 .79-.21 1.05-.77.97-1.64 1.9-2.63 2.8Z" fill="#BBBFBA"/><path d="m25.95 12.98.62-.02a.09.09 0 0 1 .1.12l-.04.04-.52.35a.09.09 0 0 0-.04.1l.21.6a.09.09 0 0 1-.03.1.09.09 0 0 1-.1 0l-.5-.4a.09.09 0 0 0-.11 0l-.5.4a.09.09 0 0 1-.14-.11l.22-.59a.09.09 0 0 0-.03-.1l-.52-.36a.09.09 0 0 1 .05-.16l.63.02a.1.1 0 0 0 .09-.06l.18-.6a.09.09 0 0 1 .17 0l.17.6a.09.09 0 0 0 .09.07Z" fill="#FCFBEF"/><path d="m30.54 12.99.64-.03a.09.09 0 0 1 .08.06.09.09 0 0 1-.03.1l-.54.34a.09.09 0 0 0-.03.1l.22.6a.09.09 0 0 1-.13.1l-.5-.4a.09.09 0 0 0-.1 0l-.5.4a.09.09 0 0 1-.11 0 .09.09 0 0 1-.03-.1l.23-.6a.09.09 0 0 0-.04-.1l-.53-.35a.09.09 0 0 1 .06-.16l.63.04a.09.09 0 0 0 .1-.07l.16-.61a.09.09 0 0 1 .17 0l.16.61a.09.09 0 0 0 .09.07ZM18.92 15.14l.64-.03a.09.09 0 0 1 .1.07v.05l-.04.05-.54.36a.09.09 0 0 0-.03.1l.22.61a.09.09 0 0 1-.14.1l-.5-.4a.09.09 0 0 0-.12 0l-.5.4a.09.09 0 0 1-.15-.1l.23-.6a.09.09 0 0 0-.04-.1l-.54-.37a.09.09 0 0 1-.03-.1.09.09 0 0 1 .08-.06l.65.02a.09.09 0 0 0 .1-.06l.17-.63a.09.09 0 0 1 .17 0l.18.63a.09.09 0 0 0 .09.06ZM16.72 17.31l.64-.02a.09.09 0 0 1 .09.06.09.09 0 0 1-.04.1l-.54.35a.09.09 0 0 0-.03.1l.23.6a.09.09 0 0 1-.03.1.09.09 0 0 1-.11 0l-.5-.4a.09.09 0 0 0-.11 0l-.5.4a.09.09 0 0 1-.14-.04v-.06l.23-.6a.09.09 0 0 0-.03-.1l-.54-.36a.09.09 0 0 1 0-.14.09.09 0 0 1 .05-.02l.64.03a.09.09 0 0 0 .1-.06l.16-.62a.09.09 0 0 1 .09-.07.09.09 0 0 1 .08.07l.17.62a.09.09 0 0 0 .09.06ZM14.64 24.1c-.24-.47-.52-.68-.82-.63-.13.08-.24.09-.32.02-.08-.07-.08-.15 0-.22.53-.48.73-1.1.6-1.85a.17.17 0 0 1 .2-.19l.16.09a.5.5 0 0 1 .1.14c.25.5.6.78 1.04.85.33.06.38-.04.16-.3a.83.83 0 0 0-.27-.16c-.36-.17-.34-.25.05-.25h.37a.2.2 0 0 0 .2-.13l.26-.57c.04-.07.06-.07.08 0l.15.56c.03.1.09.14.18.14h.58c.2 0 .21.05.05.16l-.48.32c-.08.05-.1.11-.06.2.1.19.17.39.19.59.02.11-.02.13-.11.05l-.45-.39c-.09-.07-.16-.07-.24.02-.18.2-.37.31-.57.35-.1.02-.16.08-.17.19a7.12 7.12 0 0 0 .25 2.6c0 .02-.02.04-.03.05a.1.1 0 0 1-.1-.01l-.22-.18a.07.07 0 0 1-.03-.04 2.43 2.43 0 0 0-.75-1.42Z" fill="#F3F5F4"/><path d="M14.51 24.3c-.05.22-.02.48.11.77.05.1.02.12-.08.08a.59.59 0 0 1-.32-.25.3.3 0 0 0-.23-.15.3.3 0 0 0-.26.1l-.27.29c-.1.1-.14.08-.14-.06 0-.18.04-.34.12-.48a.3.3 0 0 0-.05-.34.3.3 0 0 0-.1-.06 1.05 1.05 0 0 1-.3-.15c-.25-.27-.2-.36.15-.26.38.1.6.02.67-.24.37.15.6.4.7.74ZM16.73 25.94l.63-.03a.09.09 0 0 1 .1.06.09.09 0 0 1-.05.1l-.52.36a.09.09 0 0 0-.04.1l.22.6a.09.09 0 0 1-.03.1.1.1 0 0 1-.11 0l-.5-.4a.09.09 0 0 0-.1 0l-.5.4a.09.09 0 0 1-.15-.1l.22-.6a.09.09 0 0 0-.03-.1l-.53-.36a.09.09 0 0 1 .06-.16l.63.02a.1.1 0 0 0 .09-.06l.17-.6a.09.09 0 0 1 .18 0l.17.6a.09.09 0 0 0 .09.07ZM14.3 28.19l.65-.02a.09.09 0 0 1 .05.16l-.53.36a.09.09 0 0 0-.04.1l.23.6a.09.09 0 0 1-.04.1.09.09 0 0 1-.1 0L14 29.1a.09.09 0 0 0-.11 0l-.5.4a.09.09 0 0 1-.15-.1l.22-.6a.09.09 0 0 0-.03-.1l-.53-.36a.09.09 0 0 1 0-.16.09.09 0 0 1 .05-.01l.64.02a.09.09 0 0 0 .09-.06l.18-.62a.09.09 0 0 1 .17 0l.17.62a.1.1 0 0 0 .1.06ZM16.72 30.27l.64-.03a.09.09 0 0 1 .08.06.09.09 0 0 1-.03.1l-.54.35a.09.09 0 0 0-.03.1l.23.6a.09.09 0 0 1-.14.1l-.5-.4a.09.09 0 0 0-.1 0l-.5.4a.09.09 0 0 1-.14-.05v-.05l.22-.6a.09.09 0 0 0-.03-.1l-.53-.35a.09.09 0 0 1-.04-.1.09.09 0 0 1 .09-.06l.64.03a.09.09 0 0 0 .09-.07l.16-.61a.09.09 0 0 1 .09-.07.09.09 0 0 1 .08.07l.17.61a.09.09 0 0 0 .09.07Z" fill="#F3F5F4"/><path d="M26.82 32.06c-.17-.04-.2-.13-.1-.28l.15-.26c.05-.1.14-.16.26-.17.36-.05.64.06.84.31a.26.26 0 0 1-.15.42c-.3.07-.63.07-1-.02Z" fill="#3D3938"/><path d="M19.2 28.48h-.05a.15.15 0 0 0-.15.15l.01 1.17c0 .08.07.14.15.14h.05c.08 0 .14-.07.14-.15v-1.17a.15.15 0 0 0-.16-.14Z" fill="#FCFBEF"/><path d="M19.5 29.96c.03.33.17.6.3.58.14-.01.23-.3.2-.62-.04-.34-.17-.6-.31-.58-.14 0-.22.29-.2.62Z" fill="#ECE9E3"/><path d="m24.17 27.1-.3-.15a.78.78 0 0 0-1.04.36l-.07.15a.78.78 0 0 0 .36 1.04l.31.15c.39.18.85.02 1.04-.37l.07-.15a.78.78 0 0 0-.37-1.03Z" fill="#04ABED"/></svg>