<!-- by TradingView --><svg width="56" height="56" viewBox="0 0 56 56" xmlns="http://www.w3.org/2000/svg"><path fill="url(#a)" d="M0 0h56v56H0z"/><path d="M21.76 18c.48 0 .8.14.97.44.12.21.26.6.27 1.15.03 2.92-.01 4.55 0 4.88.02.59.2.98.6 1.18.3.16.75.2 1.34.14.39-.05.66-.21.83-.5.13-.2.2-.54.24-.99.03-.26.1-1.84.25-4.73.02-.54.1-.91.2-1.11.16-.3.47-.44.92-.45h1.2c.73 0 1.11.37 1.15 1.1l.25 5.13c.04.65.21 1.1.52 1.34.21.17.54.25.99.25.4-.01.73-.08.97-.21.35-.18.51-.53.54-1.04.05-1.12 0-2.94 0-5.46 0-.45.25-.76.53-.93a2.2 2.2 0 0 1 1.06-.18H45.7c.8 0 1.22.41 1.26 1.22.02.46.02.92 0 1.38-.03.94-.51 1.44-1.44 1.39h-.01a8.94 8.94 0 0 0-2.23.04 2.4 2.4 0 0 0-1.66 1.38c-.22.47-.22.97 0 1.49.41.96 1.18 1.47 2.28 1.51l1.5.06c.51 0 .88.07 1.11.22.3.18.44.5.45.98 0 .33-.04.67-.13 1.02-.12.44-.5.68-1.16.7l-.76-.01c-.77-.03-1.28 0-1.54.07-.4.12-.77.31-1.08.58-.31.26-.54.56-.68.9-.15.37-.2.74-.13 1.1a2.56 2.56 0 0 0 1.98 1.92c.34.08.86.05 1.58.04h.83c.58.02.93.39 1.03.95.13.76.12 1.5-.04 2.21a1 1 0 0 1-.42.66c-.18.11-.44.17-.77.17a21435.53 21435.53 0 0 1-13.95 0c-.53 0-.9-.02-1.1-.1-.32-.1-.53-.35-.63-.73a7.74 7.74 0 0 1-.1-1c-.1-1.88-.21-3.3-.3-4.26a4.17 4.17 0 0 0-.35-1.45c-.25-.46-.65-.7-1.2-.72-.6-.02-1.04.25-1.3.8-.15.34-.26.89-.32 1.64-.1 1.2-.18 2.61-.27 4.26-.03.52-.11.89-.25 1.11-.18.3-.48.44-.92.45h-5.38c-.48 0-.83-.05-1.05-.16-.3-.16-.45-.44-.47-.84v-.27c-.03-.8-.11-1.35-.24-1.65-.21-.5-.64-.78-1.27-.85a3.32 3.32 0 0 0-1.8.16c-.54.26-.84.77-.9 1.54l-.02.4c-.02.57-.08.96-.19 1.17-.17.36-.52.52-1.03.5l-2.35.01C9.43 38 9 37.63 9 36.85V19.18c0-.56.2-.93.58-1.08.16-.07.58-.1 1.28-.1h10.9Zm-5.87 8c-.76 0-1.38.73-1.38 1.63v.74c0 .9.6 1.63 1.36 1.63h.25c.76 0 1.38-.72 1.39-1.62v-.74c0-.9-.61-1.63-1.37-1.63h-.25Z" fill="#E0E0E0"/><defs><linearGradient id="a" x1="0" y1="11.21" x2="28" y2="56" gradientUnits="userSpaceOnUse"><stop stop-color="#102329"/><stop offset="1" stop-color="#254750"/></linearGradient></defs></svg>