<?xml version="1.0" encoding="UTF-8"?>
<!DOCTYPE svg PUBLIC "-//W3C//DTD SVG 1.1//EN" "http://www.w3.org/Graphics/SVG/1.1/DTD/svg11.dtd">
<svg xmlns="http://www.w3.org/2000/svg" version="1.1" width="1235px" height="1063px" style="shape-rendering:geometricPrecision; text-rendering:geometricPrecision; image-rendering:optimizeQuality; fill-rule:evenodd; clip-rule:evenodd" xmlns:xlink="http://www.w3.org/1999/xlink">
<g><path style="opacity:0.965" fill="#323232" d="M 368.5,132.5 C 403.787,145.943 432.62,167.943 455,198.5C 459.333,205.167 463.667,211.833 468,218.5C 475.83,234.649 483.663,250.816 491.5,267C 517.835,257.595 544.001,247.428 570,236.5C 612.128,253.232 654.128,270.232 696,287.5C 700.584,280.668 704.917,273.668 709,266.5C 718.744,246.677 728.744,227.011 739,207.5C 756.128,177.538 779.962,154.538 810.5,138.5C 806.868,192.694 793.368,244.361 770,293.5C 767.434,299.863 765.268,306.363 763.5,313C 768.496,316.165 773.829,318.831 779.5,321C 793.752,326.805 808.085,332.305 822.5,337.5C 822.333,406.167 822.5,474.834 823,543.5C 831.284,550.778 838.451,558.944 844.5,568C 852.381,571.853 860.381,575.519 868.5,579C 881.594,588.759 893.427,599.925 904,612.5C 918.109,630.803 919.109,649.803 907,669.5C 902.513,674.476 898.513,679.809 895,685.5C 893.853,695.47 892.853,705.47 892,715.5C 888.966,728.19 881.799,737.69 870.5,744C 861.343,748.412 852.343,753.078 843.5,758C 840.627,761.577 838.127,765.411 836,769.5C 828.797,777.393 819.797,781.06 809,780.5C 795.169,779.334 781.502,777.334 768,774.5C 731.927,817.245 691.427,855.078 646.5,888C 624.469,903.357 601.136,916.69 576.5,928C 573.911,929.314 571.244,929.981 568.5,930C 518.013,906.771 472.68,876.105 432.5,838C 388.486,796.348 350.319,750.182 318,699.5C 317.333,579.167 317.333,458.833 318,338.5C 333.736,331.809 349.569,325.309 365.5,319C 366.624,318.161 367.291,316.994 367.5,315.5C 371.491,281.605 374.158,247.605 375.5,213.5C 373.661,186.431 371.328,159.431 368.5,132.5 Z"/></g>
<g><path style="opacity:1" fill="#000000" d="M 683.5,759.5 C 676.442,759.158 669.442,759.158 662.5,759.5C 665.348,782.947 669.015,806.281 673.5,829.5C 695.521,810.812 715.854,790.479 734.5,768.5C 740.448,769.127 746.448,769.794 752.5,770.5C 709.173,823.353 658.173,866.853 599.5,901C 589.728,905.969 579.895,910.803 570,915.5C 537.805,900.922 507.972,882.756 480.5,861C 422.082,813.595 372.582,758.428 332,695.5C 331.333,579.5 331.333,463.5 332,347.5C 343.833,341.945 356,337.278 368.5,333.5C 368.413,338.537 368.746,343.537 369.5,348.5C 361.837,351.081 354.337,354.081 347,357.5C 346.333,468.833 346.333,580.167 347,691.5C 354.42,702.675 362.087,713.675 370,724.5C 378.7,683.315 388.367,642.315 399,601.5C 403.971,582.082 410.804,563.415 419.5,545.5C 402.82,522.143 385.654,499.143 368,476.5C 363.304,470.444 359.637,463.777 357,456.5C 356.535,449.082 357.202,441.749 359,434.5C 362.356,420.856 366.523,407.522 371.5,394.5C 379.36,342.122 384.86,289.456 388,236.5C 388.667,221.833 388.667,207.167 388,192.5C 386.776,179.817 385.776,167.151 385,154.5C 416.432,173.265 441.099,198.599 459,230.5C 467.184,249.202 476.184,267.535 486,285.5C 513.987,273.758 542.154,262.424 570.5,251.5C 614.241,268.97 657.908,286.636 701.5,304.5C 706.916,296.67 712.083,288.67 717,280.5C 729.824,254.851 743.157,229.517 757,204.5C 767.273,189.894 779.273,176.894 793,165.5C 790.192,192.071 784.525,218.071 776,243.5C 766.836,264.163 758.502,285.163 751,306.5C 749.544,312.097 749.211,317.763 750,323.5C 769.333,331.5 788.667,339.5 808,347.5C 808.333,414.833 808.667,482.167 809,549.5C 813.634,553.132 817.967,557.132 822,561.5C 826.79,567.959 831.957,574.126 837.5,580C 846.622,584.061 855.622,588.394 864.5,593C 879.182,603.678 891.015,616.845 900,632.5C 903.468,647.939 899.134,660.939 887,671.5C 885.08,674.339 883.413,677.339 882,680.5C 880.058,690.383 879.058,700.383 879,710.5C 877.619,719.438 873.119,726.272 865.5,731C 853.844,736.826 842.51,743.16 831.5,750C 828.94,755.226 825.606,759.892 821.5,764C 814.026,766.421 806.36,767.088 798.5,766C 780.928,762.68 763.261,760.014 745.5,758C 724.803,757.348 704.136,757.848 683.5,759.5 Z"/></g>
<g><path style="opacity:1" fill="#333333" d="M 523.5,386.5 C 516.854,395.487 511.021,404.821 506,414.5C 512.329,404.492 521.163,397.992 532.5,395C 537.134,391.368 541.467,387.368 545.5,383C 547.5,382 549.5,381 551.5,380C 579.755,368.688 604.255,374.188 625,396.5C 630.375,405.417 635.875,414.251 641.5,423C 648.776,424.132 656.109,425.132 663.5,426C 670.208,429.702 676.041,434.535 681,440.5C 685.363,447.014 689.863,453.347 694.5,459.5C 699.067,471.312 704.234,482.979 710,494.5C 710.167,493.833 710.333,493.167 710.5,492.5C 705.942,477.15 703.108,461.483 702,445.5C 699.811,436.643 694.644,430.143 686.5,426C 674.813,419.633 663.147,413.3 651.5,407C 646.79,399.747 641.957,392.58 637,385.5C 630.647,380.647 625.147,374.98 620.5,368.5C 632.423,367.536 644.089,369.036 655.5,373C 662.908,377.073 669.075,382.573 674,389.5C 675.595,385.354 675.928,381.02 675,376.5C 673.646,373.495 672.646,370.495 672,367.5C 690.238,348.271 706.571,327.604 721,305.5C 734.051,282.726 746.551,259.726 758.5,236.5C 752.478,255.389 744.978,273.723 736,291.5C 731.385,298.45 726.385,305.116 721,311.5C 716.436,317.918 714.27,325.084 714.5,333C 716.037,345.019 717.704,357.019 719.5,369C 718.416,377.343 715.749,385.177 711.5,392.5C 705.193,390.931 699.693,387.931 695,383.5C 696.749,396.414 701.083,408.414 708,419.5C 716.047,426.775 724.88,432.942 734.5,438C 744.002,449.666 753.668,461.166 763.5,472.5C 757.747,472.431 752.081,472.598 746.5,473C 743.144,465.787 739.644,458.621 736,451.5C 735.768,452.737 735.268,453.737 734.5,454.5C 734.631,453.761 734.464,453.094 734,452.5C 729.197,462.773 725.53,473.44 723,484.5C 721.711,495.147 722.711,505.481 726,515.5C 726.333,512.833 726.667,510.167 727,507.5C 732.834,522.313 742,534.48 754.5,544C 769.426,548.699 782.26,556.532 793,567.5C 793.333,566.167 793.667,564.833 794,563.5C 798.713,569.757 803.546,575.924 808.5,582C 815.071,586.755 821.738,591.255 828.5,595.5C 818.017,594.377 807.517,593.377 797,592.5C 790.267,592.38 783.767,593.547 777.5,596C 782.988,596.89 788.321,598.39 793.5,600.5C 790.495,604.506 787.995,608.84 786,613.5C 777.251,604.756 769.251,595.422 762,585.5C 749.549,576.19 735.715,570.024 720.5,567C 732.95,575.782 745.117,584.949 757,594.5C 759.062,597.723 760.896,601.057 762.5,604.5C 759.302,603.213 755.969,602.547 752.5,602.5C 746.395,601.004 740.062,600.337 733.5,600.5C 726.492,600.334 719.492,600.5 712.5,601C 710.942,601.21 709.609,601.71 708.5,602.5C 694.343,604.913 681.676,610.58 670.5,619.5C 665.499,624.252 659.666,627.585 653,629.5C 648.541,627.021 644.041,624.688 639.5,622.5C 631.003,616.414 622.003,611.081 612.5,606.5C 605.215,601.853 597.548,597.687 589.5,594C 585.928,592.595 582.261,592.262 578.5,593C 573.975,596.863 569.475,600.696 565,604.5C 555.557,620.392 546.39,636.392 537.5,652.5C 530.408,651.081 523.741,648.581 517.5,645C 509.715,634.214 501.549,623.714 493,613.5C 482.822,597.305 475.155,579.972 470,561.5C 468.673,575.69 469.673,589.69 473,603.5C 477.997,617.503 484.33,630.836 492,643.5C 497.654,649.489 504.154,654.323 511.5,658C 525.116,664.26 539.116,669.427 553.5,673.5C 562.142,678.643 568.975,685.643 574,694.5C 575.031,699.099 575.531,703.765 575.5,708.5C 569.182,730.552 575.515,747.885 594.5,760.5C 604.906,755.573 615.573,752.573 626.5,751.5C 612.586,755.449 600.586,762.449 590.5,772.5C 577.274,781.138 565.607,791.638 555.5,804C 574.851,792.751 595.351,783.585 617,776.5C 623.42,779.084 629.42,782.417 635,786.5C 635.505,790.514 634.505,794.181 632,797.5C 625.286,805.212 618.953,813.212 613,821.5C 604.075,840.033 604.575,858.366 614.5,876.5C 600.364,885.654 585.53,893.654 570,900.5C 569.235,900.43 568.735,900.097 568.5,899.5C 551.327,882.166 535.827,863.499 522,843.5C 515.317,828.803 508.65,814.136 502,799.5C 490.573,786.744 479.907,773.411 470,759.5C 469.833,760.667 469.667,761.833 469.5,763C 471.927,774.523 474.093,786.023 476,797.5C 471.145,788.973 465.145,781.307 458,774.5C 448.282,757.162 443.782,738.496 444.5,718.5C 445.235,696.091 448.568,674.091 454.5,652.5C 444.03,656.987 434.197,662.654 425,669.5C 424.792,664.742 425.459,660.075 427,655.5C 431.219,645.394 436.219,635.727 442,626.5C 446.874,616.343 448.874,605.676 448,594.5C 445.095,588.794 444.095,582.794 445,576.5C 452.737,558.523 461.904,541.356 472.5,525C 449.196,525.575 429.696,517.408 414,500.5C 415.333,505.167 416.667,509.833 418,514.5C 404.753,498.994 393.253,482.327 383.5,464.5C 393.175,474.489 404.508,482.156 417.5,487.5C 418.48,484.914 418.813,482.247 418.5,479.5C 431.429,484.661 444.429,484.827 457.5,480C 476.819,466.152 493.652,449.985 508,431.5C 499.93,438.739 491.43,445.406 482.5,451.5C 478.3,442.635 476.8,433.301 478,423.5C 478.806,420.554 480.139,417.888 482,415.5C 486.033,411.132 490.366,407.132 495,403.5C 500.509,392.801 502.842,381.468 502,369.5C 489.535,356.708 478.202,343.042 468,328.5C 464.451,322.07 461.451,315.404 459,308.5C 449.254,270.553 435.254,234.553 417,200.5C 426.147,209.976 434.147,220.31 441,231.5C 450.712,251.925 460.712,272.259 471,292.5C 481.635,312.805 495.635,330.472 513,345.5C 515.011,349.567 516.011,353.9 516,358.5C 518.716,365.61 523.883,369.444 531.5,370C 527.35,374.799 524.683,380.299 523.5,386.5 Z"/></g>
<g><path style="opacity:1" fill="#191919" d="M 568.5,267.5 C 610.302,283.207 651.635,299.874 692.5,317.5C 682.274,331.565 671.107,344.898 659,357.5C 656.002,355.919 652.835,354.753 649.5,354C 640.246,352.354 630.912,351.354 621.5,351C 591.813,350.33 562.146,350.83 532.5,352.5C 531.949,347.014 530.116,342.014 527,337.5C 520.387,330.887 513.721,324.221 507,317.5C 502.009,311.518 497.509,305.185 493.5,298.5C 518.51,287.948 543.51,277.615 568.5,267.5 Z"/></g>
<g><path style="opacity:1" fill="#4b4b4b" d="M 763.5,472.5 C 753.668,461.166 744.002,449.666 734.5,438C 724.88,432.942 716.047,426.775 708,419.5C 701.083,408.414 696.749,396.414 695,383.5C 699.693,387.931 705.193,390.931 711.5,392.5C 715.749,385.177 718.416,377.343 719.5,369C 717.704,357.019 716.037,345.019 714.5,333C 714.27,325.084 716.436,317.918 721,311.5C 726.385,305.116 731.385,298.45 736,291.5C 744.978,273.723 752.478,255.389 758.5,236.5C 760.398,231.704 762.565,227.038 765,222.5C 765.17,224.845 764.837,227.179 764,229.5C 755.862,250.247 747.529,270.913 739,291.5C 736.925,297.725 735.258,304.059 734,310.5C 734.373,334.494 734.373,358.494 734,382.5C 732.308,392.1 731.141,401.767 730.5,411.5C 725.15,408.492 720.15,404.992 715.5,401C 714.833,400.333 714.167,400.333 713.5,401C 720.201,411.374 728.034,420.874 737,429.5C 741.264,437.028 746.264,444.028 752,450.5C 758.636,456.134 764.969,462.134 771,468.5C 772.009,470.025 772.509,471.692 772.5,473.5C 769.455,473.492 766.455,473.159 763.5,472.5 Z"/></g>
<g><path style="opacity:1" fill="#191919" d="M 750.5,340.5 C 764.914,345.87 779.247,351.537 793.5,357.5C 794.667,417.164 794.833,476.831 794,536.5C 790,533.167 786,529.833 782,526.5C 779.777,510.032 781.777,494.032 788,478.5C 788.667,474.5 788.667,470.5 788,466.5C 786.503,462.835 784.503,459.502 782,456.5C 767.724,445.566 756.391,432.233 748,416.5C 749.898,391.24 750.732,365.907 750.5,340.5 Z"/></g>
<g><path style="opacity:1" fill="#191919" d="M 369.5,348.5 C 370.21,350.746 370.71,353.08 371,355.5C 371.188,368.678 371.355,381.678 371.5,394.5C 366.523,407.522 362.356,420.856 359,434.5C 357.202,441.749 356.535,449.082 357,456.5C 359.637,463.777 363.304,470.444 368,476.5C 385.654,499.143 402.82,522.143 419.5,545.5C 410.804,563.415 403.971,582.082 399,601.5C 388.367,642.315 378.7,683.315 370,724.5C 362.087,713.675 354.42,702.675 347,691.5C 346.333,580.167 346.333,468.833 347,357.5C 354.337,354.081 361.837,351.081 369.5,348.5 Z"/></g>
<g><path style="opacity:1" fill="#4b4b4b" d="M 694.5,459.5 C 689.863,453.347 685.363,447.014 681,440.5C 676.041,434.535 670.208,429.702 663.5,426C 656.109,425.132 648.776,424.132 641.5,423C 635.875,414.251 630.375,405.417 625,396.5C 604.255,374.188 579.755,368.688 551.5,380C 549.5,381 547.5,382 545.5,383C 541.467,387.368 537.134,391.368 532.5,395C 521.163,397.992 512.329,404.492 506,414.5C 511.021,404.821 516.854,395.487 523.5,386.5C 535.439,379.031 548.106,372.865 561.5,368C 571.18,367.412 580.847,367.078 590.5,367C 603.724,372.279 616.391,378.612 628.5,386C 635.983,394.638 642.983,403.638 649.5,413C 659.201,419.516 669.201,425.516 679.5,431C 688.558,438.322 693.558,447.822 694.5,459.5 Z"/></g>
<g><path style="opacity:1" fill="#020202" d="M 542.5,418.5 C 552.232,420.355 561.232,424.522 569.5,431C 581.226,428.492 589.226,432.659 593.5,443.5C 593.167,443.833 592.833,444.167 592.5,444.5C 581.554,438.68 569.888,435.847 557.5,436C 551.317,434.954 545.317,433.288 539.5,431C 545.167,430.667 550.833,430.333 556.5,430C 551.987,425.919 547.32,422.086 542.5,418.5 Z"/></g>
<g><path style="opacity:1" fill="#4c4c4c" d="M 383.5,464.5 C 393.253,482.327 404.753,498.994 418,514.5C 416.667,509.833 415.333,505.167 414,500.5C 429.696,517.408 449.196,525.575 472.5,525C 461.904,541.356 452.737,558.523 445,576.5C 444.095,582.794 445.095,588.794 448,594.5C 448.874,605.676 446.874,616.343 442,626.5C 436.219,635.727 431.219,645.394 427,655.5C 425.459,660.075 424.792,664.742 425,669.5C 434.197,662.654 444.03,656.987 454.5,652.5C 448.568,674.091 445.235,696.091 444.5,718.5C 443.782,738.496 448.282,757.162 458,774.5C 465.145,781.307 471.145,788.973 476,797.5C 474.093,786.023 471.927,774.523 469.5,763C 469.667,761.833 469.833,760.667 470,759.5C 479.907,773.411 490.573,786.744 502,799.5C 508.65,814.136 515.317,828.803 522,843.5C 535.827,863.499 551.327,882.166 568.5,899.5C 518.285,874.79 473.785,842.124 435,801.5C 431.205,769.883 427.872,738.216 425,706.5C 422.897,719.408 421.73,732.408 421.5,745.5C 420.833,758.833 420.167,772.167 419.5,785.5C 407.503,772.001 395.669,758.334 384,744.5C 383.042,742.801 382.542,740.967 382.5,739C 391.084,681.831 404.917,625.998 424,571.5C 428.67,556.647 436.503,543.813 447.5,533C 443.034,534.566 438.7,536.733 434.5,539.5C 419.518,521.53 405.018,503.197 391,484.5C 384.831,475.5 379.164,466.166 374,456.5C 373.009,454.553 372.675,452.553 373,450.5C 376.332,455.327 379.832,459.993 383.5,464.5 Z"/></g>
<g><path style="opacity:1" fill="#4b4b4b" d="M 734.5,454.5 C 732.681,468.111 732.181,481.778 733,495.5C 733.511,497.878 734.178,500.212 735,502.5C 753.948,523.119 774.448,541.952 796.5,559C 805.448,566.942 813.281,575.775 820,585.5C 823.581,589.752 827.748,593.252 832.5,596C 831.072,596.579 829.738,596.412 828.5,595.5C 821.738,591.255 815.071,586.755 808.5,582C 803.546,575.924 798.713,569.757 794,563.5C 793.667,564.833 793.333,566.167 793,567.5C 782.26,556.532 769.426,548.699 754.5,544C 742,534.48 732.834,522.313 727,507.5C 726.667,510.167 726.333,512.833 726,515.5C 722.711,505.481 721.711,495.147 723,484.5C 725.53,473.44 729.197,462.773 734,452.5C 734.464,453.094 734.631,453.761 734.5,454.5 Z"/></g>
<g><path style="opacity:1" fill="#010203" d="M 577.5,467.5 C 586.821,466.627 595.821,467.793 604.5,471C 612.079,475.909 619.079,481.575 625.5,488C 627.5,488.667 629.5,488.667 631.5,488C 633.369,486.398 635.369,485.398 637.5,485C 639.891,492.278 638.224,498.445 632.5,503.5C 635.113,505.369 637.279,507.703 639,510.5C 640.187,512.044 640.52,513.711 640,515.5C 631.979,521.061 623.146,524.228 613.5,525C 618.065,522.891 622.065,520.058 625.5,516.5C 601.676,518.67 581.009,511.67 563.5,495.5C 571.511,490.493 579.845,485.993 588.5,482C 584.029,475.922 578.029,472.089 570.5,470.5C 572.875,469.34 575.208,468.34 577.5,467.5 Z"/></g>
<g><path style="opacity:1" fill="#020202" d="M 627.5,465.5 C 645.178,480.002 663.845,493.169 683.5,505C 684.451,505.718 684.617,506.551 684,507.5C 670.685,523.074 653.852,531.574 633.5,533C 646.268,525.955 657.935,517.455 668.5,507.5C 664.022,504.19 659.689,500.69 655.5,497C 654.167,497.333 652.833,497.667 651.5,498C 641.715,488.396 633.715,477.563 627.5,465.5 Z"/></g>
<g><path style="opacity:1" fill="#030303" d="M 502.5,468.5 C 514.153,465.744 522.32,469.744 527,480.5C 527.798,482.259 527.631,483.926 526.5,485.5C 516.53,477.006 505.196,474.173 492.5,477C 484.582,479.809 476.915,482.809 469.5,486C 478.343,475.914 489.343,470.08 502.5,468.5 Z"/></g>
<g><path style="opacity:1" fill="#28a7dd" d="M 751.5,486.5 C 760.143,484.984 766.81,487.817 771.5,495C 760.162,509.665 750.162,508.832 741.5,492.5C 744.562,489.972 747.896,487.972 751.5,486.5 Z"/></g>
<g><path style="opacity:1" fill="#28a8de" d="M 598.5,489.5 C 601.85,489.335 605.183,489.502 608.5,490C 615.317,495.65 621.65,501.816 627.5,508.5C 617.05,512.589 606.717,512.423 596.5,508C 592.216,505.553 589.216,502.053 587.5,497.5C 587.608,496.558 587.941,495.725 588.5,495C 592.056,493.392 595.389,491.559 598.5,489.5 Z"/></g>
<g><path style="opacity:1" fill="#030303" d="M 557.5,518.5 C 563.693,528.524 572.027,536.357 582.5,542C 598.767,543.289 615.1,543.956 631.5,544C 596.12,565.789 571.453,557.289 557.5,518.5 Z"/></g>
<g><path style="opacity:1" fill="#010101" d="M 537.5,652.5 C 551.404,655.951 563.737,662.284 574.5,671.5C 579.167,675.833 583.833,680.167 588.5,684.5C 595.208,692.917 600.041,702.251 603,712.5C 592.76,700.258 581.26,689.425 568.5,680C 563.701,677.265 558.701,675.098 553.5,673.5C 539.116,669.427 525.116,664.26 511.5,658C 504.154,654.323 497.654,649.489 492,643.5C 484.33,630.836 477.997,617.503 473,603.5C 469.673,589.69 468.673,575.69 470,561.5C 475.155,579.972 482.822,597.305 493,613.5C 501.549,623.714 509.715,634.214 517.5,645C 523.741,648.581 530.408,651.081 537.5,652.5 Z"/></g>
<g><path style="opacity:1" fill="#3b3b3b" d="M 612.5,606.5 C 599.584,627.995 586.918,649.661 574.5,671.5C 563.737,662.284 551.404,655.951 537.5,652.5C 546.39,636.392 555.557,620.392 565,604.5C 569.475,600.696 573.975,596.863 578.5,593C 582.261,592.262 585.928,592.595 589.5,594C 597.548,597.687 605.215,601.853 612.5,606.5 Z"/></g>
<g><path style="opacity:1" fill="#545454" d="M 733.5,600.5 C 709.833,640.5 686.167,680.5 662.5,720.5C 656.182,718.008 650.182,715.008 644.5,711.5C 666.097,675.304 687.43,638.97 708.5,602.5C 709.609,601.71 710.942,601.21 712.5,601C 719.492,600.5 726.492,600.334 733.5,600.5 Z"/></g>
<g><path style="opacity:1" fill="#5a5a5a" d="M 733.5,600.5 C 740.062,600.337 746.395,601.004 752.5,602.5C 727.011,644.134 702.011,686.134 677.5,728.5C 672.307,726.072 667.307,723.405 662.5,720.5C 686.167,680.5 709.833,640.5 733.5,600.5 Z"/></g>
<g><path style="opacity:1" fill="#323232" d="M 806.5,601.5 C 821.658,600.504 836.991,600.17 852.5,600.5C 850.369,601.314 848.036,601.814 845.5,602C 852.985,608.581 861.319,613.914 870.5,618C 877.254,622.948 877.087,627.782 870,632.5C 867.97,638.255 868.304,643.922 871,649.5C 873.096,653.414 874.93,657.414 876.5,661.5C 876.052,665.345 874.719,668.845 872.5,672C 872.728,672.399 873.062,672.565 873.5,672.5C 866.546,677.824 858.879,679.491 850.5,677.5C 849.081,672.611 846.914,667.611 844,662.5C 843.292,661.619 842.458,660.953 841.5,660.5C 845.304,659.218 848.471,656.885 851,653.5C 851.711,651.633 851.211,650.133 849.5,649C 839.366,644.301 828.699,642.134 817.5,642.5C 816.218,639.383 814.051,637.05 811,635.5C 806.935,627.278 805.601,618.611 807,609.5C 808.123,606.751 809.623,604.251 811.5,602C 809.866,601.506 808.199,601.34 806.5,601.5 Z"/></g>
<g><path style="opacity:1" fill="#4a4a4a" d="M 852.5,600.5 C 856.719,599.979 860.386,601.146 863.5,604C 874.093,614.216 882.593,625.716 889,638.5C 886.612,636.602 884.112,634.935 881.5,633.5C 879.971,633.529 878.804,634.196 878,635.5C 876.508,640.411 876.174,645.411 877,650.5C 879.614,653.432 881.781,656.599 883.5,660C 882.194,665.804 878.861,669.971 873.5,672.5C 873.062,672.565 872.728,672.399 872.5,672C 874.719,668.845 876.052,665.345 876.5,661.5C 874.93,657.414 873.096,653.414 871,649.5C 868.304,643.922 867.97,638.255 870,632.5C 877.087,627.782 877.254,622.948 870.5,618C 861.319,613.914 852.985,608.581 845.5,602C 848.036,601.814 850.369,601.314 852.5,600.5 Z"/></g>
<g><path style="opacity:1" fill="#4b4b4b" d="M 806.5,601.5 C 808.199,601.34 809.866,601.506 811.5,602C 809.623,604.251 808.123,606.751 807,609.5C 805.601,618.611 806.935,627.278 811,635.5C 814.051,637.05 816.218,639.383 817.5,642.5C 815.704,643.793 814.037,645.293 812.5,647C 809.72,647.269 807.554,646.102 806,643.5C 802.451,637.07 799.451,630.404 797,623.5C 796.051,616.129 797.551,609.295 801.5,603C 803.025,601.991 804.692,601.491 806.5,601.5 Z"/></g>
<g><path style="opacity:1" fill="#4e4e4e" d="M 708.5,602.5 C 687.43,638.97 666.097,675.304 644.5,711.5C 639.171,709.169 633.838,706.836 628.5,704.5C 627.035,703.263 625.368,702.263 623.5,701.5C 639.167,674.167 654.833,646.833 670.5,619.5C 681.676,610.58 694.343,604.913 708.5,602.5 Z"/></g>
<g><path style="opacity:1" fill="#5f5f5f" d="M 752.5,602.5 C 755.969,602.547 759.302,603.213 762.5,604.5C 764.008,606.181 765.008,608.181 765.5,610.5C 758.859,619.763 752.692,629.43 747,639.5C 728.932,670.633 710.599,701.633 692,732.5C 691.517,733.448 691.351,734.448 691.5,735.5C 686.55,733.692 681.883,731.358 677.5,728.5C 702.011,686.134 727.011,644.134 752.5,602.5 Z"/></g>
<g><path style="opacity:1" fill="#414141" d="M 612.5,606.5 C 622.003,611.081 631.003,616.414 639.5,622.5C 626.764,644.97 613.764,667.303 600.5,689.5C 596.749,687.293 592.749,685.626 588.5,684.5C 583.833,680.167 579.167,675.833 574.5,671.5C 586.918,649.661 599.584,627.995 612.5,606.5 Z"/></g>
<g><path style="opacity:1" fill="#666666" d="M 765.5,610.5 C 767.644,616.316 771.31,620.983 776.5,624.5C 774.926,624.937 773.759,625.937 773,627.5C 750.822,665.194 728.655,702.861 706.5,740.5C 701.285,739.428 696.285,737.762 691.5,735.5C 691.351,734.448 691.517,733.448 692,732.5C 710.599,701.633 728.932,670.633 747,639.5C 752.692,629.43 758.859,619.763 765.5,610.5 Z"/></g>
<g><path style="opacity:1" fill="#474747" d="M 670.5,619.5 C 654.833,646.833 639.167,674.167 623.5,701.5C 615.641,697.739 607.975,693.739 600.5,689.5C 613.764,667.303 626.764,644.97 639.5,622.5C 644.041,624.688 648.541,627.021 653,629.5C 659.666,627.585 665.499,624.252 670.5,619.5 Z"/></g>
<g><path style="opacity:1" fill="#6a6a6a" d="M 776.5,624.5 C 780.777,626.123 784.443,628.456 787.5,631.5C 780.024,642.434 773.024,653.768 766.5,665.5C 768.862,666.271 771.196,667.105 773.5,668C 774.925,669.714 774.592,671.047 772.5,672C 767.899,673.683 765.399,672.183 765,667.5C 759.833,676.5 754.667,685.5 749.5,694.5C 751.124,695.869 751.624,697.536 751,699.5C 748.948,700.723 746.781,701.723 744.5,702.5C 737.085,715.665 729.419,728.665 721.5,741.5C 724.768,742.487 728.102,742.82 731.5,742.5C 723.122,743.972 714.788,743.305 706.5,740.5C 728.655,702.861 750.822,665.194 773,627.5C 773.759,625.937 774.926,624.937 776.5,624.5 Z"/></g>
<g><path style="opacity:1" fill="#727272" d="M 787.5,631.5 C 791.521,645.005 799.188,655.838 810.5,664C 822.655,669.908 834.322,676.575 845.5,684C 850.717,689.599 853.884,696.099 855,703.5C 852.736,706.433 849.902,708.6 846.5,710C 826.477,718.453 806.144,726.119 785.5,733C 767.221,734.824 749.221,737.991 731.5,742.5C 728.102,742.82 724.768,742.487 721.5,741.5C 729.419,728.665 737.085,715.665 744.5,702.5C 746.781,701.723 748.948,700.723 751,699.5C 751.624,697.536 751.124,695.869 749.5,694.5C 754.667,685.5 759.833,676.5 765,667.5C 765.399,672.183 767.899,673.683 772.5,672C 774.592,671.047 774.925,669.714 773.5,668C 771.196,667.105 768.862,666.271 766.5,665.5C 773.024,653.768 780.024,642.434 787.5,631.5 Z"/></g>
<g><path style="opacity:1" fill="#4a4a4a" d="M 841.5,660.5 C 842.458,660.953 843.292,661.619 844,662.5C 846.914,667.611 849.081,672.611 850.5,677.5C 842.254,674.094 834.921,669.261 828.5,663C 832.803,661.95 837.137,661.116 841.5,660.5 Z"/></g>
<g><path style="opacity:1" fill="#4f4f4f" d="M 793.5,669.5 C 796.798,669.016 799.464,670.016 801.5,672.5C 799.559,675.334 796.893,676.168 793.5,675C 792.464,673.224 792.464,671.391 793.5,669.5 Z"/></g>
<g><path style="opacity:1" fill="#1f1f1f" d="M 553.5,673.5 C 558.701,675.098 563.701,677.265 568.5,680C 581.26,689.425 592.76,700.258 603,712.5C 600.041,702.251 595.208,692.917 588.5,684.5C 592.749,685.626 596.749,687.293 600.5,689.5C 607.975,693.739 615.641,697.739 623.5,701.5C 625.368,702.263 627.035,703.263 628.5,704.5C 628.062,704.435 627.728,704.601 627.5,705C 643.838,720.001 661.838,732.667 681.5,743C 666.647,743.143 651.98,744.81 637.5,748C 633.831,749.279 630.164,750.446 626.5,751.5C 615.573,752.573 604.906,755.573 594.5,760.5C 575.515,747.885 569.182,730.552 575.5,708.5C 575.531,703.765 575.031,699.099 574,694.5C 568.975,685.643 562.142,678.643 553.5,673.5 Z"/></g>
<g><path style="opacity:1" fill="#4d4d4d" d="M 784.5,681.5 C 786.199,681.34 787.866,681.506 789.5,682C 792.167,683.667 792.167,685.333 789.5,687C 784.083,688.42 782.417,686.586 784.5,681.5 Z"/></g>
<g><path style="opacity:1" fill="#4e4e4e" d="M 802.5,681.5 C 804.655,681.372 806.655,681.872 808.5,683C 809.727,684.587 809.394,685.921 807.5,687C 801.066,688.75 799.4,686.916 802.5,681.5 Z"/></g>
<g><path style="opacity:1" fill="#7c7c7c" d="M 871.5,684.5 C 872.833,684.5 874.167,684.5 875.5,684.5C 874.669,692.158 873.835,699.824 873,707.5C 872.64,709.421 871.806,711.088 870.5,712.5C 868.519,707.872 866.019,703.539 863,699.5C 862.333,696.5 862.333,693.5 863,690.5C 865.637,688.109 868.47,686.109 871.5,684.5 Z"/></g>
<g><path style="opacity:1" fill="#4f4f4f" d="M 772.5,687.5 C 775.859,687.698 777.692,689.365 778,692.5C 774.693,695.458 771.859,695.125 769.5,691.5C 770.172,689.84 771.172,688.507 772.5,687.5 Z"/></g>
<g><path style="opacity:1" fill="#505050" d="M 791.5,698.5 C 798.215,698.296 799.549,700.462 795.5,705C 789.738,705.418 788.404,703.251 791.5,698.5 Z"/></g>
<g><path style="opacity:1" fill="#505050" d="M 811.5,698.5 C 813.655,698.372 815.655,698.872 817.5,700C 818.517,701.049 818.684,702.216 818,703.5C 814.693,706.458 811.859,706.125 809.5,702.5C 810.18,701.14 810.847,699.807 811.5,698.5 Z"/></g>
<g><path style="opacity:1" fill="#505050" d="M 764.5,711.5 C 766.903,711.393 768.736,712.393 770,714.5C 770.507,715.996 770.007,717.163 768.5,718C 761.089,719.224 759.755,717.057 764.5,711.5 Z"/></g>
<g><path style="opacity:1" fill="#4f4f4f" d="M 785.5,711.5 C 788.104,711.598 790.104,712.765 791.5,715C 789.927,718.452 787.427,719.286 784,717.5C 783.252,715.16 783.752,713.16 785.5,711.5 Z"/></g>
<g><path style="opacity:1" fill="#323232" d="M 843.5,720.5 C 848.833,720.5 854.167,720.5 859.5,720.5C 859.719,721.675 859.386,722.675 858.5,723.5C 848.676,727.383 839.009,731.55 829.5,736C 825.869,740.211 823.369,745.045 822,750.5C 818.569,754.885 814.069,756.552 808.5,755.5C 794.367,754.65 780.367,752.817 766.5,750C 792.54,740.825 818.206,730.992 843.5,720.5 Z"/></g>
<g><path style="opacity:1" fill="#2b2b2b" d="M 421.5,745.5 C 421.833,759.183 421.499,772.85 420.5,786.5C 419.893,786.376 419.56,786.043 419.5,785.5C 420.167,772.167 420.833,758.833 421.5,745.5 Z"/></g>
<g><path style="opacity:1" fill="#1e1e1e" d="M 614.5,876.5 C 604.575,858.366 604.075,840.033 613,821.5C 618.953,813.212 625.286,805.212 632,797.5C 634.505,794.181 635.505,790.514 635,786.5C 629.42,782.417 623.42,779.084 617,776.5C 595.351,783.585 574.851,792.751 555.5,804C 565.607,791.638 577.274,781.138 590.5,772.5C 608.388,764.695 627.055,760.028 646.5,758.5C 649.569,786.893 653.902,815.06 659.5,843C 645.184,855.15 630.184,866.317 614.5,876.5 Z"/></g>
<g><path style="opacity:1" fill="#191919" d="M 683.5,759.5 C 700.212,763.453 717.212,766.453 734.5,768.5C 715.854,790.479 695.521,810.812 673.5,829.5C 669.015,806.281 665.348,782.947 662.5,759.5C 669.442,759.158 676.442,759.158 683.5,759.5 Z"/></g>
</svg>
