<!-- by TradingView --><svg width="56" height="56" viewBox="0 0 56 56" xmlns="http://www.w3.org/2000/svg"><path fill="#2E6F1B" d="M0 0h56v56H0z"/><path d="m23.81 13.96.26.02c.26 0 .49.1.67.3a.1.1 0 0 1 .01.12.07.07 0 0 1-.05.04.07.07 0 0 1-.05-.01.96.96 0 0 0-.85-.22.88.88 0 0 0-.3.18.08.08 0 0 1-.05.02h-.07a.08.08 0 0 1-.04-.08l.01-.05c.22-.29.32-.64.3-1.04-.04-.56-.42-1.02-.98-1.03-.62-.01-1.23.32-1.11 1.05a4.54 4.54 0 0 0 .1.52.1.1 0 0 1-.1.07l-.35-.07a.14.14 0 0 0-.16.08l-.1.24a.1.1 0 0 1-.08.05.1.1 0 0 1-.08-.03c-.77-.83-2.14-.85-2.8.16-.08.14-.13.35-.23.49l-.02.01a.04.04 0 0 1-.05-.02v-.03c.07-.51.32-.9.75-1.15.42-.25.86-.33 1.3-.25a2.08 2.08 0 0 1 1.06.52.05.05 0 0 0 .05-.03c.08-.2.25-.27.5-.23h.01a.04.04 0 0 0 .03-.03v-.02c-.17-.93.2-1.44 1.13-1.53.7-.08 1.29.5 1.33 1.2a2.52 2.52 0 0 1-.08.72l.01.02h.01l.02.01ZM31.43 14.47a.05.05 0 0 1-.05-.02.05.05 0 0 1 0-.05c.3-.43.65-.33 1.09-.24h.02l.02-.03c.32-1.01 1.34-2.02 2.48-1.38.45.25.72.66.82 1.22a84.14 84.14 0 0 0 .07.3.1.1 0 0 0 .03.03c.18.1.3.23.36.42a.05.05 0 0 0 .03.03.05.05 0 0 0 .05-.02c.3-.38.65-.68 1.05-.9.6-.35 1.41-.4 1.91.15.7.77.61 2.36-.1 3.1a.07.07 0 0 0-.02.05.07.07 0 0 0 .03.05c.18.17.5.44.45.7a.08.08 0 0 1-.07.05h-.04a.08.08 0 0 1-.03-.04 1.11 1.11 0 0 0-.62-.61.09.09 0 0 1-.05-.07.1.1 0 0 1 .03-.08c.3-.27.5-.6.6-1 .23-.93.08-2.39-1.22-2.36-.74.02-1.5.68-1.92 1.3a.12.12 0 0 1-.12.04.13.13 0 0 1-.1-.09l-.1-.4a.13.13 0 0 0-.07-.08.13.13 0 0 0-.1-.01l-.15.04a.08.08 0 0 1-.1-.05v-.04c.07-.62-.12-1.1-.56-1.44a1.27 1.27 0 0 0-1.43-.1c-.5.34-.77.8-.96 1.37a.16.16 0 0 1-.08.09.15.15 0 0 1-.12 0c-.26-.1-.52-.17-.79-.09-.09.03-.15.14-.24.16ZM28.23 13.8a4.22 4.22 0 0 1 .52 1.3l.02.02.91-.14c.27.14.57.23.89.27l.17-.01 1.04-.16a1.8 1.8 0 0 1 1.49.45c.1.1.26.15.45.16a.3.3 0 0 1 .08.02c.34.14.62.33.83.59a.4.4 0 0 0 .23.13c.41.08.79.26 1.13.56.13.29.27.56.43.82.07.12.13.2.18.23.22.14.43.3.62.46.1.09.2.13.28.14.1.01.2 0 .31-.05h.55c.53.02.99.21 1.37.57l.22.4c.3.55.29 1.04-.06 1.5-.12.17-.33.33-.48.47a.21.21 0 0 0-.05.23l.14.35c.02.05.03.11.03.17 0 .31.02.66.07 1.04.08.63-.15.96-.48 1.64-.14.3-.23.66-.27 1.07l-.07.76a2.9 2.9 0 0 1-1.09 1.94c-.23.19-.59.3-.8.43-.27.17-.44.31-.51.41-.47.65-.78 1.1-1.48 1.44l-.89.32c-.14.05-.36.19-.66.4a.13.13 0 0 0-.04.07c-.02.05-.03.15-.04.3-.02.36-.1.71-.22 1.06a7.95 7.95 0 0 1-1.13 2.08c-.25.33-.48.57-.82.93-.43.47-1 .94-1.73 1.41a9.1 9.1 0 0 1-2.29 1.16 6.39 6.39 0 0 0-.6.24.03.03 0 0 0 0 .03c.33.27.66.45 1.01.54.45.22.9.3 1.38.23.85-.13 1.6-.44 2.26-.93.28-.2.54-.49.78-.73l.3-.3c.42-.47.77-.86 1.06-1.16a4.61 4.61 0 0 1 1.68-1.24c.29-.1.51-.2.68-.32a2.33 2.33 0 0 1 1.91-.27 19.12 19.12 0 0 0 .86.2l.01.05c0 .08-.05.14-.13.18-.12.06-.2.11-.24.18a.13.13 0 0 0 .01.16l.72.7c.22.24.42.5.6.8.25.46.37.94.34 1.45-.12.1-.26.1-.42-.03-.34-.5-.87-.54-1.42-.41-.11.03-.19.08-.23.17l-.14.14a.13.13 0 0 1-.1.04.13.13 0 0 1-.1-.04 2.74 2.74 0 0 0-.9-.68l-.9-.54a.25.25 0 0 0-.22-.01c-.57.22-.96.43-1.44.9l-1.5 1.44a5.22 5.22 0 0 1-3.27 1.57l-1.02.05-.66-.24c-.53-.2-.93-.44-1.2-.7-.14-.16-.3-.3-.47-.43l-.33-.49a.16.16 0 0 0-.15-.07c-.73.09-1.52.08-2.34 0-.66-.25-1.1-.42-1.34-.53a8.52 8.52 0 0 1-3.12-2.81 26.48 26.48 0 0 1-1.87-3.12c-.5-.97-1-2.23-.09-3.15.27-.23.6-.37.97-.4l.08-.05a.12.12 0 0 0 .03-.08.12.12 0 0 0-.04-.08.11.11 0 0 0-.08-.03c-.5.03-1.02.1-1.52.24-.27 0-.44-.04-.52-.08l-.6-.39a.68.68 0 0 1-.23-.2.12.12 0 0 1 0-.1.11.11 0 0 1 .07-.07l.4-.11a.07.07 0 0 0 .05-.07.07.07 0 0 0-.05-.07c-.34-.13-.46-.34-.56-.7-.05-.2-.24-.3-.37-.48a.16.16 0 0 1 .02-.2.15.15 0 0 1 .05-.04c.27-.1.55-.1.83-.24a.9.9 0 0 1 .37-.08l.02-.02v-.03c-.02-.22-.2-.4-.26-.59a.12.12 0 0 1 .09-.15c.25-.06.46-.04.72-.11.5-.16.94.15 1.35.45h.02l.29.1h.03a.06.06 0 0 0 .04-.02l.01-.03c.1-1.03.26-2.04.56-3.04.03-.1.08-.16.1-.23a.04.04 0 0 0-.01-.04h-.02c-.9.04-1.03.69-1.29 1.42a.04.04 0 0 1-.03.03.04.04 0 0 1-.04-.02l-.02-.05a.07.07 0 0 1-.01-.04c.16-.8.38-1.48 1.34-1.55.1 0 .25.02.47.07.1.02.19.02.28.02a5.36 5.36 0 0 1 1.25.02.06.06 0 0 0 .02-.04c-.02-1.13.57-1.91 1.26-2.77l.1-.15c.06-.1.2-.4.4-.9.22-.5.56-.92 1.04-1.25.35-.25.72-.83 1.1-1.1a3.37 3.37 0 0 1 1.23-.53v-.03c-.02-.79.1-1.53.67-2.09.3-.29.63-.44 1.03-.45.48-.01.77.23 1.1.54Z" fill="#050404"/><path d="M25.8 16.75a5.05 5.05 0 0 1-.16-1.06c-.06-.9.36-2.11 1.4-2.21.45-.04.8.15 1.06.57.3.5.46 1.04.47 1.6l-.02.07c-.07.1-.15.13-.24.11-.3-.06-.53.01-.68.22l-.02.01a.03.03 0 0 1-.03-.02l-.02-.53c-.01-.44-.12-.8-.32-1.08-.17-.23-.38-.27-.65-.12a.98.98 0 0 0-.3.35.18.18 0 0 0 0 .19l.02.03a.07.07 0 0 0 .06.04.06.06 0 0 0 .06-.04c.1-.2.19-.33.25-.37.2-.13.35-.1.45.12a3.68 3.68 0 0 1 .27 1.48h-.03l-.33-.11c-.25-.09-.48.4-.57.6a.16.16 0 0 1-.2.1.67.67 0 0 0-.21-.05.14.14 0 0 0-.1.04l-.1.08a.04.04 0 0 1-.03.01.04.04 0 0 1-.03-.03Z" fill="#F0BA14"/><path d="m29.68 14.98-.9.14a.04.04 0 0 1-.05-.04c-.1-.45-.26-.87-.5-1.28.42-.03.76.11 1.04.43.18.23.32.47.41.75Z" fill="#16340E"/><path d="M20.46 15.51v-.03c.34-.82 1.81-.44 1.47.52 0 .03-.02.05-.05.06a.1.1 0 0 1-.07.01h-.03a.05.05 0 0 1-.03-.02.05.05 0 0 1-.01-.04c.04-.26.09-.49-.12-.62-.41-.26-.77-.21-1.08.13l-.02.02h-.02a.06.06 0 0 1-.04-.03Z" fill="#050404"/><path d="M21.74 23.06a3.67 3.67 0 0 0-1.12-.39.16.16 0 0 1-.1-.06.16.16 0 0 1-.03-.1c.05-1.12.56-1.77 1.22-2.6l.1-.16c.15-.3.33-.7.55-1.2.12-.27.43-.6.7-.8.33-.25.61-.53.87-.87.07-.1.24-.25.35-.32a6.27 6.27 0 0 1 1.16-.56l.01.02.01.02a2.75 2.75 0 0 0 .24.84.06.06 0 0 1-.02.04l-.02.01a1.07 1.07 0 0 1-.7.01.05.05 0 0 0-.04.04v.05l.02.02c.3.15.6.16.9.02.12-.05.2-.24.36-.18.18.09.3.03.4-.12a6.49 6.49 0 0 0 .34-.55H27l.39.13c.22.07.38-.15.52-.27a.2.2 0 0 1 .11-.05c.24-.02.43.1.64-.1.13-.13.28-.23.43-.28a.07.07 0 0 0 .05-.06.07.07 0 0 0-.03-.07.24.24 0 0 0-.24-.03h-.06a.09.09 0 0 1-.05-.05.1.1 0 0 1 .03-.11c.34-.25 1.09-.07 1.47.1.12.05.28.06.49.03.47-.08.84-.14 1.1-.17.53-.06 1 .1 1.37.5.4.4.72.68 1.25.79.62.12 1.2.23 1.47.8.18.4.32.66.64.9a87.22 87.22 0 0 1 .58.47.03.03 0 0 1-.01.02l-.73.37h-.03l-.02-.02a.46.46 0 0 0-.29-.23h-.02a.04.04 0 0 0-.03.05l.01.02c.16.14.24.33.25.58.01.18.16.26.22.39.03.04.03.1.03.14-.07.34-.13.73.22.81l.47.14a.12.12 0 0 1 .06.13l-.08.4a.22.22 0 0 0 .1.23l.21.12a.1.1 0 0 1 .04.12c-.13.34.22.46.46.53a.08.08 0 0 0 .1-.04.08.08 0 0 0-.01-.1.42.42 0 0 0-.2-.12.04.04 0 0 1 0-.07l.01-.01a3.24 3.24 0 0 0 1.2-.4.06.06 0 0 1 .05.03c.17.36.13.64.15 1.01 0 .06 0 .12.02.18.08.45.12.68-.05 1.07l-.42.92c-.22.5-.24 1.06-.28 1.53-.06.91-.5 1.81-1.34 2.2-.36.18-.62.31-.88.54-.25.22-.48.63-.66.85a2 2 0 0 1-.82.63l-1.07.42c-.13.05-.25.12-.36.2-.16.13-.42.31-.8.56-.46.3-.96.37-1.49.18-.48-.16-.73-.27-1.12-.3a19.1 19.1 0 0 0-1.02-.07c-.6 0-1.12-.16-1.58-.48-.57-.38-1.33-1-2.12-1.17-.59-.13-1.18-.21-1.72-.5a.14.14 0 0 1-.08-.12c-.03-1.1-.94-1.79-1.9-2.12a.58.58 0 0 1-.16-.08l-.01-.01v-.04l.01-.02c.58-.37 1-.9 1.25-1.59.34-.9.14-1.9-.72-2.42a.08.08 0 0 1-.03-.04v-.05l.2-1.04a.06.06 0 0 0 0-.05.06.06 0 0 0-.04-.02h-.02a.04.04 0 0 0-.06.02 3.25 3.25 0 0 0-.25 1.01l-.02.02a.05.05 0 0 1-.04 0Z" fill="#91590E"/><path d="M37.81 18.59a.63.63 0 0 1-.31.05.52.52 0 0 1-.28-.14c-.2-.17-.4-.32-.62-.46a.7.7 0 0 1-.18-.23c-.16-.26-.3-.53-.43-.82.4.02.74.16 1.01.43.23.22.39.59.55.89.03.06.12.15.26.28Z" fill="#16340E"/><path d="M27.85 17.42c.2-.18.44-.21.75-.17.41.06.76.06 1.17-.02.64-.12 1.24-.18 1.77.28.3.27.52.44.63.5.8.38 1.44.65 1.55 1.65l.03.74c0 .44.09.76.16 1.25.08.58-.07 1.1-.39 1.62-.22.36-.47.78-.66 1.24-.24.55-.34.85-.59 1.21-.2.3-.48.5-.8.8-.56.49-.9 1.1-1.6 1.42-.1.06-.3.1-.55.14-.35.05-.65.1-.9.17-.47.13-.77.19-.9.2a2.94 2.94 0 0 1-1.8-.54c-.2-.14-.43-.36-.66-.66-.25-.31-.46-.5-.73-.73-.9-.78-.38-1.92-.48-2.82-.09-.77-.08-1.54.33-2.17l.52-.75c.3-.43.54-.92.76-1.36.06-.13.24-.37.38-.48.42-.34.68-.55 1.08-.76.31-.17.63-.5.93-.76Z" fill="#050404"/><path d="M27.91 17.65c.27-.25.51-.22.9-.15.29.04.68 0 1.15-.08.3-.05.6-.06.88-.03.22.03.37.13.56.3.36.3.58.48.68.53.59.25 1.14.49 1.37 1.14.05.15.08.43.08.84 0 .4.05.89.16 1.46.07.35.02.73-.15 1.14-.04.1-.23.43-.59 1-.3.5-.49 1.28-.9 1.87-.06.09-.22.25-.49.47-.63.54-1.05 1.25-1.78 1.62-.07.04-.23.07-.47.1a8.7 8.7 0 0 0-1.15.24 2.62 2.62 0 0 1-2.83-.84l-.22-.3c-.22-.27-.5-.47-.77-.73-.38-.37-.37-.98-.31-1.61.04-.51.04-.98 0-1.42-.06-.5.02-.96.23-1.38.07-.15.26-.44.58-.9.35-.49.46-.73.77-1.33.26-.54.98-1 1.5-1.27.12-.07.39-.3.8-.67Z" fill="#F0BA14"/><path d="M13.3 21.71a.04.04 0 0 1 0 .05.04.04 0 0 1-.05.01c-.27-.15-.4-.28-.59-.55a4.48 4.48 0 0 1-.54-1.29c-.2-.7-.19-1.51.3-2.07.37-.41 1.01-.5 1.48-.3a1.59 1.59 0 0 1 .74.63.08.08 0 0 0 .09 0c.26-.18.53-.15.8.08a.05.05 0 0 0 .06 0l.02-.01.09-.24c.23-.62 1.06-.75 1.56-.4.34.25.65.66.5 1.1l-.05.05a.11.11 0 0 1-.08.02h-.02a.06.06 0 0 1-.04-.03.06.06 0 0 1 0-.05c.22-.78-.92-1.4-1.48-.89-.3.27-.29.55-.34.9a.08.08 0 0 1-.07.06.08.08 0 0 1-.08-.04c-.14-.29-.42-.62-.75-.37a33.4 33.4 0 0 0-.2.17.06.06 0 0 1-.07-.04 1.3 1.3 0 0 0-1.36-.82c-.2 0-.41.1-.6.27-.42.38-.46 1.12-.36 1.65.1.57.31 1.1.62 1.62.12.2.32.36.42.5ZM18.43 19.53c.07-.31.37-1 .74-1a.06.06 0 0 1 .06.04v.04l-.02.03c-.38.3-.59.7-.62 1.2a.08.08 0 0 1-.05.07.08.08 0 0 1-.07-.01.85.85 0 0 0-.38-.19c-.44-.07-.78.05-1.04.36a.05.05 0 0 1-.07 0 .05.05 0 0 1-.01-.07c.28-.43.68-.59 1.2-.47l.2.04a.06.06 0 0 0 .06-.04ZM28.2 18.6a.11.11 0 0 0 0 .15l.83 1c.03.04.1.05.15 0 .04-.03.05-.1.01-.15l-.83-.99a.1.1 0 0 0-.15-.01Z" fill="#050404"/><path d="M36.86 19.77a.15.15 0 0 1-.23-.04l-.14-.25a.18.18 0 0 1 .02-.2.17.17 0 0 1 .06-.05c1.05-.45 2.5-.84 3.2.44.68 1.26-.9 2.2-1.9 2.33a.06.06 0 0 1-.07-.05c-.03-.15-.13-.25-.3-.3a.09.09 0 0 1-.05-.05.1.1 0 0 1 0-.07c.07-.28.14-.63-.2-.75-.19-.06-.33-.1-.44-.1a.12.12 0 0 1-.08-.04.12.12 0 0 1-.03-.08c-.01-.18.01-.35.08-.51a.18.18 0 0 1 .08-.09c.6-.33 1.53-.63 1.9.2v.24a.1.1 0 0 0 .11.04.1.1 0 0 0 .05-.04c.07-.1.08-.22.03-.33-.24-.52-.64-.74-1.21-.65-.4.06-.69.18-.88.35Z" fill="#F0BA14"/><path d="M27.5 39.55a2.46 2.46 0 0 1-1.03-.56v-.01a.03.03 0 0 1 .02-.03 9.11 9.11 0 0 0 2.88-1.37c.73-.47 1.3-.94 1.73-1.4.34-.37.57-.6.82-.94.47-.62.85-1.31 1.13-2.08.13-.35.2-.7.22-1.05 0-.16.02-.26.04-.31 0-.03.02-.05.04-.07.3-.21.52-.35.66-.4l.89-.32c.7-.33 1-.79 1.48-1.44.07-.1.24-.24.5-.4.22-.14.58-.25.81-.44a2.9 2.9 0 0 0 1.09-1.94l.07-.76c.04-.41.13-.77.27-1.07.33-.68.56-1 .48-1.64a7.61 7.61 0 0 1-.07-1.04.47.47 0 0 0-.03-.17l-.14-.35a.22.22 0 0 1 .05-.23c.15-.14.36-.3.48-.47.35-.46.37-.95.06-1.5l-.22-.4c.6.03 1.05.3 1.35.84.38.7.3 1.3-.26 1.85a7.94 7.94 0 0 1-.32.3.1.1 0 0 0 0 .06l.19.58a5.3 5.3 0 0 0 .1 1.14c.05.32-.1.7-.27 1.03a4.09 4.09 0 0 0-.53 1.85 3.09 3.09 0 0 1-1.04 2.36c-.31.26-.74.42-1.05.61-.46.3-.7.88-1.1 1.26-.4.4-.93.57-1.54.79-.27.1-.51.23-.73.41a.22.22 0 0 0-.08.16c-.08 1.57-1 3.08-2.09 4.2a10.75 10.75 0 0 1-4.14 2.66c-.24.08-.48.18-.73.29Z" fill="#16340E"/><path d="M28.79 20.62c.14-.26.15-.53.01-.6-.13-.09-.36.06-.5.32-.15.26-.15.53-.02.61.14.08.37-.07.51-.33ZM31.57 20.55l-1.67-.53a.12.12 0 0 0-.15.08c-.02.07.02.14.08.16l1.67.53c.06.02.13-.02.15-.08a.12.12 0 0 0-.08-.16ZM29.75 21.16c.15-.28.16-.57.02-.65-.14-.08-.38.08-.53.36-.15.28-.15.57-.01.64.14.08.37-.08.52-.35ZM21.56 22.4a.11.11 0 0 1-.06-.06.28.28 0 0 1-.02-.11c0-.05 0-.1.02-.15a.9.9 0 0 1 .04-.15l.19-.44.07-.14a.6.6 0 0 1 .1-.11.28.28 0 0 1 .09-.06.1.1 0 0 1 .08 0l-.5 1.21ZM27.27 23.65c-.1-.09-.2-.16-.3-.26-.41-.52-.36-1.31-.03-1.85.15-.25.45-.35.76-.28.3.08.54.16.73.26.49.26 1.19.84 1.03 1.45-.1.39-.61.66-1 .8-.34.13-.65.13-.92 0a.06.06 0 0 0-.08.03l-.2.35a.11.11 0 0 0-.01.09l.2.72a.15.15 0 0 1-.05.15l-.02.02a.07.07 0 0 1-.12-.04l-.2-.76a.05.05 0 0 0-.06-.04l-.74.1a.06.06 0 0 1-.05-.01.06.06 0 0 1-.02-.05v-.04c0-.02.01-.05.03-.07a.12.12 0 0 1 .07-.04l.72-.1a.05.05 0 0 0 .04-.02l.23-.35v-.06Z" fill="#050404"/><path d="M17.94 31.52a.1.1 0 0 1-.07-.09 57.54 57.54 0 0 1-.08-4.37l.19-1.67c.1-.87.26-1.63.47-2.4a.2.2 0 0 1 .15-.13 4.92 4.92 0 0 1 2.9.32c.69.29 1.07.76 1.14 1.41.08.8-.3 1.5-.83 2.08-.1.13-.26.24-.46.34-.22.11-.56.25-.6.3a.12.12 0 0 0 0 .11.11.11 0 0 0 .1.06c.81.05 1.5.37 2.04.96.53.58.52 1.44.16 2.09a.16.16 0 0 1-.09.07c-.3.12-.54.2-.7.47l-.12.22a.13.13 0 0 1-.07.06c-.17.06-.38.09-.53.18-.32.18-.36.4-.5.7a.08.08 0 0 1-.07.05c-.47.01-.82 0-1.06-.06a8.2 8.2 0 0 1-1.04-.39 7.65 7.65 0 0 0-.93-.3Z" fill="#EF8915"/><path d="M19.26 25.24c.03-.37.06-.77.5-.69.44.08.92.3.96.78 0 .14-.05.27-.17.39-.34.35-.95.36-1.24-.06-.09-.12-.06-.29-.05-.42Z" fill="#050404"/><path d="M19.6 24.78c.14 0 .57.07.67.24l.01.04.08.44a.14.14 0 0 1-.06.15c-.22.14-.65.17-.8-.12a.15.15 0 0 1-.03-.08l.06-.6a.07.07 0 0 1 .07-.07Z" fill="#2E6F1B"/><path d="M15.87 26.64h.03l.02-.03a.04.04 0 0 0-.02-.05l-.25-.15a.09.09 0 0 1-.04-.07c-.01-.5.23-.73.74-.68.14.01.32.1.53.25a7.81 7.81 0 0 0 .75.48v.03a11.95 11.95 0 0 0-.08 2.3.06.06 0 0 1-.04.02c-.44 0-.87.06-1.29.17-.48.13-1.2.09-1-.66 0-.02.02-.03.03-.04l.05-.01.2.02c.03 0 .07 0 .1-.03a.16.16 0 0 0 .06-.07v-.03a.08.08 0 0 0 0-.07.07.07 0 0 0-.07-.03c-.36.03-.83-.13-.9-.55-.08-.57.46-.98.97-.85l.21.05Z" fill="#F0BA14"/><path d="m15.52 25.78-.04.07a.05.05 0 0 1-.04 0l-.03-.01a.06.06 0 0 1 0-.08c.02-.04.05-.05.09-.03l.02.03v.02Z" fill="#2E6F1B"/><path d="M44 27.57v.2c-.5-.2-.93-.12-1.28.22a.18.18 0 0 1-.04.03.08.08 0 0 1-.07-.02l-.02-.04v-.04c.08-.44.1-1.88-.6-1.88-.36 0-.66.16-.88.47a.08.08 0 0 1-.14-.03c-.07-.24-.22-.56-.52-.5a.04.04 0 0 1-.05-.03.05.05 0 0 1 .02-.06.27.27 0 0 1 .28-.05.1.1 0 0 1 .04.03l.34.3a.06.06 0 0 0 .08 0c.23-.21.49-.32.78-.33.82-.03.92 1.15.92 1.73v.02h.04c.37-.17.73-.18 1.1-.02Z" fill="#050404"/><path d="M14.36 26.92a.03.03 0 0 1 0-.05h.02a.35.35 0 0 1 .06-.05.25.25 0 0 1 .05-.02h.05c.02 0 .03 0 .04.02.02.02.02.05 0 .09a.31.31 0 0 1-.08.1l-.01.01h-.03a.03.03 0 0 1-.02 0l-.08-.1Z" fill="#2E6F1B"/><path d="M34.68 28.23c.04.03.04.1 0 .18a.79.79 0 0 1-.16.26l-.3.31a.77.77 0 0 1-.26.18c-.08.03-.14.03-.18 0v-.01l.9-.92Z" fill="#050404"/><path d="m14.8 28.47.15-.04a.05.05 0 0 1 .06.03v.14a.04.04 0 0 1-.05.02l-.16-.1a.03.03 0 0 1 0-.04Z" fill="#2E6F1B"/><path d="M18.99 30.46c-.01-.07 0-.56.06-1.48.01-.17.1-.28.25-.31.92-.22 2.18.05 2.29 1.2.06.75-.72 1.07-1.33 1.01-.3-.03-.65-.1-1.03-.23-.12-.04-.19-.07-.21-.11a.22.22 0 0 1-.03-.08ZM33.53 28.6l-1.19.68a.09.09 0 0 0-.03.12c.03.05.08.06.12.04l1.2-.68a.09.09 0 0 0 .03-.12.09.09 0 0 0-.13-.04Z" fill="#050404"/><path d="m19.53 29.44.41.26a.1.1 0 0 0 .14-.02.1.1 0 0 0-.02-.14 3.5 3.5 0 0 0-.77-.45.1.1 0 0 1-.01-.13c.04-.07.11-.1.21-.12.76-.07 1.67.05 1.86.9.15.72-.55.98-1.11.92-.24-.03-.5-.09-.78-.19a.17.17 0 0 1-.07-.05c-.22-.26-.2-.55-.12-.88a.17.17 0 0 1 .1-.12.17.17 0 0 1 .16.02Z" fill="#F0BA14"/><path d="m16.48 29.6-.56-.4a7.6 7.6 0 0 1 1.56-.22.1.1 0 0 1 .07.05v.05c0 .03 0 .06-.02.08a.12.12 0 0 1-.08.04c-.38.04-.7.18-.97.4Z" fill="#16340E"/><path d="M17.51 29.43a.04.04 0 0 1 .04.02v.02l.06 1.32a.21.21 0 0 1-.09.19c-.2.13-.56.3-.8.25-.34-.07-.5-.28-.49-.65.02-.67.65-1.11 1.28-1.15Z" fill="#91590E"/><path d="M16.24 31.3v-.03h.03c.46.33.88.18 1.31-.09h.04l.01.02.01.02.02.41.01.05.04.02c.2.05.54.13.8.23l1.06.42a3.53 3.53 0 0 0 1.4.17s.02.01.02.03c.04.18.1.3.18.39a.07.07 0 0 1 .02.09c-.15.27-.3.33-.52.5-.06.06-.1.1-.1.15 0 .04.02.08.05.11.02.04.06.06.1.07.2.05.4.14.58.26.22.15.5.19.71.14a10.37 10.37 0 0 1 .88-.14.05.05 0 0 1 .01.04c-.03.46 0 .9.07 1.34.02.14.07.27.13.37a.1.1 0 0 0 .08.05c.03 0 .07 0 .1-.02v-.04a6.1 6.1 0 0 1-.2-1.75l.01-.01h.02a11.45 11.45 0 0 1 2.61.43l.01.03c-.01.63.14 1.2.46 1.74a.13.13 0 0 0 .14.06h.01a.08.08 0 0 0 .05-.05.08.08 0 0 0 0-.07 4.36 4.36 0 0 1-.5-1.67h.03l1.17.24a.05.05 0 0 0 .06-.02v-.02l.01-.03a.05.05 0 0 0-.03-.05 17.95 17.95 0 0 0-3.08-.74c-.55-.08-.98-.09-1.29-.04l-.89.14c-.52.05-.84-.38-.54-.85a.07.07 0 0 1 .1-.02c.1.06.2.1.32.1a.1.1 0 0 0 .06-.01.1.1 0 0 0-.03-.17c-.7-.2-.83-1.13-.13-1.47.27-.14.56-.17.86-.1a.05.05 0 0 0 .05-.04v-.03a.05.05 0 0 0-.01-.03.56.56 0 0 0-.21-.09.05.05 0 0 1-.03-.02.05.05 0 0 1 0-.04c.14-.41.48-.62.89-.42a1.18 1.18 0 0 1 .3.3l.24.42.01.02c.2.23.45.39.74.47.67.2 1.44.3 2.33.3a2.8 2.8 0 0 0 .56-.07.05.05 0 0 0-.03-.08c-.8-.1-2.1-.07-3.06-.46a1.06 1.06 0 0 1-.48-.5c-.13-.26-.3-.46-.52-.6a.06.06 0 0 1-.02-.07 2.04 2.04 0 0 0 .24-.76.03.03 0 0 1 .03 0c.79.44 1.81.31 2.73.91l.96.66c.48.35 1 .54 1.56.56l1.28.09c.46.04 1.07.36 1.51.4a2.24 2.24 0 0 0 1.53-.53h.02v.03a7.44 7.44 0 0 1-1.98 3.88 10.5 10.5 0 0 1-4.1 2.7c-1.91.69-3.95.76-5.75-.22a9.4 9.4 0 0 1-3.08-3.13c-.6-.93-1.15-1.88-1.63-2.86a4.08 4.08 0 0 1-.35-1.03Z" fill="#F0BA14"/><path d="M44 30.58v.19c-.52.25-.94.61-1.28 1.08a.15.15 0 0 1-.18.06c-.2-.1-.35-.04-.46.17a.1.1 0 0 1-.09.05.09.09 0 0 1-.07-.06c-.2-.53-.52-.92-.98-1.18-1.17-.67-1.5.95-1.5 1.7-.01.3-.02.5-.04.66a.27.27 0 0 1-.2.24l-.3.08a.17.17 0 0 0-.1.08l-.1.19-.03.02h-.03a.05.05 0 0 1-.03-.05.57.57 0 0 1 .19-.37.12.12 0 0 1 .04-.02l.3-.1.05-.05a.11.11 0 0 0 .02-.07c-.01-.78.06-2.39 1.01-2.65.54-.15 1.2.34 1.52.77a5.19 5.19 0 0 1 .3.44h.05a.57.57 0 0 1 .38-.07.16.16 0 0 0 .15-.07c.37-.47.83-.81 1.38-1.04Z" fill="#050404"/><path d="m20.97 33.7-.06-.02-.02-.01a.04.04 0 0 1 0-.05 2.23 2.23 0 0 1 .05-.06.04.04 0 0 1 .04.01v.02l.02.07v.01a.03.03 0 0 1-.02.02h-.01Z" fill="#F0BA14"/><path d="m35.75 35.29-.01-.02v-.01a2.17 2.17 0 0 1 1.58-.25 20.2 20.2 0 0 1 .66.18c-.2.15-.24.32-.1.52.06.09.3.34.72.74a2.9 2.9 0 0 1 .89 1.84.05.05 0 0 1-.06.03l-.02-.02c-.47-.47-1-.6-1.64-.4-.15.06-.23.13-.36.25a.06.06 0 0 1-.08 0c-.4-.45-.8-.6-1.48-.94v-.02a.03.03 0 0 1 0-.03h.01c.62-.07.94-.4.97-1 0-.11-.04-.23-.14-.37a1.21 1.21 0 0 0-.94-.5Z" fill="#91590E"/><path d="M38.28 35.26a36.95 36.95 0 0 0 1.27.28.09.09 0 0 1 .03.07.09.09 0 0 1-.03.07l-.32.23a.13.13 0 0 0-.05.1.13.13 0 0 0 .04.1c.3.3.56.58.8.84.52.54.8 1.16.85 1.86 0 .1-.01.2-.05.29l-.03.04a.12.12 0 0 1-.1.02 24.3 24.3 0 0 1-.46-.35 1.3 1.3 0 0 0-.52-.26c.03-.5-.09-.99-.35-1.44-.17-.3-.37-.57-.6-.8l-.7-.7a.13.13 0 0 1-.01-.17.59.59 0 0 1 .23-.18Z" fill="#16340E"/><path d="M16.74 38.76a.01.01 0 0 0 .02 0c.3-.45.75-.81 1.32-.7.53.12.92.41 1.15.9a.14.14 0 0 1 0 .12l-.03.05-.03.02a.06.06 0 0 1-.07 0 .07.07 0 0 1-.02-.03 1.32 1.32 0 0 0-.85-.8c-.77-.27-1.25.32-1.46.98 0 .02-.02.04-.04.05a.09.09 0 0 1-.1-.02.09.09 0 0 1-.03-.05c.01-.3-.2-1.15-.68-.97a.07.07 0 0 1-.08-.02.08.08 0 0 1-.01-.08c.06-.17.2-.4.22-.67.05-.63-.23-1.42-.76-1.77-.63-.43-1.42-.22-1.85.37a4.72 4.72 0 0 0-.25.38.12.12 0 0 1-.16-.02l-.39-.4c-.13-.13-.26-.12-.39 0a.04.04 0 0 1-.06 0 .05.05 0 0 1 0-.05c.28-.45.64-.02.88.19h.02a.06.06 0 0 0 .07-.02c.12-.23.29-.41.49-.56 1.51-1.12 3.03.84 2.5 2.34v.03l.02.02.29.2.02.02.26.49Z" fill="#050404"/><path d="M25.61 39.17a.04.04 0 0 1 0-.04.04.04 0 0 1 .03-.02l.52-.07a.13.13 0 0 1 .1.03c.55.5 1.12.8 1.7.9 1.23.22 2.47-.32 3.45-1.05l.6-.58c.84-.85 1.49-1.75 2.45-2.43a3.28 3.28 0 0 1 1.24-.45c.4.06.69.24.88.54.02.04.04.08.04.12 0 .4-.17.66-.52.78-.23.08-.6 0-.8.07-.6.2-1.09.48-1.46.82l-1.58 1.55a5.5 5.5 0 0 1-3.03 1.5 3.48 3.48 0 0 1-3.62-1.67Z" fill="#F0BA14"/><path d="M36.4 37.74c-1.01.35-1.5.94-2.43 1.88-.27.27-.53.5-.78.73A5.69 5.69 0 0 1 30 41.63a2.9 2.9 0 0 1-1.96-.48l1.02-.05a5.22 5.22 0 0 0 3.26-1.57l1.51-1.45c.48-.46.87-.67 1.44-.9a.25.25 0 0 1 .22.02l.9.54ZM39.3 38.52l-.38.13a.12.12 0 0 0-.03.02.61.61 0 0 0-.17.22.15.15 0 0 1-.1.08.14.14 0 0 1-.14-.04 4.18 4.18 0 0 0-.84-.65c.04-.09.12-.14.23-.17.55-.13 1.08-.08 1.42.4Z" fill="#16340E"/><path d="M15.28 40.17a1.2 1.2 0 0 0-.91-.07.06.06 0 0 1-.08-.04v-.03a.58.58 0 0 0-.04-.44c-.19-.36-.29-.6-.67-.67a.06.06 0 0 1-.04-.03.07.07 0 0 1-.01-.04v-.04l.03-.01c.54.02.83.51.98.97 0 .02.01.04.03.05l.05.02c.2-.01.43.02.67.1l.07.06.02.09v.03a.07.07 0 0 1-.07.06h-.03Z" fill="#050404"/><path d="M25.72 39.78a6.59 6.59 0 0 1-2.48-.37 1.4 1.4 0 0 1-.34-.2 10.67 10.67 0 0 0 2.43.03c.02 0 .05.03.06.05l.33.49Z" fill="#16340E"/><path d="M18.26 42.04h-.05a.04.04 0 0 1-.01-.06c.18-.34.49-.3.83-.26a.13.13 0 0 0 .1-.04l.23-.29c.27-.34.7-.67 1.13-.74.73-.12 1.38.51 1.45 1.23l.03.06.05.02c.27 0 .46.12.59.34a.07.07 0 0 0 .1.03c.42-.22.89-.3 1.4-.24.22.03.4.08.53.16a.17.17 0 0 1 .07.16v.02a.06.06 0 0 1-.04.06.06.06 0 0 1-.06-.01.8.8 0 0 0-.46-.18c-.55-.06-1.07 0-1.51.34a.06.06 0 0 1-.1-.03c-.1-.33-.34-.55-.68-.35a.08.08 0 0 1-.12-.04v-.04c.04-.38-.07-.72-.33-1-.47-.5-1.03-.37-1.53-.02-.23.15-.4.42-.57.64-.16.2-.38.1-.62.07-.18-.02-.3.05-.43.17ZM36.75 44h-.19c.09-.17.2-.33.35-.48.12-.14.27-.24.46-.3a.07.07 0 0 0 .04-.1 2.33 2.33 0 0 1-.09-1.33c.4-1.74 2.34-.57 2.93.19a.07.07 0 0 0 .09.02c.08-.04.14-.14.26-.18.17-.06.33 0 .47.17a.07.07 0 0 0 .05.02.07.07 0 0 0 .05-.02c.27-.25.6-.38.97-.4a.1.1 0 0 1 .07.02.1.1 0 0 1 .04.06.08.08 0 0 1 0 .06.08.08 0 0 1-.06.04c-.4.08-.83.13-.96.6 0 .02-.01.03-.03.04a.08.08 0 0 1-.12-.03c-.05-.12-.18-.35-.3-.37-.05-.01-.1 0-.15.02a.27.27 0 0 0-.1.1 3.04 3.04 0 0 0-.16.3.06.06 0 0 1-.06 0l-.02-.02a2.76 2.76 0 0 0-1.65-1.26c-.45-.14-.88-.06-1.04.44-.13.4-.16.78-.09 1.14a29.3 29.3 0 0 1 .1.56c0 .02-.02.03-.04.04l-.33.17a.2.2 0 0 0-.06.04l-.43.46Z" fill="#050404"/></svg>