<!-- by TradingView --><svg width="56" height="56" viewBox="0 0 56 56" xmlns="http://www.w3.org/2000/svg"><path fill="#181B1E" d="M0 0h56v56H0z"/><path d="M27 17.02c0-.43-.27-.81-.68-.96l-8.32-3c-.38-.14-.8-.04-1.1.24l-4.6 4.6c-.28.3-.38.72-.23 1.1L15.48 28l-3.41 9.02c-.15.38-.05.8.23 1.09l4.6 4.58c.3.28.72.37 1.1.24l8.32-2.97c.4-.15.68-.54.68-.97v-1.67c0-.27-.1-.53-.3-.73l-2.35-2.32-5.64 1.96 1.97-5.6-2.69-2.66 2.69-2.66-2-5.62 5.7 1.96 2.32-2.3c.2-.19.3-.45.3-.72v-1.62ZM29 17.02c0-.43.27-.81.68-.96l8.32-3c.38-.14.8-.04 1.1.24l4.6 4.6c.28.3.38.72.23 1.1L40.52 28l3.41 9.02c.15.38.05.8-.23 1.09l-4.6 4.58c-.3.28-.72.37-1.1.24l-8.32-2.97A1.03 1.03 0 0 1 29 39v-1.67c0-.27.1-.53.3-.73l2.35-2.32 5.64 1.96-1.97-5.6 2.69-2.66-2.69-2.66 2-5.62-5.7 1.96-2.32-2.3c-.2-.19-.3-.45-.3-.72v-1.62Z" fill="#CBFBE5"/></svg>