<?xml version="1.0" encoding="UTF-8"?>
<!DOCTYPE svg PUBLIC "-//W3C//DTD SVG 1.1//EN" "http://www.w3.org/Graphics/SVG/1.1/DTD/svg11.dtd">
<svg xmlns="http://www.w3.org/2000/svg" version="1.1" width="64px" height="64px" style="shape-rendering:geometricPrecision; text-rendering:geometricPrecision; image-rendering:optimizeQuality; fill-rule:evenodd; clip-rule:evenodd" xmlns:xlink="http://www.w3.org/1999/xlink">
<g><path style="opacity:1" fill="#f7dbb6" d="M -0.5,-0.5 C 20.8333,-0.5 42.1667,-0.5 63.5,-0.5C 63.5,20.8333 63.5,42.1667 63.5,63.5C 42.1667,63.5 20.8333,63.5 -0.5,63.5C -0.5,42.1667 -0.5,20.8333 -0.5,-0.5 Z"/></g>
<g><path style="opacity:1" fill="#5b2d17" d="M 22.5,14.5 C 28.0531,14.8712 33.5531,14.8712 39,14.5C 45.1876,17.3469 50.1876,21.6802 54,27.5C 54.8166,30.9643 54.4833,34.2976 53,37.5C 42.4942,48.178 30.3276,50.3447 16.5,44C 14.3333,41.8333 12.1667,39.6667 10,37.5C 8.63227,34.2617 8.29894,30.9283 9,27.5C 12.7693,22.2273 17.2693,17.894 22.5,14.5 Z"/></g>
<g><path style="opacity:1" fill="#f2efed" d="M 40.5,18.5 C 39.5,19.1667 38.5,19.8333 37.5,20.5C 37.6282,18.9102 38.2949,17.5769 39.5,16.5C 40.2975,16.9569 40.6309,17.6236 40.5,18.5 Z"/></g>
<g><path style="opacity:1" fill="#efebe9" d="M 37.5,20.5 C 38.4616,22.9856 39.2949,22.9856 40,20.5C 40.2784,21.4158 40.7784,22.0825 41.5,22.5C 40.3886,23.6597 39.3886,24.993 38.5,26.5C 37.2888,25.7261 37.2888,24.8928 38.5,24C 37.8921,23.1301 37.0588,22.6301 36,22.5C 33.33,25.9684 30.33,26.3017 27,23.5C 25.8861,27.4557 25.0527,27.4557 24.5,23.5C 23.448,23.6495 22.448,23.4828 21.5,23C 22.4016,20.7984 23.4016,18.6317 24.5,16.5C 25.2975,16.9569 25.6309,17.6236 25.5,18.5C 26.894,22.3784 28.0606,22.0451 29,17.5C 33.7789,14.1304 36.1122,15.4637 36,21.5C 36.3826,20.944 36.8826,20.6107 37.5,20.5 Z"/></g>
<g><path style="opacity:1" fill="#572d1a" d="M 25.5,18.5 C 25.728,20.3547 25.0613,21.1881 23.5,21C 24.0659,20.0053 24.7326,19.172 25.5,18.5 Z"/></g>
<g><path style="opacity:1" fill="#552916" d="M 31.5,16.5 C 32.6935,16.9704 33.3601,17.9704 33.5,19.5C 33.5629,21.4809 32.8962,23.1476 31.5,24.5C 30.2706,21.8013 30.2706,19.1346 31.5,16.5 Z"/></g>
<g><path style="opacity:1" fill="#917365" d="M 40.5,18.5 C 41.4345,19.5676 41.7678,20.901 41.5,22.5C 40.7784,22.0825 40.2784,21.4158 40,20.5C 39.2949,22.9856 38.4616,22.9856 37.5,20.5C 38.5,19.8333 39.5,19.1667 40.5,18.5 Z"/></g>
<g><path style="opacity:1" fill="#c78c41" d="M 18.5,35.5 C 15.9669,36.8537 14.3002,36.0204 13.5,33C 13.0945,31.1971 13.5945,29.3638 15,27.5C 16.4538,30.0711 17.6205,32.7378 18.5,35.5 Z"/></g>
<g><path style="opacity:1" fill="#e8a15c" d="M 23.5,30.5 C 23.9418,31.2312 24.1085,32.2312 24,33.5C 25.3086,31.1088 26.3086,31.1088 27,33.5C 28.6692,32.1537 29.8358,30.487 30.5,28.5C 31.2389,28.369 31.9056,28.5357 32.5,29C 30.7888,30.1332 30.2888,31.6332 31,33.5C 32.353,32.3147 33.5197,30.9814 34.5,29.5C 34.9106,30.2624 35.0773,31.2624 35,32.5C 36,31.5 37,30.5 38,29.5C 37.6692,31.0187 37.8359,32.352 38.5,33.5C 37.7375,34.2679 36.7375,34.7679 35.5,35C 30.8452,35.4992 26.1785,35.6658 21.5,35.5C 20.8333,35.5 20.1667,35.5 19.5,35.5C 19.4772,33.4004 20.1439,31.5671 21.5,30C 20.0773,28.588 20.244,27.4213 22,26.5C 22.8611,27.7476 23.3611,29.0809 23.5,30.5 Z"/></g>
<g><path style="opacity:1" fill="#a2562b" d="M 30.5,28.5 C 29.8358,30.487 28.6692,32.1537 27,33.5C 26.3086,31.1088 25.3086,31.1088 24,33.5C 24.1085,32.2312 23.9418,31.2312 23.5,30.5C 25.5994,29.3882 27.9327,28.7215 30.5,28.5 Z"/></g>
<g><path style="opacity:1" fill="#ed8744" d="M 43.5,35.5 C 36.0341,38.09 28.7007,38.09 21.5,35.5C 26.1785,35.6658 30.8452,35.4992 35.5,35C 36.7375,34.7679 37.7375,34.2679 38.5,33.5C 39.3143,31.7274 40.6476,31.2274 42.5,32C 43.3366,33.0113 43.67,34.1779 43.5,35.5 Z"/></g>
<g><path style="opacity:1" fill="#bf853e" d="M 44.5,35.5 C 45.3795,32.7378 46.5462,30.0711 48,27.5C 49.4055,29.3638 49.9055,31.1971 49.5,33C 48.6998,36.0204 47.0331,36.8537 44.5,35.5 Z"/></g>
<g><path style="opacity:1" fill="#e0a24b" d="M 18.5,35.5 C 18.8333,35.5 19.1667,35.5 19.5,35.5C 19.7214,36.7348 20.3881,37.7348 21.5,38.5C 21.1667,39.5 20.5,40.1667 19.5,40.5C 18.3044,40.1543 18.3044,39.6543 19.5,39C 18.5,38.6667 17.5,38.3333 16.5,38C 17.756,37.5831 18.4226,36.7498 18.5,35.5 Z"/></g>
<g><path style="opacity:1" fill="#e1a34c" d="M 43.5,35.5 C 43.8333,35.5 44.1667,35.5 44.5,35.5C 44.5774,36.7498 45.244,37.5831 46.5,38C 45.5,38.3333 44.5,38.6667 43.5,39C 44.6956,39.6543 44.6956,40.1543 43.5,40.5C 42.5,40.1667 41.8333,39.5 41.5,38.5C 42.6119,37.7348 43.2786,36.7348 43.5,35.5 Z"/></g>
<g><path style="opacity:1" fill="#d9d0cc" d="M 22.5,39.5 C 26.0993,39.2619 26.4327,40.2619 23.5,42.5C 22.6143,41.675 22.281,40.675 22.5,39.5 Z"/></g>
<g><path style="opacity:1" fill="#cdc1bc" d="M 32.5,39.5 C 33.2389,39.369 33.9056,39.5357 34.5,40C 33.8878,41.3033 33.5545,42.4699 33.5,43.5C 32.5713,42.3112 32.238,40.9778 32.5,39.5 Z"/></g>
<g><path style="opacity:1" fill="#ded5d1" d="M 35.5,40.5 C 38.5572,39.0303 39.0572,39.697 37,42.5C 36.7216,41.5842 36.2216,40.9175 35.5,40.5 Z"/></g>
<g><path style="opacity:1" fill="#c1b1ab" d="M 26.5,39.5 C 27.2216,39.9175 27.7216,40.5842 28,41.5C 28.3333,40.8333 28.6667,40.1667 29,39.5C 29.6667,40.8333 30.3333,40.8333 31,39.5C 31.6667,40.8333 31.6667,42.1667 31,43.5C 30.3741,41.0087 29.5407,41.0087 28.5,43.5C 27.5,43 26.5,42.5 25.5,42C 26.2524,41.3292 26.5858,40.4959 26.5,39.5 Z"/></g>
</svg>
