<!-- by TradingView --><svg width="56" height="56" viewBox="0 0 56 56" xmlns="http://www.w3.org/2000/svg"><path fill="#F0F3FA" d="M0 0h56v56H0z"/><path d="M25.01 11.17c-.6.4-1.28.32-2.05-.26a.7.7 0 0 1-.2-.91l.39-.66.41-.3a.24.24 0 0 1 .27 0l.8.38c.05.03.09.08.1.13.03.06.02.12 0 .17-.13.26-.07.46.16.63.04.03.07.07.09.12.02.05.02.1 0 .14-.06.22-.05.4.03.56Z" fill="#3E251E"/><path d="m29.6 17.32-.01.04c-.17-.2-.34-.3-.5-.3-.11.02-.2.07-.24.16l-1.44 2.72a.25.25 0 0 0 0 .25c.08.12.22.2.43.22 0 .05.02.11.05.17l-.47.84a.32.32 0 0 0 .14.46l3.45 1.7a.15.15 0 0 0 .12.01.16.16 0 0 0 .09-.07l.5-.94a.2.2 0 0 1 .11-.1.2.2 0 0 1 .16.01l1.48.74a.27.27 0 0 1 .14.15.25.25 0 0 1-.02.2l-.7 1.32c-.1.19-.24.23-.43.14l-4.56-2.26a.4.4 0 0 0-.32-.01c-.26.1-.3.28-.1.55.07.08.17.17.3.26a.15.15 0 0 1 .04.2c-.07.1-.11.2-.14.3-.02.1 0 .19.09.26.1.08.23.15.4.21-.05-.05-.06 0-.01.14a.64.64 0 0 0-.18.36c0 .04 0 .09.02.13.03.03.06.07.1.09l1.22.59-1.66 2.8c-.08.12-.05.22.09.29.35.16.65.38.9.64.07.07.08.14.04.22l-.93 1.75a4.63 4.63 0 0 0-2.41 2.88c-.17.18-.36.22-.56.11-.28-.15-.45-.21-.64-.33-.09-.06-.11-.14-.06-.23l.75-1.41c.1-.18.05-.32-.14-.41l-.76-.38c-.2-.1-.36-.05-.46.14l-1.09 2.05a.14.14 0 0 1-.09.07.16.16 0 0 1-.11 0l-1.6-.8a.23.23 0 0 0-.3.1l-.18.3c-.06.1-.14.12-.24.07l-1.43-.7a.31.31 0 0 0-.27-.02c-.16.07-.25.17-.26.3-.02.14-.1.18-.22.11l-.92-.45c-.14-.08-.18-.18-.1-.32l.4-.78a.25.25 0 0 1 .17-.13.27.27 0 0 1 .2.02l.82.46a.2.2 0 0 0 .27-.07l.11-.19a.26.26 0 0 1 .24-.13h.46c.1 0 .19-.04.24-.13.23-.32.4-.68.48-1.05a.27.27 0 0 1 .11-.02c.12.23.28.34.48.34a.28.28 0 0 0 .23-.13l.16-.27c.06-.1.14-.12.25-.07l.27.13c.12.06.2.04.26-.08l3.04-5.74c.1-.2.25-.24.45-.14l.7.34c.18.1.32.05.4-.12l.38-.7c.1-.18.05-.31-.13-.4l-.86-.42a.2.2 0 0 1-.1-.12.19.19 0 0 1 0-.15l1.17-2.19c.04-.08.03-.16-.05-.22a.47.47 0 0 0-.26-.1.2.2 0 0 1-.16-.1.2.2 0 0 1 0-.18l.78-1.48c.05-.1.03-.2-.07-.26-.38-.27-.36-.64.06-1.1a.4.4 0 0 0 .09-.15c.02-.05.02-.1.01-.15 0-.05-.03-.1-.06-.13a.22.22 0 0 0-.12-.07c-.06-.02-.11-.07-.16-.17a.44.44 0 0 1-.06-.27c.06-.4-.2-.6-.29-.9l-.7-2.31c-.03-.12-.08-.2-.15-.24l-.68-.43a.19.19 0 0 1-.08-.15v-.11a.23.23 0 0 1 .11-.2.24.24 0 0 1 .23 0l7.25 3.58c.1.04.13.12.1.22l-.1.3a.25.25 0 0 0 .05.23c.05.06.14.14.27.22a.23.23 0 0 1 .1.23c0 .09-.07.15-.17.2-.05.02-.13.02-.24 0-.3-.05-.54.06-.74.33-.05.08-.12.1-.21.06-.36-.16-.74-.35-1.13-.57-.22-.12-.4-.17-.51-.14-.2.04-.33.2-.38.48Z" fill="#FECC48"/><path d="m44.15 17.11-.13 1.01c-.01.1-.07.17-.17.18a.56.56 0 0 1-.3-.03.22.22 0 0 0-.23.05c-.08.06-.27.31-.6.75a3.5 3.5 0 0 1-1.37 1 .26.26 0 0 0-.16.22c-.03.2.02.42.14.63-1.1.28-2.01.16-2.71-.35a.28.28 0 0 1-.06-.41.3.3 0 0 1 .13-.1c.78-.3 1.62-.44 2.3-.82a3.37 3.37 0 0 0 1.77-3.2c0-.04.01-.08.04-.11a.22.22 0 0 1 .09-.08.23.23 0 0 1 .24.03c.44.35.77.76 1.02 1.23Z" fill="#FDB833"/><path d="m29.59 17.36-1.75 3.05c-.2-.03-.35-.1-.42-.22a.25.25 0 0 1 0-.25l1.43-2.72c.05-.1.13-.15.24-.15.16 0 .33.09.5.3Z" fill="#0D0D0E"/><path d="M44.47 17.1c.17 1.04-.08 1.84-.78 2.41l-2.36 1.41a.97.97 0 0 1-.14-.64c.02-.1.07-.16.16-.2a3.5 3.5 0 0 0 1.37-1.01c.33-.44.52-.69.6-.75a.22.22 0 0 1 .24-.05c.1.04.2.05.29.03.1-.01.16-.07.17-.18l.13-1c.04.1.09.17.14.21.06.04.12-.03.18-.23Z" fill="#A86F28"/><path d="m19.22 27.77 1.11-2.1a.32.32 0 0 1 .2-.16.34.34 0 0 1 .24.02l1.33.65c.23.12.29.28.17.5l-.69 1.3c-.1.2-.25.24-.44.14l-.82-.4a.2.2 0 0 0-.15-.01.2.2 0 0 0-.12.1c-.17.35-.4.43-.7.25a.2.2 0 0 0-.22 0 .2.2 0 0 0-.06.06l-.12.2c-.08.15-.2.18-.36.1l-2.72-1.34a.19.19 0 0 1-.1-.17v-.5a.22.22 0 0 0-.11-.18c-.26-.17-.31-.4-.16-.67.24-.42.43-.85.74-1.25a.25.25 0 0 1 .27-.08c.3.1.51.04.66-.2.06-.1.15-.13.26-.11.2.03.32.07.37.12.04.04.07.1.09.17 0 .06 0 .13-.02.2a.43.43 0 0 1-.13.16.49.49 0 0 1-.2.1c-.1.03-.24 0-.4-.08a.26.26 0 0 0-.27.04.24.24 0 0 0-.06.07l-.79 1.48c-.05.1-.02.17.08.22l.29.14c.05.03.1.03.15.02a.2.2 0 0 0 .12-.1l.45-.85c.08-.15.2-.2.36-.15l.1.03a.32.32 0 0 1 .21.17.3.3 0 0 1 0 .27l-.43.8c-.08.15-.04.26.11.34l.15.07c.18.1.33.05.42-.13.23-.46.38-.72.43-.8.15-.2.33-.21.56 0a.28.28 0 0 1 .06.33l-.43.82a.28.28 0 0 0-.02.22.3.3 0 0 0 .15.17l.2.1c.1.05.19.02.24-.08Z" fill="#0D0D0E"/><path d="m31.65 26.23-.27.06a.19.19 0 0 0 0-.17c0-.04-.05-.07-.1-.1-.96-.45-1.91-.91-2.85-1.4-.06-.02-.1-.03-.15-.02a.18.18 0 0 0-.12.09c-.05-.14-.04-.19.01-.14.07-.18.18-.34.31-.48.08-.08.17-.09.27-.04l2.7 1.34c.1.04.15.12.16.22l.04.64Z" fill="#DF2A2B"/><path d="M31.38 26.29a.6.6 0 0 1-.2.34.23.23 0 0 1-.25.02l-1.61-.8-1.22-.58a.23.23 0 0 1-.1-.1.21.21 0 0 1-.02-.12.64.64 0 0 1 .18-.36.18.18 0 0 1 .12-.1c.04 0 .09.01.15.04.94.47 1.89.94 2.84 1.39.06.03.1.06.12.1.02.06.02.11 0 .17Z" fill="#0D0D0E"/><path d="m31.38 26.29.27-.06.1.06c.09.04.14.11.17.2.03.08.02.17-.02.25l-3.63 6.87a.25.25 0 0 1-.23.14.74.74 0 0 1-.36-.08c-.11-.05-.2-.02-.26.09l-.1.18c-.05.1-.14.14-.25.1-.36-.14-.64-.06-.84.24-.05.08-.13.1-.23.07-.27-.1-.5-.08-.65.09a4.63 4.63 0 0 1 2.41-2.88l.93-1.75c.04-.08.03-.15-.04-.22a3.18 3.18 0 0 0-.9-.64c-.14-.07-.17-.17-.1-.3l1.67-2.8 1.6.8c.1.05.19.04.27-.02a.6.6 0 0 0 .19-.34Z" fill="#FDB833"/><path fill-rule="evenodd" d="m23.15 9.34-.38.66a.7.7 0 0 0 .19.9c.77.59 1.46.67 2.05.27l8.51 4.2c.1.05.15.12.16.22.01.14 0 .3-.05.5-.03.1 0 .16.11.2.31.07.37.3.2.65-.06.11-.03.2.08.25l1.52.75c.1.04.12.12.09.21l-.13.38a.34.34 0 0 0-.02.12c0 .04.01.08.03.1.04.04.1.07.2.08a.26.26 0 0 1 .2.1.24.24 0 0 1 .03.21c-.1.31-.23.57-.4.78-.14.19-.11.33.1.44l.1.04c.18.09.31.05.4-.12l1.7-3.23a.32.32 0 0 1 .18-.15.27.27 0 0 1 .12 0c.04 0 .07.02.1.04.16.12.4.03.72-.27a.23.23 0 0 1 .27-.04c.24.1.42.05.53-.16a.32.32 0 0 1 .19-.17.34.34 0 0 1 .25.02l1.87.93c.1.05.16.02.2-.07.25-.58.27-1.03.08-1.36-.18-.3-.15-.59.11-.84l.09-.09c.25-.24.46-.22.64.08l1.28 2.13c-.06.2-.12.27-.18.23a.49.49 0 0 1-.14-.22 3.85 3.85 0 0 0-1.02-1.23.23.23 0 0 0-.24-.04.22.22 0 0 0-.1.09.21.21 0 0 0-.03.11 3.37 3.37 0 0 1-1.77 3.2c-.42.23-.9.38-1.39.53-.3.09-.61.18-.91.3a.3.3 0 0 0-.13.09.29.29 0 0 0 .06.41c.7.51 1.6.63 2.7.35l2.37-1.41c.4.33.78.55 1.16.67a.22.22 0 0 1 .13.12.21.21 0 0 1 0 .18l-1.48 2.79a.2.2 0 0 1-.11.1.2.2 0 0 1-.16-.02l-.27-.13c-.12-.06-.2-.03-.28.1l-.41.79a.31.31 0 0 1-.18.15.32.32 0 0 1-.24-.02l-4.07-2.01c-.12-.06-.2-.03-.27.08l-.43.83c-.05.09-.04.17.03.25.09.1.18.16.26.2a.26.26 0 0 1 .13.15.24.24 0 0 1-.01.2l-.43.8c-.05.1-.03.17.04.24.06.06.16.12.28.16.16.06.2.16.12.3l-.78 1.47c-.07.15-.19.19-.34.11l-2.78-1.37a.24.24 0 0 0-.17-.02.23.23 0 0 0-.14.11l-4.4 8.34a.13.13 0 0 0 .05.18l1.6.79a.22.22 0 0 1 .1.13.2.2 0 0 1-.02.17c-.11.16-.12.3-.02.45.13.19.2.3.21.36.31.92.52 1.6.64 2.03l.16.42c.11.25.21.5.2.8 0 .05 0 .1.03.15.03.04.06.08.11.1a.29.29 0 0 0 .3-.01l.4-.27a.26.26 0 0 1 .26-.02l.7.34a.24.24 0 0 0 .24-.01c.95-.65 1.85-.68 2.7-.1.26.19.45.46.56.83l.1.32c.3.89.47 1.43-.13 2.35-.22.35-.47.5-.75.48-.1 0-.2.02-.28.07l-.23.15a.4.4 0 0 1-.29.06.77.77 0 0 0-.69.2.32.32 0 0 1-.27.09c-.32-.06-.53.04-.66.3-.04.08-.11.1-.2.06l-1.63-.8c-.09-.05-.16-.03-.2.06l-.2.36c-.03.08-.1.1-.17.06l-2.86-1.42a.36.36 0 0 1-.2-.25.33.33 0 0 1 .1-.29c.17-.2.3-.4.39-.64.03-.08 0-.14-.08-.19l-.25-.12c-.1-.05-.15-.13-.12-.25.08-.41.27-.76.56-1.03.08-.07.17-.1.27-.09.33.05.57-.07.73-.36.1-.17.1-.39.02-.65l-.74-2.15c-.06-.15-.06-.25-.05-.35 0-.07 0-.14-.03-.24a.31.31 0 0 0-.17-.2L27 34.93a.2.2 0 0 0-.15-.02.2.2 0 0 0-.12.1l-.16.32a.24.24 0 0 1-.18.13.26.26 0 0 1-.22-.07c-.33-.3-.6-.48-.82-.53-.07-.02-.13 0-.16.08l-.18.33a.21.21 0 0 1-.13.1.22.22 0 0 1-.16-.01l-.89-.44a.24.24 0 0 0-.18-.02.24.24 0 0 0-.14.12l-2.73 5.15c-.06.13-.03.23.1.3l.88.43c.12.06.2.03.25-.1.13-.32.39-.4.76-.25.1.04.18.02.23-.08l.1-.19c.08-.15.19-.18.34-.1l2.03 1a.31.31 0 0 1 .17.24c.03.32.11.6.27.83a.3.3 0 0 1 .03.26c-.25.78-.62 1.5-1.1 2.12-.06.09-.15.1-.26.06l-.06-.04a.23.23 0 0 0-.26.03c-.48.35-.98.32-1.5-.1-.13-.1-.19-.21-.16-.3a.43.43 0 0 1 .13-.22.3.3 0 0 1 .26-.07c.31.05.57 0 .77-.19.08-.06.16-.1.27-.1.5 0 .8-.3.9-.9.02-.09 0-.17-.04-.25a2.3 2.3 0 0 1-.27-.81.3.3 0 0 0-.17-.23l-1.34-.66a.2.2 0 0 0-.24.06c-.26.4-.5.83-.7 1.28-.08.15-.16.24-.24.28-.12.05-.25.04-.39-.04a.22.22 0 0 1-.12-.21v-.54a.25.25 0 0 0-.2-.24.33.33 0 0 0-.1-.02c-.12 0-.2.06-.26.16l-.42.8a.23.23 0 0 1-.13.1.24.24 0 0 1-.17 0c-.68-.3-1.37-.64-2.09-1-.13-.07-.2-.13-.21-.2-.02-.1 0-.21.05-.33.08-.15.06-.28-.06-.4l-.15-.15a.19.19 0 0 0-.3.05l-.51.97c-.05.1-.03.17.07.22l.15.07a.22.22 0 0 1 .13.2v.56c0 .08.03.14.1.18l1.6.79c.09.04.14.01.15-.07.07-.36.25-.48.55-.37.44.17 1.35.62 2.73 1.36.15.08.2.2.11.34l-.05.1c-.1.2-.26.25-.47.15l-2.76-1.37c-.09-.04-.16-.02-.21.07-.08.15-.16.26-.24.33a.22.22 0 0 1-.26.03l-2.16-1.06a.24.24 0 0 1-.12-.14.23.23 0 0 1 .01-.19l.43-.8c.05-.1.03-.17-.07-.22-.27-.13-.36-.35-.27-.65.2-.65.52-.91.98-.78.11.03.2 0 .25-.1.12-.22.39-.28.8-.17a.18.18 0 0 0 .15-.03.17.17 0 0 0 .07-.12c.02-.2.3-.24.8-.14h.06l.04-.04 2.45-4.63a.16.16 0 0 0-.07-.23l-1.57-.77c-.12-.06-.21-.03-.27.08l-.16.3c-.06.1-.14.13-.24.07l-1.61-.8c-.1-.04-.18-.02-.23.08l-.18.34c-.05.1-.12.11-.2.07l-.92-.45c-.13-.07-.23-.04-.3.09l-.08.16a.33.33 0 0 1-.43.13l-1.47-.73c-.17-.08-.21-.2-.13-.36l.78-1.46c.06-.13.16-.16.29-.1l.84.42c.07.04.15.04.22 0a.66.66 0 0 0 .2-.22.21.21 0 0 1 .08-.08.22.22 0 0 1 .11-.03h.55c.09 0 .16-.04.2-.12l.1-.19a.2.2 0 0 1 .13-.1.21.21 0 0 1 .16.02c.31.19.54.14.69-.16a.22.22 0 0 1 .26-.1l.19.06c.09.02.18.02.26-.02a.5.5 0 0 0 .19-.13c.21-.28.46-.26.77-.07-.09.37-.25.72-.48 1.05a.28.28 0 0 1-.24.13h-.46c-.1 0-.18.04-.24.13l-.11.2a.19.19 0 0 1-.12.08.2.2 0 0 1-.14-.02l-.83-.46a.26.26 0 0 0-.36.1l-.41.78c-.08.15-.04.25.1.33l.92.45c.13.06.2.03.22-.12.01-.12.1-.22.26-.29a.31.31 0 0 1 .27.01l1.43.71c.1.05.18.03.24-.06l.18-.32a.23.23 0 0 1 .3-.09l1.6.8a.16.16 0 0 0 .11 0 .15.15 0 0 0 .1-.08l1.08-2.04c.1-.2.25-.24.46-.14l.76.37c.19.1.23.24.14.42l-.75 1.4c-.05.1-.03.18.06.24l.36.19.28.14c.2.1.39.07.56-.11.16-.17.38-.2.65-.1.1.04.18.02.23-.06.2-.3.48-.38.84-.24.11.04.2 0 .26-.1l.1-.18c.05-.11.14-.14.25-.09.13.06.25.08.36.08.1 0 .18-.05.23-.14l3.63-6.87a.33.33 0 0 0 .02-.25.34.34 0 0 0-.16-.2l-.11-.06-.04-.64c-.01-.1-.06-.18-.16-.22l-2.7-1.34c-.1-.05-.2-.04-.27.04-.13.14-.24.3-.3.48-.18-.06-.32-.13-.41-.21a.24.24 0 0 1-.09-.26c.03-.1.07-.2.14-.3a.15.15 0 0 0-.04-.2 1.14 1.14 0 0 1-.3-.26c-.2-.27-.16-.45.1-.55a.41.41 0 0 1 .32.01l4.56 2.26c.19.1.33.05.43-.14l.7-1.32a.26.26 0 0 0-.12-.35L32 22.49a.2.2 0 0 0-.28.09l-.5.93a.15.15 0 0 1-.08.08.15.15 0 0 1-.12 0l-3.45-1.71a.34.34 0 0 1-.17-.2.32.32 0 0 1 .03-.26l.47-.84c.19-.05.34-.05.44.02.1.06.15.18.14.34 0 .11-.04.23-.08.34-.04.1-.01.17.09.22.65.34 1.12.55 1.4.66.5.19.64.04.41-.45 0-.02-.1-.09-.26-.2-.08-.05-.1-.12-.05-.21.07-.12.1-.24.1-.36 0-.1-.05-.17-.14-.22a.98.98 0 0 1-.27-.21.22.22 0 0 1-.02-.26l.13-.24c.05-.09.03-.15-.07-.2a.86.86 0 0 1-.34-.24.2.2 0 0 1-.02-.23l.74-1.4a.24.24 0 0 0-.01-.27.84.84 0 0 0-.48-.35c.06-.28.18-.44.38-.48.12-.03.29.02.5.14.4.22.78.4 1.14.57.09.04.16.02.21-.06.2-.27.45-.38.74-.33.1.02.2.02.24 0 .1-.05.16-.11.17-.2.01-.04 0-.1-.01-.13a.24.24 0 0 0-.1-.1.98.98 0 0 1-.26-.22.25.25 0 0 1-.04-.24l.09-.3c.03-.1 0-.17-.1-.22l-7.25-3.58a.24.24 0 0 0-.3.1.23.23 0 0 0-.04.1v.12a.18.18 0 0 0 .08.15l.68.43c.07.04.12.12.15.23l.7 2.32.13.28c.1.18.2.36.17.62-.02.1 0 .19.05.27.05.1.1.15.16.17.05 0 .1.03.12.07.03.03.05.07.06.12.01.05 0 .1-.01.16a.4.4 0 0 1-.09.14c-.42.47-.44.84-.06 1.1.1.08.12.17.07.27l-.78 1.48a.2.2 0 0 0 .16.28c.1.01.2.04.26.1.08.06.1.14.05.22l-1.16 2.2a.2.2 0 0 0 .09.26l.86.42c.18.09.22.22.13.4l-.37.7c-.1.17-.23.21-.41.12l-.7-.34c-.2-.1-.35-.05-.45.14l-3.04 5.74c-.06.11-.14.14-.26.08l-.27-.13c-.1-.05-.2-.03-.25.07l-.16.26a.28.28 0 0 1-.23.13c-.2 0-.36-.1-.48-.33l.4-.88c.04-.1.1-.14.21-.14.14 0 .28.03.43.08a.26.26 0 0 0 .31-.12l2.75-5.2a.17.17 0 0 0-.07-.23l-2.9-1.44a.18.18 0 0 0-.2.03.17.17 0 0 0-.04.05l-.83 1.58c-.05.08-.02.14.07.17.08.02.17.07.26.14.1.07.16.14.18.22.04.2-.05.35-.27.45a.4.4 0 0 1-.46-.08.37.37 0 0 1-.07-.44l.11-.2c.05-.1.03-.19-.08-.24l-.3-.15c-.1-.04-.16-.02-.2.08-.07.15-.14.27-.23.36a.2.2 0 0 1-.22.04l-.86-.42c-.17-.09-.22-.22-.13-.39l.07-.13a.3.3 0 0 1 .4-.12l.93.46c.06.03.11.01.15-.05L21 21.33c.1-.19.25-.24.45-.14l3.38 1.67c.05.02.1.03.15.01a.2.2 0 0 0 .12-.1l.79-1.48c.04-.08.03-.16-.03-.23a.54.54 0 0 0-.23-.14c-.2-.08-.25-.2-.15-.39l1.05-1.99c.07-.13.04-.23-.1-.3-.27-.15-.38-.33-.32-.53l.06-.22a.4.4 0 0 0-.25-.37c-.09-.04-.13-.1-.12-.2.04-.37-.04-.53-.13-.7a1.65 1.65 0 0 1-.12-.29c-.07-.26-.3-.97-.69-2.14-.11-.34-.3-.45-.58-.62a9.32 9.32 0 0 1-.17-.1.25.25 0 0 1-.13-.23v-.45a.2.2 0 0 0-.12-.18l-2.04-1a.3.3 0 0 1-.15-.17.3.3 0 0 1 0-.21c.2-.47.45-.94.77-1.4.1-.16.33-.19.7-.1Zm6.3 32.77c.03-.24-.02-.52-.18-.68a.24.24 0 0 1-.06-.26c.12-.39.26-.65.4-.78.16-.16.33-.18.48-.06.09.07.13.16.1.27-.07.56.26.91.99 1.06.1.02.18-.02.23-.11l.33-.63a.36.36 0 0 1 .21-.18l1.16-.4a.24.24 0 0 1 .23.05c.04.03.06.06.07.1.01.04.02.08 0 .11-.05.24-.04.44.02.6.02.06.05.11.1.15a.32.32 0 0 0 .47-.1l.67-1.26c.05-.1.13-.17.23-.2.1-.05.21-.05.31-.01l.08.02c.53.18 1.14.37 1.37 1.01.25.68.23 1.26-.06 1.75-.17.3-.46.5-.86.63a3.8 3.8 0 0 1-1.17.25.25.25 0 0 0-.26.14l-.09.17c-.04.08-.1.1-.2.06l-1.42-.64a.57.57 0 0 0-.18-.05c-.07 0-.13 0-.18.02a.36.36 0 0 0-.15.08.28.28 0 0 0-.08.12c-.02.07-.1.1-.22.1a.5.5 0 0 1-.23-.04c-.7-.3-1.36-.65-2-1.05a.22.22 0 0 1-.11-.24Zm10.7-24.76-.14.27c-.07.13-.17.15-.3.08-.3-.18-.5-.11-.6.19-.05.12-.13.16-.26.12l-.4-.11c-.12-.04-.2 0-.27.11l-1.1 2.08c-.05.1-.02.17.08.22l.33.16a.2.2 0 0 1 .1.11.18.18 0 0 1-.01.15l-.15.29c-.07.11-.04.2.08.26l4.02 1.96c.16.08.31.05.45-.1.01-.02.03-.07.04-.15 0-.06 0-.12-.03-.18a.31.31 0 0 0-.14-.13l-1.36-.67a.32.32 0 0 1-.17-.2.62.62 0 0 1 0-.31c.03-.1-.02-.16-.13-.17-.56 0-1.68-.2-1.93-.77a.56.56 0 0 1 .14-.65.6.6 0 0 1 .2-.12l1.9-.64c.14-.05.15-.12.03-.21-.28-.2-.32-.44-.1-.7.06-.08.15-.1.25-.05.38.18.62.1.73-.23.04-.12 0-.2-.11-.26l-.88-.43c-.12-.06-.2-.04-.27.08Zm-6.98.2-.03-.02a.34.34 0 0 0-.45.14L32 19a.32.32 0 0 0 .14.43l.02.02c.17.08.37.02.45-.14l.71-1.33a.32.32 0 0 0-.14-.44Zm-2.1 1.54c0 .2-.17.35-.37.35a.35.35 0 0 1-.35-.35c0-.2.16-.35.35-.35.2 0 .36.16.36.35Zm2.53.07c.03.2.2.34.38.32.18-.02.31-.2.29-.4-.03-.2-.2-.35-.38-.33-.19.02-.31.2-.29.4Zm-.61.79c.05.17-.08.36-.29.42-.2.05-.42-.05-.47-.22-.05-.18.08-.37.3-.42.2-.06.41.04.46.22ZM43.19 21c.35.13.69.09.76-.1.08-.18-.14-.44-.48-.57-.35-.14-.69-.1-.76.1-.08.18.14.44.48.57Zm-9.12.98-.83-.46a.18.18 0 0 1-.09-.12.17.17 0 0 1 .04-.14c.11-.14.13-.3.06-.46a.3.3 0 0 0-.11-.13.32.32 0 0 0-.46.1l-.48.8c-.06.1-.03.17.07.22l1.6.8c.15.06.27.03.35-.11l.05-.12c0-.18-.06-.3-.2-.38Zm1.4 1.4c.08.1.2.2.33.27.1.04.12.11.07.2l-.46.87c-.06.11-.14.14-.26.08l-.93-.45c-.1-.06-.13-.14-.07-.24l1.74-3.3a.27.27 0 0 1 .17-.13.3.3 0 0 1 .22.03l.16.09a.2.2 0 0 1 .08.26l-1.08 2.05a.25.25 0 0 0 .03.28Zm7.65-1 .03-.02.22-.48v-.05a.06.06 0 0 0-.03-.03l-.4-.17a28.62 28.62 0 0 0-1.66-.62c-.1-.03-.14-.03-.15-.02l-.17.37c-.01.03.16.14.48.3l1.23.56.4.16h.05Z" fill="#0D0D0E"/></svg>