<!-- by TradingView --><svg width="56" height="56" viewBox="0 0 56 56" xmlns="http://www.w3.org/2000/svg"><path fill="#FFCE4E" d="M0 0h56v56H0z"/><path d="M41.03 16.03c.16-.1.43-.28.8-.56.2-.15.54-.28 1.02-.4.6-.16 1.08-.03 1.47.37.34.35.54.84.61 1.47.2 1.73-.03 2.95-.67 3.66-.38.42-.88.6-1.5.54a3.53 3.53 0 0 1-1.55-.6.36.36 0 0 0-.27-.05c-5.76 1-10.15 2.5-13.18 4.53a11.7 11.7 0 0 0-5.16 8.7c-.2 1.62-.2 3.46.04 5.52.07.6.07 1.04 0 1.31a3.82 3.82 0 0 1-.9 1.8c-.5.55-1.08.77-1.73.65a3.66 3.66 0 0 1-1.3-.67c-1.29-.91-2.39-2.03-3.29-3.36a14.2 14.2 0 0 1-1.3-13.46 14.87 14.87 0 0 1 6.86-7.35 24.06 24.06 0 0 1 9.8-2.65c3.07-.22 6.43-.03 10.07.58.07.02.13 0 .18-.03Z"/><path d="M36.23 20.46c-.93-.5-1.13-1.05-.6-1.66.11-.12.32-.25.64-.4.23-.1.44-.24.65-.41 1.28 0 2.6.08 3.97.27.29.04.54-.03.76-.2a4.16 4.16 0 0 0 1.44-2.04.45.45 0 0 1 .5.09c.1.09.18.22.24.4.32 1.09.27 2.17-.16 3.22a.6.6 0 0 1-.4.36c-.23.07-.52.05-.88-.08-.3-.1-.56-.25-.8-.43a.87.87 0 0 0-.71-.13c-1.74.32-3.29.66-4.65 1Z" fill="#B3D020"/><path d="M43.1 16.02c-.28.83-.76 1.5-1.45 2.04a.98.98 0 0 1-.76.2 28.63 28.63 0 0 0-3.97-.27l-.72-.11c-.61-.34-.82-.81-.64-1.42 1.86.1 3.7.32 5.52.66.14.02.26-.02.36-.12a3.8 3.8 0 0 1 1.65-.98Z" fill="#798D14"/><path d="M35.56 16.47c-.18.6.03 1.07.64 1.41l-2.22.27a1.2 1.2 0 0 0-.19-.78c-.12-.18-.28-.23-.48-.17-.22.07-.34.2-.37.4-.01.11.01.31.08.6l-.25.09c.06-.3.01-.58-.14-.81-.18-.27-.4-.32-.7-.17a.24.24 0 0 0-.13.13c-.1.31-.07.66.1 1.03a21.22 21.22 0 0 0-7.7 3.21c-.14-.25-.3-.34-.5-.29-.59.16-1.16.5-1.73 1.03-.18.16-.25.32-.24.48.02.2.14.37.36.5-.5.46-.97.97-1.41 1.53a11.86 11.86 0 0 0-2.59 8.83c.1 1.04.48 2.42 1.1 4.14.3.83.4 1.48.3 1.96a.57.57 0 0 1-.28.36c-.3.18-.68.27-1.16.27a11.23 11.23 0 0 1-2.77-3.83c.08-2.33.15-3.8.2-4.42.25-3.39 1.6-6.32 4.03-8.78a19.2 19.2 0 0 1 2.6-2.18 30.3 30.3 0 0 1 3.67-2.24l4.98-2.5c1.51-.19 3.11-.21 4.8-.07Z" fill="#E2B013"/><path d="M30.76 16.54c-1.7.84-3.36 1.68-4.98 2.5a30.33 30.33 0 0 0-3.67 2.23c-.98.7-1.84 1.42-2.6 2.18a13.62 13.62 0 0 0-4.03 8.79c-.05.61-.12 2.09-.2 4.42a12.76 12.76 0 0 1-.46-10.32 13.69 13.69 0 0 1 5.93-6.94 20.5 20.5 0 0 1 10-2.86Z" fill="#A2560A"/><path d="m36.2 17.88.72.1c-.2.18-.42.32-.65.42a1.9 1.9 0 0 0-.63.4c-.54.61-.34 1.16.59 1.66-3.27.8-6.07 1.9-8.38 3.3a12.68 12.68 0 0 0-5.16 5.75 14.64 14.64 0 0 0-1.18 5.09c-.1 1.5-.03 3.25.2 5.24.06.44-.08.92-.41 1.45-.38.6-.8.8-1.27.64a9.91 9.91 0 0 1-1.98-1.45c.48 0 .86-.08 1.16-.27.16-.1.25-.21.28-.36.1-.47 0-1.12-.3-1.96-.63-1.72-1-3.1-1.1-4.13-.33-3.27.53-6.21 2.59-8.83.44-.56.9-1.07 1.4-1.53l1.99-1.14c.14-.08.18-.27.12-.58a21.22 21.22 0 0 1 7.72-3.21c.11.07.25.12.4.15.11.02.21 0 .29-.07a.52.52 0 0 0 .17-.27l.25-.09c.09.27.26.4.5.4.26 0 .41-.15.46-.44l2.22-.27Z" fill="#FEE819"/></svg>