<!-- by TradingView --><svg width="56" height="56" xmlns="http://www.w3.org/2000/svg"><path fill="#F0B90B" d="M0 0h56v56H0z"/><path d="M33.442 18.088a.527.527 0 01.745 0l3.422 3.41a.526.526 0 01.001.745l-15.408 15.43a.527.527 0 01-.745.002l-3.422-3.411a.526.526 0 010-.745l15.407-15.43zm6.236 6.172a.527.527 0 01.745 0l3.422 3.41a.526.526 0 01.001.745L28.44 43.845a.527.527 0 01-.745.001l-3.423-3.41a.526.526 0 010-.745l15.407-15.43zm-7.948-7.95a.526.526 0 00-.001-.745l-3.422-3.411a.527.527 0 00-.745 0l-9.395 9.409a.526.526 0 000 .743l3.405 3.427a.527.527 0 00.747 0l9.41-9.424zM19.642 28.415a.526.526 0 000-.742l-3.406-3.427a.527.527 0 00-.746-.001l-3.336 3.34a.526.526 0 000 .745l3.423 3.41c.206.206.54.206.745 0l3.32-3.325z" fill="#fff"/></svg>