<?xml version="1.0" encoding="UTF-8"?>
<!DOCTYPE svg PUBLIC "-//W3C//DTD SVG 1.1//EN" "http://www.w3.org/Graphics/SVG/1.1/DTD/svg11.dtd">
<svg xmlns="http://www.w3.org/2000/svg" version="1.1" width="64px" height="64px" style="shape-rendering:geometricPrecision; text-rendering:geometricPrecision; image-rendering:optimizeQuality; fill-rule:evenodd; clip-rule:evenodd" xmlns:xlink="http://www.w3.org/1999/xlink">
<g><path style="opacity:0.978" fill="#969696" d="M 27.5,3.5 C 30.2882,3.07685 32.2882,4.07685 33.5,6.5C 34.8651,7.45563 36.3651,8.12229 38,8.5C 39.582,6.97119 41.4153,6.47119 43.5,7C 44.7376,10.5687 46.7376,13.7354 49.5,16.5C 52.4637,14.8791 54.4637,15.7124 55.5,19C 54.7433,20.5122 53.7433,21.8455 52.5,23C 53.7483,26.5064 55.7483,29.3397 58.5,31.5C 58.3918,32.4419 58.0585,33.2753 57.5,34C 54.3151,34.6567 52.6484,36.6567 52.5,40C 55.6,41.6685 56.1,43.8351 54,46.5C 52.2134,47.3431 50.3801,47.5098 48.5,47C 46.5018,49.4819 45.1685,52.3152 44.5,55.5C 42.2805,56.3458 40.1139,56.0124 38,54.5C 34.7647,55.4377 32.098,57.1043 30,59.5C 27.902,57.1043 25.2353,55.4377 22,54.5C 16.6283,57.7237 13.795,56.057 13.5,49.5C 12.2807,48.7366 11.2807,47.7366 10.5,46.5C 7.53626,48.1209 5.53626,47.2876 4.5,44C 5.25668,42.4878 6.25668,41.1545 7.5,40C 4.29268,35.8696 5.29268,34.2029 10.5,35C 16.6123,49.8163 26.9457,53.8163 41.5,47C 52.1586,36.6472 52.1586,26.3139 41.5,16C 31.1222,10.2151 21.9555,11.7151 14,20.5C 12.5886,22.6504 11.7553,24.9837 11.5,27.5C 5.92161,28.6538 4.58827,27.1538 7.5,23C 4.91082,21.0782 4.41082,18.9115 6,16.5C 7.45787,15.2532 8.95787,15.2532 10.5,16.5C 13.4467,14.2179 15.1134,11.2179 15.5,7.5C 17.8796,6.23299 20.0462,6.56632 22,8.5C 25.1631,8.18019 26.9965,6.51353 27.5,3.5 Z"/></g>
<g><path style="opacity:1" fill="#bababa" d="M 28.5,5.5 C 30.8244,5.6615 32.4911,6.82817 33.5,9C 36.7303,10.8372 39.7303,10.6705 42.5,8.5C 43.216,12.7272 45.3827,16.0605 49,18.5C 50.0495,17.4829 51.2161,17.3162 52.5,18C 51.2332,21.4965 51.2332,25.3298 52.5,29.5C 57.1158,30.0407 57.4491,31.374 53.5,33.5C 51.1173,37.1347 51.1173,40.6347 53.5,44C 52.1354,45.6819 50.6354,45.8486 49,44.5C 45.3827,46.9395 43.216,50.2728 42.5,54.5C 41.452,53.6171 40.2853,52.9504 39,52.5C 34.788,53.1053 31.288,54.7719 28.5,57.5C 28.67,56.1779 28.3366,55.0113 27.5,54C 23.9233,52.3671 20.59,52.5337 17.5,54.5C 16.784,50.2728 14.6173,46.9395 11,44.5C 5.98205,45.4714 5.48205,44.3047 9.5,41C 8.83333,39.6667 8.16667,38.3333 7.5,37C 7.83333,36.8333 8.16667,36.6667 8.5,36.5C 15.4132,51.2853 26.4132,55.452 41.5,49C 50.3817,42.042 52.8817,33.2086 49,22.5C 40.0787,9.24439 28.912,7.07772 15.5,16C 12.8358,18.6692 11.0024,21.8359 10,25.5C 9.28248,26.4506 8.44915,26.6172 7.5,26C 10.3453,23.176 10.012,20.8426 6.5,19C 7.86455,17.3181 9.36455,17.1514 11,18.5C 14.6173,16.0605 16.784,12.7272 17.5,8.5C 20.2697,10.6705 23.2697,10.8372 26.5,9C 27.8228,8.18405 28.4894,7.01739 28.5,5.5 Z"/></g>
<g><path style="opacity:0.98" fill="#969696" d="M 25.5,14.5 C 38.06,13.3925 45.3933,19.0592 47.5,31.5C 44.145,46.8442 35.145,51.6775 20.5,46C 17.2017,43.5364 14.8684,40.3697 13.5,36.5C 13.7093,35.914 14.0426,35.414 14.5,35C 17.5,34.3333 20.5,34.3333 23.5,35C 27.5216,39.4069 31.6883,39.5736 36,35.5C 36.6667,32.8333 36.6667,30.1667 36,27.5C 35.0975,26.2986 33.9308,25.4652 32.5,25C 27.91,25.3802 23.41,26.2135 19,27.5C 17.1667,27.1667 15.3333,26.8333 13.5,26.5C 15.9089,20.7575 19.9089,16.7575 25.5,14.5 Z"/></g>
<g><path style="opacity:1" fill="#bababa" d="M 24.5,16.5 C 40.8177,15.3114 47.3177,22.6447 44,38.5C 37.8434,46.9219 30.0101,48.7552 20.5,44C 18.4701,42.1038 16.8034,39.9371 15.5,37.5C 18.1062,36.3483 20.7728,36.1816 23.5,37C 29.2393,41.872 34.0727,41.0386 38,34.5C 38.9873,26.4894 35.4873,22.6561 27.5,23C 24.0866,26.4297 20.0866,27.2631 15.5,25.5C 17.5493,21.4506 20.5493,18.4506 24.5,16.5 Z"/></g>
</svg>
