<!-- by TradingView --><svg width="56" height="56" viewBox="0 0 56 56" xmlns="http://www.w3.org/2000/svg"><path fill="#182610" d="M0 0h56v56H0z"/><path d="M28 16.85c.24 0 .47.03.7.08.08.02.15.07.2.15.71.95 1 2.3 1.46 2.78 1.48 1.59 3.37.86 4.38-.82.14-.22.3-.78.5-1.68a5.81 5.81 0 0 1 1.05-2.31c1.34-1.25 3.42-1.5 4.78-.13 1.37 1.37 1.13 3.45-.12 4.79-.05.05-.1.1-.16.13-.58.42-1.3.72-2.15.9-.9.2-1.46.38-1.69.51-1.67 1.01-2.4 2.9-.81 4.4.48.44 1.83.74 2.78 1.44.07.05.12.13.15.21a2.82 2.82 0 0 1 0 1.4.38.38 0 0 1-.15.2c-.95.71-2.3 1-2.78 1.46-1.59 1.48-.86 3.37.82 4.39.22.13.78.3 1.68.5a5.81 5.81 0 0 1 2.31 1.04c1.25 1.33 1.5 3.41.13 4.78s-3.45 1.13-4.79-.12a5.84 5.84 0 0 1-1.04-2.3c-.2-.9-.37-1.47-.5-1.7-1.01-1.68-2.9-2.4-4.4-.81-.44.48-.74 1.83-1.44 2.79a.38.38 0 0 1-.21.14 2.9 2.9 0 0 1-1.4 0 .38.38 0 0 1-.2-.14c-.71-.96-1-2.31-1.46-2.8-1.48-1.58-3.37-.85-4.39.83-.13.22-.3.78-.5 1.68a5.81 5.81 0 0 1-1.04 2.31c-1.33 1.25-3.41 1.5-4.78.13s-1.13-3.45.12-4.79c.05-.05.1-.1.16-.13.58-.42 1.3-.72 2.15-.9.9-.2 1.46-.38 1.69-.51 1.68-1.01 2.4-2.9.81-4.39-.48-.45-1.83-.75-2.79-1.45a.38.38 0 0 1-.14-.22 2.87 2.87 0 0 1 0-1.38.38.38 0 0 1 .14-.21c.96-.71 2.31-1 2.8-1.46 1.58-1.48.85-3.37-.83-4.38-.22-.14-.78-.3-1.68-.5a5.81 5.81 0 0 1-2.31-1.05c-1.25-1.34-1.5-3.42-.13-4.78 1.37-1.37 3.45-1.13 4.79.12.05.05.1.1.13.16.42.58.72 1.3.9 2.15.2.9.38 1.46.51 1.69 1.01 1.67 2.9 2.4 4.39.81.45-.48.75-1.83 1.45-2.78a.38.38 0 0 1 .22-.15c.22-.05.45-.08.69-.08Z" fill="#D7F9C0"/></svg>