<?xml version="1.0" encoding="UTF-8"?>
<!DOCTYPE svg PUBLIC "-//W3C//DTD SVG 1.1//EN" "http://www.w3.org/Graphics/SVG/1.1/DTD/svg11.dtd">
<svg xmlns="http://www.w3.org/2000/svg" version="1.1" width="64px" height="64px" style="shape-rendering:geometricPrecision; text-rendering:geometricPrecision; image-rendering:optimizeQuality; fill-rule:evenodd; clip-rule:evenodd" xmlns:xlink="http://www.w3.org/1999/xlink">
<g><path style="opacity:1" fill="#0a0707" d="M 16.5,-0.5 C 19.8333,-0.5 23.1667,-0.5 26.5,-0.5C 26.7678,1.09903 26.4345,2.43236 25.5,3.5C 22.8069,2.44846 20.1402,1.44846 17.5,0.5C 16.8333,0.5 16.5,0.166667 16.5,-0.5 Z"/></g>
<g><path style="opacity:1" fill="#0b0909" d="M 42.5,-0.5 C 44.1667,-0.5 45.8333,-0.5 47.5,-0.5C 47.5,0.166667 47.5,0.833333 47.5,1.5C 46.8333,1.5 46.1667,1.5 45.5,1.5C 44.8826,1.38929 44.3826,1.05596 44,0.5C 43.2386,4.25074 42.0719,4.41741 40.5,1C 41.4158,0.721579 42.0825,0.221579 42.5,-0.5 Z"/></g>
<g><path style="opacity:1" fill="#0a0707" d="M 47.5,-0.5 C 50.1667,-0.5 52.8333,-0.5 55.5,-0.5C 58.7014,3.20304 58.0348,4.20304 53.5,2.5C 51.4664,1.87465 49.4664,1.54132 47.5,1.5C 47.5,0.833333 47.5,0.166667 47.5,-0.5 Z"/></g>
<g><path style="opacity:1" fill="#0a0707" d="M 59.5,-0.5 C 60.8333,-0.5 62.1667,-0.5 63.5,-0.5C 63.5,1.16667 63.5,2.83333 63.5,4.5C 62.5,4.5 61.5,4.5 60.5,4.5C 59.8333,4.5 59.5,4.16667 59.5,3.5C 60.4054,2.29764 60.4054,0.964302 59.5,-0.5 Z"/></g>
<g><path style="opacity:1" fill="#080706" d="M 11.5,-0.5 C 13.1667,-0.5 14.8333,-0.5 16.5,-0.5C 16.5,0.166667 16.8333,0.5 17.5,0.5C 17.6107,1.11742 17.944,1.61742 18.5,2C 17.5842,2.27842 16.9175,2.77842 16.5,3.5C 15.7321,2.73747 15.2321,1.73747 15,0.5C 14.2828,1.0442 13.7828,1.71087 13.5,2.5C 11.8133,3.91755 9.97998,5.25088 8,6.5C 7.61742,5.94404 7.11742,5.61071 6.5,5.5C 6.05833,1.61566 7.725,-0.384341 11.5,-0.5 Z"/></g>
<g><path style="opacity:1" fill="#080606" d="M 31.5,-0.5 C 34.1667,-0.5 36.8333,-0.5 39.5,-0.5C 38.7886,1.20136 37.4553,2.20136 35.5,2.5C 33.9236,1.85706 32.5903,0.857056 31.5,-0.5 Z"/></g>
<g><path style="opacity:1" fill="#080303" d="M 5.5,-0.5 C 7.5,-0.5 9.5,-0.5 11.5,-0.5C 7.725,-0.384341 6.05833,1.61566 6.5,5.5C 6.16667,6.16667 5.83333,6.83333 5.5,7.5C 5.16667,7.5 4.83333,7.5 4.5,7.5C 4.53944,6.41683 4.87277,5.41683 5.5,4.5C 4.75731,3.81815 4.09065,3.15149 3.5,2.5C 2.32148,0.493496 2.82148,0.160163 5,1.5C 5.46434,0.905578 5.63101,0.238911 5.5,-0.5 Z"/></g>
<g><path style="opacity:1" fill="#080406" d="M 17.5,0.5 C 20.1402,1.44846 22.8069,2.44846 25.5,3.5C 25.5,3.83333 25.5,4.16667 25.5,4.5C 23.54,5.13826 21.7067,5.13826 20,4.5C 19.2904,5.97326 18.1238,6.63993 16.5,6.5C 16.5,5.83333 16.5,5.16667 16.5,4.5C 16.5,4.16667 16.5,3.83333 16.5,3.5C 16.9175,2.77842 17.5842,2.27842 18.5,2C 17.944,1.61742 17.6107,1.11742 17.5,0.5 Z"/></g>
<g><path style="opacity:1" fill="#090505" d="M 39.5,-0.5 C 40.5,-0.5 41.5,-0.5 42.5,-0.5C 42.0825,0.221579 41.4158,0.721579 40.5,1C 42.0719,4.41741 43.2386,4.25074 44,0.5C 44.3826,1.05596 44.8826,1.38929 45.5,1.5C 46.2341,2.70792 46.5674,4.04125 46.5,5.5C 46.5,6.16667 46.5,6.83333 46.5,7.5C 45.5,7.5 44.5,7.5 43.5,7.5C 42.7659,8.70792 42.4326,10.0413 42.5,11.5C 39.5448,10.8413 36.5448,10.5079 33.5,10.5C 33.5,8.83333 33.5,7.16667 33.5,5.5C 34.675,5.71901 35.675,5.38568 36.5,4.5C 36.0431,3.70245 35.3764,3.36912 34.5,3.5C 34.5,2.83333 34.8333,2.5 35.5,2.5C 37.4553,2.20136 38.7886,1.20136 39.5,-0.5 Z"/></g>
<g><path style="opacity:1" fill="#0a0508" d="M 45.5,1.5 C 46.1667,1.5 46.8333,1.5 47.5,1.5C 49.4664,1.54132 51.4664,1.87465 53.5,2.5C 53.5,3.16667 53.5,3.83333 53.5,4.5C 51.8466,5.79944 50.3466,5.4661 49,3.5C 48.9252,5.93497 48.0919,6.60164 46.5,5.5C 46.5674,4.04125 46.2341,2.70792 45.5,1.5 Z"/></g>
<g><path style="opacity:1" fill="#080606" d="M 26.5,-0.5 C 28.1667,-0.5 29.8333,-0.5 31.5,-0.5C 32.5903,0.857056 33.9236,1.85706 35.5,2.5C 34.8333,2.5 34.5,2.83333 34.5,3.5C 33.1497,4.4831 32.1497,5.81643 31.5,7.5C 30.8933,7.37642 30.56,7.04309 30.5,6.5C 29.2946,5.31434 27.9613,5.31434 26.5,6.5C 25.6618,6.15829 25.3284,5.49162 25.5,4.5C 25.5,4.16667 25.5,3.83333 25.5,3.5C 26.4345,2.43236 26.7678,1.09903 26.5,-0.5 Z"/></g>
<g><path style="opacity:1" fill="#060403" d="M 3.5,2.5 C 4.09065,3.15149 4.75731,3.81815 5.5,4.5C 4.87277,5.41683 4.53944,6.41683 4.5,7.5C 4.56544,7.93822 4.39877,8.27155 4,8.5C 3.24956,7.87424 2.41623,7.37424 1.5,7C 2.71109,5.88686 2.71109,4.7202 1.5,3.5C 1.95689,2.70245 2.62356,2.36912 3.5,2.5 Z"/></g>
<g><path style="opacity:1" fill="#070404" d="M 55.5,-0.5 C 56.8333,-0.5 58.1667,-0.5 59.5,-0.5C 60.4054,0.964302 60.4054,2.29764 59.5,3.5C 58.1667,5.5 56.8333,7.5 55.5,9.5C 55.1667,9.5 54.8333,9.5 54.5,9.5C 54.4208,8.06953 54.7542,6.73619 55.5,5.5C 55.0431,4.70245 54.3764,4.36912 53.5,4.5C 53.5,3.83333 53.5,3.16667 53.5,2.5C 58.0348,4.20304 58.7014,3.20304 55.5,-0.5 Z"/></g>
<g><path style="opacity:1" fill="#0a0807" d="M -0.5,-0.5 C 1.5,-0.5 3.5,-0.5 5.5,-0.5C 5.63101,0.238911 5.46434,0.905578 5,1.5C 2.82148,0.160163 2.32148,0.493496 3.5,2.5C 2.62356,2.36912 1.95689,2.70245 1.5,3.5C 2.71109,4.7202 2.71109,5.88686 1.5,7C 2.41623,7.37424 3.24956,7.87424 4,8.5C 4.39877,8.27155 4.56544,7.93822 4.5,7.5C 4.83333,7.5 5.16667,7.5 5.5,7.5C 5.5,8.16667 5.5,8.83333 5.5,9.5C 4.17793,9.33003 3.01127,9.66337 2,10.5C 1.66667,9.83333 1.33333,9.16667 1,8.5C 0.76791,9.73747 0.26791,10.7375 -0.5,11.5C -0.5,7.5 -0.5,3.5 -0.5,-0.5 Z"/></g>
<g><path style="opacity:1" fill="#0e0a09" d="M 43.5,7.5 C 42.2502,7.57735 41.4169,8.24402 41,9.5C 39.8333,8 38.6667,6.5 37.5,5C 39.2297,3.14763 40.3964,3.3143 41,5.5C 42.813,4.39095 43.6463,5.05762 43.5,7.5 Z"/></g>
<g><path style="opacity:1" fill="#080606" d="M 60.5,4.5 C 61.5,4.5 62.5,4.5 63.5,4.5C 63.5,6.5 63.5,8.5 63.5,10.5C 59.7032,9.73755 58.7032,7.73755 60.5,4.5 Z"/></g>
<g><path style="opacity:1" fill="#080306" d="M 16.5,3.5 C 16.5,3.83333 16.5,4.16667 16.5,4.5C 15.8333,5.5 15.1667,6.5 14.5,7.5C 13.1054,8.81457 12.1054,8.48123 11.5,6.5C 14.0127,5.77428 14.6793,4.44094 13.5,2.5C 13.7828,1.71087 14.2828,1.0442 15,0.5C 15.2321,1.73747 15.7321,2.73747 16.5,3.5 Z"/></g>
<g><path style="opacity:1" fill="#0b0708" d="M 25.5,4.5 C 25.3284,5.49162 25.6618,6.15829 26.5,6.5C 26.5,7.83333 26.5,9.16667 26.5,10.5C 23.5,10.5 20.5,10.5 17.5,10.5C 18.9738,9.3249 20.6404,8.3249 22.5,7.5C 20.5641,7.63803 18.5641,7.30469 16.5,6.5C 18.1238,6.63993 19.2904,5.97326 20,4.5C 21.7067,5.13826 23.54,5.13826 25.5,4.5 Z"/></g>
<g><path style="opacity:1" fill="#080706" d="M 53.5,4.5 C 54.3764,4.36912 55.0431,4.70245 55.5,5.5C 54.7542,6.73619 54.4208,8.06953 54.5,9.5C 53.0387,8.31434 51.7054,8.31434 50.5,9.5C 49.8333,9.83333 49.1667,10.1667 48.5,10.5C 47.8333,9.5 47.1667,8.5 46.5,7.5C 46.5,6.83333 46.5,6.16667 46.5,5.5C 48.0919,6.60164 48.9252,5.93497 49,3.5C 50.3466,5.4661 51.8466,5.79944 53.5,4.5 Z"/></g>
<g><path style="opacity:1" fill="#0e0908" d="M 13.5,2.5 C 14.6793,4.44094 14.0127,5.77428 11.5,6.5C 11.5654,6.06178 11.3988,5.72845 11,5.5C 10.3333,6.83333 9.66667,8.16667 9,9.5C 8.33333,6.83333 7.66667,6.83333 7,9.5C 6.72158,8.5842 6.22158,7.91753 5.5,7.5C 5.83333,6.83333 6.16667,6.16667 6.5,5.5C 7.11742,5.61071 7.61742,5.94404 8,6.5C 9.97998,5.25088 11.8133,3.91755 13.5,2.5 Z"/></g>
<g><path style="opacity:1" fill="#090405" d="M 34.5,3.5 C 35.3764,3.36912 36.0431,3.70245 36.5,4.5C 35.675,5.38568 34.675,5.71901 33.5,5.5C 33.5,7.16667 33.5,8.83333 33.5,10.5C 32.0413,10.4326 30.7079,10.7659 29.5,11.5C 29.6399,9.87623 28.9733,8.70956 27.5,8C 28.2438,6.96141 29.2438,6.46141 30.5,6.5C 30.56,7.04309 30.8933,7.37642 31.5,7.5C 32.1497,5.81643 33.1497,4.4831 34.5,3.5 Z"/></g>
<g><path style="opacity:1" fill="#080603" d="M 16.5,4.5 C 16.5,5.16667 16.5,5.83333 16.5,6.5C 18.5641,7.30469 20.5641,7.63803 22.5,7.5C 20.6404,8.3249 18.9738,9.3249 17.5,10.5C 17.1667,10.5 16.8333,10.5 16.5,10.5C 15.8333,9.5 15.1667,8.5 14.5,7.5C 15.1667,6.5 15.8333,5.5 16.5,4.5 Z"/></g>
<g><path style="opacity:1" fill="#0d0b09" d="M 30.5,6.5 C 29.2438,6.46141 28.2438,6.96141 27.5,8C 28.9733,8.70956 29.6399,9.87623 29.5,11.5C 29.5,11.8333 29.5,12.1667 29.5,12.5C 28.8333,12.1667 28.1667,11.8333 27.5,11.5C 27.5,10.8333 27.1667,10.5 26.5,10.5C 26.5,9.16667 26.5,7.83333 26.5,6.5C 27.9613,5.31434 29.2946,5.31434 30.5,6.5 Z"/></g>
<g><path style="opacity:1" fill="#080806" d="M 43.5,7.5 C 44.5,7.5 45.5,7.5 46.5,7.5C 47.1667,8.5 47.8333,9.5 48.5,10.5C 46.7085,10.366 45.0418,10.6993 43.5,11.5C 43.1667,11.5 42.8333,11.5 42.5,11.5C 42.4326,10.0413 42.7659,8.70792 43.5,7.5 Z"/></g>
<g><path style="opacity:1" fill="#0a0606" d="M 5.5,9.5 C 7.02763,10.3092 8.6943,10.9759 10.5,11.5C 11.8333,11.8333 11.8333,12.1667 10.5,12.5C 7.91618,13.0483 6.91618,14.715 7.5,17.5C 8.5,17.5 9.5,17.5 10.5,17.5C 10.5,18.5 10.5,19.5 10.5,20.5C 9.83333,20.5 9.16667,20.5 8.5,20.5C 7.53128,19.6906 6.69794,18.6906 6,17.5C 5.58605,17.9574 5.08605,18.2907 4.5,18.5C 3.25278,16.9936 3.25278,15.4936 4.5,14C 3.55198,13.5172 2.55198,13.3505 1.5,13.5C 1.83333,17.5 2.16667,21.5 2.5,25.5C 1.66175,25.8417 1.32842,26.5084 1.5,27.5C 0.294733,26.3281 0.294733,24.9948 1.5,23.5C 1.14451,22.4777 0.477842,21.811 -0.5,21.5C -0.5,18.1667 -0.5,14.8333 -0.5,11.5C 0.26791,10.7375 0.76791,9.73747 1,8.5C 1.33333,9.16667 1.66667,9.83333 2,10.5C 3.01127,9.66337 4.17793,9.33003 5.5,9.5 Z"/></g>
<g><path style="opacity:1" fill="#090707" d="M 11.5,6.5 C 12.1054,8.48123 13.1054,8.81457 14.5,7.5C 15.1667,8.5 15.8333,9.5 16.5,10.5C 14.2646,10.2053 12.2646,10.5386 10.5,11.5C 8.6943,10.9759 7.02763,10.3092 5.5,9.5C 5.5,8.83333 5.5,8.16667 5.5,7.5C 6.22158,7.91753 6.72158,8.5842 7,9.5C 7.66667,6.83333 8.33333,6.83333 9,9.5C 9.66667,8.16667 10.3333,6.83333 11,5.5C 11.3988,5.72845 11.5654,6.06178 11.5,6.5 Z"/></g>
<g><path style="opacity:1" fill="#290f06" d="M 10.5,11.5 C 12.2646,10.5386 14.2646,10.2053 16.5,10.5C 16.8333,10.5 17.1667,10.5 17.5,10.5C 20.5,10.5 23.5,10.5 26.5,10.5C 27.1667,10.5 27.5,10.8333 27.5,11.5C 22.0557,10.8917 17.0557,11.5583 12.5,13.5C 12.5,24.5 12.5,35.5 12.5,46.5C 11.8826,46.3893 11.3826,46.056 11,45.5C 10.5003,38.1742 10.3337,30.8409 10.5,23.5C 10.5,22.5 10.5,21.5 10.5,20.5C 10.5,19.5 10.5,18.5 10.5,17.5C 10.5,15.8333 10.5,14.1667 10.5,12.5C 11.8333,12.1667 11.8333,11.8333 10.5,11.5 Z"/></g>
<g><path style="opacity:1" fill="#060304" d="M 54.5,9.5 C 54.8333,9.5 55.1667,9.5 55.5,9.5C 55.5,10.8333 56.1667,11.5 57.5,11.5C 56.1667,14.1667 54.8333,14.1667 53.5,11.5C 51.8212,11.7148 50.8212,11.0481 50.5,9.5C 51.7054,8.31434 53.0387,8.31434 54.5,9.5 Z"/></g>
<g><path style="opacity:1" fill="#0b0908" d="M 59.5,3.5 C 59.5,4.16667 59.8333,4.5 60.5,4.5C 58.7032,7.73755 59.7032,9.73755 63.5,10.5C 63.5,10.8333 63.5,11.1667 63.5,11.5C 62.2223,11.7822 61.2223,12.4489 60.5,13.5C 59.5,12.8333 58.5,12.1667 57.5,11.5C 56.1667,11.5 55.5,10.8333 55.5,9.5C 56.8333,7.5 58.1667,5.5 59.5,3.5 Z"/></g>
<g><path style="opacity:1" fill="#471007" d="M 27.5,11.5 C 28.1667,11.8333 28.8333,12.1667 29.5,12.5C 30.5,12.5 31.5,12.5 32.5,12.5C 34.099,12.2322 35.4324,12.5655 36.5,13.5C 34.5168,13.1568 33.1834,13.8235 32.5,15.5C 31.8333,15.8333 31.1667,16.1667 30.5,16.5C 29.8333,16.1667 29.1667,15.8333 28.5,15.5C 28.3893,14.8826 28.056,14.3826 27.5,14C 22.8452,13.5008 18.1785,13.3342 13.5,13.5C 13.1667,13.5 12.8333,13.5 12.5,13.5C 17.0557,11.5583 22.0557,10.8917 27.5,11.5 Z"/></g>
<g><path style="opacity:1" fill="#130706" d="M 33.5,10.5 C 36.5448,10.5079 39.5448,10.8413 42.5,11.5C 42.8333,11.5 43.1667,11.5 43.5,11.5C 44.561,12.0405 45.561,12.3738 46.5,12.5C 45.1155,13.8009 43.6155,13.8009 42,12.5C 40.872,14.3453 40.372,16.3453 40.5,18.5C 40.5,20.5 40.5,22.5 40.5,24.5C 41.8333,24.5 43.1667,24.5 44.5,24.5C 46.099,24.2322 47.4324,24.5655 48.5,25.5C 45.5,25.5 42.5,25.5 39.5,25.5C 39.5,25.1667 39.5,24.8333 39.5,24.5C 39.6655,20.4862 39.4988,16.4862 39,12.5C 36.7265,11.1888 34.5598,11.1888 32.5,12.5C 31.5,12.5 30.5,12.5 29.5,12.5C 29.5,12.1667 29.5,11.8333 29.5,11.5C 30.7079,10.7659 32.0413,10.4326 33.5,10.5 Z"/></g>
<g><path style="opacity:1" fill="#0d0807" d="M 50.5,9.5 C 50.8212,11.0481 51.8212,11.7148 53.5,11.5C 52.7222,12.1556 52.0556,12.9889 51.5,14C 51.5699,14.7648 51.9033,15.2648 52.5,15.5C 52.1583,16.3382 51.4916,16.6716 50.5,16.5C 49.467,14.9145 48.1336,13.5812 46.5,12.5C 45.561,12.3738 44.561,12.0405 43.5,11.5C 45.0418,10.6993 46.7085,10.366 48.5,10.5C 49.1667,10.1667 49.8333,9.83333 50.5,9.5 Z"/></g>
<g><path style="opacity:1" fill="#080806" d="M 46.5,12.5 C 48.1336,13.5812 49.467,14.9145 50.5,16.5C 48.965,15.6457 47.6316,15.6457 46.5,16.5C 45.2794,15.9717 44.1127,15.305 43,14.5C 42.5439,15.7441 43.0439,16.5774 44.5,17C 43.5842,17.2784 42.9175,17.7784 42.5,18.5C 41.8333,18.5 41.1667,18.5 40.5,18.5C 40.372,16.3453 40.872,14.3453 42,12.5C 43.6155,13.8009 45.1155,13.8009 46.5,12.5 Z"/></g>
<g><path style="opacity:1" fill="#dc5b20" d="M 13.5,13.5 C 18.1785,13.3342 22.8452,13.5008 27.5,14C 28.056,14.3826 28.3893,14.8826 28.5,15.5C 23.6946,16.4872 18.6946,16.8205 13.5,16.5C 13.5,15.5 13.5,14.5 13.5,13.5 Z"/></g>
<g><path style="opacity:1" fill="#0a0607" d="M 63.5,11.5 C 63.5,15.5 63.5,19.5 63.5,23.5C 62.8333,22.8333 62.1667,22.1667 61.5,21.5C 61.5,19.8333 61.5,18.1667 61.5,16.5C 62.0431,16.44 62.3764,16.1067 62.5,15.5C 62.1543,14.3044 61.6543,14.3044 61,15.5C 60.5357,14.9056 60.369,14.2389 60.5,13.5C 61.2223,12.4489 62.2223,11.7822 63.5,11.5 Z"/></g>
<g><path style="opacity:1" fill="#0a0805" d="M 10.5,12.5 C 10.5,14.1667 10.5,15.8333 10.5,17.5C 9.5,17.5 8.5,17.5 7.5,17.5C 6.91618,14.715 7.91618,13.0483 10.5,12.5 Z"/></g>
<g><path style="opacity:1" fill="#070907" d="M 53.5,11.5 C 54.8333,14.1667 56.1667,14.1667 57.5,11.5C 58.5,12.1667 59.5,12.8333 60.5,13.5C 60.369,14.2389 60.5357,14.9056 61,15.5C 61.6543,14.3044 62.1543,14.3044 62.5,15.5C 62.3764,16.1067 62.0431,16.44 61.5,16.5C 60.8333,16.5 60.1667,16.5 59.5,16.5C 58.0361,17.045 56.3694,17.045 54.5,16.5C 54.1583,15.6618 53.4916,15.3284 52.5,15.5C 51.9033,15.2648 51.5699,14.7648 51.5,14C 52.0556,12.9889 52.7222,12.1556 53.5,11.5 Z"/></g>
<g><path style="opacity:1" fill="#060505" d="M 8.5,20.5 C 7.34492,20.5784 6.01159,20.9117 4.5,21.5C 5.12723,22.4168 5.46056,23.4168 5.5,24.5C 4.88258,24.3893 4.38258,24.056 4,23.5C 3.72158,24.4158 3.22158,25.0825 2.5,25.5C 2.16667,21.5 1.83333,17.5 1.5,13.5C 2.55198,13.3505 3.55198,13.5172 4.5,14C 3.25278,15.4936 3.25278,16.9936 4.5,18.5C 5.08605,18.2907 5.58605,17.9574 6,17.5C 6.69794,18.6906 7.53128,19.6906 8.5,20.5 Z"/></g>
<g><path style="opacity:1" fill="#070605" d="M 46.5,16.5 C 47.6316,15.6457 48.965,15.6457 50.5,16.5C 51.4916,16.6716 52.1583,16.3382 52.5,15.5C 53.4916,15.3284 54.1583,15.6618 54.5,16.5C 53.1667,17.1667 53.1667,17.8333 54.5,18.5C 54.0825,19.2216 53.4158,19.7216 52.5,20C 53.9561,20.4226 54.4561,21.2559 54,22.5C 53.2303,23.5981 52.397,23.5981 51.5,22.5C 51.8808,20.0582 51.2141,19.3915 49.5,20.5C 48.8503,18.8164 47.8503,17.4831 46.5,16.5 Z"/></g>
<g><path style="opacity:1" fill="#a42d05" d="M 28.5,15.5 C 29.1667,15.8333 29.8333,16.1667 30.5,16.5C 30.5,16.8333 30.5,17.1667 30.5,17.5C 28.4458,17.3653 26.7791,18.032 25.5,19.5C 23.7211,17.6565 21.3878,16.9898 18.5,17.5C 18.5,18.5 18.5,19.5 18.5,20.5C 17.596,19.791 17.2627,18.791 17.5,17.5C 16.1667,17.5 14.8333,17.5 13.5,17.5C 13.5,17.1667 13.5,16.8333 13.5,16.5C 18.6946,16.8205 23.6946,16.4872 28.5,15.5 Z"/></g>
<g><path style="opacity:1" fill="#2e0d04" d="M 32.5,12.5 C 34.5598,11.1888 36.7265,11.1888 39,12.5C 39.4988,16.4862 39.6655,20.4862 39.5,24.5C 38.8333,20.8333 38.1667,17.1667 37.5,13.5C 37.1667,13.5 36.8333,13.5 36.5,13.5C 35.4324,12.5655 34.099,12.2322 32.5,12.5 Z"/></g>
<g><path style="opacity:1" fill="#0a0607" d="M 59.5,16.5 C 58.7945,18.6716 57.7945,20.6716 56.5,22.5C 55.8333,21.1667 55.1667,19.8333 54.5,18.5C 53.1667,17.8333 53.1667,17.1667 54.5,16.5C 56.3694,17.045 58.0361,17.045 59.5,16.5 Z"/></g>
<g><path style="opacity:1" fill="#771803" d="M 25.5,19.5 C 23.3926,20.4682 21.0593,20.8016 18.5,20.5C 18.5,19.5 18.5,18.5 18.5,17.5C 21.3878,16.9898 23.7211,17.6565 25.5,19.5 Z"/></g>
<g><path style="opacity:1" fill="#d9581e" d="M 32.5,17.5 C 33.8333,17.5 35.1667,17.5 36.5,17.5C 36.5,19.5 36.5,21.5 36.5,23.5C 35.1667,23.5 33.8333,23.5 32.5,23.5C 32.5,21.5 32.5,19.5 32.5,17.5 Z"/></g>
<g><path style="opacity:1" fill="#070304" d="M 46.5,16.5 C 47.3543,18.035 47.3543,19.3684 46.5,20.5C 45.828,19.7326 44.9947,19.0659 44,18.5C 43.6667,20.1667 43.3333,21.8333 43,23.5C 41.4807,21.8608 41.314,20.1942 42.5,18.5C 42.9175,17.7784 43.5842,17.2784 44.5,17C 43.0439,16.5774 42.5439,15.7441 43,14.5C 44.1127,15.305 45.2794,15.9717 46.5,16.5 Z"/></g>
<g><path style="opacity:1" fill="#0a0907" d="M 59.5,16.5 C 60.1667,16.5 60.8333,16.5 61.5,16.5C 61.5,18.1667 61.5,19.8333 61.5,21.5C 60.1751,22.9526 59.3418,22.6192 59,20.5C 58.2828,21.0442 57.7828,21.7109 57.5,22.5C 57.1667,22.5 56.8333,22.5 56.5,22.5C 57.7945,20.6716 58.7945,18.6716 59.5,16.5 Z"/></g>
<g><path style="opacity:1" fill="#e35d21" d="M 13.5,17.5 C 14.8333,17.5 16.1667,17.5 17.5,17.5C 17.2627,18.791 17.596,19.791 18.5,20.5C 18.5,20.8333 18.5,21.1667 18.5,21.5C 16.8333,21.5 15.1667,21.5 13.5,21.5C 13.5,20.1667 13.5,18.8333 13.5,17.5 Z"/></g>
<g><path style="opacity:1" fill="#e26022" d="M 30.5,17.5 C 30.5674,18.9587 30.2341,20.2921 29.5,21.5C 25.8333,21.5 22.1667,21.5 18.5,21.5C 18.5,21.1667 18.5,20.8333 18.5,20.5C 21.0593,20.8016 23.3926,20.4682 25.5,19.5C 26.7791,18.032 28.4458,17.3653 30.5,17.5 Z"/></g>
<g><path style="opacity:1" fill="#bb4515" d="M 36.5,13.5 C 36.8333,13.5 37.1667,13.5 37.5,13.5C 37.5,17.8333 37.5,22.1667 37.5,26.5C 36.5326,25.1938 35.1993,24.5271 33.5,24.5C 33.5,25.5 33.5,26.5 33.5,27.5C 33.1667,27.5 32.8333,27.5 32.5,27.5C 32.5,26.1667 32.5,24.8333 32.5,23.5C 33.8333,23.5 35.1667,23.5 36.5,23.5C 36.5,21.5 36.5,19.5 36.5,17.5C 35.1667,17.5 33.8333,17.5 32.5,17.5C 32.5,16.8333 32.5,16.1667 32.5,15.5C 33.1834,13.8235 34.5168,13.1568 36.5,13.5 Z"/></g>
<g><path style="opacity:1" fill="#090907" d="M 46.5,16.5 C 47.8503,17.4831 48.8503,18.8164 49.5,20.5C 51.2141,19.3915 51.8808,20.0582 51.5,22.5C 50.8826,22.3893 50.3826,22.056 50,21.5C 49.7216,22.4158 49.2216,23.0825 48.5,23.5C 48.2178,22.2223 47.5511,21.2223 46.5,20.5C 47.3543,19.3684 47.3543,18.035 46.5,16.5 Z"/></g>
<g><path style="opacity:1" fill="#0d0808" d="M 8.5,20.5 C 9.16667,20.5 9.83333,20.5 10.5,20.5C 10.5,21.5 10.5,22.5 10.5,23.5C 9.66175,23.8417 9.32842,24.5084 9.5,25.5C 8.41683,25.5394 7.41683,25.8728 6.5,26.5C 5.70245,26.0431 5.36912,25.3764 5.5,24.5C 5.46056,23.4168 5.12723,22.4168 4.5,21.5C 6.01159,20.9117 7.34492,20.5784 8.5,20.5 Z"/></g>
<g><path style="opacity:1" fill="#d5531a" d="M 13.5,21.5 C 15.1667,21.5 16.8333,21.5 18.5,21.5C 22.1667,21.5 25.8333,21.5 29.5,21.5C 30.1495,23.4352 30.4828,25.4352 30.5,27.5C 30.1667,27.5 29.8333,27.5 29.5,27.5C 28.4324,26.5655 27.099,26.2322 25.5,26.5C 25.5,25.5 25.5,24.5 25.5,23.5C 21.5,23.5 17.5,23.5 13.5,23.5C 13.5,22.8333 13.5,22.1667 13.5,21.5 Z"/></g>
<g><path style="opacity:1" fill="#0a0606" d="M 40.5,18.5 C 41.1667,18.5 41.8333,18.5 42.5,18.5C 41.314,20.1942 41.4807,21.8608 43,23.5C 43.3333,21.8333 43.6667,20.1667 44,18.5C 44.9947,19.0659 45.828,19.7326 46.5,20.5C 47.5511,21.2223 48.2178,22.2223 48.5,23.5C 46.901,23.2322 45.5676,23.5655 44.5,24.5C 43.1667,24.5 41.8333,24.5 40.5,24.5C 40.5,22.5 40.5,20.5 40.5,18.5 Z"/></g>
<g><path style="opacity:1" fill="#0e0808" d="M 54.5,18.5 C 55.1667,19.8333 55.8333,21.1667 56.5,22.5C 56.8333,22.5 57.1667,22.5 57.5,22.5C 57.5,23.5 57.5,24.5 57.5,25.5C 57.1667,25.5 56.8333,25.5 56.5,25.5C 56.631,24.7611 56.4643,24.0944 56,23.5C 54.4815,24.1634 53.3149,25.1634 52.5,26.5C 51.8333,26.5 51.1667,26.5 50.5,26.5C 50.1583,25.6618 49.4916,25.3284 48.5,25.5C 47.4324,24.5655 46.099,24.2322 44.5,24.5C 45.5676,23.5655 46.901,23.2322 48.5,23.5C 49.2216,23.0825 49.7216,22.4158 50,21.5C 50.3826,22.056 50.8826,22.3893 51.5,22.5C 52.397,23.5981 53.2303,23.5981 54,22.5C 54.4561,21.2559 53.9561,20.4226 52.5,20C 53.4158,19.7216 54.0825,19.2216 54.5,18.5 Z"/></g>
<g><path style="opacity:1" fill="#741701" d="M 32.5,15.5 C 32.5,16.1667 32.5,16.8333 32.5,17.5C 32.5,19.5 32.5,21.5 32.5,23.5C 32.5,24.8333 32.5,26.1667 32.5,27.5C 31.8333,27.5 31.1667,27.5 30.5,27.5C 30.4828,25.4352 30.1495,23.4352 29.5,21.5C 30.2341,20.2921 30.5674,18.9587 30.5,17.5C 30.5,17.1667 30.5,16.8333 30.5,16.5C 31.1667,16.1667 31.8333,15.8333 32.5,15.5 Z"/></g>
<g><path style="opacity:1" fill="#070505" d="M 61.5,21.5 C 62.1667,22.1667 62.8333,22.8333 63.5,23.5C 63.5,24.1667 63.5,24.8333 63.5,25.5C 61.6081,27.6766 59.6081,27.6766 57.5,25.5C 57.5,24.5 57.5,23.5 57.5,22.5C 57.7828,21.7109 58.2828,21.0442 59,20.5C 59.3418,22.6192 60.1751,22.9526 61.5,21.5 Z"/></g>
<g><path style="opacity:1" fill="#972404" d="M 13.5,24.5 C 13.5,24.1667 13.5,23.8333 13.5,23.5C 17.5,23.5 21.5,23.5 25.5,23.5C 25.5,24.5 25.5,25.5 25.5,26.5C 25.1583,27.3382 24.4916,27.6716 23.5,27.5C 23.8039,26.8501 24.1373,26.1835 24.5,25.5C 22.604,24.5344 20.604,24.2011 18.5,24.5C 18.5,25.5 18.5,26.5 18.5,27.5C 17.596,26.791 17.2627,25.791 17.5,24.5C 16.1667,24.5 14.8333,24.5 13.5,24.5 Z"/></g>
<g><path style="opacity:1" fill="#3b0e04" d="M 39.5,25.5 C 42.5,25.5 45.5,25.5 48.5,25.5C 49.4916,25.3284 50.1583,25.6618 50.5,26.5C 50.5,26.8333 50.5,27.1667 50.5,27.5C 50.1667,27.5 49.8333,27.5 49.5,27.5C 48.8333,27.5 48.1667,27.5 47.5,27.5C 44.8333,26.8333 42.1667,26.1667 39.5,25.5 Z"/></g>
<g><path style="opacity:1" fill="#e45e21" d="M 13.5,24.5 C 14.8333,24.5 16.1667,24.5 17.5,24.5C 17.2627,25.791 17.596,26.791 18.5,27.5C 18.8333,27.5 19.1667,27.5 19.5,27.5C 22.2869,28.4767 25.2869,28.81 28.5,28.5C 28.5,28.8333 28.5,29.1667 28.5,29.5C 23.5947,30.4454 18.5947,30.7787 13.5,30.5C 13.5,28.5 13.5,26.5 13.5,24.5 Z"/></g>
<g><path style="opacity:1" fill="#701601" d="M 23.5,27.5 C 22.1667,27.5 20.8333,27.5 19.5,27.5C 19.1667,27.5 18.8333,27.5 18.5,27.5C 18.5,26.5 18.5,25.5 18.5,24.5C 20.604,24.2011 22.604,24.5344 24.5,25.5C 24.1373,26.1835 23.8039,26.8501 23.5,27.5 Z"/></g>
<g><path style="opacity:1" fill="#e56022" d="M 37.5,26.5 C 40.728,27.4137 44.0613,27.7471 47.5,27.5C 48.1667,27.5 48.8333,27.5 49.5,27.5C 49.5,28.5 49.5,29.5 49.5,30.5C 45.5,30.5 41.5,30.5 37.5,30.5C 36.391,30.4431 35.391,30.1098 34.5,29.5C 34.1667,28.8333 33.8333,28.1667 33.5,27.5C 33.5,26.5 33.5,25.5 33.5,24.5C 35.1993,24.5271 36.5326,25.1938 37.5,26.5 Z"/></g>
<g><path style="opacity:1" fill="#631404" d="M 37.5,13.5 C 38.1667,17.1667 38.8333,20.8333 39.5,24.5C 39.5,24.8333 39.5,25.1667 39.5,25.5C 42.1667,26.1667 44.8333,26.8333 47.5,27.5C 44.0613,27.7471 40.728,27.4137 37.5,26.5C 37.5,22.1667 37.5,17.8333 37.5,13.5 Z"/></g>
<g><path style="opacity:1" fill="#0a0805" d="M -0.5,21.5 C 0.477842,21.811 1.14451,22.4777 1.5,23.5C 0.294733,24.9948 0.294733,26.3281 1.5,27.5C 4.09723,27.7208 4.09723,28.2208 1.5,29C 2.4158,29.2784 3.08247,29.7784 3.5,30.5C 2.04125,30.4326 0.707917,30.7659 -0.5,31.5C -0.5,28.1667 -0.5,24.8333 -0.5,21.5 Z"/></g>
<g><path style="opacity:1" fill="#0a0908" d="M 5.5,24.5 C 5.36912,25.3764 5.70245,26.0431 6.5,26.5C 7.41683,25.8728 8.41683,25.5394 9.5,25.5C 9.65668,26.8734 9.49001,28.2068 9,29.5C 8.66667,28.8333 8.33333,28.1667 8,27.5C 7.60123,27.7284 7.43456,28.0618 7.5,28.5C 4.20269,28.3287 3.86935,28.9954 6.5,30.5C 6,31.5 5.5,32.5 5,33.5C 4.76791,32.2625 4.26791,31.2625 3.5,30.5C 3.08247,29.7784 2.4158,29.2784 1.5,29C 4.09723,28.2208 4.09723,27.7208 1.5,27.5C 1.32842,26.5084 1.66175,25.8417 2.5,25.5C 3.22158,25.0825 3.72158,24.4158 4,23.5C 4.38258,24.056 4.88258,24.3893 5.5,24.5 Z"/></g>
<g><path style="opacity:1" fill="#120a09" d="M 10.5,23.5 C 10.3337,30.8409 10.5003,38.1742 11,45.5C 11.3826,46.056 11.8826,46.3893 12.5,46.5C 13.075,48.4113 14.075,50.078 15.5,51.5C 14.0413,51.5674 12.7079,51.2341 11.5,50.5C 11.5,50.1667 11.5,49.8333 11.5,49.5C 10.657,47.8267 9.32366,46.66 7.5,46C 8.05596,45.6174 8.38929,45.1174 8.5,44.5C 9.16667,44.5 9.5,44.1667 9.5,43.5C 8.85048,41.5648 8.51715,39.5648 8.5,37.5C 9.15239,36.5514 9.48572,35.3847 9.5,34C 9.07909,32.0107 8.41242,30.1773 7.5,28.5C 7.43456,28.0618 7.60123,27.7284 8,27.5C 8.33333,28.1667 8.66667,28.8333 9,29.5C 9.49001,28.2068 9.65668,26.8734 9.5,25.5C 9.32842,24.5084 9.66175,23.8417 10.5,23.5 Z"/></g>
<g><path style="opacity:1" fill="#ec6729" d="M 25.5,26.5 C 27.099,26.2322 28.4324,26.5655 29.5,27.5C 29.5,28.1667 29.1667,28.5 28.5,28.5C 25.2869,28.81 22.2869,28.4767 19.5,27.5C 20.8333,27.5 22.1667,27.5 23.5,27.5C 24.4916,27.6716 25.1583,27.3382 25.5,26.5 Z"/></g>
<g><path style="opacity:1" fill="#531304" d="M 29.5,27.5 C 29.8333,27.5 30.1667,27.5 30.5,27.5C 31.1667,27.5 31.8333,27.5 32.5,27.5C 32.8333,27.5 33.1667,27.5 33.5,27.5C 33.8333,28.1667 34.1667,28.8333 34.5,29.5C 34.4431,30.609 34.1098,31.609 33.5,32.5C 33.1667,32.5 32.8333,32.5 32.5,32.5C 31.8333,32.5 31.1667,32.5 30.5,32.5C 29.4489,31.7777 28.7822,30.7777 28.5,29.5C 28.5,29.1667 28.5,28.8333 28.5,28.5C 29.1667,28.5 29.5,28.1667 29.5,27.5 Z"/></g>
<g><path style="opacity:1" fill="#0c090a" d="M 56.5,25.5 C 56.8333,25.5 57.1667,25.5 57.5,25.5C 59.6081,27.6766 61.6081,27.6766 63.5,25.5C 63.5,27.1667 63.5,28.8333 63.5,30.5C 62.7354,30.0766 61.9021,29.7432 61,29.5C 60.0346,29.9296 59.5346,30.5963 59.5,31.5C 58.2921,30.7659 56.9587,30.4326 55.5,30.5C 55.2155,28.5853 55.5489,26.9187 56.5,25.5 Z"/></g>
<g><path style="opacity:1" fill="#a52c07" d="M 37.5,30.5 C 41.5,30.5 45.5,30.5 49.5,30.5C 48.8333,31.1667 48.1667,31.8333 47.5,32.5C 46.8333,32.5 46.1667,32.5 45.5,32.5C 42.8333,31.8333 40.1667,31.1667 37.5,30.5 Z"/></g>
<g><path style="opacity:1" fill="#070505" d="M 56.5,25.5 C 55.5489,26.9187 55.2155,28.5853 55.5,30.5C 56.9587,30.4326 58.2921,30.7659 59.5,31.5C 59.5,32.1667 59.5,32.8333 59.5,33.5C 58.5,33.5 57.5,33.5 56.5,33.5C 53.9046,31.9856 52.5713,29.6523 52.5,26.5C 53.3149,25.1634 54.4815,24.1634 56,23.5C 56.4643,24.0944 56.631,24.7611 56.5,25.5 Z"/></g>
<g><path style="opacity:1" fill="#8c2406" d="M 12.5,13.5 C 12.8333,13.5 13.1667,13.5 13.5,13.5C 13.5,14.5 13.5,15.5 13.5,16.5C 13.5,16.8333 13.5,17.1667 13.5,17.5C 13.5,18.8333 13.5,20.1667 13.5,21.5C 13.5,22.1667 13.5,22.8333 13.5,23.5C 13.5,23.8333 13.5,24.1667 13.5,24.5C 13.5,26.5 13.5,28.5 13.5,30.5C 18.5947,30.7787 23.5947,30.4454 28.5,29.5C 28.7822,30.7777 29.4489,31.7777 30.5,32.5C 29.1667,32.5 27.8333,32.5 26.5,32.5C 26.1667,32.5 25.8333,32.5 25.5,32.5C 23.3926,31.5318 21.0593,31.1984 18.5,31.5C 17.8333,31.5 17.5,31.8333 17.5,32.5C 16.1667,32.5 14.8333,32.5 13.5,32.5C 13.5,36.8333 13.5,41.1667 13.5,45.5C 13.5,45.8333 13.5,46.1667 13.5,46.5C 13.1667,46.5 12.8333,46.5 12.5,46.5C 12.5,35.5 12.5,24.5 12.5,13.5 Z"/></g>
<g><path style="opacity:1" fill="#a42908" d="M 34.5,29.5 C 35.391,30.1098 36.391,30.4431 37.5,30.5C 40.1667,31.1667 42.8333,31.8333 45.5,32.5C 41.5,32.5 37.5,32.5 33.5,32.5C 34.1098,31.609 34.4431,30.609 34.5,29.5 Z"/></g>
<g><path style="opacity:1" fill="#491205" d="M 49.5,27.5 C 49.8333,27.5 50.1667,27.5 50.5,27.5C 51.2084,34.2037 51.5418,41.2037 51.5,48.5C 51.1667,48.5 50.8333,48.5 50.5,48.5C 50.8182,43.9677 50.4849,39.6344 49.5,35.5C 49.5,34.8333 49.1667,34.5 48.5,34.5C 48.1667,33.8333 47.8333,33.1667 47.5,32.5C 48.1667,31.8333 48.8333,31.1667 49.5,30.5C 49.5,29.5 49.5,28.5 49.5,27.5 Z"/></g>
<g><path style="opacity:1" fill="#0b0709" d="M 63.5,30.5 C 63.5,31.8333 63.5,33.1667 63.5,34.5C 61.901,34.7678 60.5676,34.4345 59.5,33.5C 59.5,32.8333 59.5,32.1667 59.5,31.5C 59.5346,30.5963 60.0346,29.9296 61,29.5C 61.9021,29.7432 62.7354,30.0766 63.5,30.5 Z"/></g>
<g><path style="opacity:1" fill="#160806" d="M 50.5,27.5 C 50.5,27.1667 50.5,26.8333 50.5,26.5C 51.1667,26.5 51.8333,26.5 52.5,26.5C 52.5713,29.6523 53.9046,31.9856 56.5,33.5C 55.5,33.5 54.5,33.5 53.5,33.5C 53.5,34.8333 53.5,36.1667 53.5,37.5C 52.5318,39.6074 52.1984,41.9407 52.5,44.5C 52.5,45.5 52.5,46.5 52.5,47.5C 52.5,48.1667 52.1667,48.5 51.5,48.5C 51.5418,41.2037 51.2084,34.2037 50.5,27.5 Z"/></g>
<g><path style="opacity:1" fill="#080505" d="M 7.5,28.5 C 8.41242,30.1773 9.07909,32.0107 9.5,34C 9.48572,35.3847 9.15239,36.5514 8.5,37.5C 7.53772,33.542 6.53772,33.542 5.5,37.5C 4.77842,37.0825 4.27842,36.4158 4,35.5C 3.09216,37.4386 1.59216,38.4386 -0.5,38.5C -0.5,36.1667 -0.5,33.8333 -0.5,31.5C 0.707917,30.7659 2.04125,30.4326 3.5,30.5C 4.26791,31.2625 4.76791,32.2625 5,33.5C 5.5,32.5 6,31.5 6.5,30.5C 3.86935,28.9954 4.20269,28.3287 7.5,28.5 Z"/></g>
<g><path style="opacity:1" fill="#d04e19" d="M 32.5,32.5 C 32.8333,32.5 33.1667,32.5 33.5,32.5C 37.5,32.5 41.5,32.5 45.5,32.5C 46.1667,32.5 46.8333,32.5 47.5,32.5C 47.8333,33.1667 48.1667,33.8333 48.5,34.5C 43.1667,34.5 37.8333,34.5 32.5,34.5C 32.5,33.8333 32.5,33.1667 32.5,32.5 Z"/></g>
<g><path style="opacity:1" fill="#721601" d="M 18.5,31.5 C 18.5,31.8333 18.5,32.1667 18.5,32.5C 18.185,36.3714 18.5184,40.0381 19.5,43.5C 19.5,43.8333 19.5,44.1667 19.5,44.5C 19.5,44.8333 19.5,45.1667 19.5,45.5C 18.8333,45.1667 18.1667,44.8333 17.5,44.5C 17.5,40.5 17.5,36.5 17.5,32.5C 17.5,31.8333 17.8333,31.5 18.5,31.5 Z"/></g>
<g><path style="opacity:1" fill="#e66122" d="M 32.5,34.5 C 37.8333,34.5 43.1667,34.5 48.5,34.5C 49.1667,34.5 49.5,34.8333 49.5,35.5C 49.5,36.5 49.5,37.5 49.5,38.5C 48.1667,38.5 46.8333,38.5 45.5,38.5C 45.7373,37.209 45.404,36.209 44.5,35.5C 42.1667,35.5 39.8333,35.5 37.5,35.5C 37.5,36.8333 37.5,38.1667 37.5,39.5C 39.5,39.5 41.5,39.5 43.5,39.5C 43.7278,40.9723 40.0611,41.3056 32.5,40.5C 32.5,38.5 32.5,36.5 32.5,34.5 Z"/></g>
<g><path style="opacity:1" fill="#dd5a20" d="M 17.5,32.5 C 17.5,36.5 17.5,40.5 17.5,44.5C 16.4324,45.4345 15.099,45.7678 13.5,45.5C 13.5,41.1667 13.5,36.8333 13.5,32.5C 14.8333,32.5 16.1667,32.5 17.5,32.5 Z"/></g>
<g><path style="opacity:1" fill="#3e0f04" d="M 18.5,32.5 C 20.4147,32.2155 22.0813,32.5489 23.5,33.5C 22.5,33.5 21.5,33.5 20.5,33.5C 19.5206,36.6248 19.1872,39.9581 19.5,43.5C 18.5184,40.0381 18.185,36.3714 18.5,32.5 Z"/></g>
<g><path style="opacity:1" fill="#e05c20" d="M 26.5,32.5 C 27.8333,32.5 29.1667,32.5 30.5,32.5C 30.5,34.5 30.5,36.5 30.5,38.5C 29.1667,38.5 27.8333,38.5 26.5,38.5C 26.5,36.5 26.5,34.5 26.5,32.5 Z"/></g>
<g><path style="opacity:1" fill="#090506" d="M 56.5,33.5 C 57.5,33.5 58.5,33.5 59.5,33.5C 60.5676,34.4345 61.901,34.7678 63.5,34.5C 63.5,34.8333 63.5,35.1667 63.5,35.5C 61.9902,36.7279 60.4902,36.7279 59,35.5C 58.3828,36.4491 58.5494,37.2825 59.5,38C 58.8799,40.1018 57.8799,40.9351 56.5,40.5C 55.7281,39.3065 54.7281,38.3065 53.5,37.5C 53.5,36.1667 53.5,34.8333 53.5,33.5C 54.5,33.5 55.5,33.5 56.5,33.5 Z"/></g>
<g><path style="opacity:1" fill="#030302" d="M 5.5,37.5 C 6.54699,38.0778 6.38032,38.7445 5,39.5C 4.66667,39.1667 4.33333,38.8333 4,38.5C 2.67028,39.5822 1.17028,40.2488 -0.5,40.5C -0.5,39.8333 -0.5,39.1667 -0.5,38.5C 1.59216,38.4386 3.09216,37.4386 4,35.5C 4.27842,36.4158 4.77842,37.0825 5.5,37.5 Z"/></g>
<g><path style="opacity:1" fill="#7e1801" d="M 30.5,32.5 C 31.1667,32.5 31.8333,32.5 32.5,32.5C 32.5,33.1667 32.5,33.8333 32.5,34.5C 32.5,36.5 32.5,38.5 32.5,40.5C 32.5,42.5 32.5,44.5 32.5,46.5C 31.8333,46.5 31.1667,46.5 30.5,46.5C 30.5,46.1667 30.5,45.8333 30.5,45.5C 30.5,43.5 30.5,41.5 30.5,39.5C 30.5,39.1667 30.5,38.8333 30.5,38.5C 30.5,36.5 30.5,34.5 30.5,32.5 Z"/></g>
<g><path style="opacity:1" fill="#0f0906" d="M 20.5,33.5 C 21.5,33.5 22.5,33.5 23.5,33.5C 23.977,36.9175 22.977,39.5841 20.5,41.5C 20.5,38.8333 20.5,36.1667 20.5,33.5 Z"/></g>
<g><path style="opacity:1" fill="#a6360e" d="M 25.5,32.5 C 25.8333,32.5 26.1667,32.5 26.5,32.5C 26.5,34.5 26.5,36.5 26.5,38.5C 27.8333,38.5 29.1667,38.5 30.5,38.5C 30.5,38.8333 30.5,39.1667 30.5,39.5C 29.1667,39.5 27.8333,39.5 26.5,39.5C 26.7845,41.4147 26.4511,43.0813 25.5,44.5C 25.5,40.5 25.5,36.5 25.5,32.5 Z"/></g>
<g><path style="opacity:1" fill="#230c07" d="M 20.5,33.5 C 20.5,36.1667 20.5,38.8333 20.5,41.5C 20.8212,43.0481 21.8212,43.7148 23.5,43.5C 22.4324,44.4345 21.099,44.7678 19.5,44.5C 19.5,44.1667 19.5,43.8333 19.5,43.5C 19.1872,39.9581 19.5206,36.6248 20.5,33.5 Z"/></g>
<g><path style="opacity:1" fill="#7e1c03" d="M 44.5,35.5 C 44.5674,36.9587 44.2341,38.2921 43.5,39.5C 41.5,39.5 39.5,39.5 37.5,39.5C 37.5,38.1667 37.5,36.8333 37.5,35.5C 39.8333,35.5 42.1667,35.5 44.5,35.5 Z"/></g>
<g><path style="opacity:1" fill="#0a0504" d="M 53.5,37.5 C 54.7281,38.3065 55.7281,39.3065 56.5,40.5C 54.9397,42.1294 55.273,43.296 57.5,44C 56.0383,45.6279 54.3717,45.7946 52.5,44.5C 52.1984,41.9407 52.5318,39.6074 53.5,37.5 Z"/></g>
<g><path style="opacity:1" fill="#581206" d="M 18.5,32.5 C 18.5,32.1667 18.5,31.8333 18.5,31.5C 21.0593,31.1984 23.3926,31.5318 25.5,32.5C 25.5,36.5 25.5,40.5 25.5,44.5C 23.6208,45.3414 21.6208,45.6747 19.5,45.5C 19.5,45.1667 19.5,44.8333 19.5,44.5C 21.099,44.7678 22.4324,44.4345 23.5,43.5C 24.8333,40.1667 24.8333,36.8333 23.5,33.5C 22.0813,32.5489 20.4147,32.2155 18.5,32.5 Z"/></g>
<g><path style="opacity:1" fill="#0a0908" d="M 63.5,35.5 C 63.5,36.5 63.5,37.5 63.5,38.5C 59.6331,38.4742 58.9664,39.6409 61.5,42C 58.888,43.9828 59.0547,45.8161 62,47.5C 62.2784,46.5842 62.7784,45.9175 63.5,45.5C 63.5,47.1667 63.5,48.8333 63.5,50.5C 62.7784,50.0825 62.2784,49.4158 62,48.5C 61.2303,49.5981 60.397,49.5981 59.5,48.5C 57.2201,48.6462 54.8868,48.3129 52.5,47.5C 52.5,46.5 52.5,45.5 52.5,44.5C 54.3717,45.7946 56.0383,45.6279 57.5,44C 55.273,43.296 54.9397,42.1294 56.5,40.5C 57.8799,40.9351 58.8799,40.1018 59.5,38C 58.5494,37.2825 58.3828,36.4491 59,35.5C 60.4902,36.7279 61.9902,36.7279 63.5,35.5 Z"/></g>
<g><path style="opacity:1" fill="#090507" d="M 63.5,38.5 C 63.5,40.8333 63.5,43.1667 63.5,45.5C 62.7784,45.9175 62.2784,46.5842 62,47.5C 59.0547,45.8161 58.888,43.9828 61.5,42C 58.9664,39.6409 59.6331,38.4742 63.5,38.5 Z"/></g>
<g><path style="opacity:1" fill="#b33e0f" d="M 44.5,35.5 C 45.404,36.209 45.7373,37.209 45.5,38.5C 46.8333,38.5 48.1667,38.5 49.5,38.5C 49.5,37.5 49.5,36.5 49.5,35.5C 50.4849,39.6344 50.8182,43.9677 50.5,48.5C 50.5,49.1667 50.1667,49.5 49.5,49.5C 49.8064,46.6146 49.4731,43.9479 48.5,41.5C 43.5,41.5 38.5,41.5 33.5,41.5C 33.5,42.8333 33.5,44.1667 33.5,45.5C 34.5,45.5 35.5,45.5 36.5,45.5C 36.2627,44.209 36.596,43.209 37.5,42.5C 37.5,43.1667 37.5,43.8333 37.5,44.5C 37.5,45.8333 37.5,47.1667 37.5,48.5C 37.5,48.8333 37.5,49.1667 37.5,49.5C 35.8333,49.5 34.1667,49.5 32.5,49.5C 32.5,48.5 32.5,47.5 32.5,46.5C 32.5,44.5 32.5,42.5 32.5,40.5C 40.0611,41.3056 43.7278,40.9723 43.5,39.5C 44.2341,38.2921 44.5674,36.9587 44.5,35.5 Z"/></g>
<g><path style="opacity:1" fill="#0a0707" d="M 8.5,37.5 C 8.51715,39.5648 8.85048,41.5648 9.5,43.5C 7.40041,43.5228 5.56708,42.8561 4,41.5C 2.59362,42.4138 1.09362,43.0805 -0.5,43.5C -0.5,42.5 -0.5,41.5 -0.5,40.5C 1.17028,40.2488 2.67028,39.5822 4,38.5C 4.33333,38.8333 4.66667,39.1667 5,39.5C 6.38032,38.7445 6.54699,38.0778 5.5,37.5C 6.53772,33.542 7.53772,33.542 8.5,37.5 Z"/></g>
<g><path style="opacity:1" fill="#1f0b04" d="M 23.5,33.5 C 24.8333,36.8333 24.8333,40.1667 23.5,43.5C 21.8212,43.7148 20.8212,43.0481 20.5,41.5C 22.977,39.5841 23.977,36.9175 23.5,33.5 Z"/></g>
<g><path style="opacity:1" fill="#ec6625" d="M 48.5,41.5 C 47.791,42.404 46.791,42.7373 45.5,42.5C 42.8333,42.5 40.1667,42.5 37.5,42.5C 36.596,43.209 36.2627,44.209 36.5,45.5C 35.5,45.5 34.5,45.5 33.5,45.5C 33.5,44.1667 33.5,42.8333 33.5,41.5C 38.5,41.5 43.5,41.5 48.5,41.5 Z"/></g>
<g><path style="opacity:1" fill="#070203" d="M 9.5,43.5 C 9.5,44.1667 9.16667,44.5 8.5,44.5C 5.54223,43.4589 2.54223,43.4589 -0.5,44.5C -0.5,44.1667 -0.5,43.8333 -0.5,43.5C 1.09362,43.0805 2.59362,42.4138 4,41.5C 5.56708,42.8561 7.40041,43.5228 9.5,43.5 Z"/></g>
<g><path style="opacity:1" fill="#d9571c" d="M 30.5,39.5 C 30.5,41.5 30.5,43.5 30.5,45.5C 28.5853,45.7845 26.9187,45.4511 25.5,44.5C 26.4511,43.0813 26.7845,41.4147 26.5,39.5C 27.8333,39.5 29.1667,39.5 30.5,39.5 Z"/></g>
<g><path style="opacity:1" fill="#4a1004" d="M 44.5,48.5 C 43.5655,47.4324 43.2322,46.099 43.5,44.5C 41.901,44.2322 40.5676,44.5655 39.5,45.5C 38.8333,46.5 38.1667,47.5 37.5,48.5C 37.5,47.1667 37.5,45.8333 37.5,44.5C 39.717,43.6314 42.0504,43.298 44.5,43.5C 44.5,45.1667 44.5,46.8333 44.5,48.5 Z"/></g>
<g><path style="opacity:1" fill="#d7551c" d="M 48.5,41.5 C 49.4731,43.9479 49.8064,46.6146 49.5,49.5C 47.901,49.7678 46.5676,49.4345 45.5,48.5C 45.5,46.5 45.5,44.5 45.5,42.5C 46.791,42.7373 47.791,42.404 48.5,41.5 Z"/></g>
<g><path style="opacity:1" fill="#080805" d="M 8.5,44.5 C 8.38929,45.1174 8.05596,45.6174 7.5,46C 9.32366,46.66 10.657,47.8267 11.5,49.5C 8.75336,50.806 7.08669,49.806 6.5,46.5C 4.39263,45.5318 2.0593,45.1984 -0.5,45.5C -0.5,45.1667 -0.5,44.8333 -0.5,44.5C 2.54223,43.4589 5.54223,43.4589 8.5,44.5 Z"/></g>
<g><path style="opacity:1" fill="#7a1904" d="M 37.5,42.5 C 40.1667,42.5 42.8333,42.5 45.5,42.5C 45.5,44.5 45.5,46.5 45.5,48.5C 45.1667,48.5 44.8333,48.5 44.5,48.5C 44.5,46.8333 44.5,45.1667 44.5,43.5C 42.0504,43.298 39.717,43.6314 37.5,44.5C 37.5,43.8333 37.5,43.1667 37.5,42.5 Z"/></g>
<g><path style="opacity:1" fill="#080506" d="M -0.5,45.5 C 2.0593,45.1984 4.39263,45.5318 6.5,46.5C 5.5,46.5 4.5,46.5 3.5,46.5C 3.95393,48.7411 3.95393,50.7411 3.5,52.5C 2.16667,52.5 0.833333,52.5 -0.5,52.5C -0.5,50.1667 -0.5,47.8333 -0.5,45.5 Z"/></g>
<g><path style="opacity:1" fill="#b43d0e" d="M 17.5,44.5 C 18.1667,44.8333 18.8333,45.1667 19.5,45.5C 21.6208,45.6747 23.6208,45.3414 25.5,44.5C 26.9187,45.4511 28.5853,45.7845 30.5,45.5C 30.5,45.8333 30.5,46.1667 30.5,46.5C 29.8333,46.8333 29.1667,47.1667 28.5,47.5C 23.8333,46.1667 19.1667,46.1667 14.5,47.5C 13.8333,47.5 13.5,47.1667 13.5,46.5C 13.5,46.1667 13.5,45.8333 13.5,45.5C 15.099,45.7678 16.4324,45.4345 17.5,44.5 Z"/></g>
<g><path style="opacity:1" fill="#0e0805" d="M 39.5,45.5 C 40.5,45.5 41.5,45.5 42.5,45.5C 42.5,47.1667 42.5,48.8333 42.5,50.5C 41.391,50.4431 40.391,50.1098 39.5,49.5C 39.5,48.1667 39.5,46.8333 39.5,45.5 Z"/></g>
<g><path style="opacity:1" fill="#d5551b" d="M 14.5,47.5 C 19.1667,46.1667 23.8333,46.1667 28.5,47.5C 28.1667,48.1667 27.8333,48.8333 27.5,49.5C 22.8468,50.0008 18.5135,49.3342 14.5,47.5 Z"/></g>
<g><path style="opacity:1" fill="#0a0707" d="M 6.5,46.5 C 7.08669,49.806 8.75336,50.806 11.5,49.5C 11.5,49.8333 11.5,50.1667 11.5,50.5C 11.5,51.1667 11.5,51.8333 11.5,52.5C 11.9175,53.2216 12.5842,53.7216 13.5,54C 12.6195,54.7083 11.9528,55.5416 11.5,56.5C 10.5084,56.6716 9.84171,56.3382 9.5,55.5C 9.2131,53.8793 8.2131,52.8793 6.5,52.5C 5.30441,52.8457 5.30441,53.3457 6.5,54C 5.55198,54.4828 4.55198,54.6495 3.5,54.5C 3.5,53.8333 3.5,53.1667 3.5,52.5C 3.95393,50.7411 3.95393,48.7411 3.5,46.5C 4.5,46.5 5.5,46.5 6.5,46.5 Z"/></g>
<g><path style="opacity:1" fill="#0e0807" d="M 52.5,47.5 C 54.8868,48.3129 57.2201,48.6462 59.5,48.5C 58.8902,49.391 58.5569,50.391 58.5,51.5C 57.8333,51.5 57.5,51.8333 57.5,52.5C 55.8333,52.5 54.1667,52.5 52.5,52.5C 51.1667,52.5 49.8333,52.5 48.5,52.5C 49.1098,51.609 49.4431,50.609 49.5,49.5C 50.1667,49.5 50.5,49.1667 50.5,48.5C 50.8333,48.5 51.1667,48.5 51.5,48.5C 52.1667,48.5 52.5,48.1667 52.5,47.5 Z"/></g>
<g><path style="opacity:1" fill="#4c1106" d="M 12.5,46.5 C 12.8333,46.5 13.1667,46.5 13.5,46.5C 13.5,47.1667 13.8333,47.5 14.5,47.5C 18.5135,49.3342 22.8468,50.0008 27.5,49.5C 27.1667,50.1667 26.8333,50.8333 26.5,51.5C 22.8333,51.5 19.1667,51.5 15.5,51.5C 14.075,50.078 13.075,48.4113 12.5,46.5 Z"/></g>
<g><path style="opacity:1" fill="#1c0a07" d="M 27.5,49.5 C 30.5,50.1667 33.5,50.8333 36.5,51.5C 35.5,52.1667 34.5,52.8333 33.5,53.5C 32.8333,53.1667 32.1667,52.8333 31.5,52.5C 30.0813,51.5489 28.4147,51.2155 26.5,51.5C 26.8333,50.8333 27.1667,50.1667 27.5,49.5 Z"/></g>
<g><path style="opacity:1" fill="#420f06" d="M 30.5,46.5 C 31.1667,46.5 31.8333,46.5 32.5,46.5C 32.5,47.5 32.5,48.5 32.5,49.5C 34.1667,49.5 35.8333,49.5 37.5,49.5C 37.1667,50.1667 36.8333,50.8333 36.5,51.5C 33.5,50.8333 30.5,50.1667 27.5,49.5C 27.8333,48.8333 28.1667,48.1667 28.5,47.5C 29.1667,47.1667 29.8333,46.8333 30.5,46.5 Z"/></g>
<g><path style="opacity:1" fill="#0d0907" d="M 11.5,50.5 C 12.7079,51.2341 14.0413,51.5674 15.5,51.5C 20.1667,52.1667 24.8333,52.8333 29.5,53.5C 28.5272,54.7914 27.5272,54.7914 26.5,53.5C 25.2021,55.0517 25.5354,56.0517 27.5,56.5C 26.791,57.404 25.791,57.7373 24.5,57.5C 23.8288,56.1529 23.8288,54.9862 24.5,54C 22.735,53.3603 21.0683,53.5269 19.5,54.5C 18.1667,54.1667 16.8333,53.8333 15.5,53.5C 14.2921,52.7659 12.9587,52.4326 11.5,52.5C 11.5,51.8333 11.5,51.1667 11.5,50.5 Z"/></g>
<g><path style="opacity:1" fill="#160906" d="M 15.5,51.5 C 19.1667,51.5 22.8333,51.5 26.5,51.5C 28.4147,51.2155 30.0813,51.5489 31.5,52.5C 30.8333,52.5 30.5,52.8333 30.5,53.5C 30.1667,53.5 29.8333,53.5 29.5,53.5C 24.8333,52.8333 20.1667,52.1667 15.5,51.5 Z"/></g>
<g><path style="opacity:1" fill="#220d07" d="M 39.5,45.5 C 40.5676,44.5655 41.901,44.2322 43.5,44.5C 43.2322,46.099 43.5655,47.4324 44.5,48.5C 44.8333,48.5 45.1667,48.5 45.5,48.5C 46.5676,49.4345 47.901,49.7678 49.5,49.5C 49.4431,50.609 49.1098,51.609 48.5,52.5C 47.8333,52.5 47.5,52.8333 47.5,53.5C 46.2921,52.7659 44.9587,52.4326 43.5,52.5C 43.6716,51.5084 43.3382,50.8417 42.5,50.5C 42.5,48.8333 42.5,47.1667 42.5,45.5C 41.5,45.5 40.5,45.5 39.5,45.5 Z"/></g>
<g><path style="opacity:1" fill="#080506" d="M 59.5,48.5 C 60.397,49.5981 61.2303,49.5981 62,48.5C 62.2784,49.4158 62.7784,50.0825 63.5,50.5C 63.5,52.1667 63.5,53.8333 63.5,55.5C 62.7784,55.0825 62.2784,54.4158 62,53.5C 61.7216,54.4158 61.2216,55.0825 60.5,55.5C 60.1667,55.5 59.8333,55.5 59.5,55.5C 60.4427,53.9988 60.1094,52.6654 58.5,51.5C 58.5569,50.391 58.8902,49.391 59.5,48.5 Z"/></g>
<g><path style="opacity:1" fill="#190906" d="M 39.5,45.5 C 39.5,46.8333 39.5,48.1667 39.5,49.5C 39.5,50.1667 39.5,50.8333 39.5,51.5C 37.8863,53.0746 35.8863,53.7413 33.5,53.5C 34.5,52.8333 35.5,52.1667 36.5,51.5C 36.8333,50.8333 37.1667,50.1667 37.5,49.5C 37.5,49.1667 37.5,48.8333 37.5,48.5C 38.1667,47.5 38.8333,46.5 39.5,45.5 Z"/></g>
<g><path style="opacity:1" fill="#070504" d="M -0.5,52.5 C 0.833333,52.5 2.16667,52.5 3.5,52.5C 3.5,53.1667 3.5,53.8333 3.5,54.5C 3.5,54.8333 3.5,55.1667 3.5,55.5C -0.197168,54.5612 -0.530502,55.7279 2.5,59C 1.57203,59.3879 0.905365,60.0546 0.5,61C 1.50905,61.3546 2.17572,62.1879 2.5,63.5C 1.5,63.5 0.5,63.5 -0.5,63.5C -0.5,59.8333 -0.5,56.1667 -0.5,52.5 Z"/></g>
<g><path style="opacity:1" fill="#080504" d="M 39.5,51.5 C 42.0972,51.7208 42.0972,52.2208 39.5,53C 40.7736,53.9772 40.7736,54.8106 39.5,55.5C 38.7321,56.2625 38.2321,57.2625 38,58.5C 37.7216,57.5842 37.2216,56.9175 36.5,56.5C 34.5838,54.5853 32.9171,54.5853 31.5,56.5C 30.6143,55.675 30.281,54.675 30.5,53.5C 30.5,52.8333 30.8333,52.5 31.5,52.5C 32.1667,52.8333 32.8333,53.1667 33.5,53.5C 35.8863,53.7413 37.8863,53.0746 39.5,51.5 Z"/></g>
<g><path style="opacity:1" fill="#0a0608" d="M 39.5,49.5 C 40.391,50.1098 41.391,50.4431 42.5,50.5C 43.3382,50.8417 43.6716,51.5084 43.5,52.5C 41.1638,53.5939 41.1638,54.9272 43.5,56.5C 41.901,56.7678 40.5676,56.4345 39.5,55.5C 40.7736,54.8106 40.7736,53.9772 39.5,53C 42.0972,52.2208 42.0972,51.7208 39.5,51.5C 39.5,50.8333 39.5,50.1667 39.5,49.5 Z"/></g>
<g><path style="opacity:1" fill="#080806" d="M 52.5,52.5 C 52.1193,53.9311 51.1193,54.7645 49.5,55C 50.7911,56.2917 50.7911,57.4583 49.5,58.5C 49.5,57.8333 49.1667,57.5 48.5,57.5C 47.7659,56.2921 47.4326,54.9587 47.5,53.5C 47.5,52.8333 47.8333,52.5 48.5,52.5C 49.8333,52.5 51.1667,52.5 52.5,52.5 Z"/></g>
<g><path style="opacity:1" fill="#090705" d="M 58.5,51.5 C 60.1094,52.6654 60.4427,53.9988 59.5,55.5C 59.0472,56.4584 58.3805,57.2917 57.5,58C 57.8333,58.3333 58.1667,58.6667 58.5,59C 57.2559,59.4561 56.4226,58.9561 56,57.5C 55.5045,59.4727 55.3379,61.4727 55.5,63.5C 55.1667,63.5 54.8333,63.5 54.5,63.5C 54.5,62.5 54.5,61.5 54.5,60.5C 53.209,60.7373 52.209,60.404 51.5,59.5C 53.2798,58.0101 53.9465,56.0101 53.5,53.5C 55.099,53.7678 56.4324,53.4345 57.5,52.5C 57.5,51.8333 57.8333,51.5 58.5,51.5 Z"/></g>
<g><path style="opacity:1" fill="#080706" d="M 29.5,53.5 C 29.8333,53.5 30.1667,53.5 30.5,53.5C 30.281,54.675 30.6143,55.675 31.5,56.5C 32.9171,54.5853 34.5838,54.5853 36.5,56.5C 35.7659,57.7079 35.4326,59.0413 35.5,60.5C 33.5992,60.4332 31.7659,60.7665 30,61.5C 27.7197,61.1058 27.2197,60.1058 28.5,58.5C 28.7535,56.5992 28.4202,55.9326 27.5,56.5C 25.5354,56.0517 25.2021,55.0517 26.5,53.5C 27.5272,54.7914 28.5272,54.7914 29.5,53.5 Z"/></g>
<g><path style="opacity:1" fill="#090807" d="M 63.5,55.5 C 63.5,58.1667 63.5,60.8333 63.5,63.5C 61.1667,63.5 58.8333,63.5 56.5,63.5C 57.1451,62.1882 58.1451,61.1882 59.5,60.5C 60.4519,58.9547 60.7852,57.288 60.5,55.5C 61.2216,55.0825 61.7216,54.4158 62,53.5C 62.2784,54.4158 62.7784,55.0825 63.5,55.5 Z"/></g>
<g><path style="opacity:1" fill="#0a0606" d="M 9.5,55.5 C 8.00475,55.4148 7.00475,56.0815 6.5,57.5C 7.24585,58.7362 7.57918,60.0695 7.5,61.5C 6.20895,61.7373 5.20895,61.404 4.5,60.5C 5.93025,58.5453 5.59691,56.8786 3.5,55.5C 3.5,55.1667 3.5,54.8333 3.5,54.5C 4.55198,54.6495 5.55198,54.4828 6.5,54C 5.30441,53.3457 5.30441,52.8457 6.5,52.5C 8.2131,52.8793 9.2131,53.8793 9.5,55.5 Z"/></g>
<g><path style="opacity:1" fill="#0b0a09" d="M 9.5,55.5 C 9.84171,56.3382 10.5084,56.6716 11.5,56.5C 11.9175,57.2216 12.5842,57.7216 13.5,58C 12.5842,58.2784 11.9175,58.7784 11.5,59.5C 9.35231,59.3894 9.01897,60.056 10.5,61.5C 9.3864,62.7759 8.3864,62.7759 7.5,61.5C 7.57918,60.0695 7.24585,58.7362 6.5,57.5C 7.00475,56.0815 8.00475,55.4148 9.5,55.5 Z"/></g>
<g><path style="opacity:1" fill="#060605" d="M 15.5,53.5 C 16.8333,53.8333 18.1667,54.1667 19.5,54.5C 19.3893,55.1174 19.056,55.6174 18.5,56C 20.3817,56.1981 22.0484,56.6981 23.5,57.5C 22.8333,57.8333 22.1667,58.1667 21.5,58.5C 20.1667,57.1667 18.8333,57.1667 17.5,58.5C 17.1667,58.5 16.8333,58.5 16.5,58.5C 16.0825,57.7784 15.4158,57.2784 14.5,57C 15.3366,55.9887 15.67,54.8221 15.5,53.5 Z"/></g>
<g><path style="opacity:1" fill="#0c0707" d="M 24.5,57.5 C 24.1667,57.5 23.8333,57.5 23.5,57.5C 22.0484,56.6981 20.3817,56.1981 18.5,56C 19.056,55.6174 19.3893,55.1174 19.5,54.5C 21.0683,53.5269 22.735,53.3603 24.5,54C 23.8288,54.9862 23.8288,56.1529 24.5,57.5 Z"/></g>
<g><path style="opacity:1" fill="#0a0607" d="M 11.5,52.5 C 12.9587,52.4326 14.2921,52.7659 15.5,53.5C 15.67,54.8221 15.3366,55.9887 14.5,57C 15.4158,57.2784 16.0825,57.7784 16.5,58.5C 15.2652,58.7214 14.2652,59.3881 13.5,60.5C 12.8165,60.1373 12.1499,59.8039 11.5,59.5C 11.9175,58.7784 12.5842,58.2784 13.5,58C 12.5842,57.7216 11.9175,57.2216 11.5,56.5C 11.9528,55.5416 12.6195,54.7083 13.5,54C 12.5842,53.7216 11.9175,53.2216 11.5,52.5 Z"/></g>
<g><path style="opacity:1" fill="#080506" d="M 52.5,52.5 C 54.1667,52.5 55.8333,52.5 57.5,52.5C 56.4324,53.4345 55.099,53.7678 53.5,53.5C 53.9465,56.0101 53.2798,58.0101 51.5,59.5C 50.5084,59.6716 49.8417,59.3382 49.5,58.5C 50.7911,57.4583 50.7911,56.2917 49.5,55C 51.1193,54.7645 52.1193,53.9311 52.5,52.5 Z"/></g>
<g><path style="opacity:1" fill="#0b0a0a" d="M 3.5,55.5 C 5.59691,56.8786 5.93025,58.5453 4.5,60.5C 3.59603,61.209 3.26269,62.209 3.5,63.5C 3.16667,63.5 2.83333,63.5 2.5,63.5C 2.17572,62.1879 1.50905,61.3546 0.5,61C 0.905365,60.0546 1.57203,59.3879 2.5,59C -0.530502,55.7279 -0.197168,54.5612 3.5,55.5 Z"/></g>
<g><path style="opacity:1" fill="#060403" d="M 21.5,58.5 C 21.8417,59.3382 22.5084,59.6716 23.5,59.5C 22.5946,60.7024 22.5946,62.0357 23.5,63.5C 21.8333,63.5 20.1667,63.5 18.5,63.5C 17.2935,62.1196 17.6269,60.9529 19.5,60C 18.5842,59.7216 17.9175,59.2216 17.5,58.5C 18.8333,57.1667 20.1667,57.1667 21.5,58.5 Z"/></g>
<g><path style="opacity:1" fill="#0d080a" d="M 28.5,58.5 C 26.0576,58.3537 25.3909,59.187 26.5,61C 26,61.5 25.5,62 25,62.5C 24.7679,61.2625 24.2679,60.2625 23.5,59.5C 22.5084,59.6716 21.8417,59.3382 21.5,58.5C 22.1667,58.1667 22.8333,57.8333 23.5,57.5C 23.8333,57.5 24.1667,57.5 24.5,57.5C 25.791,57.7373 26.791,57.404 27.5,56.5C 28.4202,55.9326 28.7535,56.5992 28.5,58.5 Z"/></g>
<g><path style="opacity:1" fill="#0c0909" d="M 59.5,55.5 C 59.8333,55.5 60.1667,55.5 60.5,55.5C 60.7852,57.288 60.4519,58.9547 59.5,60.5C 58.1451,61.1882 57.1451,62.1882 56.5,63.5C 56.1667,63.5 55.8333,63.5 55.5,63.5C 55.3379,61.4727 55.5045,59.4727 56,57.5C 56.4226,58.9561 57.2559,59.4561 58.5,59C 58.1667,58.6667 57.8333,58.3333 57.5,58C 58.3805,57.2917 59.0472,56.4584 59.5,55.5 Z"/></g>
<g><path style="opacity:1" fill="#0c0909" d="M 16.5,58.5 C 16.8333,58.5 17.1667,58.5 17.5,58.5C 17.9175,59.2216 18.5842,59.7216 19.5,60C 17.6269,60.9529 17.2935,62.1196 18.5,63.5C 16.5,63.5 14.5,63.5 12.5,63.5C 14.1827,62.1466 15.5161,60.4799 16.5,58.5 Z"/></g>
<g><path style="opacity:1" fill="#0b0a09" d="M 39.5,55.5 C 40.5676,56.4345 41.901,56.7678 43.5,56.5C 44.1667,57.1667 44.8333,57.8333 45.5,58.5C 42.848,58.5497 41.848,59.5497 42.5,61.5C 42,61.8333 41.5,62.1667 41,62.5C 40.6192,61.5182 39.7859,60.8515 38.5,60.5C 37.2867,60.7472 36.62,61.4138 36.5,62.5C 34.3023,62.5912 33.9689,61.9245 35.5,60.5C 35.4326,59.0413 35.7659,57.7079 36.5,56.5C 37.2216,56.9175 37.7216,57.5842 38,58.5C 38.2321,57.2625 38.7321,56.2625 39.5,55.5 Z"/></g>
<g><path style="opacity:1" fill="#060303" d="M 43.5,52.5 C 44.9587,52.4326 46.2921,52.7659 47.5,53.5C 47.4326,54.9587 47.7659,56.2921 48.5,57.5C 47.2089,58.5417 47.2089,59.7083 48.5,61C 47.9056,61.4643 47.2389,61.631 46.5,61.5C 45.8333,61.5 45.5,61.1667 45.5,60.5C 46.8333,59.8333 46.8333,59.1667 45.5,58.5C 44.8333,57.8333 44.1667,57.1667 43.5,56.5C 41.1638,54.9272 41.1638,53.5939 43.5,52.5 Z"/></g>
<g><path style="opacity:1" fill="#090507" d="M 45.5,58.5 C 46.8333,59.1667 46.8333,59.8333 45.5,60.5C 44.596,61.209 44.2627,62.209 44.5,63.5C 42.5,63.5 40.5,63.5 38.5,63.5C 38.1583,62.6618 37.4916,62.3284 36.5,62.5C 36.62,61.4138 37.2867,60.7472 38.5,60.5C 39.7859,60.8515 40.6192,61.5182 41,62.5C 41.5,62.1667 42,61.8333 42.5,61.5C 41.848,59.5497 42.848,58.5497 45.5,58.5 Z"/></g>
<g><path style="opacity:1" fill="#070505" d="M 16.5,58.5 C 15.5161,60.4799 14.1827,62.1466 12.5,63.5C 9.5,63.5 6.5,63.5 3.5,63.5C 3.26269,62.209 3.59603,61.209 4.5,60.5C 5.20895,61.404 6.20895,61.7373 7.5,61.5C 8.3864,62.7759 9.3864,62.7759 10.5,61.5C 9.01897,60.056 9.35231,59.3894 11.5,59.5C 12.1499,59.8039 12.8165,60.1373 13.5,60.5C 14.2652,59.3881 15.2652,58.7214 16.5,58.5 Z"/></g>
<g><path style="opacity:1" fill="#0b0808" d="M 28.5,58.5 C 27.2197,60.1058 27.7197,61.1058 30,61.5C 31.7659,60.7665 33.5992,60.4332 35.5,60.5C 33.9689,61.9245 34.3023,62.5912 36.5,62.5C 37.4916,62.3284 38.1583,62.6618 38.5,63.5C 33.5,63.5 28.5,63.5 23.5,63.5C 22.5946,62.0357 22.5946,60.7024 23.5,59.5C 24.2679,60.2625 24.7679,61.2625 25,62.5C 25.5,62 26,61.5 26.5,61C 25.3909,59.187 26.0576,58.3537 28.5,58.5 Z"/></g>
<g><path style="opacity:1" fill="#0b0707" d="M 48.5,57.5 C 49.1667,57.5 49.5,57.8333 49.5,58.5C 49.8417,59.3382 50.5084,59.6716 51.5,59.5C 52.209,60.404 53.209,60.7373 54.5,60.5C 54.5,61.5 54.5,62.5 54.5,63.5C 53.8333,63.5 53.1667,63.5 52.5,63.5C 52.5299,62.5028 52.0299,61.8361 51,61.5C 49.3227,62.6078 47.8227,62.6078 46.5,61.5C 47.2389,61.631 47.9056,61.4643 48.5,61C 47.2089,59.7083 47.2089,58.5417 48.5,57.5 Z"/></g>
<g><path style="opacity:1" fill="#080705" d="M 45.5,60.5 C 45.5,61.1667 45.8333,61.5 46.5,61.5C 47.8227,62.6078 49.3227,62.6078 51,61.5C 52.0299,61.8361 52.5299,62.5028 52.5,63.5C 49.8333,63.5 47.1667,63.5 44.5,63.5C 44.2627,62.209 44.596,61.209 45.5,60.5 Z"/></g>
</svg>
