<?xml version="1.0" encoding="UTF-8"?>
<!DOCTYPE svg PUBLIC "-//W3C//DTD SVG 1.1//EN" "http://www.w3.org/Graphics/SVG/1.1/DTD/svg11.dtd">
<svg xmlns="http://www.w3.org/2000/svg" version="1.1" width="64px" height="64px" style="shape-rendering:geometricPrecision; text-rendering:geometricPrecision; image-rendering:optimizeQuality; fill-rule:evenodd; clip-rule:evenodd" xmlns:xlink="http://www.w3.org/1999/xlink">
<g><path style="opacity:1" fill="#262525" d="M -0.5,-0.5 C 20.8333,-0.5 42.1667,-0.5 63.5,-0.5C 63.5,20.8333 63.5,42.1667 63.5,63.5C 42.1667,63.5 20.8333,63.5 -0.5,63.5C -0.5,42.1667 -0.5,20.8333 -0.5,-0.5 Z"/></g>
<g><path style="opacity:1" fill="#ef5943" d="M 43.5,15.5 C 42.5041,15.5858 41.6708,15.2524 41,14.5C 34.382,17.5403 27.882,20.5403 21.5,23.5C 19.9907,22.1405 19.324,22.6405 19.5,25C 19.9434,26.825 20.2767,28.6583 20.5,30.5C 20.6713,33.7973 20.0046,34.1306 18.5,31.5C 15.3199,33.0946 11.9865,34.0946 8.5,34.5C 7.38705,33.0536 7.22039,31.3869 8,29.5C 15.1667,22.3333 22.3333,15.1667 29.5,8C 31.8333,7.33333 34.1667,7.33333 36.5,8C 39.0386,10.3697 41.3719,12.8697 43.5,15.5 Z"/></g>
<g><path style="opacity:1" fill="#ed4f47" d="M 43.5,15.5 C 46.9641,18.4625 50.2975,21.6291 53.5,25C 47.6761,26.5075 44.1761,24.3408 43,18.5C 41.7681,21.3004 41.1015,24.3004 41,27.5C 39.7367,29.7969 37.9034,30.6302 35.5,30C 33.6217,28.4571 32.1217,26.6238 31,24.5C 29.8063,26.6234 29.1397,28.9568 29,31.5C 25.129,30.009 22.629,27.3423 21.5,23.5C 27.882,20.5403 34.382,17.5403 41,14.5C 41.6708,15.2524 42.5041,15.5858 43.5,15.5 Z"/></g>
<g><path style="opacity:1" fill="#e34a6c" d="M 38.5,33.5 C 39.7736,34.1894 39.7736,35.0228 38.5,36C 37.5,36.6667 36.5,36.6667 35.5,36C 36.9423,35.6232 37.9423,34.7899 38.5,33.5 Z"/></g>
<g><path style="opacity:1" fill="#ed424c" d="M 20.5,30.5 C 21.4918,32.4561 22.4918,34.4561 23.5,36.5C 23.4921,39.5448 23.1587,42.5448 22.5,45.5C 20.7839,45.3713 19.1172,45.038 17.5,44.5C 13.7657,41.7689 10.7657,38.4356 8.5,34.5C 11.9865,34.0946 15.3199,33.0946 18.5,31.5C 20.0046,34.1306 20.6713,33.7973 20.5,30.5 Z"/></g>
<g><path style="opacity:1" fill="#eb2755" d="M 23.5,36.5 C 24.0827,39.241 25.0827,41.9077 26.5,44.5C 26.2907,45.086 25.9574,45.586 25.5,46C 29.5,46.5 33.5,47 37.5,47.5C 40.9965,46.8935 44.3298,46.0602 47.5,45C 43.2125,49.9654 38.3792,54.1321 33,57.5C 26.8086,54.4826 21.6419,50.1492 17.5,44.5C 19.1172,45.038 20.7839,45.3713 22.5,45.5C 23.1587,42.5448 23.4921,39.5448 23.5,36.5 Z"/></g>
</svg>
