<?xml version="1.0" encoding="UTF-8"?>
<!DOCTYPE svg PUBLIC "-//W3C//DTD SVG 1.1//EN" "http://www.w3.org/Graphics/SVG/1.1/DTD/svg11.dtd">
<svg xmlns="http://www.w3.org/2000/svg" version="1.1" width="64px" height="64px" style="shape-rendering:geometricPrecision; text-rendering:geometricPrecision; image-rendering:optimizeQuality; fill-rule:evenodd; clip-rule:evenodd" xmlns:xlink="http://www.w3.org/1999/xlink">
<g><path style="opacity:1" fill="#54852d" d="M 2.5,-0.5 C 9.83333,-0.5 17.1667,-0.5 24.5,-0.5C 25.8333,1.16667 25.8333,2.83333 24.5,4.5C 23.2617,4.81001 23.2617,5.31001 24.5,6C 22.3474,6.09946 20.6808,6.9328 19.5,8.5C 16.1782,6.48387 16.0115,5.8172 19,6.5C 19.6667,5.5 19.6667,4.5 19,3.5C 17.6015,4.05085 16.2682,4.38419 15,4.5C 14.5078,3.45104 14.6744,2.45104 15.5,1.5C 14.277,0.386147 12.9437,0.219481 11.5,1C 13.64,3.06642 14.3067,5.39975 13.5,8C 14.4158,8.27842 15.0825,8.77842 15.5,9.5C 14.2502,9.57735 13.4169,10.244 13,11.5C 12.6667,9.83333 12.3333,8.16667 12,6.5C 11.5831,5.24402 10.7498,4.57735 9.5,4.5C 8.77765,3.44886 7.77765,2.78219 6.5,2.5C 5.60305,1.40191 4.76971,1.40191 4,2.5C 2.96141,1.75618 2.46141,0.75618 2.5,-0.5 Z"/></g>
<g><path style="opacity:1" fill="#54852d" d="M 33.5,-0.5 C 37.5,-0.5 41.5,-0.5 45.5,-0.5C 47.0234,1.58571 46.69,3.25238 44.5,4.5C 43.8333,4.5 43.1667,4.5 42.5,4.5C 41.1938,3.53261 40.5271,2.19928 40.5,0.5C 38.1663,1.98203 35.8329,2.6487 33.5,2.5C 32.1667,1.5 32.1667,0.5 33.5,-0.5 Z"/></g>
<g><path style="opacity:1" fill="#588b2f" d="M 19.5,8.5 C 19.4717,11.3422 18.1383,12.5088 15.5,12C 16.7736,11.0228 16.7736,10.1894 15.5,9.5C 15.0825,8.77842 14.4158,8.27842 13.5,8C 14.3067,5.39975 13.64,3.06642 11.5,1C 12.9437,0.219481 14.277,0.386147 15.5,1.5C 14.6744,2.45104 14.5078,3.45104 15,4.5C 16.2682,4.38419 17.6015,4.05085 19,3.5C 19.6667,4.5 19.6667,5.5 19,6.5C 16.0115,5.8172 16.1782,6.48387 19.5,8.5 Z"/></g>
<g><path style="opacity:1" fill="#53842c" d="M 24.5,-0.5 C 26.1667,-0.5 27.8333,-0.5 29.5,-0.5C 29.9175,0.221579 30.5842,0.721579 31.5,1C 29.6667,2.5 27.8333,4 26,5.5C 25.6174,4.94404 25.1174,4.61071 24.5,4.5C 25.8333,2.83333 25.8333,1.16667 24.5,-0.5 Z"/></g>
<g><path style="opacity:1" fill="#55862d" d="M 60.5,-0.5 C 61.5,-0.5 62.5,-0.5 63.5,-0.5C 63.5,0.833333 63.5,2.16667 63.5,3.5C 62.609,4.10978 61.609,4.44312 60.5,4.5C 60.1193,3.06888 59.1193,2.23555 57.5,2C 58.5707,1.14825 59.5707,0.314913 60.5,-0.5 Z"/></g>
<g><path style="opacity:1" fill="#55892e" d="M 51.5,-0.5 C 54.5,-0.5 57.5,-0.5 60.5,-0.5C 59.5707,0.314913 58.5707,1.14825 57.5,2C 59.1193,2.23555 60.1193,3.06888 60.5,4.5C 58.7879,3.65026 56.7879,3.65026 54.5,4.5C 50.0387,4.13802 49.0387,2.47136 51.5,-0.5 Z"/></g>
<g><path style="opacity:1" fill="#55892d" d="M -0.5,0.5 C -0.5,0.166667 -0.5,-0.166667 -0.5,-0.5C 0.5,-0.5 1.5,-0.5 2.5,-0.5C 2.46141,0.75618 2.96141,1.75618 4,2.5C 4.76971,1.40191 5.60305,1.40191 6.5,2.5C 7.0476,3.68849 7.38093,4.85516 7.5,6C 6.5842,6.27842 5.91753,6.77842 5.5,7.5C 4.76109,7.63101 4.09442,7.46434 3.5,7C 4.45057,6.28248 4.61723,5.44915 4,4.5C 1.62756,3.26657 0.12756,1.93323 -0.5,0.5 Z"/></g>
<g><path style="opacity:1" fill="#568b2f" d="M 42.5,4.5 C 40.7168,5.17457 39.0502,5.5079 37.5,5.5C 36.791,6.40397 35.791,6.73731 34.5,6.5C 34.1667,5.16667 33.8333,3.83333 33.5,2.5C 35.8329,2.6487 38.1663,1.98203 40.5,0.5C 40.5271,2.19928 41.1938,3.53261 42.5,4.5 Z"/></g>
<g><path style="opacity:1" fill="#568a2e" d="M 29.5,-0.5 C 30.8333,-0.5 32.1667,-0.5 33.5,-0.5C 32.1667,0.5 32.1667,1.5 33.5,2.5C 31.5512,3.1839 29.8845,4.35056 28.5,6C 28.8333,6.33333 29.1667,6.66667 29.5,7C 27.256,7.04958 25.5893,7.88291 24.5,9.5C 22.917,9.56617 21.2503,9.23284 19.5,8.5C 20.6808,6.9328 22.3474,6.09946 24.5,6C 23.2617,5.31001 23.2617,4.81001 24.5,4.5C 25.1174,4.61071 25.6174,4.94404 26,5.5C 27.8333,4 29.6667,2.5 31.5,1C 30.5842,0.721579 29.9175,0.221579 29.5,-0.5 Z"/></g>
<g><path style="opacity:1" fill="#52832e" d="M 37.5,5.5 C 39.0502,5.5079 40.7168,5.17457 42.5,4.5C 43.1667,4.5 43.8333,4.5 44.5,4.5C 44.8333,5.16667 45.1667,5.83333 45.5,6.5C 44.8999,7.90018 43.8999,8.90018 42.5,9.5C 42.4142,8.5041 42.7476,7.67076 43.5,7C 41.8034,6.61553 40.1368,6.78219 38.5,7.5C 38.6716,6.50838 38.3382,5.84171 37.5,5.5 Z"/></g>
<g><path style="opacity:1" fill="#578c2f" d="M 45.5,-0.5 C 46.1667,-0.5 46.8333,-0.5 47.5,-0.5C 48.2751,1.38814 48.2751,3.38814 47.5,5.5C 49.6951,4.39184 51.6951,4.55851 53.5,6C 51.8659,6.49351 50.1992,6.66018 48.5,6.5C 47.5,6.5 46.5,6.5 45.5,6.5C 45.1667,5.83333 44.8333,5.16667 44.5,4.5C 46.69,3.25238 47.0234,1.58571 45.5,-0.5 Z"/></g>
<g><path style="opacity:1" fill="#54832c" d="M 60.5,4.5 C 61.609,4.44312 62.609,4.10978 63.5,3.5C 63.5,4.83333 63.5,6.16667 63.5,7.5C 62.7784,7.08247 62.2784,6.4158 62,5.5C 61.9861,7.59801 62.1528,9.43134 62.5,11C 62.0257,12.7286 61.0257,13.8953 59.5,14.5C 59.1507,12.1091 59.4841,9.9424 60.5,8C 59.5291,6.51869 58.1958,5.68535 56.5,5.5C 55.5084,5.67158 54.8417,5.33825 54.5,4.5C 56.7879,3.65026 58.7879,3.65026 60.5,4.5 Z"/></g>
<g><path style="opacity:1" fill="#53852d" d="M -0.5,0.5 C 0.12756,1.93323 1.62756,3.26657 4,4.5C 4.61723,5.44915 4.45057,6.28248 3.5,7C 4.09442,7.46434 4.76109,7.63101 5.5,7.5C 4.7205,8.92041 3.7205,9.75374 2.5,10C 2.66667,10.5 2.83333,11 3,11.5C 3.97722,10.2264 4.81056,10.2264 5.5,11.5C 7.11941,13.9253 6.78608,15.9253 4.5,17.5C 3.76109,17.631 3.09442,17.4643 2.5,17C 3.39028,14.6935 2.39028,13.5268 -0.5,13.5C -0.5,9.16667 -0.5,4.83333 -0.5,0.5 Z"/></g>
<g><path style="opacity:1" fill="#53882e" d="M 34.5,6.5 C 35.791,6.73731 36.791,6.40397 37.5,5.5C 38.3382,5.84171 38.6716,6.50838 38.5,7.5C 39.1098,8.39105 39.4431,9.39105 39.5,10.5C 37.8828,9.962 36.2161,9.62867 34.5,9.5C 31.9128,8.69263 31.4128,7.3593 33,5.5C 33.3826,6.05596 33.8826,6.38929 34.5,6.5 Z"/></g>
<g><path style="opacity:1" fill="#51822c" d="M 47.5,-0.5 C 48.8333,-0.5 50.1667,-0.5 51.5,-0.5C 49.0387,2.47136 50.0387,4.13802 54.5,4.5C 54.8417,5.33825 55.5084,5.67158 56.5,5.5C 55.1435,7.49879 55.8101,8.66546 58.5,9C 57.7471,10.487 56.9138,10.6537 56,9.5C 55.4209,10.9285 55.5876,12.2618 56.5,13.5C 55.209,13.2627 54.209,13.596 53.5,14.5C 52.8826,14.3893 52.3826,14.056 52,13.5C 51.1841,14.8228 50.0174,15.4894 48.5,15.5C 48.9528,14.5416 49.6195,13.7083 50.5,13C 49.8333,12.6667 49.1667,12.3333 48.5,12C 50.6079,11.6401 52.6079,10.9734 54.5,10C 52.9452,8.35421 51.2785,8.02087 49.5,9C 48.7476,8.32924 48.4142,7.4959 48.5,6.5C 50.1992,6.66018 51.8659,6.49351 53.5,6C 51.6951,4.55851 49.6951,4.39184 47.5,5.5C 48.2751,3.38814 48.2751,1.38814 47.5,-0.5 Z"/></g>
<g><path style="opacity:1" fill="#53842c" d="M 6.5,2.5 C 7.77765,2.78219 8.77765,3.44886 9.5,4.5C 10.1033,6.45232 9.77001,8.45232 8.5,10.5C 7.60895,11.1098 6.60895,11.4431 5.5,11.5C 4.81056,10.2264 3.97722,10.2264 3,11.5C 2.83333,11 2.66667,10.5 2.5,10C 3.7205,9.75374 4.7205,8.92041 5.5,7.5C 5.91753,6.77842 6.5842,6.27842 7.5,6C 7.38093,4.85516 7.0476,3.68849 6.5,2.5 Z"/></g>
<g><path style="opacity:1" fill="#55862f" d="M 33.5,2.5 C 33.8333,3.83333 34.1667,5.16667 34.5,6.5C 33.8826,6.38929 33.3826,6.05596 33,5.5C 31.4128,7.3593 31.9128,8.69263 34.5,9.5C 36.3332,11.4957 36.8332,13.829 36,16.5C 35.6174,15.944 35.1174,15.6107 34.5,15.5C 34.6309,14.6236 34.2975,13.9569 33.5,13.5C 32.6043,14.5063 31.9377,14.5063 31.5,13.5C 32.0253,12.8076 32.6919,12.3076 33.5,12C 32.2625,11.7679 31.2625,11.2679 30.5,10.5C 28.9555,8.19505 26.9555,7.86172 24.5,9.5C 25.5893,7.88291 27.256,7.04958 29.5,7C 29.1667,6.66667 28.8333,6.33333 28.5,6C 29.8845,4.35056 31.5512,3.1839 33.5,2.5 Z"/></g>
<g><path style="opacity:1" fill="#558a2e" d="M 30.5,10.5 C 26.807,11.2471 26.807,12.5804 30.5,14.5C 30.0431,15.2975 29.3764,15.6309 28.5,15.5C 27.548,14.548 26.548,13.548 25.5,12.5C 24.787,14.435 23.787,14.7683 22.5,13.5C 19.6887,10.7004 20.1887,10.0338 24,11.5C 24.4643,10.9056 24.631,10.2389 24.5,9.5C 26.9555,7.86172 28.9555,8.19505 30.5,10.5 Z"/></g>
<g><path style="opacity:1" fill="#53872c" d="M 9.5,4.5 C 10.7498,4.57735 11.5831,5.24402 12,6.5C 12.3333,8.16667 12.6667,9.83333 13,11.5C 13.4169,10.244 14.2502,9.57735 15.5,9.5C 14.8836,11.4171 13.5503,12.5838 11.5,13C 12.9423,13.3768 13.9423,14.2101 14.5,15.5C 13.2618,16.4124 11.9285,16.5791 10.5,16C 11.1712,15.0138 11.1712,13.8471 10.5,12.5C 10.631,11.7611 10.4643,11.0944 10,10.5C 9.31001,11.7383 8.81001,11.7383 8.5,10.5C 9.77001,8.45232 10.1033,6.45232 9.5,4.5 Z"/></g>
<g><path style="opacity:1" fill="#53832d" d="M 19.5,8.5 C 21.2503,9.23284 22.917,9.56617 24.5,9.5C 24.631,10.2389 24.4643,10.9056 24,11.5C 20.1887,10.0338 19.6887,10.7004 22.5,13.5C 21.8333,13.5 21.5,13.8333 21.5,14.5C 20.5,14.5 19.5,14.5 18.5,14.5C 18.2648,13.9033 17.7648,13.5699 17,13.5C 15.9889,14.0556 15.1556,14.7222 14.5,15.5C 13.9423,14.2101 12.9423,13.3768 11.5,13C 13.5503,12.5838 14.8836,11.4171 15.5,9.5C 16.7736,10.1894 16.7736,11.0228 15.5,12C 18.1383,12.5088 19.4717,11.3422 19.5,8.5 Z"/></g>
<g><path style="opacity:1" fill="#54872e" d="M 45.5,6.5 C 46.5,6.5 47.5,6.5 48.5,6.5C 48.4142,7.4959 48.7476,8.32924 49.5,9C 51.2785,8.02087 52.9452,8.35421 54.5,10C 52.6079,10.9734 50.6079,11.6401 48.5,12C 49.1667,12.3333 49.8333,12.6667 50.5,13C 49.6195,13.7083 48.9528,14.5416 48.5,15.5C 47.1667,15.1667 45.8333,14.8333 44.5,14.5C 44.9175,13.7784 45.5842,13.2784 46.5,13C 44.8876,12.2797 43.3876,12.4464 42,13.5C 39.9747,11.722 40.1414,10.3887 42.5,9.5C 43.8999,8.90018 44.8999,7.90018 45.5,6.5 Z"/></g>
<g><path style="opacity:1" fill="#568a2e" d="M 56.5,5.5 C 58.1958,5.68535 59.5291,6.51869 60.5,8C 59.4841,9.9424 59.1507,12.1091 59.5,14.5C 59.1583,15.3382 58.4916,15.6716 57.5,15.5C 57.6716,14.5084 57.3382,13.8417 56.5,13.5C 55.5876,12.2618 55.4209,10.9285 56,9.5C 56.9138,10.6537 57.7471,10.487 58.5,9C 55.8101,8.66546 55.1435,7.49879 56.5,5.5 Z"/></g>
<g><path style="opacity:1" fill="#568a2e" d="M 42.5,9.5 C 40.1414,10.3887 39.9747,11.722 42,13.5C 43.3876,12.4464 44.8876,12.2797 46.5,13C 45.5842,13.2784 44.9175,13.7784 44.5,14.5C 43.2617,14.81 43.2617,15.31 44.5,16C 43.2625,16.2321 42.2625,16.7321 41.5,17.5C 39.1468,16.3971 37.8134,14.8971 37.5,13C 38.3805,12.2917 39.0472,11.4584 39.5,10.5C 39.4431,9.39105 39.1098,8.39105 38.5,7.5C 40.1368,6.78219 41.8034,6.61553 43.5,7C 42.7476,7.67076 42.4142,8.5041 42.5,9.5 Z"/></g>
<g><path style="opacity:1" fill="#56872e" d="M 63.5,7.5 C 63.5,11.8333 63.5,16.1667 63.5,20.5C 61.8762,20.6399 60.7096,19.9733 60,18.5C 59.6174,19.056 59.1174,19.3893 58.5,19.5C 56.4805,18.4617 56.1472,17.1284 57.5,15.5C 58.4916,15.6716 59.1583,15.3382 59.5,14.5C 61.0257,13.8953 62.0257,12.7286 62.5,11C 62.1528,9.43134 61.9861,7.59801 62,5.5C 62.2784,6.4158 62.7784,7.08247 63.5,7.5 Z"/></g>
<g><path style="opacity:1" fill="#558a30" d="M 56.5,13.5 C 57.3382,13.8417 57.6716,14.5084 57.5,15.5C 56.1472,17.1284 56.4805,18.4617 58.5,19.5C 57.7081,21.7448 56.3747,22.0781 54.5,20.5C 54.5,20.1667 54.5,19.8333 54.5,19.5C 55.9326,17.4816 55.5992,15.8149 53.5,14.5C 54.209,13.596 55.209,13.2627 56.5,13.5 Z"/></g>
<g><path style="opacity:1" fill="#55882e" d="M 8.5,10.5 C 8.81001,11.7383 9.31001,11.7383 10,10.5C 10.4643,11.0944 10.631,11.7611 10.5,12.5C 7.47614,12.9467 7.14281,13.78 9.5,15C 8.61947,15.7083 7.9528,16.5416 7.5,17.5C 6.5,17.5 5.5,17.5 4.5,17.5C 6.78608,15.9253 7.11941,13.9253 5.5,11.5C 6.60895,11.4431 7.60895,11.1098 8.5,10.5 Z"/></g>
<g><path style="opacity:1" fill="#54882e" d="M 18.5,14.5 C 19.5,14.5 20.5,14.5 21.5,14.5C 23.1042,15.287 23.7709,16.6203 23.5,18.5C 23.0618,18.4346 22.7284,18.6012 22.5,19C 24.1166,20.0915 25.1166,21.5915 25.5,23.5C 24.8333,23.5 24.1667,23.5 23.5,23.5C 20.5784,21.335 18.9118,18.335 18.5,14.5 Z"/></g>
<g><path style="opacity:1" fill="#52832d" d="M 34.5,9.5 C 36.2161,9.62867 37.8828,9.962 39.5,10.5C 39.0472,11.4584 38.3805,12.2917 37.5,13C 37.8134,14.8971 39.1468,16.3971 41.5,17.5C 41.5,18.5 41.5,19.5 41.5,20.5C 39.8333,21.1667 38.1667,21.8333 36.5,22.5C 36.4142,21.5041 36.7476,20.6708 37.5,20C 34.7814,19.195 33.7814,17.695 34.5,15.5C 35.1174,15.6107 35.6174,15.944 36,16.5C 36.8332,13.829 36.3332,11.4957 34.5,9.5 Z"/></g>
<g><path style="opacity:1" fill="#52842d" d="M 53.5,14.5 C 55.5992,15.8149 55.9326,17.4816 54.5,19.5C 53.609,18.8902 52.609,18.5569 51.5,18.5C 50.0813,17.5489 48.4147,17.2155 46.5,17.5C 47.1667,16.8333 47.8333,16.1667 48.5,15.5C 50.0174,15.4894 51.1841,14.8228 52,13.5C 52.3826,14.056 52.8826,14.3893 53.5,14.5 Z"/></g>
<g><path style="opacity:1" fill="#56882e" d="M 28.5,15.5 C 27.6202,16.5313 28.1202,17.198 30,17.5C 31.4064,16.5862 32.9064,15.9195 34.5,15.5C 33.7814,17.695 34.7814,19.195 37.5,20C 36.7476,20.6708 36.4142,21.5041 36.5,22.5C 34.2489,21.9322 33.0822,20.9322 33,19.5C 31.85,20.4239 30.85,20.4239 30,19.5C 29.5172,20.448 29.3505,21.448 29.5,22.5C 27.8525,20.6736 25.8525,19.3403 23.5,18.5C 23.7709,16.6203 23.1042,15.287 21.5,14.5C 21.5,13.8333 21.8333,13.5 22.5,13.5C 23.787,14.7683 24.787,14.435 25.5,12.5C 26.548,13.548 27.548,14.548 28.5,15.5 Z"/></g>
<g><path style="opacity:1" fill="#52832c" d="M 30.5,10.5 C 31.2625,11.2679 32.2625,11.7679 33.5,12C 32.6919,12.3076 32.0253,12.8076 31.5,13.5C 31.9377,14.5063 32.6043,14.5063 33.5,13.5C 34.2975,13.9569 34.6309,14.6236 34.5,15.5C 32.9064,15.9195 31.4064,16.5862 30,17.5C 28.1202,17.198 27.6202,16.5313 28.5,15.5C 29.3764,15.6309 30.0431,15.2975 30.5,14.5C 26.807,12.5804 26.807,11.2471 30.5,10.5 Z"/></g>
<g><path style="opacity:1" fill="#55842e" d="M -0.5,13.5 C 2.39028,13.5268 3.39028,14.6935 2.5,17C 3.09442,17.4643 3.76109,17.631 4.5,17.5C 4.16667,18.8333 3.83333,20.1667 3.5,21.5C 2.83333,21.5 2.16667,21.5 1.5,21.5C 1.15829,20.6618 0.491622,20.3284 -0.5,20.5C -0.5,18.1667 -0.5,15.8333 -0.5,13.5 Z"/></g>
<g><path style="opacity:1" fill="#52822d" d="M 10.5,12.5 C 11.1712,13.8471 11.1712,15.0138 10.5,16C 11.9285,16.5791 13.2618,16.4124 14.5,15.5C 13.5549,16.9928 12.5549,18.4928 11.5,20C 11.7483,21.7491 12.7483,22.5824 14.5,22.5C 13.8333,23.1667 13.1667,23.8333 12.5,24.5C 11.391,24.5569 10.391,24.8902 9.5,25.5C 8.74547,23.5337 7.5788,23.2004 6,24.5C 5.51722,23.552 5.35055,22.552 5.5,21.5C 9.31074,21.4042 9.31074,20.7376 5.5,19.5C 6.24269,18.8182 6.90935,18.1515 7.5,17.5C 7.9528,16.5416 8.61947,15.7083 9.5,15C 7.14281,13.78 7.47614,12.9467 10.5,12.5 Z"/></g>
<g><path style="opacity:1" fill="#50802c" d="M 44.5,14.5 C 45.8333,14.8333 47.1667,15.1667 48.5,15.5C 47.8333,16.1667 47.1667,16.8333 46.5,17.5C 44.9236,18.1429 43.5903,19.1429 42.5,20.5C 42.1667,20.5 41.8333,20.5 41.5,20.5C 41.5,19.5 41.5,18.5 41.5,17.5C 42.2625,16.7321 43.2625,16.2321 44.5,16C 43.2617,15.31 43.2617,14.81 44.5,14.5 Z"/></g>
<g><path style="opacity:1" fill="#131e0c" d="M 46.5,17.5 C 48.4147,17.2155 50.0813,17.5489 51.5,18.5C 48.4021,18.7556 45.4021,19.4222 42.5,20.5C 43.5903,19.1429 44.9236,18.1429 46.5,17.5 Z"/></g>
<g><path style="opacity:1" fill="#558a2e" d="M 18.5,14.5 C 17.2947,15.6719 17.2947,17.0052 18.5,18.5C 18.1543,19.6956 17.6543,19.6956 17,18.5C 15.9152,19.7356 15.0819,21.0689 14.5,22.5C 12.7483,22.5824 11.7483,21.7491 11.5,20C 12.5549,18.4928 13.5549,16.9928 14.5,15.5C 15.1556,14.7222 15.9889,14.0556 17,13.5C 17.7648,13.5699 18.2648,13.9033 18.5,14.5 Z"/></g>
<g><path style="opacity:1" fill="#53862e" d="M 36.5,22.5 C 35.3065,23.2719 34.3065,24.2719 33.5,25.5C 33.1667,25.5 32.8333,25.5 32.5,25.5C 31.8333,24.1667 30.8333,23.1667 29.5,22.5C 29.3505,21.448 29.5172,20.448 30,19.5C 30.85,20.4239 31.85,20.4239 33,19.5C 33.0822,20.9322 34.2489,21.9322 36.5,22.5 Z"/></g>
<g><path style="opacity:1" fill="#4e7c2b" d="M 51.5,18.5 C 52.1408,19.4822 52.8075,20.4822 53.5,21.5C 53.1667,21.8333 52.8333,22.1667 52.5,22.5C 48.0774,21.0148 44.0774,21.6814 40.5,24.5C 38.8828,25.038 37.2161,25.3713 35.5,25.5C 38.0094,24.0787 40.3428,22.4121 42.5,20.5C 45.4021,19.4222 48.4021,18.7556 51.5,18.5 Z"/></g>
<g><path style="opacity:1" fill="#55882f" d="M 63.5,20.5 C 63.5,22.5 63.5,24.5 63.5,26.5C 62.8333,26.5 62.1667,26.5 61.5,26.5C 60.5416,26.0472 59.7083,25.3805 59,24.5C 57.7365,26.607 55.9032,27.607 53.5,27.5C 54.3686,25.283 54.702,22.9496 54.5,20.5C 56.3747,22.0781 57.7081,21.7448 58.5,19.5C 59.1174,19.3893 59.6174,19.056 60,18.5C 60.7096,19.9733 61.8762,20.6399 63.5,20.5 Z"/></g>
<g><path style="opacity:1" fill="#4f802a" d="M 18.5,14.5 C 18.9118,18.335 20.5784,21.335 23.5,23.5C 22.8333,23.5 22.1667,23.5 21.5,23.5C 19.3926,22.5318 17.0593,22.1984 14.5,22.5C 15.0819,21.0689 15.9152,19.7356 17,18.5C 17.6543,19.6956 18.1543,19.6956 18.5,18.5C 17.2947,17.0052 17.2947,15.6719 18.5,14.5 Z"/></g>
<g><path style="opacity:1" fill="#131510" d="M 51.5,18.5 C 52.609,18.5569 53.609,18.8902 54.5,19.5C 54.5,19.8333 54.5,20.1667 54.5,20.5C 54.702,22.9496 54.3686,25.283 53.5,27.5C 53.5,27.8333 53.5,28.1667 53.5,28.5C 51.8828,29.038 50.2161,29.3713 48.5,29.5C 54.8987,26.3446 54.732,24.0113 48,22.5C 46.2725,22.899 44.7725,23.5657 43.5,24.5C 42.5,24.5 41.5,24.5 40.5,24.5C 44.0774,21.6814 48.0774,21.0148 52.5,22.5C 52.8333,22.1667 53.1667,21.8333 53.5,21.5C 52.8075,20.4822 52.1408,19.4822 51.5,18.5 Z"/></g>
<g><path style="opacity:1" fill="#51832c" d="M 23.5,18.5 C 25.8525,19.3403 27.8525,20.6736 29.5,22.5C 30.8333,23.1667 31.8333,24.1667 32.5,25.5C 32.5,25.8333 32.5,26.1667 32.5,26.5C 29.6875,27.1059 27.3541,26.1059 25.5,23.5C 25.1166,21.5915 24.1166,20.0915 22.5,19C 22.7284,18.6012 23.0618,18.4346 23.5,18.5 Z"/></g>
<g><path style="opacity:1" fill="#141b11" d="M 14.5,22.5 C 17.0593,22.1984 19.3926,22.5318 21.5,23.5C 18.4824,23.7038 15.4824,24.0371 12.5,24.5C 13.1667,23.8333 13.8333,23.1667 14.5,22.5 Z"/></g>
<g><path style="opacity:1" fill="#dddddd" d="M 48.5,29.5 C 47.5084,29.3284 46.8417,29.6618 46.5,30.5C 45.8333,30.1667 45.1667,29.8333 44.5,29.5C 45.7058,27.563 45.3725,25.8963 43.5,24.5C 44.7725,23.5657 46.2725,22.899 48,22.5C 54.732,24.0113 54.8987,26.3446 48.5,29.5 Z"/></g>
<g><path style="opacity:1" fill="#55882d" d="M 4.5,17.5 C 5.5,17.5 6.5,17.5 7.5,17.5C 6.90935,18.1515 6.24269,18.8182 5.5,19.5C 9.31074,20.7376 9.31074,21.4042 5.5,21.5C 5.35055,22.552 5.51722,23.552 6,24.5C 7.5788,23.2004 8.74547,23.5337 9.5,25.5C 8.83333,26.5 8.16667,27.5 7.5,28.5C 6.0639,28.7546 4.5639,29.0879 3,29.5C 2.68861,28.2575 3.18861,27.2575 4.5,26.5C 4.01429,24.6961 3.68096,23.0294 3.5,21.5C 3.83333,20.1667 4.16667,18.8333 4.5,17.5 Z"/></g>
<g><path style="opacity:1" fill="#4f7d2b" d="M 21.5,23.5 C 23.0764,24.1429 24.4097,25.1429 25.5,26.5C 21.6482,24.9658 18.3149,25.6325 15.5,28.5C 15.1667,28.5 14.8333,28.5 14.5,28.5C 14.573,26.9731 13.9063,25.9731 12.5,25.5C 12.5,25.1667 12.5,24.8333 12.5,24.5C 15.4824,24.0371 18.4824,23.7038 21.5,23.5 Z"/></g>
<g><path style="opacity:1" fill="#213316" d="M 41.5,20.5 C 41.8333,20.5 42.1667,20.5 42.5,20.5C 40.3428,22.4121 38.0094,24.0787 35.5,25.5C 35.5,25.8333 35.5,26.1667 35.5,26.5C 34.8333,26.1667 34.1667,25.8333 33.5,25.5C 34.3065,24.2719 35.3065,23.2719 36.5,22.5C 38.1667,21.8333 39.8333,21.1667 41.5,20.5 Z"/></g>
<g><path style="opacity:1" fill="#1b1b1b" d="M 40.5,24.5 C 41.2601,26.9845 42.2601,26.9845 43.5,24.5C 45.3725,25.8963 45.7058,27.563 44.5,29.5C 43.1667,28.8333 41.8333,28.1667 40.5,27.5C 39.1667,27.5 38.5,28.1667 38.5,29.5C 38.5,30.1667 38.5,30.8333 38.5,31.5C 36.6214,31.6068 36.2881,31.1068 37.5,30C 35.0087,29.3741 35.0087,28.5407 37.5,27.5C 37.0431,26.7025 36.3764,26.3691 35.5,26.5C 35.5,26.1667 35.5,25.8333 35.5,25.5C 37.2161,25.3713 38.8828,25.038 40.5,24.5 Z"/></g>
<g><path style="opacity:1" fill="#cccfce" d="M 40.5,24.5 C 41.5,24.5 42.5,24.5 43.5,24.5C 42.2601,26.9845 41.2601,26.9845 40.5,24.5 Z"/></g>
<g><path style="opacity:1" fill="#54892d" d="M 61.5,26.5 C 61.2504,27.9221 60.417,28.9221 59,29.5C 57.7834,27.3876 56.6168,27.7209 55.5,30.5C 54.8333,29.8333 54.1667,29.1667 53.5,28.5C 53.5,28.1667 53.5,27.8333 53.5,27.5C 55.9032,27.607 57.7365,26.607 59,24.5C 59.7083,25.3805 60.5416,26.0472 61.5,26.5 Z"/></g>
<g><path style="opacity:1" fill="#558a2d" d="M -0.5,20.5 C 0.491622,20.3284 1.15829,20.6618 1.5,21.5C 1.80393,22.1499 2.13727,22.8165 2.5,23.5C 2.15431,24.6956 1.65431,24.6956 1,23.5C 1.31118,24.9346 1.14452,26.2679 0.5,27.5C 1.55879,29.5336 2.55879,31.5336 3.5,33.5C 2.39514,32.3995 1.06181,31.7329 -0.5,31.5C -0.5,27.8333 -0.5,24.1667 -0.5,20.5 Z"/></g>
<g><path style="opacity:1" fill="#0a0a09" d="M 25.5,26.5 C 26.5,27.5 27.5,28.5 28.5,29.5C 28.5,30.1667 28.5,30.8333 28.5,31.5C 28.1667,31.5 27.8333,31.5 27.5,31.5C 26.0642,27.5606 24.7309,27.5606 23.5,31.5C 22.3995,32.6049 21.7329,33.9382 21.5,35.5C 19.8333,35.5 18.1667,35.5 16.5,35.5C 15.0048,35.0113 13.6715,34.3446 12.5,33.5C 15.214,33.75 17.8806,33.9167 20.5,34C 18.7462,32.1103 17.0795,30.2769 15.5,28.5C 18.3149,25.6325 21.6482,24.9658 25.5,26.5 Z"/></g>
<g><path style="opacity:1" fill="#54852e" d="M 12.5,25.5 C 13.9063,25.9731 14.573,26.9731 14.5,28.5C 12.7568,30.4364 10.7568,30.7698 8.5,29.5C 9.5213,27.812 10.8546,26.4787 12.5,25.5 Z"/></g>
<g><path style="opacity:1" fill="#1d1f19" d="M 21.5,23.5 C 22.1667,23.5 22.8333,23.5 23.5,23.5C 24.1667,23.5 24.8333,23.5 25.5,23.5C 27.3541,26.1059 29.6875,27.1059 32.5,26.5C 32.5,27.1667 32.8333,27.5 33.5,27.5C 32.8902,28.391 32.5569,29.391 32.5,30.5C 31.8333,30.5 31.1667,30.5 30.5,30.5C 30.1583,29.6618 29.4916,29.3284 28.5,29.5C 27.5,28.5 26.5,27.5 25.5,26.5C 24.4097,25.1429 23.0764,24.1429 21.5,23.5 Z"/></g>
<g><path style="opacity:1" fill="#52852d" d="M 1.5,21.5 C 2.16667,21.5 2.83333,21.5 3.5,21.5C 3.68096,23.0294 4.01429,24.6961 4.5,26.5C 3.18861,27.2575 2.68861,28.2575 3,29.5C 4.5639,29.0879 6.0639,28.7546 7.5,28.5C 7.5,29.1667 7.5,29.8333 7.5,30.5C 5.56954,30.7706 4.23621,31.7706 3.5,33.5C 2.55879,31.5336 1.55879,29.5336 0.5,27.5C 1.14452,26.2679 1.31118,24.9346 1,23.5C 1.65431,24.6956 2.15431,24.6956 2.5,23.5C 2.13727,22.8165 1.80393,22.1499 1.5,21.5 Z"/></g>
<g><path style="opacity:1" fill="#d6d5d2" d="M 33.5,27.5 C 34.8852,28.9473 34.5518,29.9473 32.5,30.5C 32.5569,29.391 32.8902,28.391 33.5,27.5 Z"/></g>
<g><path style="opacity:1" fill="#c3c2c2" d="M 40.5,27.5 C 41.8333,30.1667 41.1667,30.8333 38.5,29.5C 38.5,28.1667 39.1667,27.5 40.5,27.5 Z"/></g>
<g><path style="opacity:1" fill="#090a08" d="M 40.5,27.5 C 41.8333,28.1667 43.1667,28.8333 44.5,29.5C 45.1667,29.8333 45.8333,30.1667 46.5,30.5C 46.5,30.8333 46.5,31.1667 46.5,31.5C 44.139,31.6741 41.8056,32.0074 39.5,32.5C 39.5,31.8333 39.1667,31.5 38.5,31.5C 38.5,30.8333 38.5,30.1667 38.5,29.5C 41.1667,30.8333 41.8333,30.1667 40.5,27.5 Z"/></g>
<g><path style="opacity:1" fill="#10130d" d="M 12.5,24.5 C 12.5,24.8333 12.5,25.1667 12.5,25.5C 10.8546,26.4787 9.5213,27.812 8.5,29.5C 10.7568,30.7698 12.7568,30.4364 14.5,28.5C 14.8333,28.5 15.1667,28.5 15.5,28.5C 14.657,30.1733 13.3237,31.34 11.5,32C 12.056,32.3826 12.3893,32.8826 12.5,33.5C 11.0413,33.5674 9.70792,33.2341 8.5,32.5C 8.16667,31.8333 7.83333,31.1667 7.5,30.5C 7.5,29.8333 7.5,29.1667 7.5,28.5C 8.16667,27.5 8.83333,26.5 9.5,25.5C 10.391,24.8902 11.391,24.5569 12.5,24.5 Z"/></g>
<g><path style="opacity:1" fill="#3d3d3d" d="M 27.5,31.5 C 26.3684,32.3543 25.035,32.3543 23.5,31.5C 24.7309,27.5606 26.0642,27.5606 27.5,31.5 Z"/></g>
<g><path style="opacity:1" fill="#d9dad9" d="M 28.5,29.5 C 29.4916,29.3284 30.1583,29.6618 30.5,30.5C 29.8333,30.8333 29.1667,31.1667 28.5,31.5C 28.5,30.8333 28.5,30.1667 28.5,29.5 Z"/></g>
<g><path style="opacity:1" fill="#070807" d="M 32.5,25.5 C 32.8333,25.5 33.1667,25.5 33.5,25.5C 34.1667,25.8333 34.8333,26.1667 35.5,26.5C 36.3764,26.3691 37.0431,26.7025 37.5,27.5C 35.0087,28.5407 35.0087,29.3741 37.5,30C 36.2881,31.1068 36.6214,31.6068 38.5,31.5C 39.1667,31.5 39.5,31.8333 39.5,32.5C 37.4727,32.6621 35.4727,32.4955 33.5,32C 32.944,31.6174 32.6107,31.1174 32.5,30.5C 34.5518,29.9473 34.8852,28.9473 33.5,27.5C 32.8333,27.5 32.5,27.1667 32.5,26.5C 32.5,26.1667 32.5,25.8333 32.5,25.5 Z"/></g>
<g><path style="opacity:1" fill="#4e7f2b" d="M 53.5,28.5 C 54.1667,29.1667 54.8333,29.8333 55.5,30.5C 56.1667,30.5 56.8333,30.5 57.5,30.5C 56.1667,31.5 54.8333,32.5 53.5,33.5C 51.9098,31.576 50.0765,31.2427 48,32.5C 47.5304,31.4232 47.6971,30.4232 48.5,29.5C 50.2161,29.3713 51.8828,29.038 53.5,28.5 Z"/></g>
<g><path style="opacity:1" fill="#52832c" d="M 61.5,26.5 C 62.1667,26.5 62.8333,26.5 63.5,26.5C 63.5,30.5 63.5,34.5 63.5,38.5C 62.1667,38.5 60.8333,38.5 59.5,38.5C 58.9094,37.8485 58.2427,37.1818 57.5,36.5C 58.6161,36.598 59.6161,36.098 60.5,35C 59.6521,33.3336 58.6521,31.8336 57.5,30.5C 56.8333,30.5 56.1667,30.5 55.5,30.5C 56.6168,27.7209 57.7834,27.3876 59,29.5C 60.417,28.9221 61.2504,27.9221 61.5,26.5 Z"/></g>
<g><path style="opacity:1" fill="#d3d2d2" d="M 15.5,28.5 C 17.0795,30.2769 18.7462,32.1103 20.5,34C 17.8806,33.9167 15.214,33.75 12.5,33.5C 12.3893,32.8826 12.056,32.3826 11.5,32C 13.3237,31.34 14.657,30.1733 15.5,28.5 Z"/></g>
<g><path style="opacity:1" fill="#0b0e08" d="M 30.5,30.5 C 29.267,32.7964 27.267,34.1298 24.5,34.5C 23.609,35.1098 22.609,35.4431 21.5,35.5C 21.7329,33.9382 22.3995,32.6049 23.5,31.5C 25.035,32.3543 26.3684,32.3543 27.5,31.5C 27.8333,31.5 28.1667,31.5 28.5,31.5C 29.1667,31.1667 29.8333,30.8333 30.5,30.5 Z"/></g>
<g><path style="opacity:1" fill="#52832e" d="M 30.5,30.5 C 31.1667,30.5 31.8333,30.5 32.5,30.5C 32.6107,31.1174 32.944,31.6174 33.5,32C 35.4727,32.4955 37.4727,32.6621 39.5,32.5C 41.8056,32.0074 44.139,31.6741 46.5,31.5C 45.8333,32.8333 45.1667,34.1667 44.5,35.5C 39.3054,35.1795 34.3054,35.5128 29.5,36.5C 28.1667,36.8333 26.8333,37.1667 25.5,37.5C 25.4431,36.391 25.1098,35.391 24.5,34.5C 27.267,34.1298 29.267,32.7964 30.5,30.5 Z"/></g>
<g><path style="opacity:1" fill="#54892d" d="M 57.5,30.5 C 58.6521,31.8336 59.6521,33.3336 60.5,35C 59.6161,36.098 58.6161,36.598 57.5,36.5C 58.2427,37.1818 58.9094,37.8485 59.5,38.5C 57.8333,38.5 56.1667,38.5 54.5,38.5C 54.7373,37.209 54.404,36.209 53.5,35.5C 53.5,34.8333 53.5,34.1667 53.5,33.5C 54.8333,32.5 56.1667,31.5 57.5,30.5 Z"/></g>
<g><path style="opacity:1" fill="#2a2215" d="M 48.5,29.5 C 47.6971,30.4232 47.5304,31.4232 48,32.5C 50.0765,31.2427 51.9098,31.576 53.5,33.5C 53.5,34.1667 53.5,34.8333 53.5,35.5C 53.5,35.8333 53.5,36.1667 53.5,36.5C 52.7281,37.6935 51.7281,38.6935 50.5,39.5C 50.7512,37.8297 51.4178,36.3297 52.5,35C 52,34.5 51.5,34 51,33.5C 50.7645,35.1193 49.9311,36.1193 48.5,36.5C 49.5624,35.4246 49.5624,34.4246 48.5,33.5C 47.3777,34.6302 46.0443,35.2969 44.5,35.5C 45.1667,34.1667 45.8333,32.8333 46.5,31.5C 46.5,31.1667 46.5,30.8333 46.5,30.5C 46.8417,29.6618 47.5084,29.3284 48.5,29.5 Z"/></g>
<g><path style="opacity:1" fill="#55892e" d="M 7.5,30.5 C 7.83333,31.1667 8.16667,31.8333 8.5,32.5C 8.38929,33.1174 8.05596,33.6174 7.5,34C 8.83333,34.3333 10.1667,34.6667 11.5,35C 10.3094,35.6979 9.30943,36.5313 8.5,37.5C 8.21719,36.7109 7.71719,36.0442 7,35.5C 5.89025,37.3969 5.72358,39.2302 6.5,41C 5.5842,41.2784 4.91753,41.7784 4.5,42.5C 3.20498,42.6547 3.20498,41.8214 4.5,40C 3.5,39.6667 2.5,39.3333 1.5,39C 3.29094,38.5848 4.62427,37.5848 5.5,36C 4.97473,35.3076 4.30806,34.8076 3.5,34.5C 3.33094,35.3966 2.99761,36.3966 2.5,37.5C 1.91395,37.2907 1.41395,36.9574 1,36.5C 0.801916,38.3817 0.301916,40.0484 -0.5,41.5C -0.5,38.1667 -0.5,34.8333 -0.5,31.5C 1.06181,31.7329 2.39514,32.3995 3.5,33.5C 4.23621,31.7706 5.56954,30.7706 7.5,30.5 Z"/></g>
<g><path style="opacity:1" fill="#51812d" d="M 24.5,34.5 C 25.1098,35.391 25.4431,36.391 25.5,37.5C 22.9446,40.2225 19.9446,40.8891 16.5,39.5C 16.5,38.1667 16.5,36.8333 16.5,35.5C 18.1667,35.5 19.8333,35.5 21.5,35.5C 22.609,35.4431 23.609,35.1098 24.5,34.5 Z"/></g>
<g><path style="opacity:1" fill="#673a25" d="M 48.5,36.5 C 42.4858,37.9687 36.4858,38.9687 30.5,39.5C 28.2163,39.9752 26.2163,40.9752 24.5,42.5C 24.1583,41.6618 23.4916,41.3284 22.5,41.5C 25.0094,40.0787 27.3428,38.4121 29.5,36.5C 34.3054,35.5128 39.3054,35.1795 44.5,35.5C 46.0443,35.2969 47.3777,34.6302 48.5,33.5C 49.5624,34.4246 49.5624,35.4246 48.5,36.5 Z"/></g>
<g><path style="opacity:1" fill="#50832c" d="M 8.5,32.5 C 9.70792,33.2341 11.0413,33.5674 12.5,33.5C 13.6715,34.3446 15.0048,35.0113 16.5,35.5C 16.5,36.8333 16.5,38.1667 16.5,39.5C 13.6424,38.1151 10.9758,38.4484 8.5,40.5C 8.5,39.5 8.5,38.5 8.5,37.5C 9.30943,36.5313 10.3094,35.6979 11.5,35C 10.1667,34.6667 8.83333,34.3333 7.5,34C 8.05596,33.6174 8.38929,33.1174 8.5,32.5 Z"/></g>
<g><path style="opacity:1" fill="#7b452a" d="M 50.5,39.5 C 47.4371,40.7646 46.7704,39.7646 48.5,36.5C 49.9311,36.1193 50.7645,35.1193 51,33.5C 51.5,34 52,34.5 52.5,35C 51.4178,36.3297 50.7512,37.8297 50.5,39.5 Z"/></g>
<g><path style="opacity:1" fill="#568b2e" d="M 53.5,35.5 C 54.404,36.209 54.7373,37.209 54.5,38.5C 56.1667,38.5 57.8333,38.5 59.5,38.5C 60.8333,38.5 62.1667,38.5 63.5,38.5C 63.5,38.8333 63.5,39.1667 63.5,39.5C 61.6214,39.3932 61.2881,39.8932 62.5,41C 61.2949,42.3756 59.9616,43.5423 58.5,44.5C 58.7692,42.5714 58.2692,40.9047 57,39.5C 56.6964,41.4405 55.8631,43.1072 54.5,44.5C 55.0402,45.7481 55.7069,46.9148 56.5,48C 55.9056,48.4643 55.2389,48.631 54.5,48.5C 53.8869,45.9908 53.2202,43.4908 52.5,41C 53.5,40.6667 54.5,40.3333 55.5,40C 54.0267,39.2904 53.3601,38.1238 53.5,36.5C 53.5,36.1667 53.5,35.8333 53.5,35.5 Z"/></g>
<g><path style="opacity:1" fill="#53862d" d="M 8.5,37.5 C 8.5,38.5 8.5,39.5 8.5,40.5C 8.5,41.5 8.5,42.5 8.5,43.5C 7.04125,43.5674 5.70792,43.2341 4.5,42.5C 4.91753,41.7784 5.5842,41.2784 6.5,41C 5.72358,39.2302 5.89025,37.3969 7,35.5C 7.71719,36.0442 8.21719,36.7109 8.5,37.5 Z"/></g>
<g><path style="opacity:1" fill="#372218" d="M 48.5,36.5 C 46.7704,39.7646 47.4371,40.7646 50.5,39.5C 50.1667,40.1667 49.8333,40.8333 49.5,41.5C 47.7839,41.6287 46.1172,41.962 44.5,42.5C 44.5,42.1667 44.5,41.8333 44.5,41.5C 44.5,41.1667 44.5,40.8333 44.5,40.5C 40.03,39.5139 35.3633,39.1805 30.5,39.5C 36.4858,38.9687 42.4858,37.9687 48.5,36.5 Z"/></g>
<g><path style="opacity:1" fill="#120f08" d="M 29.5,36.5 C 27.3428,38.4121 25.0094,40.0787 22.5,41.5C 19.0703,41.8935 15.9036,41.2268 13,39.5C 12.6174,40.056 12.1174,40.3893 11.5,40.5C 9.78679,41.6354 9.12012,43.302 9.5,45.5C 9.16667,45.5 8.83333,45.5 8.5,45.5C 8.5,45.1667 8.5,44.8333 8.5,44.5C 8.5,44.1667 8.5,43.8333 8.5,43.5C 8.5,42.5 8.5,41.5 8.5,40.5C 10.9758,38.4484 13.6424,38.1151 16.5,39.5C 19.9446,40.8891 22.9446,40.2225 25.5,37.5C 26.8333,37.1667 28.1667,36.8333 29.5,36.5 Z"/></g>
<g><path style="opacity:1" fill="#111009" d="M 44.5,40.5 C 44.5,40.8333 44.5,41.1667 44.5,41.5C 42.1667,41.5 39.8333,41.5 37.5,41.5C 36.8333,41.5 36.1667,41.5 35.5,41.5C 33.2872,42.7729 30.9538,43.7729 28.5,44.5C 29.7489,42.8639 31.4156,41.6972 33.5,41C 37.1516,40.5014 40.8183,40.3347 44.5,40.5 Z"/></g>
<g><path style="opacity:1" fill="#874b2e" d="M 22.5,41.5 C 23.4916,41.3284 24.1583,41.6618 24.5,42.5C 22.2655,43.4469 19.9322,44.1136 17.5,44.5C 15.4434,44.5643 13.7767,43.8976 12.5,42.5C 12.1667,41.8333 11.8333,41.1667 11.5,40.5C 12.1174,40.3893 12.6174,40.056 13,39.5C 15.9036,41.2268 19.0703,41.8935 22.5,41.5 Z"/></g>
<g><path style="opacity:1" fill="#51812e" d="M 4.5,42.5 C 5.70792,43.2341 7.04125,43.5674 8.5,43.5C 8.5,43.8333 8.5,44.1667 8.5,44.5C 6.58533,44.2155 4.91866,44.5489 3.5,45.5C 1.56954,45.2294 0.236209,44.2294 -0.5,42.5C -0.5,42.1667 -0.5,41.8333 -0.5,41.5C 0.301916,40.0484 0.801916,38.3817 1,36.5C 1.41395,36.9574 1.91395,37.2907 2.5,37.5C 2.99761,36.3966 3.33094,35.3966 3.5,34.5C 4.30806,34.8076 4.97473,35.3076 5.5,36C 4.62427,37.5848 3.29094,38.5848 1.5,39C 2.5,39.3333 3.5,39.6667 4.5,40C 3.20498,41.8214 3.20498,42.6547 4.5,42.5 Z"/></g>
<g><path style="opacity:1" fill="#6a3b25" d="M 11.5,40.5 C 11.8333,41.1667 12.1667,41.8333 12.5,42.5C 11.9569,42.56 11.6236,42.8933 11.5,43.5C 12.2427,44.1818 12.9094,44.8485 13.5,45.5C 13.1667,46.1667 12.8333,46.8333 12.5,47.5C 12.1667,47.5 11.8333,47.5 11.5,47.5C 10.1667,47.5 9.5,46.8333 9.5,45.5C 9.12012,43.302 9.78679,41.6354 11.5,40.5 Z"/></g>
<g><path style="opacity:1" fill="#6e4128" d="M 30.5,39.5 C 35.3633,39.1805 40.03,39.5139 44.5,40.5C 40.8183,40.3347 37.1516,40.5014 33.5,41C 31.4156,41.6972 29.7489,42.8639 28.5,44.5C 28.1667,45.5 27.5,46.1667 26.5,46.5C 26.1667,46.5 25.8333,46.5 25.5,46.5C 26.6005,45.3951 27.2671,44.0618 27.5,42.5C 28.6935,41.7281 29.6935,40.7281 30.5,39.5 Z"/></g>
<g><path style="opacity:1" fill="#1d120e" d="M 30.5,39.5 C 29.6935,40.7281 28.6935,41.7281 27.5,42.5C 23.1866,44.9592 18.5199,45.9592 13.5,45.5C 12.9094,44.8485 12.2427,44.1818 11.5,43.5C 11.6236,42.8933 11.9569,42.56 12.5,42.5C 13.7767,43.8976 15.4434,44.5643 17.5,44.5C 19.9322,44.1136 22.2655,43.4469 24.5,42.5C 26.2163,40.9752 28.2163,39.9752 30.5,39.5 Z"/></g>
<g><path style="opacity:1" fill="#53842d" d="M 53.5,36.5 C 53.3601,38.1238 54.0267,39.2904 55.5,40C 54.5,40.3333 53.5,40.6667 52.5,41C 53.2202,43.4908 53.8869,45.9908 54.5,48.5C 52.8235,49.1834 52.1568,50.5168 52.5,52.5C 52.5,53.8333 52.5,55.1667 52.5,56.5C 51.8333,55.1667 51.1667,53.8333 50.5,52.5C 48.7085,52.366 47.0418,52.6993 45.5,53.5C 43.6558,52.7961 43.1558,51.4628 44,49.5C 44.3333,50.1667 44.6667,50.8333 45,51.5C 46.3877,51.7856 47.8877,51.4523 49.5,50.5C 50.2344,49.1225 50.9011,47.6225 51.5,46C 50.1375,44.3492 49.4708,42.8492 49.5,41.5C 49.8333,40.8333 50.1667,40.1667 50.5,39.5C 51.7281,38.6935 52.7281,37.6935 53.5,36.5 Z"/></g>
<g><path style="opacity:1" fill="#56892d" d="M 8.5,44.5 C 8.5,44.8333 8.5,45.1667 8.5,45.5C 7.94227,46.7899 6.94227,47.6232 5.5,48C 6.4158,48.2784 7.08247,48.7784 7.5,49.5C 4.62861,50.9864 3.29528,49.9864 3.5,46.5C 3.5,46.1667 3.5,45.8333 3.5,45.5C 4.91866,44.5489 6.58533,44.2155 8.5,44.5 Z"/></g>
<g><path style="opacity:1" fill="#52832d" d="M 37.5,41.5 C 39.8333,41.5 42.1667,41.5 44.5,41.5C 44.5,41.8333 44.5,42.1667 44.5,42.5C 42.1667,42.8333 40.8333,44.1667 40.5,46.5C 39.0357,45.5946 37.7024,45.5946 36.5,46.5C 36.6287,44.7839 36.962,43.1172 37.5,41.5 Z"/></g>
<g><path style="opacity:1" fill="#53852d" d="M 35.5,41.5 C 35.5086,43.3084 35.0086,44.9751 34,46.5C 33.4444,44.4049 32.9444,44.2382 32.5,46C 33.3479,47.6664 34.3479,49.1664 35.5,50.5C 33.8466,51.7994 32.3466,51.4661 31,49.5C 30.5357,50.0944 30.369,50.7611 30.5,51.5C 28.1073,50.6473 26.774,48.9806 26.5,46.5C 27.5,46.1667 28.1667,45.5 28.5,44.5C 30.9538,43.7729 33.2872,42.7729 35.5,41.5 Z"/></g>
<g><path style="opacity:1" fill="#528330" d="M 42.5,46.5 C 42.8966,45.475 43.5632,45.3083 44.5,46C 46.0429,47.7392 47.7096,49.2392 49.5,50.5C 47.8877,51.4523 46.3877,51.7856 45,51.5C 44.6667,50.8333 44.3333,50.1667 44,49.5C 43.1558,51.4628 43.6558,52.7961 45.5,53.5C 44.2946,54.6857 42.9613,54.6857 41.5,53.5C 40.8333,53.1667 40.1667,52.8333 39.5,52.5C 38.1667,51.5 38.1667,50.5 39.5,49.5C 41.2984,50.4629 42.6317,49.7962 43.5,47.5C 43.3764,46.8933 43.0431,46.56 42.5,46.5 Z"/></g>
<g><path style="opacity:1" fill="#52842f" d="M 63.5,39.5 C 63.5,41.5 63.5,43.5 63.5,45.5C 62.1751,46.9526 61.3418,46.6192 61,44.5C 59.7964,45.4706 59.2964,46.4706 59.5,47.5C 58.646,46.4783 57.646,45.6449 56.5,45C 57.0944,44.5357 57.7611,44.369 58.5,44.5C 59.9616,43.5423 61.2949,42.3756 62.5,41C 61.2881,39.8932 61.6214,39.3932 63.5,39.5 Z"/></g>
<g><path style="opacity:1" fill="#84492d" d="M 27.5,42.5 C 27.2671,44.0618 26.6005,45.3951 25.5,46.5C 21.2358,48.2912 16.9025,48.6245 12.5,47.5C 12.8333,46.8333 13.1667,46.1667 13.5,45.5C 18.5199,45.9592 23.1866,44.9592 27.5,42.5 Z"/></g>
<g><path style="opacity:1" fill="#558730" d="M 40.5,46.5 C 41.1667,46.5 41.8333,46.5 42.5,46.5C 43.0431,46.56 43.3764,46.8933 43.5,47.5C 42.6317,49.7962 41.2984,50.4629 39.5,49.5C 38.2502,49.5774 37.4169,50.244 37,51.5C 36.6174,50.944 36.1174,50.6107 35.5,50.5C 35.5774,49.2502 36.244,48.4169 37.5,48C 36.944,47.6174 36.6107,47.1174 36.5,46.5C 37.7024,45.5946 39.0357,45.5946 40.5,46.5 Z"/></g>
<g><path style="opacity:1" fill="#55892e" d="M 49.5,41.5 C 49.4708,42.8492 50.1375,44.3492 51.5,46C 50.9011,47.6225 50.2344,49.1225 49.5,50.5C 47.7096,49.2392 46.0429,47.7392 44.5,46C 43.5632,45.3083 42.8966,45.475 42.5,46.5C 41.8333,46.5 41.1667,46.5 40.5,46.5C 40.8333,44.1667 42.1667,42.8333 44.5,42.5C 46.1172,41.962 47.7839,41.6287 49.5,41.5 Z"/></g>
<g><path style="opacity:1" fill="#578a2f" d="M 35.5,41.5 C 36.1667,41.5 36.8333,41.5 37.5,41.5C 36.962,43.1172 36.6287,44.7839 36.5,46.5C 36.6107,47.1174 36.944,47.6174 37.5,48C 36.244,48.4169 35.5774,49.2502 35.5,50.5C 34.3479,49.1664 33.3479,47.6664 32.5,46C 32.9444,44.2382 33.4444,44.4049 34,46.5C 35.0086,44.9751 35.5086,43.3084 35.5,41.5 Z"/></g>
<g><path style="opacity:1" fill="#53862e" d="M 58.5,44.5 C 57.7611,44.369 57.0944,44.5357 56.5,45C 57.646,45.6449 58.646,46.4783 59.5,47.5C 59.2964,46.4706 59.7964,45.4706 61,44.5C 61.3418,46.6192 62.1751,46.9526 63.5,45.5C 63.5,49.8333 63.5,54.1667 63.5,58.5C 62.5,57.1667 61.5,55.8333 60.5,54.5C 59.7611,54.631 59.0944,54.4643 58.5,54C 61.3838,52.9626 62.0504,51.1293 60.5,48.5C 59.5713,49.6888 59.238,51.0222 59.5,52.5C 58.448,52.3505 57.448,52.5172 56.5,53C 57.8882,53.8893 57.7215,54.3893 56,54.5C 54.6974,54.0217 53.5307,53.355 52.5,52.5C 52.1568,50.5168 52.8235,49.1834 54.5,48.5C 55.2389,48.631 55.9056,48.4643 56.5,48C 55.7069,46.9148 55.0402,45.7481 54.5,44.5C 55.8631,43.1072 56.6964,41.4405 57,39.5C 58.2692,40.9047 58.7692,42.5714 58.5,44.5 Z"/></g>
<g><path style="opacity:1" fill="#52832d" d="M 8.5,45.5 C 8.83333,45.5 9.16667,45.5 9.5,45.5C 9.5,46.8333 10.1667,47.5 11.5,47.5C 12.5137,48.6737 13.847,49.3404 15.5,49.5C 15.1667,50.1667 14.8333,50.8333 14.5,51.5C 13.8333,51.5 13.5,51.8333 13.5,52.5C 11.281,51.1204 9.28103,51.4537 7.5,53.5C 6.70245,53.0431 6.36912,52.3764 6.5,51.5C 6.83333,50.8333 7.16667,50.1667 7.5,49.5C 7.08247,48.7784 6.4158,48.2784 5.5,48C 6.94227,47.6232 7.94227,46.7899 8.5,45.5 Z"/></g>
<g><path style="opacity:1" fill="#0f0c08" d="M 25.5,46.5 C 24.4097,47.8571 23.0764,48.8571 21.5,49.5C 21.1667,49.5 20.8333,49.5 20.5,49.5C 18.8333,49.5 17.1667,49.5 15.5,49.5C 13.847,49.3404 12.5137,48.6737 11.5,47.5C 11.8333,47.5 12.1667,47.5 12.5,47.5C 16.9025,48.6245 21.2358,48.2912 25.5,46.5 Z"/></g>
<g><path style="opacity:1" fill="#55882e" d="M -0.5,42.5 C 0.236209,44.2294 1.56954,45.2294 3.5,45.5C 3.5,45.8333 3.5,46.1667 3.5,46.5C 2.69057,47.4687 1.69057,48.3021 0.5,49C 3.42813,50.5237 3.76146,52.0237 1.5,53.5C 0.833333,52.5 0.166667,51.5 -0.5,50.5C -0.5,47.8333 -0.5,45.1667 -0.5,42.5 Z"/></g>
<g><path style="opacity:1" fill="#52832d" d="M 25.5,46.5 C 25.8333,46.5 26.1667,46.5 26.5,46.5C 26.774,48.9806 28.1073,50.6473 30.5,51.5C 33.7155,52.1687 34.0489,53.1687 31.5,54.5C 29.4159,53.7517 27.4159,53.7517 25.5,54.5C 24.537,54.0302 24.537,53.3635 25.5,52.5C 24.205,51.5116 22.8717,50.5116 21.5,49.5C 23.0764,48.8571 24.4097,47.8571 25.5,46.5 Z"/></g>
<g><path style="opacity:1" fill="#588b2e" d="M 20.5,49.5 C 20.8333,49.5 21.1667,49.5 21.5,49.5C 22.8717,50.5116 24.205,51.5116 25.5,52.5C 24.5084,52.3284 23.8417,52.6618 23.5,53.5C 21.9519,53.8212 21.2852,54.8212 21.5,56.5C 20.1991,55.1155 20.1991,53.6155 21.5,52C 20.0039,51.4926 18.8373,51.9926 18,53.5C 17.8333,53.1667 17.6667,52.8333 17.5,52.5C 18.3398,51.265 19.3398,50.265 20.5,49.5 Z"/></g>
<g><path style="opacity:1" fill="#53832f" d="M 15.5,49.5 C 17.1667,49.5 18.8333,49.5 20.5,49.5C 19.3398,50.265 18.3398,51.265 17.5,52.5C 17.6667,52.8333 17.8333,53.1667 18,53.5C 18.8373,51.9926 20.0039,51.4926 21.5,52C 20.1991,53.6155 20.1991,55.1155 21.5,56.5C 20.5944,58.9137 18.9278,59.747 16.5,59C 18.032,58.3005 19.032,57.1338 19.5,55.5C 18.1632,55.2598 16.4965,54.7598 14.5,54C 17.1125,52.9288 17.1125,52.0955 14.5,51.5C 14.8333,50.8333 15.1667,50.1667 15.5,49.5 Z"/></g>
<g><path style="opacity:1" fill="#54882d" d="M 25.5,52.5 C 24.537,53.3635 24.537,54.0302 25.5,54.5C 27.4159,53.7517 29.4159,53.7517 31.5,54.5C 31.6399,56.1238 30.9733,57.2904 29.5,58C 30.4506,58.7175 30.6172,59.5509 30,60.5C 28.9563,59.3774 28.2896,58.0441 28,56.5C 27.6174,57.056 27.1174,57.3893 26.5,57.5C 25.2112,56.3634 24.2112,55.0301 23.5,53.5C 23.8417,52.6618 24.5084,52.3284 25.5,52.5 Z"/></g>
<g><path style="opacity:1" fill="#578c30" d="M 35.5,50.5 C 36.1174,50.6107 36.6174,50.944 37,51.5C 37.4169,50.244 38.2502,49.5774 39.5,49.5C 38.1667,50.5 38.1667,51.5 39.5,52.5C 38.2502,52.5774 37.4169,53.244 37,54.5C 36.2949,52.0144 35.4616,52.0144 34.5,54.5C 34.0461,56.2589 34.0461,58.2589 34.5,60.5C 33.2438,60.5386 32.2438,60.0386 31.5,59C 32.8009,57.3845 32.8009,55.8845 31.5,54.5C 34.0489,53.1687 33.7155,52.1687 30.5,51.5C 30.369,50.7611 30.5357,50.0944 31,49.5C 32.3466,51.4661 33.8466,51.7994 35.5,50.5 Z"/></g>
<g><path style="opacity:1" fill="#4f802b" d="M 3.5,46.5 C 3.29528,49.9864 4.62861,50.9864 7.5,49.5C 7.16667,50.1667 6.83333,50.8333 6.5,51.5C 5.86756,53.7426 4.53422,55.4093 2.5,56.5C 1.89022,55.609 1.55688,54.609 1.5,53.5C 3.76146,52.0237 3.42813,50.5237 0.5,49C 1.69057,48.3021 2.69057,47.4687 3.5,46.5 Z"/></g>
<g><path style="opacity:1" fill="#54892d" d="M 60.5,54.5 C 59.8333,55.1667 59.1667,55.8333 58.5,56.5C 55.9474,55.3489 54.6141,56.3489 54.5,59.5C 53.448,59.6495 52.448,59.4828 51.5,59C 52.2524,58.3292 52.5858,57.4959 52.5,56.5C 52.5,55.1667 52.5,53.8333 52.5,52.5C 53.5307,53.355 54.6974,54.0217 56,54.5C 57.7215,54.3893 57.8882,53.8893 56.5,53C 57.448,52.5172 58.448,52.3505 59.5,52.5C 59.238,51.0222 59.5713,49.6888 60.5,48.5C 62.0504,51.1293 61.3838,52.9626 58.5,54C 59.0944,54.4643 59.7611,54.631 60.5,54.5 Z"/></g>
<g><path style="opacity:1" fill="#53842d" d="M 39.5,52.5 C 40.1667,52.8333 40.8333,53.1667 41.5,53.5C 41.4894,55.0174 40.8228,56.1841 39.5,57C 41.6785,57.4419 42.3452,58.4419 41.5,60C 42.9733,60.7096 43.6399,61.8762 43.5,63.5C 43.1667,63.5 42.8333,63.5 42.5,63.5C 42.631,62.7611 42.4643,62.0944 42,61.5C 41.1072,62.7112 40.2739,62.7112 39.5,61.5C 38.8973,60.3652 38.5639,59.3652 38.5,58.5C 37.7189,59.7287 37.2189,61.062 37,62.5C 36.2571,60.5594 36.4238,58.7261 37.5,57C 36.3094,56.3021 35.3094,55.4687 34.5,54.5C 35.4616,52.0144 36.2949,52.0144 37,54.5C 37.4169,53.244 38.2502,52.5774 39.5,52.5 Z"/></g>
<g><path style="opacity:1" fill="#55892e" d="M 6.5,51.5 C 6.36912,52.3764 6.70245,53.0431 7.5,53.5C 9.28103,51.4537 11.281,51.1204 13.5,52.5C 12.8359,55.1368 12.1693,57.8035 11.5,60.5C 13.2012,60.1896 14.8678,60.6896 16.5,62C 15.944,62.3826 15.6107,62.8826 15.5,63.5C 12.5,63.5 9.5,63.5 6.5,63.5C 6.61071,62.8826 6.94404,62.3826 7.5,62C 5.86191,61.758 4.36191,60.9247 3,59.5C 2.51722,58.552 2.35055,57.552 2.5,56.5C 4.53422,55.4093 5.86756,53.7426 6.5,51.5 Z"/></g>
<g><path style="opacity:1" fill="#55872d" d="M 34.5,54.5 C 35.3094,55.4687 36.3094,56.3021 37.5,57C 36.4238,58.7261 36.2571,60.5594 37,62.5C 37.2189,61.062 37.7189,59.7287 38.5,58.5C 38.5639,59.3652 38.8973,60.3652 39.5,61.5C 40.2739,62.7112 41.1072,62.7112 42,61.5C 42.4643,62.0944 42.631,62.7611 42.5,63.5C 40.1667,63.5 37.8333,63.5 35.5,63.5C 34.8902,62.609 34.5569,61.609 34.5,60.5C 34.0461,58.2589 34.0461,56.2589 34.5,54.5 Z"/></g>
<g><path style="opacity:1" fill="#55852f" d="M 50.5,52.5 C 51.1667,53.8333 51.8333,55.1667 52.5,56.5C 52.5858,57.4959 52.2524,58.3292 51.5,59C 52.448,59.4828 53.448,59.6495 54.5,59.5C 53.5313,60.3094 52.6979,61.3094 52,62.5C 51.1004,61.2298 49.9337,60.2298 48.5,59.5C 47.7439,57.5494 47.4106,55.7161 47.5,54C 48.4491,53.3828 49.2825,53.5494 50,54.5C 50.4643,53.9056 50.631,53.2389 50.5,52.5 Z"/></g>
<g><path style="opacity:1" fill="#54872f" d="M 14.5,51.5 C 17.1125,52.0955 17.1125,52.9288 14.5,54C 16.4965,54.7598 18.1632,55.2598 19.5,55.5C 19.032,57.1338 18.032,58.3005 16.5,59C 18.9278,59.747 20.5944,58.9137 21.5,56.5C 22.2389,56.369 22.9056,56.5357 23.5,57C 21.5318,59.7197 19.8651,61.8864 18.5,63.5C 17.5,63.5 16.5,63.5 15.5,63.5C 15.6107,62.8826 15.944,62.3826 16.5,62C 14.8678,60.6896 13.2012,60.1896 11.5,60.5C 12.1693,57.8035 12.8359,55.1368 13.5,52.5C 13.5,51.8333 13.8333,51.5 14.5,51.5 Z"/></g>
<g><path style="opacity:1" fill="#53852c" d="M 23.5,53.5 C 24.2112,55.0301 25.2112,56.3634 26.5,57.5C 26.8333,59.5 27.1667,61.5 27.5,63.5C 24.5,63.5 21.5,63.5 18.5,63.5C 19.8651,61.8864 21.5318,59.7197 23.5,57C 22.9056,56.5357 22.2389,56.369 21.5,56.5C 21.2852,54.8212 21.9519,53.8212 23.5,53.5 Z"/></g>
<g><path style="opacity:1" fill="#568a2f" d="M 50.5,52.5 C 50.631,53.2389 50.4643,53.9056 50,54.5C 49.2825,53.5494 48.4491,53.3828 47.5,54C 47.4106,55.7161 47.7439,57.5494 48.5,59.5C 49.9337,60.2298 51.1004,61.2298 52,62.5C 52.6979,61.3094 53.5313,60.3094 54.5,59.5C 54.5,60.8333 54.5,62.1667 54.5,63.5C 50.8333,63.5 47.1667,63.5 43.5,63.5C 43.6399,61.8762 42.9733,60.7096 41.5,60C 42.3452,58.4419 41.6785,57.4419 39.5,57C 40.8228,56.1841 41.4894,55.0174 41.5,53.5C 42.9613,54.6857 44.2946,54.6857 45.5,53.5C 47.0418,52.6993 48.7085,52.366 50.5,52.5 Z"/></g>
<g><path style="opacity:1" fill="#53862c" d="M -0.5,50.5 C 0.166667,51.5 0.833333,52.5 1.5,53.5C 1.55688,54.609 1.89022,55.609 2.5,56.5C 2.35055,57.552 2.51722,58.552 3,59.5C 4.36191,60.9247 5.86191,61.758 7.5,62C 6.94404,62.3826 6.61071,62.8826 6.5,63.5C 4.16667,63.5 1.83333,63.5 -0.5,63.5C -0.5,59.1667 -0.5,54.8333 -0.5,50.5 Z"/></g>
<g><path style="opacity:1" fill="#54862e" d="M 31.5,54.5 C 32.8009,55.8845 32.8009,57.3845 31.5,59C 32.2438,60.0386 33.2438,60.5386 34.5,60.5C 34.5569,61.609 34.8902,62.609 35.5,63.5C 32.8333,63.5 30.1667,63.5 27.5,63.5C 27.1667,61.5 26.8333,59.5 26.5,57.5C 27.1174,57.3893 27.6174,57.056 28,56.5C 28.2896,58.0441 28.9563,59.3774 30,60.5C 30.6172,59.5509 30.4506,58.7175 29.5,58C 30.9733,57.2904 31.6399,56.1238 31.5,54.5 Z"/></g>
<g><path style="opacity:1" fill="#54862d" d="M 58.5,56.5 C 61.6537,57.4739 62.6537,59.4739 61.5,62.5C 60.2299,61.4378 59.0633,60.4378 58,59.5C 57.5,60 57,60.5 56.5,61C 57.5707,61.8518 58.5707,62.6851 59.5,63.5C 57.8333,63.5 56.1667,63.5 54.5,63.5C 54.5,62.1667 54.5,60.8333 54.5,59.5C 54.6141,56.3489 55.9474,55.3489 58.5,56.5 Z"/></g>
<g><path style="opacity:1" fill="#52822e" d="M 60.5,54.5 C 61.5,55.8333 62.5,57.1667 63.5,58.5C 63.5,60.1667 63.5,61.8333 63.5,63.5C 62.1667,63.5 60.8333,63.5 59.5,63.5C 58.5707,62.6851 57.5707,61.8518 56.5,61C 57,60.5 57.5,60 58,59.5C 59.0633,60.4378 60.2299,61.4378 61.5,62.5C 62.6537,59.4739 61.6537,57.4739 58.5,56.5C 59.1667,55.8333 59.8333,55.1667 60.5,54.5 Z"/></g>
</svg>
