<svg id="Layer_1" data-name="Layer 1" xmlns="http://www.w3.org/2000/svg" viewBox="0 0 50 50"><circle cx="25" cy="25" r="25" fill="#010203"/><g id="Layer_1_0" data-name="Layer_1 0"><g id="_2498434179408" data-name=" 2498434179408"><g id="Layer_1_0_1" data-name="Layer_1 0 1"><g id="_3036754161648" data-name=" 3036754161648"><polygon points="31.2 27.633 31.2 20.133 32.717 20.133 32.717 27.633 31.2 27.633" fill="#f7a600"/><path d="M13.65,29.8668H10.4161v-7.5h3.1c1.5,0,2.3834.8167,2.3834,2.1a1.7477,1.7477,0,0,1-.95,1.55A1.7477,1.7477,0,0,1,16.0163,27.7,2.1014,2.1014,0,0,1,13.65,29.85h0Zm-.25-6.1835H11.9162v1.7334H13.4c.6333,0,1-.35,1-.8667s-.3667-.8667-1-.8667Zm.1,3.05H11.9329v1.85H13.5a.9285.9285,0,1,0,.0167-1.85Z" fill="#fff"/><polygon points="20.6 26.783 20.6 29.867 19.1 29.867 19.1 26.783 16.783 22.367 18.433 22.367 19.866 25.383 21.283 22.367 22.917 22.367 20.6 26.783" fill="#fff"/><path d="M27.2,29.8668H23.9666v-7.5h3.1c1.5,0,2.3835.8167,2.3835,2.1a1.7477,1.7477,0,0,1-.95,1.55A1.7477,1.7477,0,0,1,29.5668,27.7,2.1014,2.1014,0,0,1,27.2,29.85h0Zm-.25-6.1835H25.4834v1.7334H26.95c.6333,0,1-.35,1-.8667S27.5834,23.6833,26.95,23.6833Zm.1,3.05H25.4834v1.85H27.05a.9292.9292,0,1,0,0-1.85Z" fill="#fff"/><polygon points="37.567 23.667 37.567 29.867 36.067 29.867 36.067 23.667 34.05 23.667 34.05 22.367 39.584 22.367 39.584 23.667 37.567 23.667" fill="#fff"/></g></g></g></g></svg>