<!-- by TradingView --><svg width="56" height="56" viewBox="0 0 56 56" xmlns="http://www.w3.org/2000/svg"><path fill="#888E72" d="M0 0h56v56H0z"/><path d="M25.03 42.88c.38-.05.4-.14.02-.26-.15-.06-.28-.21-.38-.48a153.42 153.42 0 0 0-.74-1.96.16.16 0 0 1 .08-.12.17.17 0 0 1 .07-.03l.17-.02c.06 0 .08-.04.07-.1a74.3 74.3 0 0 1-1.15-4.99c-.05-.27-.18-.5-.39-.67-.17-.14-.21-.25-.19-.46 0-.05-.01-.1-.05-.14-.18-.2-.18-.37-.38-.57-.22-.23-.4-.53-.56-.93-.75-1.97 0-3.67.8-5.64.06-.17.18-.27.28-.42a.12.12 0 0 0 0-.1l-.4-1.03a.1.1 0 0 0-.1-.06c-1.4.12-2.75-.09-4.04-.64-.69-.3-1.29-.78-1.95-1.11-2.6-1.34-2.5-5.01-1.65-7.33.02-.05.06-.1.11-.12.23-.12.47-.2.72-.24 1.28-.24 3-.4 4.41-.72l4.4-1.03c2.04-.49 3.55-.78 4.54-.89a5.5 5.5 0 0 1 .82-.04.09.09 0 0 0 .04-.07v-.05c-.66-1.13-.73-2.71.45-3.5.67-.44 1.08.1 1.12.73.05.83 0 1.7-.17 2.6-.02.1.02.17.12.2l.21.07c.11.03.17 0 .17-.12.01-1.42.37-2.46 1.08-3.1.45-.4.94-.51 1.47-.35.82.25.44 1.72.22 2.3-.28.74-.61 1.43-.99 2.07a.18.18 0 0 0-.02.11c0 .04.02.08.04.1.73.8 1 2.03 1.1 3.1.08 1 .11 2 .07 3a54.26 54.26 0 0 1-.34 4.57c-.03.23-.01.4.06.54.05.1.07.25.04.45 0 .03 0 .07.03.1.01.03.04.06.08.08.94.42 1.86 2.26 2.23 3.15.8 1.93.54 3.66-.76 5.21a.21.21 0 0 0-.05.15c.1 2.1.07 4.2-.1 6.35-.01.07.02.1.08.1a.3.3 0 0 1 .16.07c.05.03.07.07.07.12l.03 1.75c0 .21-.08.3-.23.45a.18.18 0 0 0-.05.14c.02.55.06 1.04.1 1.45.04.36-.04.78-.1 1.15-.05.38-.58.5-.69.95a.2.2 0 0 1-.09.12c-.48.3-.81.9-1.45 1.06-1.2.28-2.55.22-3.76-.22-.42-.16-.74-.94-.86-1.33a.1.1 0 0 0-.1-.06.1.1 0 0 0-.04.01c-.3.18-.6.27-.9.28-.34.01-.6.04-.82.08-.8.15-3.27.4-3.8-.3l-.4-.48c-.38-.5-.38-.97-.36-1.61.06-1.3 1.1-1.43 2.24-1.53a.19.19 0 0 1 .14.05c.11.1.19.16.22.16Z" fill="#010100"/><path d="M33.01 14.05c.68.13 1.1 2.32 1.13 2.8.05.8.13 1.75.12 2.62-.03 1.82-.15 3.6-.34 5.33-.02.1-.1.2-.28.32-1.85 1.14-3.77 1.5-5.98 1.62-1.44.07-2.79-.09-4.02-.48-.75-.23-.93-.75-1.04-1.45a.18.18 0 0 0-.18-.15 10.6 10.6 0 0 1-4.07-.74 1.63 1.63 0 0 1-.46-.26c-.07-.07-.06-.1.04-.12 1.74-.18 2.28-1.65 2.27-3.15-.02-1.98 0-3.47-.65-5.05-.03-.07 0-.12.07-.14 3.05-.76 6.13-1.48 9.25-2.15a5.94 5.94 0 0 1 .91-.13.09.09 0 0 0 .04-.1l-.35-.88c-.37-1-.15-1.82.66-2.45.14-.1.3-.14.48-.1.06.01.1.04.15.08.16.2.24.48.22.86-.04.9-.12 1.67-.23 2.33-.02.07-.06.1-.13.1h-.3c-.05 0-.07.01-.06.06l.02.06.01.03h.03a3.3 3.3 0 0 1 1.31.2.07.07 0 0 0 .06-.04v-.04c0-.38 0-.76.03-1.13.07-.99.73-2.34 1.85-2.45 1.77-.18-.1 3.28-.43 3.9a1.5 1.5 0 0 0-.2.6c0 .06.02.09.07.1Z" fill="#A0773D"/><path d="M33.1 25.72c.23-.1.3-.19.51-.38a.1.1 0 0 1 .1-.02.1.1 0 0 1 .07.07v.11c-.02.03-.04.05-.08.07-.45.22-.86.5-1.22.84-.07.06-.12.06-.17-.02a.25.25 0 0 1-.03-.09c-.01-.1.02-.17.1-.21.2-.11.44-.24.72-.37Z" fill="#959F9C"/><path d="M22.72 27.52h-.02c-.01 0-.02 0-.02.03-.12.85-.21 1.71-.3 2.57 0 .1-.02.15-.05.16a.22.22 0 0 1-.14 0 .19.19 0 0 0-.15.02c-.09.05-.12.13-.1.23 0 .06.04.1.1.1.13.02.23.06.3.1a.17.17 0 0 1 .09.14c.02.61.17 1.13.44 1.57.03.05.04.1.02.14l-.18.56a.05.05 0 0 0 .03.06l.05.01c.01 0 .03 0 .03-.02l.17-.4c.1-.22.17-.21.24.01 0 .03-.03.07-.11.12a.16.16 0 0 0-.09.12.99.99 0 0 1-.15.43h-.02a.05.05 0 0 1-.04 0 .09.09 0 0 1-.03-.05c-.02-.06-.05-.1-.11-.1a.55.55 0 0 1-.41-.26 4.8 4.8 0 0 1-.52-4.1 15.63 15.63 0 0 1 .97-2.41.15.15 0 0 1 .18-.02 9.05 9.05 0 0 0 5.1 1.34c1.74-.05 3.34-.48 4.79-1.3.24-.13.54-.43.8-.53.93-.37 1.26.26 1.75.98.52.79.93 1.6 1.21 2.46.61 1.81-.03 3.8-1.65 4.86a.21.21 0 0 1-.15.04c-.83-.1-1.44-.63-1.89-1.3-.38-.57.28-1.6.7-2.09a.29.29 0 0 0-.07-.43c-.13-.08-.23-.17-.27-.33a12.76 12.76 0 0 1-.25-1.51.12.12 0 0 1 .06-.05 1 1 0 0 0 .64-.8.08.08 0 0 0-.02-.07.07.07 0 0 0-.06-.02l-.06.01c-.03.02-.05.03-.05.05a3.95 3.95 0 0 1-.47.68.06.06 0 0 1-.06-.01l-.01-.03-.12-.37a.04.04 0 0 0-.04-.03c-.02 0-.04.02-.06.04v.02c.05.16.09.51.1 1.06.02.46.14.96.36 1.49.02.05.02.1 0 .14-.47.8-.7 1.17-.75 1.87 0 .05-.02.1-.05.13a.22.22 0 0 1-.13.07c-1.43.33-2.87.43-4.3.31-1.84-.15-2.94-.11-4.2-.56-.28-.1-.5-.33-.67-.67a5.2 5.2 0 0 1-.44-1.91c-.05-.75.27-1.77.13-2.5 0-.05-.02-.06-.05-.05Z" fill="#959F9C"/><path d="M23.78 26.52c-.12.02-.18.07-.18.15l-.67-.33a.06.06 0 0 1-.04-.06v-.1a.06.06 0 0 1 .04-.06.06.06 0 0 1 .06 0c.24.19.5.32.79.4Z" fill="#7C8368"/><path d="M31.72 26.38c-.1.13-.1.28 0 .34.08.07.23.01.32-.11.1-.13.1-.28 0-.34-.09-.06-.23-.01-.32.11ZM30.87 26.77l.03.2c.01.1-.02.15-.12.17l-.41.09c-.09.02-.14-.02-.16-.1l-.06-.3c-.02-.06 0-.1.07-.1l1.14-.25a.1.1 0 0 1 .07.01.1.1 0 0 1 .05.06l.04.22c.02.05 0 .1-.05.12-.1.07-.22.1-.34.09-.06 0-.09-.04-.1-.1a.37.37 0 0 0-.07-.15c-.07-.07-.1-.06-.09.04ZM23.78 26.52c.21.13.44.2.67.21.18.02.3.1.36.24.03.06.06.06.1 0l.02-.05a.06.06 0 0 1 .06-.03l.58.02c.08 0 .12.04.13.1l.03.27c.02.09-.02.12-.1.1l-.58-.19a.3.3 0 0 1-.13-.08c-.06-.05-.15-.07-.28-.04a.26.26 0 0 1-.16-.02l-.88-.38c0-.08.06-.13.18-.15ZM29.8 26.75l-.2.05a.12.12 0 0 0-.1.15l.1.38c.01.07.08.1.15.09l.2-.05c.07-.02.11-.08.1-.15l-.1-.38a.12.12 0 0 0-.14-.09ZM29.24 26.87l-.8.1a.1.1 0 0 0-.07.1l.05.42c0 .05.05.09.1.08l.8-.1a.1.1 0 0 0 .08-.1l-.05-.42a.1.1 0 0 0-.1-.08ZM25.88 27.13c-.03-.1 0-.16.12-.15h.45c.05 0 .09.04.1.1l.03.3c.01.05-.02.09-.07.1-.33.08-.54-.04-.63-.35ZM27.93 26.94l-.13.04a.15.15 0 0 0-.1.18l.1.36c.03.07.1.12.19.1l.13-.04c.08-.03.13-.1.1-.18l-.1-.36a.15.15 0 0 0-.19-.1ZM27.52 27.03h-.73a.05.05 0 0 0-.05.05l.01.43c0 .03.02.05.05.05l.72-.01c.03 0 .05-.02.05-.05v-.43a.05.05 0 0 0-.05-.04Z" fill="#959F9C"/><path d="m29.16 40.58-1.01-3.46a.09.09 0 0 0-.06-.06l-.06-.02h-.02a.03.03 0 0 0-.02.02v.02c.28 1.4.63 2.37 1 3.56-.26.06-.51.09-.76.09-.65 0-1.45-.06-2.38-.17-.4-.05-1.22-.19-1.33-.67-.52-2.28-.86-3.81-1.02-4.6-.02-.09 0-.21.04-.36a.18.18 0 0 0-.02-.15c-.35-.57-.56-.96-.27-1.66a.08.08 0 0 1 .06-.05.09.09 0 0 1 .07.01 7.96 7.96 0 0 0 3.32 1.26c.06.01.09.04.07.1l-.02.05c0 .02-.02.03-.04.02a12.8 12.8 0 0 1-1.78-.24c-.06-.02-.1-.01-.12.01a.08.08 0 0 0-.03.06c0 .05.02.1.07.12.73.44 1.52.76 2.38.95.03.01.05.03.05.06l.02.12a.06.06 0 0 1-.02.06l-.03.01h-.03l-1.74-.55c-.04-.01-.06 0-.06.05l.01.06c.61.4 1.29.63 2.02.69.1 0 .32.12.66.35a.2.2 0 0 1 .09.12c.2.96.58 2.28 1.1 3.97.06.18 0 .26-.14.23Z" fill="#77B1A5"/><path d="M25.92 33.75c.03.1 0 .14-.11.12a.78.78 0 0 1-.5-.34.12.12 0 0 1 .08-.19c.24-.06.42.08.53.4Z" fill="#959F9C"/><path d="M31.55 34.88a.02.02 0 0 0 .01 0 .02.02 0 0 0 0-.02v-.04c0-.02-.02-.03-.03-.03-1.1.02-2.19 0-3.28-.04-.2-.01-.24-.13-.45-.1-.29.07-.5.06-.65-.01-.22-.12-.2-.2.04-.22.08 0 .25 0 .5.03.04 0 .08.03.1.05.07.07.15.07.25 0 .04-.03.1-.04.15-.04.96 0 1.91-.15 2.86-.46.4-.13.79-.32 1.17-.57.05-.03.08-.02.11.03.3.53.5.84.62.91.57.39 1.17.45 1.82.18a.08.08 0 0 1 .07.01.07.07 0 0 1 .03.06l-.18 6.13a.2.2 0 0 1-.05.13.2.2 0 0 1-.13.06c-1.58.12-3.44.05-4.9-.53a.32.32 0 0 1-.19-.21c-.3-1.15-.64-2.36-1-3.65-.01-.06 0-.2.03-.39.01-.05.04-.08.1-.09l1.79-.23c.04 0 .08-.03.1-.07a.34.34 0 0 0 .07-.14c0-.01 0-.03-.02-.04h-.03l-1.9-.13c-.16-.01-.23-.1-.23-.25v-.11c0-.13.07-.18.2-.17 1.04.07 2.05.05 3.02-.05Z" fill="#77B1A5"/><path d="M26.79 34.02c-.37.04-.6-.12-.7-.48-.02-.06 0-.09.06-.07l.42.1c.03 0 .06.02.08.04.02.03.04.06.04.09.01.1.05.18.12.24.05.04.04.07-.02.08ZM26.92 33.69a.07.07 0 0 1 .02-.05.07.07 0 0 1 .04-.03c.3-.02.47.12.51.42 0 .06-.02.09-.08.07l-.36-.08a.13.13 0 0 1-.1-.11l-.03-.22ZM30.06 33.6l-.18.03a.13.13 0 0 0-.11.15l.01.07c.02.07.09.12.16.1l.18-.02a.13.13 0 0 0 .11-.16l-.01-.07a.13.13 0 0 0-.16-.1ZM28.26 34c.02.1-.01.13-.11.13l-.39-.03c-.04 0-.07-.03-.07-.07l-.03-.26c0-.06.02-.09.07-.1.28-.05.46.05.53.33ZM29.02 34.09c-.04.04-.13.04-.29 0a.37.37 0 0 1-.21-.12c-.1-.1-.1-.2-.05-.27s.14-.08.27-.04c.08.03.14.08.2.16.08.14.1.23.08.27ZM29.2 33.66c.05-.05.13-.03.26.04.05.03.1.07.11.13.03.07.01.13-.04.18-.05.05-.11.05-.19.02a.24.24 0 0 1-.12-.12c-.06-.13-.07-.21-.02-.25Z" fill="#959F9C"/><path d="M35.47 34.83c.06.85.11 1.41.07 2.09a162.93 162.93 0 0 0-.2 3.66.1.1 0 0 1-.06.03h-.06c-.03 0-.05 0-.05-.04-.02-1.7-.05-3.4-.1-5.1-.01-.28-.09-.62-.1-.8 0-.06 0-.1.04-.14.15-.13.3-.22.46-.27a.12.12 0 0 1 .12.04.12.12 0 0 1 .02.12l-.12.29a.27.27 0 0 0-.02.12ZM26.84 34.86c.14.16.24.18.5.3.02 0 .02.01.02.03l-.02.05c0 .01 0 .02-.02.01l-1.8-.58h-.02l-.13-.14-.01-.03a.05.05 0 0 1 .06-.05l1.22.28c.08.02.15.06.2.13ZM28.16 34.9a.03.03 0 0 1 .03.01v.01l.01.02a.31.31 0 0 1-.07.34.3.3 0 0 1-.1.06H28a.31.31 0 0 1-.24 0 .32.32 0 0 1-.17-.17v-.03c0-.01 0-.02.02-.02l.54-.21Z" fill="#77B1A5"/><path d="M28.03 42.59c-.18-.03-.3.12-.44.12-.07 0-.1-.04-.12-.1a.17.17 0 0 0-.03-.08.19.19 0 0 0-.08-.06.23.23 0 0 0-.1-.02.25.25 0 0 0-.1.03c-.28.14-.5.12-.68-.04a.2.2 0 0 0-.15-.05c-.63.07-.82.13-1.46-.13a.1.1 0 0 1-.06-.07l-.56-1.75a.1.1 0 0 1 0-.07.1.1 0 0 1 .04-.04c.1-.06.2-.05.3.02.2.12.3.21.49.26 1.38.41 2.76.47 4.12.17.06-.01.1.01.1.07l.46 2.07v.03l-.02.01h-.02l-1.51-.04c-.06 0-.09-.03-.09-.08v-.14c0-.06-.02-.1-.09-.11ZM35.28 42.54l-2.88.42a2.03 2.03 0 0 0-1.06.06c-.5-.21-.92-.18-1.25.09l-.5-2.23a.1.1 0 0 1 .03-.1.11.11 0 0 1 .11-.02c.65.28 1.28.52 1.98.6 1 .11 2.02.06 3.06-.17a.3.3 0 0 0 .14-.07.42.42 0 0 1 .25-.13c.07 0 .1.02.09.1-.07.33-.01.63.17.9.03.05.04.1.04.15a.77.77 0 0 1-.18.4Z" fill="#9AD2B8"/><path d="M35.5 41.86c-.15-.25-.2-.52-.15-.81.01-.05.05-.09.1-.1l.16-.01a.1.1 0 0 1 .08.02.1.1 0 0 1 .04.07l.08 1.57c0 .03 0 .06-.02.09a.15.15 0 0 1-.06.05c-.1.05-.18.05-.23 0-.04-.03-.05-.07-.03-.13.13-.33.14-.58.03-.75Z" fill="#9AD2B8"/><path d="M35.28 42.54c.04.09.03.17 0 .24-.03.05-.1.1-.19.12-.34.1-.85.26-1.2.2-.21-.03-.34-.02-.48.1a.19.19 0 0 1-.3-.1l-.02-.07a.1.1 0 0 0-.06-.08.1.1 0 0 0-.1.03l-.28.27a.13.13 0 0 1-.1.04c-.13-.02-.18-.13-.15-.33l2.88-.42Z" fill="#7C8368"/><path d="M26.51 42.87h.03l.01.02.26.67c.11.28.2.56.25.77.05.2.05.33.01.35h-.03c-.02.02-.05 0-.09-.05a4.59 4.59 0 0 1-.47-.95l-.26-.67V43l.02-.02.27-.1Z" fill="#D1CAB6"/><path d="M26.93 45.62c.03.04.04.08.05.12 0 .04 0 .06-.04.07l-.06.02c-1.2.16-2.37.12-3.5-.11a.68.68 0 0 1-.49-.34c-.64-1.21-.1-2.15 1.2-2.4.38-.07.78.02 1.2.28.9.56 1.45 1.34 1.64 2.36Z" fill="#C8D5B9"/><path d="M27.13 43.05c.25.1.47.13.67.12.06 0 .12.02.18.08l.05.07c.02.05 0 .08-.05.1l-.7.2c-.05.03-.1 0-.11-.06l-.14-.42v-.04a.07.07 0 0 1 .06-.05h.04Z" fill="#A0773D"/><path d="M24.47 46.33c.23-.06.46-.1.7-.12l.69-.06 1.36-.15c.07 0 .16-.03.26-.08.09-.03.08-.05 0-.06l-.6-.03.06-.02c.03-.01.04-.03.04-.07a.33.33 0 0 0-.05-.12c.12-.03.17-.19.15-.47 0-.06.02-.1.07-.12.35-.2.2-.53.16-.9a.29.29 0 0 1 .23-.32 9.68 9.68 0 0 0 2.08-.6.1.1 0 0 1 .12.02c.08.09.21.18.4.26a.12.12 0 0 1 .07.13c-.05.3-.08.37-.35.49-.79.34-1.16.96-1.1 1.87 0 .06-.03.09-.09.09-.24 0-.58-.01-.9.07a9.4 9.4 0 0 1-3.3.2ZM34.52 44.13a.13.13 0 0 0 .12.04.13.13 0 0 0 .1-.08c.05-.12.03-.21-.05-.28-.16-.15-.44-.07-.63-.25-.05-.05-.05-.09 0-.1.04-.02.12-.01.24.01.06 0 .1 0 .16-.03.1-.06.4-.14.94-.24.04 0 .06 0 .07.05l.21 1.62c.01.06 0 .12-.05.17a.24.24 0 0 1-.16.1l-.37.05c-.06 0-.1.03-.14.09a3.5 3.5 0 0 1-1 1.08.17.17 0 0 1-.19-.09 6.7 6.7 0 0 0-1.27-1.6c-.06-.07-.07-.13-.01-.2a.17.17 0 0 1 .04-.05.2.2 0 0 1 .14-.01c.05.01.1.04.13.08.34.48.58.78.71.91.2.2.37.18.53-.04.23-.32-.15-1-.34-1.3a.07.07 0 0 1 0-.07.07.07 0 0 1 .04-.04c.32-.09.57-.03.78.18Z" fill="#A54A3E"/><path d="M33.49 44.9c.02.03.04.04.06 0l.07-.07v-.03l-.53-.88c-.22-.4-.17-.45.16-.12.34.35.57.69.67 1.03.16.48.02.6-.4.34-.14-.09-.29-.32-.44-.69a.3.3 0 0 0-.11-.14 2 2 0 0 1-.57-.5c-.06-.08-.04-.12.06-.12h.13c.1 0 .17.05.2.15.04.1.13.21.27.31.05.04.09.08.11.13l.32.59Z" fill="#A0773D"/><path d="M31.19 44.03A1.53 1.53 0 0 1 31 44a.08.08 0 0 1-.05-.07.08.08 0 0 1 .03-.07c.35-.17.74-.17 1.16 0 .15.06.22.17.22.32v.09c-.01.14-.08.17-.2.1-.36-.19-.69-.3-.98-.34Z" fill="#A54A3E"/><path d="m29.33 46.46-.18.05c-.32-.73-.2-1.5.54-1.9.48-.26 1-.34 1.54-.26 1.04.16 1.84 1.09 2.37 1.96.02.05.01.08-.03.1-1.18.55-3.05.6-4.24.05Z" fill="#D1CAB6"/><path d="m29.15 46.51.18-.05c.1.18.26.3.5.36 1.27.3 2.5.24 3.7-.2.22-.07.6-.04.73-.16.44-.39.8-.71 1.05-.97.1-.1.15-.12.17-.1a.2.2 0 0 1 .05.1v.1c-.02.03-.03.07-.06.1a97.7 97.7 0 0 1-.5.34c-.1.05-.18.18-.27.38-.7 1.69-3.99 1.21-5.16.7-.19-.09-.32-.29-.4-.6Z" fill="#C8D5B9"/><path d="M32.88 12.02a14.22 14.22 0 0 0-.47 1.31.04.04 0 0 1-.03 0c-.03-.02-.05-.05-.04-.1a4.47 4.47 0 0 1 .98-2.46c.03-.03.06-.05.1-.04a.04.04 0 0 1 .02.02.04.04 0 0 1 0 .03c-.2.4-.4.82-.56 1.24ZM29.7 14.52a2.58 2.58 0 0 0-1.38.16c-.13.05-.2 0-.2-.13l.01-.07a.32.32 0 0 1 .23-.3c.73-.22 2.31-.27 2.8.42.12.2.07.26-.15.2l-1.3-.28ZM26.32 16.46c-.24-.26-.32-.53-.26-.83.01-.06-.01-.1-.07-.1a.97.97 0 0 0-.39.01.13.13 0 0 0-.1.12c0 .07.02.17.09.31-.2 0-.28-.12-.27-.37.02-.28.23-.42.27-.7a.12.12 0 0 0-.04-.1.12.12 0 0 0-.12-.03l-.41.13c-.1.02-.13-.01-.13-.1v-.06a.23.23 0 0 1 .13-.2 1.96 1.96 0 0 1 1.85-.04c.12.06.2.16.25.29l.04.13a.1.1 0 0 1-.03.1.1.1 0 0 1-.1 0c-.45-.23-.86-.29-1.22-.17a.18.18 0 0 0-.11.16v.06c0 .07.02.1.1.09.43-.04.86.02 1.27.2.05.02.08.06.1.11.08.33.07.57-.03.72-.16.27-.44.36-.82.27ZM29.32 16.33a1.3 1.3 0 0 1-.1-.66c0-.05-.01-.09-.07-.1a.8.8 0 0 0-.36-.05.53.53 0 0 1-.45-.01.12.12 0 0 1-.06-.11.11.11 0 0 1 .08-.1l.17-.05c.06-.02.1-.06.11-.13.03-.16.09-.26.17-.3.07-.05.11-.04.12.04a.8.8 0 0 1-.08.26c-.03.06 0 .1.06.1.83 0 1.98-.08 1.8.97-.03.23-.1.24-.18.02l-.09-.24c-.08-.2-.15-.2-.2.01l-.12.42a.2.2 0 0 1-.1.12c-.32.18-.55.12-.7-.19Z" fill="#010100"/><path d="M26.32 16.46c-.3.1-.55-.07-.73-.49a.65.65 0 0 1-.1-.31l.04-.08a.14.14 0 0 1 .07-.04.97.97 0 0 1 .39-.01c.06 0 .08.04.07.1-.06.3.02.57.26.83ZM29.32 16.33c-.16.1-.34.06-.53-.13a.17.17 0 0 1-.05-.14l.05-.54a.8.8 0 0 1 .36.04c.06.02.08.06.07.11-.02.21 0 .43.1.66Z" fill="#D1CAB6"/><path d="M29.98 22.62a1.2 1.2 0 0 1-.1-.2c-.06-.17-.02-.2.14-.12l.9.5c.03.02.05.04.06.08.02.06 0 .1-.05.11-.13.04-.31-.02-.47-.05a.2.2 0 0 0-.15.03 7.93 7.93 0 0 1-4.16 1.31.08.08 0 0 1-.03-.05v-.05c-.02-.08.02-.13.1-.14a11.02 11.02 0 0 0 3.75-1.3.1.1 0 0 0 .02-.08.1.1 0 0 0 0-.04ZM27.03 25.18c.58.04 1.22-.1 1.77-.33.07-.02.12 0 .14.07V25c0 .05-.02.1-.05.14a.21.21 0 0 1-.1.08c-.72.27-1.33.3-1.8.11-.3-.12-.28-.17.04-.15ZM34.13 30.6v-.02a.03.03 0 0 1 .02-.02l.07-.03c.23-.08.44-.16.6-.2.16-.05.25-.07.26-.05l.03.08c0 .01-.01.03-.05.05l-.17.09a6.91 6.91 0 0 1-.59.23l-.08.03a.03.03 0 0 1-.02 0l-.01-.01-.06-.16Z" fill="#010100"/></svg>