<?xml version="1.0" standalone="no"?>
<!DOCTYPE svg PUBLIC "-//W3C//DTD SVG 20010904//EN"
 "http://www.w3.org/TR/2001/REC-SVG-20010904/DTD/svg10.dtd">
<svg version="1.0" xmlns="http://www.w3.org/2000/svg"
 width="250.000000pt" height="250.000000pt" viewBox="0 0 250.000000 250.000000"
 preserveAspectRatio="xMidYMid meet">

<g transform="translate(0.000000,250.000000) scale(0.100000,-0.100000)"
fill="#000000" stroke="none">
<path d="M209 2483 c-75 -25 -139 -80 -176 -152 l-33 -63 0 -1026 c0 -999 1
-1028 20 -1070 30 -67 57 -100 113 -137 l52 -35 1063 0 c1028 0 1064 1 1100
19 47 25 104 84 131 138 21 42 21 45 21 1083 l0 1041 -24 47 c-29 58 -92 116
-155 146 -46 21 -48 21 -1056 23 -890 2 -1015 0 -1056 -14z m1487 -338 c61
-30 118 -89 147 -154 16 -35 21 -65 21 -126 -1 -90 -14 -127 -69 -199 l-36
-48 30 -47 c17 -25 42 -77 56 -114 l25 -67 -170 0 c-94 0 -170 4 -170 8 0 23
-77 94 -132 121 -123 62 -280 33 -372 -69 -58 -65 -80 -121 -80 -211 -1 -68 3
-83 34 -145 111 -217 413 -232 547 -27 15 23 19 23 175 23 l161 0 -7 -32 c-24
-125 -167 -301 -301 -370 -110 -57 -174 -72 -300 -72 -97 0 -120 4 -195 30
-106 37 -181 86 -258 168 -69 74 -105 134 -137 232 -114 337 92 710 440 799
32 8 76 15 97 15 35 0 37 2 43 38 23 135 93 219 218 264 69 25 162 18 233 -17z"/>
</g>
</svg>
