<?xml version="1.0" encoding="UTF-8"?>
<!DOCTYPE svg PUBLIC "-//W3C//DTD SVG 1.1//EN" "http://www.w3.org/Graphics/SVG/1.1/DTD/svg11.dtd">
<svg xmlns="http://www.w3.org/2000/svg" version="1.1" width="64px" height="64px" style="shape-rendering:geometricPrecision; text-rendering:geometricPrecision; image-rendering:optimizeQuality; fill-rule:evenodd; clip-rule:evenodd" xmlns:xlink="http://www.w3.org/1999/xlink">
<g><path style="opacity:0.999" fill="#1c1c22" d="M 8.5,-0.5 C 23.8333,-0.5 39.1667,-0.5 54.5,-0.5C 58.5,1.5 61.5,4.5 63.5,8.5C 63.5,23.8333 63.5,39.1667 63.5,54.5C 61.5,58.5 58.5,61.5 54.5,63.5C 39.1667,63.5 23.8333,63.5 8.5,63.5C 4.5,61.5 1.5,58.5 -0.5,54.5C -0.5,39.1667 -0.5,23.8333 -0.5,8.5C 1.5,4.5 4.5,1.5 8.5,-0.5 Z"/></g>
<g><path style="opacity:1" fill="#fefffe" d="M 30.5,10.5 C 32.337,10.6395 32.6704,11.3061 31.5,12.5C 30.7025,12.0431 30.3691,11.3764 30.5,10.5 Z"/></g>
<g><path style="opacity:1" fill="#f9f9f9" d="M 26.5,12.5 C 29.1368,14.1538 28.8034,14.6538 25.5,14C 26.056,13.6174 26.3893,13.1174 26.5,12.5 Z"/></g>
<g><path style="opacity:1" fill="#d7d7d8" d="M 34.5,12.5 C 37.2933,12.74 37.7933,13.74 36,15.5C 34.9614,14.7562 34.4614,13.7562 34.5,12.5 Z"/></g>
<g><path style="opacity:1" fill="#fefffe" d="M 21.5,15.5 C 23.337,15.6395 23.6704,16.3061 22.5,17.5C 21.7025,17.0431 21.3691,16.3764 21.5,15.5 Z"/></g>
<g><path style="opacity:1" fill="#f7f7f7" d="M 38.5,16.5 C 39.3864,15.2241 40.3864,15.2241 41.5,16.5C 40.5754,17.5624 39.5754,17.5624 38.5,16.5 Z"/></g>
<g><path style="opacity:1" fill="#d9d9da" d="M 17.5,17.5 C 19.9732,17.9473 20.1399,18.9473 18,20.5C 16.2716,19.6477 16.105,18.6477 17.5,17.5 Z"/></g>
<g><path style="opacity:1" fill="#dededf" d="M 43.5,17.5 C 45.2252,17.8425 45.7252,18.8425 45,20.5C 43.9614,19.7562 43.4614,18.7562 43.5,17.5 Z"/></g>
<g><path style="opacity:1" fill="#fdfdfd" d="M 13.5,20.5 C 15.337,20.6395 15.6704,21.3061 14.5,22.5C 13.7025,22.0431 13.3691,21.3764 13.5,20.5 Z"/></g>
<g><path style="opacity:1" fill="#fefffe" d="M 47.5,20.5 C 49.337,20.6395 49.6704,21.3061 48.5,22.5C 47.7025,22.0431 47.3691,21.3764 47.5,20.5 Z"/></g>
<g><path style="opacity:1" fill="#e6e6e6" d="M 17.5,22.5 C 18.6266,23.1217 19.6266,23.955 20.5,25C 18.5106,25.5192 17.5106,24.6859 17.5,22.5 Z"/></g>
<g><path style="opacity:1" fill="#e6e6e7" d="M 44.5,22.5 C 45.7375,23.7434 45.4041,24.7434 43.5,25.5C 43.1667,25.1667 42.8333,24.8333 42.5,24.5C 43.2427,23.8182 43.9094,23.1515 44.5,22.5 Z"/></g>
<g><path style="opacity:1" fill="#fefefe" d="M 22.5,27.5 C 23.3864,26.2241 24.3864,26.2241 25.5,27.5C 24.5754,28.5624 23.5754,28.5624 22.5,27.5 Z"/></g>
<g><path style="opacity:1" fill="#fdfdfd" d="M 37.5,26.5 C 40.7973,26.3287 41.1306,26.9954 38.5,28.5C 37.7025,28.0431 37.3691,27.3764 37.5,26.5 Z"/></g>
<g><path style="opacity:1" fill="#f6f6f6" d="M 27.5,28.5 C 30.1505,28.9576 30.6505,29.9576 29,31.5C 27.9614,30.7562 27.4614,29.7562 27.5,28.5 Z"/></g>
<g><path style="opacity:1" fill="#e0e0e1" d="M 33.5,28.5 C 36.0118,29.2162 36.0118,30.2162 33.5,31.5C 32.4376,30.5754 32.4376,29.5754 33.5,28.5 Z"/></g>
<g><path style="opacity:1" fill="#fefffe" d="M 30.5,32.5 C 32.337,32.6395 32.6704,33.3061 31.5,34.5C 30.7025,34.0431 30.3691,33.3764 30.5,32.5 Z"/></g>
<g><path style="opacity:1" fill="#fefffe" d="M 30.5,36.5 C 32.4646,36.9483 32.7979,37.9483 31.5,39.5C 30.6143,38.675 30.281,37.675 30.5,36.5 Z"/></g>
<g><path style="opacity:1" fill="#fefffe" d="M 13.5,40.5 C 14.2891,40.7828 14.9558,41.2828 15.5,42C 14.184,42.5281 13.5173,42.0281 13.5,40.5 Z"/></g>
<g><path style="opacity:1" fill="#fefffe" d="M 48.5,40.5 C 49.7733,41.0768 49.7733,41.7435 48.5,42.5C 47.537,42.0302 47.537,41.3635 48.5,40.5 Z"/></g>
<g><path style="opacity:1" fill="#fefffe" d="M 30.5,41.5 C 32.337,41.6395 32.6704,42.3061 31.5,43.5C 30.7025,43.0431 30.3691,42.3764 30.5,41.5 Z"/></g>
<g><path style="opacity:1" fill="#fdfdfd" d="M 17.5,43.5 C 19.337,43.6395 19.6704,44.3061 18.5,45.5C 17.7025,45.0431 17.3691,44.3764 17.5,43.5 Z"/></g>
<g><path style="opacity:1" fill="#e4e4e5" d="M 43.5,43.5 C 46.7973,43.3287 47.1306,43.9954 44.5,45.5C 43.7025,45.0431 43.3691,44.3764 43.5,43.5 Z"/></g>
<g><path style="opacity:1" fill="#f8f8f8" d="M 21.5,45.5 C 23.9828,45.73 24.4828,46.3966 23,47.5C 21.9701,47.1639 21.4701,46.4972 21.5,45.5 Z"/></g>
<g><path style="opacity:1" fill="#e6e6e6" d="M 30.5,45.5 C 32.4646,45.9483 32.7979,46.9483 31.5,48.5C 30.6143,47.675 30.281,46.675 30.5,45.5 Z"/></g>
<g><path style="opacity:1" fill="#eaeaeb" d="M 39.5,45.5 C 40.3764,45.3691 41.0431,45.7025 41.5,46.5C 39.1916,47.8734 38.5249,47.5401 39.5,45.5 Z"/></g>
<g><path style="opacity:1" fill="#f1f1f2" d="M 25.5,49.5 C 26.3864,48.2241 27.3864,48.2241 28.5,49.5C 27.5754,50.5624 26.5754,50.5624 25.5,49.5 Z"/></g>
<g><path style="opacity:1" fill="#fefffe" d="M 34.5,49.5 C 35.2506,48.4265 36.2506,48.2599 37.5,49C 36.6477,50.7284 35.6477,50.895 34.5,49.5 Z"/></g>
<g><path style="opacity:1" fill="#fefffe" d="M 30.5,50.5 C 32.337,50.6395 32.6704,51.3061 31.5,52.5C 30.7025,52.0431 30.3691,51.3764 30.5,50.5 Z"/></g>
</svg>
