<?xml version="1.0" encoding="UTF-8"?>
<!DOCTYPE svg PUBLIC "-//W3C//DTD SVG 1.1//EN" "http://www.w3.org/Graphics/SVG/1.1/DTD/svg11.dtd">
<svg xmlns="http://www.w3.org/2000/svg" version="1.1" width="64px" height="64px" style="shape-rendering:geometricPrecision; text-rendering:geometricPrecision; image-rendering:optimizeQuality; fill-rule:evenodd; clip-rule:evenodd" xmlns:xlink="http://www.w3.org/1999/xlink">
<g><path style="opacity:1" fill="#121212" d="M -0.5,-0.5 C 20.8333,-0.5 42.1667,-0.5 63.5,-0.5C 63.5,20.8333 63.5,42.1667 63.5,63.5C 42.1667,63.5 20.8333,63.5 -0.5,63.5C -0.5,42.1667 -0.5,20.8333 -0.5,-0.5 Z"/></g>
<g><path style="opacity:1" fill="#f88e11" d="M 30.5,7.5 C 38.0158,10.842 45.1824,14.842 52,19.5C 52.6667,27.5 52.6667,35.5 52,43.5C 45.1676,47.2484 38.5009,51.2484 32,55.5C 24.6648,51.6679 17.6648,47.3345 11,42.5C 10.3333,34.8333 10.3333,27.1667 11,19.5C 17.672,15.6368 24.172,11.6368 30.5,7.5 Z"/></g>
<g><path style="opacity:1" fill="#131212" d="M 30.5,12.5 C 36.1859,15.0942 41.6859,18.0942 47,21.5C 47.8309,28.1915 47.6642,34.8582 46.5,41.5C 41.6219,44.4384 36.6219,47.1051 31.5,49.5C 26.3781,47.1051 21.3781,44.4384 16.5,41.5C 15.1667,34.8333 15.1667,28.1667 16.5,21.5C 21.2314,18.4758 25.8981,15.4758 30.5,12.5 Z"/></g>
<g><path style="opacity:1" fill="#fa8f11" d="M 29.5,17.5 C 34.4779,18.8199 39.1446,20.9865 43.5,24C 43,24.5 42.5,25 42,25.5C 38.6287,23.3001 35.1287,21.3001 31.5,19.5C 28.6612,21.4203 25.6612,23.0869 22.5,24.5C 21.3391,28.7953 21.1725,33.1287 22,37.5C 24.5864,39.5448 27.4198,41.2115 30.5,42.5C 31.5827,43.365 31.7494,44.365 31,45.5C 27.6287,43.3001 24.1287,41.3001 20.5,39.5C 19.1667,34.1667 19.1667,28.8333 20.5,23.5C 23.7376,21.7247 26.7376,19.7247 29.5,17.5 Z"/></g>
<g><path style="opacity:1" fill="#fd9111" d="M 41.5,26.5 C 42.8048,28.3972 43.4714,30.7305 43.5,33.5C 43.1667,35.8333 42.8333,38.1667 42.5,40.5C 39.7489,42.2927 36.9156,43.9594 34,45.5C 33.3333,40.8333 33.3333,36.1667 34,31.5C 36.8239,30.1819 39.3239,28.5152 41.5,26.5 Z"/></g>
</svg>
