<?xml version="1.0" encoding="UTF-8"?>
<!DOCTYPE svg PUBLIC "-//W3C//DTD SVG 1.1//EN" "http://www.w3.org/Graphics/SVG/1.1/DTD/svg11.dtd">
<svg xmlns="http://www.w3.org/2000/svg" version="1.1" width="64px" height="64px" style="shape-rendering:geometricPrecision; text-rendering:geometricPrecision; image-rendering:optimizeQuality; fill-rule:evenodd; clip-rule:evenodd" xmlns:xlink="http://www.w3.org/1999/xlink">
<g><path style="opacity:1" fill="#00f5fe" d="M -0.5,-0.5 C 20.8333,-0.5 42.1667,-0.5 63.5,-0.5C 63.5,20.8333 63.5,42.1667 63.5,63.5C 42.1667,63.5 20.8333,63.5 -0.5,63.5C -0.5,42.1667 -0.5,20.8333 -0.5,-0.5 Z"/></g>
<g><path style="opacity:1" fill="#010303" d="M 31.5,7.5 C 34.6743,11.3414 37.0076,15.8414 38.5,21C 36.6734,23.6576 34.6734,26.1576 32.5,28.5C 30.7134,26.1416 29.7134,23.475 29.5,20.5C 26.1501,20.665 22.8168,20.4983 19.5,20C 23.7036,15.9644 27.7036,11.7978 31.5,7.5 Z"/></g>
<g><path style="opacity:1" fill="#000000" d="M 6.5,23.5 C 13.5316,23.1697 20.5316,23.503 27.5,24.5C 28.9597,27.0289 29.4597,29.6956 29,32.5C 26.8333,34.6667 24.6667,36.8333 22.5,39C 18.7887,39.8253 15.122,39.6586 11.5,38.5C 9.22876,33.6863 7.56209,28.6863 6.5,23.5 Z"/></g>
<g><path style="opacity:1" fill="#000000" d="M 40.5,23.5 C 44.226,23.1774 47.8927,23.5108 51.5,24.5C 53.7712,29.3137 55.4379,34.3137 56.5,39.5C 49.4684,39.8303 42.4684,39.497 35.5,38.5C 34.0403,35.9711 33.5403,33.3044 34,30.5C 36.3722,28.2968 38.5389,25.9635 40.5,23.5 Z"/></g>
<g><path style="opacity:1" fill="#000202" d="M 29.5,34.5 C 31.8373,36.5066 33.1706,39.1733 33.5,42.5C 36.8499,42.335 40.1832,42.5017 43.5,43C 39.5,47 35.5,51 31.5,55C 30.6683,55.6877 30.0016,55.521 29.5,54.5C 27.6949,50.3897 26.0283,46.223 24.5,42C 26.3735,39.6286 28.0402,37.1286 29.5,34.5 Z"/></g>
</svg>
