<?xml version="1.0" encoding="UTF-8"?>
<!DOCTYPE svg PUBLIC "-//W3C//DTD SVG 1.1//EN" "http://www.w3.org/Graphics/SVG/1.1/DTD/svg11.dtd">
<svg xmlns="http://www.w3.org/2000/svg" version="1.1" width="64px" height="64px" style="shape-rendering:geometricPrecision; text-rendering:geometricPrecision; image-rendering:optimizeQuality; fill-rule:evenodd; clip-rule:evenodd" xmlns:xlink="http://www.w3.org/1999/xlink">
<g><path style="opacity:0.996" fill="#e4333f" d="M 25.5,-0.5 C 29.8333,-0.5 34.1667,-0.5 38.5,-0.5C 51.6068,3.60629 59.9401,12.273 63.5,25.5C 63.5,29.5 63.5,33.5 63.5,37.5C 59.8333,51.1667 51.1667,59.8333 37.5,63.5C 33.5,63.5 29.5,63.5 25.5,63.5C 11.8333,59.8333 3.16667,51.1667 -0.5,37.5C -0.5,33.1667 -0.5,28.8333 -0.5,24.5C 3.60629,11.3932 12.273,3.05986 25.5,-0.5 Z"/></g>
<g><path style="opacity:1" fill="#fefdfd" d="M 30.5,8.5 C 32.0744,8.93709 33.2411,9.93709 34,11.5C 35.4545,14.9121 37.2879,18.0788 39.5,21C 35.7897,22.2243 33.1231,21.0576 31.5,17.5C 29.8769,21.0576 27.2103,22.2243 23.5,21C 26.2376,17.0212 28.571,12.8546 30.5,8.5 Z"/></g>
<g><path style="opacity:1" fill="#fefdfc" d="M 15.5,23.5 C 20.5,23.5 25.5,23.5 30.5,23.5C 30.5,26.1667 30.5,28.8333 30.5,31.5C 29.1667,31.5 27.8333,31.5 26.5,31.5C 26.5,30.5 26.5,29.5 26.5,28.5C 23.1501,28.335 19.8168,28.5017 16.5,29C 18.6921,32.6922 21.6921,35.5255 25.5,37.5C 26.8415,35.9951 28.5082,35.3285 30.5,35.5C 30.8256,39.8839 30.4922,44.2172 29.5,48.5C 22.2961,42.4758 16.1295,35.8091 11,28.5C 12.7073,26.9625 14.2073,25.2959 15.5,23.5 Z"/></g>
<g><path style="opacity:1" fill="#fefdfc" d="M 32.5,23.5 C 37.5111,23.3341 42.5111,23.5007 47.5,24C 49,25.5 50.5,27 52,28.5C 52.3483,30.9227 51.1817,31.9227 48.5,31.5C 47.5,31.1667 46.5,30.8333 45.5,30.5C 45.7093,29.914 46.0426,29.414 46.5,29C 43.1832,28.5017 39.8499,28.335 36.5,28.5C 36.1826,31.5719 36.5159,34.5719 37.5,37.5C 39.5098,35.8287 41.8431,35.162 44.5,35.5C 42.0136,40.6676 38.347,45.0009 33.5,48.5C 32.5021,40.1932 32.1688,31.8599 32.5,23.5 Z"/></g>
<g><path style="opacity:1" fill="#fefbfa" d="M 13.5,37.5 C 17.2739,37.4836 18.2739,39.1503 16.5,42.5C 20.268,42.8818 23.268,44.5485 25.5,47.5C 19.8333,48.8333 14.1667,48.8333 8.5,47.5C 10.705,44.4234 12.3716,41.0901 13.5,37.5 Z"/></g>
<g><path style="opacity:1" fill="#fefbfa" d="M 46.5,37.5 C 47.675,37.281 48.675,37.6143 49.5,38.5C 50.9131,41.6612 52.5797,44.6612 54.5,47.5C 48.8333,48.8333 43.1667,48.8333 37.5,47.5C 39.732,44.5485 42.732,42.8818 46.5,42.5C 45.1854,40.8014 45.1854,39.1347 46.5,37.5 Z"/></g>
</svg>
