<?xml version="1.0" encoding="UTF-8"?>
<!DOCTYPE svg PUBLIC "-//W3C//DTD SVG 1.1//EN" "http://www.w3.org/Graphics/SVG/1.1/DTD/svg11.dtd">
<svg xmlns="http://www.w3.org/2000/svg" version="1.1" width="64px" height="64px" style="shape-rendering:geometricPrecision; text-rendering:geometricPrecision; image-rendering:optimizeQuality; fill-rule:evenodd; clip-rule:evenodd" xmlns:xlink="http://www.w3.org/1999/xlink">
<g><path style="opacity:1" fill="#d25435" d="M -0.5,-0.5 C 20.8333,-0.5 42.1667,-0.5 63.5,-0.5C 63.5,20.8333 63.5,42.1667 63.5,63.5C 61.5,63.5 59.5,63.5 57.5,63.5C 56.9782,60.4318 56.1449,57.4318 55,54.5C 52.5794,50.9291 50.4127,47.2625 48.5,43.5C 50.2572,42.708 51.5905,41.3747 52.5,39.5C 50.0415,35.2038 49.0415,30.5371 49.5,25.5C 49.5,24.8333 49.5,24.1667 49.5,23.5C 49.7208,20.9028 50.2208,20.9028 51,23.5C 52.8068,21.294 52.9735,18.9606 51.5,16.5C 50.5,14.8333 49.1667,13.5 47.5,12.5C 45.3032,11.1554 42.9698,9.98877 40.5,9C 36.9733,8.1925 33.6399,8.35916 30.5,9.5C 22.6796,10.4837 22.6796,11.3171 30.5,12C 27.8333,12.3333 25.1667,12.6667 22.5,13C 23.1667,13.3333 23.8333,13.6667 24.5,14C 21.0365,14.1174 18.0365,15.2841 15.5,17.5C 13.3342,20.3324 13.3342,23.1657 15.5,26C 14.6634,27.0113 14.33,28.1779 14.5,29.5C 10.8998,30.1795 11.2332,31.0128 15.5,32C 14.6138,33.6147 13.6138,35.1147 12.5,36.5C 8.68125,38.1228 8.68125,39.6228 12.5,41C 6.5877,47.2302 3.92103,54.7302 4.5,63.5C 2.83333,63.5 1.16667,63.5 -0.5,63.5C -0.5,42.1667 -0.5,20.8333 -0.5,-0.5 Z"/></g>
<g><path style="opacity:1" fill="#fcb500" d="M 30.5,9.5 C 35.2106,10.4586 39.544,12.2919 43.5,15C 44.7112,15.8928 44.7112,16.7261 43.5,17.5C 41.677,16.2528 39.677,15.5861 37.5,15.5C 36.0825,13.2918 34.0825,12.4585 31.5,13C 33.0664,13.6082 34.3998,14.4415 35.5,15.5C 32.2011,14.6239 28.8678,14.4572 25.5,15C 27.9494,15.7246 30.2827,16.7246 32.5,18C 26.8431,18.4994 21.1764,18.6661 15.5,18.5C 15.5,18.1667 15.5,17.8333 15.5,17.5C 18.0365,15.2841 21.0365,14.1174 24.5,14C 23.8333,13.6667 23.1667,13.3333 22.5,13C 25.1667,12.6667 27.8333,12.3333 30.5,12C 22.6796,11.3171 22.6796,10.4837 30.5,9.5 Z"/></g>
<g><path style="opacity:1" fill="#755510" d="M 37.5,15.5 C 36.8333,15.5 36.1667,15.5 35.5,15.5C 34.3998,14.4415 33.0664,13.6082 31.5,13C 34.0825,12.4585 36.0825,13.2918 37.5,15.5 Z"/></g>
<g><path style="opacity:1" fill="#442a10" d="M 47.5,12.5 C 49.1667,13.5 50.5,14.8333 51.5,16.5C 50.8826,16.6107 50.3826,16.944 50,17.5C 48.9055,15.9221 48.0722,14.2554 47.5,12.5 Z"/></g>
<g><path style="opacity:1" fill="#c48b05" d="M 30.5,9.5 C 33.6399,8.35916 36.9733,8.1925 40.5,9C 42.9698,9.98877 45.3032,11.1554 47.5,12.5C 48.0722,14.2554 48.9055,15.9221 50,17.5C 50.3826,16.944 50.8826,16.6107 51.5,16.5C 52.9735,18.9606 52.8068,21.294 51,23.5C 50.2208,20.9028 49.7208,20.9028 49.5,23.5C 48.8333,22.8333 48.1667,22.1667 47.5,21.5C 47.6495,20.448 47.4828,19.448 47,18.5C 45.2041,19.767 43.3707,19.767 41.5,18.5C 40.7348,19.6119 39.7348,20.2786 38.5,20.5C 36.059,19.2437 33.7257,19.2437 31.5,20.5C 29.4428,21.892 27.1094,22.5587 24.5,22.5C 22.9549,22.4892 21.6216,22.1558 20.5,21.5C 19.6819,20.0625 18.0152,19.0625 15.5,18.5C 21.1764,18.6661 26.8431,18.4994 32.5,18C 30.2827,16.7246 27.9494,15.7246 25.5,15C 28.8678,14.4572 32.2011,14.6239 35.5,15.5C 36.1667,15.5 36.8333,15.5 37.5,15.5C 39.677,15.5861 41.677,16.2528 43.5,17.5C 44.7112,16.7261 44.7112,15.8928 43.5,15C 39.544,12.2919 35.2106,10.4586 30.5,9.5 Z"/></g>
<g><path style="opacity:1" fill="#ba9d99" d="M 38.5,20.5 C 40.631,21.3138 42.9644,21.8138 45.5,22C 46.056,22.3826 46.3893,22.8826 46.5,23.5C 41.1331,24.7443 35.7998,24.2443 30.5,22C 31.056,21.6174 31.3893,21.1174 31.5,20.5C 33.7257,19.2437 36.059,19.2437 38.5,20.5 Z"/></g>
<g><path style="opacity:1" fill="#67574f" d="M 47.5,21.5 C 47.6716,22.4916 47.3382,23.1583 46.5,23.5C 46.3893,22.8826 46.056,22.3826 45.5,22C 42.9644,21.8138 40.631,21.3138 38.5,20.5C 39.7348,20.2786 40.7348,19.6119 41.5,18.5C 43.3707,19.767 45.2041,19.767 47,18.5C 47.4828,19.448 47.6495,20.448 47.5,21.5 Z"/></g>
<g><path style="opacity:1" fill="#141311" d="M 31.5,20.5 C 31.3893,21.1174 31.056,21.6174 30.5,22C 35.7998,24.2443 41.1331,24.7443 46.5,23.5C 47.3382,23.1583 47.6716,22.4916 47.5,21.5C 48.1667,22.1667 48.8333,22.8333 49.5,23.5C 49.5,24.1667 49.5,24.8333 49.5,25.5C 48.7611,25.369 48.0944,25.5357 47.5,26C 48.5171,27.0495 48.6838,28.2161 48,29.5C 47.6667,29.1667 47.3333,28.8333 47,28.5C 43.2072,31.3657 40.7072,30.3657 39.5,25.5C 38.5905,27.3747 37.2572,28.708 35.5,29.5C 32.6737,29.0023 30.3403,27.6689 28.5,25.5C 28.0296,24.3065 27.0296,23.6399 25.5,23.5C 21.7324,24.321 21.7324,25.321 25.5,26.5C 24.4955,27.6828 23.6622,29.0161 23,30.5C 22.8171,33.3647 22.3171,36.0314 21.5,38.5C 21.7232,33.1481 20.3898,28.3147 17.5,24C 18.3734,22.955 19.3734,22.1217 20.5,21.5C 21.6216,22.1558 22.9549,22.4892 24.5,22.5C 27.1094,22.5587 29.4428,21.892 31.5,20.5 Z"/></g>
<g><path style="opacity:1" fill="#cd9100" d="M 28.5,25.5 C 27.391,25.5569 26.391,25.8902 25.5,26.5C 21.7324,25.321 21.7324,24.321 25.5,23.5C 27.0296,23.6399 28.0296,24.3065 28.5,25.5 Z"/></g>
<g><path style="opacity:1" fill="#917065" d="M 28.5,25.5 C 30.3403,27.6689 32.6737,29.0023 35.5,29.5C 35.5,30.8333 35.5,32.1667 35.5,33.5C 34.828,34.2674 33.9947,34.9341 33,35.5C 32.7641,37.8113 31.9307,39.8113 30.5,41.5C 28.4086,41.6816 26.4086,41.3482 24.5,40.5C 22.828,43.799 22.4946,47.1323 23.5,50.5C 21.597,50.2041 19.9303,49.5375 18.5,48.5C 18.5,47.5 18.5,46.5 18.5,45.5C 18.6878,42.7939 19.6878,40.4605 21.5,38.5C 22.3171,36.0314 22.8171,33.3647 23,30.5C 23.6622,29.0161 24.4955,27.6828 25.5,26.5C 26.391,25.8902 27.391,25.5569 28.5,25.5 Z"/></g>
<g><path style="opacity:1" fill="#b49894" d="M 49.5,25.5 C 49.0415,30.5371 50.0415,35.2038 52.5,39.5C 51.5905,41.3747 50.2572,42.708 48.5,43.5C 47.2058,44.2899 46.0391,45.2899 45,46.5C 44.5488,44.0712 43.7155,43.9045 42.5,46C 43.056,46.3826 43.3893,46.8826 43.5,47.5C 42.791,48.404 41.791,48.7373 40.5,48.5C 40.1667,48.5 39.8333,48.5 39.5,48.5C 38.1667,48.5 36.8333,48.5 35.5,48.5C 34.6993,46.9582 34.366,45.2915 34.5,43.5C 35.8333,43.5 37.1667,43.5 38.5,43.5C 38.3601,41.8762 39.0267,40.7096 40.5,40C 39.2683,37.3594 37.6016,35.1927 35.5,33.5C 35.5,32.1667 35.5,30.8333 35.5,29.5C 37.2572,28.708 38.5905,27.3747 39.5,25.5C 40.7072,30.3657 43.2072,31.3657 47,28.5C 47.3333,28.8333 47.6667,29.1667 48,29.5C 48.6838,28.2161 48.5171,27.0495 47.5,26C 48.0944,25.5357 48.7611,25.369 49.5,25.5 Z"/></g>
<g><path style="opacity:1" fill="#b29792" d="M 15.5,17.5 C 15.5,17.8333 15.5,18.1667 15.5,18.5C 18.0152,19.0625 19.6819,20.0625 20.5,21.5C 19.3734,22.1217 18.3734,22.955 17.5,24C 20.3898,28.3147 21.7232,33.1481 21.5,38.5C 19.6878,40.4605 18.6878,42.7939 18.5,45.5C 13.3157,43.6373 13.3157,41.804 18.5,40C 16.5,39.6667 14.5,39.3333 12.5,39C 13.5981,38.2303 13.5981,37.397 12.5,36.5C 13.6138,35.1147 14.6138,33.6147 15.5,32C 11.2332,31.0128 10.8998,30.1795 14.5,29.5C 14.33,28.1779 14.6634,27.0113 15.5,26C 13.3342,23.1657 13.3342,20.3324 15.5,17.5 Z"/></g>
<g><path style="opacity:1" fill="#2d2c2b" d="M 35.5,33.5 C 37.6016,35.1927 39.2683,37.3594 40.5,40C 39.0267,40.7096 38.3601,41.8762 38.5,43.5C 37.1667,43.5 35.8333,43.5 34.5,43.5C 34.366,45.2915 34.6993,46.9582 35.5,48.5C 34.0689,48.1193 33.2355,47.1193 33,45.5C 32.6667,46.1667 32.3333,46.8333 32,47.5C 31.8091,45.2922 31.3091,43.2922 30.5,41.5C 31.9307,39.8113 32.7641,37.8113 33,35.5C 33.9947,34.9341 34.828,34.2674 35.5,33.5 Z"/></g>
<g><path style="opacity:1" fill="#131111" d="M 41.5,38.5 C 43.337,38.6395 43.6704,39.3061 42.5,40.5C 41.7025,40.0431 41.3691,39.3764 41.5,38.5 Z"/></g>
<g><path style="opacity:1" fill="#bfa6a2" d="M 30.5,41.5 C 31.3091,43.2922 31.8091,45.2922 32,47.5C 32.3333,46.8333 32.6667,46.1667 33,45.5C 33.2355,47.1193 34.0689,48.1193 35.5,48.5C 35.3284,49.4916 35.6618,50.1583 36.5,50.5C 36.5,51.1667 36.5,51.8333 36.5,52.5C 35.5768,51.6971 34.5768,51.5304 33.5,52C 35.1742,53.5059 36.1742,55.3393 36.5,57.5C 34.9081,58.6016 34.0748,57.935 34,55.5C 33.3333,56.8333 32.6667,58.1667 32,59.5C 31.6174,58.944 31.1174,58.6107 30.5,58.5C 30.3601,56.8762 31.0267,55.7096 32.5,55C 29.1598,53.9967 26.1598,52.4967 23.5,50.5C 22.4946,47.1323 22.828,43.799 24.5,40.5C 26.4086,41.3482 28.4086,41.6816 30.5,41.5 Z"/></g>
<g><path style="opacity:1" fill="#172b31" d="M 48.5,43.5 C 50.4127,47.2625 52.5794,50.9291 55,54.5C 56.1449,57.4318 56.9782,60.4318 57.5,63.5C 51.5,63.5 45.5,63.5 39.5,63.5C 40.3007,61.9582 40.634,60.2915 40.5,58.5C 42.4109,58.4257 43.5776,57.4257 44,55.5C 44.5,53.5 45,51.5 45.5,49.5C 45.2528,48.2867 44.5862,47.62 43.5,47.5C 43.3893,46.8826 43.056,46.3826 42.5,46C 43.7155,43.9045 44.5488,44.0712 45,46.5C 46.0391,45.2899 47.2058,44.2899 48.5,43.5 Z"/></g>
<g><path style="opacity:1" fill="#1b0a01" d="M 35.5,48.5 C 36.8333,48.5 38.1667,48.5 39.5,48.5C 38.5,49.1667 37.5,49.8333 36.5,50.5C 35.6618,50.1583 35.3284,49.4916 35.5,48.5 Z"/></g>
<g><path style="opacity:1" fill="#ededec" d="M 18.5,48.5 C 19.9303,49.5375 21.597,50.2041 23.5,50.5C 26.1598,52.4967 29.1598,53.9967 32.5,55C 31.0267,55.7096 30.3601,56.8762 30.5,58.5C 25.8509,55.5263 21.1843,52.5263 16.5,49.5C 16.9569,48.7025 17.6236,48.3691 18.5,48.5 Z"/></g>
<g><path style="opacity:1" fill="#0a0d09" d="M 39.5,51.5 C 39.5,50.8333 39.8333,50.5 40.5,50.5C 41.5735,51.2506 41.7401,52.2506 41,53.5C 40.7216,52.5842 40.2216,51.9175 39.5,51.5 Z"/></g>
<g><path style="opacity:1" fill="#e3e4e3" d="M 43.5,47.5 C 44.5862,47.62 45.2528,48.2867 45.5,49.5C 45,51.5 44.5,53.5 44,55.5C 43.5776,57.4257 42.4109,58.4257 40.5,58.5C 39.6314,56.283 39.298,53.9496 39.5,51.5C 40.2216,51.9175 40.7216,52.5842 41,53.5C 41.7401,52.2506 41.5735,51.2506 40.5,50.5C 40.5,49.8333 40.5,49.1667 40.5,48.5C 41.791,48.7373 42.791,48.404 43.5,47.5 Z"/></g>
<g><path style="opacity:1" fill="#27241f" d="M 36.5,52.5 C 37.8333,54.1667 37.8333,55.8333 36.5,57.5C 36.1742,55.3393 35.1742,53.5059 33.5,52C 34.5768,51.5304 35.5768,51.6971 36.5,52.5 Z"/></g>
<g><path style="opacity:1" fill="#e40301" d="M 39.5,48.5 C 39.8333,48.5 40.1667,48.5 40.5,48.5C 40.5,49.1667 40.5,49.8333 40.5,50.5C 39.8333,50.5 39.5,50.8333 39.5,51.5C 39.298,53.9496 39.6314,56.283 40.5,58.5C 40.634,60.2915 40.3007,61.9582 39.5,63.5C 38.8333,63.5 38.1667,63.5 37.5,63.5C 36.8505,61.5648 36.5172,59.5648 36.5,57.5C 37.8333,55.8333 37.8333,54.1667 36.5,52.5C 36.5,51.8333 36.5,51.1667 36.5,50.5C 37.5,49.8333 38.5,49.1667 39.5,48.5 Z"/></g>
<g><path style="opacity:1" fill="#162930" d="M 12.5,36.5 C 13.5981,37.397 13.5981,38.2303 12.5,39C 14.5,39.3333 16.5,39.6667 18.5,40C 13.3157,41.804 13.3157,43.6373 18.5,45.5C 18.5,46.5 18.5,47.5 18.5,48.5C 17.6236,48.3691 16.9569,48.7025 16.5,49.5C 21.1843,52.5263 25.8509,55.5263 30.5,58.5C 31.1174,58.6107 31.6174,58.944 32,59.5C 32.6667,58.1667 33.3333,56.8333 34,55.5C 34.0748,57.935 34.9081,58.6016 36.5,57.5C 36.5172,59.5648 36.8505,61.5648 37.5,63.5C 26.5,63.5 15.5,63.5 4.5,63.5C 3.92103,54.7302 6.5877,47.2302 12.5,41C 8.68125,39.6228 8.68125,38.1228 12.5,36.5 Z"/></g>
</svg>
