<?xml version="1.0" encoding="UTF-8"?>
<!DOCTYPE svg PUBLIC "-//W3C//DTD SVG 1.1//EN" "http://www.w3.org/Graphics/SVG/1.1/DTD/svg11.dtd">
<svg xmlns="http://www.w3.org/2000/svg" version="1.1" width="64px" height="64px" style="shape-rendering:geometricPrecision; text-rendering:geometricPrecision; image-rendering:optimizeQuality; fill-rule:evenodd; clip-rule:evenodd" xmlns:xlink="http://www.w3.org/1999/xlink">
<g><path style="opacity:1" fill="#161523" d="M -0.5,-0.5 C 20.8333,-0.5 42.1667,-0.5 63.5,-0.5C 63.5,20.8333 63.5,42.1667 63.5,63.5C 42.1667,63.5 20.8333,63.5 -0.5,63.5C -0.5,42.1667 -0.5,20.8333 -0.5,-0.5 Z"/></g>
<g><path style="opacity:1" fill="#fdfdfd" d="M 33.5,33.5 C 30.0658,37.5057 26.7325,41.6724 23.5,46C 21.5,46.6667 19.5,46.6667 17.5,46C 21.5593,40.7008 25.2259,35.2008 28.5,29.5C 29.9063,29.0269 30.573,28.0269 30.5,26.5C 33.1606,23.8292 35.4939,20.8292 37.5,17.5C 39.7649,16.3526 42.0982,16.1859 44.5,17C 40.1932,22.1277 36.5265,27.6277 33.5,33.5 Z"/></g>
<g><path style="opacity:1" fill="#dedee0" d="M 30.5,26.5 C 29.0937,26.9731 28.427,27.9731 28.5,29.5C 27.5041,29.5858 26.6708,29.2524 26,28.5C 23.6955,24.6963 21.1955,21.0296 18.5,17.5C 20.4213,16.359 22.4213,16.1923 24.5,17C 27.1461,19.8016 29.1461,22.9683 30.5,26.5 Z"/></g>
<g><path style="opacity:1" fill="#171720" d="M 30.5,26.5 C 30.573,28.0269 29.9063,29.0269 28.5,29.5C 28.427,27.9731 29.0937,26.9731 30.5,26.5 Z"/></g>
<g><path style="opacity:1" fill="#615ede" d="M 33.5,33.5 C 34.8804,32.2935 36.0471,32.6269 37,34.5C 39.4674,38.6004 42.3007,42.4338 45.5,46C 42.9009,46.769 40.4009,46.6023 38,45.5C 36.1667,42.5 34.3333,39.5 32.5,36.5C 33.1272,35.5832 33.4606,34.5832 33.5,33.5 Z"/></g>
</svg>
