<?xml version="1.0" encoding="UTF-8"?>
<!DOCTYPE svg PUBLIC "-//W3C//DTD SVG 1.1//EN" "http://www.w3.org/Graphics/SVG/1.1/DTD/svg11.dtd">
<svg xmlns="http://www.w3.org/2000/svg" version="1.1" width="64px" height="64px" style="shape-rendering:geometricPrecision; text-rendering:geometricPrecision; image-rendering:optimizeQuality; fill-rule:evenodd; clip-rule:evenodd" xmlns:xlink="http://www.w3.org/1999/xlink">
<g><path style="opacity:1" fill="#24201f" d="M -0.5,-0.5 C 20.8333,-0.5 42.1667,-0.5 63.5,-0.5C 63.5,20.8333 63.5,42.1667 63.5,63.5C 42.1667,63.5 20.8333,63.5 -0.5,63.5C -0.5,42.1667 -0.5,20.8333 -0.5,-0.5 Z"/></g>
<g><path style="opacity:1" fill="#eedfd2" d="M 28.5,11.5 C 36.3296,10.4949 39.4963,13.8283 38,21.5C 36.8333,23 35.6667,24.5 34.5,26C 35.1667,26.6667 35.8333,27.3333 36.5,28C 38.6313,27.6017 40.6313,26.6017 42.5,25C 49.6961,24.8689 52.5294,28.3689 51,35.5C 46.368,39.6976 42.0346,39.3643 38,34.5C 36.8333,35.6667 35.6667,36.8333 34.5,38C 38.2118,40.6019 39.3785,44.1019 38,48.5C 31.834,54.1145 27.334,52.9478 24.5,45C 25.8887,42.0827 27.0553,39.2493 28,36.5C 27.3333,35.8333 26.6667,35.1667 26,34.5C 23.3981,38.2118 19.8981,39.3785 15.5,38C 9.96406,33.1624 10.2974,28.8291 16.5,25C 20.1046,24.464 23.1046,25.6307 25.5,28.5C 26.4776,28.0233 27.3109,27.3567 28,26.5C 26.7928,24.0381 25.6261,21.3714 24.5,18.5C 25.0707,15.6873 26.4041,13.354 28.5,11.5 Z"/></g>
<g><path style="opacity:1" fill="#241f1e" d="M 29.5,15.5 C 33.6772,14.8416 35.1772,16.5082 34,20.5C 30.9632,23.2026 29.1299,22.3692 28.5,18C 28.7432,17.0979 29.0766,16.2646 29.5,15.5 Z"/></g>
<g><path style="opacity:1" fill="#262220" d="M 42.5,28.5 C 46.9083,28.062 48.5749,30.062 47.5,34.5C 41.4101,35.3692 39.7434,33.3692 42.5,28.5 Z"/></g>
<g><path style="opacity:1" fill="#241f1e" d="M 17.5,28.5 C 22.0408,28.8152 23.0408,30.6485 20.5,34C 15.2894,34.5464 14.2894,32.713 17.5,28.5 Z"/></g>
<g><path style="opacity:1" fill="#221d1c" d="M 31.5,28.5 C 35.4735,30.4603 35.4735,32.4603 31.5,34.5C 30.354,33.8551 29.354,33.0217 28.5,32C 29.7101,30.9609 30.7101,29.7942 31.5,28.5 Z"/></g>
<g><path style="opacity:1" fill="#231f1d" d="M 31.5,40.5 C 35.3759,43.1977 35.3759,45.8643 31.5,48.5C 27.6675,45.9427 27.6675,43.276 31.5,40.5 Z"/></g>
</svg>
