<?xml version="1.0" encoding="UTF-8"?>
<!DOCTYPE svg PUBLIC "-//W3C//DTD SVG 1.1//EN" "http://www.w3.org/Graphics/SVG/1.1/DTD/svg11.dtd">
<svg xmlns="http://www.w3.org/2000/svg" version="1.1" width="64px" height="64px" style="shape-rendering:geometricPrecision; text-rendering:geometricPrecision; image-rendering:optimizeQuality; fill-rule:evenodd; clip-rule:evenodd" xmlns:xlink="http://www.w3.org/1999/xlink">
<g><path style="opacity:0.998" fill="#02ecbe" d="M 25.5,-0.5 C 29.5,-0.5 33.5,-0.5 37.5,-0.5C 51.1667,3.16667 59.8333,11.8333 63.5,25.5C 63.5,29.5 63.5,33.5 63.5,37.5C 59.8333,51.1667 51.1667,59.8333 37.5,63.5C 33.5,63.5 29.5,63.5 25.5,63.5C 11.8333,59.8333 3.16667,51.1667 -0.5,37.5C -0.5,33.5 -0.5,29.5 -0.5,25.5C 3.16667,11.8333 11.8333,3.16667 25.5,-0.5 Z"/></g>
<g><path style="opacity:1" fill="#141bea" d="M 18.5,14.5 C 27.5062,14.3336 36.5062,14.5002 45.5,15C 44.1667,18 44.1667,21 45.5,24C 36.5,24.6667 27.5,24.6667 18.5,24C 17.208,20.8347 17.208,17.668 18.5,14.5 Z"/></g>
<g><path style="opacity:1" fill="#141eea" d="M 12.5,27.5 C 21.3238,26.3427 30.3238,26.176 39.5,27C 40.6105,29.7372 40.7772,32.5706 40,35.5C 30.8933,36.8166 21.7266,36.8166 12.5,35.5C 13.7757,32.6969 13.7757,30.0303 12.5,27.5 Z"/></g>
<g><path style="opacity:1" fill="#141aeb" d="M 18.5,38.5 C 27.5062,38.3336 36.5062,38.5002 45.5,39C 44.5562,41.7191 44.2229,44.5525 44.5,47.5C 35.5,47.5 26.5,47.5 17.5,47.5C 17.2641,44.3915 17.5975,41.3915 18.5,38.5 Z"/></g>
</svg>
