<?xml version="1.0" encoding="UTF-8"?>
<!DOCTYPE svg PUBLIC "-//W3C//DTD SVG 1.1//EN" "http://www.w3.org/Graphics/SVG/1.1/DTD/svg11.dtd">
<svg xmlns="http://www.w3.org/2000/svg" version="1.1" width="64px" height="64px" style="shape-rendering:geometricPrecision; text-rendering:geometricPrecision; image-rendering:optimizeQuality; fill-rule:evenodd; clip-rule:evenodd" xmlns:xlink="http://www.w3.org/1999/xlink">
<g><path style="opacity:0.935" fill="#fcfcfc" d="M 25.5,-0.5 C 29.5,-0.5 33.5,-0.5 37.5,-0.5C 51.1667,3.16667 59.8333,11.8333 63.5,25.5C 63.5,29.5 63.5,33.5 63.5,37.5C 59.8333,51.1667 51.1667,59.8333 37.5,63.5C 33.5,63.5 29.5,63.5 25.5,63.5C 11.8333,59.8333 3.16667,51.1667 -0.5,37.5C -0.5,33.5 -0.5,29.5 -0.5,25.5C 3.16667,11.8333 11.8333,3.16667 25.5,-0.5 Z"/></g>
<g><path style="opacity:1" fill="#1e1e1e" d="M 29.5,1.5 C 48.2271,2.89357 58.8938,12.8936 61.5,31.5C 59.1667,49.1667 49.1667,59.1667 31.5,61.5C 13.8333,59.1667 3.83333,49.1667 1.5,31.5C 3.69046,14.6479 13.0238,4.64789 29.5,1.5 Z"/></g>
<g><path style="opacity:1" fill="#fbfbfb" d="M 46.5,36.5 C 46.5,39.5 46.5,42.5 46.5,45.5C 39.1667,45.5 31.8333,45.5 24.5,45.5C 20.6839,41.239 16.8506,36.9057 13,32.5C 12.3333,31.8333 12.3333,31.1667 13,30.5C 16.8333,26 20.6667,21.5 24.5,17C 32.1594,16.5003 39.8261,16.3336 47.5,16.5C 47.5,19.8333 47.5,23.1667 47.5,26.5C 46.5,26.5 45.5,26.5 44.5,26.5C 44.5,24.1667 44.5,21.8333 44.5,19.5C 39.1563,19.334 33.8229,19.5006 28.5,20C 31.9513,23.7398 35.2847,27.5732 38.5,31.5C 35.2847,35.4268 31.9513,39.2602 28.5,43C 33.8229,43.4994 39.1563,43.666 44.5,43.5C 43.9898,40.6122 44.6565,38.2789 46.5,36.5 Z"/></g>
<g><path style="opacity:1" fill="#1e1e1e" d="M 24.5,21.5 C 28.7905,23.7904 32.1238,27.1237 34.5,31.5C 31.9587,35.2518 28.9587,38.5852 25.5,41.5C 22.0413,38.5852 19.0413,35.2518 16.5,31.5C 19.1751,28.1362 21.8418,24.8029 24.5,21.5 Z"/></g>
<g><path style="opacity:1" fill="#929292" d="M 46.5,36.5 C 47.4794,39.6248 47.8128,42.9581 47.5,46.5C 39.6484,46.8254 31.9818,46.492 24.5,45.5C 31.8333,45.5 39.1667,45.5 46.5,45.5C 46.5,42.5 46.5,39.5 46.5,36.5 Z"/></g>
</svg>
