<?xml version="1.0" encoding="UTF-8"?>
<!DOCTYPE svg PUBLIC "-//W3C//DTD SVG 1.1//EN" "http://www.w3.org/Graphics/SVG/1.1/DTD/svg11.dtd">
<svg xmlns="http://www.w3.org/2000/svg" version="1.1" width="200px" height="200px" style="shape-rendering:geometricPrecision; text-rendering:geometricPrecision; image-rendering:optimizeQuality; fill-rule:evenodd; clip-rule:evenodd" xmlns:xlink="http://www.w3.org/1999/xlink">
<g><path style="opacity:1" fill="#7a96f7" d="M 85.5,-0.5 C 94.8333,-0.5 104.167,-0.5 113.5,-0.5C 122.163,1.08349 130.496,3.75016 138.5,7.5C 138.286,9.14387 138.62,10.6439 139.5,12C 138.24,13.113 137.073,13.2797 136,12.5C 135.333,15.1667 134.667,15.1667 134,12.5C 132.315,14.0175 130.815,15.6841 129.5,17.5C 128.188,16.5396 126.854,16.7063 125.5,18C 126.28,19.073 126.113,20.2396 125,21.5C 124.167,20.5 123.333,19.5 122.5,18.5C 120.808,20.3586 119.308,22.3586 118,24.5C 117.085,23.6721 116.419,22.6721 116,21.5C 115.395,23.4812 114.395,23.8146 113,22.5C 112.383,23.4491 112.549,24.2825 113.5,25C 112.299,25.9025 111.465,27.0692 111,28.5C 109.969,26.579 108.469,26.579 106.5,28.5C 107.167,28.8333 107.833,29.1667 108.5,29.5C 107.224,30.6446 105.891,30.6446 104.5,29.5C 103.749,30.376 103.249,31.376 103,32.5C 102.667,31.8333 102.333,31.1667 102,30.5C 100.144,31.9001 98.311,33.2335 96.5,34.5C 91.672,38.0814 86.672,41.4148 81.5,44.5C 80.5768,43.6971 79.5768,43.5304 78.5,44C 75.5728,46.3824 72.7395,48.8824 70,51.5C 69.6667,50.8333 69.3333,50.1667 69,49.5C 67.9887,50.3366 66.8221,50.67 65.5,50.5C 65.0081,52.8409 63.8415,54.8409 62,56.5C 59.9813,55.2351 57.9813,55.2351 56,56.5C 54.413,59.7559 51.913,61.9226 48.5,63C 48.8333,63.3333 49.1667,63.6667 49.5,64C 48.2161,64.6838 47.0495,64.5171 46,63.5C 43.705,63.6894 41.705,65.0228 40,67.5C 38.4419,66.6548 37.4419,67.3215 37,69.5C 35.2835,68.4477 34.2835,69.1144 34,71.5C 31.2978,70.359 29.6311,71.359 29,74.5C 27.836,74.8346 26.5026,74.8346 25,74.5C 24.5614,78.48 23.0614,79.1466 20.5,76.5C 18.9984,77.0831 17.6651,77.9164 16.5,79C 17.1667,79.3333 17.8333,79.6667 18.5,80C 16.8333,80.3333 15.1667,80.6667 13.5,81C 14.6734,84.1103 14.1734,84.277 12,81.5C 11.2924,84.2676 9.79237,85.1009 7.5,84C 7.33261,88.3338 5.83261,89.1672 3,86.5C 1.79777,84.3225 1.29777,81.9892 1.5,79.5C 8.5529,46.5564 27.2196,22.7231 57.5,8C 66.677,4.21514 76.0103,1.38181 85.5,-0.5 Z"/></g>
<g><path style="opacity:1" fill="#fcfdfe" d="M 96.5,34.5 C 84.983,54.8603 72.8163,74.8603 60,94.5C 52.1506,83.5558 51.6506,72.3891 58.5,61C 66.5864,55.9688 74.2531,50.4688 81.5,44.5C 86.672,41.4148 91.672,38.0814 96.5,34.5 Z"/></g>
<g><path style="opacity:1" fill="#fcfdfe" d="M 146.5,65.5 C 152.568,71.9705 156.234,79.6372 157.5,88.5C 158.719,96.4753 158.719,104.475 157.5,112.5C 156.12,115.774 154.62,119.107 153,122.5C 152.809,120.292 152.309,118.292 151.5,116.5C 150.355,109.214 147.355,102.881 142.5,97.5C 138.081,89.6587 133.415,81.992 128.5,74.5C 126.646,70.7792 124.313,67.4459 121.5,64.5C 116.099,54.7093 109.933,45.376 103,36.5C 102.333,35.8333 102.333,35.1667 103,34.5C 117.441,44.9656 131.941,55.2989 146.5,65.5 Z"/></g>
<g><path style="opacity:1" fill="#7397f7" d="M 138.5,7.5 C 157.067,14.7334 171.733,26.7334 182.5,43.5C 181.236,45.9347 179.403,47.9347 177,49.5C 176.667,49.1667 176.333,48.8333 176,48.5C 171.619,51.8472 167.119,55.0139 162.5,58C 155.862,60.1743 150.528,62.6743 146.5,65.5C 131.941,55.2989 117.441,44.9656 103,34.5C 102.333,35.1667 102.333,35.8333 103,36.5C 109.933,45.376 116.099,54.7093 121.5,64.5C 118.969,67.5331 115.302,69.8664 110.5,71.5C 109.667,72.5 108.833,73.5 108,74.5C 107.667,74.1667 107.333,73.8333 107,73.5C 104.966,75.0316 102.799,76.3649 100.5,77.5C 99.3247,76.1451 98.3247,76.3117 97.5,78C 97.8333,78.3333 98.1667,78.6667 98.5,79C 96.6969,79.6368 95.3636,80.8035 94.5,82.5C 92.9954,79.8694 92.3287,80.2027 92.5,83.5C 91.1266,83.3433 89.7932,83.51 88.5,84C 81.7164,88.5944 74.5498,93.0944 67,97.5C 66.6667,97.1667 66.3333,96.8333 66,96.5C 63.4607,99.399 60.294,101.066 56.5,101.5C 50.8238,94.1398 47.3238,85.8065 46,76.5C 40.537,87.6226 39.037,99.2893 41.5,111.5C 35.9177,114.563 30.0843,117.896 24,121.5C 22.1237,123.123 20.7904,122.79 20,120.5C 19.3162,121.784 19.4829,122.951 20.5,124C 15.753,126.122 11.253,128.622 7,131.5C 6.18405,130.177 5.01739,129.511 3.5,129.5C 2.13905,124.056 0.805715,118.723 -0.5,113.5C -0.5,104.167 -0.5,94.8333 -0.5,85.5C 0.166667,83.5 0.833333,81.5 1.5,79.5C 1.29777,81.9892 1.79777,84.3225 3,86.5C 5.83261,89.1672 7.33261,88.3338 7.5,84C 9.79237,85.1009 11.2924,84.2676 12,81.5C 14.1734,84.277 14.6734,84.1103 13.5,81C 15.1667,80.6667 16.8333,80.3333 18.5,80C 17.8333,79.6667 17.1667,79.3333 16.5,79C 17.6651,77.9164 18.9984,77.0831 20.5,76.5C 23.0614,79.1466 24.5614,78.48 25,74.5C 26.5026,74.8346 27.836,74.8346 29,74.5C 29.6311,71.359 31.2978,70.359 34,71.5C 34.2835,69.1144 35.2835,68.4477 37,69.5C 37.4419,67.3215 38.4419,66.6548 40,67.5C 41.705,65.0228 43.705,63.6894 46,63.5C 47.0495,64.5171 48.2161,64.6838 49.5,64C 49.1667,63.6667 48.8333,63.3333 48.5,63C 51.913,61.9226 54.413,59.7559 56,56.5C 57.9813,55.2351 59.9813,55.2351 62,56.5C 63.8415,54.8409 65.0081,52.8409 65.5,50.5C 66.8221,50.67 67.9887,50.3366 69,49.5C 69.3333,50.1667 69.6667,50.8333 70,51.5C 72.7395,48.8824 75.5728,46.3824 78.5,44C 79.5768,43.5304 80.5768,43.6971 81.5,44.5C 74.2531,50.4688 66.5864,55.9688 58.5,61C 51.6506,72.3891 52.1506,83.5558 60,94.5C 72.8163,74.8603 84.983,54.8603 96.5,34.5C 98.311,33.2335 100.144,31.9001 102,30.5C 102.333,31.1667 102.667,31.8333 103,32.5C 103.249,31.376 103.749,30.376 104.5,29.5C 105.891,30.6446 107.224,30.6446 108.5,29.5C 107.833,29.1667 107.167,28.8333 106.5,28.5C 108.469,26.579 109.969,26.579 111,28.5C 111.465,27.0692 112.299,25.9025 113.5,25C 112.549,24.2825 112.383,23.4491 113,22.5C 114.395,23.8146 115.395,23.4812 116,21.5C 116.419,22.6721 117.085,23.6721 118,24.5C 119.308,22.3586 120.808,20.3586 122.5,18.5C 123.333,19.5 124.167,20.5 125,21.5C 126.113,20.2396 126.28,19.073 125.5,18C 126.854,16.7063 128.188,16.5396 129.5,17.5C 130.815,15.6841 132.315,14.0175 134,12.5C 134.667,15.1667 135.333,15.1667 136,12.5C 137.073,13.2797 138.24,13.113 139.5,12C 138.62,10.6439 138.286,9.14387 138.5,7.5 Z"/></g>
<g><path style="opacity:1" fill="#679ef4" d="M 182.5,43.5 C 187.734,49.9683 191.401,57.3016 193.5,65.5C 193.812,68.8884 192.479,71.3884 189.5,73C 181.179,77.8137 172.845,82.4804 164.5,87C 162.187,87.662 159.854,88.162 157.5,88.5C 156.234,79.6372 152.568,71.9705 146.5,65.5C 150.528,62.6743 155.862,60.1743 162.5,58C 167.119,55.0139 171.619,51.8472 176,48.5C 176.333,48.8333 176.667,49.1667 177,49.5C 179.403,47.9347 181.236,45.9347 182.5,43.5 Z"/></g>
<g><path style="opacity:1" fill="#6e9bf7" d="M 121.5,64.5 C 124.313,67.4459 126.646,70.7792 128.5,74.5C 128.141,76.4846 127.308,77.1513 126,76.5C 124.223,78.5185 122.056,80.0185 119.5,81C 118.299,81.9025 117.465,83.0692 117,84.5C 115.493,83.4652 113.993,83.6319 112.5,85C 108.269,87.2146 104.269,89.8812 100.5,93C 99.2161,93.6838 98.0495,93.5171 97,92.5C 95.8066,94.6051 94.1399,96.2718 92,97.5C 91.6667,97.1667 91.3333,96.8333 91,96.5C 89.764,98.5384 87.9306,99.7051 85.5,100C 79.3372,105.131 72.0039,109.298 63.5,112.5C 60.9308,109.039 58.5974,105.372 56.5,101.5C 60.294,101.066 63.4607,99.399 66,96.5C 66.3333,96.8333 66.6667,97.1667 67,97.5C 74.5498,93.0944 81.7164,88.5944 88.5,84C 89.7932,83.51 91.1266,83.3433 92.5,83.5C 92.3287,80.2027 92.9954,79.8694 94.5,82.5C 95.3636,80.8035 96.6969,79.6368 98.5,79C 98.1667,78.6667 97.8333,78.3333 97.5,78C 98.3247,76.3117 99.3247,76.1451 100.5,77.5C 102.799,76.3649 104.966,75.0316 107,73.5C 107.333,73.8333 107.667,74.1667 108,74.5C 108.833,73.5 109.667,72.5 110.5,71.5C 115.302,69.8664 118.969,67.5331 121.5,64.5 Z"/></g>
<g><path style="opacity:1" fill="#60a4f3" d="M 193.5,65.5 C 196.397,71.7557 198.064,78.4223 198.5,85.5C 198.953,88.6521 197.953,91.1521 195.5,93C 183.584,99.5538 171.251,106.387 158.5,113.5C 157.893,113.376 157.56,113.043 157.5,112.5C 158.719,104.475 158.719,96.4753 157.5,88.5C 159.854,88.162 162.187,87.662 164.5,87C 172.845,82.4804 181.179,77.8137 189.5,73C 192.479,71.3884 193.812,68.8884 193.5,65.5 Z"/></g>
<g><path style="opacity:1" fill="#fcfdfe" d="M 56.5,101.5 C 58.5974,105.372 60.9308,109.039 63.5,112.5C 67.8059,120.124 72.4726,127.457 77.5,134.5C 81.141,140.795 85.141,146.795 89.5,152.5C 91.451,156.229 93.7843,159.729 96.5,163C 92.1345,160.856 87.8012,158.356 83.5,155.5C 77.5378,151.179 71.5378,146.845 65.5,142.5C 59.2016,138.529 53.5349,133.862 48.5,128.5C 45.3319,123.166 42.9986,117.499 41.5,111.5C 39.037,99.2893 40.537,87.6226 46,76.5C 47.3238,85.8065 50.8238,94.1398 56.5,101.5 Z"/></g>
<g><path style="opacity:1" fill="#679ff6" d="M 128.5,74.5 C 133.415,81.992 138.081,89.6587 142.5,97.5C 142.092,98.6431 141.425,99.6431 140.5,100.5C 125.89,107.995 111.723,115.995 98,124.5C 97.6667,124.167 97.3333,123.833 97,123.5C 96.5172,124.448 96.3505,125.448 96.5,126.5C 89.7604,129.221 83.4271,131.888 77.5,134.5C 72.4726,127.457 67.8059,120.124 63.5,112.5C 72.0039,109.298 79.3372,105.131 85.5,100C 87.9306,99.7051 89.764,98.5384 91,96.5C 91.3333,96.8333 91.6667,97.1667 92,97.5C 94.1399,96.2718 95.8066,94.6051 97,92.5C 98.0495,93.5171 99.2161,93.6838 100.5,93C 104.269,89.8812 108.269,87.2146 112.5,85C 113.993,83.6319 115.493,83.4652 117,84.5C 117.465,83.0692 118.299,81.9025 119.5,81C 122.056,80.0185 124.223,78.5185 126,76.5C 127.308,77.1513 128.141,76.4846 128.5,74.5 Z"/></g>
<g><path style="opacity:1" fill="#5baaf3" d="M 198.5,85.5 C 198.833,85.5 199.167,85.5 199.5,85.5C 199.5,93.8333 199.5,102.167 199.5,110.5C 198.404,112.103 197.07,113.603 195.5,115C 150.018,140.5 104.685,166 59.5,191.5C 52.6678,188.588 46.3344,184.921 40.5,180.5C 44.0936,179.573 47.5936,177.573 51,174.5C 62.2531,168.793 73.0864,162.46 83.5,155.5C 87.8012,158.356 92.1345,160.856 96.5,163C 93.7843,159.729 91.451,156.229 89.5,152.5C 90.397,151.402 91.2303,151.402 92,152.5C 99.7033,147.487 107.37,142.487 115,137.5C 115.671,138.252 116.504,138.586 117.5,138.5C 112.888,146.889 107.888,155.056 102.5,163C 104.279,162.956 105.945,162.289 107.5,161C 117.223,153.611 127.223,146.611 137.5,140C 143.786,134.653 146.452,127.82 145.5,119.5C 146.117,119.611 146.617,119.944 147,120.5C 149.118,119.717 150.618,118.384 151.5,116.5C 152.309,118.292 152.809,120.292 153,122.5C 154.62,119.107 156.12,115.774 157.5,112.5C 157.56,113.043 157.893,113.376 158.5,113.5C 171.251,106.387 183.584,99.5538 195.5,93C 197.953,91.1521 198.953,88.6521 198.5,85.5 Z"/></g>
<g><path style="opacity:1" fill="#61a5f5" d="M 142.5,97.5 C 147.355,102.881 150.355,109.214 151.5,116.5C 150.618,118.384 149.118,119.717 147,120.5C 146.617,119.944 146.117,119.611 145.5,119.5C 144.182,113.858 142.015,108.525 139,103.5C 131.822,115.195 124.656,126.861 117.5,138.5C 116.504,138.586 115.671,138.252 115,137.5C 107.37,142.487 99.7033,147.487 92,152.5C 91.2303,151.402 90.397,151.402 89.5,152.5C 85.141,146.795 81.141,140.795 77.5,134.5C 83.4271,131.888 89.7604,129.221 96.5,126.5C 96.3505,125.448 96.5172,124.448 97,123.5C 97.3333,123.833 97.6667,124.167 98,124.5C 111.723,115.995 125.89,107.995 140.5,100.5C 141.425,99.6431 142.092,98.6431 142.5,97.5 Z"/></g>
<g><path style="opacity:1" fill="#fcfdfe" d="M 145.5,119.5 C 146.452,127.82 143.786,134.653 137.5,140C 127.223,146.611 117.223,153.611 107.5,161C 105.945,162.289 104.279,162.956 102.5,163C 107.888,155.056 112.888,146.889 117.5,138.5C 124.656,126.861 131.822,115.195 139,103.5C 142.015,108.525 144.182,113.858 145.5,119.5 Z"/></g>
<g><path style="opacity:1" fill="#6c99f4" d="M 41.5,111.5 C 42.9986,117.499 45.3319,123.166 48.5,128.5C 47.8423,129.398 47.1757,130.398 46.5,131.5C 40.8483,134.166 35.8483,136.999 31.5,140C 24.9768,142.756 18.9768,146.256 13.5,150.5C 9.03156,144.123 5.69823,137.123 3.5,129.5C 5.01739,129.511 6.18405,130.177 7,131.5C 11.253,128.622 15.753,126.122 20.5,124C 19.4829,122.951 19.3162,121.784 20,120.5C 20.7904,122.79 22.1237,123.123 24,121.5C 30.0843,117.896 35.9177,114.563 41.5,111.5 Z"/></g>
<g><path style="opacity:1" fill="#55acf2" d="M 199.5,110.5 C 199.5,111.5 199.5,112.5 199.5,113.5C 198.712,116.887 197.712,120.22 196.5,123.5C 187.753,127.743 179.92,132.409 173,137.5C 172.667,137.167 172.333,136.833 172,136.5C 159.383,143.311 147.049,150.644 135,158.5C 134.667,158.167 134.333,157.833 134,157.5C 133.667,158.5 133.333,159.5 133,160.5C 132.667,160.167 132.333,159.833 132,159.5C 129.667,161.5 127.333,163.5 125,165.5C 122.91,164.209 121.576,164.876 121,167.5C 120.15,166.576 119.15,166.576 118,167.5C 114.592,169.364 111.592,171.697 109,174.5C 98.9244,178.223 88.9244,183.556 79,190.5C 78.6667,190.167 78.3333,189.833 78,189.5C 75.6294,192.709 72.4627,194.376 68.5,194.5C 65.2854,194.095 62.2854,193.095 59.5,191.5C 104.685,166 150.018,140.5 195.5,115C 197.07,113.603 198.404,112.103 199.5,110.5 Z"/></g>
<g><path style="opacity:1" fill="#52aef1" d="M 196.5,123.5 C 195.634,129.097 193.967,134.43 191.5,139.5C 182.993,144.499 173.66,149.333 163.5,154C 162.167,154.667 162.167,155.333 163.5,156C 155.224,159.209 147.39,163.375 140,168.5C 135.911,169.904 131.911,172.237 128,175.5C 127.667,175.167 127.333,174.833 127,174.5C 119.645,179.858 111.978,184.858 104,189.5C 102.442,188.655 101.442,189.321 101,191.5C 100.667,191.167 100.333,190.833 100,190.5C 95.0638,193.05 90.2305,195.717 85.5,198.5C 79.4724,198.242 73.8058,196.908 68.5,194.5C 72.4627,194.376 75.6294,192.709 78,189.5C 78.3333,189.833 78.6667,190.167 79,190.5C 88.9244,183.556 98.9244,178.223 109,174.5C 111.592,171.697 114.592,169.364 118,167.5C 119.15,166.576 120.15,166.576 121,167.5C 121.576,164.876 122.91,164.209 125,165.5C 127.333,163.5 129.667,161.5 132,159.5C 132.333,159.833 132.667,160.167 133,160.5C 133.333,159.5 133.667,158.5 134,157.5C 134.333,157.833 134.667,158.167 135,158.5C 147.049,150.644 159.383,143.311 172,136.5C 172.333,136.833 172.667,137.167 173,137.5C 179.92,132.409 187.753,127.743 196.5,123.5 Z"/></g>
<g><path style="opacity:1" fill="#669ff4" d="M 48.5,128.5 C 53.5349,133.862 59.2016,138.529 65.5,142.5C 58.0868,147.603 50.5868,151.936 43,155.5C 41.7263,156.535 40.5596,157.702 39.5,159C 34.4374,161.202 29.4374,163.369 24.5,165.5C 19.6817,161.348 16.015,156.348 13.5,150.5C 18.9768,146.256 24.9768,142.756 31.5,140C 35.8483,136.999 40.8483,134.166 46.5,131.5C 47.1757,130.398 47.8423,129.398 48.5,128.5 Z"/></g>
<g><path style="opacity:1" fill="#4eafed" d="M 191.5,139.5 C 186.07,153.052 177.736,164.385 166.5,173.5C 165.749,172.427 164.749,172.26 163.5,173C 154.416,178.626 145.25,184.126 136,189.5C 135.667,189.167 135.333,188.833 135,188.5C 132.184,190.304 130.017,192.637 128.5,195.5C 123.449,197.011 118.449,198.345 113.5,199.5C 104.167,199.5 94.8333,199.5 85.5,199.5C 85.5,199.167 85.5,198.833 85.5,198.5C 90.2305,195.717 95.0638,193.05 100,190.5C 100.333,190.833 100.667,191.167 101,191.5C 101.442,189.321 102.442,188.655 104,189.5C 111.978,184.858 119.645,179.858 127,174.5C 127.333,174.833 127.667,175.167 128,175.5C 131.911,172.237 135.911,169.904 140,168.5C 147.39,163.375 155.224,159.209 163.5,156C 162.167,155.333 162.167,154.667 163.5,154C 173.66,149.333 182.993,144.499 191.5,139.5 Z"/></g>
<g><path style="opacity:1" fill="#60a4f3" d="M 65.5,142.5 C 71.5378,146.845 77.5378,151.179 83.5,155.5C 73.0864,162.46 62.2531,168.793 51,174.5C 47.5936,177.573 44.0936,179.573 40.5,180.5C 36.7093,177.882 33.0426,175.049 29.5,172C 27.4611,170.074 25.7945,167.907 24.5,165.5C 29.4374,163.369 34.4374,161.202 39.5,159C 40.5596,157.702 41.7263,156.535 43,155.5C 50.5868,151.936 58.0868,147.603 65.5,142.5 Z"/></g>
<g><path style="opacity:1" fill="#48a2d6" d="M 166.5,173.5 C 155.709,183.901 143.042,191.235 128.5,195.5C 130.017,192.637 132.184,190.304 135,188.5C 135.333,188.833 135.667,189.167 136,189.5C 145.25,184.126 154.416,178.626 163.5,173C 164.749,172.26 165.749,172.427 166.5,173.5 Z"/></g>
</svg>
