<!-- by TradingView --><svg width="56" height="56" viewBox="0 0 56 56" xmlns="http://www.w3.org/2000/svg"><path fill="url(#a)" d="M0 0h56v56H0z"/><path d="M42.94 24H34.5c-.02 0-.04 0-.05-.03l-2.18-3.46a.06.06 0 0 0-.05-.03H11.81c-.02 0-.04-.01-.05-.03l-2.74-4.36c-.04-.06-.02-.09.05-.09h21.51c.02 0 .04 0 .05.03l2.19 3.48c0 .02.02.03.05.03h10.07c.04 0 .06.02.06.05v4.35c0 .04-.02.06-.06.06ZM30.61 24.03l2.2 3.48c0 .02.02.03.05.03h10.08c.04 0 .06.02.06.05v4.35c0 .04-.02.06-.06.06H34.5c-.02 0-.04-.01-.05-.03l-2.17-3.45a.05.05 0 0 0-.05-.03h-15.4c-.01 0-.03 0-.04-.02l-2.76-4.38c-.04-.06-.02-.09.05-.09h16.5c.02 0 .03 0 .04.03ZM32.85 35.52h10.1c.03 0 .05.02.05.06v4.37c0 .03-.02.05-.06.05H34.5c-.02 0-.04 0-.05-.03l-2.19-3.46a.05.05 0 0 0-.04-.03h-10.4c-.02 0-.03 0-.04-.02l-2.76-4.38c-.04-.05-.02-.08.05-.08h11.5c.01 0 .03 0 .04.03l2.19 3.47.05.02Z" fill="#fff"/><defs><linearGradient id="a" x1="10.42" y1="9.71" x2="68.15" y2="76.02" gradientUnits="userSpaceOnUse"><stop stop-color="#1A1E21"/><stop offset="1" stop-color="#06060A"/></linearGradient></defs></svg>