<?xml version="1.0" encoding="UTF-8"?>
<!DOCTYPE svg PUBLIC "-//W3C//DTD SVG 1.1//EN" "http://www.w3.org/Graphics/SVG/1.1/DTD/svg11.dtd">
<svg xmlns="http://www.w3.org/2000/svg" version="1.1" width="64px" height="64px" style="shape-rendering:geometricPrecision; text-rendering:geometricPrecision; image-rendering:optimizeQuality; fill-rule:evenodd; clip-rule:evenodd" xmlns:xlink="http://www.w3.org/1999/xlink">
<g><path style="opacity:1" fill="#131759" d="M 7.5,-0.5 C 26.1667,-0.5 44.8333,-0.5 63.5,-0.5C 63.5,1.5 63.5,3.5 63.5,5.5C 54.4758,6.73574 45.4758,6.73574 36.5,5.5C 33.9966,4.91553 31.4966,4.24887 29,3.5C 26.3478,5.31979 23.8478,7.31979 21.5,9.5C 19.704,8.20633 17.704,7.20633 15.5,6.5C 16.1667,5.83333 16.8333,5.16667 17.5,4.5C 14.9659,3.22343 12.4659,3.22343 10,4.5C 9.50776,3.45104 9.67443,2.45104 10.5,1.5C 10.0623,0.493667 9.39567,0.493667 8.5,1.5C 7.70245,1.04311 7.36912,0.376442 7.5,-0.5 Z"/></g>
<g><path style="opacity:1" fill="#16155e" d="M 23.5,15.5 C 21.5447,15.2014 20.2114,14.2014 19.5,12.5C 22.3943,11.1177 24.8943,9.11771 27,6.5C 30.8835,11.4046 29.7168,14.4046 23.5,15.5 Z"/></g>
<g><path style="opacity:1" fill="#281c6b" d="M -0.5,-0.5 C 2.16667,-0.5 4.83333,-0.5 7.5,-0.5C 7.36912,0.376442 7.70245,1.04311 8.5,1.5C 9.39567,0.493667 10.0623,0.493667 10.5,1.5C 9.67443,2.45104 9.50776,3.45104 10,4.5C 12.4659,3.22343 14.9659,3.22343 17.5,4.5C 16.8333,5.16667 16.1667,5.83333 15.5,6.5C 17.704,7.20633 19.704,8.20633 21.5,9.5C 20.8333,10.5 20.1667,11.5 19.5,12.5C 15.1667,16.1667 11.1667,20.1667 7.5,24.5C 6.16667,25.5 4.83333,26.5 3.5,27.5C 2.83858,24.2129 2.33858,20.8796 2,17.5C 1.62325,16.0577 0.789915,15.0577 -0.5,14.5C -0.5,9.5 -0.5,4.5 -0.5,-0.5 Z"/></g>
<g><path style="opacity:1" fill="#6379d9" d="M 19.5,12.5 C 20.2114,14.2014 21.5447,15.2014 23.5,15.5C 23.5,15.8333 23.5,16.1667 23.5,16.5C 21.8632,15.7822 20.1966,15.6155 18.5,16C 18.9147,18.0263 19.9147,19.5263 21.5,20.5C 21.8333,20.5 22.1667,20.5 22.5,20.5C 22.3893,21.1174 22.056,21.6174 21.5,22C 22.7375,22.2321 23.7375,22.7321 24.5,23.5C 24.5,23.8333 24.5,24.1667 24.5,24.5C 21.9165,23.0623 19.5832,23.3956 17.5,25.5C 17.1667,25.5 16.8333,25.5 16.5,25.5C 19.706,22.9845 19.8727,19.9845 17,16.5C 13.9641,19.7044 10.7974,22.7044 7.5,25.5C 7.5,25.1667 7.5,24.8333 7.5,24.5C 11.1667,20.1667 15.1667,16.1667 19.5,12.5 Z"/></g>
<g><path style="opacity:1" fill="#1a1666" d="M 23.5,16.5 C 23.9382,16.4346 24.2716,16.6012 24.5,17C 23.2899,18.0391 22.2899,19.2058 21.5,20.5C 19.9147,19.5263 18.9147,18.0263 18.5,16C 20.1966,15.6155 21.8632,15.7822 23.5,16.5 Z"/></g>
<g><path style="opacity:1" fill="#0e1464" d="M 36.5,5.5 C 45.4758,6.73574 54.4758,6.73574 63.5,5.5C 63.5,9.83333 63.5,14.1667 63.5,18.5C 61.857,18.5198 60.5237,17.8532 59.5,16.5C 59.2635,17.2472 58.9302,18.0805 58.5,19C 55.7076,19.8966 53.0409,21.0633 50.5,22.5C 51.0253,23.1924 51.6919,23.6924 52.5,24C 52.2716,24.3988 51.9382,24.5654 51.5,24.5C 50.5,24.5 49.5,24.5 48.5,24.5C 43.8536,28.8115 39.1869,33.1449 34.5,37.5C 33.3652,35.2933 32.6985,32.9599 32.5,30.5C 30.0401,30.3015 27.7067,29.6348 25.5,28.5C 29.4846,24.0149 33.6513,19.6816 38,15.5C 38.463,12.0196 37.963,8.68627 36.5,5.5 Z"/></g>
<g><path style="opacity:1" fill="#0b146e" d="M 63.5,18.5 C 63.5,29.1667 63.5,39.8333 63.5,50.5C 61.3085,54.2526 57.9751,55.4192 53.5,54C 52.6634,52.9887 52.33,51.8221 52.5,50.5C 50.3792,50.6747 48.3792,50.3414 46.5,49.5C 46.5,49.1667 46.5,48.8333 46.5,48.5C 51.5481,44.4536 55.8814,39.7869 59.5,34.5C 59.6287,28.6923 56.962,25.359 51.5,24.5C 51.9382,24.5654 52.2716,24.3988 52.5,24C 51.6919,23.6924 51.0253,23.1924 50.5,22.5C 53.0409,21.0633 55.7076,19.8966 58.5,19C 58.9302,18.0805 59.2635,17.2472 59.5,16.5C 60.5237,17.8532 61.857,18.5198 63.5,18.5 Z"/></g>
<g><path style="opacity:1" fill="#181666" d="M 24.5,23.5 C 23.7375,22.7321 22.7375,22.2321 21.5,22C 22.056,21.6174 22.3893,21.1174 22.5,20.5C 24.5846,17.5731 25.918,17.9065 26.5,21.5C 26.2528,22.7133 25.5862,23.38 24.5,23.5 Z"/></g>
<g><path style="opacity:1" fill="#7f71e2" d="M 36.5,5.5 C 37.963,8.68627 38.463,12.0196 38,15.5C 33.6513,19.6816 29.4846,24.0149 25.5,28.5C 27.7067,29.6348 30.0401,30.3015 32.5,30.5C 32.6985,32.9599 33.3652,35.2933 34.5,37.5C 39.1869,33.1449 43.8536,28.8115 48.5,24.5C 48.5,25.1667 48.5,25.8333 48.5,26.5C 45.3694,29.1288 42.3694,31.9621 39.5,35C 41.3817,35.1981 43.0484,35.6981 44.5,36.5C 44.5,36.8333 44.5,37.1667 44.5,37.5C 39.3914,35.7923 38.3914,37.1257 41.5,41.5C 42.1835,41.1373 42.8501,40.8039 43.5,40.5C 43.4431,41.609 43.1098,42.609 42.5,43.5C 41.8333,43.5 41.5,43.8333 41.5,44.5C 39.6598,42.3414 38.4932,39.6747 38,36.5C 35.9633,38.7059 33.7966,40.7059 31.5,42.5C 31.5,42.1667 31.5,41.8333 31.5,41.5C 31.6107,40.8826 31.944,40.3826 32.5,40C 29.2378,38.1424 26.2378,38.309 23.5,40.5C 23.5,40.1667 23.5,39.8333 23.5,39.5C 23.9528,38.5416 24.6195,37.7083 25.5,37C 24.4752,34.9285 23.6419,32.7619 23,30.5C 22.6174,31.056 22.1174,31.3893 21.5,31.5C 21.1667,31.5 20.8333,31.5 20.5,31.5C 22.2941,29.2034 24.2941,27.0367 26.5,25C 25.9056,24.5357 25.2389,24.369 24.5,24.5C 24.5,24.1667 24.5,23.8333 24.5,23.5C 25.5862,23.38 26.2528,22.7133 26.5,21.5C 25.918,17.9065 24.5846,17.5731 22.5,20.5C 22.1667,20.5 21.8333,20.5 21.5,20.5C 22.2899,19.2058 23.2899,18.0391 24.5,17C 24.2716,16.6012 23.9382,16.4346 23.5,16.5C 23.5,16.1667 23.5,15.8333 23.5,15.5C 29.7168,14.4046 30.8835,11.4046 27,6.5C 24.8943,9.11771 22.3943,11.1177 19.5,12.5C 20.1667,11.5 20.8333,10.5 21.5,9.5C 23.8478,7.31979 26.3478,5.31979 29,3.5C 31.4966,4.24887 33.9966,4.91553 36.5,5.5 Z"/></g>
<g><path style="opacity:1" fill="#151462" d="M 29.5,13.5 C 31.9892,13.2978 34.3225,13.7978 36.5,15C 33.9841,17.6833 31.3174,20.1833 28.5,22.5C 26.0455,18.9201 26.3789,15.9201 29.5,13.5 Z"/></g>
<g><path style="opacity:1" fill="#11135b" d="M 29.5,5.5 C 34.5438,5.47284 37.2104,7.97284 37.5,13C 32.1581,13.4788 29.4914,10.9788 29.5,5.5 Z"/></g>
<g><path style="opacity:1" fill="#26186b" d="M 16.5,25.5 C 14.8712,26.6253 13.3712,27.9586 12,29.5C 10.6012,28.7734 9.10119,28.2734 7.5,28C 6.40191,27.2303 6.40191,26.397 7.5,25.5C 10.7974,22.7044 13.9641,19.7044 17,16.5C 19.8727,19.9845 19.706,22.9845 16.5,25.5 Z"/></g>
<g><path style="opacity:1" fill="#1f1669" d="M 24.5,24.5 C 25.2389,24.369 25.9056,24.5357 26.5,25C 24.2941,27.0367 22.2941,29.2034 20.5,31.5C 18.5,32.8333 16.8333,34.5 15.5,36.5C 14.4675,35.0883 13.8008,33.4216 13.5,31.5C 14.4316,29.2345 15.7649,27.2345 17.5,25.5C 19.5832,23.3956 21.9165,23.0623 24.5,24.5 Z"/></g>
<g><path style="opacity:1" fill="#1e1b6f" d="M 23.5,39.5 C 20.9412,39.6104 18.6079,38.9438 16.5,37.5C 18.1897,35.4807 19.8564,33.4807 21.5,31.5C 22.1174,31.3893 22.6174,31.056 23,30.5C 23.6419,32.7619 24.4752,34.9285 25.5,37C 24.6195,37.7083 23.9528,38.5416 23.5,39.5 Z"/></g>
<g><path style="opacity:1" fill="#19196e" d="M 24.5,31.5 C 30.8877,30.4817 31.5544,31.8151 26.5,35.5C 25.8281,34.0508 25.1614,32.7175 24.5,31.5 Z"/></g>
<g><path style="opacity:1" fill="#151669" d="M 30.5,33.5 C 33.5056,37.9891 32.5056,39.1558 27.5,37C 28.7101,35.9609 29.7101,34.7942 30.5,33.5 Z"/></g>
<g><path style="opacity:1" fill="#121670" d="M 48.5,26.5 C 49.6787,29.3709 49.6787,32.2043 48.5,35C 51.5698,34.0076 54.5698,34.3409 57.5,36C 54.9841,38.6833 52.3174,41.1833 49.5,43.5C 48.0562,41.3921 47.3896,39.0588 47.5,36.5C 46.5,36.5 45.5,36.5 44.5,36.5C 43.0484,35.6981 41.3817,35.1981 39.5,35C 42.3694,31.9621 45.3694,29.1288 48.5,26.5 Z"/></g>
<g><path style="opacity:1" fill="#341d75" d="M -0.5,14.5 C 0.789915,15.0577 1.62325,16.0577 2,17.5C 2.33858,20.8796 2.83858,24.2129 3.5,27.5C 3.25553,34.2308 6.42219,37.8974 13,38.5C 14.0299,38.8361 14.5299,39.5028 14.5,40.5C 12.8008,40.3398 11.1341,40.5065 9.5,41C 10.5536,42.3876 10.7203,43.8876 10,45.5C 7.90667,47.7778 6.40667,50.4445 5.5,53.5C 4.52242,53.9767 3.68909,54.6433 3,55.5C 2.66667,54.1667 2.33333,52.8333 2,51.5C 1.58309,52.756 0.749754,53.4226 -0.5,53.5C -0.5,40.5 -0.5,27.5 -0.5,14.5 Z"/></g>
<g><path style="opacity:1" fill="#1b1a74" d="M 44.5,37.5 C 44.4431,38.609 44.1098,39.609 43.5,40.5C 42.8501,40.8039 42.1835,41.1373 41.5,41.5C 38.3914,37.1257 39.3914,35.7923 44.5,37.5 Z"/></g>
<g><path style="opacity:1" fill="#171669" d="M 31.5,41.5 C 29.5193,43.1436 27.5193,44.8103 25.5,46.5C 24.5233,44.5891 23.8567,42.5891 23.5,40.5C 26.2378,38.309 29.2378,38.1424 32.5,40C 31.944,40.3826 31.6107,40.8826 31.5,41.5 Z"/></g>
<g><path style="opacity:1" fill="#1f196e" d="M 15.5,39.5 C 17.8056,39.9926 20.139,40.3259 22.5,40.5C 22.6204,42.1986 22.9537,43.8653 23.5,45.5C 23.1237,47.8034 22.1237,48.1368 20.5,46.5C 17.2314,45.4403 15.5647,43.1069 15.5,39.5 Z"/></g>
<g><path style="opacity:1" fill="#648feb" d="M 20.5,31.5 C 20.8333,31.5 21.1667,31.5 21.5,31.5C 19.8564,33.4807 18.1897,35.4807 16.5,37.5C 18.6079,38.9438 20.9412,39.6104 23.5,39.5C 23.5,39.8333 23.5,40.1667 23.5,40.5C 23.8567,42.5891 24.5233,44.5891 25.5,46.5C 27.5193,44.8103 29.5193,43.1436 31.5,41.5C 31.5,41.8333 31.5,42.1667 31.5,42.5C 30.0401,44.4628 28.3734,46.2962 26.5,48C 26.7284,48.3988 27.0618,48.5654 27.5,48.5C 27.5,48.8333 27.5,49.1667 27.5,49.5C 26.7611,49.369 26.0944,49.5357 25.5,50C 26.4059,52.2213 27.4059,54.3879 28.5,56.5C 28.5,56.8333 28.5,57.1667 28.5,57.5C 26.4747,55.146 24.808,52.4793 23.5,49.5C 22.5,48.8333 21.5,48.1667 20.5,47.5C 20.5,47.1667 20.5,46.8333 20.5,46.5C 22.1237,48.1368 23.1237,47.8034 23.5,45.5C 22.9537,43.8653 22.6204,42.1986 22.5,40.5C 20.139,40.3259 17.8056,39.9926 15.5,39.5C 15.5,38.5 15.5,37.5 15.5,36.5C 16.8333,34.5 18.5,32.8333 20.5,31.5 Z"/></g>
<g><path style="opacity:1" fill="#11156d" d="M 42.5,43.5 C 43.1098,42.609 43.4431,41.609 43.5,40.5C 44.4959,40.5858 45.3292,40.2524 46,39.5C 48.37,44.0325 47.2034,45.3658 42.5,43.5 Z"/></g>
<g><path style="opacity:1" fill="#9c6eed" d="M 48.5,24.5 C 49.5,24.5 50.5,24.5 51.5,24.5C 56.962,25.359 59.6287,28.6923 59.5,34.5C 55.8814,39.7869 51.5481,44.4536 46.5,48.5C 46.5,48.1667 46.5,47.8333 46.5,47.5C 46.6107,46.8826 46.944,46.3826 47.5,46C 45.5643,45.187 43.5643,44.687 41.5,44.5C 41.5,43.8333 41.8333,43.5 42.5,43.5C 47.2034,45.3658 48.37,44.0325 46,39.5C 45.3292,40.2524 44.4959,40.5858 43.5,40.5C 44.1098,39.609 44.4431,38.609 44.5,37.5C 44.5,37.1667 44.5,36.8333 44.5,36.5C 45.5,36.5 46.5,36.5 47.5,36.5C 47.3896,39.0588 48.0562,41.3921 49.5,43.5C 52.3174,41.1833 54.9841,38.6833 57.5,36C 54.5698,34.3409 51.5698,34.0076 48.5,35C 49.6787,32.2043 49.6787,29.3709 48.5,26.5C 48.5,25.8333 48.5,25.1667 48.5,24.5 Z"/></g>
<g><path style="opacity:1" fill="#141673" d="M 50.5,26.5 C 52.2624,26.3573 53.9291,26.6906 55.5,27.5C 60.235,34.0353 59.235,35.702 52.5,32.5C 50.9137,30.8273 50.2471,28.8273 50.5,26.5 Z"/></g>
<g><path style="opacity:1" fill="#53a7ef" d="M 7.5,24.5 C 7.5,24.8333 7.5,25.1667 7.5,25.5C 6.40191,26.397 6.40191,27.2303 7.5,28C 9.10119,28.2734 10.6012,28.7734 12,29.5C 13.3712,27.9586 14.8712,26.6253 16.5,25.5C 16.8333,25.5 17.1667,25.5 17.5,25.5C 15.7649,27.2345 14.4316,29.2345 13.5,31.5C 13.8008,33.4216 14.4675,35.0883 15.5,36.5C 15.5,37.5 15.5,38.5 15.5,39.5C 15.5647,43.1069 17.2314,45.4403 20.5,46.5C 20.5,46.8333 20.5,47.1667 20.5,47.5C 18.8561,47.7135 17.3561,47.3802 16,46.5C 15.4954,44.4817 14.9954,42.4817 14.5,40.5C 14.5299,39.5028 14.0299,38.8361 13,38.5C 6.42219,37.8974 3.25553,34.2308 3.5,27.5C 4.83333,26.5 6.16667,25.5 7.5,24.5 Z"/></g>
<g><path style="opacity:1" fill="#281b70" d="M 11.5,31.5 C 15.0121,37.3485 14.0121,38.5152 8.5,35C 9.7101,33.9609 10.7101,32.7942 11.5,31.5 Z"/></g>
<g><path style="opacity:1" fill="#291c71" d="M 5.5,29.5 C 11.417,29.5798 11.917,31.2464 7,34.5C 6.39233,32.8455 5.89233,31.1789 5.5,29.5 Z"/></g>
<g><path style="opacity:1" fill="#14176b" d="M 41.5,44.5 C 43.5643,44.687 45.5643,45.187 47.5,46C 46.944,46.3826 46.6107,46.8826 46.5,47.5C 42.8691,50.6293 39.3691,53.9626 36,57.5C 35.3988,55.8632 34.8988,54.1966 34.5,52.5C 35.3877,50.845 35.8877,49.1783 36,47.5C 33.4149,49.7355 30.5815,50.0688 27.5,48.5C 27.0618,48.5654 26.7284,48.3988 26.5,48C 28.3734,46.2962 30.0401,44.4628 31.5,42.5C 33.7966,40.7059 35.9633,38.7059 38,36.5C 38.4932,39.6747 39.6598,42.3414 41.5,44.5 Z"/></g>
<g><path style="opacity:1" fill="#27196b" d="M 14.5,40.5 C 14.9954,42.4817 15.4954,44.4817 16,46.5C 17.3561,47.3802 18.8561,47.7135 20.5,47.5C 21.5,48.1667 22.5,48.8333 23.5,49.5C 21.5395,50.4478 19.5395,50.6145 17.5,50C 15.3485,52.4689 13.8485,55.3022 13,58.5C 10.8381,61.3275 8.17142,62.3275 5,61.5C 4.53566,62.0944 4.36899,62.7611 4.5,63.5C 2.83333,63.5 1.16667,63.5 -0.5,63.5C -0.5,60.1667 -0.5,56.8333 -0.5,53.5C 0.749754,53.4226 1.58309,52.756 2,51.5C 2.33333,52.8333 2.66667,54.1667 3,55.5C 3.68909,54.6433 4.52242,53.9767 5.5,53.5C 6.40667,50.4445 7.90667,47.7778 10,45.5C 10.7203,43.8876 10.5536,42.3876 9.5,41C 11.1341,40.5065 12.8008,40.3398 14.5,40.5 Z"/></g>
<g><path style="opacity:1" fill="#6d74dd" d="M 46.5,47.5 C 46.5,47.8333 46.5,48.1667 46.5,48.5C 46.5,48.8333 46.5,49.1667 46.5,49.5C 43.0359,52.4625 39.7025,55.6291 36.5,59C 33.5806,59.4326 30.914,58.9326 28.5,57.5C 28.5,57.1667 28.5,56.8333 28.5,56.5C 34.295,58.7784 35.6284,57.4451 32.5,52.5C 30.8974,51.2066 29.2307,50.2066 27.5,49.5C 27.5,49.1667 27.5,48.8333 27.5,48.5C 30.5815,50.0688 33.4149,49.7355 36,47.5C 35.8877,49.1783 35.3877,50.845 34.5,52.5C 34.8988,54.1966 35.3988,55.8632 36,57.5C 39.3691,53.9626 42.8691,50.6293 46.5,47.5 Z"/></g>
<g><path style="opacity:1" fill="#131463" d="M 23.5,49.5 C 24.808,52.4793 26.4747,55.146 28.5,57.5C 30.914,58.9326 33.5806,59.4326 36.5,59C 39.7025,55.6291 43.0359,52.4625 46.5,49.5C 48.3792,50.3414 50.3792,50.6747 52.5,50.5C 52.33,51.8221 52.6634,52.9887 53.5,54C 57.9751,55.4192 61.3085,54.2526 63.5,50.5C 63.5,54.8333 63.5,59.1667 63.5,63.5C 43.8333,63.5 24.1667,63.5 4.5,63.5C 4.36899,62.7611 4.53566,62.0944 5,61.5C 8.17142,62.3275 10.8381,61.3275 13,58.5C 13.8485,55.3022 15.3485,52.4689 17.5,50C 19.5395,50.6145 21.5395,50.4478 23.5,49.5 Z"/></g>
<g><path style="opacity:1" fill="#262c81" d="M 27.5,49.5 C 29.2307,50.2066 30.8974,51.2066 32.5,52.5C 35.6284,57.4451 34.295,58.7784 28.5,56.5C 27.4059,54.3879 26.4059,52.2213 25.5,50C 26.0944,49.5357 26.7611,49.369 27.5,49.5 Z"/></g>
</svg>
