<?xml version="1.0" encoding="UTF-8"?>
<!DOCTYPE svg PUBLIC "-//W3C//DTD SVG 1.1//EN" "http://www.w3.org/Graphics/SVG/1.1/DTD/svg11.dtd">
<svg xmlns="http://www.w3.org/2000/svg" version="1.1" width="64px" height="64px" style="shape-rendering:geometricPrecision; text-rendering:geometricPrecision; image-rendering:optimizeQuality; fill-rule:evenodd; clip-rule:evenodd" xmlns:xlink="http://www.w3.org/1999/xlink">
<g><path style="opacity:0.997" fill="#b3c9e2" d="M 30.5,-0.5 C 30.8333,-0.5 31.1667,-0.5 31.5,-0.5C 31.5,5.83333 31.5,12.1667 31.5,18.5C 32.1667,20.5 32.8333,22.5 33.5,24.5C 33.5912,26.6977 32.9245,27.0311 31.5,25.5C 29.7659,24.438 28.0992,24.438 26.5,25.5C 25.6109,23.264 24.2776,21.264 22.5,19.5C 23.8146,17.8014 23.8146,16.1347 22.5,14.5C 25.4212,9.65874 28.0879,4.65874 30.5,-0.5 Z"/></g>
<g><path style="opacity:0.995" fill="#deeef3" d="M 31.5,-0.5 C 31.8333,-0.5 32.1667,-0.5 32.5,-0.5C 34.8995,4.6318 37.5662,9.6318 40.5,14.5C 40.1667,15.1667 39.8333,15.8333 39.5,16.5C 36.7334,16.8583 34.0667,17.525 31.5,18.5C 31.5,12.1667 31.5,5.83333 31.5,-0.5 Z"/></g>
<g><path style="opacity:1" fill="#96a7e2" d="M 40.5,14.5 C 43.8494,14.8731 44.8494,16.5398 43.5,19.5C 41.0274,19.9118 39.6941,18.9118 39.5,16.5C 39.8333,15.8333 40.1667,15.1667 40.5,14.5 Z"/></g>
<g><path style="opacity:1" fill="#a8afe7" d="M 22.5,14.5 C 23.8146,16.1347 23.8146,17.8014 22.5,19.5C 24.2776,21.264 25.6109,23.264 26.5,25.5C 25.609,26.1098 24.609,26.4431 23.5,26.5C 22.8407,23.5918 22.0074,23.2584 21,25.5C 20.187,23.5643 19.687,21.5643 19.5,19.5C 17.7162,16.1919 18.7162,14.5253 22.5,14.5 Z"/></g>
<g><path style="opacity:0.994" fill="#b7dcf4" d="M 39.5,16.5 C 39.6941,18.9118 41.0274,19.9118 43.5,19.5C 46.0692,22.961 48.4026,26.6277 50.5,30.5C 47.4061,29.7866 44.4061,28.7866 41.5,27.5C 41.3364,21.8333 41.0031,21.5 40.5,26.5C 38.079,26.1218 35.7457,25.4552 33.5,24.5C 32.8333,22.5 32.1667,20.5 31.5,18.5C 34.0667,17.525 36.7334,16.8583 39.5,16.5 Z"/></g>
<g><path style="opacity:1" fill="#a799ef" d="M 19.5,19.5 C 19.687,21.5643 20.187,23.5643 21,25.5C 22.0074,23.2584 22.8407,23.5918 23.5,26.5C 19.9459,28.1089 16.2793,29.4422 12.5,30.5C 14.5974,26.6277 16.9308,22.961 19.5,19.5 Z"/></g>
<g><path style="opacity:1" fill="#dadcf8" d="M 31.5,25.5 C 31.5,31.1667 31.5,36.8333 31.5,42.5C 28.605,41.6006 25.9384,40.2672 23.5,38.5C 24.5624,37.4246 24.5624,36.4246 23.5,35.5C 22.0052,34.2947 20.6719,34.2947 19.5,35.5C 16.4024,34.7841 13.7357,33.2841 11.5,31C 11.7284,30.6012 12.0618,30.4346 12.5,30.5C 16.2793,29.4422 19.9459,28.1089 23.5,26.5C 24.609,26.4431 25.609,26.1098 26.5,25.5C 28.0992,24.438 29.7659,24.438 31.5,25.5 Z"/></g>
<g><path style="opacity:0.977" fill="#f9faf6" d="M 41.5,27.5 C 44.4061,28.7866 47.4061,29.7866 50.5,30.5C 49.0525,33.264 46.7191,34.9307 43.5,35.5C 41.631,33.3647 40.9644,30.6981 41.5,27.5 Z"/></g>
<g><path style="opacity:1" fill="#ecf0f2" d="M 33.5,24.5 C 35.7457,25.4552 38.079,26.1218 40.5,26.5C 40.7305,29.6944 40.0638,32.6944 38.5,35.5C 38.685,36.5837 39.0183,37.5837 39.5,38.5C 36.8068,39.8466 34.1401,41.1799 31.5,42.5C 31.5,36.8333 31.5,31.1667 31.5,25.5C 32.9245,27.0311 33.5912,26.6977 33.5,24.5 Z"/></g>
<g><path style="opacity:1" fill="#a9b4e8" d="M 41.5,27.5 C 40.9644,30.6981 41.631,33.3647 43.5,35.5C 43.3059,37.9118 41.9726,38.9118 39.5,38.5C 39.0183,37.5837 38.685,36.5837 38.5,35.5C 40.0638,32.6944 40.7305,29.6944 40.5,26.5C 41.0031,21.5 41.3364,21.8333 41.5,27.5 Z"/></g>
<g><path style="opacity:0.941" fill="#6d87d4" d="M 28.5,44.5 C 27.2213,47.1117 25.5547,49.4451 23.5,51.5C 19.3636,46.519 15.3636,41.3523 11.5,36C 17.3263,38.2464 22.993,41.0798 28.5,44.5 Z"/></g>
<g><path style="opacity:1" fill="#91a3e0" d="M 23.5,38.5 C 22.1667,38.5 20.8333,38.5 19.5,38.5C 19.5,37.5 19.5,36.5 19.5,35.5C 20.6719,34.2947 22.0052,34.2947 23.5,35.5C 24.5624,36.4246 24.5624,37.4246 23.5,38.5 Z"/></g>
<g><path style="opacity:0.971" fill="#c6c8f9" d="M 32.5,63.5 C 32.1667,63.5 31.8333,63.5 31.5,63.5C 31.5,57.5 31.5,51.5 31.5,45.5C 37.8519,42.573 44.0186,39.2396 50,35.5C 50.1667,35.8333 50.3333,36.1667 50.5,36.5C 44.2315,45.3852 38.2315,54.3852 32.5,63.5 Z"/></g>
<g><path style="opacity:0.986" fill="#6880eb" d="M 28.5,44.5 C 29.391,45.1098 30.391,45.4431 31.5,45.5C 31.5,51.5 31.5,57.5 31.5,63.5C 31.1667,63.5 30.8333,63.5 30.5,63.5C 28.1391,59.4828 25.8058,55.4828 23.5,51.5C 25.5547,49.4451 27.2213,47.1117 28.5,44.5 Z"/></g>
</svg>
