<!-- by TradingView --><svg width="56" height="56" viewBox="0 0 56 56" xmlns="http://www.w3.org/2000/svg"><path fill="#1552EF" d="M0 0h56v56H0z"/><path d="M38.88 24H35c-.06 0-.1.04-.1.09 0 .05.04.1.1.1h3.88c.05 0 .1-.05.1-.1s-.05-.09-.1-.09ZM14.96 24h2.9c.05 0 .09.04.09.1 0 .04-.04.08-.1.08h-2.89c-.05 0-.1-.04-.1-.08 0-.06.05-.1.1-.1ZM7.96 24h5.88c.05 0 .09.04.09.1 0 .04-.04.08-.1.08H7.97c-.05 0-.1-.04-.1-.09 0-.05.05-.08.1-.08ZM23.86 24h-3.9c-.05 0-.09.05-.09.1 0 .04.04.08.1.08h3.89c.05 0 .1-.04.1-.08 0-.05-.05-.1-.1-.1ZM25.98 24h7.9c.05 0 .1.04.1.1 0 .04-.05.08-.1.08h-7.9c-.05 0-.1-.04-.1-.08 0-.06.05-.1.1-.1ZM41 24h3.88c.05 0 .1.04.1.1 0 .04-.05.08-.1.08h-3.89c-.05 0-.1-.04-.1-.09 0-.05.05-.08.1-.08ZM46.9 24H46c-.04 0-.08.04-.08.09v.01c0 .05.04.08.08.08h.9c.05 0 .09-.04.09-.08v-.02c0-.04-.04-.08-.09-.08ZM50.02 24h1.89c.05 0 .09.04.09.09 0 .05-.04.09-.09.09h-1.89c-.05 0-.09-.04-.09-.09 0-.05.04-.08.1-.08ZM18.42 24.49c-.06 0-.1.04-.1.1l-.02 1.5c0 .05.05.09.1.09h.01c.06 0 .1-.04.1-.1l.01-1.5c0-.05-.04-.09-.1-.09ZM19.4 24.5h.01c.07 0 .11.04.11.1v1.45c0 .06-.05.1-.1.1h-.02c-.06 0-.1-.04-.1-.1V24.6c0-.06.05-.1.1-.1ZM39.47 24.5h-.03c-.06 0-.1.04-.1.1v1.45c0 .05.04.09.1.09h.02c.06 0 .1-.04.1-.09v-1.46c0-.05-.04-.09-.1-.09ZM46.45 24.53h.02c.04 0 .07.02.07.06v1.47c0 .03-.03.06-.07.06h-.02c-.04 0-.07-.03-.07-.06v-1.47c0-.04.03-.07.07-.06ZM33.74 24.65c-.05-.02-.1 0-.12.04l-.56 1.19c-.02.04 0 .09.05.1.04.02.1 0 .12-.04l.56-1.18c.02-.04 0-.1-.05-.1ZM36.75 24.64c.05.02.07.07.05.12l-.56 1.18a.1.1 0 0 1-.12.04c-.06-.02-.08-.07-.06-.11l.57-1.18c.02-.05.07-.07.12-.05ZM7.68 24.67c-.05-.02-.1 0-.12.04l-.55 1.16c-.01.04 0 .09.05.1.04.02.1 0 .11-.03l.55-1.17c.02-.04 0-.08-.04-.1ZM13.69 24.66c.05.02.07.06.05.1l-.56 1.19a.08.08 0 0 1-.1.03h-.02c-.04-.02-.06-.06-.04-.1l.56-1.19c.02-.03.07-.05.1-.03ZM14.7 24.66h-.01a.09.09 0 0 0-.11.04l-.56 1.17c-.01.04 0 .09.05.1.05.03.1 0 .11-.03l.56-1.18c.02-.04 0-.08-.04-.1ZM24.12 24.67l.03-.02c.04-.01.08 0 .1.04l.56 1.2c.01.03 0 .07-.04.08l-.03.02c-.03.01-.08 0-.1-.04l-.56-1.2c-.01-.03 0-.07.04-.08ZM25.72 24.65c-.04-.02-.1 0-.11.04l-.56 1.18c-.02.04 0 .09.04.1.05.02.1 0 .12-.03l.56-1.19c.02-.04 0-.08-.05-.1ZM31.73 24.65c.05.02.07.07.05.1l-.55 1.17c-.02.04-.07.06-.12.04-.04-.02-.06-.06-.04-.1l.55-1.17a.09.09 0 0 1 .11-.04ZM34.74 24.64c-.05-.02-.1 0-.12.05l-.56 1.19c-.02.04 0 .09.05.1.04.03.1 0 .12-.03l.56-1.2c.02-.04 0-.09-.05-.1ZM40.74 24.64c.05.02.06.07.05.1l-.57 1.2c-.02.04-.07.06-.1.04h-.01c-.05-.02-.07-.06-.05-.1l.57-1.2c.01-.04.06-.05.1-.04ZM43.74 24.66a.08.08 0 0 0-.11.04l-.56 1.18c-.02.04 0 .09.04.1.05.02.1 0 .11-.04l.56-1.18c.02-.04 0-.09-.04-.1ZM47.74 24.66c.05.02.06.06.05.1l-.55 1.18c-.02.03-.07.05-.1.04h-.01c-.04-.02-.06-.06-.04-.1l.55-1.18c.01-.04.06-.06.1-.04ZM49.76 24.65h-.01c-.04-.02-.09 0-.1.04l-.57 1.2c-.02.04 0 .08.04.1h.01c.04.02.09 0 .1-.04l.57-1.2c.02-.04 0-.08-.04-.1ZM21.96 25.97h.92c.05 0 .09.03.09.08s-.04.1-.1.1h-.9c-.06 0-.1-.05-.1-.1s.04-.08.1-.08ZM26.9 25.97h-.94c-.05 0-.08.04-.08.08 0 .05.04.09.08.09l.93-.01c.05 0 .09-.04.09-.08 0-.05-.04-.08-.09-.08ZM35 25.97h.89c.05 0 .09.03.09.08s-.04.09-.1.09H35c-.05 0-.1-.04-.1-.09 0-.05.05-.08.1-.08ZM12.89 25.97H8.93c-.04 0-.08.04-.08.08 0 .05.04.08.08.08h3.96c.04 0 .08-.04.08-.08 0-.05-.04-.08-.08-.08ZM28.97 25.98h1.93c.04 0 .08.02.08.06 0 .05-.04.08-.08.08h-1.93c-.05 0-.08-.02-.08-.06 0-.05.03-.08.08-.08ZM18.42 26.41c-.07 0-.11.05-.11.1v1.51c0 .05.04.1.1.1.06 0 .1-.05.1-.1v-1.51c0-.05-.04-.1-.1-.1ZM19.4 26.44h.01c.06 0 .11.04.11.1V28c0 .06-.05.1-.1.1h-.01c-.07 0-.12-.04-.12-.1v-1.46c0-.06.05-.1.12-.1ZM25.43 26.44c-.06 0-.1.04-.1.1L25.31 28c0 .05.04.1.1.1.06 0 .1-.05.1-.1v-1.47c0-.05-.04-.09-.1-.09ZM28.44 26.45c.07 0 .12.04.11.1v1.44c0 .05-.05.1-.11.1-.07 0-.12-.05-.12-.1l.01-1.44c0-.06.05-.1.11-.1ZM16.41 26.45c-.05 0-.1.04-.1.08V28c0 .04.04.08.1.08.05 0 .1-.04.1-.08v-1.47c0-.04-.05-.08-.1-.08ZM21.41 26.45h.01c.05 0 .1.04.1.08L21.5 28c0 .04-.04.08-.09.08h-.01c-.05 0-.09-.04-.09-.08v-1.47c0-.04.04-.08.1-.08ZM26.44 26.45h-.02c-.05 0-.09.03-.09.08V28c0 .05.04.08.09.08h.02c.05 0 .08-.03.08-.08v-1.47c0-.05-.03-.08-.08-.08ZM39.44 26.45c.06 0 .1.04.1.1v1.44c0 .05-.04.1-.1.1-.06 0-.1-.05-.1-.1v-1.45c0-.05.04-.09.1-.09ZM46.46 26.45c-.05 0-.08.03-.08.08V28c0 .04.03.08.08.08s.08-.04.08-.08v-1.47c0-.05-.03-.08-.08-.08ZM23.31 28.06c.25-.24.38-.49.37-.75 0-.26-.12-.51-.37-.75a.07.07 0 0 0-.07-.01l-.06.02c-.03.01-.04.03-.02.06.21.27.31.5.31.68 0 .18-.1.4-.31.68-.02.02-.01.04.02.06l.06.02c.03.01.05 0 .07-.01ZM6.68 26.62c-.05-.02-.1 0-.12.04l-.55 1.16c-.02.04 0 .09.04.1.05.02.1 0 .12-.03l.55-1.17c.02-.04 0-.09-.04-.1ZM8.67 26.6l.01.01c.05.02.07.06.05.1l-.56 1.2c-.02.03-.07.05-.1.04h-.02c-.04-.02-.06-.07-.04-.11l.55-1.2c.02-.03.07-.05.11-.03ZM13.7 26.62h-.02c-.04-.02-.1 0-.1.04l-.56 1.18c-.02.03 0 .08.04.1h.01c.05.02.1 0 .11-.04l.55-1.18c.02-.04 0-.08-.04-.1ZM15.7 26.6c.05.02.07.07.05.11l-.55 1.18c-.02.05-.08.07-.13.05-.05-.02-.07-.07-.05-.12l.55-1.18c.02-.04.08-.06.13-.04ZM30.74 26.6h-.02c-.04-.02-.09 0-.1.04l-.57 1.19c-.02.04 0 .09.04.1h.02c.04.03.1 0 .11-.03l.56-1.2c.02-.03 0-.08-.04-.1ZM36.74 26.6c.05.02.07.07.05.11l-.56 1.18a.1.1 0 0 1-.12.04c-.05-.02-.07-.07-.05-.11l.56-1.18c.02-.04.08-.06.12-.04ZM38.74 26.6c-.05-.02-.1 0-.12.04l-.56 1.2c-.02.04 0 .1.05.11.05.02.1 0 .12-.04l.56-1.2c.02-.04 0-.09-.05-.1ZM41.61 26.66l-.55 1.2c-.02.04-.05.06-.09.06h-.96c-.05 0-.08.02-.1.05l-.02.05c-.02.04 0 .07.05.07h.92c.06 0 .1-.03.11-.07l.02-.04a.08.08 0 0 1 .07-.05c.11 0 .2-.07.25-.18l.48-1.08c.02-.03 0-.05-.03-.05h-.08c-.03 0-.05.01-.07.04ZM43.75 26.62h-.02c-.04-.02-.08 0-.1.03l-.57 1.2c-.01.03 0 .07.04.08l.02.01c.04.01.08 0 .1-.03l.56-1.2c.02-.03 0-.07-.03-.09ZM45.75 26.6c.05.02.07.06.05.1l-.58 1.21c-.02.04-.07.06-.1.04h-.02c-.04-.02-.06-.07-.04-.1l.58-1.21a.09.09 0 0 1 .1-.04ZM50.75 26.6h.02c.04.02.05.06.04.1l-.58 1.2c-.01.04-.06.06-.1.04h-.01c-.04-.02-.06-.06-.04-.1l.57-1.2c.02-.04.06-.06.1-.05ZM33.33 27.3c0 .03.01.05.03.06.14.08.27.17.38.28.02.02.02.04 0 .07l-.04.04c-.02.03-.04.03-.06.01l-.58-.43v-.06l.58-.41c.03-.02.05-.02.07 0l.04.05c.02.02.02.05 0 .07-.12.1-.24.2-.39.27a.05.05 0 0 0-.03.05ZM32.3 27.6v.14c0 .03-.02.06-.06.07-.07.02-.12.06-.13.1-.01.05 0 .07.05.09.22.04.37-.04.46-.26a.16.16 0 0 0 0-.14.18.18 0 0 0-.13-.1.3.3 0 0 0-.1 0c-.06 0-.09.04-.09.1ZM18.42 28.38c-.07 0-.12.04-.12.1v1.48c0 .06.05.1.12.1.06 0 .11-.04.11-.1v-1.48c0-.06-.05-.1-.11-.1ZM19.4 28.38h.02c.06 0 .1.04.1.1l.01 1.47c0 .06-.05.1-.1.1h-.03c-.06 0-.1-.04-.1-.1l-.01-1.48c0-.05.04-.1.1-.1ZM26.43 28.39c-.06 0-.1.03-.1.08v1.5c0 .04.05.08.1.08.06 0 .1-.04.1-.08v-1.5c0-.05-.05-.08-.1-.08ZM28.42 28.39h.04c.05 0 .1.04.1.08l-.01 1.5c0 .04-.04.08-.1.08h-.04c-.05 0-.09-.04-.09-.09v-1.49c0-.04.05-.08.1-.08ZM32.45 28.39c-.06 0-.1.04-.1.08l-.01 1.5c0 .04.04.08.1.08.05 0 .1-.04.1-.08v-1.5c0-.04-.04-.08-.1-.08ZM34.43 28.39h.02c.06 0 .11.04.11.1v1.46c0 .05-.05.1-.1.1h-.03c-.06 0-.11-.05-.11-.1v-1.47c0-.05.05-.1.1-.1ZM5.68 28.57c-.05-.02-.1 0-.12.03l-.54 1.16c-.02.04 0 .08.04.1.05.02.1 0 .11-.04l.55-1.16c.02-.03 0-.08-.04-.1ZM9.68 28.56c.05.02.07.07.05.1l-.55 1.18c-.02.04-.07.05-.11.04-.05-.02-.07-.07-.05-.1l.55-1.18c.02-.04.07-.05.11-.04ZM12.68 28.59c-.05-.02-.1 0-.12.04l-.53 1.14c-.02.03 0 .08.04.1.05.02.1 0 .12-.04l.53-1.14c.02-.04 0-.09-.04-.1ZM29.72 28.56h.02c.04.02.06.07.04.11l-.56 1.17c-.02.04-.07.06-.11.04h-.01c-.05-.03-.07-.07-.05-.11l.56-1.17a.09.09 0 0 1 .11-.04ZM31.73 28.57a.1.1 0 0 0-.12.04l-.55 1.15c-.02.04 0 .09.05.1.05.03.1 0 .12-.04l.55-1.14c.02-.05 0-.1-.05-.11ZM35.73 28.56c.06.02.08.07.06.12l-.55 1.15c-.02.04-.07.06-.12.05-.05-.02-.07-.08-.05-.12l.54-1.15a.1.1 0 0 1 .12-.05ZM37.74 28.57c-.05-.02-.1 0-.12.04l-.54 1.15c-.02.04 0 .09.04.1.05.03.1 0 .12-.03l.54-1.15c.02-.04 0-.1-.04-.11ZM40.73 28.56c.05.01.07.06.05.1l-.55 1.17c-.02.04-.07.06-.1.04h-.01c-.04-.02-.06-.06-.05-.1l.55-1.18c.02-.03.07-.05.11-.03ZM42.73 28.58c-.04-.02-.1 0-.1.03l-.56 1.16c-.01.04 0 .08.05.1.04.02.1 0 .11-.04l.55-1.16c.01-.03 0-.08-.05-.1ZM44.7 28.56l.08.04c.02 0 .03.02.02.04l-.58 1.23c-.01.01-.03.02-.05.01l-.09-.03c-.02-.01-.02-.03-.02-.05l.59-1.22c0-.02.03-.03.04-.02ZM47.74 28.58c-.05-.02-.1 0-.11.03l-.54 1.15c-.02.04 0 .09.04.1.05.02.1 0 .12-.04l.53-1.14c.02-.04 0-.09-.04-.1ZM49.75 28.57c.05.02.07.06.05.1l-.56 1.17a.08.08 0 0 1-.1.03h-.01c-.05-.01-.06-.06-.05-.1l.57-1.17c.01-.03.06-.05.1-.03ZM24.04 29.25v-.02l.58-.42c.02-.01.05-.01.06.01l.05.05c.02.02.01.04 0 .06-.12.11-.24.2-.39.28l-.02.05c0 .02 0 .04.02.05.15.08.27.17.38.28.02.02.02.04 0 .06l-.04.05c-.01.02-.04.03-.06 0l-.58-.41v-.04ZM21.98 29.84h.87c.06 0 .1.05.1.1v.02c0 .05-.04.1-.1.1l-.87-.01c-.06 0-.1-.05-.1-.1v-.01c0-.05.04-.1.1-.1ZM8.82 29.86H6.95c-.06 0-.1.03-.1.09 0 .05.04.1.1.1h1.87c.06 0 .1-.05.1-.1s-.04-.1-.1-.1ZM13.96 29.85h2.9c.05 0 .1.05.1.1s-.05.1-.1.1l-2.9-.01c-.06 0-.1-.04-.1-.1 0-.05.04-.09.1-.09ZM18.44 30.34h-.04c-.05 0-.1.04-.1.09v1.48c0 .05.04.09.1.09h.03c.06 0 .1-.04.1-.09v-1.48c0-.05-.04-.09-.09-.09ZM20.4 30.34h.01c.05 0 .1.04.1.09v1.48c0 .05-.05.09-.1.09-.06 0-.1-.04-.1-.09v-1.48c0-.05.04-.1.1-.1ZM32.45 30.35h-.02c-.05 0-.09.04-.09.08v1.48c0 .05.05.09.1.09.06 0 .1-.04.1-.09v-1.48c0-.04-.04-.08-.1-.08ZM16.4 30.35h.01c.05 0 .1.04.1.08v1.48c0 .05-.05.09-.1.09s-.1-.04-.1-.09v-1.48c0-.04.05-.08.1-.08ZM25.43 30.35h-.02c-.05 0-.1.04-.1.1v1.46c0 .05.05.09.1.09h.02c.05 0 .1-.04.1-.09v-1.47c0-.05-.05-.09-.1-.09ZM4.66 30.52l.02.01c.04.01.05.05.04.08l-.56 1.18c-.01.03-.06.05-.09.03h-.03c-.03-.02-.05-.06-.03-.1l.55-1.17c.02-.03.06-.04.1-.03ZM5.91 31.82c.04 0 .07-.02.09-.05l.55-1.2c.01-.02.03-.03.06-.03h.08c.05 0 .06.01.04.05l-.49 1.07a.28.28 0 0 1-.25.18.07.07 0 0 0-.06.04l-.02.04c-.02.05-.06.07-.1.07h-.92c-.05 0-.07-.03-.05-.07l.02-.05c.02-.03.05-.05.1-.05h.95ZM11.68 30.53c.05.02.06.07.05.1l-.54 1.14c-.02.04-.07.06-.11.04h-.01c-.04-.02-.06-.06-.04-.1l.54-1.14c.02-.04.07-.05.1-.04ZM12.93 31.82c.04 0 .06-.02.08-.05l.55-1.2c.02-.02.04-.03.07-.03h.08c.04 0 .05.02.03.05l-.48 1.07a.28.28 0 0 1-.25.18c-.03 0-.06.02-.07.04l-.02.04c-.02.05-.05.07-.1.07h-.92c-.05 0-.06-.03-.04-.07l.02-.05c.02-.03.05-.05.09-.05h.96ZM22.12 30.53h.02c.04-.02.08 0 .1.03l.56 1.17c.02.04 0 .08-.04.1h-.02c-.04.02-.08 0-.1-.03l-.56-1.18c-.02-.03 0-.08.04-.1ZM24.16 30.52l-.03.02c-.04.01-.06.05-.04.09l.54 1.17c.02.03.07.05.1.03h.04c.04-.02.05-.07.04-.1l-.55-1.17c-.01-.03-.06-.05-.1-.04ZM27.7 30.53h.01c.04.02.06.07.05.1l-.54 1.15c-.02.04-.07.06-.1.05h-.02c-.04-.02-.06-.07-.04-.11l.53-1.15c.02-.04.07-.05.11-.04ZM28.72 30.53c-.05-.02-.1 0-.12.04l-.54 1.15c-.02.04 0 .08.05.1.04.02.1 0 .11-.04l.54-1.15c.02-.04 0-.08-.04-.1ZM30.72 30.53c.04.02.06.06.05.1l-.54 1.15c-.02.04-.07.05-.11.04-.05-.02-.07-.07-.05-.1l.54-1.15c.02-.04.07-.06.1-.04ZM34.73 30.53h-.01c-.05-.02-.1 0-.12.04l-.53 1.14c-.02.04 0 .09.05.1h.01c.05.03.1 0 .12-.03l.53-1.14c.01-.04 0-.09-.05-.1ZM36.72 30.54h.02c.03.02.05.06.04.1l-.55 1.16c-.02.03-.06.05-.1.03h-.02c-.04-.02-.06-.06-.04-.1l.55-1.16c.02-.03.06-.05.1-.03ZM39.77 30.55l-.1-.03c-.01-.01-.03 0-.04.01l-.57 1.22c-.01.02 0 .04.01.04l.1.04c.01 0 .03 0 .04-.02l.58-1.22c0-.01 0-.03-.02-.04ZM41.06 31.77c-.02.03-.05.05-.09.05h-.96c-.04 0-.07.02-.09.05l-.02.05c-.02.04 0 .06.05.06h.91c.05 0 .09-.01.1-.06l.03-.04a.08.08 0 0 1 .06-.04c.12-.01.2-.07.25-.19l.5-1.06c0-.03 0-.05-.05-.05h-.08c-.03 0-.05.01-.06.03l-.55 1.2ZM42.97 31.82c.04 0 .07-.01.09-.05l.55-1.2c.02-.02.04-.03.07-.03h.08c.04 0 .05.02.03.05l-.49 1.07a.28.28 0 0 1-.24.18c-.04 0-.06.02-.07.04l-.02.04c-.02.05-.05.07-.1.07h-.92c-.05 0-.07-.03-.05-.07l.02-.05c.02-.03.05-.05.1-.05h.95ZM46.73 30.53h.01c.04.02.06.06.04.1l-.53 1.15c-.02.03-.07.05-.1.04h-.02c-.04-.02-.06-.07-.04-.1l.54-1.15c.01-.04.06-.06.1-.04ZM47.98 31.82c.04 0 .07-.01.09-.05l.55-1.18c.01-.03.03-.04.06-.04h.08c.04 0 .06.02.04.05l-.49 1.06a.28.28 0 0 1-.25.18.08.08 0 0 0-.06.05l-.02.04c-.02.04-.06.06-.1.06h-.92c-.05 0-.06-.03-.04-.07l.02-.05c.02-.04.05-.05.09-.05h.95ZM16.96 31.8h.9c.05 0 .1.05.1.1 0 .06-.05.1-.1.1h-.9c-.06 0-.1-.04-.1-.1 0-.05.04-.1.1-.1ZM19.84 31.8l-.87.01c-.06 0-.1.04-.1.1 0 .05.04.09.1.09h.87c.05 0 .1-.05.1-.1 0-.06-.05-.1-.1-.1ZM22.98 31.81h.89c.05 0 .1.04.1.09 0 .05-.05.1-.1.1h-.89c-.05 0-.1-.05-.1-.1s.05-.09.1-.09ZM26.9 31.8l-.93.01c-.05 0-.1.04-.1.09 0 .05.05.1.1.1h.94c.05 0 .1-.05.1-.1s-.05-.1-.1-.1ZM28.98 31.81h.9c.04 0 .09.04.09.08v.01c0 .05-.05.09-.1.09h-.89c-.05 0-.1-.04-.1-.08v-.01c0-.05.05-.09.1-.09ZM33.89 31.8l-.9.01c-.04 0-.08.04-.08.1 0 .05.04.09.1.09l.88-.01c.05 0 .09-.04.09-.09 0-.05-.04-.1-.1-.1ZM34.99 31.81h.9c.06 0 .1.04.1.09 0 .05-.04.1-.1.1H35c-.06 0-.1-.05-.1-.1s.04-.09.1-.09Z" fill="#fff"/></svg>