<?xml version="1.0" encoding="UTF-8"?>
<!DOCTYPE svg PUBLIC "-//W3C//DTD SVG 1.1//EN" "http://www.w3.org/Graphics/SVG/1.1/DTD/svg11.dtd">
<svg xmlns="http://www.w3.org/2000/svg" version="1.1" width="64px" height="64px" style="shape-rendering:geometricPrecision; text-rendering:geometricPrecision; image-rendering:optimizeQuality; fill-rule:evenodd; clip-rule:evenodd" xmlns:xlink="http://www.w3.org/1999/xlink">
<g><path style="opacity:1" fill="#170e0f" d="M -0.5,-0.5 C 10.5,-0.5 21.5,-0.5 32.5,-0.5C 33.4731,1.06831 33.6397,2.73498 33,4.5C 32.1521,7.42341 30.6521,9.92341 28.5,12C 30.0581,12.21 31.3915,12.71 32.5,13.5C 28.6774,14.2461 25.6774,16.2461 23.5,19.5C 21.2646,19.2053 19.2646,19.5386 17.5,20.5C 16.5416,20.9528 15.7083,21.6195 15,22.5C 13.4165,30.7072 15.2498,32.0406 20.5,26.5C 23.8333,26.5 27.1667,26.5 30.5,26.5C 32.5,26.5 34.5,26.5 36.5,26.5C 35.8247,30.8478 33.8247,34.5145 30.5,37.5C 28.5,38.8333 26.8333,40.5 25.5,42.5C 23.3702,44.1271 21.3702,45.9604 19.5,48C 21.5447,50.5085 23.878,51.0085 26.5,49.5C 26.8333,49.5 27.1667,49.5 27.5,49.5C 28.8221,49.67 29.9887,49.3366 31,48.5C 33.4516,53.551 35.9516,58.551 38.5,63.5C 25.5,63.5 12.5,63.5 -0.5,63.5C -0.5,42.1667 -0.5,20.8333 -0.5,-0.5 Z"/></g>
<g><path style="opacity:1" fill="#2c1619" d="M 32.5,-0.5 C 42.8333,-0.5 53.1667,-0.5 63.5,-0.5C 63.5,20.8333 63.5,42.1667 63.5,63.5C 55.1667,63.5 46.8333,63.5 38.5,63.5C 35.9516,58.551 33.4516,53.551 31,48.5C 29.9887,49.3366 28.8221,49.67 27.5,49.5C 28.8333,47.8333 30.1667,46.1667 31.5,44.5C 34.5,42.1667 37.1667,39.5 39.5,36.5C 44.9803,32.5636 46.8136,27.2302 45,20.5C 43.9455,17.9441 42.1122,16.2775 39.5,15.5C 38.791,14.596 37.791,14.2627 36.5,14.5C 35.4324,13.5655 34.099,13.2322 32.5,13.5C 31.3915,12.71 30.0581,12.21 28.5,12C 30.6521,9.92341 32.1521,7.42341 33,4.5C 33.6397,2.73498 33.4731,1.06831 32.5,-0.5 Z"/></g>
<g><path style="opacity:1" fill="#d74e87" d="M 32.5,13.5 C 34.099,13.2322 35.4324,13.5655 36.5,14.5C 34.8333,14.5 33.1667,14.5 31.5,14.5C 31.5,16.1667 31.5,17.8333 31.5,19.5C 29.8333,19.5 28.1667,19.5 26.5,19.5C 25.5,19.5 24.5,19.5 23.5,19.5C 25.6774,16.2461 28.6774,14.2461 32.5,13.5 Z"/></g>
<g><path style="opacity:1" fill="#8f44af" d="M 17.5,20.5 C 19.2646,19.5386 21.2646,19.2053 23.5,19.5C 24.5,19.5 25.5,19.5 26.5,19.5C 26.6716,20.4916 26.3382,21.1583 25.5,21.5C 23.0521,20.5269 20.3854,20.1936 17.5,20.5 Z"/></g>
<g><path style="opacity:1" fill="#da40cd" d="M 39.5,15.5 C 42.1122,16.2775 43.9455,17.9441 45,20.5C 46.8136,27.2302 44.9803,32.5636 39.5,36.5C 38.1667,29.5 38.1667,22.5 39.5,15.5 Z"/></g>
<g><path style="opacity:1" fill="#d39cd5" d="M 26.5,19.5 C 28.1667,19.5 29.8333,19.5 31.5,19.5C 32.675,19.281 33.675,19.6143 34.5,20.5C 33.5329,22.7901 32.1996,24.7901 30.5,26.5C 27.1667,26.5 23.8333,26.5 20.5,26.5C 21.8333,24.5 23.5,22.8333 25.5,21.5C 26.3382,21.1583 26.6716,20.4916 26.5,19.5 Z"/></g>
<g><path style="opacity:1" fill="#6a4bda" d="M 17.5,20.5 C 20.3854,20.1936 23.0521,20.5269 25.5,21.5C 23.5,22.8333 21.8333,24.5 20.5,26.5C 15.2498,32.0406 13.4165,30.7072 15,22.5C 15.7083,21.6195 16.5416,20.9528 17.5,20.5 Z"/></g>
<g><path style="opacity:1" fill="#dc49ab" d="M 36.5,14.5 C 37.791,14.2627 38.791,14.596 39.5,15.5C 38.1667,22.5 38.1667,29.5 39.5,36.5C 37.1667,39.5 34.5,42.1667 31.5,44.5C 30.5318,42.3926 30.1984,40.0593 30.5,37.5C 33.8247,34.5145 35.8247,30.8478 36.5,26.5C 34.5,26.5 32.5,26.5 30.5,26.5C 32.1996,24.7901 33.5329,22.7901 34.5,20.5C 33.675,19.6143 32.675,19.281 31.5,19.5C 31.5,17.8333 31.5,16.1667 31.5,14.5C 33.1667,14.5 34.8333,14.5 36.5,14.5 Z"/></g>
<g><path style="opacity:1" fill="#e55585" d="M 30.5,37.5 C 30.1984,40.0593 30.5318,42.3926 31.5,44.5C 30.1667,46.1667 28.8333,47.8333 27.5,49.5C 27.1667,49.5 26.8333,49.5 26.5,49.5C 25.5318,47.3926 25.1984,45.0593 25.5,42.5C 26.8333,40.5 28.5,38.8333 30.5,37.5 Z"/></g>
<g><path style="opacity:1" fill="#e25a6e" d="M 25.5,42.5 C 25.1984,45.0593 25.5318,47.3926 26.5,49.5C 23.878,51.0085 21.5447,50.5085 19.5,48C 21.3702,45.9604 23.3702,44.1271 25.5,42.5 Z"/></g>
</svg>
