<?xml version="1.0" encoding="UTF-8"?>
<!DOCTYPE svg PUBLIC "-//W3C//DTD SVG 1.1//EN" "http://www.w3.org/Graphics/SVG/1.1/DTD/svg11.dtd">
<svg xmlns="http://www.w3.org/2000/svg" version="1.1" width="64px" height="64px" style="shape-rendering:geometricPrecision; text-rendering:geometricPrecision; image-rendering:optimizeQuality; fill-rule:evenodd; clip-rule:evenodd" xmlns:xlink="http://www.w3.org/1999/xlink">
<g><path style="opacity:0.978" fill="#fefffe" d="M 25.5,-0.5 C 29.5,-0.5 33.5,-0.5 37.5,-0.5C 51.1667,3.16667 59.8333,11.8333 63.5,25.5C 63.5,29.5 63.5,33.5 63.5,37.5C 59.8333,51.1667 51.1667,59.8333 37.5,63.5C 33.5,63.5 29.5,63.5 25.5,63.5C 11.8333,59.8333 3.16667,51.1667 -0.5,37.5C -0.5,33.5 -0.5,29.5 -0.5,25.5C 3.16667,11.8333 11.8333,3.16667 25.5,-0.5 Z"/></g>
<g><path style="opacity:1" fill="#000000" d="M 24.5,1.5 C 42.7775,-0.368522 54.9442,7.29814 61,24.5C 63.3592,42.7966 55.8592,54.9632 38.5,61C 20.2034,63.3592 8.03678,55.8592 2,38.5C -0.170939,20.1599 7.32906,7.82652 24.5,1.5 Z"/></g>
<g><path style="opacity:1" fill="#fefefe" d="M 19.5,10.5 C 21.5164,12.3481 23.683,14.0148 26,15.5C 29.6667,14.1667 33.3333,14.1667 37,15.5C 39.2806,14.2237 41.2806,12.5571 43,10.5C 44.5,12 46,13.5 47.5,15C 45.6487,16.6837 43.982,18.5171 42.5,20.5C 43.3094,22.0709 43.6427,23.7376 43.5,25.5C 41.396,25.7989 39.396,25.4656 37.5,24.5C 33.6952,19.4285 29.6952,19.2619 25.5,24C 25.6448,24.772 25.9781,25.4387 26.5,26C 31.9784,27.9327 37.145,30.4327 42,33.5C 43.6875,36.6241 43.8541,39.7908 42.5,43C 44.1667,44.6667 45.8333,46.3333 47.5,48C 46,49.5 44.5,51 43,52.5C 41.2806,50.4429 39.2806,48.7763 37,47.5C 33.3333,48.8333 29.6667,48.8333 26,47.5C 23.7194,48.7763 21.7194,50.4429 20,52.5C 18.5,51 17,49.5 15.5,48C 17.3513,46.3163 19.018,44.4829 20.5,42.5C 19.6906,40.9291 19.3573,39.2624 19.5,37.5C 21.604,37.2011 23.604,37.5344 25.5,38.5C 29.3048,43.5715 33.3048,43.7381 37.5,39C 37.3552,38.228 37.0219,37.5613 36.5,37C 31.0216,35.0673 25.855,32.5673 21,29.5C 19.3125,26.3759 19.1459,23.2092 20.5,20C 18.8333,18.3333 17.1667,16.6667 15.5,15C 17.0414,13.6288 18.3747,12.1288 19.5,10.5 Z"/></g>
</svg>
