<?xml version="1.0" encoding="UTF-8"?>
<!DOCTYPE svg PUBLIC "-//W3C//DTD SVG 1.1//EN" "http://www.w3.org/Graphics/SVG/1.1/DTD/svg11.dtd">
<svg xmlns="http://www.w3.org/2000/svg" version="1.1" width="64px" height="64px" style="shape-rendering:geometricPrecision; text-rendering:geometricPrecision; image-rendering:optimizeQuality; fill-rule:evenodd; clip-rule:evenodd" xmlns:xlink="http://www.w3.org/1999/xlink">
<g><path style="opacity:0.012" fill="#e38f2a" d="M 18.5,-0.5 C 19.1667,-0.5 19.8333,-0.5 20.5,-0.5C 19.8333,0.833333 19.1667,0.833333 18.5,-0.5 Z"/></g>
<g><path style="opacity:0.999" fill="#fcc516" d="M 24.5,-0.5 C 26.8333,-0.5 29.1667,-0.5 31.5,-0.5C 31.5,5.16667 31.5,10.8333 31.5,16.5C 26.0306,16.4622 21.8639,18.7955 19,23.5C 13.1316,35.3562 14.9649,45.8562 24.5,55C 26.6775,56.2022 29.0108,56.7022 31.5,56.5C 31.5,58.8333 31.5,61.1667 31.5,63.5C 28.8333,63.5 26.1667,63.5 23.5,63.5C 21.7857,62.2616 19.7857,61.595 17.5,61.5C 15.3805,59.6002 13.0472,57.9336 10.5,56.5C 10.5,55.8333 10.1667,55.5 9.5,55.5C 9.5,54.8333 9.16667,54.5 8.5,54.5C 7.1486,51.9076 5.31527,50.5743 3,50.5C 2.50776,49.451 2.67443,48.451 3.5,47.5C 3.05758,46.2613 2.39092,45.2613 1.5,44.5C 1.20414,42.597 0.53747,40.9303 -0.5,39.5C -0.5,34.5 -0.5,29.5 -0.5,24.5C 0.833333,23.5 0.833333,22.5 -0.5,21.5C -0.5,20.5 -0.5,19.5 -0.5,18.5C 1.0798,15.737 2.91313,13.0703 5,10.5C 5.33333,10.8333 5.66667,11.1667 6,11.5C 11.0374,5.60557 17.2041,1.60557 24.5,-0.5 Z"/></g>
<g><path style="opacity:0.999" fill="#ba2740" d="M 31.5,-0.5 C 33.8333,-0.5 36.1667,-0.5 38.5,-0.5C 43.3697,1.26813 48.0363,3.60146 52.5,6.5C 52.5,7.16667 52.8333,7.5 53.5,7.5C 53.5,8.16667 53.8333,8.5 54.5,8.5C 54.5,9.16667 54.8333,9.5 55.5,9.5C 55.5,10.1667 55.8333,10.5 56.5,10.5C 57.0076,12.2327 57.841,12.566 59,11.5C 60.3634,13.6838 61.8634,15.6838 63.5,17.5C 63.5,18.5 63.5,19.5 63.5,20.5C 62.1667,21.1667 62.1667,21.8333 63.5,22.5C 63.5,28.5 63.5,34.5 63.5,40.5C 62.596,41.209 62.2627,42.209 62.5,43.5C 61.1667,44.1667 61.1667,44.8333 62.5,45.5C 61.2768,49.0495 59.2768,52.0495 56.5,54.5C 56.1667,53.1667 55.8333,53.1667 55.5,54.5C 54.8333,54.5 54.5,54.8333 54.5,55.5C 53.8333,55.5 53.5,55.8333 53.5,56.5C 52.5084,56.3284 51.8417,56.6618 51.5,57.5C 50.8333,57.5 50.5,57.8333 50.5,58.5C 49.8333,58.5 49.5,58.8333 49.5,59.5C 48.5084,59.3284 47.8417,59.6618 47.5,60.5C 46.5084,60.3284 45.8417,60.6618 45.5,61.5C 44.5084,61.3284 43.8417,61.6618 43.5,62.5C 42.209,62.2627 41.209,62.596 40.5,63.5C 37.5,63.5 34.5,63.5 31.5,63.5C 31.5,61.1667 31.5,58.8333 31.5,56.5C 41.93,53.857 46.93,47.0236 46.5,36C 46.412,27.4786 42.7453,21.1452 35.5,17C 34.2068,16.51 32.8734,16.3433 31.5,16.5C 31.5,10.8333 31.5,5.16667 31.5,-0.5 Z"/></g>
<g><path style="opacity:0.004" fill="#a3193c" d="M 52.5,6.5 C 54.3318,5.28194 55.3318,5.9486 55.5,8.5C 55.1667,8.5 54.8333,8.5 54.5,8.5C 53.8333,8.5 53.5,8.16667 53.5,7.5C 52.8333,7.5 52.5,7.16667 52.5,6.5 Z"/></g>
<g><path style="opacity:1" fill="#fff4d7" d="M 24.5,7.5 C 25.7348,7.72142 26.7348,8.38809 27.5,9.5C 28.086,9.29069 28.586,8.95735 29,8.5C 28.621,10.075 28.7877,11.575 29.5,13C 28.1279,13.4017 26.7946,13.9017 25.5,14.5C 24.7702,13.0663 23.7702,11.8996 22.5,11C 23.9733,10.2904 24.6399,9.12377 24.5,7.5 Z"/></g>
<g><path style="opacity:1" fill="#f4d8dd" d="M 35.5,7.5 C 36.9308,8.4458 38.2642,9.61246 39.5,11C 38.0325,12.0975 37.1992,13.5975 37,15.5C 35.8289,14.1068 34.3289,13.2735 32.5,13C 33.2123,11.575 33.379,10.075 33,8.5C 34.4609,9.88254 35.2942,9.54921 35.5,7.5 Z"/></g>
<g><path style="opacity:0.004" fill="#a3193c" d="M 55.5,9.5 C 55.5,9.16667 55.5,8.83333 55.5,8.5C 57.4241,8.71073 57.7574,9.3774 56.5,10.5C 55.8333,10.5 55.5,10.1667 55.5,9.5 Z"/></g>
<g><path style="opacity:1" fill="#fff8e5" d="M 19.5,12.5 C 20.2485,13.531 20.9152,14.6976 21.5,16C 20.2986,16.9025 19.4652,18.0692 19,19.5C 17.9326,18.8095 16.7659,18.3095 15.5,18C 16.8333,16.6667 16.8333,15.3333 15.5,14C 17.366,15.0084 18.6993,14.5084 19.5,12.5 Z"/></g>
<g><path style="opacity:1" fill="#f5dde1" d="M 41.5,12.5 C 42.9401,14.3882 44.6068,15.0549 46.5,14.5C 45.1667,15.5 45.1667,16.5 46.5,17.5C 45.3717,18.2621 44.2051,18.9288 43,19.5C 42.1004,18.2298 40.9337,17.2298 39.5,16.5C 40.8532,15.4763 41.5198,14.143 41.5,12.5 Z"/></g>
<g><path style="opacity:1" fill="#fdf8f5" d="M 31.5,16.5 C 32.8734,16.3433 34.2068,16.51 35.5,17C 42.7453,21.1452 46.412,27.4786 46.5,36C 46.93,47.0236 41.93,53.857 31.5,56.5C 29.0108,56.7022 26.6775,56.2022 24.5,55C 14.9649,45.8562 13.1316,35.3562 19,23.5C 21.8639,18.7955 26.0306,16.4622 31.5,16.5 Z"/></g>
<g><path style="opacity:1" fill="#fbc427" d="M 30.5,29.5 C 32.4602,31.1563 34.4602,32.823 36.5,34.5C 37.1667,35.5 37.8333,36.5 38.5,37.5C 37.8333,37.5 37.1667,37.5 36.5,37.5C 34.1416,35.3218 31.4749,33.6551 28.5,32.5C 28.1667,31.5 27.5,30.8333 26.5,30.5C 24.6067,24.2247 26.94,21.3914 33.5,22C 36.0605,23.2059 36.5605,24.7059 35,26.5C 33.0786,24.9972 30.912,24.3305 28.5,24.5C 28.1201,26.698 28.7868,28.3646 30.5,29.5 Z"/></g>
<g><path style="opacity:1" fill="#bf3949" d="M 30.5,29.5 C 33.6549,29.6053 36.3216,30.7719 38.5,33C 37.9558,33.7172 37.2891,34.2172 36.5,34.5C 34.4602,32.823 32.4602,31.1563 30.5,29.5 Z"/></g>
<g><path style="opacity:1" fill="#fdf7f1" d="M 28.5,32.5 C 31.4749,33.6551 34.1416,35.3218 36.5,37.5C 36.5,38.5 36.5,39.5 36.5,40.5C 35.129,46.1022 31.9623,47.4356 27,44.5C 26.385,41.6971 25.2183,39.3637 23.5,37.5C 24.5,35.1667 26.1667,33.5 28.5,32.5 Z"/></g>
<g><path style="opacity:1" fill="#bd3347" d="M 26.5,30.5 C 27.5,30.8333 28.1667,31.5 28.5,32.5C 26.1667,33.5 24.5,35.1667 23.5,37.5C 23.0429,46.5564 27.0429,49.7231 35.5,47C 37.4136,45.5867 38.7469,43.7534 39.5,41.5C 38.675,40.6143 37.675,40.281 36.5,40.5C 36.5,39.5 36.5,38.5 36.5,37.5C 37.1667,37.5 37.8333,37.5 38.5,37.5C 39.5,37.5 40.5,37.5 41.5,37.5C 42.0503,46.7821 37.717,51.2821 28.5,51C 21.0454,47.6429 18.8788,42.1429 22,34.5C 23.3712,32.9586 24.8712,31.6253 26.5,30.5 Z"/></g>
<g><path style="opacity:1" fill="#90908e" d="M 27.5,37.5 C 29.8333,37.5 32.1667,37.5 34.5,37.5C 34.5,38.5 34.5,39.5 34.5,40.5C 32.1667,40.5 29.8333,40.5 27.5,40.5C 27.5,39.5 27.5,38.5 27.5,37.5 Z"/></g>
<g><path style="opacity:0.004" fill="#e69549" d="M 62.5,43.5 C 62.8333,43.5 63.1667,43.5 63.5,43.5C 63.5,44.1667 63.5,44.8333 63.5,45.5C 63.1667,45.5 62.8333,45.5 62.5,45.5C 62.5,44.8333 62.5,44.1667 62.5,43.5 Z"/></g>
<g><path style="opacity:0.012" fill="#e38f2a" d="M 1.5,44.5 C 1.63101,45.2389 1.46434,45.9056 1,46.5C 0.308314,45.5632 0.474981,44.8966 1.5,44.5 Z"/></g>
<g><path style="opacity:1" fill="#fcc62d" d="M 23.5,37.5 C 25.2183,39.3637 26.385,41.6971 27,44.5C 31.9623,47.4356 35.129,46.1022 36.5,40.5C 37.675,40.281 38.675,40.6143 39.5,41.5C 38.7469,43.7534 37.4136,45.5867 35.5,47C 27.0429,49.7231 23.0429,46.5564 23.5,37.5 Z"/></g>
<g><path style="opacity:0.004" fill="#fec952" d="M 55.5,54.5 C 55.8333,54.5 56.1667,54.5 56.5,54.5C 56.3147,55.1701 55.9813,55.1701 55.5,54.5 Z"/></g>
<g><path style="opacity:0.004" fill="#fec952" d="M 54.5,55.5 C 54.8333,55.5 55.1667,55.5 55.5,55.5C 55.3147,56.1701 54.9813,56.1701 54.5,55.5 Z"/></g>
<g><path style="opacity:0.004" fill="#e9a43e" d="M 8.5,54.5 C 9.16667,54.5 9.5,54.8333 9.5,55.5C 10.1667,55.5 10.5,55.8333 10.5,56.5C 10.1034,57.525 9.43677,57.6917 8.5,57C 7.22641,56.0228 7.22641,55.1894 8.5,54.5 Z"/></g>
<g><path style="opacity:0.004" fill="#fec952" d="M 53.5,56.5 C 53.8333,56.5 54.1667,56.5 54.5,56.5C 54.3147,57.1701 53.9813,57.1701 53.5,56.5 Z"/></g>
<g><path style="opacity:0.004" fill="#e69549" d="M 51.5,58.5 C 51.5,58.1667 51.5,57.8333 51.5,57.5C 52.1667,57.5 52.8333,57.5 53.5,57.5C 53.1583,58.3382 52.4916,58.6716 51.5,58.5 Z"/></g>
<g><path style="opacity:0.008" fill="#b02133" d="M 50.5,58.5 C 50.8333,58.5 51.1667,58.5 51.5,58.5C 51.3147,59.1701 50.9813,59.1701 50.5,58.5 Z"/></g>
<g><path style="opacity:0.008" fill="#b02133" d="M 49.5,59.5 C 49.8333,59.5 50.1667,59.5 50.5,59.5C 50.3147,60.1701 49.9813,60.1701 49.5,59.5 Z"/></g>
<g><path style="opacity:0.004" fill="#9f163f" d="M 47.5,61.5 C 47.5,61.1667 47.5,60.8333 47.5,60.5C 48.1667,60.5 48.8333,60.5 49.5,60.5C 49.1583,61.3382 48.4916,61.6716 47.5,61.5 Z"/></g>
<g><path style="opacity:0.012" fill="#fbc22f" d="M 17.5,61.5 C 17.5,61.8333 17.5,62.1667 17.5,62.5C 14.8333,62.1667 14.8333,61.8333 17.5,61.5 Z"/></g>
<g><path style="opacity:0.008" fill="#b02133" d="M 45.5,62.5 C 45.5,62.1667 45.5,61.8333 45.5,61.5C 46.1667,61.5 46.8333,61.5 47.5,61.5C 47.1583,62.3382 46.4916,62.6716 45.5,62.5 Z"/></g>
<g><path style="opacity:0.012" fill="#fbc22f" d="M 17.5,63.5 C 17.5,63.1667 17.5,62.8333 17.5,62.5C 18.4916,62.3284 19.1583,62.6618 19.5,63.5C 18.8333,63.5 18.1667,63.5 17.5,63.5 Z"/></g>
<g><path style="opacity:0.004" fill="#e69549" d="M 43.5,63.5 C 43.5,63.1667 43.5,62.8333 43.5,62.5C 44.1667,62.5 44.8333,62.5 45.5,62.5C 45.5,62.8333 45.5,63.1667 45.5,63.5C 44.8333,63.5 44.1667,63.5 43.5,63.5 Z"/></g>
</svg>
