<?xml version="1.0" encoding="UTF-8"?>
<!DOCTYPE svg PUBLIC "-//W3C//DTD SVG 1.1//EN" "http://www.w3.org/Graphics/SVG/1.1/DTD/svg11.dtd">
<svg xmlns="http://www.w3.org/2000/svg" version="1.1" width="64px" height="64px" style="shape-rendering:geometricPrecision; text-rendering:geometricPrecision; image-rendering:optimizeQuality; fill-rule:evenodd; clip-rule:evenodd" xmlns:xlink="http://www.w3.org/1999/xlink">
<g><path style="opacity:1" fill="#f5f8fa" d="M -0.5,-0.5 C 20.8333,-0.5 42.1667,-0.5 63.5,-0.5C 63.5,20.8333 63.5,42.1667 63.5,63.5C 42.1667,63.5 20.8333,63.5 -0.5,63.5C -0.5,42.1667 -0.5,20.8333 -0.5,-0.5 Z"/></g>
<g><path style="opacity:1" fill="#327dd1" d="M 45.5,6.5 C 47.0269,6.42702 48.0269,7.09368 48.5,8.5C 46.9731,8.57298 45.9731,7.90632 45.5,6.5 Z"/></g>
<g><path style="opacity:1" fill="#eef4f9" d="M 36.5,4.5 C 35.0222,4.23798 33.6888,4.57131 32.5,5.5C 39.1195,5.3383 39.1195,6.17164 32.5,8C 35.6752,7.94666 38.3419,8.77999 40.5,10.5C 34.642,10.1778 28.9753,10.5111 23.5,11.5C 22.8501,11.1961 22.1835,10.8627 21.5,10.5C 20.0682,14.0133 19.2348,17.68 19,21.5C 18.3109,22.3567 17.4776,23.0233 16.5,23.5C 15.5059,28.456 15.1725,33.456 15.5,38.5C 16.8333,38.5 18.1667,38.5 19.5,38.5C 20.1653,36.3021 20.8319,33.9688 21.5,31.5C 22.1674,34.6417 22.834,37.6417 23.5,40.5C 28.6405,41.4881 33.9738,41.8214 39.5,41.5C 39.8333,42.5 40.5,43.1667 41.5,43.5C 40.506,45.3344 40.506,47.0011 41.5,48.5C 40.8333,49.8333 40.1667,49.8333 39.5,48.5C 39.7678,46.901 39.4345,45.5676 38.5,44.5C 37.791,43.596 36.791,43.2627 35.5,43.5C 35.5,45.5 35.5,47.5 35.5,49.5C 34.1001,48.9002 33.1001,47.9002 32.5,46.5C 31.8333,46.5 31.1667,46.5 30.5,46.5C 30.5,47.8333 29.8333,48.5 28.5,48.5C 27.2225,47.2505 26.2225,45.7505 25.5,44C 23.444,43.6892 21.444,43.1892 19.5,42.5C 15.9459,44.4675 15.6126,46.8008 18.5,49.5C 17.8953,51.0257 16.7286,52.0257 15,52.5C 14.3828,51.5509 14.5494,50.7175 15.5,50C 13.4817,49.4954 11.4817,48.9954 9.5,48.5C 9.16667,48.5 8.83333,48.5 8.5,48.5C 8.57298,46.9731 7.90632,45.9731 6.5,45.5C 5.66175,45.1583 5.32842,44.4916 5.5,43.5C 2.46051,33.8963 3.12718,24.563 7.5,15.5C 11.0496,11.7859 15.0496,8.61928 19.5,6C 25.1719,3.63055 30.8386,3.13055 36.5,4.5 Z"/></g>
<g><path style="opacity:1" fill="#337cce" d="M 43.5,5.5 C 41.1944,5.00745 38.861,4.67412 36.5,4.5C 30.8386,3.13055 25.1719,3.63055 19.5,6C 15.0496,8.61928 11.0496,11.7859 7.5,15.5C 11.2817,8.92629 16.9484,4.75963 24.5,3C 28.8333,2.33333 33.1667,2.33333 37.5,3C 39.8516,3.24013 41.8516,4.07346 43.5,5.5 Z"/></g>
<g><path style="opacity:1" fill="#f3f7f9" d="M 36.5,4.5 C 38.861,4.67412 41.1944,5.00745 43.5,5.5C 44.4916,5.32842 45.1583,5.66175 45.5,6.5C 45.9731,7.90632 46.9731,8.57298 48.5,8.5C 49.1667,9.83333 50.1667,10.8333 51.5,11.5C 52.1667,12.8333 53.1667,13.8333 54.5,14.5C 61.4464,26.1114 61.1131,37.4447 53.5,48.5C 52.5,48.5 51.5,48.5 50.5,48.5C 50.8495,45.9552 50.0162,43.9552 48,42.5C 47.2828,43.0442 46.7828,43.7109 46.5,44.5C 45.4017,45.6009 45.235,46.9343 46,48.5C 47.8254,49.1029 49.6587,49.7696 51.5,50.5C 50.3881,51.2652 49.7214,52.2652 49.5,53.5C 43.8787,56.9844 37.712,58.9844 31,59.5C 25.2003,58.7327 19.7003,57.066 14.5,54.5C 12.8333,52.5 11.1667,50.5 9.5,48.5C 11.4817,48.9954 13.4817,49.4954 15.5,50C 14.5494,50.7175 14.3828,51.5509 15,52.5C 16.7286,52.0257 17.8953,51.0257 18.5,49.5C 20.2012,49.0338 21.7012,49.0338 23,49.5C 24.1544,47.0426 25.4877,47.0426 27,49.5C 27.3826,48.944 27.8826,48.6107 28.5,48.5C 30.7089,49.9758 32.0423,49.3091 32.5,46.5C 33.1001,47.9002 34.1001,48.9002 35.5,49.5C 36.791,49.7373 37.791,49.404 38.5,48.5C 38.8333,48.5 39.1667,48.5 39.5,48.5C 40.1667,49.8333 40.8333,49.8333 41.5,48.5C 42.1894,47.2264 43.0228,47.2264 44,48.5C 44.7409,45.9814 43.9076,44.3148 41.5,43.5C 40.5,43.1667 39.8333,42.5 39.5,41.5C 40.1174,41.3893 40.6174,41.056 41,40.5C 41.8249,30.3247 41.6583,20.3247 40.5,10.5C 38.3419,8.77999 35.6752,7.94666 32.5,8C 39.1195,6.17164 39.1195,5.3383 32.5,5.5C 33.6888,4.57131 35.0222,4.23798 36.5,4.5 Z"/></g>
<g><path style="opacity:1" fill="#4183d5" d="M 48.5,8.5 C 50.5,8.5 51.5,9.5 51.5,11.5C 50.1667,10.8333 49.1667,9.83333 48.5,8.5 Z"/></g>
<g><path style="opacity:1" fill="#3f85cf" d="M 51.5,11.5 C 53.5,11.5 54.5,12.5 54.5,14.5C 53.1667,13.8333 52.1667,12.8333 51.5,11.5 Z"/></g>
<g><path style="opacity:1" fill="#3980ce" d="M 23.5,11.5 C 23.8229,17.69 23.4896,23.69 22.5,29.5C 22.6657,25.1539 22.499,20.8206 22,16.5C 21.9859,19.9037 20.6525,22.5704 18,24.5C 17.1881,28.6888 17.3547,32.6888 18.5,36.5C 18.5,37.1667 18.8333,37.5 19.5,37.5C 19.5,37.8333 19.5,38.1667 19.5,38.5C 18.1667,38.5 16.8333,38.5 15.5,38.5C 15.1725,33.456 15.5059,28.456 16.5,23.5C 17.4776,23.0233 18.3109,22.3567 19,21.5C 19.2348,17.68 20.0682,14.0133 21.5,10.5C 22.1835,10.8627 22.8501,11.1961 23.5,11.5 Z"/></g>
<g><path style="opacity:1" fill="#f1f9fa" d="M 22.5,29.5 C 21.1667,29.5 19.8333,29.5 18.5,29.5C 18.5,31.8333 18.5,34.1667 18.5,36.5C 17.3547,32.6888 17.1881,28.6888 18,24.5C 20.6525,22.5704 21.9859,19.9037 22,16.5C 22.499,20.8206 22.6657,25.1539 22.5,29.5 Z"/></g>
<g><path style="opacity:1" fill="#3980cf" d="M 54.5,14.5 C 61.0222,23.3643 62.1889,33.031 58,43.5C 57.2082,46.1064 55.7082,48.1064 53.5,49.5C 53.5,49.1667 53.5,48.8333 53.5,48.5C 61.1131,37.4447 61.4464,26.1114 54.5,14.5 Z"/></g>
<g><path style="opacity:1" fill="#167cec" d="M 40.5,10.5 C 41.6583,20.3247 41.8249,30.3247 41,40.5C 40.6174,41.056 40.1174,41.3893 39.5,41.5C 33.9738,41.8214 28.6405,41.4881 23.5,40.5C 23.5,37.1667 23.5,33.8333 23.5,30.5C 22.1667,30.5 20.8333,30.5 19.5,30.5C 19.5,32.8333 19.5,35.1667 19.5,37.5C 18.8333,37.5 18.5,37.1667 18.5,36.5C 18.5,34.1667 18.5,31.8333 18.5,29.5C 19.8333,29.5 21.1667,29.5 22.5,29.5C 23.4896,23.69 23.8229,17.69 23.5,11.5C 28.9753,10.5111 34.642,10.1778 40.5,10.5 Z"/></g>
<g><path style="opacity:1" fill="#f0f7f9" d="M 35.5,29.5 C 35.44,28.9569 35.1067,28.6236 34.5,28.5C 33.1667,41.8333 31.8333,41.8333 30.5,28.5C 29.8933,28.6236 29.56,28.9569 29.5,29.5C 27.6469,30.6143 27.1469,29.9476 28,27.5C 32.8376,22.2916 35.8376,23.2916 37,30.5C 36.6174,29.944 36.1174,29.6107 35.5,29.5 Z"/></g>
<g><path style="opacity:1" fill="#f1f7fa" d="M 24.5,13.5 C 29.5,13.5 34.5,13.5 39.5,13.5C 39.5,15.8333 39.5,18.1667 39.5,20.5C 34.5,20.5 29.5,20.5 24.5,20.5C 24.5,18.1667 24.5,15.8333 24.5,13.5 Z"/></g>
<g><path style="opacity:1" fill="#6faaea" d="M 29.5,29.5 C 29.56,28.9569 29.8933,28.6236 30.5,28.5C 31.8333,41.8333 33.1667,41.8333 34.5,28.5C 35.1067,28.6236 35.44,28.9569 35.5,29.5C 34.5206,32.6248 34.1872,35.9581 34.5,39.5C 33.1667,39.5 31.8333,39.5 30.5,39.5C 30.8128,35.9581 30.4794,32.6248 29.5,29.5 Z"/></g>
<g><path style="opacity:1" fill="#3781d5" d="M 7.5,15.5 C 3.12718,24.563 2.46051,33.8963 5.5,43.5C 4.20695,42.158 3.37362,40.4913 3,38.5C 2.33333,33.8333 2.33333,29.1667 3,24.5C 3.66326,20.9647 5.16326,17.9647 7.5,15.5 Z"/></g>
<g><path style="opacity:1" fill="#7db3e3" d="M 23.5,40.5 C 22.834,37.6417 22.1674,34.6417 21.5,31.5C 20.8319,33.9688 20.1653,36.3021 19.5,38.5C 19.5,38.1667 19.5,37.8333 19.5,37.5C 19.5,35.1667 19.5,32.8333 19.5,30.5C 20.8333,30.5 22.1667,30.5 23.5,30.5C 23.5,33.8333 23.5,37.1667 23.5,40.5 Z"/></g>
<g><path style="opacity:1" fill="#7099c7" d="M 30.5,46.5 C 26.6632,45.797 26.4966,44.4636 30,42.5C 33.3567,43.7423 33.19,44.5756 29.5,45C 30.056,45.3826 30.3893,45.8826 30.5,46.5 Z"/></g>
<g><path style="opacity:1" fill="#a0bedf" d="M 28.5,48.5 C 27.8826,48.6107 27.3826,48.944 27,49.5C 25.4877,47.0426 24.1544,47.0426 23,49.5C 21.7012,49.0338 20.2012,49.0338 18.5,49.5C 15.6126,46.8008 15.9459,44.4675 19.5,42.5C 21.444,43.1892 23.444,43.6892 25.5,44C 26.2225,45.7505 27.2225,47.2505 28.5,48.5 Z"/></g>
<g><path style="opacity:1" fill="#5c8dc1" d="M 38.5,44.5 C 37.4138,44.62 36.7472,45.2867 36.5,46.5C 36.7472,47.7133 37.4138,48.38 38.5,48.5C 37.791,49.404 36.791,49.7373 35.5,49.5C 35.5,47.5 35.5,45.5 35.5,43.5C 36.791,43.2627 37.791,43.596 38.5,44.5 Z"/></g>
<g><path style="opacity:1" fill="#c0d1ea" d="M 38.5,44.5 C 39.4345,45.5676 39.7678,46.901 39.5,48.5C 39.1667,48.5 38.8333,48.5 38.5,48.5C 37.4138,48.38 36.7472,47.7133 36.5,46.5C 36.7472,45.2867 37.4138,44.62 38.5,44.5 Z"/></g>
<g><path style="opacity:1" fill="#447ebe" d="M 50.5,48.5 C 49.5655,47.4324 49.2322,46.099 49.5,44.5C 48.5,44.5 47.5,44.5 46.5,44.5C 46.7828,43.7109 47.2828,43.0442 48,42.5C 50.0162,43.9552 50.8495,45.9552 50.5,48.5 Z"/></g>
<g><path style="opacity:1" fill="#347dd0" d="M 6.5,45.5 C 7.90632,45.9731 8.57298,46.9731 8.5,48.5C 7.09368,48.0269 6.42702,47.0269 6.5,45.5 Z"/></g>
<g><path style="opacity:1" fill="#497fba" d="M 30.5,46.5 C 31.1667,46.5 31.8333,46.5 32.5,46.5C 32.0423,49.3091 30.7089,49.9758 28.5,48.5C 29.8333,48.5 30.5,47.8333 30.5,46.5 Z"/></g>
<g><path style="opacity:1" fill="#497eb9" d="M 41.5,43.5 C 43.9076,44.3148 44.7409,45.9814 44,48.5C 43.0228,47.2264 42.1894,47.2264 41.5,48.5C 40.506,47.0011 40.506,45.3344 41.5,43.5 Z"/></g>
<g><path style="opacity:1" fill="#aac4e8" d="M 46.5,44.5 C 47.5,44.5 48.5,44.5 49.5,44.5C 49.2322,46.099 49.5655,47.4324 50.5,48.5C 51.5,48.5 52.5,48.5 53.5,48.5C 53.5,48.8333 53.5,49.1667 53.5,49.5C 53.4754,52.179 52.142,53.5123 49.5,53.5C 49.7214,52.2652 50.3881,51.2652 51.5,50.5C 49.6587,49.7696 47.8254,49.1029 46,48.5C 45.235,46.9343 45.4017,45.6009 46.5,44.5 Z"/></g>
<g><path style="opacity:1" fill="#4588d4" d="M 8.5,48.5 C 8.83333,48.5 9.16667,48.5 9.5,48.5C 11.1667,50.5 12.8333,52.5 14.5,54.5C 11.5,53.5 9.5,51.5 8.5,48.5 Z"/></g>
<g><path style="opacity:1" fill="#3f82cf" d="M 49.5,53.5 C 44.5277,58.1631 38.5277,60.4964 31.5,60.5C 25.03,60.4564 19.3633,58.4564 14.5,54.5C 19.7003,57.066 25.2003,58.7327 31,59.5C 37.712,58.9844 43.8787,56.9844 49.5,53.5 Z"/></g>
</svg>
