<?xml version="1.0" encoding="UTF-8"?>
<!DOCTYPE svg PUBLIC "-//W3C//DTD SVG 1.1//EN" "http://www.w3.org/Graphics/SVG/1.1/DTD/svg11.dtd">
<svg xmlns="http://www.w3.org/2000/svg" version="1.1" width="64px" height="64px" style="shape-rendering:geometricPrecision; text-rendering:geometricPrecision; image-rendering:optimizeQuality; fill-rule:evenodd; clip-rule:evenodd" xmlns:xlink="http://www.w3.org/1999/xlink">
<g><path style="opacity:0.988" fill="#171da9" d="M 25.5,-0.5 C 29.5,-0.5 33.5,-0.5 37.5,-0.5C 51.1667,3.16667 59.8333,11.8333 63.5,25.5C 63.5,29.5 63.5,33.5 63.5,37.5C 59.8333,51.1667 51.1667,59.8333 37.5,63.5C 33.5,63.5 29.5,63.5 25.5,63.5C 11.8333,59.8333 3.16667,51.1667 -0.5,37.5C -0.5,33.5 -0.5,29.5 -0.5,25.5C 3.16667,11.8333 11.8333,3.16667 25.5,-0.5 Z M 25.5,1.5 C 49.9752,1.14128 61.8085,13.1413 61,37.5C 55.4747,55.519 43.308,63.3523 24.5,61C 7.51908,55.2098 0.0190793,43.3764 2,25.5C 5.34904,12.9853 13.1824,4.98533 25.5,1.5 Z M 29.5,21.5 C 35.0204,22.0435 36.3538,24.5435 33.5,29C 27.4034,29.1475 26.0701,26.6475 29.5,21.5 Z M 29.5,35.5 C 32.5715,34.9245 34.5715,36.0912 35.5,39C 34.0864,43.4665 31.5864,44.2998 28,41.5C 27.2516,39.1599 27.7516,37.1599 29.5,35.5 Z"/></g>
<g><path style="opacity:0.995" fill="#181ea9" d="M 36.5,18.5 C 37.3764,18.3691 38.0431,18.7025 38.5,19.5C 37.8333,20.5 37.1667,21.5 36.5,22.5C 37.4847,24.0983 37.6514,25.765 37,27.5C 35.8415,29.4909 34.3415,31.1576 32.5,32.5C 39.326,37.3623 38.9927,41.6956 31.5,45.5C 23.9545,41.762 23.6211,37.4287 30.5,32.5C 25.4982,29.6584 24.4982,25.825 27.5,21C 29.7544,19.349 32.0878,19.1823 34.5,20.5C 35.5223,20.1445 36.189,19.4778 36.5,18.5 Z M 29.5,21.5 C 26.0701,26.6475 27.4034,29.1475 33.5,29C 36.3538,24.5435 35.0204,22.0435 29.5,21.5 Z M 29.5,35.5 C 27.7516,37.1599 27.2516,39.1599 28,41.5C 31.5864,44.2998 34.0864,43.4665 35.5,39C 34.5715,36.0912 32.5715,34.9245 29.5,35.5 Z"/></g>
</svg>
