<?xml version="1.0" encoding="UTF-8"?>
<!DOCTYPE svg PUBLIC "-//W3C//DTD SVG 1.1//EN" "http://www.w3.org/Graphics/SVG/1.1/DTD/svg11.dtd">
<svg xmlns="http://www.w3.org/2000/svg" version="1.1" width="3201px" height="3200px" style="shape-rendering:geometricPrecision; text-rendering:geometricPrecision; image-rendering:optimizeQuality; fill-rule:evenodd; clip-rule:evenodd" xmlns:xlink="http://www.w3.org/1999/xlink">
<g><path style="opacity:0.996" fill="#53cbc7" d="M 1793.5,532.5 C 1959.05,525.629 2111.38,565.629 2250.5,652.5C 2256.04,656.488 2261.37,660.488 2266.5,664.5C 2271.34,666.836 2276.01,669.503 2280.5,672.5C 2281.88,673.551 2282.88,674.884 2283.5,676.5C 2290.59,680.034 2296.92,684.534 2302.5,690C 2303.94,690.219 2305.27,690.719 2306.5,691.5C 2307.81,694.639 2310.14,696.472 2313.5,697C 2318.16,700.562 2322.49,704.562 2326.5,709C 2327.94,709.219 2329.27,709.719 2330.5,710.5C 2332.82,713.823 2335.49,716.823 2338.5,719.5C 2339.73,720.281 2341.06,720.781 2342.5,721C 2364.54,741.706 2386.21,762.872 2407.5,784.5C 2409.9,787.234 2411.9,790.234 2413.5,793.5C 2417.18,796.187 2420.52,799.187 2423.5,802.5C 2424.32,804.108 2424.99,805.775 2425.5,807.5C 2430.83,812.495 2435.83,817.829 2440.5,823.5C 2459.97,849.63 2478.63,876.296 2496.5,903.5C 2508.64,923.394 2519.97,943.894 2530.5,965C 2536.42,979.017 2542.76,992.85 2549.5,1006.5C 2559.17,1032.02 2568.5,1057.68 2577.5,1083.5C 2587.71,1120.38 2596.05,1157.72 2602.5,1195.5C 2607.17,1229.5 2609.84,1263.67 2610.5,1298C 2610.17,1307.17 2609.83,1316.33 2609.5,1325.5C 2604.29,1341.71 2593.29,1351.04 2576.5,1353.5C 2082.17,1354.83 1587.83,1354.83 1093.5,1353.5C 1075.01,1350.48 1064.01,1339.81 1060.5,1321.5C 1059.2,1199.45 1084.53,1083.45 1136.5,973.5C 1160.08,925.672 1187.75,880.339 1219.5,837.5C 1307.85,723.569 1419.18,639.236 1553.5,584.5C 1630.89,555.007 1710.89,537.674 1793.5,532.5 Z"/></g>
<g><path style="opacity:0.967" fill="#e0147a" d="M 764.5,1490.5 C 782.452,1489.95 797.452,1495.95 809.5,1508.5C 823.718,1528.66 824.052,1548.99 810.5,1569.5C 796.605,1585.11 779.272,1590.78 758.5,1586.5C 731.184,1576.22 720.184,1556.55 725.5,1527.5C 726.77,1523.86 727.936,1520.19 729,1516.5C 730.927,1513.65 733.094,1510.98 735.5,1508.5C 736.429,1507.31 736.762,1505.98 736.5,1504.5C 737.978,1504.76 739.311,1504.43 740.5,1503.5C 742.485,1501.35 744.652,1499.35 747,1497.5C 753.123,1495.32 758.956,1492.98 764.5,1490.5 Z"/></g>
<g><path style="opacity:0.989" fill="#e0147a" d="M 933.5,1490.5 C 1534.83,1490.17 2136.17,1490.5 2737.5,1491.5C 2762.66,1497.26 2776.32,1513.09 2778.5,1539C 2777.19,1553.95 2771.52,1566.95 2761.5,1578C 2755.96,1581.69 2749.96,1584.52 2743.5,1586.5C 2138.5,1587.83 1533.5,1587.83 928.5,1586.5C 924.988,1584.83 921.321,1583.66 917.5,1583C 914.14,1579.47 910.14,1576.97 905.5,1575.5C 905.657,1574.13 905.49,1572.79 905,1571.5C 896.314,1562.53 892.147,1551.7 892.5,1539C 893.336,1524.83 898.67,1512.66 908.5,1502.5C 911.398,1501.44 913.898,1499.77 916,1497.5C 921.783,1494.47 927.616,1492.14 933.5,1490.5 Z"/></g>
<g><path style="opacity:0.968" fill="#e0147a" d="M 399.5,1706.5 C 408.141,1706.31 416.641,1707.31 425,1709.5C 429.985,1712.07 434.819,1714.74 439.5,1717.5C 440.5,1719.83 442.167,1721.5 444.5,1722.5C 446.717,1726.32 449.05,1730.15 451.5,1734C 460.369,1758.27 455.036,1778.77 435.5,1795.5C 431.149,1797.09 426.982,1799.09 423,1801.5C 397.336,1807.78 377.836,1799.78 364.5,1777.5C 359.215,1762.52 359.215,1747.52 364.5,1732.5C 367.673,1729.34 370.006,1725.67 371.5,1721.5C 376.819,1717.84 382.152,1714.17 387.5,1710.5C 391.891,1709.63 395.891,1708.29 399.5,1706.5 Z"/></g>
<g><path style="opacity:0.988" fill="#e0147a" d="M 569.5,1706.5 C 1011.17,1706.17 1452.83,1706.5 1894.5,1707.5C 1898.55,1708.32 1902.55,1709.32 1906.5,1710.5C 1915.83,1716.5 1923.5,1724.17 1929.5,1733.5C 1937.64,1758.13 1931.97,1778.8 1912.5,1795.5C 1907.74,1798.21 1902.74,1800.38 1897.5,1802C 1452.83,1802.67 1008.17,1802.67 563.5,1802C 546.821,1796.62 535.821,1785.45 530.5,1768.5C 524.878,1735.64 537.878,1714.98 569.5,1706.5 Z"/></g>
<g><path style="opacity:0.967" fill="#e0147a" d="M 764.5,1921.5 C 772.329,1921.23 779.996,1922.23 787.5,1924.5C 793.701,1926.77 799.367,1929.77 804.5,1933.5C 820.748,1951.71 824.081,1972.04 814.5,1994.5C 807.533,2006 797.533,2013.67 784.5,2017.5C 775.833,2018.83 767.167,2018.83 758.5,2017.5C 741.743,2011.74 730.743,2000.41 725.5,1983.5C 721.741,1964.81 726.074,1948.48 738.5,1934.5C 741.739,1933.1 744.572,1931.1 747,1928.5C 753.123,1926.32 758.956,1923.98 764.5,1921.5 Z"/></g>
<g><path style="opacity:0.989" fill="#e0147a" d="M 931.5,1921.5 C 1463.83,1921.17 1996.17,1921.5 2528.5,1922.5C 2547.28,1926.78 2559.94,1937.95 2566.5,1956C 2571.47,1982.56 2562.3,2002.39 2539,2015.5C 2536.46,2016.01 2533.96,2016.67 2531.5,2017.5C 1997.17,2018.83 1462.83,2018.83 928.5,2017.5C 906.017,2009.73 894.017,1993.9 892.5,1970C 893.147,1957.38 897.48,1946.22 905.5,1936.5C 908.844,1933.66 912.344,1930.99 916,1928.5C 921.319,1926.03 926.486,1923.69 931.5,1921.5 Z"/></g>
<g><path style="opacity:0.966" fill="#e0147a" d="M 492.5,2137.5 C 505.313,2136.78 517.313,2139.45 528.5,2145.5C 547.609,2161.48 553.275,2181.48 545.5,2205.5C 539.599,2219.23 529.433,2228.23 515,2232.5C 505.333,2233.83 495.667,2233.83 486,2232.5C 482.566,2230.32 478.899,2228.66 475,2227.5C 472.528,2224.84 469.694,2222.84 466.5,2221.5C 463.415,2217.21 460.415,2212.71 457.5,2208C 448.609,2184.82 452.943,2164.65 470.5,2147.5C 474.201,2146.07 477.535,2144.07 480.5,2141.5C 484.891,2140.63 488.891,2139.29 492.5,2137.5 Z"/></g>
<g><path style="opacity:0.987" fill="#e0147a" d="M 659.5,2137.5 C 874.501,2137.17 1089.5,2137.5 1304.5,2138.5C 1312.43,2140.45 1319.76,2143.78 1326.5,2148.5C 1339.75,2161.78 1344.58,2177.78 1341,2196.5C 1339.39,2202.38 1337.23,2208.05 1334.5,2213.5C 1330.61,2216.97 1326.94,2220.64 1323.5,2224.5C 1317.15,2227.34 1310.82,2230.17 1304.5,2233C 1089.5,2233.67 874.5,2233.67 659.5,2233C 628.79,2222.15 617.123,2200.65 624.5,2168.5C 627.655,2161.02 631.988,2154.36 637.5,2148.5C 642.052,2145.97 646.552,2143.31 651,2140.5C 654.33,2140.28 657.164,2139.28 659.5,2137.5 Z"/></g>
<g><path style="opacity:0.988" fill="#e0147a" d="M 1473.5,2137.5 C 1915.83,2137.17 2358.17,2137.5 2800.5,2138.5C 2818.17,2142 2830.17,2152.17 2836.5,2169C 2836.82,2174.65 2837.82,2180.15 2839.5,2185.5C 2837.82,2190.85 2836.82,2196.35 2836.5,2202C 2834.85,2206.13 2832.85,2209.96 2830.5,2213.5C 2826.17,2217.83 2821.83,2222.17 2817.5,2226.5C 2812.53,2228.76 2807.53,2230.93 2802.5,2233C 2358.83,2233.67 1915.17,2233.67 1471.5,2233C 1462.17,2230.83 1454.17,2226.33 1447.5,2219.5C 1431.71,2199.45 1430.38,2178.45 1443.5,2156.5C 1448.6,2150.4 1454.6,2145.4 1461.5,2141.5C 1465.89,2140.63 1469.89,2139.29 1473.5,2137.5 Z"/></g>
<g><path style="opacity:0.966" fill="#e0147a" d="M 1565.5,2352.5 C 1595.17,2350.94 1613.84,2364.27 1621.5,2392.5C 1624.69,2420.55 1613.02,2439.22 1586.5,2448.5C 1574.9,2450.26 1563.56,2449.26 1552.5,2445.5C 1549.34,2442.33 1545.67,2439.99 1541.5,2438.5C 1538.01,2433.39 1534.35,2428.39 1530.5,2423.5C 1521.46,2398.31 1527.13,2377.31 1547.5,2360.5C 1553.68,2357.79 1559.68,2355.12 1565.5,2352.5 Z"/></g>
<g><path style="opacity:0.983" fill="#e0147a" d="M 1733.5,2352.5 C 2008.83,2352.17 2284.17,2352.5 2559.5,2353.5C 2568.17,2356.44 2576.17,2360.61 2583.5,2366C 2584.09,2367.51 2584.76,2369.01 2585.5,2370.5C 2587.12,2371.12 2588.45,2372.12 2589.5,2373.5C 2598.2,2390.59 2598.7,2407.92 2591,2425.5C 2582.68,2437.25 2571.51,2444.92 2557.5,2448.5C 2282.83,2449.83 2008.17,2449.83 1733.5,2448.5C 1721.37,2444.79 1711.37,2438.12 1703.5,2428.5C 1696.08,2416.53 1693.74,2403.53 1696.5,2389.5C 1699.77,2376.76 1706.77,2366.76 1717.5,2359.5C 1722.98,2356.98 1728.31,2354.65 1733.5,2352.5 Z"/></g>
<g><path style="opacity:0.967" fill="#e0147a" d="M 1071.5,2568.5 C 1080.29,2568.17 1088.95,2569 1097.5,2571C 1121.76,2581.17 1132.1,2599.5 1128.5,2626C 1124.25,2646.08 1112.25,2658.92 1092.5,2664.5C 1057.28,2667.77 1037.28,2651.94 1032.5,2617C 1033.11,2602.1 1038.78,2589.6 1049.5,2579.5C 1054.05,2576.97 1058.55,2574.31 1063,2571.5C 1066.33,2571.28 1069.16,2570.28 1071.5,2568.5 Z"/></g>
<g><path style="opacity:0.983" fill="#e0147a" d="M 1239.5,2568.5 C 1515.17,2568.17 1790.83,2568.5 2066.5,2569.5C 2083.58,2573.41 2095.25,2583.58 2101.5,2600C 2108.73,2632.32 2096.73,2653.82 2065.5,2664.5C 1790.83,2665.83 1516.17,2665.83 1241.5,2664.5C 1230.34,2661.33 1220.67,2655.67 1212.5,2647.5C 1201.32,2631.04 1199.32,2613.54 1206.5,2595C 1213.79,2581.38 1224.79,2572.55 1239.5,2568.5 Z"/></g>
</svg>
