<?xml version="1.0" encoding="UTF-8"?>
<!DOCTYPE svg PUBLIC "-//W3C//DTD SVG 1.1//EN" "http://www.w3.org/Graphics/SVG/1.1/DTD/svg11.dtd">
<svg xmlns="http://www.w3.org/2000/svg" version="1.1" width="64px" height="64px" style="shape-rendering:geometricPrecision; text-rendering:geometricPrecision; image-rendering:optimizeQuality; fill-rule:evenodd; clip-rule:evenodd" xmlns:xlink="http://www.w3.org/1999/xlink">
<g><path style="opacity:0.994" fill="#7540ef" d="M 25.5,-0.5 C 29.5,-0.5 33.5,-0.5 37.5,-0.5C 50.727,3.05986 59.3937,11.3932 63.5,24.5C 63.5,29.1667 63.5,33.8333 63.5,38.5C 59.4913,51.1753 51.158,59.5087 38.5,63.5C 33.8333,63.5 29.1667,63.5 24.5,63.5C 11.3932,59.3937 3.05986,50.727 -0.5,37.5C -0.5,33.5 -0.5,29.5 -0.5,25.5C 3.16667,11.8333 11.8333,3.16667 25.5,-0.5 Z"/></g>
<g><path style="opacity:1" fill="#fdfcfe" d="M 26.5,9.5 C 37.7763,7.6417 46.443,11.475 52.5,21C 47.252,22.476 42.9187,21.1426 39.5,17C 25.6814,12.902 17.6814,17.902 15.5,32C 16.3086,42.1419 21.8086,47.6419 32,48.5C 39.0875,47.7324 44.2542,44.2324 47.5,38C 45.5951,36.1847 43.9284,34.1847 42.5,32C 43.8333,30 45.1667,28 46.5,26C 48.8333,25.3333 51.1667,25.3333 53.5,26C 52.0443,27.7448 50.711,29.5781 49.5,31.5C 50.8713,33.8567 52.2046,36.19 53.5,38.5C 49.9429,48.5422 42.7762,53.8755 32,54.5C 12.4487,50.7295 5.78206,39.3962 12,20.5C 15.5145,15.0034 20.3478,11.3367 26.5,9.5 Z"/></g>
<g><path style="opacity:1" fill="#fcfbfe" d="M 36.5,25.5 C 38.604,25.2011 40.604,25.5344 42.5,26.5C 40.9733,28.1933 39.6399,30.0266 38.5,32C 39.9284,34.1847 41.5951,36.1847 43.5,38C 41.1667,38.6667 38.8333,38.6667 36.5,38C 35.0716,35.8153 33.4049,33.8153 31.5,32C 33.0544,29.7131 34.7211,27.5465 36.5,25.5 Z"/></g>
</svg>
