<?xml version="1.0" encoding="UTF-8"?>
<!DOCTYPE svg PUBLIC "-//W3C//DTD SVG 1.1//EN" "http://www.w3.org/Graphics/SVG/1.1/DTD/svg11.dtd">
<svg xmlns="http://www.w3.org/2000/svg" version="1.1" width="64px" height="64px" style="shape-rendering:geometricPrecision; text-rendering:geometricPrecision; image-rendering:optimizeQuality; fill-rule:evenodd; clip-rule:evenodd" xmlns:xlink="http://www.w3.org/1999/xlink">
<g><path style="opacity:1" fill="#03c5d2" d="M 35.5,16.5 C 34.5,16.5 33.5,16.5 32.5,16.5C 32.6495,17.552 32.4828,18.552 32,19.5C 30.3853,18.6138 28.8853,17.6138 27.5,16.5C 30.064,8.56067 32.7307,8.56067 35.5,16.5 Z"/></g>
<g><path style="opacity:1" fill="#06b1d9" d="M 24.5,19.5 C 26.46,20.1383 28.2933,20.1383 30,19.5C 32.8488,21.3095 36.0155,22.3095 39.5,22.5C 40.1667,23.5 40.8333,24.5 41.5,25.5C 39.795,24.4647 38.1284,24.4647 36.5,25.5C 32.4746,23.1617 28.1413,21.8284 23.5,21.5C 23.8333,20.8333 24.1667,20.1667 24.5,19.5 Z"/></g>
<g><path style="opacity:0.959" fill="#07bbd8" d="M 27.5,16.5 C 28.8853,17.6138 30.3853,18.6138 32,19.5C 32.4828,18.552 32.6495,17.552 32.5,16.5C 33.5,16.5 34.5,16.5 35.5,16.5C 37.1921,18.2048 38.5254,20.2048 39.5,22.5C 36.0155,22.3095 32.8488,21.3095 30,19.5C 28.2933,20.1383 26.46,20.1383 24.5,19.5C 25.1667,18.1667 26.1667,17.1667 27.5,16.5 Z"/></g>
<g><path style="opacity:1" fill="#0fa2e1" d="M 23.5,22.5 C 28.9825,24.1603 34.1491,26.4936 39,29.5C 41.0279,29.1924 42.8613,29.1924 44.5,29.5C 45.4013,30.2905 46.0679,31.2905 46.5,32.5C 46.44,33.0431 46.1067,33.3764 45.5,33.5C 42.4921,32.9346 39.6588,31.9346 37,30.5C 36.2828,31.0442 35.7828,31.7109 35.5,32.5C 35.1667,32.5 34.8333,32.5 34.5,32.5C 33.5,31.1667 32.5,29.8333 31.5,28.5C 28.2538,27.2723 25.2538,25.6057 22.5,23.5C 22.5,22.8333 22.8333,22.5 23.5,22.5 Z"/></g>
<g><path style="opacity:1" fill="#09acdf" d="M 23.5,22.5 C 23.5,22.1667 23.5,21.8333 23.5,21.5C 28.1413,21.8284 32.4746,23.1617 36.5,25.5C 38.1284,24.4647 39.795,24.4647 41.5,25.5C 42.9744,26.4363 43.9744,27.7697 44.5,29.5C 42.8613,29.1924 41.0279,29.1924 39,29.5C 34.1491,26.4936 28.9825,24.1603 23.5,22.5 Z"/></g>
<g><path style="opacity:1" fill="#1e8ddc" d="M 22.5,23.5 C 25.2538,25.6057 28.2538,27.2723 31.5,28.5C 30.5,29.8333 29.5,31.1667 28.5,32.5C 25.3532,30.4544 23.0198,27.7878 21.5,24.5C 21.5,23.8333 21.8333,23.5 22.5,23.5 Z"/></g>
<g><path style="opacity:1" fill="#267ddd" d="M 21.5,24.5 C 23.0198,27.7878 25.3532,30.4544 28.5,32.5C 27.8333,33.5 27.1667,34.5 26.5,35.5C 24.1162,33.1153 21.4495,31.1153 18.5,29.5C 19.1103,27.5659 20.1103,25.8993 21.5,24.5 Z"/></g>
<g><path style="opacity:1" fill="#3166e1" d="M 18.5,29.5 C 21.4495,31.1153 24.1162,33.1153 26.5,35.5C 25.4884,36.8717 24.4884,38.205 23.5,39.5C 19.9499,37.8931 17.6166,35.2264 16.5,31.5C 16.8333,30.5 17.5,29.8333 18.5,29.5 Z"/></g>
<g><path style="opacity:1" fill="#09a5f2" d="M 46.5,32.5 C 48.1921,34.2048 49.5254,36.2048 50.5,38.5C 50.5654,38.9382 50.3988,39.2716 50,39.5C 45.1417,37.2273 40.3084,34.894 35.5,32.5C 35.7828,31.7109 36.2828,31.0442 37,30.5C 39.6588,31.9346 42.4921,32.9346 45.5,33.5C 46.1067,33.3764 46.44,33.0431 46.5,32.5 Z"/></g>
<g><path style="opacity:0.959" fill="#3a49e4" d="M 16.5,31.5 C 17.6166,35.2264 19.9499,37.8931 23.5,39.5C 23.0679,40.7095 22.4013,41.7095 21.5,42.5C 19.0944,40.0866 16.4277,38.0866 13.5,36.5C 14.2632,34.6316 15.2632,32.9649 16.5,31.5 Z"/></g>
<g><path style="opacity:0.927" fill="#099df6" d="M 34.5,32.5 C 34.8333,32.5 35.1667,32.5 35.5,32.5C 40.3084,34.894 45.1417,37.2273 50,39.5C 50.3988,39.2716 50.5654,38.9382 50.5,38.5C 52.1921,40.2048 53.5254,42.2048 54.5,44.5C 50.6278,42.8069 47.1278,40.4736 44,37.5C 43.3292,38.2524 42.4959,38.5858 41.5,38.5C 40.1007,37.1103 38.4341,36.1103 36.5,35.5C 35.8333,34.5 35.1667,33.5 34.5,32.5 Z"/></g>
<g><path style="opacity:1" fill="#1493f6" d="M 36.5,35.5 C 38.4341,36.1103 40.1007,37.1103 41.5,38.5C 45.5545,41.7069 49.5545,45.2069 53.5,49C 55.0249,50.0086 56.6916,50.5086 58.5,50.5C 57.7079,51.5181 56.0412,51.8514 53.5,51.5C 50.9596,48.9797 48.2929,46.4797 45.5,44C 44.552,43.5172 43.552,43.3505 42.5,43.5C 40.1468,41.1401 38.1468,38.4735 36.5,35.5 Z"/></g>
<g><path style="opacity:1" fill="#0998f9" d="M 54.5,44.5 C 56.3264,46.1475 57.6597,48.1475 58.5,50.5C 56.6916,50.5086 55.0249,50.0086 53.5,49C 49.5545,45.2069 45.5545,41.7069 41.5,38.5C 42.4959,38.5858 43.3292,38.2524 44,37.5C 47.1278,40.4736 50.6278,42.8069 54.5,44.5 Z"/></g>
<g><path style="opacity:1" fill="#3466f7" d="M 27.5,40.5 C 32.1323,43.7978 36.4656,47.4645 40.5,51.5C 38.8333,51.5 37.1667,51.5 35.5,51.5C 35.631,50.7611 35.4643,50.0944 35,49.5C 31.9772,47.3024 29.1438,44.969 26.5,42.5C 26.8333,41.8333 27.1667,41.1667 27.5,40.5 Z"/></g>
<g><path style="opacity:0.927" fill="#168afa" d="M 42.5,43.5 C 43.552,43.3505 44.552,43.5172 45.5,44C 48.2929,46.4797 50.9596,48.9797 53.5,51.5C 47.6309,51.9752 43.9642,49.3086 42.5,43.5 Z"/></g>
<g><path style="opacity:1" fill="#4931f0" d="M 12.5,37.5 C 17.4206,42.0816 22.4206,46.7483 27.5,51.5C 26.1667,51.5 24.8333,51.5 23.5,51.5C 20.0485,46.7091 15.7152,43.0424 10.5,40.5C 10.9321,39.2905 11.5987,38.2905 12.5,37.5 Z"/></g>
<g><path style="opacity:0.841" fill="#4f0cf4" d="M 9.5,41.5 C 10.9093,43.4169 12.576,45.2502 14.5,47C 17.5268,47.545 19.8601,49.045 21.5,51.5C 15.4632,51.8293 9.46325,51.4959 3.5,50.5C 5.27534,47.2624 7.27534,44.2624 9.5,41.5 Z"/></g>
<g><path style="opacity:1" fill="#4e23f3" d="M 10.5,40.5 C 15.7152,43.0424 20.0485,46.7091 23.5,51.5C 22.8333,51.5 22.1667,51.5 21.5,51.5C 19.8601,49.045 17.5268,47.545 14.5,47C 12.576,45.2502 10.9093,43.4169 9.5,41.5C 9.5,40.8333 9.83333,40.5 10.5,40.5 Z"/></g>
<g><path style="opacity:1" fill="#4442f2" d="M 13.5,36.5 C 16.4277,38.0866 19.0944,40.0866 21.5,42.5C 22.209,43.404 23.209,43.7373 24.5,43.5C 27.6071,45.188 29.2738,47.8546 29.5,51.5C 28.8333,51.5 28.1667,51.5 27.5,51.5C 22.4206,46.7483 17.4206,42.0816 12.5,37.5C 12.5,36.8333 12.8333,36.5 13.5,36.5 Z"/></g>
<g><path style="opacity:0.817" fill="#3c58f9" d="M 26.5,42.5 C 29.1438,44.969 31.9772,47.3024 35,49.5C 35.4643,50.0944 35.631,50.7611 35.5,51.5C 33.5,51.5 31.5,51.5 29.5,51.5C 29.2738,47.8546 27.6071,45.188 24.5,43.5C 25.1667,43.1667 25.8333,42.8333 26.5,42.5 Z"/></g>
<g><path style="opacity:0.869" fill="#2975f5" d="M 40.5,51.5 C 36.4656,47.4645 32.1323,43.7978 27.5,40.5C 28.6138,39.1147 29.6138,37.6147 30.5,36C 31.1667,35.3333 31.8333,35.3333 32.5,36C 35.5437,40.5876 38.7103,45.0876 42,49.5C 42.5281,50.816 42.0281,51.4827 40.5,51.5 Z"/></g>
</svg>
