<!-- by TradingView --><svg width="56" height="56" viewBox="0 0 56 56" xmlns="http://www.w3.org/2000/svg"><path fill="url(#a)" d="M0 0h56v56H0z"/><path d="M22.82 11.7v.53c0 .1-.04.15-.14.15h-.16c-.08 0-.13-.05-.14-.12a4.96 4.96 0 0 1-.02-.57c0-.3 0-.5.02-.56.01-.08.06-.12.14-.13h.16c.1 0 .14.05.14.15v.54ZM24.11 11.63l.05.32c.03.21-.03.33-.17.34a.4.4 0 0 1-.1-.07c-.23-.2-.28-.43-.15-.7l.27-.52c.22 0 .27.1.15.3a.73.73 0 0 0-.05.16.37.37 0 0 0 0 .17ZM21.44 11.1c.13.03.15.38.08 1.06 0 .12-.07.2-.2.22h-.14a.4.4 0 0 1-.13-.06c-.1-.07-.13-.17-.1-.28.2-.65.37-.96.49-.93ZM25.4 11.07a.2.2 0 0 1 .12.04c.08.06.1.14.04.23-.1.22-.09.42.05.63.08.1.06.2-.05.27a.35.35 0 0 1-.19.04.38.38 0 0 1-.18-.05c-.1-.07-.12-.16-.04-.27.14-.2.16-.4.06-.62-.04-.1-.02-.17.06-.23a.19.19 0 0 1 .12-.04ZM18.7 11.62c.04-.06.08-.06.12 0 .09.2.1.38.04.56-.05.14-.14.2-.28.19l-.16-.01c-.18-.02-.21-.1-.1-.25l.37-.49ZM19.64 11.71a.25.25 0 0 1 .2-.15c.1 0 .18.02.24.1.15.19.15.39 0 .6a.26.26 0 0 1-.27.13.26.26 0 0 1-.23-.2.66.66 0 0 1 .06-.48ZM26.93 12.31c.1.12.13.2.08.24a.33.33 0 0 1-.37.07.34.34 0 0 1-.24-.3c-.04-.4.01-.63.16-.68.18-.06.27.01.27.2v.2c0 .1.03.2.1.27ZM27.78 12.28a.73.73 0 0 0-.18-.31c-.1-.12-.1-.2-.01-.25.02-.01.07-.02.15-.02.08 0 .13.03.15.11.04.2.18.37.4.54.14.1.14.19 0 .28-.16.1-.34.11-.55.04-.11-.04-.13-.1-.07-.19l.06-.06c.04-.04.06-.1.05-.14ZM17.21 12.12c0-.05.01-.1.05-.12.04-.02.08-.02.12 0 .09.07.11.14.09.23-.04.12-.1.13-.2.03a.27.27 0 0 1-.06-.14ZM29.8 12.72c-.33.11-.67.04-1.02-.24v-.02l.13-.13c.04-.04.09-.05.14-.03.49.23 1 .3 1.54.23.04 0 .08.02.1.09.04.08.02.12-.05.13-.16.02-.32.01-.46-.03a.57.57 0 0 0-.37 0ZM29.44 14.4l.33.33c.07.09.09.18.03.28-.05.1-.16.12-.3.05-.5-.22-.68-.64-.55-1.25.03-.16.13-.25.3-.25.2 0 .35 0 .44.05.09.04.1.1.03.17l-.28.28c-.11.12-.11.23 0 .34ZM30.53 13.56a1 1 0 0 1 .32 0c.14.07.15.18.03.33-.16.2-.15.49.05.85.07.14.05.26-.07.36-.03.04-.1.06-.2.07-.11 0-.18 0-.22-.04-.13-.08-.17-.2-.12-.34.14-.4.11-.68-.07-.85-.15-.13-.16-.24-.03-.33.04-.02.14-.03.31-.05ZM27.56 13.66a.7.7 0 0 1 .5-.07c.1.01.16.07.2.16.03.09 0 .13-.1.12l-.52-.05c-.22-.01-.24-.07-.08-.16ZM32 14.78l.38.22c.04.02.07.05.07.1.01.05 0 .1-.04.12l-.05.05-.78-.19c-.17-.04-.23-.14-.16-.3.06-.14.06-.34.01-.6-.01-.08.02-.12.1-.12h.14c.1 0 .16.05.16.16v.28c0 .13.05.22.16.28ZM33.33 14.11c0-.09.03-.13.08-.13.09 0 .15.03.2.09.04.07.02.11-.06.13l-.17-.01c-.03-.01-.05-.04-.05-.08ZM34.98 14.91c.1.07.1.13 0 .2a.5.5 0 0 1-.61-.02.33.33 0 0 1-.14-.25.8.8 0 0 1 0-.18c.03-.15.11-.18.23-.1l.52.35ZM30.73 16.75l.11.37c.07.21 0 .32-.18.32h-.2c-.11 0-.17-.06-.17-.19v-.92c0-.16.07-.25.23-.27.1-.01.2 0 .28.02.21.05.24.16.09.32l-.1.1a.24.24 0 0 0-.06.25ZM31.69 16.7l-.22-.32c-.11-.16-.07-.24.13-.24h.43c.1 0 .15.05.15.15v.89c0 .18-.08.26-.26.25-.16 0-.28-.07-.36-.17-.05-.08-.05-.15.01-.22l.1-.1c.07-.06.07-.14.02-.23ZM34.38 16.39c-.05-.06-.03-.17.06-.31.02-.04.1-.05.23-.02.13.03.2.1.24.23.03.14.04.27 0 .38-.05.21-.14.23-.27.06l-.26-.34ZM35.77 16.7c.18.22.36.4.55.5.16.1.16.19-.03.25-.12.04-.26.01-.43-.08-.26-.15-.32-.37-.18-.66.03-.04.06-.05.1 0ZM32.94 17.32c-.13-.06-.15-.2-.07-.4.09-.2.2-.2.32-.05.06.08.1.17.1.27 0 .13-.05.19-.17.19h-.18ZM14.02 36.36a12.57 12.57 0 0 0 2.8 3.64c4.93 4.23 10.35 4.88 16.24 1.94.03-.02.06-.03.07-.02l.02.01c.02.01.02.02 0 .03-4.79 2.7-9.51 2.72-14.17.05a13.52 13.52 0 0 1-5.3-5.47 13.94 13.94 0 0 1-1.66-7.48c.3-5.44 2.86-9.5 7.67-12.15.02-.01.02 0 .02.02v.02c0 .01-.01.03-.05.05-5.6 3.48-7.99 8.48-7.14 15 .18 1.37.68 2.83 1.5 4.36ZM29.34 19.08l.27.08c.12.04.12.08 0 .12a.34.34 0 0 1-.33-.05c-.04-.03-.05-.06-.03-.1.02-.05.05-.07.09-.05ZM31.9 19.19c.1 0 .18 0 .26.04.18.07.24.2.2.38-.04.17-.04.29 0 .34.1.12.05.23-.11.3-.04.02-.14.03-.3.04l-.3-.01c-.18-.07-.22-.16-.14-.3.04-.05.03-.17-.02-.33-.06-.18 0-.31.16-.4a.58.58 0 0 1 .25-.06ZM33.64 19.74c0 .11.02.23.04.37.04.17-.03.25-.2.25h-.3c-.16 0-.23-.09-.2-.25.02-.14.03-.25.02-.32 0-.08-.03-.18-.07-.32-.05-.16.01-.25.18-.27l.3-.05c.16-.02.24.06.23.22v.37ZM34.92 19.71l.04.46c0 .13-.06.2-.19.2h-.2c-.16 0-.25-.08-.27-.24l-.03-.34-.05-.34c-.01-.15.05-.25.2-.29l.21-.05c.13-.03.2.02.22.15l.07.45ZM35.96 19.15c.3-.01.44.27.43.86a.3.3 0 0 1-.2.28.5.5 0 0 1-.3.02c-.13-.03-.2-.11-.23-.25-.09-.58.01-.88.3-.9ZM37.37 19.15l.15.03c.1.03.17.11.18.23.05.66-.08.99-.4.97-.31-.02-.4-.35-.29-1 .03-.13.1-.2.21-.22h.15ZM30.93 19.4v.66c0 .1-.04.16-.12.2a.8.8 0 0 1-.34.08c-.13 0-.2-.06-.2-.2v-.74c0-.13.08-.19.22-.19h.27c.11 0 .17.06.17.18ZM22.61 20.37c.26-.02.46-.22.45-.45-.02-.24-.24-.42-.5-.4-.26.02-.46.22-.45.45.02.24.24.41.5.4ZM26.71 20.35c.26-.07.43-.29.39-.5-.05-.2-.3-.33-.56-.27-.26.06-.44.28-.39.5.05.2.3.33.56.27ZM23.83 19.58c.03-.01.17.03.43.14.17.06.2.17.11.32-.17.28-.35.38-.53.3-.57-.23-.57-.49 0-.76ZM25.36 20.28c.32-.02.56-.18.54-.37 0-.18-.27-.31-.58-.29-.31.02-.55.19-.54.37.01.19.27.32.58.3ZM41.23 20l.22-.03c.46.1.47.25.04.44-.07.04-.18-.02-.33-.18-.12-.12-.1-.2.07-.23Z" fill="#A0B3A7"/><path d="M21.29 20.18c.07-.16.13-.22.2-.18.08.06.11.14.08.24-.02.1-.08.16-.19.17-.13 0-.16-.07-.1-.23ZM28.25 20.08c.18.15.17.24-.03.26-.25.04-.47 0-.67-.09-.23-.12-.22-.19.04-.22.35-.04.57-.02.66.05ZM38.46 20.37c.1 0 .19-.08.19-.19 0-.1-.08-.18-.19-.18-.1 0-.18.08-.18.18 0 .1.08.19.18.19ZM40.27 20.35c.1 0 .17-.07.17-.16 0-.1-.08-.17-.17-.17-.09 0-.16.07-.16.17 0 .09.07.16.16.16ZM42.5 20.14c.18-.1.33-.14.45-.1.25.09.26.18.02.27-.14.06-.3.05-.45-.03-.09-.04-.1-.09-.01-.14ZM22.24 21.13c.34-.12.56-.12.67.01.06.08.08.16.05.25a.22.22 0 0 1-.18.16c-.42.1-.64.02-.66-.22-.01-.1.03-.16.12-.2ZM38.3 21.49l-.03-.23c-.03-.26.04-.3.2-.12.37.38.55.94.55 1.66 0 .1-.04.14-.13.14h-.54c-.07 0-.1-.04-.08-.1.1-.5.1-.95.03-1.35ZM40.14 21.16c.06-.12.12-.12.18 0 .06.1.08.2.04.3-.04.1-.1.12-.18.05-.1-.1-.1-.2-.04-.35ZM41.71 21.85v.54c-.01.18-.1.26-.27.25a.3.3 0 0 1-.3-.22 13.57 13.57 0 0 1 .01-1.15.3.3 0 0 1 .3-.21c.17 0 .25.07.26.25v.54ZM24.3 21.23v.43c0 .17-.07.28-.23.33-.27.09-.45-.04-.53-.38-.03-.11 0-.21.05-.3.15-.23.37-.28.66-.15.04.01.05.03.05.07ZM25.7 21.28v1.15c0 .07-.03.11-.1.14-.06.02-.11 0-.15-.05a2.25 2.25 0 0 1-.44-1.08c-.03-.2.06-.3.26-.3h.3c.09 0 .14.04.14.14ZM27.6 22.66c.06-.24.03-.63-.1-1.15-.05-.18.01-.28.19-.32l.42-.1c.08 0 .14.01.19.07a.2.2 0 0 1 .03.2c-.18.47-.14.94.1 1.43.04.07.02.1-.05.1h-1.73c-.08 0-.14-.04-.15-.13l-.28-1.31c-.04-.2.04-.32.23-.35.14-.02.27-.02.42.02.17.03.22.13.16.3-.17.44-.12.88.15 1.3a.2.2 0 0 0 .23.11c.1-.01.16-.07.18-.17ZM30.93 21.58c-.07.36-.03.69.12 1 .06.12.03.2-.08.26a.38.38 0 0 1-.14.04c-.12 0-.16-.06-.13-.17.18-.63.04-1.06-.4-1.28-.08-.04-.1-.1-.08-.17.02-.09.07-.12.15-.12l.71.06c.19.01.2.07.04.18l-.14.1a.18.18 0 0 0-.05.1ZM32 22.34l-.6-.9c-.11-.19-.07-.27.14-.27h.68c.15 0 .21.07.18.22-.07.3-.07.58.01.84.04.14 0 .26-.1.35-.35.25-.65.36-.9.31-.13-.02-.16-.1-.12-.22.07-.17.28-.23.62-.16.16.02.19-.03.1-.17ZM33.56 22.15c.09.1.14.2.15.28.02.13-.03.16-.13.09a1.22 1.22 0 0 1-.61-1.11c0-.18.1-.27.27-.27h.27c.17 0 .22.08.16.23-.12.28-.16.54-.1.78ZM34.85 22.25c0 .07.02.17.06.28.03.11.05.19.04.24 0 .09-.04.15-.13.18-.08.02-.15 0-.2-.07-.3-.44-.4-.96-.29-1.57.02-.12.09-.18.2-.18h.24c.11 0 .16.06.14.17-.06.32-.08.63-.06.95ZM35.95 21.14l.16.01c.1.04.15.11.13.23-.09.47-.06.9.1 1.28.05.13 0 .22-.13.27a.65.65 0 0 1-.22.03.7.7 0 0 1-.22-.02c-.14-.04-.18-.13-.13-.27.13-.39.15-.81.04-1.28-.03-.11.01-.2.12-.23l.15-.02ZM37.32 21.1c.04 0 .09.01.15.04.1.04.14.11.13.21-.04.5-.01.95.1 1.34.03.15-.02.24-.17.28h-.43c-.15-.04-.2-.13-.16-.28.1-.39.14-.84.1-1.34-.01-.1.03-.17.13-.21a.45.45 0 0 1 .15-.04ZM42.63 21.88c-.1-.25-.12-.44-.09-.56.02-.1.08-.16.18-.19.1-.02.17 0 .24.07.13.14.14.35.06.62-.06.15-.14.22-.25.2a.22.22 0 0 1-.14-.14ZM28.97 22.5a2.08 2.08 0 0 1-.02-.81c.1-.29.17-.28.2.02l.09 1.03c.02.22-.08.24-.3.08-.04-.03-.05-.07 0-.13a.27.27 0 0 0 .03-.18ZM28.28 23.8c.18.06.2.13.04.24-.18.14-.46.1-.83-.09-.12-.06-.12-.12 0-.18.14-.08.4-.06.8.04ZM37.51 23.73l-.41.01a.14.14 0 0 0-.13.15l.03 1.45c0 .08.06.14.14.14l.41-.01c.08 0 .14-.07.13-.14l-.03-1.46a.14.14 0 0 0-.14-.14ZM38.8 23.68h-.3a.16.16 0 0 0-.15.15l-.02 1.5c0 .09.07.16.16.16h.3c.08 0 .15-.07.16-.15l.01-1.5a.16.16 0 0 0-.15-.16ZM24.24 24.5c.04.25.06.48.06.7 0 .19-.09.28-.27.28h-.35c-.13 0-.19-.07-.16-.2.1-.6.2-.97.27-1.12.05-.12.2-.22.43-.3.22-.08.27-.02.13.2a1.85 1.85 0 0 0-.1.43ZM24.99 24.2l-.05-.2c-.02-.18.04-.23.18-.15.49.27.7.72.62 1.34-.03.2-.14.29-.32.29h-.38c-.2 0-.24-.09-.15-.27.18-.3.21-.65.1-1.01ZM34.7 24.38v-.44c0-.08.03-.13.1-.15.06-.01.1 0 .13.04.02.04.03.07.01.11-.13.34-.11.78.07 1.31.05.17 0 .25-.18.24a1 1 0 0 1-.57-.2c-.15-.1-.16-.23-.03-.37l.4-.41a.17.17 0 0 0 .06-.13ZM36.21 24.6c0 .2.05.42.13.68.01.05 0 .1-.03.13-.04.03-.08.04-.12.02l-.14.02c-.22.05-.34-.04-.35-.28a34.9 34.9 0 0 1-.02-1.12c0-.23.1-.33.33-.29.08.01.13.02.14.01.04-.02.08-.01.12.02.04.04.05.08.04.13-.07.26-.1.48-.1.68ZM40.17 24.6c.2.18.32.32.36.41.07.16.04.28-.09.36a.84.84 0 0 1-.46.11c-.18 0-.26-.09-.24-.27.02-.32 0-.72-.06-1.2-.01-.08 0-.14.03-.18a.15.15 0 0 1 .15-.04c.08.01.12.06.12.15v.25c0 .17.06.3.19.41ZM30.9 24.65a2.91 2.91 0 0 1 .14.42c.01.33-.2.47-.62.41-.2-.03-.26-.13-.17-.32.08-.18.07-.34-.02-.48-.1-.14-.09-.27.03-.4.35-.35.88-.47 1.6-.36.17.03.27.12.3.3l.21.98c.03.16-.03.25-.19.27-.19.02-.37 0-.54-.06-.16-.05-.22-.16-.16-.33.19-.58.1-.9-.28-.97a.28.28 0 0 0-.27.1.38.38 0 0 0-.08.14c-.01.07 0 .17.06.3ZM23.08 24.55c-.06.12-.1.28-.12.47-.02.14-.04.24-.07.3a.38.38 0 0 1-.27.25.36.36 0 0 1-.35-.1c-.17-.16-.18-.4-.03-.7.15-.29.37-.45.67-.49.23-.03.29.06.17.27ZM32.95 24.95l-.09-.42a.18.18 0 0 1 .07-.19.17.17 0 0 1 .2 0c.19.1.37.3.55.56.1.14.1.27-.01.4a.5.5 0 0 1-.47.2c-.17 0-.27-.05-.28-.13 0-.06 0-.11.02-.17a.54.54 0 0 0 .01-.25ZM20.93 24.66c.12-.04.28-.06.47-.05.2 0 .3.1.3.31v.27c0 .12-.05.22-.14.29-.1.07-.2.1-.32.07-.33-.1-.48-.32-.46-.68 0-.1.05-.17.15-.2ZM26.28 24.77c.1-.1.23-.14.38-.1.5.13.59.38.28.73-.15.18-.33.21-.53.1-.35-.22-.4-.46-.13-.73ZM28.98 25.2l.38-.38c.65-.07.74.13.27.6-.1.1-.31.1-.6 0-.14-.05-.15-.12-.05-.22ZM18.87 25.45c.1-.09.11-.22.05-.29-.07-.07-.2-.06-.3.02-.09.09-.1.22-.04.3.07.07.2.06.29-.03ZM19.6 25.16c.16-.08.26-.1.29-.1.53.2.52.35-.01.47-.1.03-.2 0-.3-.08-.15-.12-.14-.21.03-.3ZM27.87 25.47c.26 0 .48-.06.48-.15 0-.1-.2-.18-.46-.19-.27-.01-.48.06-.48.15 0 .1.2.18.46.19ZM17.27 26.15H17a.24.24 0 0 0-.24.25l.02 1.46c0 .13.1.24.24.24h.28c.13 0 .24-.11.24-.25l-.02-1.46c0-.14-.1-.24-.24-.24ZM18.8 26.2l-.5-.01a.12.12 0 0 0-.13.12l-.03 1.63c0 .07.06.12.12.13h.5c.07 0 .13-.05.13-.12l.02-1.63a.12.12 0 0 0-.12-.12ZM19.98 26.16h-.28a.2.2 0 0 0-.2.22v1.52c0 .12.1.21.22.21H20c.11 0 .2-.1.2-.22l-.01-1.52a.2.2 0 0 0-.21-.2ZM21.48 26.2h-.43a.15.15 0 0 0-.15.15l-.01 1.56c0 .09.06.15.14.15h.44c.08.01.14-.06.14-.14l.02-1.57a.15.15 0 0 0-.15-.15ZM22.82 26.2h-.47a.14.14 0 0 0-.14.15l.02 1.59c0 .08.07.14.14.14h.47c.08 0 .14-.07.14-.15l-.02-1.6a.14.14 0 0 0-.14-.13ZM26.94 27.06c.01.2.05.42.12.65.05.17 0 .26-.18.28l-.43.05c-.21.03-.28-.06-.2-.27.1-.27.14-.5.13-.68-.01-.17-.08-.4-.2-.65-.11-.2-.05-.3.17-.3h.42c.18 0 .25.1.22.26-.05.24-.06.46-.05.66ZM38.92 27.1c0 .2.02.4.08.62.04.16-.03.25-.19.26l-.4.03c-.2 0-.27-.08-.19-.27.11-.26.17-.47.17-.64 0-.17-.06-.38-.17-.63-.09-.2-.02-.29.18-.28l.4.03c.17.01.23.1.2.26-.06.22-.08.42-.08.62ZM40.23 26.2h-.3a.15.15 0 0 0-.15.16v1.57c0 .09.07.15.15.15h.3c.09 0 .15-.06.15-.15v-1.57a.15.15 0 0 0-.15-.15ZM41.49 27.5l.17.31c.1.2.05.3-.16.31-.06 0-.12 0-.18-.02-.14-.04-.2-.14-.2-.28v-1.53c0-.06.02-.09.08-.09h.15c.02 0 .03.01.03.03v.8a1 1 0 0 0 .1.47ZM23.67 27.18c0-.2-.04-.41-.1-.63-.05-.17.01-.26.18-.28l.41-.04c.21-.02.28.07.2.27-.1.27-.15.49-.14.66 0 .17.06.38.18.64.1.2.04.3-.18.28h-.41c-.17-.01-.24-.1-.2-.27.05-.22.07-.43.06-.63ZM25.63 27.15c0 .2.05.41.11.64.05.17 0 .26-.18.28l-.42.05c-.22.03-.29-.06-.21-.27.1-.28.15-.5.14-.68-.01-.17-.08-.4-.2-.65-.1-.2-.05-.3.17-.3h.43c.17 0 .24.1.2.27-.04.23-.05.45-.04.66ZM28.2 27.12c.02.2.05.42.11.64.05.17-.01.26-.18.28l-.43.04c-.2.02-.28-.07-.2-.28.11-.27.16-.49.15-.66 0-.18-.07-.4-.19-.66-.09-.2-.03-.3.19-.29l.42.02c.17 0 .24.1.2.26-.05.23-.07.45-.06.65ZM29.06 27.15c0-.21-.04-.43-.1-.66-.05-.17.01-.27.19-.28l.42-.05c.22-.02.29.08.2.29-.1.27-.15.5-.14.67 0 .18.07.4.19.67.1.2.04.3-.18.3l-.43-.02c-.18 0-.25-.1-.21-.27.05-.23.07-.45.06-.65ZM30.32 27.19c-.01-.2-.05-.41-.12-.63-.05-.17 0-.26.17-.28l.42-.05c.21-.03.28.06.2.26-.1.27-.14.5-.13.67.01.17.08.38.21.64.1.2.04.29-.17.28h-.42c-.17 0-.24-.08-.2-.25.03-.23.05-.44.04-.64ZM32.21 27.13c.02.18.09.4.22.66.1.2.05.3-.17.3h-.43c-.18 0-.25-.09-.22-.26.04-.24.05-.46.04-.67-.01-.2-.05-.42-.12-.64-.05-.17 0-.27.18-.3l.42-.05c.22-.03.3.06.22.27-.1.28-.14.51-.14.69ZM33 27.14c0-.2-.04-.4-.1-.63-.05-.17.02-.26.18-.27l.42-.04c.21-.02.28.07.2.27-.1.27-.16.49-.15.66 0 .17.06.39.18.65.1.2.04.3-.18.28l-.42-.01c-.17 0-.23-.1-.2-.26.05-.23.07-.45.07-.65ZM34.3 27.18c0-.2-.03-.4-.09-.63-.04-.16.02-.25.19-.27l.4-.03c.22-.02.28.07.2.27-.1.26-.15.48-.15.65 0 .17.06.39.18.64.1.2.03.3-.18.28l-.41-.01c-.17-.01-.23-.1-.2-.27.05-.22.07-.43.07-.63ZM35.67 26.32c0-.07.03-.1.1-.1h.22c.18-.01.27.08.28.26v1.32c0 .18-.08.27-.26.27h-.23c-.06 0-.1-.03-.1-.1l-.01-1.65ZM37.59 27.17c-.02.2 0 .42.04.64.03.18-.04.26-.2.27H37c-.2 0-.27-.1-.17-.3.13-.25.2-.47.2-.64.02-.17-.03-.4-.13-.67-.07-.2 0-.29.2-.26l.42.05c.17.02.23.11.18.28-.07.22-.1.43-.11.63ZM15.46 27.7l.36-.1c.12-.03.21.01.26.13.04.08.05.14.04.2-.07.24-.22.32-.45.21-.33-.15-.4-.3-.24-.42l.03-.02ZM15.99 28.8h-.45c-.1 0-.18.08-.18.17v1.49c0 .1.07.18.17.18h.45c.1 0 .17-.08.17-.18l.01-1.48c0-.1-.08-.18-.17-.18ZM17.38 28.78h-.46c-.1 0-.19.08-.19.18v1.54c0 .1.08.19.18.19h.46c.1 0 .18-.08.18-.18v-1.55c0-.1-.07-.18-.17-.18ZM18.77 28.8h-.5a.13.13 0 0 0-.13.14v1.58c0 .07.06.13.14.13h.5c.07 0 .12-.06.12-.13v-1.58a.13.13 0 0 0-.13-.14ZM20.03 28.78h-.35c-.1 0-.18.08-.18.19l-.01 1.49c0 .1.08.19.18.19h.35c.1 0 .18-.08.18-.19l.01-1.49c0-.1-.08-.19-.18-.19ZM21.5 28.82H21a.13.13 0 0 0-.13.13l.01 1.51c0 .07.06.13.13.13h.48c.08 0 .13-.06.13-.13v-1.51a.13.13 0 0 0-.13-.13ZM22.77 28.83h-.36c-.1 0-.17.07-.17.17l-.02 1.47c0 .1.08.17.17.17h.36c.1.01.17-.07.17-.17l.02-1.46c0-.1-.07-.18-.17-.18ZM24.23 29.7c0 .19.02.39.07.6.04.15-.03.24-.18.25l-.4.02c-.19 0-.25-.08-.17-.26.11-.25.17-.45.17-.61 0-.16-.05-.37-.15-.61-.08-.19-.02-.27.17-.26l.4.03c.15.01.2.1.17.25-.05.21-.08.4-.08.59ZM26.35 29.76c0-.2-.04-.4-.1-.61-.04-.17.02-.26.18-.27l.4-.04c.2-.02.27.06.2.26-.1.26-.15.47-.14.64 0 .17.06.38.18.63.1.19.03.28-.17.27h-.4c-.17-.01-.23-.1-.2-.26.04-.22.06-.43.05-.62ZM33.56 29.67c0 .2.03.4.08.6.04.16-.02.24-.18.25l-.38.03c-.2.02-.26-.07-.18-.25.1-.25.15-.46.15-.62 0-.16-.06-.36-.17-.6-.08-.2-.03-.28.17-.27l.4.02c.15 0 .21.09.17.25-.04.2-.06.4-.06.6ZM34.9 29c-.08.58-.04 1.04.13 1.37.06.13.02.2-.13.2h-.5a.23.23 0 0 1-.2-.12.25.25 0 0 1-.02-.24c.15-.3.19-.7.13-1.2-.01-.08.03-.14.12-.16l.27-.06c.16-.03.23.03.2.2ZM35.7 29.69c0-.18-.02-.38-.07-.58-.04-.16.02-.24.17-.26l.38-.03c.2-.01.26.07.18.26-.1.24-.15.45-.14.6 0 .16.05.36.16.6.08.19.02.27-.17.26l-.39-.02c-.15 0-.2-.09-.18-.24.05-.21.07-.4.07-.6ZM37.3 28.82a.6.6 0 0 1 .17 0c.1.03.16.1.16.21v1.4c0 .1-.04.14-.13.16h-.32c-.09 0-.13-.05-.13-.14l-.06-1.4c0-.12.05-.19.16-.22l.16-.01ZM38.65 28.79c.29 0 .37.55.25 1.66 0 .07-.05.12-.12.14a.47.47 0 0 1-.28 0 .16.16 0 0 1-.12-.14c-.1-1.11-.02-1.66.27-1.66ZM40.26 28.77h-.34a.13.13 0 0 0-.13.13l.02 1.62c0 .07.06.13.12.12h.34c.07 0 .13-.06.12-.13V28.9a.12.12 0 0 0-.13-.13ZM41.42 28.8a.4.4 0 0 1 .12.01.2.2 0 0 1 .15.18c.14 1.1.06 1.65-.24 1.65s-.4-.54-.3-1.64c.01-.09.06-.15.15-.18a.3.3 0 0 1 .12-.03ZM25.66 29.72c0 .2.04.4.1.6.04.15-.02.24-.17.25l-.39.05c-.2.02-.26-.07-.18-.26.1-.25.14-.45.13-.61 0-.16-.07-.37-.18-.6-.09-.19-.03-.28.17-.28l.38.02c.16 0 .23.08.2.24-.05.2-.07.4-.06.6ZM28.2 29.74c0 .18.02.36.07.56.04.15-.02.24-.17.25l-.37.02c-.2.02-.25-.07-.17-.25.1-.24.14-.43.14-.58 0-.15-.05-.35-.15-.59-.08-.17-.02-.26.17-.25l.37.03c.15 0 .2.08.17.23-.04.2-.07.4-.07.58ZM29.59 29.33a.33.33 0 0 0-.09.25c.03.2.15.38.35.54.13.11.13.21-.02.3a.95.95 0 0 1-.8.11c-.2-.05-.25-.17-.15-.34.13-.23.13-.56.02-.98-.05-.19.02-.28.22-.29h.47c.27-.02.3.08.12.28l-.12.13ZM30.84 29.33a.3.3 0 0 0-.08.24.8.8 0 0 0 .31.52c.12.11.12.21-.02.3a.9.9 0 0 1-.78.07c-.18-.05-.22-.16-.13-.33.13-.22.15-.53.06-.93-.05-.18.02-.27.2-.27h.45c.26 0 .3.1.12.28l-.13.12ZM32.12 29.56c.02.2.13.39.33.56.13.11.12.21-.02.3a.95.95 0 0 1-.82.08c-.2-.05-.24-.17-.14-.34.14-.23.15-.56.05-.98-.04-.2.03-.29.23-.29h.47c.27 0 .3.1.12.3l-.13.12a.31.31 0 0 0-.1.25ZM42.46 29.97c.06-.15.15-.17.25-.05.15.18.15.36 0 .56a.15.15 0 0 1-.16.07.15.15 0 0 1-.12-.12.68.68 0 0 1 .03-.46ZM16.02 31.24h-.52a.12.12 0 0 0-.13.13v1.64c0 .06.06.12.13.12h.52c.07 0 .12-.06.12-.13v-1.63a.12.12 0 0 0-.12-.13ZM17.38 31.22h-.48c-.1 0-.17.08-.17.17v1.59c0 .1.08.18.17.18h.48c.1 0 .17-.08.17-.18v-1.59c0-.1-.07-.17-.17-.17ZM18.79 31.27h-.52a.12.12 0 0 0-.12.11l-.02 1.64c0 .06.05.12.12.12h.52c.07 0 .12-.05.12-.12l.02-1.63a.12.12 0 0 0-.12-.12ZM20.03 31.24h-.39a.15.15 0 0 0-.15.16l.02 1.6c0 .09.07.15.15.15h.4c.08 0 .14-.07.14-.16l-.01-1.6a.15.15 0 0 0-.16-.15ZM21.47 31.26h-.43a.13.13 0 0 0-.14.14v1.58c0 .07.06.13.13.13h.44c.07 0 .13-.06.13-.13V31.4a.13.13 0 0 0-.13-.14ZM22.77 31.25h-.38a.16.16 0 0 0-.16.16l.01 1.55c0 .1.08.17.17.17h.38c.09 0 .16-.08.16-.17l-.01-1.55a.16.16 0 0 0-.17-.16ZM24.24 32.17c0 .2.03.4.08.62.04.16-.02.25-.18.26l-.4.03c-.2.01-.27-.08-.18-.27.1-.26.16-.47.15-.63 0-.17-.05-.37-.16-.63-.09-.19-.03-.28.18-.27l.4.03c.16 0 .22.1.19.25-.06.22-.08.43-.08.61ZM25.63 32.19c.01.2.05.4.11.63.05.16 0 .25-.17.27l-.42.05c-.2.02-.27-.07-.2-.27.1-.27.15-.49.14-.66 0-.17-.07-.38-.2-.64-.09-.2-.03-.29.18-.28h.42c.16.01.23.1.2.26-.04.23-.06.44-.06.64ZM26.83 31.28l-.45.02a.12.12 0 0 0-.11.12l.06 1.54c0 .07.06.12.12.12l.45-.02c.07 0 .12-.06.11-.13l-.05-1.54a.12.12 0 0 0-.13-.11ZM28.22 32.19c0 .2.04.42.1.65.05.17-.01.26-.18.28l-.43.04c-.22.02-.28-.07-.2-.28.1-.27.15-.5.15-.68 0-.17-.07-.4-.2-.66-.09-.2-.02-.3.2-.29l.42.02c.17 0 .24.09.2.26-.04.24-.06.45-.06.66ZM29.05 32.22c-.01-.2-.05-.4-.1-.62-.06-.16 0-.25.17-.27l.4-.04c.21-.02.28.07.2.27-.1.26-.14.47-.14.64 0 .17.07.38.2.64.09.19.03.28-.18.28l-.4-.01c-.18 0-.24-.1-.2-.26.04-.22.06-.43.05-.63ZM30.33 32.22c0-.2-.04-.4-.11-.62-.05-.16.01-.25.17-.27l.41-.05c.2-.03.27.06.2.26-.1.26-.14.48-.13.65 0 .16.07.37.2.62.1.2.04.3-.17.29h-.4c-.17 0-.24-.09-.21-.26.04-.22.05-.43.04-.62ZM32.31 32.74l.38.13c.17.06.27 0 .3-.16.06-.42.04-.79-.1-1.1-.08-.21 0-.32.21-.32h.43c.18 0 .22.08.14.24-.26.51-.24.95.08 1.32.14.15.1.23-.11.23h-1.92c-.2 0-.26-.09-.2-.27.14-.41.12-.79-.05-1.14-.1-.22-.04-.34.2-.34h.68c.06 0 .1.03.13.1.02.06.01.11-.04.16-.28.27-.4.54-.37.82.03.18.1.29.24.33ZM34.32 32.26c0-.2-.03-.41-.1-.63-.03-.17.03-.25.2-.27l.4-.03c.21-.02.28.07.2.27-.11.26-.16.48-.16.65 0 .17.06.38.18.63.08.2.02.3-.18.28l-.42-.01c-.16-.01-.22-.1-.19-.27.05-.22.07-.42.07-.62ZM35.96 31.27h.15c.15.01.2.1.17.24-.07.34-.06.77.03 1.3.02.12-.03.2-.16.26a.46.46 0 0 1-.17.03.4.4 0 0 1-.16-.02c-.13-.06-.19-.15-.17-.27a3.3 3.3 0 0 0 0-1.29c-.04-.15.01-.23.16-.24h.15ZM36.97 31.33h.58c.13 0 .19.06.19.19v.36c0 .2-.1.28-.3.22-.41-.13-.61-.35-.6-.66.01-.07.05-.1.13-.1ZM38.53 31.29a.48.48 0 0 1 .18-.02c.14.02.22.1.24.25.06.7.03 1.05-.09 1.08-.11.03-.3-.27-.58-.9-.06-.14-.03-.26.1-.34a.5.5 0 0 1 .15-.07ZM40.1 32.05c.25.32.37.52.36.6-.16.66-.34.67-.55.01-.12-.37-.2-.7-.22-1-.05-.5.05-.55.3-.11.01.01.02.07 0 .19 0 .12.04.22.11.31ZM41.51 31.38a.13.13 0 0 1 .13-.09c.06 0 .1.02.13.08.1.19.08.38-.03.57-.07.12-.14.12-.22 0-.09-.15-.09-.33 0-.56ZM43.1 32.23c-.01.3-.14.55-.4.75-.13.1-.2.07-.2-.1a48.15 48.15 0 0 1 .02-1.3c0-.18.08-.21.2-.1.26.2.38.45.37.75ZM41.54 33.16c-.06.06-.15.06-.26.01-.16-.07-.2-.18-.12-.33.08-.16.16-.23.23-.22.44.08.5.26.15.54ZM37.27 32.67c.1-.04.22 0 .37.13.14.12.13.21-.05.27l-.3.07c-.45-.16-.45-.32-.02-.47ZM15.87 33.87h-.21a.29.29 0 0 0-.3.29v1.35c0 .16.13.29.28.3h.22c.16 0 .29-.14.29-.3v-1.35a.29.29 0 0 0-.28-.29ZM17.3 33.87H17a.27.27 0 0 0-.27.27l-.02 1.39c0 .15.12.27.27.27h.3c.15 0 .27-.12.28-.27l.01-1.39a.27.27 0 0 0-.26-.27ZM18.76 33.88h-.44c-.09 0-.16.07-.16.16l-.03 1.55c0 .1.07.17.16.17h.43c.1 0 .17-.06.17-.16l.03-1.55c0-.09-.07-.17-.16-.17ZM19.96 33.86h-.26a.25.25 0 0 0-.24.25l.02 1.41c0 .14.1.25.24.25h.26c.13 0 .24-.12.24-.26l-.02-1.4a.24.24 0 0 0-.24-.25ZM21.46 33.87h-.43a.15.15 0 0 0-.15.16l.02 1.56c0 .09.07.15.15.15h.43c.08 0 .15-.07.15-.16l-.02-1.56a.15.15 0 0 0-.15-.15ZM22.74 33.89h-.28c-.13-.01-.23.1-.23.22l-.03 1.43c0 .13.1.23.23.24h.28c.13 0 .23-.1.24-.23l.02-1.43c0-.13-.1-.23-.23-.23ZM34.4 33.93c.24-.06.4-.06.52.02.05.04.08.08.07.15-.01.06-.04.1-.1.13-.24.1-.41.1-.52.05-.27-.15-.26-.27.04-.35ZM37.37 33.87c.32.02.44.4.33 1.15a.3.3 0 0 1-.23.28.5.5 0 0 1-.34-.01.31.31 0 0 1-.2-.3c-.04-.76.1-1.13.44-1.12ZM23.95 33.93c.32 0 .42.53.3 1.59-.01.1-.06.15-.16.16a1.84 1.84 0 0 1-.26 0c-.1-.01-.15-.07-.16-.16-.12-1.06-.03-1.59.28-1.59ZM25.63 34.87c0 .19.02.39.07.6.03.16-.03.25-.19.25l-.4.02c-.2 0-.25-.08-.17-.27.11-.24.17-.45.17-.61 0-.16-.04-.37-.15-.62-.07-.2-.01-.28.19-.26l.4.03c.15.01.21.1.17.26-.06.2-.09.4-.09.6ZM26.76 33.94h-.3a.2.2 0 0 0-.2.22l.03 1.39c0 .11.1.2.21.2h.3c.11-.01.2-.1.2-.22l-.04-1.39a.2.2 0 0 0-.2-.2ZM30.16 34.26c.16-.13.4-.2.73-.25.21-.02.26.05.13.23-.18.24-.37.4-.57.47-.14.06-.23.01-.3-.13l-.05-.11a.15.15 0 0 0-.1-.1c-.18-.04-.33.03-.43.24-.06.11-.04.22.07.3.03.03.06.07.07.11.02.05.01.09-.02.13-.2.27-.38.4-.55.4-.19 0-.26-.1-.2-.29.07-.28.07-.59-.02-.92-.06-.2.02-.28.21-.28.29.02.5.09.66.2.13.1.25.1.37 0ZM36 34.81c.24 0 .43-.2.43-.43 0-.24-.19-.44-.42-.44-.24 0-.43.2-.43.44s.2.43.43.43ZM38.64 34.16c.32.53.45.91.4 1.13-.23.83-.48.85-.75.04-.1-.29-.1-.66 0-1.1.07-.3.19-.33.35-.07ZM41.5 34c.03-.11.09-.14.19-.07.09.07.11.17.07.3-.03.1-.09.12-.18.09-.07-.03-.1-.13-.07-.31ZM42.47 34.07c.03-.15.1-.18.22-.08.06.05.08.12.05.2-.05.14-.12.16-.23.07-.04-.04-.06-.1-.04-.2ZM28.12 34.02l-.46.02c-.1 0-.16.08-.16.17l.04 1.3c0 .09.07.16.17.16l.46-.02c.1 0 .16-.08.16-.17l-.04-1.3c0-.09-.07-.16-.17-.16ZM39.76 35.57l-.14-.9c-.03-.22.04-.26.22-.12.32.26.52.49.59.69.06.17.04.31-.07.43-.05.07-.17.11-.33.12-.16.01-.25-.06-.27-.22ZM41.83 35.58c.02.02.03.05 0 .07-.12.16-.3.18-.54.05-.25-.13-.33-.3-.26-.55.06-.2.17-.22.31-.07l.49.5ZM34.3 35.4c.24-.09.47-.1.7-.04.06.02.1.06.1.13.01.07-.02.12-.08.15a.87.87 0 0 1-.74.04c-.06-.02-.09-.07-.09-.14 0-.08.04-.12.1-.14ZM20 36.36h-.31a.2.2 0 0 0-.2.2v1.48c0 .11.1.2.2.2h.32c.1 0 .2-.1.2-.2v-1.48a.2.2 0 0 0-.21-.2ZM17.35 36.38h-.42c-.1 0-.18.09-.17.18v1.49c0 .1.08.17.17.17h.42c.1 0 .18-.08.18-.17v-1.49c0-.1-.08-.18-.18-.18ZM18.77 36.39h-.47a.14.14 0 0 0-.14.14l-.02 1.55c0 .08.06.14.14.14h.47c.08 0 .14-.06.14-.14l.02-1.55a.14.14 0 0 0-.14-.14ZM21.46 36.38l-.35-.01c-.1 0-.19.08-.2.18l-.04 1.47c0 .1.08.19.19.2h.34c.1 0 .2-.08.2-.18l.04-1.47c0-.1-.08-.2-.18-.2ZM22.75 36.36h-.29a.2.2 0 0 0-.2.2L22.22 38c0 .12.1.22.2.22h.3c.11 0 .2-.09.2-.2l.03-1.44a.2.2 0 0 0-.2-.22ZM24.18 36.43h-.4a.12.12 0 0 0-.13.11l-.03 1.51c0 .07.05.13.12.13h.4c.07 0 .12-.05.12-.11l.03-1.52a.12.12 0 0 0-.11-.12ZM25.62 37.3c0 .18.02.39.07.6.04.16-.02.24-.18.25l-.4.03c-.2.02-.25-.07-.18-.26.11-.25.16-.46.16-.62 0-.17-.05-.37-.16-.63-.08-.19-.02-.27.18-.26l.4.03c.16 0 .22.09.18.25-.05.21-.07.41-.07.6ZM26.92 37.08c.08.48-.03.82-.33 1.01-.2.13-.31.07-.31-.17v-1.3c0-.13.07-.2.2-.21.25-.01.44.04.56.15.09.08.1.16.01.24l-.08.09a.21.21 0 0 0-.05.19ZM28.3 36.68c-.32.35-.6.44-.82.26-.16-.12-.16-.24.01-.36.17-.11.41-.16.72-.14.2.01.24.1.1.24ZM34.55 36.88l-.24-.25c-.14-.14-.11-.21.08-.24.08 0 .2 0 .35.02.19.03.25.13.18.31-.1.25-.09.66.02 1.25.02.1-.02.15-.12.15a.18.18 0 0 1-.13-.06v-.85a.45.45 0 0 0-.14-.33ZM35.7 37.28c0-.2-.01-.4-.06-.62-.03-.17.04-.26.2-.26h.4c.22-.01.27.08.18.27-.12.25-.18.46-.19.63 0 .17.04.38.14.64.07.2 0 .29-.2.27l-.4-.05c-.16-.02-.22-.1-.18-.27.06-.21.1-.42.1-.61ZM30.74 36.53l.2-.04c.12-.01.18.04.18.16s-.02.25-.07.37c-.05.13-.13.14-.22.05l-.2-.2a.2.2 0 0 1-.05-.2.18.18 0 0 1 .16-.14ZM37.34 36.82c.33 0 .46.38.4 1.14-.02.13-.09.22-.22.25a.68.68 0 0 1-.36 0c-.13-.03-.2-.12-.22-.26-.06-.75.07-1.13.4-1.13ZM38.95 37.53l.01.35c.03.16-.04.26-.19.31a.66.66 0 0 1-.35-.02c-.17-.05-.22-.16-.13-.32.02-.05.04-.16.05-.35 0-.18 0-.3-.03-.35-.07-.16-.02-.27.16-.3a.67.67 0 0 1 .35 0c.15.06.2.16.17.32-.02.12-.04.24-.04.36ZM28.92 37.97c.17-.25.36-.42.59-.51.18-.07.29 0 .32.22 0 .06-.02.16-.08.29-.04.08-.11.12-.22.14-.22.03-.4.03-.53.01-.1-.01-.13-.06-.08-.15ZM18.8 39.7v.53c0 .13-.06.2-.18.22-.06 0-.12 0-.17-.02-.14-.05-.22-.16-.26-.36a5.8 5.8 0 0 1 .01-.74c.04-.2.13-.3.26-.34a.48.48 0 0 1 .18-.02c.12.02.18.09.17.22l-.02.52ZM20.07 38.97l-.43-.01a.13.13 0 0 0-.14.13l-.03 1.59c0 .07.06.13.13.13l.43.01c.07 0 .13-.05.14-.13l.03-1.59a.13.13 0 0 0-.13-.13ZM21.4 38.96h-.27a.2.2 0 0 0-.2.2l-.03 1.53c0 .12.08.2.2.21h.27a.2.2 0 0 0 .2-.2l.03-1.53a.2.2 0 0 0-.2-.2ZM22.75 38.98h-.3a.2.2 0 0 0-.2.2l-.02 1.49c0 .11.09.2.2.2h.3a.2.2 0 0 0 .2-.2l.02-1.48a.2.2 0 0 0-.2-.2ZM23.66 40.77v-1.59c0-.1.05-.16.16-.16h.22c.07 0 .12.03.13.1.2.74.06 1.3-.44 1.68-.05.03-.07.02-.07-.03ZM24.84 39.6c.21-.36.43-.56.64-.58.17-.02.22.05.16.22a.91.91 0 0 1-.66.55c-.06.01-.1 0-.13-.04-.04-.05-.04-.1-.01-.14ZM29.44 39c.06 0 .1.02.15.05.1.05.15.14.13.26-.05.44-.02.82.07 1.13.05.16 0 .27-.16.33a.75.75 0 0 1-.28.03.73.73 0 0 1-.28-.06c-.15-.07-.2-.2-.12-.35.12-.3.19-.67.18-1.12 0-.11.06-.2.16-.24l.15-.03ZM35.68 39.92c-.01-.2-.04-.4-.1-.62-.05-.16 0-.25.17-.26l.4-.05c.21-.02.28.07.2.27-.1.26-.14.48-.14.64 0 .17.07.38.19.63.1.2.03.29-.18.28h-.4c-.17-.02-.23-.1-.2-.27.04-.22.06-.42.06-.62ZM37.54 38.99h-.42a.14.14 0 0 0-.14.14l-.01 1.54c0 .08.06.14.14.14h.42c.08 0 .14-.06.14-.14l.01-1.54a.14.14 0 0 0-.14-.14ZM38.73 38.98c.05.01.1.03.13.07.06.04.09.1.08.18-.17 1.1-.35 1.62-.53 1.59-.18-.03-.16-.59.04-1.67a.19.19 0 0 1 .13-.16h.15ZM34.8 39.16c0-.04.03-.05.07-.05.04 0 .07.02.08.06.07.27.05.47-.06.61-.08.11-.14.1-.16-.03-.04-.2-.02-.4.06-.59ZM27.97 40.1a.68.68 0 0 0-.36-.21c-.2-.05-.23-.14-.06-.27.28-.2.5-.33.69-.36.18-.04.23.03.14.2-.17.3-.14.62.1.94.08.12.06.2-.05.27l-.13.07c-.2.11-.28.04-.24-.2v-.18a.4.4 0 0 0-.09-.25ZM37.41 41.47l.17.07c.13.08.17.2.12.34-.28.94-.5 1.4-.64 1.37-.14-.03-.17-.54-.07-1.52 0-.15.09-.24.23-.26h.2ZM28.9 41.58a.34.34 0 0 1 .34 0c.1.05.1.1.04.18-.09.1-.21.12-.37.03-.13-.07-.14-.14 0-.21ZM33.53 41.58c.09-.02.11 0 .09.1-.03.08-.1.13-.23.16-.11.02-.13-.02-.06-.1.09-.1.15-.15.2-.16ZM35.87 41.55a.77.77 0 0 1 .2-.04c.17 0 .26.08.27.24.06.6.02.92-.11.96-.13.05-.34-.2-.63-.72-.08-.14-.05-.26.09-.35a.8.8 0 0 1 .18-.09ZM38.2 41.92c0 .21.12.38.26.38s.25-.18.25-.4c-.01-.21-.13-.38-.27-.38s-.25.19-.25.4Z" fill="#A0B3A7"/><defs><linearGradient id="a" x1="10.42" y1="9.71" x2="68.15" y2="76.02" gradientUnits="userSpaceOnUse"><stop stop-color="#1A1E21"/><stop offset="1" stop-color="#06060A"/></linearGradient></defs></svg>