<!-- by TradingView --><svg width="56" height="56" viewBox="0 0 56 56" xmlns="http://www.w3.org/2000/svg"><path fill="#ACF601" d="M0 0h56v56H0z"/><path d="M41.99 14.88a2.5 2.5 0 0 1-4.7.77c1.39-.52 2.96-.82 4.7-.77Zm.01-.7a13 13 0 0 0-4.94.8A2.51 2.51 0 0 1 39.52 12 2.5 2.5 0 0 1 42 14.19Zm-6 1.25V14a5.15 5.15 0 0 0-5 5.19c.68-.75 1.52-1.54 2.51-2.28.74-.54 1.57-1.05 2.49-1.48Zm-6.76 6.08A4.93 4.93 0 0 0 25 19v9.85c1.24-2.06 2.29-3.91 3.08-5.32l1.1-1.93.06-.1ZM25 30.23c1.53-2.5 2.8-4.76 3.73-6.4l.88-1.55c.25.64.39 1.34.39 2.07V41c-2.76 0-5-2.4-5-5.35v-5.42Zm-1 .25V24c-2.76 0-5 2.41-5 5.4v7.32a10.69 10.69 0 0 0 2.78-2.8c.78-1.17 1.53-2.32 2.22-3.44Zm-5 7.09c1.25-.8 2.43-1.86 3.39-3.27.56-.83 1.1-1.66 1.61-2.47v2.78c0 2.98-2.24 5.39-5 5.39v-2.43Zm-1.35-.04c.23-.62.35-1.3.35-2.02V32c-2.76 0-5 2.46-5 5.49v1.43c1.25-.12 2.96-.52 4.65-1.39ZM13 39.62c1.14-.1 2.63-.42 4.17-1.08A4.9 4.9 0 0 1 13 41v-1.38Zm18-19.34c.72-.88 1.7-1.9 2.95-2.81.62-.46 1.3-.89 2.05-1.26v14.5c0 2.92-2.24 5.29-5 5.29V20.28Z"/></svg>