<?xml version="1.0" encoding="UTF-8"?>
<!DOCTYPE svg PUBLIC "-//W3C//DTD SVG 1.1//EN" "http://www.w3.org/Graphics/SVG/1.1/DTD/svg11.dtd">
<svg xmlns="http://www.w3.org/2000/svg" version="1.1" width="64px" height="64px" style="shape-rendering:geometricPrecision; text-rendering:geometricPrecision; image-rendering:optimizeQuality; fill-rule:evenodd; clip-rule:evenodd" xmlns:xlink="http://www.w3.org/1999/xlink">
<g><path style="opacity:1" fill="#262932" d="M -0.5,-0.5 C 10.5,-0.5 21.5,-0.5 32.5,-0.5C 32.3215,2.2165 31.8215,4.88317 31,7.5C 30.2496,8.12576 29.4162,8.62576 28.5,9C 29.9909,11.0217 29.6576,12.6883 27.5,14C 27.9574,14.414 28.2907,14.914 28.5,15.5C 26.3182,17.7109 25.3182,20.3775 25.5,23.5C 24.5,23.5 23.5,23.5 22.5,23.5C 22.5,24.8333 22.5,26.1667 22.5,27.5C 21.5,27.5 20.5,27.5 19.5,27.5C 19.5,28.5 19.5,29.5 19.5,30.5C 20.675,30.281 21.675,30.6143 22.5,31.5C 21.0065,32.1411 20.0065,33.1411 19.5,34.5C 18.2947,35.6719 18.2947,37.0052 19.5,38.5C 18.2968,41.6327 16.4635,44.2993 14,46.5C 13.8446,48.856 13.8446,51.1893 14,53.5C 13.6667,52.8333 13.3333,52.1667 13,51.5C 11.4918,55.9946 9.99181,59.9946 8.5,63.5C 5.5,63.5 2.5,63.5 -0.5,63.5C -0.5,42.1667 -0.5,20.8333 -0.5,-0.5 Z"/></g>
<g><path style="opacity:1" fill="#1b1d23" d="M 32.5,-0.5 C 42.8333,-0.5 53.1667,-0.5 63.5,-0.5C 63.5,20.8333 63.5,42.1667 63.5,63.5C 45.1667,63.5 26.8333,63.5 8.5,63.5C 9.99181,59.9946 11.4918,55.9946 13,51.5C 13.3333,52.1667 13.6667,52.8333 14,53.5C 13.8446,51.1893 13.8446,48.856 14,46.5C 16.4635,44.2993 18.2968,41.6327 19.5,38.5C 18.2947,37.0052 18.2947,35.6719 19.5,34.5C 20.209,35.404 21.209,35.7373 22.5,35.5C 22.5,36.8333 22.5,38.1667 22.5,39.5C 23.8333,39.5 25.1667,39.5 26.5,39.5C 26.5,38.1667 26.5,36.8333 26.5,35.5C 29.8333,35.5 33.1667,35.5 36.5,35.5C 36.5,36.8333 36.5,38.1667 36.5,39.5C 37.8333,39.5 39.1667,39.5 40.5,39.5C 40.5,38.1667 40.5,36.8333 40.5,35.5C 41.5,35.5 42.5,35.5 43.5,35.5C 43.5,34.5 43.5,33.5 43.5,32.5C 39.5,31.8333 39.5,31.1667 43.5,30.5C 43.5,29.5 43.5,28.5 43.5,27.5C 42.5,27.5 41.5,27.5 40.5,27.5C 40.5,26.1667 40.5,24.8333 40.5,23.5C 39.1667,23.5 37.8333,23.5 36.5,23.5C 36.5,24.8333 36.5,26.1667 36.5,27.5C 33.1667,27.5 29.8333,27.5 26.5,27.5C 26.7678,25.901 26.4345,24.5676 25.5,23.5C 25.3182,20.3775 26.3182,17.7109 28.5,15.5C 28.2907,14.914 27.9574,14.414 27.5,14C 29.6576,12.6883 29.9909,11.0217 28.5,9C 29.4162,8.62576 30.2496,8.12576 31,7.5C 31.8215,4.88317 32.3215,2.2165 32.5,-0.5 Z"/></g>
<g><path style="opacity:1" fill="#fdfdfd" d="M 25.5,23.5 C 26.4345,24.5676 26.7678,25.901 26.5,27.5C 29.8333,27.5 33.1667,27.5 36.5,27.5C 36.5,26.1667 36.5,24.8333 36.5,23.5C 37.8333,23.5 39.1667,23.5 40.5,23.5C 40.5,24.8333 40.5,26.1667 40.5,27.5C 41.5,27.5 42.5,27.5 43.5,27.5C 43.5,28.5 43.5,29.5 43.5,30.5C 39.5,31.1667 39.5,31.8333 43.5,32.5C 43.5,33.5 43.5,34.5 43.5,35.5C 42.5,35.5 41.5,35.5 40.5,35.5C 40.5,36.8333 40.5,38.1667 40.5,39.5C 39.1667,39.5 37.8333,39.5 36.5,39.5C 36.5,38.1667 36.5,36.8333 36.5,35.5C 33.1667,35.5 29.8333,35.5 26.5,35.5C 26.5,36.8333 26.5,38.1667 26.5,39.5C 25.1667,39.5 23.8333,39.5 22.5,39.5C 22.5,38.1667 22.5,36.8333 22.5,35.5C 21.209,35.7373 20.209,35.404 19.5,34.5C 20.0065,33.1411 21.0065,32.1411 22.5,31.5C 21.675,30.6143 20.675,30.281 19.5,30.5C 19.5,29.5 19.5,28.5 19.5,27.5C 20.5,27.5 21.5,27.5 22.5,27.5C 22.5,26.1667 22.5,24.8333 22.5,23.5C 23.5,23.5 24.5,23.5 25.5,23.5 Z"/></g>
<g><path style="opacity:1" fill="#1f2126" d="M 26.5,30.5 C 29.8984,30.1796 33.2317,30.513 36.5,31.5C 34.8333,31.8333 33.1667,32.1667 31.5,32.5C 29.3603,32.4439 27.6936,31.7773 26.5,30.5 Z"/></g>
</svg>
