<?xml version="1.0" encoding="UTF-8"?>
<!DOCTYPE svg PUBLIC "-//W3C//DTD SVG 1.1//EN" "http://www.w3.org/Graphics/SVG/1.1/DTD/svg11.dtd">
<svg xmlns="http://www.w3.org/2000/svg" version="1.1" width="64px" height="64px" style="shape-rendering:geometricPrecision; text-rendering:geometricPrecision; image-rendering:optimizeQuality; fill-rule:evenodd; clip-rule:evenodd" xmlns:xlink="http://www.w3.org/1999/xlink">
<g><path style="opacity:0.994" fill="#6e2ef4" d="M 25.5,-0.5 C 29.5,-0.5 33.5,-0.5 37.5,-0.5C 51.1667,3.16667 59.8333,11.8333 63.5,25.5C 63.5,29.5 63.5,33.5 63.5,37.5C 59.8333,51.1667 51.1667,59.8333 37.5,63.5C 33.5,63.5 29.5,63.5 25.5,63.5C 11.8333,59.8333 3.16667,51.1667 -0.5,37.5C -0.5,33.5 -0.5,29.5 -0.5,25.5C 3.16667,11.8333 11.8333,3.16667 25.5,-0.5 Z"/></g>
<g><path style="opacity:1" fill="#fbf9fe" d="M 27.5,11.5 C 32.4943,11.329 34.3276,13.6624 33,18.5C 28.1667,23.3333 23.3333,28.1667 18.5,33C 12.8719,33.2373 11.0385,30.7373 13,25.5C 17.7287,20.6025 22.562,15.9359 27.5,11.5 Z"/></g>
<g><path style="opacity:1" fill="#fefdfe" d="M 30.5,25.5 C 36.0001,24.8314 38.1667,27.1647 37,32.5C 35.2125,34.9576 32.8792,36.6242 30,37.5C 27.8333,36.6667 26.3333,35.1667 25.5,33C 26.5892,30.0844 28.2558,27.5844 30.5,25.5 Z"/></g>
<g><path style="opacity:1" fill="#fbf9fe" d="M 44.5,29.5 C 50.9339,29.0928 52.7673,31.7594 50,37.5C 45.2813,42.7215 40.1147,47.3882 34.5,51.5C 30.6766,50.5325 29.1766,48.1992 30,44.5C 35.0365,39.6313 39.8698,34.6313 44.5,29.5 Z"/></g>
</svg>
