<?xml version="1.0" encoding="UTF-8"?>
<!DOCTYPE svg PUBLIC "-//W3C//DTD SVG 1.1//EN" "http://www.w3.org/Graphics/SVG/1.1/DTD/svg11.dtd">
<svg xmlns="http://www.w3.org/2000/svg" version="1.1" width="64px" height="64px" style="shape-rendering:geometricPrecision; text-rendering:geometricPrecision; image-rendering:optimizeQuality; fill-rule:evenodd; clip-rule:evenodd" xmlns:xlink="http://www.w3.org/1999/xlink">
<g><path style="opacity:1" fill="#000000" d="M -0.5,-0.5 C 20.8333,-0.5 42.1667,-0.5 63.5,-0.5C 63.5,20.8333 63.5,42.1667 63.5,63.5C 42.1667,63.5 20.8333,63.5 -0.5,63.5C -0.5,42.1667 -0.5,20.8333 -0.5,-0.5 Z"/></g>
<g><path style="opacity:1" fill="#0c8bc2" d="M 43.5,23.5 C 42.8333,23.5 42.1667,23.5 41.5,23.5C 39.8333,22.1667 38.1667,22.1667 36.5,23.5C 36.5,22.8333 36.1667,22.5 35.5,22.5C 38.4742,19.6908 41.1409,20.0242 43.5,23.5 Z"/></g>
<g><path style="opacity:1" fill="#88dd53" d="M 27.5,30.5 C 27.1583,31.3382 26.4916,31.6716 25.5,31.5C 20.6111,29.5565 19.6111,26.3898 22.5,22C 25.8459,19.7394 28.8459,20.0727 31.5,23C 29.9651,23.4962 28.4651,23.3295 27,22.5C 20.9608,25.4473 21.1275,28.1139 27.5,30.5 Z"/></g>
<g><path style="opacity:1" fill="#11b8b4" d="M 41.5,23.5 C 42.1667,23.5 42.8333,23.5 43.5,23.5C 45.7006,28.2881 44.2006,31.2881 39,32.5C 36.9636,32.0464 35.1303,31.2131 33.5,30C 34.5,29.5 35.5,29 36.5,28.5C 39.4993,31.2787 41.4993,30.6121 42.5,26.5C 42.315,25.4163 41.9817,24.4163 41.5,23.5 Z"/></g>
<g><path style="opacity:1" fill="#3cc293" d="M 35.5,22.5 C 36.1667,22.5 36.5,22.8333 36.5,23.5C 34.364,25.8123 32.364,28.3123 30.5,31C 28.7561,32.4544 27.0894,32.6211 25.5,31.5C 26.4916,31.6716 27.1583,31.3382 27.5,30.5C 30.1581,27.8761 32.8248,25.2094 35.5,22.5 Z"/></g>
<g><path style="opacity:1" fill="#4d9b24" d="M 20.5,33.5 C 21.2216,33.9175 21.7216,34.5842 22,35.5C 22.3076,34.6919 22.8076,34.0253 23.5,33.5C 25.7448,33.7451 28.0781,33.7451 30.5,33.5C 32.1112,34.3202 32.7778,35.6536 32.5,37.5C 28.3644,37.3643 24.5311,37.3643 21,37.5C 20.51,36.2068 20.3433,34.8734 20.5,33.5 Z"/></g>
<g><path style="opacity:1" fill="#14af9e" d="M 37.5,33.5 C 40.7973,33.3287 41.1306,33.9954 38.5,35.5C 41.1306,37.0046 40.7973,37.6713 37.5,37.5C 37.5,36.1667 37.5,34.8333 37.5,33.5 Z"/></g>
<g><path style="opacity:1" fill="#1883a1" d="M 41.5,33.5 C 43.9118,33.6941 44.9118,35.0274 44.5,37.5C 43.5,37.5 42.5,37.5 41.5,37.5C 41.5,36.1667 41.5,34.8333 41.5,33.5 Z"/></g>
<g><path style="opacity:1" fill="#0baa6c" d="M 33.5,33.5 C 34.397,34.5981 35.2303,34.5981 36,33.5C 36.6667,34.8333 36.6667,36.1667 36,37.5C 35.3333,36.1667 34.6667,36.1667 34,37.5C 33.51,36.2068 33.3433,34.8734 33.5,33.5 Z"/></g>
</svg>
