<?xml version="1.0" encoding="UTF-8"?>
<!DOCTYPE svg PUBLIC "-//W3C//DTD SVG 1.1//EN" "http://www.w3.org/Graphics/SVG/1.1/DTD/svg11.dtd">
<svg xmlns="http://www.w3.org/2000/svg" version="1.1" width="64px" height="64px" style="shape-rendering:geometricPrecision; text-rendering:geometricPrecision; image-rendering:optimizeQuality; fill-rule:evenodd; clip-rule:evenodd" xmlns:xlink="http://www.w3.org/1999/xlink">
<g><path style="opacity:0.991" fill="#1133a3" d="M 27.5,31.5 C 27.5,29.1667 27.5,26.8333 27.5,24.5C 26.1667,24.5 24.8333,24.5 23.5,24.5C 22.5,24.5 21.5,24.5 20.5,24.5C 22.8454,18.979 25.8454,13.8123 29.5,9C 31.8333,8.33333 34.1667,8.33333 36.5,9C 40.1265,15.0855 43.6265,21.2521 47,27.5C 47.6667,28.5 47.6667,29.5 47,30.5C 40.5898,31.4777 34.0898,31.811 27.5,31.5 Z M 32.5,17.5 C 38.6964,23.526 37.363,25.6927 28.5,24C 30.2206,22.0562 31.554,19.8895 32.5,17.5 Z"/></g>
<g><path style="opacity:1" fill="#2cb7e1" d="M 11.5,24.5 C 12.8333,24.5 14.1667,24.5 15.5,24.5C 15.5,26.8333 15.5,29.1667 15.5,31.5C 14.1667,31.5 12.8333,31.5 11.5,31.5C 11.5,29.1667 11.5,26.8333 11.5,24.5 Z"/></g>
<g><path style="opacity:1" fill="#279dd4" d="M 15.5,24.5 C 16.8333,24.5 18.1667,24.5 19.5,24.5C 19.5,26.8333 19.5,29.1667 19.5,31.5C 18.1667,31.5 16.8333,31.5 15.5,31.5C 15.5,29.1667 15.5,26.8333 15.5,24.5 Z"/></g>
<g><path style="opacity:1" fill="#207fc6" d="M 19.5,24.5 C 19.8333,24.5 20.1667,24.5 20.5,24.5C 21.5,24.5 22.5,24.5 23.5,24.5C 23.5,26.8333 23.5,29.1667 23.5,31.5C 22.1667,31.5 20.8333,31.5 19.5,31.5C 19.5,29.1667 19.5,26.8333 19.5,24.5 Z"/></g>
<g><path style="opacity:1" fill="#1a5fb8" d="M 23.5,24.5 C 24.8333,24.5 26.1667,24.5 27.5,24.5C 27.5,26.8333 27.5,29.1667 27.5,31.5C 26.5,31.5 25.5,31.5 24.5,31.5C 24.1667,31.5 23.8333,31.5 23.5,31.5C 23.5,29.1667 23.5,26.8333 23.5,24.5 Z"/></g>
<g><path style="opacity:1" fill="#32d2ed" d="M 11.5,24.5 C 11.5,26.8333 11.5,29.1667 11.5,31.5C 5.63343,32.2632 4.46676,30.5966 8,26.5C 8.81595,25.1772 9.98261,24.5106 11.5,24.5 Z"/></g>
<g><path style="opacity:1" fill="#1a61b8" d="M 15.5,33.5 C 17.0598,35.9535 18.0598,38.6202 18.5,41.5C 18.8417,42.3382 19.5084,42.6716 20.5,42.5C 21.4552,44.7457 22.1218,47.079 22.5,49.5C 21.1667,49.5 19.8333,49.5 18.5,49.5C 17.1608,45.0151 15.4942,40.6817 13.5,36.5C 13.427,34.9731 14.0937,33.9731 15.5,33.5 Z"/></g>
<g><path style="opacity:1" fill="#164aae" d="M 15.5,31.5 C 16.8333,31.5 18.1667,31.5 19.5,31.5C 20.8333,31.5 22.1667,31.5 23.5,31.5C 23.8333,31.5 24.1667,31.5 24.5,31.5C 22.8627,35.1178 20.8627,38.4512 18.5,41.5C 18.0598,38.6202 17.0598,35.9535 15.5,33.5C 15.5,32.8333 15.5,32.1667 15.5,31.5 Z"/></g>
<g><path style="opacity:1" fill="#1e74c1" d="M 13.5,36.5 C 15.4942,40.6817 17.1608,45.0151 18.5,49.5C 17.1667,49.5 15.8333,49.5 14.5,49.5C 13.1667,46.8333 11.8333,44.1667 10.5,41.5C 10.7497,39.326 11.7497,37.6594 13.5,36.5 Z"/></g>
<g><path style="opacity:0.999" fill="#1133a3" d="M 23.5,42.5 C 32.8393,42.3335 42.1726,42.5002 51.5,43C 52.8333,45 54.1667,47 55.5,49C 46.1726,49.4998 36.8393,49.6665 27.5,49.5C 25.9138,47.3295 24.5804,44.9962 23.5,42.5 Z"/></g>
<g><path style="opacity:1" fill="#238bcc" d="M 10.5,41.5 C 11.8333,44.1667 13.1667,46.8333 14.5,49.5C 6.92934,49.8657 5.59601,47.1991 10.5,41.5 Z"/></g>
<g><path style="opacity:1" fill="#164eb0" d="M 20.5,42.5 C 21.5,42.5 22.5,42.5 23.5,42.5C 24.5804,44.9962 25.9138,47.3295 27.5,49.5C 25.8333,49.5 24.1667,49.5 22.5,49.5C 22.1218,47.079 21.4552,44.7457 20.5,42.5 Z"/></g>
</svg>
