<?xml version="1.0" encoding="UTF-8"?>
<!DOCTYPE svg PUBLIC "-//W3C//DTD SVG 1.1//EN" "http://www.w3.org/Graphics/SVG/1.1/DTD/svg11.dtd">
<svg xmlns="http://www.w3.org/2000/svg" version="1.1" width="200px" height="200px" style="shape-rendering:geometricPrecision; text-rendering:geometricPrecision; image-rendering:optimizeQuality; fill-rule:evenodd; clip-rule:evenodd" xmlns:xlink="http://www.w3.org/1999/xlink">
<g><path style="opacity:1" fill="#fdfdfe" d="M -0.5,-0.5 C 28.8333,-0.5 58.1667,-0.5 87.5,-0.5C 85.1667,0.166667 82.8333,0.833333 80.5,1.5C 74.4567,2.18415 68.7901,3.85081 63.5,6.5C 60.3135,7.59695 57.3135,8.93028 54.5,10.5C 50.827,12.0002 47.4937,14.0002 44.5,16.5C 33.1453,23.188 24.1453,32.188 17.5,43.5C 7.03322,57.098 1.03322,72.4313 -0.5,89.5C -0.5,59.5 -0.5,29.5 -0.5,-0.5 Z"/></g>
<g><path style="opacity:1" fill="#fdfefd" d="M 107.5,-0.5 C 138.167,-0.5 168.833,-0.5 199.5,-0.5C 199.5,28.5 199.5,57.5 199.5,86.5C 198.662,86.1583 198.328,85.4916 198.5,84.5C 195.522,65.2137 187.689,48.2137 175,33.5C 171.571,29.5615 167.737,26.2281 163.5,23.5C 151.974,12.5689 138.307,5.56894 122.5,2.5C 117.557,1.17317 112.557,0.17317 107.5,-0.5 Z"/></g>
<g><path style="opacity:1" fill="#7ba735" d="M 87.5,-0.5 C 94.1667,-0.5 100.833,-0.5 107.5,-0.5C 112.557,0.17317 117.557,1.17317 122.5,2.5C 121.127,2.34332 119.793,2.50999 118.5,3C 119.737,3.23209 120.737,3.73209 121.5,4.5C 118.518,4.03714 115.518,3.70381 112.5,3.5C 108.232,2.62743 103.898,2.2941 99.5,2.5C 96.8333,2.5 94.1667,2.5 91.5,2.5C 91.1667,2.5 90.8333,2.5 90.5,2.5C 87.3752,1.52056 84.0419,1.18723 80.5,1.5C 82.8333,0.833333 85.1667,0.166667 87.5,-0.5 Z"/></g>
<g><path style="opacity:1" fill="#4a9a61" d="M 80.5,1.5 C 84.0419,1.18723 87.3752,1.52056 90.5,2.5C 88.0971,2.44805 85.7638,2.78138 83.5,3.5C 81.901,3.23219 80.5676,3.56552 79.5,4.5C 77.139,4.67412 74.8056,5.00745 72.5,5.5C 69.4824,5.70381 66.4824,6.03714 63.5,6.5C 68.7901,3.85081 74.4567,2.18415 80.5,1.5 Z"/></g>
<g><path style="opacity:1" fill="#54f37d" d="M 91.5,2.5 C 94.1667,2.5 96.8333,2.5 99.5,2.5C 98.6586,4.3792 98.3253,6.3792 98.5,8.5C 95.8333,8.5 93.1667,8.5 90.5,8.5C 90.3253,6.3792 90.6586,4.3792 91.5,2.5 Z"/></g>
<g><path style="opacity:1" fill="#4cb7af" d="M 79.5,4.5 C 80.5676,3.56552 81.901,3.23219 83.5,3.5C 83.5,5.5 83.5,7.5 83.5,9.5C 85.1667,9.5 86.8333,9.5 88.5,9.5C 88.5,9.83333 88.5,10.1667 88.5,10.5C 86.5,10.5 84.5,10.5 82.5,10.5C 81.2028,8.62866 80.2028,6.62866 79.5,4.5 Z"/></g>
<g><path style="opacity:1" fill="#58d69f" d="M 90.5,2.5 C 90.8333,2.5 91.1667,2.5 91.5,2.5C 90.6586,4.3792 90.3253,6.3792 90.5,8.5C 93.1667,8.5 95.8333,8.5 98.5,8.5C 101.059,8.19845 103.393,8.53178 105.5,9.5C 99.8333,9.5 94.1667,9.5 88.5,9.5C 86.8333,9.5 85.1667,9.5 83.5,9.5C 83.5,7.5 83.5,5.5 83.5,3.5C 85.7638,2.78138 88.0971,2.44805 90.5,2.5 Z"/></g>
<g><path style="opacity:1" fill="#86f45a" d="M 99.5,2.5 C 103.898,2.2941 108.232,2.62743 112.5,3.5C 113.341,5.3792 113.675,7.3792 113.5,9.5C 115.898,9.25939 117.898,9.92606 119.5,11.5C 116.833,11.1667 114.167,10.8333 111.5,10.5C 109.565,9.85048 107.565,9.51715 105.5,9.5C 103.393,8.53178 101.059,8.19845 98.5,8.5C 98.3253,6.3792 98.6586,4.3792 99.5,2.5 Z"/></g>
<g><path style="opacity:1" fill="#3f79d2" d="M 72.5,6.5 C 73.1667,8.5 73.8333,10.5 74.5,12.5C 74.5,12.8333 74.5,13.1667 74.5,13.5C 72.5,13.8333 70.5,14.1667 68.5,14.5C 68.5,12.5 68.5,10.5 68.5,8.5C 67.5,8.5 66.5,8.5 65.5,8.5C 67.5145,7.07619 69.8478,6.40953 72.5,6.5 Z"/></g>
<g><path style="opacity:1" fill="#b5ec1f" d="M 112.5,3.5 C 115.518,3.70381 118.518,4.03714 121.5,4.5C 127.88,6.06705 133.88,8.40038 139.5,11.5C 138.377,13.688 138.377,16.0213 139.5,18.5C 135.942,16.8883 132.275,15.555 128.5,14.5C 126.412,13.0605 124.079,12.3939 121.5,12.5C 121.158,11.6618 120.492,11.3284 119.5,11.5C 117.898,9.92606 115.898,9.25939 113.5,9.5C 113.675,7.3792 113.341,5.3792 112.5,3.5 Z"/></g>
<g><path style="opacity:1" fill="#316d6f" d="M 72.5,5.5 C 72.5,5.83333 72.5,6.16667 72.5,6.5C 69.8478,6.40953 67.5145,7.07619 65.5,8.5C 62.4262,9.30237 59.4262,10.3024 56.5,11.5C 55.8333,11.1667 55.1667,10.8333 54.5,10.5C 57.3135,8.93028 60.3135,7.59695 63.5,6.5C 66.4824,6.03714 69.4824,5.70381 72.5,5.5 Z"/></g>
<g><path style="opacity:1" fill="#449ebb" d="M 79.5,4.5 C 80.2028,6.62866 81.2028,8.62866 82.5,10.5C 81.1667,11.1667 79.8333,11.8333 78.5,12.5C 77.1667,12.5 75.8333,12.5 74.5,12.5C 73.8333,10.5 73.1667,8.5 72.5,6.5C 72.5,6.16667 72.5,5.83333 72.5,5.5C 74.8056,5.00745 77.139,4.67412 79.5,4.5 Z"/></g>
<g><path style="opacity:1" fill="#3d9624" d="M 122.5,2.5 C 138.307,5.56894 151.974,12.5689 163.5,23.5C 162.508,23.3284 161.842,23.6618 161.5,24.5C 160.078,23.075 158.411,22.075 156.5,21.5C 151.665,16.9098 145.998,13.5765 139.5,11.5C 133.88,8.40038 127.88,6.06705 121.5,4.5C 120.737,3.73209 119.737,3.23209 118.5,3C 119.793,2.50999 121.127,2.34332 122.5,2.5 Z"/></g>
<g><path style="opacity:1" fill="#484f98" d="M 88.5,10.5 C 88.5,10.1667 88.5,9.83333 88.5,9.5C 94.1667,9.5 99.8333,9.5 105.5,9.5C 107.565,9.51715 109.565,9.85048 111.5,10.5C 111.389,12.6477 112.056,12.981 113.5,11.5C 115.167,12.6667 116.833,13.8333 118.5,15C 117.051,20.2425 117.385,25.4092 119.5,30.5C 118.085,34.4088 117.085,38.4088 116.5,42.5C 115.5,42.5 114.5,42.5 113.5,42.5C 113.5,40.8333 113.5,39.1667 113.5,37.5C 113.44,36.9569 113.107,36.6236 112.5,36.5C 111.501,52.4861 111.167,68.4861 111.5,84.5C 110.674,89.3165 110.174,94.3165 110,99.5C 109.666,91.1486 107.333,83.4819 103,76.5C 102.667,77.8333 102.333,79.1667 102,80.5C 101.829,71.9899 101.329,63.6566 100.5,55.5C 100.062,54.4937 99.3957,54.4937 98.5,55.5C 101.365,50.7789 104.032,45.7789 106.5,40.5C 104.35,33.3823 102.016,26.3823 99.5,19.5C 100.888,17.891 101.888,16.0577 102.5,14C 102.095,13.0546 101.428,12.3879 100.5,12C 101.167,11.6667 101.833,11.3333 102.5,11C 97.8452,10.5008 93.1785,10.3342 88.5,10.5 Z"/></g>
<g><path style="opacity:1" fill="#2c4e84" d="M 54.5,10.5 C 55.1667,10.8333 55.8333,11.1667 56.5,11.5C 53.9906,12.9213 51.6572,14.5879 49.5,16.5C 48.391,16.5569 47.391,16.8902 46.5,17.5C 45.8333,17.1667 45.1667,16.8333 44.5,16.5C 47.4937,14.0002 50.827,12.0002 54.5,10.5 Z"/></g>
<g><path style="opacity:1" fill="#3e47d8" d="M 65.5,8.5 C 66.5,8.5 67.5,8.5 68.5,8.5C 68.5,10.5 68.5,12.5 68.5,14.5C 67.5,15.1667 66.5,15.8333 65.5,16.5C 62.5152,17.3257 59.8485,18.659 57.5,20.5C 55.0637,20.317 52.897,20.9837 51,22.5C 50.2571,20.5594 50.4238,18.7261 51.5,17C 50.9056,16.5357 50.2389,16.369 49.5,16.5C 51.6572,14.5879 53.9906,12.9213 56.5,11.5C 59.4262,10.3024 62.4262,9.30237 65.5,8.5 Z"/></g>
<g><path style="opacity:1" fill="#3f4ca4" d="M 82.5,10.5 C 84.5,10.5 86.5,10.5 88.5,10.5C 93.1785,10.3342 97.8452,10.5008 102.5,11C 101.833,11.3333 101.167,11.6667 100.5,12C 101.428,12.3879 102.095,13.0546 102.5,14C 101.888,16.0577 100.888,17.891 99.5,19.5C 102.016,26.3823 104.35,33.3823 106.5,40.5C 104.032,45.7789 101.365,50.7789 98.5,55.5C 98.5,56.5 98.5,57.5 98.5,58.5C 97.9734,66.0496 97.3067,71.7162 96.5,75.5C 96.4251,70.7797 95.4251,66.2797 93.5,62C 96.2648,59.0052 97.0981,55.5052 96,51.5C 91.698,38.6722 87.8646,26.0056 84.5,13.5C 82.5914,12.6518 80.5914,12.3184 78.5,12.5C 79.8333,11.8333 81.1667,11.1667 82.5,10.5 Z"/></g>
<g><path style="opacity:1" fill="#68db16" d="M 139.5,11.5 C 145.998,13.5765 151.665,16.9098 156.5,21.5C 155.773,23.3234 155.439,25.1568 155.5,27C 157.373,28.7038 159.04,30.5372 160.5,32.5C 158.589,31.925 156.922,30.925 155.5,29.5C 153.469,27.4776 151.135,25.8109 148.5,24.5C 145.672,22.2519 142.672,20.2519 139.5,18.5C 138.377,16.0213 138.377,13.688 139.5,11.5 Z"/></g>
<g><path style="opacity:1" fill="#595070" d="M 128.5,14.5 C 132.275,15.555 135.942,16.8883 139.5,18.5C 142.672,20.2519 145.672,22.2519 148.5,24.5C 148.762,25.9778 148.429,27.3112 147.5,28.5C 146.914,28.2907 146.414,27.9574 146,27.5C 141.287,38.1368 137.454,49.1368 134.5,60.5C 133.89,61.391 133.557,62.391 133.5,63.5C 131.348,62.9232 131.015,61.7565 132.5,60C 129.767,58.7019 128.434,56.5353 128.5,53.5C 129.549,47.9688 131.216,42.6355 133.5,37.5C 132.265,34.9557 131.099,34.9557 130,37.5C 129.833,36.8333 129.667,36.1667 129.5,35.5C 131.509,30.0575 132.009,24.3908 131,18.5C 129.294,17.6921 128.461,16.3588 128.5,14.5 Z"/></g>
<g><path style="opacity:1" fill="#28d111" d="M 156.5,21.5 C 158.411,22.075 160.078,23.075 161.5,24.5C 164.806,27.1395 167.806,30.1395 170.5,33.5C 171.468,36.4453 171.634,39.4453 171,42.5C 170.182,37.2063 169.682,37.2063 169.5,42.5C 166.529,39.1924 163.529,35.859 160.5,32.5C 159.04,30.5372 157.373,28.7038 155.5,27C 155.439,25.1568 155.773,23.3234 156.5,21.5 Z"/></g>
<g><path style="opacity:1" fill="#3835a7" d="M 74.5,13.5 C 76.7925,13.2436 78.9592,13.5769 81,14.5C 81.9531,19.5536 83.1198,24.5536 84.5,29.5C 83.7515,31.0356 82.7515,32.3689 81.5,33.5C 83.1376,34.7046 83.4709,36.0379 82.5,37.5C 84.0033,41.3556 84.67,45.3556 84.5,49.5C 83.9087,55.4799 82.5754,61.1465 80.5,66.5C 78.8698,57.8869 76.8698,49.0536 74.5,40C 74.9817,38.9916 75.1484,37.825 75,36.5C 75.7175,37.4506 76.5509,37.6172 77.5,37C 77.1312,31.2921 76.1312,25.4588 74.5,19.5C 75.7345,17.6017 75.4011,15.935 73.5,14.5C 71.9745,14.9943 70.6412,15.661 69.5,16.5C 68.1667,16.5 66.8333,16.5 65.5,16.5C 66.5,15.8333 67.5,15.1667 68.5,14.5C 70.5,14.1667 72.5,13.8333 74.5,13.5 Z"/></g>
<g><path style="opacity:1" fill="#223991" d="M 44.5,16.5 C 45.1667,16.8333 45.8333,17.1667 46.5,17.5C 38.6038,22.7239 31.6038,29.0573 25.5,36.5C 23.8437,38.4602 22.177,40.4602 20.5,42.5C 19.8333,43.5 19.1667,44.5 18.5,45.5C 17.6618,45.1583 17.3284,44.4916 17.5,43.5C 24.1453,32.188 33.1453,23.188 44.5,16.5 Z"/></g>
<g><path style="opacity:1" fill="#3e1ca8" d="M 65.5,16.5 C 66.8333,16.5 68.1667,16.5 69.5,16.5C 70.4793,17.7653 71.4793,19.0986 72.5,20.5C 71.8346,22.1012 71.5012,23.6012 71.5,25C 72.2598,26.4411 72.9264,27.9411 73.5,29.5C 72.0357,32.003 70.869,34.6697 70,37.5C 69.6667,37.1667 69.3333,36.8333 69,36.5C 68.6258,37.4162 68.1258,38.2496 67.5,39C 67.8346,40.5026 67.8346,41.836 67.5,43C 66.5,43.3333 65.5,43.6667 64.5,44C 64.8333,44.3333 65.1667,44.6667 65.5,45C 64.1437,47.3976 62.9771,49.8976 62,52.5C 60.8455,51.2567 59.5122,50.2567 58,49.5C 57,52.5 56,55.5 55,58.5C 53.0737,56.4611 50.907,54.7945 48.5,53.5C 52.3807,46.3087 53.8807,38.642 53,30.5C 52.5,30 52,29.5 51.5,29C 55.262,27.442 57.262,24.6086 57.5,20.5C 59.8485,18.659 62.5152,17.3257 65.5,16.5 Z"/></g>
<g><path style="opacity:1" fill="#9c9ccd" d="M 87.5,36.5 C 87.5,63.1667 87.5,89.8333 87.5,116.5C 87.5,123.167 87.5,129.833 87.5,136.5C 86.8333,104.833 86.1667,73.1667 85.5,41.5C 85.0773,39.2188 85.744,37.5521 87.5,36.5 Z"/></g>
<g><path style="opacity:1" fill="#530c98" d="M 49.5,16.5 C 50.2389,16.369 50.9056,16.5357 51.5,17C 50.4238,18.7261 50.2571,20.5594 51,22.5C 52.897,20.9837 55.0637,20.317 57.5,20.5C 57.262,24.6086 55.262,27.442 51.5,29C 52,29.5 52.5,30 53,30.5C 53.8807,38.642 52.3807,46.3087 48.5,53.5C 46.0893,60.1 43.756,67.1 41.5,74.5C 40.5178,73.8592 39.5178,73.1925 38.5,72.5C 37.0172,74.9458 35.8505,74.6124 35,71.5C 30.5076,76.9709 25.0076,82.1376 18.5,87C 16.5643,87.813 14.5643,88.313 12.5,88.5C 12.6495,89.552 12.4828,90.552 12,91.5C 11.8019,89.6183 11.3019,87.9516 10.5,86.5C 11.1667,82.1667 11.8333,77.8333 12.5,73.5C 14.0198,71.1098 15.0198,68.4432 15.5,65.5C 19.326,57.845 23.6594,50.5116 28.5,43.5C 33.6313,38.8698 38.6313,34.0365 43.5,29C 42.8333,28.3333 42.1667,28.3333 41.5,29C 37,33.5 32.5,38 28,42.5C 27.9977,39.9488 27.1644,37.9488 25.5,36.5C 31.6038,29.0573 38.6038,22.7239 46.5,17.5C 47.391,16.8902 48.391,16.5569 49.5,16.5 Z"/></g>
<g><path style="opacity:1" fill="#7e17a5" d="M 28.5,43.5 C 25.8852,45.3788 23.7186,47.7121 22,50.5C 21.8171,47.6353 21.3171,44.9686 20.5,42.5C 22.177,40.4602 23.8437,38.4602 25.5,36.5C 27.1644,37.9488 27.9977,39.9488 28,42.5C 32.5,38 37,33.5 41.5,29C 42.1667,28.3333 42.8333,28.3333 43.5,29C 38.6313,34.0365 33.6313,38.8698 28.5,43.5 Z"/></g>
<g><path style="opacity:1" fill="#43db54" d="M 170.5,33.5 C 173.2,35.2344 175.2,37.5677 176.5,40.5C 177.251,44.0501 178.251,47.5501 179.5,51C 179.392,52.6811 178.725,53.8478 177.5,54.5C 176.248,52.9991 175.248,51.3325 174.5,49.5C 172.588,47.3428 170.921,45.0094 169.5,42.5C 169.682,37.2063 170.182,37.2063 171,42.5C 171.634,39.4453 171.468,36.4453 170.5,33.5 Z"/></g>
<g><path style="opacity:1" fill="#574e7c" d="M 121.5,12.5 C 124.079,12.3939 126.412,13.0605 128.5,14.5C 128.461,16.3588 129.294,17.6921 131,18.5C 132.009,24.3908 131.509,30.0575 129.5,35.5C 129.667,36.1667 129.833,36.8333 130,37.5C 131.099,34.9557 132.265,34.9557 133.5,37.5C 131.216,42.6355 129.549,47.9688 128.5,53.5C 128.434,56.5353 129.767,58.7019 132.5,60C 131.015,61.7565 131.348,62.9232 133.5,63.5C 131.232,71.2009 129.232,78.8675 127.5,86.5C 127.84,84.4524 127.507,83.4524 126.5,83.5C 123.407,79.6528 121.074,75.3195 119.5,70.5C 123.524,64.5558 123.857,58.3891 120.5,52C 123.172,46.5403 123.505,41.0403 121.5,35.5C 123.371,30.0362 124.038,24.5362 123.5,19C 123.905,18.0546 124.572,17.3879 125.5,17C 124.807,15.415 123.474,13.915 121.5,12.5 Z"/></g>
<g><path style="opacity:1" fill="#f6f6f8" d="M 113.5,37.5 C 113.5,39.1667 113.5,40.8333 113.5,42.5C 114.648,52.0672 116.648,61.4006 119.5,70.5C 121.074,75.3195 123.407,79.6528 126.5,83.5C 124.732,86.7034 123.232,90.0367 122,93.5C 121.172,110.338 121.338,127.005 122.5,143.5C 122.263,144.791 122.596,145.791 123.5,146.5C 124.354,151.231 125.187,155.898 126,160.5C 120.581,155.24 114.747,150.573 108.5,146.5C 108.196,145.85 107.863,145.183 107.5,144.5C 109.302,142.042 110.635,139.375 111.5,136.5C 112.167,103.5 112.833,70.5 113.5,37.5 Z"/></g>
<g><path style="opacity:1" fill="#f6f6f9" d="M 85.5,41.5 C 86.1667,73.1667 86.8333,104.833 87.5,136.5C 88.0138,138.868 89.1805,140.868 91,142.5C 91.6667,143.5 91.6667,144.5 91,145.5C 87.6425,148.031 84.4758,150.698 81.5,153.5C 78.4214,155.467 75.5881,157.8 73,160.5C 72.6012,160.272 72.4346,159.938 72.5,159.5C 76.106,150.532 77.7727,141.198 77.5,131.5C 77.5,124.5 77.5,117.5 77.5,110.5C 77.6662,104.491 77.4995,98.4908 77,92.5C 76.5762,89.9746 75.4095,87.9746 73.5,86.5C 73.5,85.8333 73.1667,85.5 72.5,85.5C 75.9826,79.5318 78.6493,73.1985 80.5,66.5C 82.5754,61.1465 83.9087,55.4799 84.5,49.5C 85.4731,47.0521 85.8064,44.3854 85.5,41.5 Z"/></g>
<g><path style="opacity:1" fill="#535089" d="M 111.5,10.5 C 114.167,10.8333 116.833,11.1667 119.5,11.5C 120.492,11.3284 121.158,11.6618 121.5,12.5C 123.474,13.915 124.807,15.415 125.5,17C 124.572,17.3879 123.905,18.0546 123.5,19C 124.038,24.5362 123.371,30.0362 121.5,35.5C 123.505,41.0403 123.172,46.5403 120.5,52C 123.857,58.3891 123.524,64.5558 119.5,70.5C 116.648,61.4006 114.648,52.0672 113.5,42.5C 114.5,42.5 115.5,42.5 116.5,42.5C 117.085,38.4088 118.085,34.4088 119.5,30.5C 117.385,25.4092 117.051,20.2425 118.5,15C 116.833,13.8333 115.167,12.6667 113.5,11.5C 112.056,12.981 111.389,12.6477 111.5,10.5 Z"/></g>
<g><path style="opacity:1" fill="#373da0" d="M 74.5,13.5 C 74.5,13.1667 74.5,12.8333 74.5,12.5C 75.8333,12.5 77.1667,12.5 78.5,12.5C 80.5914,12.3184 82.5914,12.6518 84.5,13.5C 87.8646,26.0056 91.698,38.6722 96,51.5C 97.0981,55.5052 96.2648,59.0052 93.5,62C 95.4251,66.2797 96.4251,70.7797 96.5,75.5C 93.5425,77.289 91.0425,79.6223 89,82.5C 88.8314,66.9945 88.3314,51.6612 87.5,36.5C 85.744,37.5521 85.0773,39.2188 85.5,41.5C 85.8064,44.3854 85.4731,47.0521 84.5,49.5C 84.67,45.3556 84.0033,41.3556 82.5,37.5C 83.4709,36.0379 83.1376,34.7046 81.5,33.5C 82.7515,32.3689 83.7515,31.0356 84.5,29.5C 83.1198,24.5536 81.9531,19.5536 81,14.5C 78.9592,13.5769 76.7925,13.2436 74.5,13.5 Z"/></g>
<g><path style="opacity:1" fill="#64e491" d="M 176.5,40.5 C 178.547,42.5496 180.214,44.883 181.5,47.5C 182.403,52.1655 183.403,56.8322 184.5,61.5C 184.493,63.3693 184.16,65.036 183.5,66.5C 181.5,62.5 179.5,58.5 177.5,54.5C 178.725,53.8478 179.392,52.6811 179.5,51C 178.251,47.5501 177.251,44.0501 176.5,40.5 Z"/></g>
<g><path style="opacity:1" fill="#361d9e" d="M 80.5,66.5 C 78.6493,73.1985 75.9826,79.5318 72.5,85.5C 69.3095,81.9959 65.3095,80.3292 60.5,80.5C 60.853,82.6348 60.0197,83.9681 58,84.5C 53.241,82.2064 48.741,79.5398 44.5,76.5C 44.0269,75.0937 43.0269,74.427 41.5,74.5C 43.756,67.1 46.0893,60.1 48.5,53.5C 50.907,54.7945 53.0737,56.4611 55,58.5C 56,55.5 57,52.5 58,49.5C 59.5122,50.2567 60.8455,51.2567 62,52.5C 62.9771,49.8976 64.1437,47.3976 65.5,45C 65.1667,44.6667 64.8333,44.3333 64.5,44C 65.5,43.6667 66.5,43.3333 67.5,43C 67.8346,41.836 67.8346,40.5026 67.5,39C 68.1258,38.2496 68.6258,37.4162 69,36.5C 69.3333,36.8333 69.6667,37.1667 70,37.5C 70.869,34.6697 72.0357,32.003 73.5,29.5C 72.9264,27.9411 72.2598,26.4411 71.5,25C 71.5012,23.6012 71.8346,22.1012 72.5,20.5C 71.4793,19.0986 70.4793,17.7653 69.5,16.5C 70.6412,15.661 71.9745,14.9943 73.5,14.5C 75.4011,15.935 75.7345,17.6017 74.5,19.5C 76.1312,25.4588 77.1312,31.2921 77.5,37C 76.5509,37.6172 75.7175,37.4506 75,36.5C 75.1484,37.825 74.9817,38.9916 74.5,40C 76.8698,49.0536 78.8698,57.8869 80.5,66.5 Z"/></g>
<g><path style="opacity:1" fill="#46a458" d="M 163.5,23.5 C 167.737,26.2281 171.571,29.5615 175,33.5C 187.689,48.2137 195.522,65.2137 198.5,84.5C 197.732,83.7375 197.232,82.7375 197,81.5C 196.505,83.4727 196.338,85.4727 196.5,87.5C 195.435,75.6379 191.768,64.6379 185.5,54.5C 184.921,51.6689 183.588,49.3356 181.5,47.5C 180.214,44.883 178.547,42.5496 176.5,40.5C 175.2,37.5677 173.2,35.2344 170.5,33.5C 167.806,30.1395 164.806,27.1395 161.5,24.5C 161.842,23.6618 162.508,23.3284 163.5,23.5 Z"/></g>
<g><path style="opacity:1" fill="#aa13ca" d="M 20.5,42.5 C 21.3171,44.9686 21.8171,47.6353 22,50.5C 23.7186,47.7121 25.8852,45.3788 28.5,43.5C 23.6594,50.5116 19.326,57.845 15.5,65.5C 15.472,63.4176 16.1387,61.5843 17.5,60C 16.7939,57.2857 15.4606,55.119 13.5,53.5C 15.1667,50.8333 16.8333,48.1667 18.5,45.5C 19.1667,44.5 19.8333,43.5 20.5,42.5 Z"/></g>
<g><path style="opacity:1" fill="#53485f" d="M 148.5,24.5 C 151.135,25.8109 153.469,27.4776 155.5,29.5C 156.131,36.169 156.464,42.8356 156.5,49.5C 154.941,57.854 153.274,66.1873 151.5,74.5C 152.523,76.003 153.523,77.503 154.5,79C 153.786,81.6484 152.786,84.1484 151.5,86.5C 150.439,89.6223 149.105,92.6223 147.5,95.5C 145.365,97.369 142.698,98.0356 139.5,97.5C 140.687,94.9565 141.687,92.2898 142.5,89.5C 141.242,90.0164 140.242,89.3497 139.5,87.5C 135.251,89.1578 134.584,88.3245 137.5,85C 137.167,84.6667 136.833,84.3333 136.5,84C 138.192,82.5993 138.859,80.7659 138.5,78.5C 136.554,78.8072 134.887,78.8072 133.5,78.5C 135.367,72.898 137.034,67.2313 138.5,61.5C 138.167,60.8333 137.833,60.1667 137.5,59.5C 136.583,60.1272 135.583,60.4606 134.5,60.5C 137.454,49.1368 141.287,38.1368 146,27.5C 146.414,27.9574 146.914,28.2907 147.5,28.5C 148.429,27.3112 148.762,25.9778 148.5,24.5 Z"/></g>
<g><path style="opacity:1" fill="#344673" d="M 174.5,49.5 C 175.248,51.3325 176.248,52.9991 177.5,54.5C 179.5,58.5 181.5,62.5 183.5,66.5C 184.696,69.4214 185.696,72.4214 186.5,75.5C 189.175,86.6456 190.175,97.979 189.5,109.5C 189.167,109.5 188.833,109.5 188.5,109.5C 188.666,102.159 188.5,94.8258 188,87.5C 187.667,90.8333 187.333,94.1667 187,97.5C 186.313,93.4204 185.313,89.4204 184,85.5C 183.333,86.8333 182.667,86.8333 182,85.5C 181.833,86 181.667,86.5 181.5,87C 182.517,89.7866 182.684,92.62 182,95.5C 179.972,94.7612 177.805,94.4279 175.5,94.5C 175.493,91.9621 175.159,89.4621 174.5,87C 175.484,85.9533 176.484,84.4533 177.5,82.5C 176.922,79.1056 176.256,75.7722 175.5,72.5C 174.545,65.1793 172.878,58.0127 170.5,51C 171.424,49.1886 172.257,49.3553 173,51.5C 173.278,50.5842 173.778,49.9175 174.5,49.5 Z"/></g>
<g><path style="opacity:1" fill="#c805e7" d="M 13.5,53.5 C 15.4606,55.119 16.7939,57.2857 17.5,60C 16.1387,61.5843 15.472,63.4176 15.5,65.5C 15.0198,68.4432 14.0198,71.1098 12.5,73.5C 11.8826,73.6107 11.3826,73.944 11,74.5C 10.0642,70.8865 9.56422,67.2198 9.5,63.5C 10.2759,59.9475 11.6092,56.6142 13.5,53.5 Z"/></g>
<g><path style="opacity:1" fill="#78ebb2" d="M 181.5,47.5 C 183.588,49.3356 184.921,51.6689 185.5,54.5C 187.148,61.7613 188.481,69.0946 189.5,76.5C 189.333,77.5 189.167,78.5 189,79.5C 188.8,77.6803 187.966,76.347 186.5,75.5C 185.696,72.4214 184.696,69.4214 183.5,66.5C 184.16,65.036 184.493,63.3693 184.5,61.5C 183.403,56.8322 182.403,52.1655 181.5,47.5 Z"/></g>
<g><path style="opacity:1" fill="#3a465d" d="M 155.5,29.5 C 156.922,30.925 158.589,31.925 160.5,32.5C 163.529,35.859 166.529,39.1924 169.5,42.5C 170.921,45.0094 172.588,47.3428 174.5,49.5C 173.778,49.9175 173.278,50.5842 173,51.5C 172.257,49.3553 171.424,49.1886 170.5,51C 172.878,58.0127 174.545,65.1793 175.5,72.5C 174.504,72.5858 173.671,72.2524 173,71.5C 172.63,74.3378 172.797,77.1711 173.5,80C 173.39,82.2552 172.39,83.9219 170.5,85C 164.087,85.4586 157.753,85.9586 151.5,86.5C 152.786,84.1484 153.786,81.6484 154.5,79C 153.523,77.503 152.523,76.003 151.5,74.5C 153.274,66.1873 154.941,57.854 156.5,49.5C 156.464,42.8356 156.131,36.169 155.5,29.5 Z"/></g>
<g><path style="opacity:1" fill="#da11d3" d="M 9.5,63.5 C 9.56422,67.2198 10.0642,70.8865 11,74.5C 11.3826,73.944 11.8826,73.6107 12.5,73.5C 11.8333,77.8333 11.1667,82.1667 10.5,86.5C 9.50761,94.3159 9.17428,102.316 9.5,110.5C 8.75008,97.6131 7.75008,84.6131 6.5,71.5C 6.90277,68.5145 7.90277,65.8478 9.5,63.5 Z"/></g>
<g><path style="opacity:1" fill="#9e9fbf" d="M 113.5,37.5 C 112.833,70.5 112.167,103.5 111.5,136.5C 111.5,129.167 111.5,121.833 111.5,114.5C 111.5,104.5 111.5,94.5 111.5,84.5C 111.167,68.4861 111.501,52.4861 112.5,36.5C 113.107,36.6236 113.44,36.9569 113.5,37.5 Z"/></g>
<g><path style="opacity:1" fill="#4e3f60" d="M 139.5,97.5 C 138.341,99.8546 137.341,102.188 136.5,104.5C 128.275,102.897 126.275,98.7303 130.5,92C 128.393,90.7365 127.393,88.9032 127.5,86.5C 129.232,78.8675 131.232,71.2009 133.5,63.5C 133.557,62.391 133.89,61.391 134.5,60.5C 135.583,60.4606 136.583,60.1272 137.5,59.5C 137.833,60.1667 138.167,60.8333 138.5,61.5C 137.034,67.2313 135.367,72.898 133.5,78.5C 134.887,78.8072 136.554,78.8072 138.5,78.5C 138.859,80.7659 138.192,82.5993 136.5,84C 136.833,84.3333 137.167,84.6667 137.5,85C 134.584,88.3245 135.251,89.1578 139.5,87.5C 140.242,89.3497 141.242,90.0164 142.5,89.5C 141.687,92.2898 140.687,94.9565 139.5,97.5 Z"/></g>
<g><path style="opacity:1" fill="#8ff0d1" d="M 185.5,54.5 C 191.768,64.6379 195.435,75.6379 196.5,87.5C 196.672,97.857 196.339,108.19 195.5,118.5C 194.596,119.209 194.263,120.209 194.5,121.5C 193.237,117.322 192.07,112.989 191,108.5C 190.617,109.056 190.117,109.389 189.5,109.5C 190.175,97.979 189.175,86.6456 186.5,75.5C 187.966,76.347 188.8,77.6803 189,79.5C 189.167,78.5 189.333,77.5 189.5,76.5C 188.481,69.0946 187.148,61.7613 185.5,54.5 Z"/></g>
<g><path style="opacity:1" fill="#31138d" d="M 44.5,76.5 C 48.741,79.5398 53.241,82.2064 58,84.5C 60.0197,83.9681 60.853,82.6348 60.5,80.5C 65.3095,80.3292 69.3095,81.9959 72.5,85.5C 73.1667,85.5 73.5,85.8333 73.5,86.5C 72.9569,86.56 72.6236,86.8933 72.5,87.5C 73.9501,88.8498 74.6168,90.5165 74.5,92.5C 72.712,92.2148 71.0453,92.5481 69.5,93.5C 69.7093,94.086 70.0426,94.586 70.5,95C 69.354,95.6449 68.354,96.4783 67.5,97.5C 63.0909,95.5468 58.9242,93.2134 55,90.5C 54.3937,93.0932 52.8937,94.7598 50.5,95.5C 47.5778,94.2024 44.5778,93.2024 41.5,92.5C 42.086,90.1602 43.086,87.9935 44.5,86C 43.2718,85.221 42.2718,84.221 41.5,83C 42.3773,80.7473 43.3773,78.5806 44.5,76.5 Z"/></g>
<g><path style="opacity:1" fill="#8387b8" d="M 100.5,55.5 C 100.667,71.8367 100.5,88.1701 100,104.5C 99.7216,103.584 99.2216,102.918 98.5,102.5C 98.5,95.8333 98.5,89.1667 98.5,82.5C 98.5,74.5 98.5,66.5 98.5,58.5C 98.5,57.5 98.5,56.5 98.5,55.5C 99.3957,54.4937 100.062,54.4937 100.5,55.5 Z"/></g>
<g><path style="opacity:1" fill="#e012a3" d="M 3.5,83.5 C 6.81652,98.9706 8.81652,114.637 9.5,130.5C 9.04311,131.298 8.37644,131.631 7.5,131.5C 2.69684,115.663 1.3635,99.6632 3.5,83.5 Z"/></g>
<g><path style="opacity:1" fill="#490384" d="M 41.5,74.5 C 43.0269,74.427 44.0269,75.0937 44.5,76.5C 43.3773,78.5806 42.3773,80.7473 41.5,83C 42.2718,84.221 43.2718,85.221 44.5,86C 43.086,87.9935 42.086,90.1602 41.5,92.5C 38.7219,95.7214 36.7219,99.3881 35.5,103.5C 29.0982,108.699 21.7648,111.699 13.5,112.5C 12.3881,113.265 11.7214,114.265 11.5,115.5C 10.8333,113.833 10.1667,112.167 9.5,110.5C 9.17428,102.316 9.50761,94.3159 10.5,86.5C 11.3019,87.9516 11.8019,89.6183 12,91.5C 12.4828,90.552 12.6495,89.552 12.5,88.5C 14.5643,88.313 16.5643,87.813 18.5,87C 25.0076,82.1376 30.5076,76.9709 35,71.5C 35.8505,74.6124 37.0172,74.9458 38.5,72.5C 39.5178,73.1925 40.5178,73.8592 41.5,74.5 Z"/></g>
<g><path style="opacity:1" fill="#333756" d="M 175.5,72.5 C 176.256,75.7722 176.922,79.1056 177.5,82.5C 176.484,84.4533 175.484,85.9533 174.5,87C 175.159,89.4621 175.493,91.9621 175.5,94.5C 175.646,98.5191 175.979,102.519 176.5,106.5C 170.693,106.406 164.693,106.406 158.5,106.5C 155.201,107.376 151.868,107.543 148.5,107C 150.335,106.072 150.668,104.906 149.5,103.5C 150.601,101.358 151.601,99.1917 152.5,97C 150.753,96.6481 149.086,96.1481 147.5,95.5C 149.105,92.6223 150.439,89.6223 151.5,86.5C 157.753,85.9586 164.087,85.4586 170.5,85C 172.39,83.9219 173.39,82.2552 173.5,80C 172.797,77.1711 172.63,74.3378 173,71.5C 173.671,72.2524 174.504,72.5858 175.5,72.5 Z"/></g>
<g><path style="opacity:1" fill="#2c2b87" d="M 87.5,36.5 C 88.3314,51.6612 88.8314,66.9945 89,82.5C 91.0425,79.6223 93.5425,77.289 96.5,75.5C 97.3067,71.7162 97.9734,66.0496 98.5,58.5C 98.5,66.5 98.5,74.5 98.5,82.5C 97.6701,91.6577 97.1701,100.991 97,110.5C 96.3964,108.314 95.2297,108.148 93.5,110C 90.5581,111.436 88.5581,113.603 87.5,116.5C 87.5,89.8333 87.5,63.1667 87.5,36.5 Z"/></g>
<g><path style="opacity:1" fill="#3c3051" d="M 147.5,95.5 C 149.086,96.1481 150.753,96.6481 152.5,97C 151.601,99.1917 150.601,101.358 149.5,103.5C 150.668,104.906 150.335,106.072 148.5,107C 151.868,107.543 155.201,107.376 158.5,106.5C 157.653,110.223 156.653,113.889 155.5,117.5C 152.551,118.013 149.718,118.013 147,117.5C 145,118.167 143,118.833 141,119.5C 137.943,118.471 137.943,117.138 141,115.5C 141.749,114.365 141.583,113.365 140.5,112.5C 138.253,113.374 135.92,113.708 133.5,113.5C 134.346,110.452 135.346,107.452 136.5,104.5C 137.341,102.188 138.341,99.8546 139.5,97.5C 142.698,98.0356 145.365,97.369 147.5,95.5 Z"/></g>
<g><path style="opacity:1" fill="#2b0f7e" d="M 73.5,86.5 C 75.4095,87.9746 76.5762,89.9746 77,92.5C 77.4995,98.4908 77.6662,104.491 77.5,110.5C 76.6981,111.952 76.1981,113.618 76,115.5C 75.0853,114.672 74.4186,113.672 74,112.5C 70.6561,114.137 67.4895,116.137 64.5,118.5C 57.3918,115.282 50.0585,112.616 42.5,110.5C 43.221,108.085 44.5544,106.085 46.5,104.5C 43.0355,102.274 39.3688,101.94 35.5,103.5C 36.7219,99.3881 38.7219,95.7214 41.5,92.5C 44.5778,93.2024 47.5778,94.2024 50.5,95.5C 52.8937,94.7598 54.3937,93.0932 55,90.5C 58.9242,93.2134 63.0909,95.5468 67.5,97.5C 68.354,96.4783 69.354,95.6449 70.5,95C 70.0426,94.586 69.7093,94.086 69.5,93.5C 71.0453,92.5481 72.712,92.2148 74.5,92.5C 74.6168,90.5165 73.9501,88.8498 72.5,87.5C 72.6236,86.8933 72.9569,86.56 73.5,86.5 Z"/></g>
<g><path style="opacity:1" fill="#31327b" d="M 100.5,55.5 C 101.329,63.6566 101.829,71.9899 102,80.5C 102.333,79.1667 102.667,77.8333 103,76.5C 107.333,83.4819 109.666,91.1486 110,99.5C 110.174,94.3165 110.674,89.3165 111.5,84.5C 111.5,94.5 111.5,104.5 111.5,114.5C 111.058,117.447 109.892,120.113 108,122.5C 107.691,121.234 107.191,120.067 106.5,119C 103.696,118.871 101.03,119.204 98.5,120C 97.4258,119.261 96.7591,118.261 96.5,117C 98.1852,112.319 98.8519,107.485 98.5,102.5C 99.2216,102.918 99.7216,103.584 100,104.5C 100.5,88.1701 100.667,71.8367 100.5,55.5 Z"/></g>
<g><path style="opacity:1" fill="#33a32a" d="M 198.5,84.5 C 198.328,85.4916 198.662,86.1583 199.5,86.5C 199.5,93.5 199.5,100.5 199.5,107.5C 198.551,111.657 197.884,115.99 197.5,120.5C 195.797,121.66 195.131,120.993 195.5,118.5C 196.339,108.19 196.672,97.857 196.5,87.5C 196.338,85.4727 196.505,83.4727 197,81.5C 197.232,82.7375 197.732,83.7375 198.5,84.5 Z"/></g>
<g><path style="opacity:1" fill="#68e798" d="M 194.5,121.5 C 193.525,124.067 192.858,126.733 192.5,129.5C 191.587,125.893 190.253,122.56 188.5,119.5C 189.324,116.236 189.658,112.902 189.5,109.5C 190.117,109.389 190.617,109.056 191,108.5C 192.07,112.989 193.237,117.322 194.5,121.5 Z"/></g>
<g><path style="opacity:1" fill="#3a0174" d="M 42.5,110.5 C 38.7782,117.156 34.7782,123.656 30.5,130C 25.4402,131.027 20.7735,131.861 16.5,132.5C 15.5987,131.71 14.9321,130.71 14.5,129.5C 13.185,124.906 12.185,120.239 11.5,115.5C 11.7214,114.265 12.3881,113.265 13.5,112.5C 21.7648,111.699 29.0982,108.699 35.5,103.5C 39.3688,101.94 43.0355,102.274 46.5,104.5C 44.5544,106.085 43.221,108.085 42.5,110.5 Z"/></g>
<g><path style="opacity:1" fill="#fefdfe" d="M -0.5,107.5 C 3.24641,140.892 19.2464,166.559 47.5,184.5C 58.1797,191.394 69.8463,195.728 82.5,197.5C 84.3057,198.024 85.9724,198.691 87.5,199.5C 58.1667,199.5 28.8333,199.5 -0.5,199.5C -0.5,168.833 -0.5,138.167 -0.5,107.5 Z"/></g>
<g><path style="opacity:1" fill="#fdfdfd" d="M 199.5,107.5 C 199.5,138.167 199.5,168.833 199.5,199.5C 167.5,199.5 135.5,199.5 103.5,199.5C 104.568,198.566 105.901,198.232 107.5,198.5C 117.006,198.525 126.006,196.525 134.5,192.5C 139.081,190.87 143.414,188.87 147.5,186.5C 152.307,184.597 156.64,181.93 160.5,178.5C 165.445,175.189 169.778,171.189 173.5,166.5C 185.688,153.462 193.688,138.128 197.5,120.5C 197.884,115.99 198.551,111.657 199.5,107.5 Z"/></g>
<g><path style="opacity:1" fill="#2a2e68" d="M 188.5,109.5 C 188.13,114.422 187.13,119.089 185.5,123.5C 184.58,122.933 184.246,123.599 184.5,125.5C 182.54,126.138 180.707,126.138 179,125.5C 177.512,127.83 175.679,128.164 173.5,126.5C 174.516,123.8 174.516,121.134 173.5,118.5C 174.32,116.889 175.654,116.222 177.5,116.5C 177.384,113.14 177.051,109.807 176.5,106.5C 175.979,102.519 175.646,98.5191 175.5,94.5C 177.805,94.4279 179.972,94.7612 182,95.5C 182.684,92.62 182.517,89.7866 181.5,87C 181.667,86.5 181.833,86 182,85.5C 182.667,86.8333 183.333,86.8333 184,85.5C 185.313,89.4204 186.313,93.4204 187,97.5C 187.333,94.1667 187.667,90.8333 188,87.5C 188.5,94.8258 188.666,102.159 188.5,109.5 Z"/></g>
<g><path style="opacity:1" fill="#3c2f5c" d="M 127.5,86.5 C 127.393,88.9032 128.393,90.7365 130.5,92C 126.275,98.7303 128.275,102.897 136.5,104.5C 135.346,107.452 134.346,110.452 133.5,113.5C 131.887,114.838 131.387,116.505 132,118.5C 133.113,119.711 134.28,119.711 135.5,118.5C 136.5,118.833 137.167,119.5 137.5,120.5C 136.38,123.918 134.713,126.918 132.5,129.5C 130.565,129.795 128.565,129.295 126.5,128C 130.669,124.212 130.502,120.712 126,117.5C 125.252,119.332 124.252,120.999 123,122.5C 122.5,129.492 122.334,136.492 122.5,143.5C 121.338,127.005 121.172,110.338 122,93.5C 123.232,90.0367 124.732,86.7034 126.5,83.5C 127.507,83.4524 127.84,84.4524 127.5,86.5 Z"/></g>
<g><path style="opacity:1" fill="#260b6f" d="M 42.5,110.5 C 50.0585,112.616 57.3918,115.282 64.5,118.5C 67.4895,116.137 70.6561,114.137 74,112.5C 74.4186,113.672 75.0853,114.672 76,115.5C 76.1981,113.618 76.6981,111.952 77.5,110.5C 77.5,117.5 77.5,124.5 77.5,131.5C 76.7321,132.263 76.2321,133.263 76,134.5C 75.196,133.196 74.0293,132.529 72.5,132.5C 70.5282,133.443 68.6949,133.776 67,133.5C 62.1568,131.941 57.3235,130.274 52.5,128.5C 51.2011,129.09 50.3678,130.09 50,131.5C 49.6667,130.833 49.3333,130.167 49,129.5C 47.543,131.658 45.7097,133.491 43.5,135C 36.6056,136.973 29.6056,138.473 22.5,139.5C 20.7859,138.391 20.1192,139.058 20.5,141.5C 18.3754,138.912 17.0421,135.912 16.5,132.5C 20.7735,131.861 25.4402,131.027 30.5,130C 34.7782,123.656 38.7782,117.156 42.5,110.5 Z"/></g>
<g><path style="opacity:1" fill="#95d4c8" d="M 188.5,109.5 C 188.833,109.5 189.167,109.5 189.5,109.5C 189.658,112.902 189.324,116.236 188.5,119.5C 187.653,123.223 186.653,126.889 185.5,130.5C 184.655,131.671 183.989,133.005 183.5,134.5C 183.167,134.5 182.833,134.5 182.5,134.5C 183.703,130.89 184.703,127.223 185.5,123.5C 187.13,119.089 188.13,114.422 188.5,109.5 Z"/></g>
<g><path style="opacity:1" fill="#2f264e" d="M 176.5,106.5 C 177.051,109.807 177.384,113.14 177.5,116.5C 175.654,116.222 174.32,116.889 173.5,118.5C 174.516,121.134 174.516,123.8 173.5,126.5C 172.127,126.343 170.793,126.51 169.5,127C 165.368,133.49 159.535,136.99 152,137.5C 148.992,137.139 145.658,136.806 142,136.5C 137.47,138.89 132.97,138.89 128.5,136.5C 130.11,134.275 131.443,131.941 132.5,129.5C 134.713,126.918 136.38,123.918 137.5,120.5C 137.167,119.5 136.5,118.833 135.5,118.5C 134.28,119.711 133.113,119.711 132,118.5C 131.387,116.505 131.887,114.838 133.5,113.5C 135.92,113.708 138.253,113.374 140.5,112.5C 141.583,113.365 141.749,114.365 141,115.5C 137.943,117.138 137.943,118.471 141,119.5C 143,118.833 145,118.167 147,117.5C 149.718,118.013 152.551,118.013 155.5,117.5C 156.653,113.889 157.653,110.223 158.5,106.5C 164.693,106.406 170.693,106.406 176.5,106.5 Z"/></g>
<g><path style="opacity:1" fill="#251e66" d="M 98.5,82.5 C 98.5,89.1667 98.5,95.8333 98.5,102.5C 98.8519,107.485 98.1852,112.319 96.5,117C 96.7591,118.261 97.4258,119.261 98.5,120C 101.03,119.204 103.696,118.871 106.5,119C 107.191,120.067 107.691,121.234 108,122.5C 109.892,120.113 111.058,117.447 111.5,114.5C 111.5,121.833 111.5,129.167 111.5,136.5C 110.635,139.375 109.302,142.042 107.5,144.5C 107.863,145.183 108.196,145.85 108.5,146.5C 108.439,149.362 110.106,151.529 113.5,153C 112.944,153.383 112.611,153.883 112.5,154.5C 108.436,151.101 104.102,148.101 99.5,145.5C 94.5616,148.436 89.8949,151.77 85.5,155.5C 84.4863,154.326 83.153,153.66 81.5,153.5C 84.4758,150.698 87.6425,148.031 91,145.5C 91.6667,144.5 91.6667,143.5 91,142.5C 89.1805,140.868 88.0138,138.868 87.5,136.5C 87.5,129.833 87.5,123.167 87.5,116.5C 88.5581,113.603 90.5581,111.436 93.5,110C 95.2297,108.148 96.3964,108.314 97,110.5C 97.1701,100.991 97.6701,91.6577 98.5,82.5 Z"/></g>
<g><path style="opacity:1" fill="#7c289e" d="M 17.5,43.5 C 17.3284,44.4916 17.6618,45.1583 18.5,45.5C 16.8333,48.1667 15.1667,50.8333 13.5,53.5C 11.6092,56.6142 10.2759,59.9475 9.5,63.5C 7.90277,65.8478 6.90277,68.5145 6.5,71.5C 5.08249,75.2873 4.08249,79.2873 3.5,83.5C 1.3635,99.6632 2.69684,115.663 7.5,131.5C 10.3906,138.949 14.0573,145.949 18.5,152.5C 20.4955,156.484 22.9955,160.151 26,163.5C 28.0367,165.706 30.2034,167.706 32.5,169.5C 35.1897,172.185 38.1897,174.518 41.5,176.5C 45.693,179.758 50.0263,182.758 54.5,185.5C 52.2362,184.781 49.9029,184.448 47.5,184.5C 19.2464,166.559 3.24641,140.892 -0.5,107.5C -0.5,101.5 -0.5,95.5 -0.5,89.5C 1.03322,72.4313 7.03322,57.098 17.5,43.5 Z"/></g>
<g><path style="opacity:1" fill="#dc12b5" d="M 6.5,71.5 C 7.75008,84.6131 8.75008,97.6131 9.5,110.5C 10.1667,112.167 10.8333,113.833 11.5,115.5C 12.185,120.239 13.185,124.906 14.5,129.5C 13.9569,129.56 13.6236,129.893 13.5,130.5C 16.0227,137.635 17.6894,144.969 18.5,152.5C 14.0573,145.949 10.3906,138.949 7.5,131.5C 8.37644,131.631 9.04311,131.298 9.5,130.5C 8.81652,114.637 6.81652,98.9706 3.5,83.5C 4.08249,79.2873 5.08249,75.2873 6.5,71.5 Z"/></g>
<g><path style="opacity:1" fill="#48dc61" d="M 188.5,119.5 C 190.253,122.56 191.587,125.893 192.5,129.5C 191.011,133.323 189.344,136.99 187.5,140.5C 188.069,136.671 187.402,133.337 185.5,130.5C 186.653,126.889 187.653,123.223 188.5,119.5 Z"/></g>
<g><path style="opacity:1" fill="#90e2ad" d="M 182.5,134.5 C 182.833,134.5 183.167,134.5 183.5,134.5C 179.682,144.142 174.349,152.809 167.5,160.5C 166.833,160.5 166.167,160.5 165.5,160.5C 166.167,159.5 166.833,158.5 167.5,157.5C 173.757,150.654 178.757,142.987 182.5,134.5 Z"/></g>
<g><path style="opacity:1" fill="#1f065b" d="M 77.5,131.5 C 77.7727,141.198 76.106,150.532 72.5,159.5C 68.1576,158.699 63.991,158.366 60,158.5C 53.0108,160.398 46.1774,163.064 39.5,166.5C 38.1667,165.5 36.8333,164.5 35.5,163.5C 29.501,156.831 24.501,149.498 20.5,141.5C 20.1192,139.058 20.7859,138.391 22.5,139.5C 29.6056,138.473 36.6056,136.973 43.5,135C 45.7097,133.491 47.543,131.658 49,129.5C 49.3333,130.167 49.6667,130.833 50,131.5C 50.3678,130.09 51.2011,129.09 52.5,128.5C 57.3235,130.274 62.1568,131.941 67,133.5C 68.6949,133.776 70.5282,133.443 72.5,132.5C 74.0293,132.529 75.196,133.196 76,134.5C 76.2321,133.263 76.7321,132.263 77.5,131.5 Z"/></g>
<g><path style="opacity:1" fill="#eae9ef" d="M 112.5,154.5 C 114.865,156.86 117.532,158.86 120.5,160.5C 121.521,161.002 121.688,161.668 121,162.5C 107.503,153.966 93.6692,153.299 79.5,160.5C 81.4602,158.844 83.4602,157.177 85.5,155.5C 89.8949,151.77 94.5616,148.436 99.5,145.5C 104.102,148.101 108.436,151.101 112.5,154.5 Z"/></g>
<g><path style="opacity:1" fill="#251b4c" d="M 132.5,129.5 C 131.443,131.941 130.11,134.275 128.5,136.5C 132.97,138.89 137.47,138.89 142,136.5C 145.658,136.806 148.992,137.139 152,137.5C 159.535,136.99 165.368,133.49 169.5,127C 170.793,126.51 172.127,126.343 173.5,126.5C 175.679,128.164 177.512,127.83 179,125.5C 180.707,126.138 182.54,126.138 184.5,125.5C 184.246,123.599 184.58,122.933 185.5,123.5C 184.703,127.223 183.703,130.89 182.5,134.5C 178.757,142.987 173.757,150.654 167.5,157.5C 166.671,156.668 165.838,157.001 165,158.5C 163.303,157.636 162.137,156.303 161.5,154.5C 158.004,153.578 155.004,151.911 152.5,149.5C 143.227,148.591 134.227,148.591 125.5,149.5C 125.004,147.602 124.337,146.602 123.5,146.5C 122.596,145.791 122.263,144.791 122.5,143.5C 122.334,136.492 122.5,129.492 123,122.5C 124.252,120.999 125.252,119.332 126,117.5C 130.502,120.712 130.669,124.212 126.5,128C 128.565,129.295 130.565,129.795 132.5,129.5 Z"/></g>
<g><path style="opacity:1" fill="#ca14e1" d="M 14.5,129.5 C 14.9321,130.71 15.5987,131.71 16.5,132.5C 17.0421,135.912 18.3754,138.912 20.5,141.5C 24.501,149.498 29.501,156.831 35.5,163.5C 33.9826,163.489 32.8159,162.823 32,161.5C 32.0833,164.119 32.25,166.786 32.5,169.5C 30.2034,167.706 28.0367,165.706 26,163.5C 22.9955,160.151 20.4955,156.484 18.5,152.5C 17.6894,144.969 16.0227,137.635 13.5,130.5C 13.6236,129.893 13.9569,129.56 14.5,129.5 Z"/></g>
<g><path style="opacity:1" fill="#1f1344" d="M 167.5,157.5 C 166.833,158.5 166.167,159.5 165.5,160.5C 161.878,164.308 157.878,167.641 153.5,170.5C 152.294,169.12 152.627,167.953 154.5,167C 153.359,166.259 153.359,165.425 154.5,164.5C 154,164.167 153.5,163.833 153,163.5C 152.894,164.794 151.894,165.461 150,165.5C 147.831,164.886 145.665,164.553 143.5,164.5C 142.304,164.846 142.304,165.346 143.5,166C 141.603,167.11 139.77,167.276 138,166.5C 137.667,167.167 137.333,167.833 137,168.5C 129.513,168.302 122.179,168.302 115,168.5C 114.312,167.668 114.479,167.002 115.5,166.5C 116.795,165.902 118.128,165.402 119.5,165C 116.757,162.962 113.757,161.462 110.5,160.5C 100.524,157.152 91.0236,158.152 82,163.5C 80.6764,162.12 79.3431,161.786 78,162.5C 77.4719,161.184 77.9719,160.517 79.5,160.5C 93.6692,153.299 107.503,153.966 121,162.5C 121.688,161.668 121.521,161.002 120.5,160.5C 117.532,158.86 114.865,156.86 112.5,154.5C 112.611,153.883 112.944,153.383 113.5,153C 110.106,151.529 108.439,149.362 108.5,146.5C 114.747,150.573 120.581,155.24 126,160.5C 125.187,155.898 124.354,151.231 123.5,146.5C 124.337,146.602 125.004,147.602 125.5,149.5C 134.227,148.591 143.227,148.591 152.5,149.5C 155.004,151.911 158.004,153.578 161.5,154.5C 162.137,156.303 163.303,157.636 165,158.5C 165.838,157.001 166.671,156.668 167.5,157.5 Z"/></g>
<g><path style="opacity:1" fill="#47d612" d="M 185.5,130.5 C 187.402,133.337 188.069,136.671 187.5,140.5C 183.425,149.653 178.092,157.986 171.5,165.5C 168.833,167.833 166.167,170.167 163.5,172.5C 162.463,170.262 162.297,167.929 163,165.5C 164.707,163.963 166.207,162.296 167.5,160.5C 174.349,152.809 179.682,144.142 183.5,134.5C 183.989,133.005 184.655,131.671 185.5,130.5 Z"/></g>
<g><path style="opacity:1" fill="#75b82b" d="M 195.5,118.5 C 195.131,120.993 195.797,121.66 197.5,120.5C 193.688,138.128 185.688,153.462 173.5,166.5C 172.833,166.167 172.167,165.833 171.5,165.5C 178.092,157.986 183.425,149.653 187.5,140.5C 189.344,136.99 191.011,133.323 192.5,129.5C 192.858,126.733 193.525,124.067 194.5,121.5C 194.263,120.209 194.596,119.209 195.5,118.5 Z"/></g>
<g><path style="opacity:1" fill="#150847" d="M 81.5,153.5 C 83.153,153.66 84.4863,154.326 85.5,155.5C 83.4602,157.177 81.4602,158.844 79.5,160.5C 77.9719,160.517 77.4719,161.184 78,162.5C 79.3431,161.786 80.6764,162.12 82,163.5C 91.0236,158.152 100.524,157.152 110.5,160.5C 107.976,161.74 105.309,162.907 102.5,164C 103.973,164.71 104.64,165.876 104.5,167.5C 106.199,167.34 107.866,167.506 109.5,168C 106.828,168.834 104.161,169.668 101.5,170.5C 100.914,170.291 100.414,169.957 100,169.5C 96.0221,171.057 91.8554,171.89 87.5,172C 89.4881,173.366 90.4881,174.866 90.5,176.5C 91.4776,176.023 92.3109,175.357 93,174.5C 93.6172,175.449 93.4506,176.282 92.5,177C 81.2135,177.935 70.0468,177.435 59,175.5C 58.4867,176.527 57.9867,177.527 57.5,178.5C 53.0074,176.421 48.674,174.088 44.5,171.5C 43.1667,169.5 41.5,167.833 39.5,166.5C 46.1774,163.064 53.0108,160.398 60,158.5C 63.991,158.366 68.1576,158.699 72.5,159.5C 72.4346,159.938 72.6012,160.272 73,160.5C 75.5881,157.8 78.4214,155.467 81.5,153.5 Z"/></g>
<g><path style="opacity:1" fill="#9615c2" d="M 35.5,163.5 C 36.8333,164.5 38.1667,165.5 39.5,166.5C 41.5,167.833 43.1667,169.5 44.5,171.5C 43.1526,170.972 41.8193,170.805 40.5,171C 41.4061,172.699 41.7394,174.533 41.5,176.5C 38.1897,174.518 35.1897,172.185 32.5,169.5C 32.25,166.786 32.0833,164.119 32,161.5C 32.8159,162.823 33.9826,163.489 35.5,163.5 Z"/></g>
<g><path style="opacity:1" fill="#56be6c" d="M 171.5,165.5 C 172.167,165.833 172.833,166.167 173.5,166.5C 169.778,171.189 165.445,175.189 160.5,178.5C 160.672,177.508 160.338,176.842 159.5,176.5C 160.833,175.167 162.167,173.833 163.5,172.5C 166.167,170.167 168.833,167.833 171.5,165.5 Z"/></g>
<g><path style="opacity:1" fill="#b2eb20" d="M 165.5,160.5 C 166.167,160.5 166.833,160.5 167.5,160.5C 166.207,162.296 164.707,163.963 163,165.5C 162.297,167.929 162.463,170.262 163.5,172.5C 162.167,173.833 160.833,175.167 159.5,176.5C 154.811,179.534 150.144,182.534 145.5,185.5C 143.085,186.305 140.751,187.305 138.5,188.5C 138.633,185.413 137.3,183.413 134.5,182.5C 141.347,179.322 147.68,175.322 153.5,170.5C 157.878,167.641 161.878,164.308 165.5,160.5 Z"/></g>
<g><path style="opacity:1" fill="#13093b" d="M 110.5,160.5 C 113.757,161.462 116.757,162.962 119.5,165C 118.128,165.402 116.795,165.902 115.5,166.5C 114.479,167.002 114.312,167.668 115,168.5C 122.179,168.302 129.513,168.302 137,168.5C 137.333,167.833 137.667,167.167 138,166.5C 139.77,167.276 141.603,167.11 143.5,166C 142.304,165.346 142.304,164.846 143.5,164.5C 145.665,164.553 147.831,164.886 150,165.5C 151.894,165.461 152.894,164.794 153,163.5C 153.5,163.833 154,164.167 154.5,164.5C 153.359,165.425 153.359,166.259 154.5,167C 152.627,167.953 152.294,169.12 153.5,170.5C 147.68,175.322 141.347,179.322 134.5,182.5C 130.426,183.636 126.426,184.969 122.5,186.5C 120.708,186.366 119.042,186.699 117.5,187.5C 108.915,189.078 100.249,189.745 91.5,189.5C 84.8885,188.044 78.2218,186.711 71.5,185.5C 66.596,183.715 61.9294,181.381 57.5,178.5C 57.9867,177.527 58.4867,176.527 59,175.5C 70.0468,177.435 81.2135,177.935 92.5,177C 93.4506,176.282 93.6172,175.449 93,174.5C 92.3109,175.357 91.4776,176.023 90.5,176.5C 90.4881,174.866 89.4881,173.366 87.5,172C 91.8554,171.89 96.0221,171.057 100,169.5C 100.414,169.957 100.914,170.291 101.5,170.5C 104.161,169.668 106.828,168.834 109.5,168C 107.866,167.506 106.199,167.34 104.5,167.5C 104.64,165.876 103.973,164.71 102.5,164C 105.309,162.907 107.976,161.74 110.5,160.5 Z"/></g>
<g><path style="opacity:1" fill="#5a1499" d="M 44.5,171.5 C 48.5067,176.026 53.5067,179.359 59.5,181.5C 60.3169,184.467 61.6503,187.134 63.5,189.5C 60.6484,187.909 57.6484,186.576 54.5,185.5C 50.0263,182.758 45.693,179.758 41.5,176.5C 41.7394,174.533 41.4061,172.699 40.5,171C 41.8193,170.805 43.1526,170.972 44.5,171.5 Z"/></g>
<g><path style="opacity:1" fill="#41898b" d="M 159.5,176.5 C 160.338,176.842 160.672,177.508 160.5,178.5C 156.64,181.93 152.307,184.597 147.5,186.5C 147.158,185.662 146.492,185.328 145.5,185.5C 150.144,182.534 154.811,179.534 159.5,176.5 Z"/></g>
<g><path style="opacity:1" fill="#8bf255" d="M 134.5,182.5 C 137.3,183.413 138.633,185.413 138.5,188.5C 136.013,189.323 133.679,190.323 131.5,191.5C 130.833,191.5 130.167,191.5 129.5,191.5C 128.566,190.432 128.232,189.099 128.5,187.5C 126.5,187.5 124.5,187.5 122.5,187.5C 122.5,187.167 122.5,186.833 122.5,186.5C 126.426,184.969 130.426,183.636 134.5,182.5 Z"/></g>
<g><path style="opacity:1" fill="#69b7e6" d="M 71.5,185.5 C 78.2218,186.711 84.8885,188.044 91.5,189.5C 91.5,189.833 91.5,190.167 91.5,190.5C 84.411,190.061 77.7444,188.395 71.5,185.5 Z"/></g>
<g><path style="opacity:1" fill="#5ef476" d="M 122.5,187.5 C 124.5,187.5 126.5,187.5 128.5,187.5C 128.232,189.099 128.566,190.432 129.5,191.5C 127.698,192.458 125.698,193.125 123.5,193.5C 122.167,193.5 120.833,193.5 119.5,193.5C 119.34,191.801 119.506,190.134 120,188.5C 120.671,187.748 121.504,187.414 122.5,187.5 Z"/></g>
<g><path style="opacity:1" fill="#4d40c7" d="M 44.5,171.5 C 48.674,174.088 53.0074,176.421 57.5,178.5C 61.9294,181.381 66.596,183.715 71.5,185.5C 77.7444,188.395 84.411,190.061 91.5,190.5C 92.0668,192.03 92.7334,193.53 93.5,195C 92.8333,195.333 92.1667,195.667 91.5,196C 96.9058,197.068 102.239,197.901 107.5,198.5C 105.901,198.232 104.568,198.566 103.5,199.5C 98.1667,199.5 92.8333,199.5 87.5,199.5C 85.9724,198.691 84.3057,198.024 82.5,197.5C 82.6107,196.883 82.944,196.383 83.5,196C 76.4051,194.735 69.7384,192.569 63.5,189.5C 61.6503,187.134 60.3169,184.467 59.5,181.5C 53.5067,179.359 48.5067,176.026 44.5,171.5 Z"/></g>
<g><path style="opacity:1" fill="#3a5ea4" d="M 145.5,185.5 C 146.492,185.328 147.158,185.662 147.5,186.5C 143.414,188.87 139.081,190.87 134.5,192.5C 133.791,191.596 132.791,191.263 131.5,191.5C 133.679,190.323 136.013,189.323 138.5,188.5C 140.751,187.305 143.085,186.305 145.5,185.5 Z"/></g>
<g><path style="opacity:1" fill="#61db91" d="M 122.5,186.5 C 122.5,186.833 122.5,187.167 122.5,187.5C 121.504,187.414 120.671,187.748 120,188.5C 119.506,190.134 119.34,191.801 119.5,193.5C 120.833,193.5 122.167,193.5 123.5,193.5C 121.735,194.461 119.735,194.795 117.5,194.5C 116.167,194.5 114.833,194.5 113.5,194.5C 113.773,192.549 113.107,191.049 111.5,190C 113.852,189.76 115.852,188.927 117.5,187.5C 119.042,186.699 120.708,186.366 122.5,186.5 Z"/></g>
<g><path style="opacity:1" fill="#a128a7" d="M 47.5,184.5 C 49.9029,184.448 52.2362,184.781 54.5,185.5C 57.6484,186.576 60.6484,187.909 63.5,189.5C 69.7384,192.569 76.4051,194.735 83.5,196C 82.944,196.383 82.6107,196.883 82.5,197.5C 69.8463,195.728 58.1797,191.394 47.5,184.5 Z"/></g>
<g><path style="opacity:1" fill="#459bc0" d="M 95.5,190.5 C 99.1817,190.335 102.848,190.501 106.5,191C 107.38,192.356 107.714,193.856 107.5,195.5C 108.833,195.5 110.167,195.5 111.5,195.5C 107.019,196.648 102.352,196.815 97.5,196C 98.1667,194.667 98.8333,193.333 99.5,192C 97.9419,191.79 96.6085,191.29 95.5,190.5 Z"/></g>
<g><path style="opacity:1" fill="#6accad" d="M 117.5,187.5 C 115.852,188.927 113.852,189.76 111.5,190C 113.107,191.049 113.773,192.549 113.5,194.5C 114.833,194.5 116.167,194.5 117.5,194.5C 115.735,195.461 113.735,195.795 111.5,195.5C 110.167,195.5 108.833,195.5 107.5,195.5C 107.714,193.856 107.38,192.356 106.5,191C 102.848,190.501 99.1817,190.335 95.5,190.5C 94.1667,190.5 92.8333,190.5 91.5,190.5C 91.5,190.167 91.5,189.833 91.5,189.5C 100.249,189.745 108.915,189.078 117.5,187.5 Z"/></g>
<g><path style="opacity:1" fill="#3057bf" d="M 91.5,190.5 C 92.8333,190.5 94.1667,190.5 95.5,190.5C 96.6085,191.29 97.9419,191.79 99.5,192C 98.8333,193.333 98.1667,194.667 97.5,196C 102.352,196.815 107.019,196.648 111.5,195.5C 113.735,195.795 115.735,195.461 117.5,194.5C 119.735,194.795 121.735,194.461 123.5,193.5C 125.698,193.125 127.698,192.458 129.5,191.5C 130.167,191.5 130.833,191.5 131.5,191.5C 132.791,191.263 133.791,191.596 134.5,192.5C 126.006,196.525 117.006,198.525 107.5,198.5C 102.239,197.901 96.9058,197.068 91.5,196C 92.1667,195.667 92.8333,195.333 93.5,195C 92.7334,193.53 92.0668,192.03 91.5,190.5 Z"/></g>
</svg>
