<?xml version="1.0" encoding="UTF-8"?>
<!DOCTYPE svg PUBLIC "-//W3C//DTD SVG 1.1//EN" "http://www.w3.org/Graphics/SVG/1.1/DTD/svg11.dtd">
<svg xmlns="http://www.w3.org/2000/svg" version="1.1" width="64px" height="64px" style="shape-rendering:geometricPrecision; text-rendering:geometricPrecision; image-rendering:optimizeQuality; fill-rule:evenodd; clip-rule:evenodd" xmlns:xlink="http://www.w3.org/1999/xlink">
<g><path style="opacity:0.994" fill="#000000" d="M 25.5,-0.5 C 29.5,-0.5 33.5,-0.5 37.5,-0.5C 51.1667,3.16667 59.8333,11.8333 63.5,25.5C 63.5,29.5 63.5,33.5 63.5,37.5C 59.8333,51.1667 51.1667,59.8333 37.5,63.5C 33.5,63.5 29.5,63.5 25.5,63.5C 11.8333,59.8333 3.16667,51.1667 -0.5,37.5C -0.5,33.5 -0.5,29.5 -0.5,25.5C 3.16667,11.8333 11.8333,3.16667 25.5,-0.5 Z M 12.5,16.5 C 13.6009,15.4017 14.9343,15.235 16.5,16C 21.0214,21.0203 25.3548,26.187 29.5,31.5C 26.8579,35.3094 24.0246,38.9761 21,42.5C 18.9984,45.887 16.165,47.387 12.5,47C 17.0214,41.9797 21.3548,36.813 25.5,31.5C 21.4884,26.1597 17.155,21.1597 12.5,16.5 Z M 20.5,16.5 C 21.2506,15.4265 22.2506,15.2599 23.5,16C 26.9513,19.7398 30.2847,23.5732 33.5,27.5C 33.1924,28.3081 32.6924,28.9747 32,29.5C 28.3013,24.9728 24.468,20.6395 20.5,16.5 Z M 39.5,15.5 C 40.8734,15.3433 42.2068,15.51 43.5,16C 40.931,18.4794 38.5977,21.146 36.5,24C 35.2752,24.5628 34.2752,24.2295 33.5,23C 35.6286,20.5608 37.6286,18.0608 39.5,15.5 Z M 46.5,15.5 C 47.8734,15.3433 49.2068,15.51 50.5,16C 44.7774,22.0517 39.444,28.385 34.5,35C 37.101,39.272 40.101,43.272 43.5,47C 41.2992,47.8249 39.4659,47.3249 38,45.5C 35.3076,42.3081 32.8076,38.9748 30.5,35.5C 35.8418,28.8029 41.1751,22.1362 46.5,15.5 Z M 38.5,33.5 C 42.6346,37.8059 46.6346,42.3059 50.5,47C 49.5,47.6667 48.5,47.6667 47.5,47C 43.6068,43.61 40.2735,39.7767 37.5,35.5C 37.8627,34.8165 38.1961,34.1499 38.5,33.5 Z M 27.5,37.5 C 29.914,38.7767 30.0807,40.4434 28,42.5C 26.2806,44.5571 24.2806,46.2237 22,47.5C 20.7425,47.1501 20.4092,46.4835 21,45.5C 23.7585,43.2488 25.9252,40.5821 27.5,37.5 Z"/></g>
</svg>
