<?xml version="1.0" encoding="UTF-8"?>
<!DOCTYPE svg PUBLIC "-//W3C//DTD SVG 1.1//EN" "http://www.w3.org/Graphics/SVG/1.1/DTD/svg11.dtd">
<svg xmlns="http://www.w3.org/2000/svg" version="1.1" width="64px" height="64px" style="shape-rendering:geometricPrecision; text-rendering:geometricPrecision; image-rendering:optimizeQuality; fill-rule:evenodd; clip-rule:evenodd" xmlns:xlink="http://www.w3.org/1999/xlink">
<g><path style="opacity:0.99" fill="#01d1fc" d="M 25.5,-0.5 C 29.5,-0.5 33.5,-0.5 37.5,-0.5C 48.5385,3.72836 53.0385,11.7284 51,23.5C 49.2491,28.6744 46.7491,33.341 43.5,37.5C 43.5,32.1667 43.5,26.8333 43.5,21.5C 44.3422,14.1442 41.6755,8.31091 35.5,4C 31.9391,2.76787 28.6057,1.26787 25.5,-0.5 Z"/></g>
<g><path style="opacity:0.96" fill="#00adfb" d="M 18.5,4.5 C 30.2826,7.80264 33.7826,15.136 29,26.5C 26.7226,30.0804 24.2226,33.4137 21.5,36.5C 21.5,31.8333 21.5,27.1667 21.5,22.5C 23.0788,18.6546 22.0788,15.6546 18.5,13.5C 18.5,10.5 18.5,7.5 18.5,4.5 Z"/></g>
<g><path style="opacity:0.533" fill="#00dbfd" d="M 51.5,6.5 C 50.8333,5.16667 50.8333,5.16667 51.5,6.5 Z"/></g>
<g><path style="opacity:0.765" fill="#00defc" d="M 51.5,6.5 C 52.1667,6.5 52.5,6.83333 52.5,7.5C 52.1667,7.16667 51.8333,6.83333 51.5,6.5 Z"/></g>
<g><path style="opacity:1" fill="#00e0fd" d="M 52.5,7.5 C 53.1667,7.5 53.5,7.83333 53.5,8.5C 53.1667,8.16667 52.8333,7.83333 52.5,7.5 Z"/></g>
<g><path style="opacity:0.985" fill="#0191fa" d="M 18.5,4.5 C 18.5,7.5 18.5,10.5 18.5,13.5C 14.4384,13.7241 11.605,15.7241 10,19.5C 7.00276,24.8188 5.16942,30.4855 4.5,36.5C 3.50929,30.021 3.17596,23.3543 3.5,16.5C 6.12006,9.54855 11.1201,5.54855 18.5,4.5 Z"/></g>
<g><path style="opacity:0.946" fill="#0387fa" d="M 3.5,16.5 C 3.17596,23.3543 3.50929,30.021 4.5,36.5C 3.70335,43.1195 5.37002,49.1195 9.5,54.5C 7.87121,53.3747 6.37121,52.0414 5,50.5C 2.85371,46.5245 1.02038,42.5245 -0.5,38.5C -0.5,34.1667 -0.5,29.8333 -0.5,25.5C 0.442336,22.3448 1.77567,19.3448 3.5,16.5 Z"/></g>
<g><path style="opacity:0.967" fill="#01d0fc" d="M 43.5,21.5 C 43.5,26.8333 43.5,32.1667 43.5,37.5C 42.3914,39.5544 41.3914,41.7211 40.5,44C 41.749,49.3912 44.749,50.7245 49.5,48C 50.7332,46.3333 52.0665,44.8333 53.5,43.5C 53.5,47.1667 53.5,50.8333 53.5,54.5C 49.2143,58.4119 44.5476,59.0786 39.5,56.5C 39.5,47.5 39.5,38.5 39.5,29.5C 40.8527,26.7946 42.1861,24.1279 43.5,21.5 Z"/></g>
<g><path style="opacity:0.978" fill="#02aafb" d="M 21.5,22.5 C 21.5,27.1667 21.5,31.8333 21.5,36.5C 17.2771,45.7072 19.2771,53.2072 27.5,59C 31.0609,60.2321 34.3943,61.7321 37.5,63.5C 33.5,63.5 29.5,63.5 25.5,63.5C 23.0713,62.4488 20.738,61.1155 18.5,59.5C 18.5,48.8333 18.5,38.1667 18.5,27.5C 18.7497,25.326 19.7497,23.6594 21.5,22.5 Z"/></g>
<g><path style="opacity:0.967" fill="#009efb" d="M 18.5,27.5 C 18.5,38.1667 18.5,48.8333 18.5,59.5C 11.3754,53.3042 9.54207,45.6376 13,36.5C 14.3571,33.1019 16.1904,30.1019 18.5,27.5 Z"/></g>
<g><path style="opacity:0.976" fill="#00c3fc" d="M 39.5,29.5 C 39.5,38.5 39.5,47.5 39.5,56.5C 31.77,51.5902 29.9367,44.9235 34,36.5C 35.6971,33.98 37.5305,31.6467 39.5,29.5 Z"/></g>
<g><path style="opacity:0.969" fill="#00e8fd" d="M 53.5,8.5 C 55.1288,9.62529 56.6288,10.9586 58,12.5C 60.1463,16.4755 61.9796,20.4755 63.5,24.5C 63.5,28.8333 63.5,33.1667 63.5,37.5C 61.9768,44.2105 58.6435,49.8771 53.5,54.5C 53.5,50.8333 53.5,47.1667 53.5,43.5C 56.5066,37.1459 58.5066,30.4792 59.5,23.5C 58.6568,17.9568 56.6568,12.9568 53.5,8.5 Z"/></g>
<g><path style="opacity:1" fill="#0093fb" d="M 9.5,54.5 C 10.1667,54.5 10.5,54.8333 10.5,55.5C 10.1667,55.1667 9.83333,54.8333 9.5,54.5 Z"/></g>
<g><path style="opacity:0.765" fill="#0095fb" d="M 10.5,55.5 C 11.1667,55.5 11.5,55.8333 11.5,56.5C 11.1667,56.1667 10.8333,55.8333 10.5,55.5 Z"/></g>
<g><path style="opacity:0.529" fill="#0096fb" d="M 11.5,56.5 C 12.8333,57.1667 12.8333,57.1667 11.5,56.5 Z"/></g>
</svg>
