<!-- by TradingView --><svg width="56" height="56" viewBox="0 0 56 56" xmlns="http://www.w3.org/2000/svg"><path fill="url(#a)" d="M0 0h56v56H0z"/><path d="M12 36V26h3.71L12 23.35V20h25.96c2.49 0 5.04 2.1 5.04 4.6v5.67l-4-2.55v-2.5c0-.79-.8-1.22-1.58-1.22H21.16L16 20.16V36h-4Zm36 0H25.82C23.33 36 21 33.97 21 31.48V25.8l4 2.55v2.5c0 .79.57 1.14 1.36 1.14h16.26L48 36Z" fill="url(#b)"/><defs><linearGradient id="a" x1="10.42" y1="9.71" x2="68.15" y2="76.02" gradientUnits="userSpaceOnUse"><stop stop-color="#1A1E21"/><stop offset="1" stop-color="#06060A"/></linearGradient><linearGradient id="b" x1="12" y1="28" x2="43.41" y2="28" gradientUnits="userSpaceOnUse"><stop stop-color="#D3D4D6"/><stop offset=".36" stop-color="#EDEEF0"/><stop offset="1" stop-color="#A8A9AC"/></linearGradient></defs></svg>