<!-- by TradingView --><svg width="56" height="56" viewBox="0 0 56 56" xmlns="http://www.w3.org/2000/svg"><path fill="url(#a)" d="M0 0h56v56H0z"/><path d="M43.25 24.54c-.1.12-.24.05-.4-.2a8.08 8.08 0 0 0-3.26-2.77c-.69-.34-1.25-.67-1.7-.97a8.17 8.17 0 0 1-3.15-4.16 5.07 5.07 0 0 0-.5-.87 6.88 6.88 0 0 0-4.19-3.08c-.6-.15-1.15-.1-1.8-.13a7.22 7.22 0 0 0-1.89.14c-.5.1-1.17.4-2.04.9a5.89 5.89 0 0 0-2.2 2.22c-.37.64-.67 1.4-1 1.94a9.25 9.25 0 0 1-2.68 2.82c-.73.5-1.76.87-2.47 1.27A6.33 6.33 0 0 0 13 25.08c-.05.14-.09.36-.1.67 0 .15-.04.36-.1.62-.06.21-.07.43-.05.65-.12.1-.2.24-.27.43a2 2 0 0 0-.26-1.43c.5-2 1.61-3.52 3.31-4.54.77-.46 1.83-.77 2.56-1.21a7.2 7.2 0 0 0 2.77-3.04l.67-1.33c1.59-2.87 4.17-4.08 7.3-3.88a7.24 7.24 0 0 1 6.18 4.28c.25.52.54 1.32.88 1.86a7.6 7.6 0 0 0 3.3 2.92c.9.42 1.4.65 1.5.71a7.31 7.31 0 0 1 2.55 2.75Z" fill="#FDFEE9"/><path d="M32.92 14c.02.43.2.8.52 1.12.04.04.05.08.01.13a15.23 15.23 0 0 1-5.25 4.72c-2.41 1.24-5.5 1.94-7.06 4.59-1.76 2.96-1.27 7.02 1.72 8.9.89.55 1.85.95 2.89 1.2.37.1 1.49.36 3.37.81.87.2 1.44.37 1.72.48 1.43.56 2.75 1.16 4.35 1.35l-.7 1.15a9 9 0 0 1-3.62 3.2c-.4.19-.85.3-1.37.35-1.87.17-3.51.2-5-.92a8.98 8.98 0 0 1-2.06-2.2c-.34-.5-.51-1.01-.8-1.7-.09-.24-.35-.6-.53-.74a9.72 9.72 0 0 1-1.67-1.69c-.36-.47-.89-.93-1.3-1.16-1-.57-1.93-1.12-2.76-1.66-1.01-.66-1.43-1.3-2.23-2.47-.14-.2-.24-.42-.3-.64-.17-.7-.04-1.17-.1-1.8-.01-.22 0-.44.05-.65.07-.26.1-.47.11-.62.01-.3.05-.53.1-.67a6.33 6.33 0 0 1 2.96-3.43c.7-.4 1.74-.77 2.47-1.27a9.25 9.25 0 0 0 2.68-2.82c.33-.53.63-1.3 1-1.94a5.89 5.89 0 0 1 2.2-2.23c.87-.5 1.55-.8 2.04-.9a7.22 7.22 0 0 1 1.9-.13c.64.03 1.2-.02 1.8.14 1.08.27 2.03.77 2.86 1.5Z" fill="#F5D165"/><path d="M32.92 14c.55.46 1 .99 1.33 1.57.3 2 .26 3.9-1.72 4.98-1.36.74-3.01 1.08-4.35 1.6l-5.03 1.93c-.22.08-.28.18-.43.28-.08.06-.15.16-.2.31-.74 2.09-.96 3.8-.17 5.9.09.23.2.69.4.97.13.19.33.33.61.45 1.96.84 4 1.23 6.15 1.17 4.06-.1 7.36-.1 10.56-.26.28-.02.5-.09.65-.2l.82-.67c.05-.04.1-.05.16-.02.05.02.06.06.04.11l-.17.35a8.25 8.25 0 0 1-1.77 1.45c-.26.14-.74.32-1.44.53a7.97 7.97 0 0 0-3.17 2.85c-1.6-.19-2.92-.79-4.35-1.35-.28-.11-.85-.27-1.72-.48l-3.38-.8c-1.03-.26-2-.66-2.88-1.21-3-1.88-3.48-5.94-1.72-8.9 1.56-2.65 4.65-3.35 7.06-4.6a15.23 15.23 0 0 0 5.25-4.71c.04-.05.03-.09 0-.13-.33-.31-.5-.69-.53-1.13Z" fill="#E2BF54"/><path d="M34.25 15.57c.27.42.43.7.49.87a8.17 8.17 0 0 0 3.16 4.16c.44.3 1 .63 1.69.97-.1.04-.2.04-.3 0-.05-.03-.06-.02-.03.04.03.05.07.09.12.12l.18.1c.15.16.56.33.76.5.5.4.92.76 1.23 1.1.49.51.8 1.24 1.24 1.84.14.2.17.35.29.58.06.12.1.28.12.47l.13 1.23c.08.62.1 1.02.08 1.22a6.07 6.07 0 0 1-1.84 3.7l.17-.35c.02-.05.01-.09-.04-.11-.06-.03-.11-.02-.16.02-.2.18-.48.4-.82.66-.16.13-.37.2-.65.2-3.2.17-6.5.17-10.56.27-2.15.06-4.2-.33-6.15-1.17a1.38 1.38 0 0 1-.6-.45c-.2-.28-.32-.74-.41-.97-.8-2.1-.57-3.81.16-5.9.06-.15.13-.25.21-.3.15-.1.2-.2.43-.29l5.03-1.94c1.34-.51 2.99-.85 4.35-1.59 1.98-1.08 2.01-2.98 1.72-4.98Zm-9.06 9.12a3.85 3.85 0 0 0-2.14-.02.17.17 0 0 0-.04.07c-.02.1 0 .19.1.29.05.17.2.24.44.2a.06.06 0 0 1 .06.02l.01.02v.03c0 .04-.05.1-.16.16.02-.02.03-.05.02-.1a.08.08 0 0 0-.08-.06c-.02 0-.04 0-.05.02-.12-.05-.22-.04-.3.05a7.33 7.33 0 0 0-.04 5.39c.02.05.05.08.1.1.02 0 .03.02.04.03-.2.2-.21.35-.02.46-.01.08.02.13.1.13.55 0 1.11 0 1.7.02.1.04.16.04.17.02a.24.24 0 0 0 .04-.19.32.32 0 0 0-.11-.18l-.5-.42a.2.2 0 0 1-.08-.16v-5.23l.02-.02a.5.5 0 0 1 .17 0h.1c.06.02.09.06.09.12v5.05c0 .2.1.36.29.35l1.8-.1c.01.1.05.12.1.07l-.11.26c-.03.07-.03.12 0 .16.02.05.08.08.16.08a.17.17 0 0 0-.04.06c-.02.05 0 .08.05.08.52 0 1.04.03 1.56.06.03 0 .06 0 .08-.02.03-.03.03-.06 0-.1.1.12.2.15.28.08a.11.11 0 0 0 .04-.07c0-.03 0-.06-.02-.08-.14-.22-.34-.4-.58-.56-.07-.04-.09-.03-.06.05l.07.21c-.16.3-.47.38-.93.26-.05-.01-.07-.05-.06-.1l.07-.4c.03.07.05.13.06.2.01.05.04.08.1.08h.32a.23.23 0 0 0 .2-.12l.03-.06c.05-.09.02-.13-.08-.13h-.42c-.05 0-.08-.03-.08-.09v-5.21c0-.07.03-.1.1-.1h.38l.15-.03c.14-.06.3-.06.46 0 .05.02.1.02.16.02l1.9-.06.4.02c.92.12 1.59.58 2 1.38.05.42.2.87.05 1.27a.36.36 0 0 0-.01.17c.05.45-.08.74-.38.85.04-.3.16-.63.35-.98a.12.12 0 0 0 0-.13c-.04-.05-.08-.06-.13-.02-.3.23-.41.43-.33.58-.38.23-.69.34-.93.33-1.05-.04-2.07 0-3.05.1-.05-.09-.14-.1-.28-.03a.17.17 0 0 0-.1.12c-.04.16.03.27.2.3.14.05.25.09.3.13a.98.98 0 0 0-.49.05.19.19 0 0 0-.1.1c-.15.36-.19.72-.13 1.09 0 .03.02.04.04.04h.05c.02 0 .03-.01.02-.03a1 1 0 0 1 .16-.76c-.02.1-.02.18.02.23.03.05.08.07.13.04.25-.1.36-.22.33-.34.12-.14.17-.26.14-.37l.03.09c.02.05.05.08.1.08a32 32 0 0 1 2.33-.04c.55 0 .98-.17 1.3-.52.4 0 .7-.2.94-.62a.14.14 0 0 0-.04-.19c-.18-.1-.23-.29-.15-.56.1.19.24.29.38.3a.08.08 0 0 0 .08-.05.08.08 0 0 0-.01-.09l-.32-.43c-.05-.07-.09-.07-.12.01a.37.37 0 0 0 0 .25c-.1-.04-.16-.1-.17-.19a6.04 6.04 0 0 0-.16-1.2 2.04 2.04 0 0 1-.53-.72c.7.48.78 1.06 1.2 1.65.12.16.18.14.18-.05.04-1.16-.43-1.94-1.4-2.34a4.31 4.31 0 0 0-1.28-.23c-1.49-.02-2.97-.02-4.46 0-.67.2-1.27.24-1.78.12Zm3.68 1.49-.1.04c-.36-.06-.54.1-.54.47l-.04.15a.2.2 0 0 0 0 .08c0 .07.04.08.08.03l.13-.14c.01.08.03.13.05.16.02.02.06.02.12-.02.13-.08.26-.1.4-.07-.63.24-.43 1.06 0 1.4.14.1.33.16.58.16H32.1c.58-.29.77-.81.56-1.57-.06-.2-.28-.33-.67-.38a4.3 4.3 0 0 0-2.13-.18l-.84-.36a8.17 8.17 0 0 1 2.88.1c.4.09.43 0 .1-.24-.13-.1-.33-.15-.6-.18-.88-.07-1.73-.06-2.54.04-.24-.15-.39-.1-.47.15a.15.15 0 0 0 .04.15c.1.1.25.17.43.2Z" fill="#CDAA3C"/><path d="M39.59 21.57a8.08 8.08 0 0 1 3.25 2.78c.17.24.3.3.41.19.48.9.73 1.91.75 3.01v1.2l-.12.97c-.49 1.2-.98 2.1-1.5 2.7A20.1 20.1 0 0 1 40.77 34a.17.17 0 0 0 0 .08c0 .07.03.15.09.23-.6.4-1.28.73-2.03.96l.3-.83c.03-.05.01-.07-.04-.07l-.72.08c.7-.2 1.18-.39 1.44-.53.54-.3 1.13-.79 1.77-1.45a6.07 6.07 0 0 0 1.84-3.7c.03-.2 0-.6-.08-1.22-.05-.4-.1-.82-.13-1.23-.02-.2-.06-.35-.12-.47-.12-.23-.15-.39-.29-.58-.44-.6-.75-1.33-1.24-1.84-.31-.34-.72-.7-1.23-1.1-.2-.17-.61-.34-.76-.5l-.18-.1a.3.3 0 0 1-.12-.12c-.03-.06-.02-.07.04-.05.1.05.2.05.29.01Z" fill="#826102"/><path d="M26.97 24.57c-.11.07-.12.23-.04.5l-.02 5.68-1.8.09v-5.6c0-.17.03-.35.08-.55.51.12 1.1.08 1.78-.12Z" fill="#907B3A"/><path d="M25.19 24.7c-.05.19-.08.37-.07.54v5.6c-.2.01-.3-.16-.3-.35v-5.05c0-.06-.02-.1-.08-.12a.28.28 0 0 0-.1 0l-1.54-.3c-.08-.09-.11-.19-.09-.28l.04-.07a.16.16 0 0 1 .07-.04 3.84 3.84 0 0 1 2.06.07ZM32.73 25.54a2.4 2.4 0 0 0-1.51-.24l-.42-.02-3.5-.09a.74.74 0 0 1-.37-.13c-.08-.26-.07-.42.04-.49 1.49-.02 2.97-.02 4.46 0 .34 0 .95.1 1.28.23.97.4 1.44 1.18 1.4 2.34 0 .19-.06.2-.17.05-.43-.59-.5-1.17-1.21-1.65Z" fill="#FFFFFE"/><path d="M24.64 25.31a.5.5 0 0 0-.17.01l-.01.01v5.24c0 .06.02.12.06.16l.5.42c.07.05.1.11.12.18.01.07 0 .14-.04.2-.01.01-.07 0-.18-.03l-.43-.6c-.04-.05-.07-.05-.1 0-.12.17-.31.24-.57.2a.13.13 0 0 1-.1-.11l-.04-.12c-.02-.08-.05-.09-.1-.03l-.45.51c-.2-.11-.18-.26.02-.45v-.01a.07.07 0 0 0-.04-.03.17.17 0 0 1-.1-.1c-.67-1.81-.65-3.6.05-5.39v5.26c0 .04 0 .08.03.1.03.04.06.06.1.07.1.02.17-.03.24-.14l.03-5.2c.1-.06.16-.12.17-.16a.06.06 0 0 0-.08-.07c-.24.04-.39-.03-.45-.2l1.54.28Z" fill="#FDE791"/><path d="M27.3 25.2c-.13.02-.12.05.03.06.04 0 .05.02.04.06l-.08.27v4.93c0 .14-.09.24-.27.3-.05.04-.09.01-.1-.07l.01-5.69c.15.09.27.13.38.13Z" fill="#2F2401"/><path d="m27.3 25.2 3.5.08-1.9.06c-.05 0-.1 0-.15-.02a.58.58 0 0 0-.46 0 .39.39 0 0 1-.15.03h-.39c-.06 0-.1.03-.1.1v5.21c0 .06.04.09.1.09h.41c.1 0 .13.04.08.13l-.02.06a.23.23 0 0 1-.2.12h-.33c-.06 0-.09-.03-.1-.09a.54.54 0 0 0-.06-.18c-.2.15-.34.32-.46.52-.08 0-.14-.03-.17-.08-.02-.04-.02-.09 0-.16l.12-.26c.18-.05.28-.15.27-.3V25.6l.08-.27c0-.04 0-.05-.04-.06-.15-.01-.16-.04-.02-.07Z" fill="#FDE791"/><path d="M23.35 25.32c.06.04.09.12.07.24l-.03.24c-.02 1.62 0 3.23.04 4.86-.07.11-.15.16-.24.14a.17.17 0 0 1-.1-.06.18.18 0 0 1-.04-.11v-5.26c.08-.09.18-.1.3-.05Z" fill="#2F2401"/><path d="m23.46 25.46-.03 5.2c-.04-1.63-.06-3.24-.04-4.86l.03-.24c.02-.12 0-.2-.07-.24l.05-.02a.08.08 0 0 1 .08.07c0 .04 0 .07-.02.09Z" fill="#907B3A"/><path d="M32.73 25.54c.11.27.3.52.53.73 0 .18-.01.32-.04.41a2.49 2.49 0 0 0-2-1.38 2.4 2.4 0 0 1 1.5.24Z" fill="#FDE791"/><path d="M23.84 30.75c-.02 0-.03 0-.04-.02a.05.05 0 0 1-.01-.03l.02-5.14a.45.45 0 0 1 .03-.15c0-.02.02-.03.03-.04a.05.05 0 0 1 .04-.02h.3c.02 0 .04.03.06.07.02.04.03.1.02.15l-.02 5.13c0 .02 0 .03-.02.04l-.03.01h-.38Z" fill="#CDAA3C"/><path d="M28.87 25.67c-.06.05-.1.1-.12.15-.02.05 0 .09.06.1l.22.03.84.36c-.18.06-.39.08-.61.07-.05 0-.07-.03-.07-.08v-.08c0-.02-.01-.03-.04-.03-.02 0-.03.02-.03.07.01.2 0 .21-.02.03v-.04c0-.03-.02-.05-.04-.05l-.19-.02a.85.85 0 0 1-.43-.2.15.15 0 0 1-.04-.16c.08-.25.23-.3.47-.15Z" fill="#6D5001"/><path d="m29.03 25.95-.22-.03c-.06-.01-.08-.05-.06-.1.02-.05.06-.1.12-.15.81-.1 1.66-.11 2.53-.04.28.03.48.09.6.18.34.25.3.33-.1.23a8.17 8.17 0 0 0-2.87-.1Z" fill="#FDE791"/><path d="M12.23 26.02a2 2 0 0 1 .26 1.43c-.2.43-.08 1.03-.03 1.65.01.23.05.42.1.6.03.07.05.07.05-.01l.02-.41c0-.22.06-.23.15-.04a2.57 2.57 0 0 1 .05.2l-.04-.02a.1.1 0 0 0-.04-.05.09.09 0 0 0-.05 0 .08.08 0 0 0-.07.07l-.02.47-.58-1.24c-.08-.9-.01-1.79.2-2.65Z" fill="#F5D165"/><path d="M29.87 26.31a4.3 4.3 0 0 1 2.13.18c-.1.13-.08.25.09.36.08.05.16.1.26.13.06.02.1.06.12.11.19.4.03.8-.31 1.07-.22.17-.23.26-.05.29h-1.4c.74.05 1.26-.2 1.58-.75a.32.32 0 0 0 0-.3l-.03-.09c-.08-.16-.18-.16-.28-.02-.19.28-.4.41-.64.41a1799.56 1799.56 0 0 1-2.24 0 .18.18 0 0 1-.1-.11.19.19 0 0 1 0-.08c.02-.23.01-.44-.04-.63a.49.49 0 0 0-.4.07c-.05.04-.1.04-.11.02-.02-.03-.04-.08-.05-.16.05-.27.22-.34.52-.23.08.03.12 0 .12-.08v-.17c0-.05-.03-.09-.08-.1a.7.7 0 0 0-.2 0l.11-.05.19.02c.02 0 .04.02.04.05v.04c.03.18.03.17.02-.03 0-.05.01-.07.03-.07.03 0 .04 0 .04.03v.08c0 .05.02.07.07.08.22.01.43 0 .61-.07Z" fill="#907B3A"/><path d="M28.76 26.22a.7.7 0 0 1 .2.01c.05.01.08.05.08.1v.17c0 .08-.04.11-.12.08-.3-.11-.47-.04-.52.23l-.13.14c-.04.05-.07.04-.09-.03a.2.2 0 0 1 0-.08l.05-.15c0-.37.18-.53.53-.47Z" fill="#FDFEE9"/><path d="M33.59 27.65h-.01c-.08.28-.03.47.15.57.03.02.05.05.06.09 0 .03 0 .07-.02.1-.23.41-.55.62-.95.62l.05-.06c.3-.11.43-.4.38-.85-.01-.06 0-.12.01-.17.15-.4 0-.85-.04-1.27.03-.09.04-.23.04-.41.1.41.15.81.16 1.2 0 .08.06.14.17.18Z" fill="#FFFFFE"/><path d="M32 26.49c.39.05.61.18.67.38.2.76.02 1.28-.56 1.58-.18-.03-.17-.12.05-.3.34-.26.5-.66.31-1.06a.22.22 0 0 0-.12-.11 1.4 1.4 0 0 1-.26-.13c-.17-.11-.2-.23-.09-.36Z" fill="#FDFEE9"/><path d="M12.76 27.02c.05.63-.08 1.1.09 1.8.06.22.16.43.3.64.8 1.16 1.22 1.8 2.23 2.47.83.54 1.76 1.1 2.76 1.66.41.23.94.69 1.3 1.16a9.72 9.72 0 0 0 1.67 1.69c.18.13.44.5.54.74.28.69.45 1.2.79 1.7.58.87 1.26 1.6 2.06 2.2 1.49 1.12 3.13 1.09 5 .92a4.1 4.1 0 0 0 1.37-.34 9 9 0 0 0 3.62-3.21 6.17 6.17 0 0 1-2.37 3.2l-.37.2a.7.7 0 0 0-.32.38c-.15.38-.34.6-.57.64a1.7 1.7 0 0 0-.7.36.38.38 0 0 1-.15.08c-.26.07-.52.16-.78.26a.63.63 0 0 0-.38.39c-3.24.28-5.72-.93-7.44-3.64l.01-.08c0-.03.02-.05.03-.07a.12.12 0 0 1 .06-.04.12.12 0 0 1 .13.05 8 8 0 0 0 2.9 2.55c.59.3 1.4.51 2 .5.2 0 .3-.1.3-.28-.01-.06-.04-.1-.1-.12l-1.05-.34 1.04.09c.01 0 .02 0 .03-.02a.09.09 0 0 0 .03-.04c0-.04 0-.07-.05-.08a15.08 15.08 0 0 1-2.4-.87 6 6 0 0 1-2.26-2.22c-.44-.7-.8-1.79-1.27-2.51a9.81 9.81 0 0 0-4.15-3.56c-.65-.34-1.09-.58-1.3-.72-1-.7-1.9-1.6-2.39-2.74a.11.11 0 0 0-.11-.07h-.06a.06.06 0 0 0-.05.03.07.07 0 0 0 0 .06l.34 1.03c-.22-.3-.38-.6-.48-.96l.02-.47c0-.02 0-.04.02-.05a.08.08 0 0 1 .05-.03l.05.01a.1.1 0 0 1 .04.05l.04.02-.05-.2c-.1-.19-.14-.18-.15.04l-.02.4c0 .09-.02.1-.05.01-.05-.17-.09-.36-.1-.59-.05-.62-.17-1.22.03-1.65.06-.19.15-.34.27-.43Z" fill="#FDE791"/><path d="M28.96 26.88c.05.19.06.4.04.63a.19.19 0 0 0 .04.14.18.18 0 0 0 .14.07l2.16-.02c.24 0 .45-.13.64-.4.1-.15.2-.15.28.01l.04.09a.32.32 0 0 1-.01.3c-.32.55-.84.8-1.57.74h-1.17a.92.92 0 0 1-.58-.16c-.43-.34-.63-1.16 0-1.4Z" fill="#FFFFFE"/><path d="M28.28 27.6c.14.35.33.63.6.84.04.03.04.05-.02.07a.44.44 0 0 1-.27-.03.34.34 0 0 1-.15-.12 1.66 1.66 0 0 1-.25-1.08.03.03 0 0 1 .06 0c.02.07.03.13.02.21l.01.11Z" fill="#FDE791"/><path d="M33.58 27.66v-.01a.37.37 0 0 1 0-.25c.04-.08.08-.08.13-.01l.32.43a.08.08 0 0 1-.02.12.08.08 0 0 1-.05.01c-.14 0-.27-.1-.38-.3ZM32.87 28.97l-.05.06a1.6 1.6 0 0 1-1.3.52c-.93-.02-1.7 0-2.31.04-.06 0-.1-.03-.11-.08l-.03-.1c-.08 0-.14-.01-.16-.04a1.03 1.03 0 0 0-.32-.12c-.16-.04-.23-.15-.19-.3.01-.07.05-.1.1-.13.14-.07.23-.06.27.04-.1.16.01.24.36.23.53.37 1.21.5 2.06.38.59-.08 1.03-.3 1.31-.66.25-.2.34-.33.26-.4-.08-.14.03-.34.33-.57.05-.04.09-.03.12.02s.03.09 0 .13c-.18.35-.3.68-.34.98Z" fill="#2F2401"/><path d="M32.76 28.42c.08.06 0 .19-.26.39l-.72.16c-.23.05-.47.08-.72.08-.64 0-1.28.02-1.93.04-.35 0-.47-.07-.36-.23.99-.12 2-.15 3.06-.11.24.01.55-.1.93-.33Z" fill="#FDE791"/><path d="M12.6 29.91c.1.35.27.67.49.96a6.1 6.1 0 0 0 2.41 2.31c.62.34 1.24.66 1.87.97.23.12.72.46 1.45 1.03a7.8 7.8 0 0 1 2.36 3.1c.4.92.64 1.43.7 1.55a5.76 5.76 0 0 0 3.81 2.66l1.05.34c.06.02.09.06.1.12 0 .19-.1.28-.3.28-.6.01-1.41-.2-2-.5a8 8 0 0 1-2.95-2.6.12.12 0 0 0-.08 0 .12.12 0 0 0-.06.04.13.13 0 0 0-.03.07v.08l-1.07-2.38a6.24 6.24 0 0 0-2-2.65 8.72 8.72 0 0 0-1.6-.91c-.58-.27-1.08-.53-1.5-.78-.46-.28-.95-.57-1.46-.85a7.11 7.11 0 0 1-1.76-4.08l.58 1.24ZM32.5 28.8c-.28.37-.72.59-1.31.67a2.83 2.83 0 0 1-2.06-.38 98.4 98.4 0 0 1 1.93-.04c.25 0 .5-.03.72-.08l.72-.16Z" fill="#CDAA3C"/><path d="M28.9 29.37c.03.03.09.04.17.05.03.11-.02.23-.14.37-.2-.16-.36-.13-.48.07a1 1 0 0 0-.16.76c0 .02 0 .03-.02.03h-.05c-.02 0-.04-.01-.04-.04-.06-.37-.02-.73.12-1.08a.19.19 0 0 1 .11-.11.98.98 0 0 1 .5-.05Z" fill="#FDFEE9"/><path d="M28.93 29.79c.03.12-.08.23-.33.34-.05.03-.1.01-.13-.04-.04-.05-.04-.13-.02-.23.12-.2.28-.23.48-.07Z" fill="#2F2401"/><path d="M25.7 42.49a5.76 5.76 0 0 1-3.82-2.66c-.06-.12-.3-.63-.7-1.55a7.8 7.8 0 0 0-2.36-3.1c-.73-.57-1.22-.91-1.45-1.03a71.1 71.1 0 0 1-1.87-.97 6.1 6.1 0 0 1-2.41-2.31l-.35-1.03v-.03a.07.07 0 0 1 .04-.05h.08c.05 0 .09.02.11.06a6.6 6.6 0 0 0 2.4 2.74c.2.14.64.38 1.3.72a9.81 9.81 0 0 1 4.14 3.56c.46.72.83 1.8 1.27 2.51a6 6 0 0 0 2.25 2.22c.44.23 1.24.52 2.41.87.04.01.05.04.05.08 0 .02-.01.03-.03.04a.04.04 0 0 1-.03.02l-1.04-.1Z" fill="#FDFEE9"/><path d="M43.88 29.72a6.58 6.58 0 0 1-3.03 4.6.59.59 0 0 1-.1-.24.17.17 0 0 1 .06-.15c.83-.74 1.36-1.24 1.58-1.5.5-.61 1-1.51 1.5-2.7Z" fill="#FDE791"/><path d="M29.03 30.82v.01H29a.3.3 0 0 1-.23-.08.33.33 0 0 1-.1-.23v-.02c0-.1.02-.18.08-.24.06-.07.14-.1.22-.1H29l.01.01.03.65Z" fill="#FDFEE9"/><path d="m28.72 31.38-.27-.36-.07-.2c-.03-.09 0-.1.06-.06.24.15.44.34.58.56.02.02.02.05.02.08s-.02.05-.04.07c-.08.07-.18.04-.28-.09Z" fill="#FDE791"/><path d="m27.53 30.79-.07.38c-.01.06 0 .1.06.11.46.12.77.03.93-.26l.27.36c.03.05.03.08 0 .1-.02.03-.05.03-.08.03a27.6 27.6 0 0 0-1.56-.06c-.06 0-.07-.03-.05-.08 0-.02.02-.04.04-.06.12-.2.27-.37.46-.52Z" fill="#6D5001"/><path d="m24.92 31.5-1.69-.02c-.08 0-.11-.05-.1-.13l.45-.5c.05-.07.08-.06.1.02l.03.12c.01.06.05.1.11.1.26.05.45-.02.56-.19.04-.05.07-.05.11 0l.43.6Z" fill="#826102"/><path d="M20.35 37.94a8.29 8.29 0 0 0-2.37-2.45c-.49-.32-1.13-.63-1.92-.95-.78-.3-1.53-.9-2.27-1.79.51.28 1 .57 1.47.85.41.25.91.51 1.5.78a6.24 6.24 0 0 1 3.59 3.56Z" fill="#FDFEE9"/><path d="m38.82 35.27-.35.17a.2.2 0 0 1-.08 0c-.06 0-.07-.04-.03-.08.05-.07.07-.14.04-.2-.03-.06-.07-.08-.13-.05a6.12 6.12 0 0 0-2.47 2.19c-.64.88-.96 1.96-1.6 2.84a39.96 39.96 0 0 1-.83 1.14v.07l.05.05c.02.02.05.02.07.02.03 0 .07.02.15.06a7.2 7.2 0 0 1-4.79 2.48.63.63 0 0 1 .38-.39c.26-.1.52-.19.78-.26.06-.01.1-.04.15-.08.25-.2.48-.31.7-.36.23-.04.42-.26.57-.64a.7.7 0 0 1 .32-.38l.38-.2a6.17 6.17 0 0 0 2.36-3.2l.7-1.15a7.97 7.97 0 0 1 3.17-2.85l.72-.08c.05 0 .07.02.05.07l-.31.83Z" fill="#6D5001"/><path d="m38.47 35.44-.05.03c-.04-.03-.08-.03-.12 0-.03.02-.03.05 0 .07a7.75 7.75 0 0 0-2.71 2.56c-.41.64-.73 1.55-1.12 2.24-.2.34-.47.72-.83 1.14-.08-.04-.12-.06-.15-.06-.02 0-.05 0-.07-.02a.12.12 0 0 1-.04-.05.14.14 0 0 1 .02-.14c.35-.45.62-.8.8-1.07.64-.88.96-1.96 1.6-2.84a6.12 6.12 0 0 1 2.47-2.2c.06-.02.1 0 .13.06s.01.13-.04.2c-.04.04-.03.07.03.09a.2.2 0 0 0 .08 0Z" fill="#FDE791"/><defs><linearGradient id="a" x1="10.42" y1="9.71" x2="68.15" y2="76.02" gradientUnits="userSpaceOnUse"><stop stop-color="#1A1E21"/><stop offset="1" stop-color="#06060A"/></linearGradient></defs></svg>