<?xml version="1.0" encoding="UTF-8"?>
<!DOCTYPE svg PUBLIC "-//W3C//DTD SVG 1.1//EN" "http://www.w3.org/Graphics/SVG/1.1/DTD/svg11.dtd">
<svg xmlns="http://www.w3.org/2000/svg" version="1.1" width="64px" height="64px" style="shape-rendering:geometricPrecision; text-rendering:geometricPrecision; image-rendering:optimizeQuality; fill-rule:evenodd; clip-rule:evenodd" xmlns:xlink="http://www.w3.org/1999/xlink">
<g><path style="opacity:1" fill="#fffcfa" d="M -0.5,-0.5 C 9.16667,-0.5 18.8333,-0.5 28.5,-0.5C 28.6309,0.376442 28.2975,1.04311 27.5,1.5C 24.3147,-0.037042 21.648,0.629625 19.5,3.5C 17.9361,2.81395 16.2694,2.98062 14.5,4C 13.8534,5.6095 13.02,7.1095 12,8.5C 9.91539,7.35308 8.41539,8.01975 7.5,10.5C 7.70931,11.086 8.04265,11.586 8.5,12C 5.57197,13.0643 3.57197,15.0643 2.5,18C 2.95735,18.414 3.29069,18.914 3.5,19.5C 0.629625,21.648 -0.037042,24.3147 1.5,27.5C 1.04311,28.2975 0.376442,28.6309 -0.5,28.5C -0.5,18.8333 -0.5,9.16667 -0.5,-0.5 Z"/></g>
<g><path style="opacity:1" fill="#fffcfa" d="M 34.5,-0.5 C 44.1667,-0.5 53.8333,-0.5 63.5,-0.5C 63.5,9.16667 63.5,18.8333 63.5,28.5C 62.6236,28.6309 61.9569,28.2975 61.5,27.5C 63.037,24.3147 62.3704,21.648 59.5,19.5C 60.186,17.9361 60.0194,16.2694 59,14.5C 57.3905,13.8534 55.8905,13.02 54.5,12C 55.6469,9.91539 54.9803,8.41539 52.5,7.5C 51.914,7.70931 51.414,8.04265 51,8.5C 50.1859,6.71833 49.0192,5.21833 47.5,4C 44.2662,3.33949 41.2662,2.17282 38.5,0.5C 37.4461,0.679943 36.4461,1.01328 35.5,1.5C 34.7025,1.04311 34.3691,0.376442 34.5,-0.5 Z"/></g>
<g><path style="opacity:1" fill="#f6972b" d="M 28.5,-0.5 C 30.5,-0.5 32.5,-0.5 34.5,-0.5C 34.3691,0.376442 34.7025,1.04311 35.5,1.5C 36.4461,1.01328 37.4461,0.679943 38.5,0.5C 41.2662,2.17282 44.2662,3.33949 47.5,4C 49.0192,5.21833 50.1859,6.71833 51,8.5C 51.414,8.04265 51.914,7.70931 52.5,7.5C 54.9803,8.41539 55.6469,9.91539 54.5,12C 55.8905,13.02 57.3905,13.8534 59,14.5C 60.0194,16.2694 60.186,17.9361 59.5,19.5C 62.3704,21.648 63.037,24.3147 61.5,27.5C 61.9569,28.2975 62.6236,28.6309 63.5,28.5C 63.5,30.5 63.5,32.5 63.5,34.5C 62.6236,34.3691 61.9569,34.7025 61.5,35.5C 63.037,38.6853 62.3704,41.352 59.5,43.5C 60.186,45.0639 60.0194,46.7306 59,48.5C 57.3905,49.1466 55.8905,49.98 54.5,51C 55.6469,53.0846 54.9803,54.5846 52.5,55.5C 51.914,55.2907 51.414,54.9574 51,54.5C 49.98,55.8905 49.1466,57.3905 48.5,59C 46.7306,60.0194 45.0639,60.186 43.5,59.5C 41.352,62.3704 38.6853,63.037 35.5,61.5C 34.7025,61.9569 34.3691,62.6236 34.5,63.5C 32.5,63.5 30.5,63.5 28.5,63.5C 28.6309,62.6236 28.2975,61.9569 27.5,61.5C 24.3147,63.037 21.648,62.3704 19.5,59.5C 17.5041,60.6096 15.6708,60.2763 14,58.5C 13.7451,55.2069 12.2451,54.0403 9.5,55C 7.6063,53.9207 7.27297,52.5874 8.5,51C 7.1095,49.98 5.6095,49.1466 4,48.5C 2.98062,46.7306 2.81395,45.0639 3.5,43.5C 0.629625,41.352 -0.037042,38.6853 1.5,35.5C 1.04311,34.7025 0.376442,34.3691 -0.5,34.5C -0.5,32.5 -0.5,30.5 -0.5,28.5C 0.376442,28.6309 1.04311,28.2975 1.5,27.5C -0.037042,24.3147 0.629625,21.648 3.5,19.5C 3.29069,18.914 2.95735,18.414 2.5,18C 3.57197,15.0643 5.57197,13.0643 8.5,12C 8.04265,11.586 7.70931,11.086 7.5,10.5C 8.41539,8.01975 9.91539,7.35308 12,8.5C 13.02,7.1095 13.8534,5.6095 14.5,4C 16.2694,2.98062 17.9361,2.81395 19.5,3.5C 21.648,0.629625 24.3147,-0.037042 27.5,1.5C 28.2975,1.04311 28.6309,0.376442 28.5,-0.5 Z"/></g>
<g><path style="opacity:1" fill="#fff7ef" d="M 25.5,4.5 C 48.3202,3.81952 59.1535,14.8195 58,37.5C 51.263,56.0894 38.4296,62.2561 19.5,56C 5.29533,47.3736 1.12867,35.207 7,19.5C 11.4235,12.223 17.5901,7.223 25.5,4.5 Z"/></g>
<g><path style="opacity:1" fill="#f69524" d="M 26.5,6.5 C 46.5118,6.01266 56.3451,15.6793 56,35.5C 51.9578,50.5275 42.1245,57.3609 26.5,56C 12.1358,51.4532 5.63576,41.6199 7,26.5C 8.47277,22.2211 10.4728,18.2211 13,14.5C 17.1834,11.1637 21.6834,8.49703 26.5,6.5 Z"/></g>
<g><path style="opacity:1" fill="#fefaf4" d="M 29.5,10.5 C 35.0159,10.4734 36.3492,12.64 33.5,17C 27.7377,17.4178 26.4044,15.2511 29.5,10.5 Z"/></g>
<g><path style="opacity:1" fill="#fff9f3" d="M 33.5,20.5 C 35.4023,23.3373 36.069,26.6707 35.5,30.5C 39.6972,29.4043 43.6972,27.7376 47.5,25.5C 47.8333,25.8333 48.1667,26.1667 48.5,26.5C 44.5,28.8333 40.5,31.1667 36.5,33.5C 35.831,38.5438 34.9977,43.5438 34,48.5C 29.6204,53.3433 24.9538,53.6767 20,49.5C 18.6982,42.0961 21.6982,37.0961 29,34.5C 29.8184,31.7728 29.6517,29.1062 28.5,26.5C 26.0945,28.0972 23.7611,28.7639 21.5,28.5C 25.5654,25.81 29.5654,23.1433 33.5,20.5 Z"/></g>
<g><path style="opacity:1" fill="#f7992e" d="M 28.5,37.5 C 30.3426,41.7342 29.5093,45.4009 26,48.5C 25.228,48.3552 24.5613,48.0219 24,47.5C 23.3333,45.8333 23.3333,44.1667 24,42.5C 25.7073,40.9625 27.2073,39.2959 28.5,37.5 Z"/></g>
<g><path style="opacity:1" fill="#fffdfb" d="M -0.5,34.5 C 0.376442,34.3691 1.04311,34.7025 1.5,35.5C -0.037042,38.6853 0.629625,41.352 3.5,43.5C 2.81395,45.0639 2.98062,46.7306 4,48.5C 5.6095,49.1466 7.1095,49.98 8.5,51C 7.27297,52.5874 7.6063,53.9207 9.5,55C 12.2451,54.0403 13.7451,55.2069 14,58.5C 15.6708,60.2763 17.5041,60.6096 19.5,59.5C 21.648,62.3704 24.3147,63.037 27.5,61.5C 28.2975,61.9569 28.6309,62.6236 28.5,63.5C 18.8333,63.5 9.16667,63.5 -0.5,63.5C -0.5,53.8333 -0.5,44.1667 -0.5,34.5 Z"/></g>
<g><path style="opacity:1" fill="#fffcfa" d="M 63.5,34.5 C 63.5,44.1667 63.5,53.8333 63.5,63.5C 53.8333,63.5 44.1667,63.5 34.5,63.5C 34.3691,62.6236 34.7025,61.9569 35.5,61.5C 38.6853,63.037 41.352,62.3704 43.5,59.5C 45.0639,60.186 46.7306,60.0194 48.5,59C 49.1466,57.3905 49.98,55.8905 51,54.5C 51.414,54.9574 51.914,55.2907 52.5,55.5C 54.9803,54.5846 55.6469,53.0846 54.5,51C 55.8905,49.98 57.3905,49.1466 59,48.5C 60.0194,46.7306 60.186,45.0639 59.5,43.5C 62.3704,41.352 63.037,38.6853 61.5,35.5C 61.9569,34.7025 62.6236,34.3691 63.5,34.5 Z"/></g>
</svg>
