<!-- by TradingView --><svg width="56" height="56" viewBox="0 0 56 56" xmlns="http://www.w3.org/2000/svg"><path fill="url(#a)" d="M0 0h56v56H0z"/><path d="M31.21 39.1a17 17 0 0 0 4.57-10.55c.07-.87.08-2.53.04-4.98-.1-6.03-7.03-9.59-11.86-5.72a7.64 7.64 0 0 0-2.56 3.98 9.77 9.77 0 0 0-.25 2.72v2.76c0 .07-.04.11-.12.11h-2.88c-.09 0-.13-.04-.13-.13l-.01-.88c-.04-3.34-.06-5.7 1.62-8.39 2.04-3.26 5-4.93 8.89-5.02a9.12 9.12 0 0 1 5.1 1.38 10.61 10.61 0 0 1 5.32 8.67c.07.96.06 2.2.05 3.41v.85a20.53 20.53 0 0 1-4.64 13.05c-.35.43-.7.65-1.08.64-.3 0-.5-.08-.64-.22-.45-.48-.92-.96-1.42-1.45-.07-.08-.07-.16 0-.24ZM20 31.8c2.7 0 4.63-2.06 4.83-4.69 0-.07.05-.11.12-.11h2.93a.13.13 0 0 1 .09.04.12.12 0 0 1 .03.08c-.18 4.29-3.47 7.88-8 7.88-4.53 0-7.82-3.59-8-7.88a.11.11 0 0 1 .03-.08.12.12 0 0 1 .09-.04h2.92c.08 0 .12.04.13.11.2 2.63 2.14 4.7 4.83 4.7Zm10.03-4.68c-.2 6.1-4.24 10.83-9.91 11.08-.08 0-.12.04-.12.13v2.54c0 .08.04.13.12.12h2.83c.91.04 1.9-.43 2.62-.84 4.5-2.5 7.47-7.47 7.43-13.01 0-.1-.04-.14-.13-.14h-2.72c-.08 0-.12.04-.12.12Z" fill="#fff"/><defs><linearGradient id="a" x1="10.42" y1="9.71" x2="68.15" y2="76.02" gradientUnits="userSpaceOnUse"><stop stop-color="#1A1E21"/><stop offset="1" stop-color="#06060A"/></linearGradient></defs></svg>