<?xml version="1.0" encoding="UTF-8"?>
<!DOCTYPE svg PUBLIC "-//W3C//DTD SVG 1.1//EN" "http://www.w3.org/Graphics/SVG/1.1/DTD/svg11.dtd">
<svg xmlns="http://www.w3.org/2000/svg" version="1.1" width="64px" height="64px" style="shape-rendering:geometricPrecision; text-rendering:geometricPrecision; image-rendering:optimizeQuality; fill-rule:evenodd; clip-rule:evenodd" xmlns:xlink="http://www.w3.org/1999/xlink">
<g><path style="opacity:1" fill="#fdfdfb" d="M -0.5,-0.5 C 20.8333,-0.5 42.1667,-0.5 63.5,-0.5C 63.5,20.8333 63.5,42.1667 63.5,63.5C 42.1667,63.5 20.8333,63.5 -0.5,63.5C -0.5,42.1667 -0.5,20.8333 -0.5,-0.5 Z"/></g>
<g><path style="opacity:1" fill="#1f0a01" d="M 34.5,4.5 C 37.2108,4.18493 39.5441,4.85159 41.5,6.5C 41.8186,8.7505 41.3186,10.7505 40,12.5C 37.8646,10.7215 35.3646,10.0548 32.5,10.5C 31.5028,10.5299 30.8361,10.0299 30.5,9C 31.3441,6.99329 32.6774,5.49329 34.5,4.5 Z"/></g>
<g><path style="opacity:1" fill="#d5bd20" d="M 28.5,4.5 C 29.2389,4.36899 29.9056,4.53566 30.5,5C 28.8879,8.2602 27.7213,11.7602 27,15.5C 23.1145,11.844 18.9478,11.5107 14.5,14.5C 14.393,12.0968 15.393,10.2635 17.5,9C 20.7294,6.38386 24.3961,4.88386 28.5,4.5 Z"/></g>
<g><path style="opacity:1" fill="#886010" d="M 41.5,6.5 C 50.474,13.6786 53.6407,23.012 51,34.5C 50.1534,36.1932 49.3201,37.8599 48.5,39.5C 47.578,41.8163 45.9113,43.483 43.5,44.5C 42.1514,45.9525 40.4847,46.9525 38.5,47.5C 34.5662,48.3597 30.5662,48.693 26.5,48.5C 25.5,48.1667 24.8333,47.5 24.5,46.5C 26.6547,46.628 28.6547,46.128 30.5,45C 29.8333,44.6667 29.1667,44.3333 28.5,44C 31.6152,43.2763 34.2819,41.7763 36.5,39.5C 35.2842,37.7602 33.6175,36.7602 31.5,36.5C 27.8655,37.41 24.1988,37.41 20.5,36.5C 20.5,36.1667 20.5,35.8333 20.5,35.5C 21.4916,35.6716 22.1583,35.3382 22.5,34.5C 24.5542,34.6347 26.2209,33.968 27.5,32.5C 28.1667,32.5 28.8333,32.5 29.5,32.5C 30.7791,33.968 32.4458,34.6347 34.5,34.5C 38.2589,35.9569 40.9256,34.6236 42.5,30.5C 45.3646,22.7 42.6979,19.3667 34.5,20.5C 35.1834,18.8235 36.5168,18.1568 38.5,18.5C 38.2407,14.9319 36.2407,13.5985 32.5,14.5C 32.5,13.1667 32.5,11.8333 32.5,10.5C 35.3646,10.0548 37.8646,10.7215 40,12.5C 41.3186,10.7505 41.8186,8.7505 41.5,6.5 Z"/></g>
<g><path style="opacity:1" fill="#cbab1c" d="M 28.5,4.5 C 30.5,3.16667 32.5,3.16667 34.5,4.5C 32.6774,5.49329 31.3441,6.99329 30.5,9C 30.8361,10.0299 31.5028,10.5299 32.5,10.5C 32.5,11.8333 32.5,13.1667 32.5,14.5C 36.2407,13.5985 38.2407,14.9319 38.5,18.5C 36.5168,18.1568 35.1834,18.8235 34.5,20.5C 32.5168,20.1568 31.1834,20.8235 30.5,22.5C 29.1667,22.5 28.5,23.1667 28.5,24.5C 26.9464,22.1079 25.6131,19.4412 24.5,16.5C 23.2606,19.9218 21.9272,23.2551 20.5,26.5C 20.1667,26.5 19.8333,26.5 19.5,26.5C 19.5,24.5 19.5,22.5 19.5,20.5C 18.5,20.5 17.5,20.5 16.5,20.5C 21.8341,17.4166 21.1674,15.75 14.5,15.5C 14.5,15.1667 14.5,14.8333 14.5,14.5C 18.9478,11.5107 23.1145,11.844 27,15.5C 27.7213,11.7602 28.8879,8.2602 30.5,5C 29.9056,4.53566 29.2389,4.36899 28.5,4.5 Z"/></g>
<g><path style="opacity:1" fill="#3e1806" d="M 14.5,15.5 C 21.1674,15.75 21.8341,17.4166 16.5,20.5C 15.5,21.8333 14.5,21.8333 13.5,20.5C 12.6618,20.1583 12.3284,19.4916 12.5,18.5C 12.7822,17.2223 13.4489,16.2223 14.5,15.5 Z"/></g>
<g><path style="opacity:1" fill="#ad8307" d="M 28.5,24.5 C 28.1667,25.5 27.5,26.1667 26.5,26.5C 25.5,26.5 24.5,26.5 23.5,26.5C 22.5,26.5 21.5,26.5 20.5,26.5C 21.9272,23.2551 23.2606,19.9218 24.5,16.5C 25.6131,19.4412 26.9464,22.1079 28.5,24.5 Z"/></g>
<g><path style="opacity:1" fill="#d7d27b" d="M 12.5,18.5 C 12.3284,19.4916 12.6618,20.1583 13.5,20.5C 12.5701,24.3998 12.2367,28.3998 12.5,32.5C 9.83333,27.8333 9.83333,23.1667 12.5,18.5 Z"/></g>
<g><path style="opacity:1" fill="#0f1010" d="M 32.5,24.5 C 34.5,24.5 36.5,24.5 38.5,24.5C 38.4828,26.5648 38.1495,28.5648 37.5,30.5C 35.8333,30.5 34.1667,30.5 32.5,30.5C 32.5,28.5 32.5,26.5 32.5,24.5 Z"/></g>
<g><path style="opacity:1" fill="#908f89" d="M 30.5,23.5 C 31.4916,23.3284 32.1583,23.6618 32.5,24.5C 32.5,26.5 32.5,28.5 32.5,30.5C 34.1667,30.5 35.8333,30.5 37.5,30.5C 37.9382,30.4346 38.2716,30.6012 38.5,31C 36.4556,31.4983 35.1223,32.665 34.5,34.5C 32.4458,34.6347 30.7791,33.968 29.5,32.5C 27.9089,29.2778 28.2422,26.2778 30.5,23.5 Z"/></g>
<g><path style="opacity:1" fill="#dfcc45" d="M 13.5,20.5 C 14.5,21.8333 15.5,21.8333 16.5,20.5C 17.5,20.5 18.5,20.5 19.5,20.5C 19.5,22.5 19.5,24.5 19.5,26.5C 18.8333,26.5 18.5,26.8333 18.5,27.5C 17.1201,27.9623 16.4534,28.9623 16.5,30.5C 17.5076,32.4992 18.841,34.1658 20.5,35.5C 20.5,35.8333 20.5,36.1667 20.5,36.5C 18.2341,36.8588 16.4007,36.1922 15,34.5C 14.51,35.7932 14.3433,37.1266 14.5,38.5C 12.9261,36.8984 12.2594,34.8984 12.5,32.5C 12.2367,28.3998 12.5701,24.3998 13.5,20.5 Z"/></g>
<g><path style="opacity:1" fill="#634d27" d="M 30.5,22.5 C 30.5,22.8333 30.5,23.1667 30.5,23.5C 28.2422,26.2778 27.9089,29.2778 29.5,32.5C 28.8333,32.5 28.1667,32.5 27.5,32.5C 27.4828,30.4352 27.1495,28.4352 26.5,26.5C 27.5,26.1667 28.1667,25.5 28.5,24.5C 28.5,23.1667 29.1667,22.5 30.5,22.5 Z"/></g>
<g><path style="opacity:1" fill="#5a524c" d="M 34.5,20.5 C 42.6979,19.3667 45.3646,22.7 42.5,30.5C 40.9256,34.6236 38.2589,35.9569 34.5,34.5C 35.1223,32.665 36.4556,31.4983 38.5,31C 38.2716,30.6012 37.9382,30.4346 37.5,30.5C 38.1495,28.5648 38.4828,26.5648 38.5,24.5C 36.5,24.5 34.5,24.5 32.5,24.5C 32.1583,23.6618 31.4916,23.3284 30.5,23.5C 30.5,23.1667 30.5,22.8333 30.5,22.5C 31.1834,20.8235 32.5168,20.1568 34.5,20.5 Z"/></g>
<g><path style="opacity:1" fill="#121008" d="M 19.5,26.5 C 19.8333,26.5 20.1667,26.5 20.5,26.5C 21.5,26.5 22.5,26.5 23.5,26.5C 24.3414,28.3792 24.6747,30.3792 24.5,32.5C 21.0512,32.6241 19.0512,30.9574 18.5,27.5C 18.5,26.8333 18.8333,26.5 19.5,26.5 Z"/></g>
<g><path style="opacity:1" fill="#5e5456" d="M 23.5,26.5 C 24.5,26.5 25.5,26.5 26.5,26.5C 27.1495,28.4352 27.4828,30.4352 27.5,32.5C 26.2209,33.968 24.5542,34.6347 22.5,34.5C 23.1667,33.8333 23.8333,33.1667 24.5,32.5C 24.6747,30.3792 24.3414,28.3792 23.5,26.5 Z"/></g>
<g><path style="opacity:1" fill="#9d9690" d="M 18.5,27.5 C 19.0512,30.9574 21.0512,32.6241 24.5,32.5C 23.8333,33.1667 23.1667,33.8333 22.5,34.5C 22.1583,35.3382 21.4916,35.6716 20.5,35.5C 18.841,34.1658 17.5076,32.4992 16.5,30.5C 16.4534,28.9623 17.1201,27.9623 18.5,27.5 Z"/></g>
<g><path style="opacity:1" fill="#d3b818" d="M 20.5,36.5 C 24.1988,37.41 27.8655,37.41 31.5,36.5C 33.6175,36.7602 35.2842,37.7602 36.5,39.5C 34.2819,41.7763 31.6152,43.2763 28.5,44C 29.1667,44.3333 29.8333,44.6667 30.5,45C 28.6547,46.128 26.6547,46.628 24.5,46.5C 23.8333,46.5 23.1667,46.5 22.5,46.5C 21.1466,44.8173 19.4799,43.4839 17.5,42.5C 17.1667,42.5 16.8333,42.5 16.5,42.5C 15.8333,41.1667 15.1667,39.8333 14.5,38.5C 14.3433,37.1266 14.51,35.7932 15,34.5C 16.4007,36.1922 18.2341,36.8588 20.5,36.5 Z"/></g>
<g><path style="opacity:1" fill="#908b84" d="M 48.5,39.5 C 50.6802,44.2218 49.3469,47.5551 44.5,49.5C 43.5481,47.9547 43.2148,46.288 43.5,44.5C 45.9113,43.483 47.578,41.8163 48.5,39.5 Z"/></g>
<g><path style="opacity:1" fill="#c0bdbc" d="M 16.5,42.5 C 16.8333,42.5 17.1667,42.5 17.5,42.5C 17.6816,46.2161 19.3483,48.8827 22.5,50.5C 22.2172,51.2891 21.7172,51.9558 21,52.5C 19.5587,51.13 17.892,50.13 16,49.5C 15.4436,47.1152 15.6103,44.7819 16.5,42.5 Z"/></g>
<g><path style="opacity:1" fill="#998e72" d="M 17.5,42.5 C 19.4799,43.4839 21.1466,44.8173 22.5,46.5C 21.6457,47.6316 21.6457,48.965 22.5,50.5C 19.3483,48.8827 17.6816,46.2161 17.5,42.5 Z"/></g>
<g><path style="opacity:1" fill="#48443a" d="M 38.5,47.5 C 39.3235,49.4546 39.4901,51.4546 39,53.5C 38.2753,54.0585 37.4419,54.3918 36.5,54.5C 34.4682,53.4493 33.1348,51.7827 32.5,49.5C 31.6433,50.7357 30.9766,52.069 30.5,53.5C 25.7329,54.8987 24.3996,53.232 26.5,48.5C 30.5662,48.693 34.5662,48.3597 38.5,47.5 Z"/></g>
</svg>
