<?xml version="1.0" encoding="UTF-8"?>
<!DOCTYPE svg PUBLIC "-//W3C//DTD SVG 1.1//EN" "http://www.w3.org/Graphics/SVG/1.1/DTD/svg11.dtd">
<svg xmlns="http://www.w3.org/2000/svg" version="1.1" width="64px" height="64px" style="shape-rendering:geometricPrecision; text-rendering:geometricPrecision; image-rendering:optimizeQuality; fill-rule:evenodd; clip-rule:evenodd" xmlns:xlink="http://www.w3.org/1999/xlink">
<g><path style="opacity:0.994" fill="#040404" d="M 25.5,-0.5 C 29.5,-0.5 33.5,-0.5 37.5,-0.5C 51.1667,3.16667 59.8333,11.8333 63.5,25.5C 63.5,29.5 63.5,33.5 63.5,37.5C 59.8333,51.1667 51.1667,59.8333 37.5,63.5C 33.5,63.5 29.5,63.5 25.5,63.5C 11.8333,59.8333 3.16667,51.1667 -0.5,37.5C -0.5,33.5 -0.5,29.5 -0.5,25.5C 3.16667,11.8333 11.8333,3.16667 25.5,-0.5 Z"/></g>
<g><path style="opacity:1" fill="#f4f4f4" d="M 26.5,4.5 C 48.31,4.14272 58.81,14.8094 58,36.5C 51.1034,56.0314 37.9368,62.1981 18.5,55C 4.6133,44.8641 1.44663,32.0308 9,16.5C 11.5,14 14,11.5 16.5,9C 19.8932,7.37997 23.2265,5.87997 26.5,4.5 Z"/></g>
<g><path style="opacity:1" fill="#020202" d="M 28.5,6.5 C 44.2925,6.95893 53.6259,14.9589 56.5,30.5C 52.924,52.2912 40.5907,59.7912 19.5,53C 6.85133,43.6634 4.01799,31.83 11,17.5C 15.5938,11.632 21.4271,7.96537 28.5,6.5 Z"/></g>
<g><path style="opacity:1" fill="#f8f8f8" d="M 23.5,40.5 C 26.5768,38.6318 29.9102,37.2985 33.5,36.5C 37.3678,36.5996 40.0345,38.4329 41.5,42C 40.6667,42.8333 39.8333,43.6667 39,44.5C 37.9377,41.9357 36.1044,40.269 33.5,39.5C 30.2216,40.9427 27.055,42.6094 24,44.5C 20.9854,43.6411 20.8188,42.3078 23.5,40.5 Z"/></g>
<g><path style="opacity:1" fill="#f8f8f8" d="M 41.5,21.5 C 42.6266,22.1217 43.6266,22.955 44.5,24C 41.9357,25.0623 40.269,26.8956 39.5,29.5C 40.9427,32.7784 42.6094,35.945 44.5,39C 44.3699,40.0588 43.8699,40.8921 43,41.5C 40.0315,37.8938 37.8648,33.8938 36.5,29.5C 36.6724,25.8072 38.3391,23.1406 41.5,21.5 Z"/></g>
<g><path style="opacity:1" fill="#f9f9f9" d="M 23.5,40.5 C 21.6579,42.0337 20.3246,41.7003 19.5,39.5C 21.2611,37.7475 22.5944,35.7475 23.5,33.5C 22.2728,30.2685 20.6061,27.2685 18.5,24.5C 19,23.5 19.5,22.5 20,21.5C 22.2481,24.328 24.2481,27.328 26,30.5C 26.9761,34.327 26.1428,37.6604 23.5,40.5 Z"/></g>
<g><path style="opacity:1" fill="#f5f5f5" d="M 23.5,18.5 C 24.8724,20.8685 26.8724,22.5351 29.5,23.5C 32.7247,21.9707 35.8914,20.304 39,18.5C 40.0588,18.6301 40.8921,19.1301 41.5,20C 37.8938,22.9685 33.8938,25.1352 29.5,26.5C 25.4057,26.406 22.7391,24.406 21.5,20.5C 22.2427,19.8182 22.9094,19.1515 23.5,18.5 Z"/></g>
</svg>
