<?xml version="1.0" encoding="UTF-8"?>
<!DOCTYPE svg PUBLIC "-//W3C//DTD SVG 1.1//EN" "http://www.w3.org/Graphics/SVG/1.1/DTD/svg11.dtd">
<svg xmlns="http://www.w3.org/2000/svg" version="1.1" width="640px" height="640px" style="shape-rendering:geometricPrecision; text-rendering:geometricPrecision; image-rendering:optimizeQuality; fill-rule:evenodd; clip-rule:evenodd" xmlns:xlink="http://www.w3.org/1999/xlink">
<g><path style="opacity:0.975" fill="#39b449" d="M 293.5,-0.5 C 310.833,-0.5 328.167,-0.5 345.5,-0.5C 426.979,7.40842 495.979,40.7418 552.5,99.5C 526.84,100.666 501.173,100.833 475.5,100C 405.377,52.0456 329.043,38.7123 246.5,60C 166.563,84.7138 108.73,134.88 73,210.5C 48.2794,268.217 43.6128,327.551 59,388.5C 60.8662,395.265 63.0329,401.932 65.5,408.5C 47.5,409.833 29.5,409.833 11.5,408.5C 5.67427,387.711 1.67427,366.711 -0.5,345.5C -0.5,328.167 -0.5,310.833 -0.5,293.5C 10.9918,186.595 61.6585,104.095 151.5,46C 195.331,19.556 242.664,4.056 293.5,-0.5 Z"/></g>
<g><path style="opacity:0.99" fill="#39b449" d="M 319.5,129.5 C 405.836,129.167 492.169,129.5 578.5,130.5C 594.29,152.076 606.957,175.409 616.5,200.5C 581.165,200.333 545.832,200.5 510.5,201C 504.57,202.922 499.737,206.422 496,211.5C 436.333,297.167 376.667,382.833 317,468.5C 298.708,490.901 275.208,504.401 246.5,509C 184.497,509.833 122.497,509.667 60.5,508.5C 45.2704,487.385 32.6037,464.718 22.5,440.5C 70.5131,439.934 118.513,439.1 166.5,438C 189.697,433.789 207.863,421.955 221,402.5C 264.277,339.557 307.944,276.891 352,214.5C 360.917,198.654 360.583,182.988 351,167.5C 340.265,154.941 329.765,142.274 319.5,129.5 Z"/></g>
<g><path style="opacity:0.977" fill="#39b449" d="M 639.5,293.5 C 639.5,310.833 639.5,328.167 639.5,345.5C 628.008,452.405 577.342,534.905 487.5,593C 443.669,619.444 396.336,634.944 345.5,639.5C 328.167,639.5 310.833,639.5 293.5,639.5C 212.234,631.532 143.234,598.365 86.5,540C 112.5,539.333 138.5,539.333 164.5,540C 247.848,594.815 335.848,603.482 428.5,566C 513.842,525.189 566.009,458.355 585,365.5C 592.856,319.473 589.023,274.473 573.5,230.5C 591.5,229.167 609.5,229.167 627.5,230.5C 633.326,251.289 637.326,272.289 639.5,293.5 Z"/></g>
<g><path style="opacity:0.975" fill="#39b449" d="M 419.5,419.5 C 447.476,416.222 465.643,427.889 474,454.5C 477.765,482.494 466.265,500.661 439.5,509C 411.506,512.765 393.339,501.265 385,474.5C 381.356,446.42 392.856,428.087 419.5,419.5 Z"/></g>
</svg>
