<?xml version="1.0" encoding="UTF-8"?>
<!DOCTYPE svg PUBLIC "-//W3C//DTD SVG 1.1//EN" "http://www.w3.org/Graphics/SVG/1.1/DTD/svg11.dtd">
<svg xmlns="http://www.w3.org/2000/svg" version="1.1" width="64px" height="64px" style="shape-rendering:geometricPrecision; text-rendering:geometricPrecision; image-rendering:optimizeQuality; fill-rule:evenodd; clip-rule:evenodd" xmlns:xlink="http://www.w3.org/1999/xlink">
<g><path style="opacity:0.989" fill="#70c9bb" d="M 63.5,28.5 C 63.5,30.5 63.5,32.5 63.5,34.5C 59.2297,50.7737 48.8964,60.4404 32.5,63.5C 31.5,63.5 30.5,63.5 29.5,63.5C 24.2992,62.5958 19.2992,60.7625 14.5,58C 11.2961,53.8333 7.79615,50 4,46.5C -5.11971,26.591 0.0469562,11.7577 19.5,2C 42.8545,-3.16946 57.5212,5.66388 63.5,28.5 Z M 37.5,13.5 C 38.4959,13.4142 39.3292,13.7476 40,14.5C 40.7792,20.0083 41.6125,25.5083 42.5,31C 41.7599,36.5143 40.9265,42.0143 40,47.5C 37.9592,48.4231 35.7925,48.7564 33.5,48.5C 34.057,44.8255 34.7237,41.1588 35.5,37.5C 35.1667,36.8333 34.8333,36.1667 34.5,35.5C 30.1667,38.8333 25.8333,42.1667 21.5,45.5C 20.3523,43.8513 19.019,42.3513 17.5,41C 21.5,37.6667 25.5,34.3333 29.5,31C 25.2171,28.3847 21.2171,25.3847 17.5,22C 18.7256,20.3651 20.059,18.8651 21.5,17.5C 26.0891,20.7114 30.5891,24.0447 35,27.5C 34.9436,23.1507 34.4436,18.8173 33.5,14.5C 35.099,14.7678 36.4324,14.4345 37.5,13.5 Z"/></g>
</svg>
