<?xml version="1.0" encoding="UTF-8"?>
<!DOCTYPE svg PUBLIC "-//W3C//DTD SVG 1.1//EN" "http://www.w3.org/Graphics/SVG/1.1/DTD/svg11.dtd">
<svg xmlns="http://www.w3.org/2000/svg" version="1.1" width="64px" height="64px" style="shape-rendering:geometricPrecision; text-rendering:geometricPrecision; image-rendering:optimizeQuality; fill-rule:evenodd; clip-rule:evenodd" xmlns:xlink="http://www.w3.org/1999/xlink">
<g><path style="opacity:1" fill="#2f3236" d="M 24.5,-0.5 C 29.1667,-0.5 33.8333,-0.5 38.5,-0.5C 51.5979,3.5977 59.9313,12.2644 63.5,25.5C 63.5,29.5 63.5,33.5 63.5,37.5C 59.9313,50.7356 51.5979,59.4023 38.5,63.5C 33.8333,63.5 29.1667,63.5 24.5,63.5C 11.4021,59.4023 3.06875,50.7356 -0.5,37.5C -0.5,33.5 -0.5,29.5 -0.5,25.5C 3.06875,12.2644 11.4021,3.5977 24.5,-0.5 Z"/></g>
<g><path style="opacity:1" fill="#fbfbfb" d="M 47.5,10.5 C 35.1667,22.5 22.8333,34.5 10.5,46.5C 17.2764,33.8864 24.2764,21.3864 31.5,9C 37.5,8.33333 43.5,8.33333 49.5,9C 48.9558,9.71719 48.2891,10.2172 47.5,10.5 Z"/></g>
<g><path style="opacity:1" fill="#afb4be" d="M 47.5,10.5 C 40.3687,23.2626 33.3687,36.0959 26.5,49C 20.4724,49.8303 14.4724,49.6636 8.5,48.5C 8.85549,47.4777 9.52216,46.811 10.5,46.5C 22.8333,34.5 35.1667,22.5 47.5,10.5 Z"/></g>
<g><path style="opacity:1" fill="#59a700" d="M 43.5,30.5 C 44.0846,36.8429 44.7512,43.1763 45.5,49.5C 40.8215,49.6658 36.1548,49.4992 31.5,49C 35.0816,41.8531 39.0816,35.6864 43.5,30.5 Z"/></g>
<g><path style="opacity:1" fill="#7edd00" d="M 43.5,30.5 C 47.3033,36.4966 50.97,42.6632 54.5,49C 51.5184,49.498 48.5184,49.6646 45.5,49.5C 44.7512,43.1763 44.0846,36.8429 43.5,30.5 Z"/></g>
</svg>
