<?xml version="1.0" encoding="UTF-8"?>
<!DOCTYPE svg PUBLIC "-//W3C//DTD SVG 1.1//EN" "http://www.w3.org/Graphics/SVG/1.1/DTD/svg11.dtd">
<svg xmlns="http://www.w3.org/2000/svg" version="1.1" width="320px" height="320px" style="shape-rendering:geometricPrecision; text-rendering:geometricPrecision; image-rendering:optimizeQuality; fill-rule:evenodd; clip-rule:evenodd" xmlns:xlink="http://www.w3.org/1999/xlink">
<g><path style="opacity:0.996" fill="#7eb5ff" d="M 177.5,-0.5 C 178.167,-0.5 178.833,-0.5 179.5,-0.5C 183.782,2.28003 187.616,5.61336 191,9.5C 194.046,12.9907 196.213,16.9907 197.5,21.5C 197.662,23.5273 197.495,25.5273 197,27.5C 196.667,26.8333 196.333,26.1667 196,25.5C 133.167,82.3333 70.3333,139.167 7.5,196C 9.74397,197.888 9.74397,199.388 7.5,200.5C 3.78922,196.41 1.12255,191.743 -0.5,186.5C -0.5,181.167 -0.5,175.833 -0.5,170.5C 0.531006,168.039 1.19767,165.373 1.5,162.5C 3.0195,159.722 4.68617,157.055 6.5,154.5C 64.2316,102.726 121.232,51.0592 177.5,-0.5 Z"/></g>
<g><path style="opacity:0.997" fill="#77adfe" d="M 197.5,21.5 C 201.424,28.4432 202.424,35.7766 200.5,43.5C 198.373,44.3976 197.206,46.0643 197,48.5C 196.667,47.5 196.333,46.5 196,45.5C 136.887,99.293 77.7201,152.96 18.5,206.5C 17.675,207.386 16.675,207.719 15.5,207.5C 12.8333,205.5 10.1667,203.5 7.5,201.5C 7.5,201.167 7.5,200.833 7.5,200.5C 9.74397,199.388 9.74397,197.888 7.5,196C 70.3333,139.167 133.167,82.3333 196,25.5C 196.333,26.1667 196.667,26.8333 197,27.5C 197.495,25.5273 197.662,23.5273 197.5,21.5 Z"/></g>
<g><path style="opacity:0.942" fill="#72a6fe" d="M 200.5,43.5 C 198.895,49.3766 196.228,54.7099 192.5,59.5C 135.323,111.196 78.156,162.53 21,213.5C 20.5776,211.574 19.4109,210.574 17.5,210.5C 16.8333,209.5 16.1667,208.5 15.5,207.5C 16.675,207.719 17.675,207.386 18.5,206.5C 77.7201,152.96 136.887,99.293 196,45.5C 196.333,46.5 196.667,47.5 197,48.5C 197.206,46.0643 198.373,44.3976 200.5,43.5 Z"/></g>
<g><path style="opacity:0.994" fill="#5f8dfd" d="M 247.5,61.5 C 185.983,116.465 124.15,172.132 62,228.5C 61.6667,231.167 61.3333,233.833 61,236.5C 60.6936,231.962 59.8603,231.629 58.5,235.5C 57.6428,230.941 57.9761,226.274 59.5,221.5C 61.3498,216.467 63.6832,211.8 66.5,207.5C 123.413,155.933 180.746,104.599 238.5,53.5C 242.22,55.4996 245.22,58.1663 247.5,61.5 Z"/></g>
<g><path style="opacity:0.004" fill="#00fffe" d="M 192.5,59.5 C 193.833,60.1667 193.833,60.1667 192.5,59.5 Z"/></g>
<g><path style="opacity:0.997" fill="#5986fc" d="M 247.5,61.5 C 249.48,62.4839 251.147,63.8173 252.5,65.5C 252.833,66.8333 253.167,68.1667 253.5,69.5C 202.686,114.439 151.686,159.939 100.5,206C 87.4873,218.069 74.654,230.236 62,242.5C 61.6667,241.167 61.3333,239.833 61,238.5C 60.3292,239.252 59.4959,239.586 58.5,239.5C 58.5,238.167 58.5,236.833 58.5,235.5C 59.8603,231.629 60.6936,231.962 61,236.5C 61.3333,233.833 61.6667,231.167 62,228.5C 124.15,172.132 185.983,116.465 247.5,61.5 Z"/></g>
<g><path style="opacity:0.004" fill="#0000ff" d="M 252.5,64.5 C 253.833,65.1667 253.833,65.1667 252.5,64.5 Z"/></g>
<g><path style="opacity:0.995" fill="#537ffc" d="M 253.5,69.5 C 256.14,71.4229 257.807,74.0896 258.5,77.5C 194.916,134.576 131.416,191.909 68,249.5C 68.7712,251.18 68.6045,252.847 67.5,254.5C 63.2435,250.332 60.2435,245.332 58.5,239.5C 59.4959,239.586 60.3292,239.252 61,238.5C 61.3333,239.833 61.6667,241.167 62,242.5C 74.654,230.236 87.4873,218.069 100.5,206C 151.686,159.939 202.686,114.439 253.5,69.5 Z"/></g>
<g><path style="opacity:0.997" fill="#4e79fc" d="M 258.5,77.5 C 260.462,82.2633 261.462,87.2633 261.5,92.5C 260.732,91.7375 260.232,90.7375 260,89.5C 201.81,141.36 141.976,194.86 80.5,250C 77.2463,252.747 74.5797,255.914 72.5,259.5C 70.6115,258.396 68.9448,257.063 67.5,255.5C 67.5,255.167 67.5,254.833 67.5,254.5C 68.6045,252.847 68.7712,251.18 68,249.5C 131.416,191.909 194.916,134.576 258.5,77.5 Z"/></g>
<g><path style="opacity:0.996" fill="#4872fb" d="M 261.5,92.5 C 260.002,99.3282 257.335,105.662 253.5,111.5C 197.629,162.76 140.962,213.927 83.5,265C 81.4546,265.49 79.4546,265.323 77.5,264.5C 76.027,262.605 74.3603,260.939 72.5,259.5C 74.5797,255.914 77.2463,252.747 80.5,250C 141.976,194.86 201.81,141.36 260,89.5C 260.232,90.7375 260.732,91.7375 261.5,92.5 Z"/></g>
<g><path style="opacity:0.004" fill="#0000ff" d="M 253.5,111.5 C 254.833,112.167 254.833,112.167 253.5,111.5 Z"/></g>
<g><path style="opacity:0.993" fill="#3256fa" d="M 308.5,116.5 C 307.457,119.056 305.79,121.223 303.5,123C 243,177.5 182.5,232 122,286.5C 121.295,289.476 120.129,292.142 118.5,294.5C 116.273,283.865 117.939,273.865 123.5,264.5C 142.017,247.482 160.684,230.648 179.5,214C 180.883,212.729 181.883,211.229 182.5,209.5C 185.268,207.913 187.935,206.08 190.5,204C 191.305,202.887 191.972,201.721 192.5,200.5C 195.268,198.913 197.935,197.08 200.5,195C 201.305,193.887 201.972,192.721 202.5,191.5C 205.268,189.913 207.935,188.08 210.5,186C 211.305,184.887 211.972,183.721 212.5,182.5C 215.268,180.913 217.935,179.08 220.5,177C 245.405,153.773 270.739,130.773 296.5,108C 298.289,107.48 299.956,107.813 301.5,109C 304.717,110.715 307.05,113.215 308.5,116.5 Z"/></g>
<g><path style="opacity:1" fill="#2b4df9" d="M 308.5,116.5 C 311.154,119.165 313.487,122.165 315.5,125.5C 252.477,182.371 187.81,240.371 121.5,299.5C 120.36,297.955 119.36,296.288 118.5,294.5C 120.129,292.142 121.295,289.476 122,286.5C 182.5,232 243,177.5 303.5,123C 305.79,121.223 307.457,119.056 308.5,116.5 Z"/></g>
<g><path style="opacity:0.999" fill="#2647f8" d="M 315.5,125.5 C 317.302,128.574 318.302,131.908 318.5,135.5C 256.735,191.013 194.068,247.18 130.5,304C 129.53,305.68 128.53,307.18 127.5,308.5C 127.167,308.5 126.833,308.5 126.5,308.5C 124.06,305.957 122.394,302.957 121.5,299.5C 187.81,240.371 252.477,182.371 315.5,125.5 Z"/></g>
<g><path style="opacity:0.998" fill="#2141f8" d="M 318.5,135.5 C 318.833,135.5 319.167,135.5 319.5,135.5C 319.5,139.5 319.5,143.5 319.5,147.5C 318.85,147.196 318.183,146.863 317.5,146.5C 315.405,150.099 312.738,153.266 309.5,156C 251.868,207.297 194.535,258.963 137.5,311C 135.497,311.335 133.83,312.168 132.5,313.5C 130.167,312.5 128.5,310.833 127.5,308.5C 128.53,307.18 129.53,305.68 130.5,304C 194.068,247.18 256.735,191.013 318.5,135.5 Z"/></g>
<g><path style="opacity:0.989" fill="#1c3af8" d="M 319.5,147.5 C 319.5,149.167 319.5,150.833 319.5,152.5C 318.048,156.159 316.381,159.825 314.5,163.5C 310.146,167.188 306.146,171.188 302.5,175.5C 280.56,194.769 258.893,214.436 237.5,234.5C 233.544,236.788 230.211,239.788 227.5,243.5C 223.544,245.788 220.211,248.788 217.5,252.5C 213.544,254.788 210.211,257.788 207.5,261.5C 203.544,263.788 200.211,266.788 197.5,270.5C 196.833,270.5 196.5,270.833 196.5,271.5C 192.9,273.43 189.9,276.097 187.5,279.5C 186.833,279.5 186.5,279.833 186.5,280.5C 182.9,282.43 179.9,285.097 177.5,288.5C 176.833,288.5 176.5,288.833 176.5,289.5C 172.9,291.43 169.9,294.097 167.5,297.5C 166.833,297.5 166.5,297.833 166.5,298.5C 162.9,300.43 159.9,303.097 157.5,306.5C 156.833,306.5 156.5,306.833 156.5,307.5C 152.9,309.43 149.9,312.097 147.5,315.5C 146.833,315.5 146.5,315.833 146.5,316.5C 144.596,316.738 143.262,317.738 142.5,319.5C 141.167,319.5 139.833,319.5 138.5,319.5C 138.167,318.5 137.5,317.833 136.5,317.5C 135.167,316.167 133.833,314.833 132.5,313.5C 133.83,312.168 135.497,311.335 137.5,311C 194.535,258.963 251.868,207.297 309.5,156C 312.738,153.266 315.405,150.099 317.5,146.5C 318.183,146.863 318.85,147.196 319.5,147.5 Z"/></g>
<g><path style="opacity:0.004" fill="#00fffe" d="M 6.5,154.5 C 5.83333,153.167 5.83333,153.167 6.5,154.5 Z"/></g>
<g><path style="opacity:0.004" fill="#0000ff" d="M 1.5,162.5 C 0.833333,161.167 0.833333,161.167 1.5,162.5 Z"/></g>
<g><path style="opacity:0.004" fill="#0000ff" d="M 302.5,175.5 C 303.833,176.167 303.833,176.167 302.5,175.5 Z"/></g>
<g><path style="opacity:0.004" fill="#0000ff" d="M 212.5,182.5 C 211.833,181.167 211.833,181.167 212.5,182.5 Z"/></g>
<g><path style="opacity:0.004" fill="#0000ff" d="M 202.5,191.5 C 201.833,190.167 201.833,190.167 202.5,191.5 Z"/></g>
<g><path style="opacity:0.004" fill="#0000ff" d="M 192.5,200.5 C 191.833,199.167 191.833,199.167 192.5,200.5 Z"/></g>
<g><path style="opacity:0.004" fill="#0000ff" d="M 7.5,201.5 C 6.83333,202.167 6.83333,202.167 7.5,201.5 Z"/></g>
<g><path style="opacity:0.004" fill="#00fffe" d="M 66.5,207.5 C 65.8333,206.167 65.8333,206.167 66.5,207.5 Z"/></g>
<g><path style="opacity:0.004" fill="#000000" d="M 182.5,209.5 C 181.833,208.167 181.833,208.167 182.5,209.5 Z"/></g>
<g><path style="opacity:0.004" fill="#00fffe" d="M 17.5,210.5 C 16.8333,211.167 16.8333,211.167 17.5,210.5 Z"/></g>
<g><path style="opacity:0.004" fill="#000000" d="M 237.5,234.5 C 238.833,235.167 238.833,235.167 237.5,234.5 Z"/></g>
<g><path style="opacity:0.004" fill="#0000ff" d="M 227.5,243.5 C 228.833,244.167 228.833,244.167 227.5,243.5 Z"/></g>
<g><path style="opacity:0.004" fill="#0000ff" d="M 217.5,252.5 C 218.833,253.167 218.833,253.167 217.5,252.5 Z"/></g>
<g><path style="opacity:0.004" fill="#0000ff" d="M 67.5,255.5 C 66.8333,256.167 66.8333,256.167 67.5,255.5 Z"/></g>
<g><path style="opacity:0.004" fill="#0000ff" d="M 207.5,261.5 C 208.833,262.167 208.833,262.167 207.5,261.5 Z"/></g>
<g><path style="opacity:0.004" fill="#0000ff" d="M 77.5,264.5 C 76.8333,265.167 76.8333,265.167 77.5,264.5 Z"/></g>
<g><path style="opacity:0.004" fill="#0000ff" d="M 197.5,270.5 C 198.833,271.167 198.833,271.167 197.5,270.5 Z"/></g>
<g><path style="opacity:0.004" fill="#000000" d="M 196.5,271.5 C 196.833,271.5 197.167,271.5 197.5,271.5C 197.315,272.17 196.981,272.17 196.5,271.5 Z"/></g>
<g><path style="opacity:0.004" fill="#0000ff" d="M 187.5,279.5 C 188.833,280.167 188.833,280.167 187.5,279.5 Z"/></g>
<g><path style="opacity:0.004" fill="#000000" d="M 186.5,280.5 C 186.833,280.5 187.167,280.5 187.5,280.5C 187.315,281.17 186.981,281.17 186.5,280.5 Z"/></g>
<g><path style="opacity:0.004" fill="#0000ff" d="M 177.5,288.5 C 178.833,289.167 178.833,289.167 177.5,288.5 Z"/></g>
<g><path style="opacity:0.004" fill="#000000" d="M 176.5,289.5 C 176.833,289.5 177.167,289.5 177.5,289.5C 177.315,290.17 176.981,290.17 176.5,289.5 Z"/></g>
<g><path style="opacity:0.004" fill="#0000ff" d="M 167.5,297.5 C 168.833,298.167 168.833,298.167 167.5,297.5 Z"/></g>
<g><path style="opacity:0.004" fill="#000000" d="M 166.5,298.5 C 166.833,298.5 167.167,298.5 167.5,298.5C 167.315,299.17 166.981,299.17 166.5,298.5 Z"/></g>
<g><path style="opacity:0.004" fill="#0000ff" d="M 157.5,306.5 C 158.833,307.167 158.833,307.167 157.5,306.5 Z"/></g>
<g><path style="opacity:0.004" fill="#000000" d="M 156.5,307.5 C 156.833,307.5 157.167,307.5 157.5,307.5C 157.315,308.17 156.981,308.17 156.5,307.5 Z"/></g>
<g><path style="opacity:0.004" fill="#0000ff" d="M 126.5,308.5 C 125.833,309.167 125.833,309.167 126.5,308.5 Z"/></g>
<g><path style="opacity:0.004" fill="#0000ff" d="M 147.5,315.5 C 148.833,316.167 148.833,316.167 147.5,315.5 Z"/></g>
<g><path style="opacity:0.004" fill="#000000" d="M 146.5,316.5 C 146.833,316.5 147.167,316.5 147.5,316.5C 147.315,317.17 146.981,317.17 146.5,316.5 Z"/></g>
<g><path style="opacity:0.004" fill="#0000ff" d="M 136.5,317.5 C 135.833,318.167 135.833,318.167 136.5,317.5 Z"/></g>
</svg>
