<!-- by TradingView --><svg width="56" height="56" viewBox="0 0 56 56" xmlns="http://www.w3.org/2000/svg"><path fill="#F0F3FA" d="M0 0h56v56H0z"/><circle cx="28" cy="28" r="16" fill="#F2E373"/><path d="M33 8c-1.34 2-3.93 3.39-5.72 4.01A16 16 0 0 0 12.2 30.53c1.44 4.4 4.43 7.4 8.55 7.63 4.3.25 8.49-1.29 10.45-6.02 1.58-3.8 4.36-4.91 5.55-5.14H46l-2.25-1.6c-3.33-2.85-8.48-2.53-9.84-1.35a7.4 7.4 0 0 1-4.18 1.76c-5.11 0-5.56-3.87-5.56-4.78v-.1c-.01-1.04-.03-4.03 4.77-5.64a6.18 6.18 0 0 0 3.54-2.66h-.01c1.02-1.58.8-3.8.53-4.63Z" fill="url(#apdnqsq1l)"/><path d="M41.08 37.22a16 16 0 0 1-28.82-6.37c.97 2.84 3.85 7.41 9.22 7.31 5.83-.1 8.72-3.74 9.5-5.76.79-2 2.75-4.68 5.75-5.4-1.23.76-3.47 2.85-3.24 5.4.27 3.11 2.78 5.17 7.59 4.82Z" fill="url(#bpdnqsq1l)"/><defs><linearGradient id="apdnqsq1l" x1="19.2" y1="12.86" x2="35.7" y2="29.59" gradientUnits="userSpaceOnUse"><stop stop-color="#F5C859"/><stop offset="1" stop-color="#DE3633"/></linearGradient><linearGradient id="bpdnqsq1l" x1="22.38" y1="34.18" x2="28.05" y2="44.09" gradientUnits="userSpaceOnUse"><stop stop-color="#F3BE56"/><stop offset="1" stop-color="#E04437"/></linearGradient></defs></svg>