<?xml version="1.0" encoding="UTF-8"?>
<!DOCTYPE svg PUBLIC "-//W3C//DTD SVG 1.1//EN" "http://www.w3.org/Graphics/SVG/1.1/DTD/svg11.dtd">
<svg xmlns="http://www.w3.org/2000/svg" version="1.1" width="64px" height="64px" style="shape-rendering:geometricPrecision; text-rendering:geometricPrecision; image-rendering:optimizeQuality; fill-rule:evenodd; clip-rule:evenodd" xmlns:xlink="http://www.w3.org/1999/xlink">
<g><path style="opacity:1" fill="#dc2626" d="M -0.5,-0.5 C 20.8333,-0.5 42.1667,-0.5 63.5,-0.5C 63.5,20.8333 63.5,42.1667 63.5,63.5C 42.1667,63.5 20.8333,63.5 -0.5,63.5C -0.5,42.1667 -0.5,20.8333 -0.5,-0.5 Z"/></g>
<g><path style="opacity:1" fill="#fef5ef" d="M 23.5,12.5 C 24.3414,15.4751 26.0081,17.9751 28.5,20C 25.9057,21.339 24.4057,23.5056 24,26.5C 24.3794,22.8777 22.8794,20.711 19.5,20C 22.9414,18.6816 24.2747,16.1816 23.5,12.5 Z"/></g>
<g><path style="opacity:1" fill="#fefaf4" d="M 36.5,11.5 C 37.6491,11.7911 38.3158,12.6244 38.5,14C 39.1833,18.2514 40.1833,22.418 41.5,26.5C 44.1636,28.7255 47.1636,30.3922 50.5,31.5C 47.1636,32.6078 44.1636,34.2745 41.5,36.5C 40.1666,41.5003 38.8333,46.5003 37.5,51.5C 36.1667,46.5003 34.8334,41.5003 33.5,36.5C 30.8364,34.2745 27.8364,32.6078 24.5,31.5C 27.8364,30.3922 30.8364,28.7255 33.5,26.5C 35.1413,21.6267 36.1413,16.6267 36.5,11.5 Z"/></g>
<g><path style="opacity:1" fill="#fef6f0" d="M 17.5,31.5 C 19.0109,33.4758 19.8442,35.8091 20,38.5C 21.4194,39.4601 22.9194,40.2935 24.5,41C 22.9194,41.7065 21.4194,42.5399 20,43.5C 19.7105,45.9519 19.0438,48.2852 18,50.5C 18.3475,45.457 16.1808,42.2904 11.5,41C 13.0249,39.9914 14.6916,39.4914 16.5,39.5C 17.0916,36.8728 17.4249,34.2062 17.5,31.5 Z"/></g>
</svg>
