<?xml version="1.0" encoding="UTF-8"?>
<!DOCTYPE svg PUBLIC "-//W3C//DTD SVG 1.1//EN" "http://www.w3.org/Graphics/SVG/1.1/DTD/svg11.dtd">
<svg xmlns="http://www.w3.org/2000/svg" version="1.1" width="64px" height="64px" style="shape-rendering:geometricPrecision; text-rendering:geometricPrecision; image-rendering:optimizeQuality; fill-rule:evenodd; clip-rule:evenodd" xmlns:xlink="http://www.w3.org/1999/xlink">
<g><path style="opacity:1" fill="#110f1c" d="M 34.5,-0.5 C 44.1667,-0.5 53.8333,-0.5 63.5,-0.5C 63.5,4.16667 63.5,8.83333 63.5,13.5C 61.5336,12.5588 59.5336,11.5588 57.5,10.5C 57.0894,11.2624 56.9227,12.2624 57,13.5C 55.4293,11.0771 53.2626,9.74381 50.5,9.5C 50.1412,7.62901 49.1412,6.12901 47.5,5C 43.2983,2.66118 38.965,0.827849 34.5,-0.5 Z"/></g>
<g><path style="opacity:1" fill="#0a111a" d="M -0.5,-0.5 C 7.16667,-0.5 14.8333,-0.5 22.5,-0.5C 18.2172,2.85107 13.5505,5.85107 8.5,8.5C 6.84293,12.7804 4.84293,16.7804 2.5,20.5C 1.14294,21.5903 0.142944,22.9236 -0.5,24.5C -0.5,16.1667 -0.5,7.83333 -0.5,-0.5 Z"/></g>
<g><path style="opacity:1" fill="#191d27" d="M 22.5,-0.5 C 26.5,-0.5 30.5,-0.5 34.5,-0.5C 38.965,0.827849 43.2983,2.66118 47.5,5C 49.1412,6.12901 50.1412,7.62901 50.5,9.5C 50.5,9.83333 50.5,10.1667 50.5,10.5C 47.3427,8.82576 44.3427,6.99243 41.5,5C 27.0148,1.99002 15.3481,6.15669 6.5,17.5C 5.35556,19.1002 4.18889,20.7669 3,22.5C 2.53566,21.9056 2.36899,21.2389 2.5,20.5C 4.84293,16.7804 6.84293,12.7804 8.5,8.5C 13.5505,5.85107 18.2172,2.85107 22.5,-0.5 Z"/></g>
<g><path style="opacity:1" fill="#333b4e" d="M 50.5,10.5 C 52.1558,13.1386 53.8224,15.8053 55.5,18.5C 55.1373,19.1835 54.8039,19.8501 54.5,20.5C 45.6082,6.77338 33.6082,3.27338 18.5,10C 12.3222,14.3437 8.32225,20.177 6.5,27.5C 5.25025,27.5774 4.41691,28.244 4,29.5C 3.83333,29 3.66667,28.5 3.5,28C 4.42882,24.4471 5.42882,20.9471 6.5,17.5C 15.3481,6.15669 27.0148,1.99002 41.5,5C 44.3427,6.99243 47.3427,8.82576 50.5,10.5 Z"/></g>
<g><path style="opacity:1" fill="#010101" d="M 54.5,20.5 C 56.0869,25.6972 56.7536,31.0305 56.5,36.5C 49.5585,54.7982 36.8918,60.2982 18.5,53C 9.84024,47.1797 5.84024,39.013 6.5,28.5C 6.5,28.1667 6.5,27.8333 6.5,27.5C 8.32225,20.177 12.3222,14.3437 18.5,10C 33.6082,3.27338 45.6082,6.77338 54.5,20.5 Z"/></g>
<g><path style="opacity:1" fill="#11a6e5" d="M 27.5,9.5 C 27.5,10.1667 27.5,10.8333 27.5,11.5C 23.8878,12.6395 20.5544,14.3061 17.5,16.5C 17.5,15.8333 17.5,15.1667 17.5,14.5C 20.2466,11.7933 23.5799,10.1266 27.5,9.5 Z"/></g>
<g><path style="opacity:1" fill="#5e83e7" d="M 27.5,11.5 C 27.5,10.8333 27.5,10.1667 27.5,9.5C 34.6744,8.14824 41.0077,9.98157 46.5,15C 43.5046,14.354 40.5046,13.354 37.5,12C 34.1832,11.5017 30.8499,11.335 27.5,11.5 Z"/></g>
<g><path style="opacity:1" fill="#241325" d="M 50.5,9.5 C 53.2626,9.74381 55.4293,11.0771 57,13.5C 56.9227,12.2624 57.0894,11.2624 57.5,10.5C 59.5336,11.5588 61.5336,12.5588 63.5,13.5C 63.5,17.5 63.5,21.5 63.5,25.5C 62.1751,24.0474 61.3418,24.3808 61,26.5C 60.2904,25.0267 59.1238,24.3601 57.5,24.5C 57.9118,22.0274 56.9118,20.6941 54.5,20.5C 54.8039,19.8501 55.1373,19.1835 55.5,18.5C 53.8224,15.8053 52.1558,13.1386 50.5,10.5C 50.5,10.1667 50.5,9.83333 50.5,9.5 Z"/></g>
<g><path style="opacity:1" fill="#251a29" d="M 6.5,17.5 C 5.42882,20.9471 4.42882,24.4471 3.5,28C 3.66667,28.5 3.83333,29 4,29.5C 4.41691,28.244 5.25025,27.5774 6.5,27.5C 6.5,27.8333 6.5,28.1667 6.5,28.5C 5.41925,31.6267 4.75258,34.9601 4.5,38.5C 4.18999,39.7383 3.68999,39.7383 3,38.5C 2.53566,39.0944 2.36899,39.7611 2.5,40.5C 1.89992,39.0998 0.899922,38.0998 -0.5,37.5C -0.5,33.1667 -0.5,28.8333 -0.5,24.5C 0.142944,22.9236 1.14294,21.5903 2.5,20.5C 2.36899,21.2389 2.53566,21.9056 3,22.5C 4.18889,20.7669 5.35556,19.1002 6.5,17.5 Z"/></g>
<g><path style="opacity:1" fill="#23c2c3" d="M 17.5,14.5 C 17.5,15.1667 17.5,15.8333 17.5,16.5C 10.3517,25.326 9.68506,34.6593 15.5,44.5C 15.5,45.1667 15.5,45.8333 15.5,46.5C 11.0406,42.5685 9.0406,37.5685 9.5,31.5C 9.22327,24.3892 11.8899,18.7225 17.5,14.5 Z"/></g>
<g><path style="opacity:1" fill="#4288f0" d="M 29.5,20.5 C 35.0411,21.6048 39.7077,24.2714 43.5,28.5C 43.5,29.1667 43.5,29.8333 43.5,30.5C 40.7173,28.9335 38.0507,27.1001 35.5,25C 33.6547,23.872 31.6547,23.372 29.5,23.5C 29.5,22.5 29.5,21.5 29.5,20.5 Z"/></g>
<g><path style="opacity:1" fill="#020307" d="M 29.5,23.5 C 31.6547,23.372 33.6547,23.872 35.5,25C 38.0507,27.1001 40.7173,28.9335 43.5,30.5C 43.9175,31.2216 44.5842,31.7216 45.5,32C 43.4546,32.4901 41.4546,32.3235 39.5,31.5C 36.6638,30.0246 33.6638,28.6913 30.5,27.5C 30.032,25.8662 29.032,24.6995 27.5,24C 28.0944,23.5357 28.7611,23.369 29.5,23.5 Z"/></g>
<g><path style="opacity:1" fill="#11a7e3" d="M 25.5,29.5 C 25.5,30.1667 25.5,30.8333 25.5,31.5C 25.0825,32.2216 24.4158,32.7216 23.5,33C 24.056,33.3826 24.3893,33.8826 24.5,34.5C 24.5,35.1667 24.5,35.8333 24.5,36.5C 22.2537,35.7904 19.9204,35.2904 17.5,35C 19.6743,32.4158 22.341,30.5824 25.5,29.5 Z"/></g>
<g><path style="opacity:1" fill="#000000" d="M 39.5,33.5 C 41.9925,34.7736 44.6592,35.4403 47.5,35.5C 48.8583,34.3744 50.1916,34.3744 51.5,35.5C 50.4866,38.1878 49.4866,40.8544 48.5,43.5C 44.9705,47.4334 40.6372,50.1 35.5,51.5C 32.8127,51.6641 30.146,51.4974 27.5,51C 34.3583,46.7754 35.0249,41.7754 29.5,36C 27.9751,34.9914 26.3084,34.4914 24.5,34.5C 24.3893,33.8826 24.056,33.3826 23.5,33C 24.4158,32.7216 25.0825,32.2216 25.5,31.5C 30.3415,30.5379 35.0081,31.2046 39.5,33.5 Z"/></g>
<g><path style="opacity:1" fill="#258ff0" d="M 29.5,20.5 C 29.5,21.5 29.5,22.5 29.5,23.5C 28.7611,23.369 28.0944,23.5357 27.5,24C 29.032,24.6995 30.032,25.8662 30.5,27.5C 33.6638,28.6913 36.6638,30.0246 39.5,31.5C 39.5,32.1667 39.5,32.8333 39.5,33.5C 35.0081,31.2046 30.3415,30.5379 25.5,31.5C 25.5,30.8333 25.5,30.1667 25.5,29.5C 26.7562,29.5386 27.7562,29.0386 28.5,28C 26.6234,25.8942 24.29,24.5609 21.5,24C 23.9124,22.2316 26.5791,21.0649 29.5,20.5 Z"/></g>
<g><path style="opacity:1" fill="#db6cc0" d="M 47.5,29.5 C 49.8234,30.0584 52.1568,30.7251 54.5,31.5C 54.1065,36.9438 52.1065,41.6105 48.5,45.5C 48.5,44.8333 48.5,44.1667 48.5,43.5C 49.4866,40.8544 50.4866,38.1878 51.5,35.5C 50.1916,34.3744 48.8583,34.3744 47.5,35.5C 47.5,33.5 47.5,31.5 47.5,29.5 Z"/></g>
<g><path style="opacity:1" fill="#3c1a33" d="M 54.5,20.5 C 56.9118,20.6941 57.9118,22.0274 57.5,24.5C 59.1238,24.3601 60.2904,25.0267 61,26.5C 61.3418,24.3808 62.1751,24.0474 63.5,25.5C 63.5,27.8333 63.5,30.1667 63.5,32.5C 62.7321,31.7375 62.2321,30.7375 62,29.5C 59.2913,51.8868 46.7913,62.0534 24.5,60C 14.1458,56.8073 6.81242,50.3073 2.5,40.5C 2.36899,39.7611 2.53566,39.0944 3,38.5C 3.68999,39.7383 4.18999,39.7383 4.5,38.5C 13.4281,58.6428 27.7615,63.8095 47.5,54C 53.7867,49.2447 57.2867,43.0781 58,35.5C 57.6174,36.056 57.1174,36.3893 56.5,36.5C 56.7536,31.0305 56.0869,25.6972 54.5,20.5 Z"/></g>
<g><path style="opacity:1" fill="#9375cf" d="M 43.5,28.5 C 44.7079,29.2341 46.0413,29.5674 47.5,29.5C 47.5,31.5 47.5,33.5 47.5,35.5C 44.6592,35.4403 41.9925,34.7736 39.5,33.5C 39.5,32.8333 39.5,32.1667 39.5,31.5C 41.4546,32.3235 43.4546,32.4901 45.5,32C 44.5842,31.7216 43.9175,31.2216 43.5,30.5C 43.5,29.8333 43.5,29.1667 43.5,28.5 Z"/></g>
<g><path style="opacity:1" fill="#5b2a4a" d="M 6.5,28.5 C 5.84024,39.013 9.84024,47.1797 18.5,53C 36.8918,60.2982 49.5585,54.7982 56.5,36.5C 57.1174,36.3893 57.6174,36.056 58,35.5C 57.2867,43.0781 53.7867,49.2447 47.5,54C 27.7615,63.8095 13.4281,58.6428 4.5,38.5C 4.75258,34.9601 5.41925,31.6267 6.5,28.5 Z"/></g>
<g><path style="opacity:1" fill="#0995f7" d="M 24.5,34.5 C 26.3084,34.4914 27.9751,34.9914 29.5,36C 35.0249,41.7754 34.3583,46.7754 27.5,51C 30.146,51.4974 32.8127,51.6641 35.5,51.5C 35.5,52.1667 35.5,52.8333 35.5,53.5C 31.6953,54.3638 28.0286,54.0305 24.5,52.5C 24.5,51.5 24.5,50.5 24.5,49.5C 30.0924,48.3751 31.9258,45.0418 30,39.5C 28.2196,38.3606 26.3863,37.3606 24.5,36.5C 24.5,35.8333 24.5,35.1667 24.5,34.5 Z"/></g>
<g><path style="opacity:1" fill="#300823" d="M 63.5,32.5 C 63.5,42.8333 63.5,53.1667 63.5,63.5C 42.1667,63.5 20.8333,63.5 -0.5,63.5C -0.5,54.8333 -0.5,46.1667 -0.5,37.5C 0.899922,38.0998 1.89992,39.0998 2.5,40.5C 6.81242,50.3073 14.1458,56.8073 24.5,60C 46.7913,62.0534 59.2913,51.8868 62,29.5C 62.2321,30.7375 62.7321,31.7375 63.5,32.5 Z"/></g>
<g><path style="opacity:1" fill="#6282e5" d="M 48.5,43.5 C 48.5,44.1667 48.5,44.8333 48.5,45.5C 45.3025,49.9358 40.9692,52.6024 35.5,53.5C 35.5,52.8333 35.5,52.1667 35.5,51.5C 40.6372,50.1 44.9705,47.4334 48.5,43.5 Z"/></g>
<g><path style="opacity:1" fill="#15abdc" d="M 15.5,44.5 C 18.0434,46.9395 21.0434,48.6062 24.5,49.5C 24.5,50.5 24.5,51.5 24.5,52.5C 20.6304,51.7367 17.6304,49.7367 15.5,46.5C 15.5,45.8333 15.5,45.1667 15.5,44.5 Z"/></g>
</svg>
