<?xml version="1.0" encoding="UTF-8"?>
<!DOCTYPE svg PUBLIC "-//W3C//DTD SVG 1.1//EN" "http://www.w3.org/Graphics/SVG/1.1/DTD/svg11.dtd">
<svg xmlns="http://www.w3.org/2000/svg" version="1.1" width="64px" height="64px" style="shape-rendering:geometricPrecision; text-rendering:geometricPrecision; image-rendering:optimizeQuality; fill-rule:evenodd; clip-rule:evenodd" xmlns:xlink="http://www.w3.org/1999/xlink">
<g><path style="opacity:1" fill="#1c67f3" d="M -0.5,-0.5 C 20.8333,-0.5 42.1667,-0.5 63.5,-0.5C 63.5,20.8333 63.5,42.1667 63.5,63.5C 42.1667,63.5 20.8333,63.5 -0.5,63.5C -0.5,42.1667 -0.5,20.8333 -0.5,-0.5 Z"/></g>
<g><path style="opacity:1" fill="#fefffe" d="M 13.5,12.5 C 25.5046,12.3335 37.5046,12.5001 49.5,13C 50.435,15.3806 50.7683,17.8806 50.5,20.5C 37.8333,20.5 25.1667,20.5 12.5,20.5C 12.2786,17.7212 12.612,15.0545 13.5,12.5 Z"/></g>
<g><path style="opacity:1" fill="#fefefe" d="M 12.5,24.5 C 25.1667,24.5 37.8333,24.5 50.5,24.5C 50.5,27.8333 50.5,31.1667 50.5,34.5C 39.4798,34.1679 28.4798,34.5012 17.5,35.5C 22.5183,45.7516 30.185,48.2516 40.5,43C 42.2134,41.6218 43.5467,39.9552 44.5,38C 46.4727,37.5045 48.4727,37.3379 50.5,37.5C 50.797,41.7675 50.4637,45.9341 49.5,50C 37.5,50.6667 25.5,50.6667 13.5,50C 12.5168,41.5851 12.1834,33.0851 12.5,24.5 Z"/></g>
<g><path style="opacity:1" fill="#1e68f3" d="M 21.5,26.5 C 25.227,26.1951 27.8937,27.6951 29.5,31C 27.1913,31.7562 25.1913,31.2562 23.5,29.5C 21.7244,31.4468 19.7244,31.7801 17.5,30.5C 18.5487,28.7844 19.882,27.4511 21.5,26.5 Z"/></g>
<g><path style="opacity:1" fill="#1e68f3" d="M 37.5,26.5 C 40.99,26.245 43.6567,27.5783 45.5,30.5C 43.2756,31.7801 41.2756,31.4468 39.5,29.5C 32.3464,32.5524 31.6798,31.5524 37.5,26.5 Z"/></g>
<g><path style="opacity:1" fill="#fdfdfe" d="M 22.5,37.5 C 28.5092,37.3338 34.5092,37.5005 40.5,38C 35.4382,43.1741 29.7716,43.8408 23.5,40C 22.7476,39.3292 22.4142,38.4959 22.5,37.5 Z"/></g>
</svg>
