<?xml version="1.0" encoding="UTF-8"?>
<!DOCTYPE svg PUBLIC "-//W3C//DTD SVG 1.1//EN" "http://www.w3.org/Graphics/SVG/1.1/DTD/svg11.dtd">
<svg xmlns="http://www.w3.org/2000/svg" version="1.1" width="64px" height="64px" style="shape-rendering:geometricPrecision; text-rendering:geometricPrecision; image-rendering:optimizeQuality; fill-rule:evenodd; clip-rule:evenodd" xmlns:xlink="http://www.w3.org/1999/xlink">
<g><path style="opacity:1" fill="#c85c77" d="M 25.5,-0.5 C 27.1667,-0.5 28.8333,-0.5 30.5,-0.5C 28.7267,2.05987 26.7267,4.39321 24.5,6.5C 23.2905,6.93205 22.2905,7.59872 21.5,8.5C 19.0672,8.2729 17.4006,9.2729 16.5,11.5C 13.8333,12.1667 12.1667,13.8333 11.5,16.5C 9.2729,17.4006 8.2729,19.0672 8.5,21.5C 7.83333,21.5 7.5,21.8333 7.5,22.5C 4.83333,24.1667 2.16667,25.8333 -0.5,27.5C -0.5,26.8333 -0.5,26.1667 -0.5,25.5C 0.166667,24.1667 0.833333,22.8333 1.5,21.5C 7.80558,14.8597 14.1389,8.19304 20.5,1.5C 22.3057,0.975875 23.9724,0.309209 25.5,-0.5 Z"/></g>
<g><path style="opacity:0.935" fill="#ae5194" d="M 30.5,-0.5 C 32.8333,-0.5 35.1667,-0.5 37.5,-0.5C 38.5676,0.434475 39.901,0.767809 41.5,0.5C 39.1165,1.88507 37.4499,3.88507 36.5,6.5C 32.5159,5.25746 28.5159,5.25746 24.5,6.5C 26.7267,4.39321 28.7267,2.05987 30.5,-0.5 Z"/></g>
<g><path style="opacity:0.941" fill="#d25e6b" d="M 20.5,1.5 C 14.1389,8.19304 7.80558,14.8597 1.5,21.5C 4.05801,11.2747 10.3913,4.60802 20.5,1.5 Z"/></g>
<g><path style="opacity:1" fill="#9b47aa" d="M 41.5,0.5 C 43.5,1.5 45.5,2.5 47.5,3.5C 46.1667,5.16667 44.8333,6.83333 43.5,8.5C 42.8333,8.5 42.1667,8.5 41.5,8.5C 40.2196,7.06873 38.5529,6.40206 36.5,6.5C 37.4499,3.88507 39.1165,1.88507 41.5,0.5 Z"/></g>
<g><path style="opacity:1" fill="#ead2e3" d="M 36.5,6.5 C 38.5529,6.40206 40.2196,7.06873 41.5,8.5C 40.8333,8.5 40.1667,8.5 39.5,8.5C 36.6085,7.59748 33.6085,7.26414 30.5,7.5C 27.4552,7.50795 24.4552,7.84128 21.5,8.5C 22.2905,7.59872 23.2905,6.93205 24.5,6.5C 28.5159,5.25746 32.5159,5.25746 36.5,6.5 Z"/></g>
<g><path style="opacity:1" fill="#faf4f6" d="M 21.5,8.5 C 20.1007,9.88972 18.4341,10.8897 16.5,11.5C 17.4006,9.2729 19.0672,8.2729 21.5,8.5 Z"/></g>
<g><path style="opacity:1" fill="#f7f2fa" d="M 41.5,8.5 C 42.1667,8.5 42.8333,8.5 43.5,8.5C 44.8333,9.16667 45.8333,10.1667 46.5,11.5C 45.391,11.4431 44.391,11.1098 43.5,10.5C 42.8333,9.83333 42.1667,9.16667 41.5,8.5 Z"/></g>
<g><path style="opacity:0.91" fill="#7042db" d="M 47.5,3.5 C 55.9716,8.43643 60.9716,15.7698 62.5,25.5C 61.4613,27.5311 59.7946,28.8645 57.5,29.5C 57.0972,26.5145 56.0972,23.8478 54.5,21.5C 54.7271,19.0672 53.7271,17.4006 51.5,16.5C 50.8333,13.8333 49.1667,12.1667 46.5,11.5C 45.8333,10.1667 44.8333,9.16667 43.5,8.5C 44.8333,6.83333 46.1667,5.16667 47.5,3.5 Z"/></g>
<g><path style="opacity:1" fill="#efe8f9" d="M 46.5,12.5 C 46.5,12.1667 46.5,11.8333 46.5,11.5C 49.1667,12.1667 50.8333,13.8333 51.5,16.5C 49.8333,15.1667 48.1667,13.8333 46.5,12.5 Z"/></g>
<g><path style="opacity:1" fill="#fbf3f5" d="M 16.5,11.5 C 15.1667,13.5 13.5,15.1667 11.5,16.5C 12.1667,13.8333 13.8333,12.1667 16.5,11.5 Z"/></g>
<g><path style="opacity:1" fill="#a14aa0" d="M 30.5,7.5 C 33.6085,7.26414 36.6085,7.59748 39.5,8.5C 34.9205,13.3536 30.5872,18.3536 26.5,23.5C 25.5275,21.8608 24.1942,20.5274 22.5,19.5C 24.5,16.5 26.5,13.5 28.5,10.5C 29.1667,9.5 29.8333,8.5 30.5,7.5 Z"/></g>
<g><path style="opacity:1" fill="#8e42b5" d="M 39.5,8.5 C 40.1667,8.5 40.8333,8.5 41.5,8.5C 42.1667,9.16667 42.8333,9.83333 43.5,10.5C 39.0917,15.4114 34.425,20.2447 29.5,25C 28.9056,25.4643 28.2389,25.631 27.5,25.5C 27.1667,24.8333 26.8333,24.1667 26.5,23.5C 30.5872,18.3536 34.9205,13.3536 39.5,8.5 Z"/></g>
<g><path style="opacity:1" fill="#6e3ada" d="M 46.5,12.5 C 48.1667,13.8333 49.8333,15.1667 51.5,16.5C 52.1667,18.1667 52.8333,19.8333 53.5,21.5C 51.2417,24.3566 49.2417,27.3566 47.5,30.5C 46.254,26.4345 44.254,22.7678 41.5,19.5C 42.7536,16.9066 44.4202,14.5732 46.5,12.5 Z"/></g>
<g><path style="opacity:1" fill="#f8ecf0" d="M 11.5,16.5 C 10.8897,18.4341 9.88972,20.1007 8.5,21.5C 8.2729,19.0672 9.2729,17.4006 11.5,16.5 Z"/></g>
<g><path style="opacity:1" fill="#f2edfc" d="M 51.5,16.5 C 53.7271,17.4006 54.7271,19.0672 54.5,21.5C 54.1667,21.5 53.8333,21.5 53.5,21.5C 52.8333,19.8333 52.1667,18.1667 51.5,16.5 Z"/></g>
<g><path style="opacity:1" fill="#b5538b" d="M 30.5,7.5 C 29.8333,8.5 29.1667,9.5 28.5,10.5C 23.6824,14.1511 19.0157,17.9844 14.5,22C 13.2768,25.3907 10.9435,27.5574 7.5,28.5C 7.67412,26.139 8.00745,23.8056 8.5,21.5C 9.88972,20.1007 10.8897,18.4341 11.5,16.5C 13.5,15.1667 15.1667,13.5 16.5,11.5C 18.4341,10.8897 20.1007,9.88972 21.5,8.5C 24.4552,7.84128 27.4552,7.50795 30.5,7.5 Z"/></g>
<g><path style="opacity:1" fill="#a8509c" d="M 28.5,10.5 C 26.5,13.5 24.5,16.5 22.5,19.5C 22.4326,20.9587 22.7659,22.2921 23.5,23.5C 22.8333,23.5 22.5,23.8333 22.5,24.5C 21.7677,23.1917 20.9344,21.8584 20,20.5C 17.5336,25.7399 15.7003,31.0732 14.5,36.5C 14.0954,35.4502 13.4288,35.4502 12.5,36.5C 11.6801,38.3188 10.6801,39.9855 9.5,41.5C 9.16667,41.5 8.83333,41.5 8.5,41.5C 7.70509,37.2147 7.37176,32.8814 7.5,28.5C 10.9435,27.5574 13.2768,25.3907 14.5,22C 19.0157,17.9844 23.6824,14.1511 28.5,10.5 Z"/></g>
<g><path style="opacity:1" fill="#fcfbfd" d="M 22.5,19.5 C 24.1942,20.5274 25.5275,21.8608 26.5,23.5C 26.8333,24.1667 27.1667,24.8333 27.5,25.5C 28.3403,27.8525 29.6736,29.8525 31.5,31.5C 33.7329,27.6785 36.0663,23.8452 38.5,20C 39.3317,19.3123 39.9984,19.479 40.5,20.5C 39.8256,22.1955 39.1589,23.8621 38.5,25.5C 37.7017,30.0611 36.2017,34.3945 34,38.5C 32.9887,39.3366 31.8221,39.67 30.5,39.5C 29.1667,38.8333 28.1667,37.8333 27.5,36.5C 25.7679,32.3027 24.4345,27.9693 23.5,23.5C 22.7659,22.2921 22.4326,20.9587 22.5,19.5 Z"/></g>
<g><path style="opacity:1" fill="#fcfbfe" d="M 41.5,19.5 C 44.254,22.7678 46.254,26.4345 47.5,30.5C 47.5079,33.5448 47.8413,36.5448 48.5,39.5C 47.0813,40.4511 45.4147,40.7845 43.5,40.5C 42.8333,40.5 42.1667,40.5 41.5,40.5C 41.7947,38.2646 41.4614,36.2646 40.5,34.5C 40.4921,31.4552 40.1587,28.4552 39.5,25.5C 40.7384,23.7857 41.405,21.7857 41.5,19.5 Z"/></g>
<g><path style="opacity:1" fill="#fdfcfd" d="M 22.5,24.5 C 22.33,25.8221 22.6634,26.9887 23.5,28C 22.8469,32.5892 21.5136,36.7559 19.5,40.5C 17.8333,40.5 16.1667,40.5 14.5,40.5C 14.5,39.1667 14.5,37.8333 14.5,36.5C 15.7003,31.0732 17.5336,25.7399 20,20.5C 20.9344,21.8584 21.7677,23.1917 22.5,24.5 Z"/></g>
<g><path style="opacity:1" fill="#8540c3" d="M 43.5,10.5 C 44.391,11.1098 45.391,11.4431 46.5,11.5C 46.5,11.8333 46.5,12.1667 46.5,12.5C 44.4202,14.5732 42.7536,16.9066 41.5,19.5C 41.405,21.7857 40.7384,23.7857 39.5,25.5C 39.1667,25.5 38.8333,25.5 38.5,25.5C 39.1589,23.8621 39.8256,22.1955 40.5,20.5C 39.9984,19.479 39.3317,19.3123 38.5,20C 36.0663,23.8452 33.7329,27.6785 31.5,31.5C 29.6736,29.8525 28.3403,27.8525 27.5,25.5C 28.2389,25.631 28.9056,25.4643 29.5,25C 34.425,20.2447 39.0917,15.4114 43.5,10.5 Z"/></g>
<g><path style="opacity:1" fill="#6653e9" d="M 53.5,21.5 C 53.8333,21.5 54.1667,21.5 54.5,21.5C 55.2721,25.4517 55.6054,29.4517 55.5,33.5C 52.847,35.155 50.5136,37.155 48.5,39.5C 47.8413,36.5448 47.5079,33.5448 47.5,30.5C 49.2417,27.3566 51.2417,24.3566 53.5,21.5 Z"/></g>
<g><path style="opacity:1" fill="#ecd3e4" d="M 8.5,21.5 C 8.00745,23.8056 7.67412,26.139 7.5,28.5C 7.37176,32.8814 7.70509,37.2147 8.5,41.5C 6.88303,38.8112 5.88303,35.8112 5.5,32.5C 5.53992,29.0124 6.20658,25.6791 7.5,22.5C 7.5,21.8333 7.83333,21.5 8.5,21.5 Z"/></g>
<g><path style="opacity:1" fill="#d9d6fb" d="M 54.5,21.5 C 56.0972,23.8478 57.0972,26.5145 57.5,29.5C 57.4977,33.8741 56.4977,37.8741 54.5,41.5C 55.0916,38.8728 55.4249,36.2062 55.5,33.5C 55.6054,29.4517 55.2721,25.4517 54.5,21.5 Z"/></g>
<g><path style="opacity:1" fill="#b85487" d="M 7.5,22.5 C 6.20658,25.6791 5.53992,29.0124 5.5,32.5C 3.59682,33.9473 1.93015,35.614 0.5,37.5C 0.166667,37.5 -0.166667,37.5 -0.5,37.5C -0.5,34.1667 -0.5,30.8333 -0.5,27.5C 2.16667,25.8333 4.83333,24.1667 7.5,22.5 Z"/></g>
<g><path style="opacity:1" fill="#6c42e1" d="M 38.5,25.5 C 38.8333,25.5 39.1667,25.5 39.5,25.5C 40.1587,28.4552 40.4921,31.4552 40.5,34.5C 35.577,41.7598 29.9103,48.4264 23.5,54.5C 22.8333,54.5 22.1667,54.5 21.5,54.5C 21.5,54.1667 21.5,53.8333 21.5,53.5C 25.3303,49.5014 28.997,45.3347 32.5,41C 31.5842,40.7216 30.9175,40.2216 30.5,39.5C 31.8221,39.67 32.9887,39.3366 34,38.5C 36.2017,34.3945 37.7017,30.0611 38.5,25.5 Z"/></g>
<g><path style="opacity:1" fill="#6364f1" d="M 55.5,33.5 C 55.4249,36.2062 55.0916,38.8728 54.5,41.5C 53.1103,42.8993 52.1103,44.5659 51.5,46.5C 49.5,47.8333 47.8333,49.5 46.5,51.5C 44.5659,52.1103 42.8993,53.1103 41.5,54.5C 39.1944,54.9926 36.861,55.3259 34.5,55.5C 38.45,51.2129 42.45,46.8795 46.5,42.5C 45.7261,41.2888 44.8928,41.2888 44,42.5C 43.5357,41.9056 43.369,41.2389 43.5,40.5C 45.4147,40.7845 47.0813,40.4511 48.5,39.5C 50.5136,37.155 52.847,35.155 55.5,33.5 Z"/></g>
<g><path style="opacity:0.969" fill="#5e74f8" d="M 62.5,25.5 C 62.8333,25.5 63.1667,25.5 63.5,25.5C 63.5,29.5 63.5,33.5 63.5,37.5C 60.1472,51.5047 51.4805,60.1713 37.5,63.5C 34.8333,63.5 32.1667,63.5 29.5,63.5C 31.1667,61.5 32.8333,59.5 34.5,57.5C 36.9752,56.8686 39.3085,55.8686 41.5,54.5C 43.9328,54.7271 45.5994,53.7271 46.5,51.5C 49.1667,50.8333 50.8333,49.1667 51.5,46.5C 53.7271,45.5994 54.7271,43.9328 54.5,41.5C 56.4977,37.8741 57.4977,33.8741 57.5,29.5C 59.7946,28.8645 61.4613,27.5311 62.5,25.5 Z"/></g>
<g><path style="opacity:1" fill="#8f46ba" d="M 14.5,36.5 C 14.5,37.8333 14.5,39.1667 14.5,40.5C 16.1667,40.5 17.8333,40.5 19.5,40.5C 16.6018,41.7234 14.2685,43.7234 12.5,46.5C 12.1667,46.5 11.8333,46.5 11.5,46.5C 10.8333,44.8333 10.1667,43.1667 9.5,41.5C 10.6801,39.9855 11.6801,38.3188 12.5,36.5C 13.4288,35.4502 14.0954,35.4502 14.5,36.5 Z"/></g>
<g><path style="opacity:1" fill="#a24ca1" d="M 5.5,32.5 C 5.88303,35.8112 6.88303,38.8112 8.5,41.5C 8.5,41.8333 8.5,42.1667 8.5,42.5C 6.05322,42.615 4.05322,43.615 2.5,45.5C 1.22642,43.0075 0.55975,40.3408 0.5,37.5C 1.93015,35.614 3.59682,33.9473 5.5,32.5 Z"/></g>
<g><path style="opacity:1" fill="#6c38db" d="M 27.5,36.5 C 28.1667,37.8333 29.1667,38.8333 30.5,39.5C 30.9175,40.2216 31.5842,40.7216 32.5,41C 28.997,45.3347 25.3303,49.5014 21.5,53.5C 19.8333,52.8333 18.1667,52.1667 16.5,51.5C 15.8333,50.5 15.1667,49.5 14.5,48.5C 18.7813,44.5563 23.1146,40.5563 27.5,36.5 Z"/></g>
<g><path style="opacity:1" fill="#7f3cc7" d="M 23.5,23.5 C 24.4345,27.9693 25.7679,32.3027 27.5,36.5C 23.1146,40.5563 18.7813,44.5563 14.5,48.5C 13.5,48.1667 12.8333,47.5 12.5,46.5C 14.2685,43.7234 16.6018,41.7234 19.5,40.5C 21.5136,36.7559 22.8469,32.5892 23.5,28C 22.6634,26.9887 22.33,25.8221 22.5,24.5C 22.5,23.8333 22.8333,23.5 23.5,23.5 Z"/></g>
<g><path style="opacity:1" fill="#664ce6" d="M 40.5,34.5 C 41.4614,36.2646 41.7947,38.2646 41.5,40.5C 37.5401,45.7954 33.2068,50.7954 28.5,55.5C 26.7085,55.634 25.0418,55.3007 23.5,54.5C 29.9103,48.4264 35.577,41.7598 40.5,34.5 Z"/></g>
<g><path style="opacity:1" fill="#f5eff9" d="M 8.5,41.5 C 8.83333,41.5 9.16667,41.5 9.5,41.5C 10.1667,43.1667 10.8333,44.8333 11.5,46.5C 9.73758,45.7377 8.73758,44.4044 8.5,42.5C 8.5,42.1667 8.5,41.8333 8.5,41.5 Z"/></g>
<g><path style="opacity:1" fill="#f2f3fe" d="M 54.5,41.5 C 54.7271,43.9328 53.7271,45.5994 51.5,46.5C 52.1103,44.5659 53.1103,42.8993 54.5,41.5 Z"/></g>
<g><path style="opacity:1" fill="#6358ec" d="M 41.5,40.5 C 42.1667,40.5 42.8333,40.5 43.5,40.5C 43.369,41.2389 43.5357,41.9056 44,42.5C 44.8928,41.2888 45.7261,41.2888 46.5,42.5C 42.45,46.8795 38.45,51.2129 34.5,55.5C 32.5,55.5 30.5,55.5 28.5,55.5C 33.2068,50.7954 37.5401,45.7954 41.5,40.5 Z"/></g>
<g><path style="opacity:1" fill="#efe7f9" d="M 11.5,46.5 C 11.8333,46.5 12.1667,46.5 12.5,46.5C 12.8333,47.5 13.5,48.1667 14.5,48.5C 15.1667,49.5 15.8333,50.5 16.5,51.5C 14.9382,51.2671 13.6049,50.6005 12.5,49.5C 11.8902,48.609 11.5569,47.609 11.5,46.5 Z"/></g>
<g><path style="opacity:1" fill="#eaecfe" d="M 51.5,46.5 C 50.8333,49.1667 49.1667,50.8333 46.5,51.5C 47.8333,49.5 49.5,47.8333 51.5,46.5 Z"/></g>
<g><path style="opacity:1" fill="#8940bc" d="M 8.5,42.5 C 8.73758,44.4044 9.73758,45.7377 11.5,46.5C 11.5569,47.609 11.8902,48.609 12.5,49.5C 10.2054,50.1355 8.5387,51.4689 7.5,53.5C 5.83333,50.8333 4.16667,48.1667 2.5,45.5C 4.05322,43.615 6.05322,42.615 8.5,42.5 Z"/></g>
<g><path style="opacity:1" fill="#f2edfc" d="M 16.5,51.5 C 18.1667,52.1667 19.8333,52.8333 21.5,53.5C 21.5,53.8333 21.5,54.1667 21.5,54.5C 19.0672,54.7271 17.4006,53.7271 16.5,51.5 Z"/></g>
<g><path style="opacity:1" fill="#f2f3fe" d="M 46.5,51.5 C 45.5994,53.7271 43.9328,54.7271 41.5,54.5C 42.8993,53.1103 44.5659,52.1103 46.5,51.5 Z"/></g>
<g><path style="opacity:0.957" fill="#6a49e3" d="M 12.5,49.5 C 13.6049,50.6005 14.9382,51.2671 16.5,51.5C 17.4006,53.7271 19.0672,54.7271 21.5,54.5C 25.3934,56.8757 29.7268,57.8757 34.5,57.5C 32.8333,59.5 31.1667,61.5 29.5,63.5C 28.1667,63.5 26.8333,63.5 25.5,63.5C 18.6394,61.7359 12.6394,58.4026 7.5,53.5C 8.5387,51.4689 10.2054,50.1355 12.5,49.5 Z"/></g>
<g><path style="opacity:1" fill="#dad5fa" d="M 21.5,54.5 C 22.1667,54.5 22.8333,54.5 23.5,54.5C 25.0418,55.3007 26.7085,55.634 28.5,55.5C 30.5,55.5 32.5,55.5 34.5,55.5C 36.861,55.3259 39.1944,54.9926 41.5,54.5C 39.3085,55.8686 36.9752,56.8686 34.5,57.5C 29.7268,57.8757 25.3934,56.8757 21.5,54.5 Z"/></g>
</svg>
