<?xml version="1.0" encoding="UTF-8"?>
<!DOCTYPE svg PUBLIC "-//W3C//DTD SVG 1.1//EN" "http://www.w3.org/Graphics/SVG/1.1/DTD/svg11.dtd">
<svg xmlns="http://www.w3.org/2000/svg" version="1.1" width="64px" height="64px" style="shape-rendering:geometricPrecision; text-rendering:geometricPrecision; image-rendering:optimizeQuality; fill-rule:evenodd; clip-rule:evenodd" xmlns:xlink="http://www.w3.org/1999/xlink">
<g><path style="opacity:0.999" fill="#225cd2" d="M -0.5,-0.5 C 20.8333,-0.5 42.1667,-0.5 63.5,-0.5C 63.5,20.8333 63.5,42.1667 63.5,63.5C 42.1667,63.5 20.8333,63.5 -0.5,63.5C -0.5,42.1667 -0.5,20.8333 -0.5,-0.5 Z"/></g>
<g><path style="opacity:1" fill="#fbfcfe" d="M 23.5,15.5 C 26.1492,17.14 28.8159,18.8067 31.5,20.5C 34.136,19.0295 36.636,17.3628 39,15.5C 40.518,17.6137 40.8513,19.947 40,22.5C 37.2135,25.3504 34.0468,27.1837 30.5,28C 27.7336,26.5331 25.2336,24.6998 23,22.5C 22.2967,20.0709 22.4634,17.7375 23.5,15.5 Z"/></g>
<g><path style="opacity:1" fill="#fcfdfe" d="M 13.5,19.5 C 19.4819,23.4935 25.4819,27.4935 31.5,31.5C 37.3023,27.7591 42.9689,23.7591 48.5,19.5C 49.8333,27.1667 49.8333,34.8333 48.5,42.5C 46.0629,43.8034 43.8962,45.4701 42,47.5C 40.8913,43.3107 40.058,38.9774 39.5,34.5C 36.8095,36.2031 34.1428,37.8697 31.5,39.5C 28.8572,37.8697 26.1905,36.2031 23.5,34.5C 22.8333,38.8333 22.1667,43.1667 21.5,47.5C 19.3428,45.5879 17.0094,43.9213 14.5,42.5C 13.5025,34.8622 13.1692,27.1955 13.5,19.5 Z"/></g>
</svg>
