<?xml version="1.0" encoding="UTF-8"?>
<!DOCTYPE svg PUBLIC "-//W3C//DTD SVG 1.1//EN" "http://www.w3.org/Graphics/SVG/1.1/DTD/svg11.dtd">
<svg xmlns="http://www.w3.org/2000/svg" version="1.1" width="64px" height="64px" style="shape-rendering:geometricPrecision; text-rendering:geometricPrecision; image-rendering:optimizeQuality; fill-rule:evenodd; clip-rule:evenodd" xmlns:xlink="http://www.w3.org/1999/xlink">
<g><path style="opacity:0.996" fill="#1d5ef4" d="M 25.5,-0.5 C 29.1667,-0.5 32.8333,-0.5 36.5,-0.5C 36.5,6.5 36.5,13.5 36.5,20.5C 34.7708,19.8825 33.2708,18.8825 32,17.5C 28.9113,18.9596 26.0779,20.793 23.5,23C 26.0421,24.7698 28.7087,26.2698 31.5,27.5C 33.1772,26.8131 34.8439,26.1465 36.5,25.5C 36.5,26.1667 36.5,26.8333 36.5,27.5C 35.3406,29.2503 33.674,30.2503 31.5,30.5C 27.7004,28.7664 24.0337,26.7664 20.5,24.5C 19.609,25.1098 18.609,25.4431 17.5,25.5C 17.5,17.8333 17.5,10.1667 17.5,2.5C 20.2521,1.48848 22.9188,0.488483 25.5,-0.5 Z"/></g>
<g><path style="opacity:0.996" fill="#1b68f4" d="M 17.5,2.5 C 17.5,10.1667 17.5,17.8333 17.5,25.5C 15.4099,27.3902 13.0765,29.0569 10.5,30.5C 9.16667,34.5 9.16667,38.5 10.5,42.5C 12.7254,40.89 15.0587,39.5566 17.5,38.5C 17.5,45.8333 17.5,53.1667 17.5,60.5C 7.88878,55.5885 1.88878,47.9219 -0.5,37.5C -0.5,33.5 -0.5,29.5 -0.5,25.5C 1.88878,15.0781 7.88878,7.41147 17.5,2.5 Z"/></g>
<g><path style="opacity:0.996" fill="#1b4ff4" d="M 36.5,-0.5 C 36.8333,-0.5 37.1667,-0.5 37.5,-0.5C 51.1667,3.16667 59.8333,11.8333 63.5,25.5C 63.5,29.5 63.5,33.5 63.5,37.5C 59.8333,51.1667 51.1667,59.8333 37.5,63.5C 37.1667,63.5 36.8333,63.5 36.5,63.5C 36.5,55.8333 36.5,48.1667 36.5,40.5C 38.4632,39.1798 40.4632,37.8465 42.5,36.5C 46.1116,38.2723 49.6116,40.2723 53,42.5C 53.8265,38.4589 53.6599,34.4589 52.5,30.5C 49.1389,28.4887 45.8056,26.4887 42.5,24.5C 40.7837,26.0248 38.7837,27.0248 36.5,27.5C 36.5,26.8333 36.5,26.1667 36.5,25.5C 40.446,23.8762 40.446,22.2095 36.5,20.5C 36.5,13.5 36.5,6.5 36.5,-0.5 Z"/></g>
<g><path style="opacity:1" fill="#f8b40a" d="M 36.5,20.5 C 40.446,22.2095 40.446,23.8762 36.5,25.5C 34.8439,26.1465 33.1772,26.8131 31.5,27.5C 28.7087,26.2698 26.0421,24.7698 23.5,23C 26.0779,20.793 28.9113,18.9596 32,17.5C 33.2708,18.8825 34.7708,19.8825 36.5,20.5 Z"/></g>
<g><path style="opacity:1" fill="#b4c6fe" d="M 20.5,24.5 C 20.5,28.5 20.5,32.5 20.5,36.5C 19.2905,36.9321 18.2905,37.5987 17.5,38.5C 15.0587,39.5566 12.7254,40.89 10.5,42.5C 9.16667,38.5 9.16667,34.5 10.5,30.5C 13.0765,29.0569 15.4099,27.3902 17.5,25.5C 18.609,25.4431 19.609,25.1098 20.5,24.5 Z"/></g>
<g><path style="opacity:1" fill="#fefefe" d="M 20.5,24.5 C 24.0337,26.7664 27.7004,28.7664 31.5,30.5C 31.5,34.5 31.5,38.5 31.5,42.5C 27.8333,40.5 24.1667,38.5 20.5,36.5C 20.5,32.5 20.5,28.5 20.5,24.5 Z"/></g>
<g><path style="opacity:1" fill="#b3c6fe" d="M 42.5,24.5 C 42.5,28.5 42.5,32.5 42.5,36.5C 40.4632,37.8465 38.4632,39.1798 36.5,40.5C 34.8333,41.1667 33.1667,41.8333 31.5,42.5C 31.5,38.5 31.5,34.5 31.5,30.5C 33.674,30.2503 35.3406,29.2503 36.5,27.5C 38.7837,27.0248 40.7837,26.0248 42.5,24.5 Z"/></g>
<g><path style="opacity:1" fill="#fefefe" d="M 42.5,24.5 C 45.8056,26.4887 49.1389,28.4887 52.5,30.5C 53.6599,34.4589 53.8265,38.4589 53,42.5C 49.6116,40.2723 46.1116,38.2723 42.5,36.5C 42.5,32.5 42.5,28.5 42.5,24.5 Z"/></g>
<g><path style="opacity:1" fill="#1c5cf5" d="M 20.5,36.5 C 24.1667,38.5 27.8333,40.5 31.5,42.5C 33.1667,41.8333 34.8333,41.1667 36.5,40.5C 36.5,48.1667 36.5,55.8333 36.5,63.5C 32.8333,63.5 29.1667,63.5 25.5,63.5C 22.9188,62.5115 20.2521,61.5115 17.5,60.5C 17.5,53.1667 17.5,45.8333 17.5,38.5C 18.2905,37.5987 19.2905,36.9321 20.5,36.5 Z"/></g>
</svg>
