<?xml version="1.0" encoding="UTF-8"?>
<!DOCTYPE svg PUBLIC "-//W3C//DTD SVG 1.1//EN" "http://www.w3.org/Graphics/SVG/1.1/DTD/svg11.dtd">
<svg xmlns="http://www.w3.org/2000/svg" version="1.1" width="64px" height="64px" style="shape-rendering:geometricPrecision; text-rendering:geometricPrecision; image-rendering:optimizeQuality; fill-rule:evenodd; clip-rule:evenodd" xmlns:xlink="http://www.w3.org/1999/xlink">
<g><path style="opacity:0.945" fill="#161616" d="M 24.5,-0.5 C 28.5,-0.5 32.5,-0.5 36.5,-0.5C 34.8478,5.32595 31.1811,9.49262 25.5,12C 17.6043,13.8544 9.60426,15.021 1.5,15.5C 4.71839,9.19209 9.71839,4.69209 16.5,2C 19.3102,1.21774 21.9768,0.384409 24.5,-0.5 Z"/></g>
<g><path style="opacity:0.961" fill="#151515" d="M 63.5,20.5 C 63.5,21.5 63.5,22.5 63.5,23.5C 55.3207,33.4032 44.654,37.5698 31.5,36C 25.6734,37.1624 20.8401,39.9958 17,44.5C 14.8289,48.8422 12.6622,53.1756 10.5,57.5C 9.5,57 8.5,56.5 7.5,56C 4.96876,52.6425 2.30209,49.4758 -0.5,46.5C -0.5,45.8333 -0.5,45.1667 -0.5,44.5C 2.47793,38.0119 6.81126,32.5119 12.5,28C 19.7934,26.8481 27.1268,25.8481 34.5,25C 43.6872,22.5708 50.3538,17.0708 54.5,8.5C 58.3228,11.9749 61.3228,15.9749 63.5,20.5 Z"/></g>
<g><path style="opacity:0.035" fill="#1b1c1b" d="M 1.5,15.5 C 0.833333,16.1667 0.833333,16.1667 1.5,15.5 Z"/></g>
<g><path style="opacity:0.955" fill="#151515" d="M 37.5,63.5 C 34.8333,63.5 32.1667,63.5 29.5,63.5C 31.0081,58.3176 33.6748,53.8176 37.5,50C 39.3921,49.0266 41.3921,48.3599 43.5,48C 49.5749,47.5781 55.5749,47.2448 61.5,47C 55.602,55.7656 47.602,61.2656 37.5,63.5 Z"/></g>
</svg>
