<!-- by TradingView --><svg width="56" height="56" viewBox="0 0 56 56" xmlns="http://www.w3.org/2000/svg"><path fill="#181B1E" d="M0 0h56v56H0z"/><path d="M31.96 20.38c.76-.78 1.68-1.38 2.76-1.38h10.09c1.2 0 2.19.77 2.19 2s-.98 2-2.2 2h-6.49l2.94 2.78c.5.64.76 1.42.75 2.2-.02 1.34-1.06 2.39-1.97 3.37L38.5 33h6.3c1.22 0 2.2.77 2.2 2s-.98 2-2.2 2H33.88C32.73 37 32 36 32 35c.02-.34.12-.68.34-.99l5.16-6.03-3.37-3.17s-3.3-3.3-2.17-4.43Z" fill="url(#a)"/><path d="M18 21.32A2.3 2.3 0 0 1 20.28 19c.56 0 1.13.2 1.59.67l5.98 6.1 4.11-5.4A3.47 3.47 0 0 1 34.72 19c3.83 0-.59 5.8-.59 5.8l-4.1 5.2a2.5 2.5 0 0 1-3.76.26L22 26v8.77C22 36 21.21 37 20 37s-2-1-2-2.23V21.32Z" fill="url(#b)"/><path d="M12 21v-.28c0-.95.58-1.72 1.5-1.72s1.56.77 1.56 1.72V21h.28c.92 0 1.66 1.05 1.66 2s-.95 2-1.87 2h-3.22l3.44 4.02C17.25 31.26 17 35 13 35v.28c0 .95-.58 1.72-1.5 1.72s-1.5-.77-1.5-1.72V35H8.66C7.74 35 7 34 7 33.06 7 32.1 7.74 31 8.66 31h4.23l-3.52-3.82C7.6 25.08 8 21 12 21Z" fill="url(#c)"/><defs><linearGradient id="a" x1="32.5" y1="19" x2="32.5" y2="37" gradientUnits="userSpaceOnUse"><stop offset=".14" stop-color="#FEDBF3"/><stop offset="1" stop-color="#D481CF"/></linearGradient><linearGradient id="b" x1="32.5" y1="19" x2="32.5" y2="37" gradientUnits="userSpaceOnUse"><stop offset=".18" stop-color="#FEDBF3"/><stop offset="1" stop-color="#FB3F71"/></linearGradient><linearGradient id="c" x1="12" y1="19" x2="12" y2="37" gradientUnits="userSpaceOnUse"><stop stop-color="#FEFAF1"/><stop offset="1" stop-color="#FC7325"/></linearGradient></defs></svg>