<!-- by TradingView --><svg width="56" height="56" viewBox="0 0 56 56" xmlns="http://www.w3.org/2000/svg"><path fill="url(#a)" d="M0 0h56v56H0z"/><path d="M28.96 11.18c-.37.57-.6 1.06-.7 1.48-.1.37.27.72.17 1.11-.16.58-.24 1.1-.24 1.56 0 .05-.01.1-.05.13-.84.83-1.59 1.65-2.68 2.24a18.4 18.4 0 0 1-3.73 1.5c-.05.02-.08 0-.08-.05a.53.53 0 0 1 .15-.42.1.1 0 0 0-.02-.13.1.1 0 0 0-.05-.02c-.22 0-.52.08-.72.22-.4.3-.89.57-1.45.8-.37.15-1.01.58-1.11.85a1.7 1.7 0 0 1-.95 1.01.15.15 0 0 1-.2-.07.14.14 0 0 1 0-.07l.03-.53c0-.15-.03-.17-.12-.05-.32.4-.62.85-.92 1.36-.28.46-.69.75-.84 1.23a7.01 7.01 0 0 1-.36.8 3.1 3.1 0 0 0-.43 1c-.01.05 0 .1.02.14.35.69.44 1.42.29 2.19-.04.2.02.24.2.13a5.5 5.5 0 0 1 1.1-.57c.8-.27 1.54-.58 2.25-.93.04-.02.08-.01.11.02a.09.09 0 0 1 0 .12c-.34.32-.66.56-.96.73l-2.3 1.26c-.05.02-.06.06-.04.12l.02.04a5.4 5.4 0 0 1 2.46-.33l-.35.49-.77.67c-.17.14-.36.27-.59.37l-.62.31-.11.1c.23.84.66 1.62 1.3 2.34.25.3.48.48.68.56.53.2 1.19.34 1.63.67a2.8 2.8 0 0 1 1.12 2.25c.04.92-.44 1.5-.96 2.15a.8.8 0 0 0-.16.54c0 .06.03.07.07.05l.33-.14c-.39.33-.85.5-1.38.52-.05 0-.07-.03-.07-.08a.54.54 0 0 1 .18-.37c.64-.54 1-1.22 1.07-2.03a.12.12 0 0 0-.11-.13l-.07.01c-.62.31-.76-.38-.66-.81l.25-1.18c.04-.2-.04-.33-.22-.41l-.93-.41a.06.06 0 0 0-.05 0l-.04.03c-.03.01-.03.03-.03.06l.26.89a.1.1 0 0 1-.03.11.1.1 0 0 1-.04.02c-.34.09-.59 0-.75-.24a.24.24 0 0 0-.1-.1l-.14-.05a.13.13 0 0 1-.08-.14l.06-.95c0-.04-.02-.05-.05-.04-.03 0-.05.02-.06.03a.1.1 0 0 1-.1.06l-.93-.01c.19-.47.3-.92.35-1.36.04-.3-.07-.36-.3-.16-.57.46-.93.94-1.77 1.26.57-.69 1.45-1.88 1.3-2.79-.12-.65-.2-1.22-.23-1.7 0-.1.01-.58.05-1.44a6.67 6.67 0 0 0-.27-2.2c.26-.76.8-1.3.92-2.06.18-1.25.21-2.37.75-3.66.19-.44.32-.85.41-1.24.29-1.23.52-1.9.58-2.67l.77-.64c-.16.79-.38 1.56-.65 2.32-.06.17-.09.53-.1 1.08 0 .06.04.1.1.1l.12.01c.04 0 .08-.01.11-.05.41-.6.66-1 .74-1.22.3-.8.67-1.53 1.1-2.19.04-.05.03-.08-.02-.1l-.08-.04c-.03-.01-.06 0-.08.02l-.62.61c-.04.04-.07.03-.08-.02l-.01-.1a.1.1 0 0 1 0-.05 20.53 20.53 0 0 1 1.11-.84c.24-.16.39-.45.45-.87l.72-.36a4.45 4.45 0 0 0-.3 1.74c0 .36-.05.56-.08.86-.04.3 0 .48.13.53a.23.23 0 0 1 .13.14.26.26 0 0 1 0 .2l-.78 1.75c-.04.11-.01.14.1.1a3.79 3.79 0 0 0 1.6-1.12 18.7 18.7 0 0 1 .64-.69l.07-.01h.08l.03.02a.06.06 0 0 1 .02.05l-.01.03a.75.75 0 0 0-.2.34.18.18 0 0 0 .15.22h.09c.3-.1.58-.24.82-.44.68-.52 1.27-.94 1.77-1.28h.04l.04.03v.05c-.79.74-1.52 1.58-2.2 2.52-.15.21-.26.4-.33.57-.08.2-.03.25.16.13.44-.29.98-.64 1.5-.84.96-.38 2.6-1.02 2.81-2.23.04-.22-.15-.33-.34-.33a.14.14 0 0 1-.12-.06.13.13 0 0 1-.03-.1.14.14 0 0 0-.1-.13 2.82 2.82 0 0 0-.67.1h-.05c-.02-.02-.03-.05-.02-.09a.2.2 0 0 1 .06-.11c.58-.53.92-.9 1.03-1.14.14-.3.45-.96.95-1.96.13-.26.06-.34-.21-.23-.4.17-.83.37-1.3.61a.19.19 0 0 1-.1.03.12.12 0 0 1-.1-.08.1.1 0 0 1 .02-.13l.65-.67c.75-.08 1.5-.1 2.28-.03Z" fill="#484848"/><path d="M32.64 11.77c.45.66.94.93 1.52 1.29.77.49.83 1.1 1.17 1.75.31.57.93 1.05 1.25 1.64a18.1 18.1 0 0 1 2.01 6 7.66 7.66 0 0 1-.09 3.03 36.3 36.3 0 0 0-.8 3.7 6.7 6.7 0 0 1 .26-1.61h-.08l-.01.02-.32 2.31-.3.54.04-1.14a.14.14 0 0 0-.15-.14 6.34 6.34 0 0 1-.74.47c-.17.1-.2.06-.1-.1.55-.9.9-1.47 1.06-1.7.57-.93.8-1.92.98-3.03.21-1.21-.04-2.27-.34-3.53a8.84 8.84 0 0 0-.59-1.6c-.23-.52-.74-1.74-1.21-2.58a7.5 7.5 0 0 0-.66-1.04c-.49-.58-.7-.79-.96-1.31a2.1 2.1 0 0 0-.32-.55c-.53-.45-1.54-.54-2.17-.46-.67.09-1.35.46-2.05.81-.71.36-1.32.83-1.81 1.4-.36.4-.57 1.01-.93 1.5-.84.44-1.6.88-2.37 1.5a12.53 12.53 0 0 1-2.06 1.38v.03l.02.02.04.04.92-.26c.05-.02.1 0 .14.02a4.5 4.5 0 0 0 2.21 1c.4.13.68.3.82.52l-.02.45a2.63 2.63 0 0 0-1.72-.63c-.2 0-.22.06-.05.18.34.22.73.39 1.16.51.1.03.17.1.2.2l.06.2c.03.1-.01.14-.12.11l-3.83-1.06a.11.11 0 0 0-.12.04 3.9 3.9 0 0 0-.82 1.34.13.13 0 0 0 .11.12l1.25.14c-1.2.12-1.91.76-2.14 1.93-.42.93-.53 2.42.4 3.12.23.18.9.64 1.3.7.5.05 1-.23 1.39-.45.12-.06.13-.05.03.05-.36.36-.82.62-1.37.78a.12.12 0 0 0-.1.1c-.06.4.12.68.57.87.54.23 1.01.41 1.42.53.07.1.16.17.26.2.05.02.1.04.12.08l.4.44c-.57 0-1.11.08-1.64.24-.18-.1-.33-.1-.43-.02a.13.13 0 0 0-.05.14l.08.51.52.96c.48.67.76 1.23.71 1.93l-.2 3.15c-.03.27.05.41.25.63.47.51.04 1.87-.22 2.41-.1.2-.14.18-.14-.03v-.93c0-.06-.02-.1-.07-.13-.04-.02-.08-.03-.12-.02a.15.15 0 0 0-.12.09 7.75 7.75 0 0 0-.8 3.05c-.01.17.04.4.16.72l-.72-.23c.27-.78.5-1.58.68-2.38.19-.82.44-1.51.7-2.27.1-.3.22-1.1.38-2.4.09-.78.07-1.5-.39-2.08a6.51 6.51 0 0 0-.93-.96c-.61-1.01-1.24-2.01-1.88-3-.3-.46-.56-.95-.77-1.46-.2-.5-.31-1.02-.33-1.57l.12-2.19c0-.05-.02-.07-.06-.03-.1.06-.18.19-.23.36l-.17.15.42-.61c.1-.14.13-.12.12.04l-.1 1.04v.01l.03.03a.03.03 0 0 0 .01-.02l.23-1.31c0-.05-.01-.08-.06-.09h-.06c-.04 0-.07.03-.11.08-.48.62-.99 1.22-1.5 1.82l-.9.78a5.4 5.4 0 0 0-2.42.34c-.01.01-.03 0-.04-.01l-.02-.04c-.02-.06-.01-.1.04-.12l2.3-1.26c.3-.17.62-.4.96-.73a.09.09 0 0 0 0-.12c-.03-.03-.07-.04-.11-.02-.7.35-1.46.66-2.24.93-.4.14-.78.36-1.12.57-.17.11-.23.07-.2-.13.16-.77.07-1.5-.28-2.19a.22.22 0 0 1-.02-.15 3.1 3.1 0 0 1 .46-1.04c.19-.38.3-.63.33-.75.15-.48.56-.77.84-1.23.3-.5.6-.96.92-1.36.09-.12.13-.1.12.05l-.03.53a.14.14 0 0 0 .06.13.14.14 0 0 0 .14.01c.46-.2.77-.54.95-1.01.1-.27.74-.7 1.1-.85a6.6 6.6 0 0 0 1.46-.8c.2-.14.5-.23.72-.22a.1.1 0 0 1 .09.1.1.1 0 0 1-.02.05.53.53 0 0 0-.15.42c0 .05.03.07.08.05a18.4 18.4 0 0 0 3.73-1.5c1.1-.59 1.84-1.4 2.68-2.24a.17.17 0 0 0 .05-.13c0-.46.08-.98.24-1.56.1-.39-.26-.74-.18-1.11.1-.42.34-.91.71-1.48 1.24.05 2.47.24 3.68.59Z" fill="#6D6D6D"/><path d="m26.67 11.21-.64.67a.1.1 0 0 0-.03.13c.02.04.05.07.1.08.03 0 .07 0 .12-.03.46-.24.89-.44 1.29-.6.27-.12.34-.04.2.22l-.94 1.96c-.1.23-.45.61-1.03 1.14a.2.2 0 0 0-.06.11c-.01.04 0 .07.02.08h.06a2.82 2.82 0 0 1 .67-.1l.05.04a.14.14 0 0 1 .04.1c0 .04.01.07.03.1.03.04.07.06.12.06.19 0 .38.11.34.33-.2 1.2-1.85 1.85-2.82 2.23-.51.2-1.05.55-1.5.84-.18.12-.24.07-.15-.14.07-.16.18-.35.33-.56a17.4 17.4 0 0 1 2.2-2.52v-.05l-.04-.03H25c-.5.34-1.1.76-1.77 1.28-.24.2-.52.34-.82.43a.18.18 0 0 1-.23-.21.75.75 0 0 1 .19-.34l.01-.03v-.03a.06.06 0 0 0-.05-.03l-.08-.01a.16.16 0 0 0-.13.05c-.27.29-.46.5-.58.65-.47.56-.99.87-1.6 1.12-.11.04-.14.01-.1-.1l.78-1.76a.27.27 0 0 0 0-.2.24.24 0 0 0-.13-.13c-.12-.05-.17-.23-.14-.53.04-.3.1-.5.08-.86-.02-.58.08-1.16.3-1.74 1.86-.91 3.85-1.45 5.95-1.62Z" fill="#333"/><path d="M35.84 13.03c-.23.67-.18 1.23.17 1.66.73.9 1.21 1.78 1.45 2.62.24.86.54 1.7.88 2.53.45 2.05.87 3.82.37 5.8-.09.37-.24 1.06-.42 1.42-.1.21-.07.43-.1.65 0 .06-.01.06-.04 0a.25.25 0 0 1-.01-.15h-.01c-.05.82-.24 1.6-.58 2.34l.32-2.31.01-.02h.08a6.7 6.7 0 0 0-.26 1.62c.14-.93.4-2.16.8-3.71.23-.87.26-1.88.1-3.03a18.1 18.1 0 0 0-2.02-6c-.32-.6-.94-1.07-1.25-1.64-.34-.65-.4-1.26-1.17-1.75-.58-.36-1.07-.63-1.52-1.3 1.1.31 2.18.73 3.2 1.27Z" fill="#484848"/><path d="m38.04 14.35-.76-.34a.17.17 0 0 0-.15 0 .55.55 0 0 0-.31.37.2.2 0 0 0 .01.15c.14.25.22.43.24.53.46 1.58.89 3.18 1.27 4.78a21.9 21.9 0 0 1-.88-2.53 7.54 7.54 0 0 0-1.45-2.62c-.35-.43-.4-.99-.17-1.66l2.2 1.32Z" fill="#222"/><path d="M20.02 13.19c-.07.42-.22.7-.46.87a20.57 20.57 0 0 0-1.1.84.1.1 0 0 0-.01.05l.02.1c0 .05.03.06.07.02l.62-.61c.02-.03.05-.03.08-.02l.08.04c.05.02.06.05.03.1-.44.66-.81 1.4-1.1 2.19-.09.22-.34.63-.75 1.22a.12.12 0 0 1-.11.05h-.11c-.07 0-.1-.04-.1-.11 0-.55.03-.91.09-1.08.27-.76.49-1.53.65-2.32l2.1-1.34Z" fill="#333"/><path d="m37.25 30.44-.94 1.65c-.4-.68-1.01-.99-1.8-.92-.1.05-.16.04-.21-.04a.1.1 0 0 1 0-.12c.12-.16.14-.45.08-.86-.02-.14.01-.15.1-.02.06.07.09.22.1.44 0 .2.06.22.18.04.05-.07.09-.2.12-.4 0-.04 0-.08-.02-.12l-.14-.24c-.03-.05-.02-.08.04-.1l.44-.1c.09-.02.09-.03 0-.02l-.6.05a.16.16 0 0 1-.13-.04.93.93 0 0 0-.27-.18c-.14.29-.22.59-.23.89 0 .16-.01.17-.04 0a3.8 3.8 0 0 0-.44-1.28c-.02-.05-.01-.08.04-.08s.07-.04.08-.11c0-.07.04-.09.1-.06 1.03.5 1.87.28 2.52-.65a8.76 8.76 0 0 0 1.35-2.89c.28-1.09-.1-2.3-.65-3.26a.6.6 0 0 0-.48-.32c-.29-.03-.58-.07-.86-.13-.28-.02-.52.02-.73.12l-2.23-.18 2.41-.23 1.62-.25c.04 0 .08 0 .1.04l.2.2a.03.03 0 0 1 .01.02v.01h-.02l-.68.1a.05.05 0 0 0-.03.02v.13a.05.05 0 0 0 .03.03.04.04 0 0 0 .04 0c.2-.13.43-.2.67-.24.02 0 .03 0 .03.03v.05a.63.63 0 0 0-.44.07c-.03.02-.04.05-.02.08l.03.03a.07.07 0 0 0 .05.02l.03-.02.02-.02c.07-.17.19-.21.36-.13.1.05.18.17.27.25.03.04.05.03.04-.02-.24-1.92-1.27-3.53-2.23-5.17-.17-.3-.34-.51-.5-.66-.85-.79-1.25-1.48-2.54-.96l-1.88.81c-.42.2-.83.41-1.22.67-.57.38-1.06.78-1.68 1.07.36-.49.57-1.1.92-1.5.5-.57 1.1-1.04 1.82-1.4.7-.35 1.38-.72 2.05-.8.63-.09 1.64 0 2.16.45.08.07.19.25.33.55.26.52.47.73.96 1.3.15.19.37.53.66 1.05.47.84.97 2.06 1.21 2.57.28.6.47 1.14.59 1.61.3 1.26.55 2.32.34 3.53a7.96 7.96 0 0 1-.98 3.02l-1.07 1.7c-.1.17-.07.2.1.1a6.35 6.35 0 0 0 .75-.46.14.14 0 0 1 .14.14l-.03 1.14Z" fill="#7C7C7C"/><path d="M38.28 14.54c1.5 1.1 2.75 2.46 3.77 4.06-.38.33-.46.63-.25.93.3.39.8.81 1.5 1.26.52.95.9 1.97 1.13 3.05l-.52.01c-.56.05-1.07-.96-1.32-1.44a2 2 0 0 0-.04-.26c-.18-.15-.33-.11-.45.12-.19.37-.3.69-.53 1.03-.3.47-.5.84-.57 1.1-.25.97-.5 1.81-.72 2.53-.1.31-.21.95-.31 1.92-.05.43.05.75.3.96l.27.24c.26.34.13 1 0 1.39-.33.92-.88 2-1.63 2.47-.49.3-1.2.72-2.16 1.26-.13.07-.3.24-.52.52a.1.1 0 0 0-.01.12c.2.39.3.8.3 1.21l-.69-1 .47-1.57a.19.19 0 0 1 .09-.12 48.7 48.7 0 0 1 1.7-.91c.8-.41 1.12-.98 1.07-1.9a4.6 4.6 0 0 1 .05-1.23c.45-1.78.9-4.13 1.5-6.17.16-.5.43-.96.67-1.46.14-.28.06-.88.11-1.17.1-.6.18-1.5-.25-1.9-.22-.2-.38-.38-.48-.51-.28-.38.07-.9.07-1.34 0-.52-.22-.95-.65-1.28a9.52 9.52 0 0 1-1.9-1.92Z" fill="#161616"/><path d="m35.04 21.28.64-.17h.01l-.01-.01-.03-.02c-.86.25-1.75.37-2.67.37-.1 0-.11-.02 0-.05.45-.13.93-.23 1.46-.31.66-.03 1.26-.2 1.8-.5a.24.24 0 0 0 .1-.3c-.38-.8-.96-1.7-1.3-2.36l-.89-1.8c-.08-.17-.19-.25-.33-.25-.65 0-1.32.18-2.03.51-.56.27-1.83 1.02-3.8 2.25-.12.07-.33.25-.63.55-.49.47-.33 1.86-.32 2.5h-.02c-.14-.21-.41-.39-.82-.52a2.9 2.9 0 0 0-.85-.3.9.9 0 0 1-.4-.22c-.04-.03-.04-.07 0-.11.4-.46.88-1.16 1.47-2.1.2-.32.49-.65.88-1 .62-.3 1.11-.7 1.68-1.07.39-.26.8-.48 1.23-.67.94-.42 1.57-.69 1.87-.8 1.3-.53 1.7.16 2.54.95.17.15.33.37.5.66.96 1.64 1.99 3.25 2.23 5.16.01.06 0 .07-.04.03-.09-.08-.16-.2-.27-.25-.17-.08-.29-.04-.36.13a.07.07 0 0 1-.05.04.07.07 0 0 1-.05-.02.15.15 0 0 1-.03-.03c-.02-.04-.01-.06.02-.08.13-.07.28-.1.44-.07v-.05c0-.02-.01-.03-.03-.03a1.78 1.78 0 0 0-.7.24h-.01l-.02-.02v-.02l-.02-.09a.05.05 0 0 1 .01-.03l.02-.02h.02l.67-.1h.02v-.04l-.2-.2a.12.12 0 0 0-.1-.03l-1.63.25Z" fill="#A9A9A9"/><path d="M17.15 15.17c-.06.78-.3 1.44-.58 2.67-.09.39-.22.8-.4 1.24-.55 1.29-.58 2.4-.76 3.67-.11.76-.66 1.3-.92 2.05.08-.4.23-.76.43-1.09.25-.4.33-.65.38-1.08.13-.95.18-1.9.17-2.85 0-.43.02-.96.1-1.61.05-.53.1-1.07.12-1.62l1.46-1.38Z" fill="#333"/><path d="m34.44 21.09.38-.16c.05-.02.06-.05.03-.1-.53-.96-1.65-2.7-2.95-2.6-.34.04-.6.15-.8.35-.37.37-.63.84-.79 1.43-.47.08-.37.69-.35 1.01 0 .06-.02.1-.06.15l-.3.3a.17.17 0 0 0-.05.13c.06.96.06 1.56.02 1.8l-.38 2.58a.2.2 0 0 1-.04.09.43.43 0 0 1-.1.08.19.19 0 0 1-.08.03c-.07 0-.1-.03-.08-.1.14-.47.17-.96.08-1.47a9.9 9.9 0 0 1-.03-.58c0-.38.22-.64.24-1 .05-.92-.26-1.7-.92-2.36a.97.97 0 0 0-.4-.28.26.26 0 0 1-.18-.22 2.5 2.5 0 0 0-.08-.55c-.05-.13-.12-.2-.23-.2a.12.12 0 0 0-.12.08c-.1.3-.16.56-.16.77.02.59 0 1.06-.05 1.41-.01-.63-.17-2.02.32-2.5.3-.29.5-.47.62-.54a54.35 54.35 0 0 1 3.81-2.25c.7-.33 1.38-.5 2.03-.51.14 0 .25.08.33.26.3.63.6 1.23.9 1.8.33.65.9 1.54 1.3 2.35a.24.24 0 0 1-.1.3c-.55.3-1.15.47-1.81.5Z" fill="#CECECE"/><path d="M15.7 16.55c-.04.55-.08 1.09-.14 1.61-.07.65-.1 1.2-.1 1.62.02.95-.03 1.9-.16 2.85a2.3 2.3 0 0 1-.38 1.08c-.2.33-.35.69-.43 1.08.21.73.3 1.46.27 2.21-.04.86-.06 1.34-.05 1.43.04.49.11 1.05.22 1.71.16.9-.72 2.1-1.3 2.79-.16.2-.35.38-.57.52a.22.22 0 0 0-.09.11c-.1.31-.3.57-.59.78l-.13-.27c.29-.32.58-.61.9-.9.43-.39.72-.69.87-.88.58-.8.93-1.7.63-2.7a14.46 14.46 0 0 1-.07-3.09c0-.14-.08-.69-.28-1.65-.03-.15-.04-.5-.04-1.05 0-.22.05-.42.16-.61.33-.58.5-1.23.5-1.96.01-.55-.05-1.12 0-1.82.05-.94.08-1.3.02-1.8 0-.06-.04-.07-.09-.03a.57.57 0 0 0-.16.23c-.03.07-.1.11-.18.12l1.18-1.38Z" fill="#222"/><path d="M34.44 21.09c-.53.08-1.01.18-1.47.31-.1.03-.1.05 0 .05a9.65 9.65 0 0 0 2.7-.35l.02.01-.65.17-2.41.22-.37.08c-.32.04-.61.14-.9.28a.2.2 0 0 1-.15.01l-.1-.03c-.07-.01-.11.01-.13.07a.47.47 0 0 0-.02.23 10.8 10.8 0 0 0-.65-2.13c.16-.59.42-1.06.78-1.43.2-.2.47-.31.81-.34 1.3-.12 2.42 1.63 2.95 2.59.03.04.02.08-.03.1l-.38.16Z" fill="#DFDFE0"/><path d="M27.3 17.44c-.4.35-.69.69-.88 1-.59.94-1.08 1.64-1.48 2.1-.03.04-.03.08.01.11.11.1.25.19.4.22.31.06.6.16.85.3a4.5 4.5 0 0 1-2.21-1 .14.14 0 0 0-.14-.03l-.91.27h-.02l-.03-.04a.06.06 0 0 1-.02-.05.06.06 0 0 1 .03-.04c.72-.38 1.4-.83 2.03-1.34.76-.62 1.53-1.06 2.37-1.5Z" fill="#7C7C7C"/><path d="M43.3 20.8a5.7 5.7 0 0 1-1.5-1.27c-.21-.3-.13-.6.25-.93.49.67.9 1.4 1.25 2.2Z" fill="#333"/><path d="M28.26 20.67c-.88.89-.17 1.67.33 2.48.17.28.3.77.38 1.46.09.51.06 1-.08 1.47-.02.07 0 .1.08.1l.09-.02a.42.42 0 0 0 .09-.1.2.2 0 0 0 .04-.08l.38-2.57a12.5 12.5 0 0 0 0-1.88c0-.03.02-.05.03-.06l.3-.3c.04-.04.06-.1.06-.15-.02-.32-.12-.93.35-1.01.29.67.5 1.38.65 2.13l.06.9-.23 2.05c.75 2.05.86 4.13 1.15 6.25.07.53.04 1.04-.11 1.53-.24-.07-.43-.06-.58.03.39 1.11.5 2.18.35 3.2-.06.36-.14.36-.26.02-.3-.92-.49-1.92-.53-2.98 0-.03 0-.05.03-.07l.03-.03c.02-.02.02-.04 0-.06-.08-.09-.15-.13-.21-.14-.06 0-.08.02-.08.08 0 .61.01.96.03 1.05.17 1.11.26 1.82.29 2.13.06.82-.08 1.78-.43 2.87-.27.86-.79.95-1.4.34a.2.2 0 0 1-.07-.15l-.02-1.3-.01-.79c0-.01-.01-.02-.03-.02l-.05-.02c-.04 0-.06 0-.06.05l-.15 1.6-.04.1-.04.72c-.02.27-.06.5-.14.7-.18.44-.4.85-.69 1.22-.15.2-.37.27-.57.08a.2.2 0 0 1-.06-.13c-.1-.98-.05-1.93-.13-2.95a9.47 9.47 0 0 1 .14-3.09c.17-.6.42-1.48.46-2.28l.1-1.98a5.6 5.6 0 0 0-.42-2.32c-.1-.28-.37-.23-.52-.43-.32-.4-.31-1.5-.32-2l.1-.5a.14.14 0 0 1 .25-.05l.26.36c.08.12.13.1.16-.03.17-.76.1-1.51-.2-2.24-.08-.21-.1-.45-.1-.7l.08-1.02.02-.45h.02c.05-.36.07-.83.05-1.42 0-.2.05-.47.16-.77a.12.12 0 0 1 .12-.08c.1 0 .18.07.23.2.03.12.06.3.08.55 0 .05.02.1.06.13.03.04.07.07.12.09.14.05.27.14.4.28Z" fill="#F0F0F0"/><path d="M38.68 20.46c.15.93.4 1.76.67 2.66.12.4.12.88 0 1.42l-.52 1.52c.15-.76.4-1.55.35-2.28a5.01 5.01 0 0 0-.27-1.3 204 204 0 0 0-.29-1.43c-.05-.27-.03-.47.06-.59Z" fill="#222"/><path d="M38.68 20.46c.3.89.55 1.76.75 2.62.12.5.1.99-.07 1.46.11-.54.1-1.02-.01-1.42-.28-.9-.53-1.73-.67-2.66Z" fill="#161616"/><path d="M28.97 24.61a3.88 3.88 0 0 0-.38-1.46c-.5-.8-1.21-1.6-.33-2.48.66.66.96 1.44.92 2.36-.02.36-.24.62-.24 1 0 .2.02.39.03.58Z" fill="#DFDFE0"/><path d="M18.45 22.53a.14.14 0 0 0 .08.2c.02.01.05.02.08 0 .24-.05.49-.04.75.05a.29.29 0 0 1 .2.27 13.19 13.19 0 0 0-.43 1.05c-.24.65-1.22 1.2-1.86 1.51-.4.2-.78.23-1.14.09-.52-.2-.95-.36-1.3-.51-.06-.03-.07-.06-.04-.11.32-.45.8-1.14 1.46-1.56.4-.25.79-.58 1.18-.99.46-.49 1-.83 1.5-1.1.04-.03.07-.02.09.02l.02.07-.02.06-.57.95Z" fill="#7C7C7C"/><path d="m27 22.14-.08 1.01a3.01 3.01 0 0 0-1.21-.65c-.44-.12-.98-.03-1.5-.18a11.4 11.4 0 0 0-.91-.1 1 1 0 0 0-.53.1 8 8 0 0 0-.56.32.17.17 0 0 0-.03.07c-.03.16.05.26.24.3.34.09.64.07 1.04.18.45.14.9.3 1.36.48l-1.7-.39-1.25-.14a.13.13 0 0 1-.1-.17c.17-.46.44-.9.8-1.28a.11.11 0 0 1 .13-.04l3.83 1.06c.1.03.15 0 .12-.12l-.06-.2a.27.27 0 0 0-.2-.2 4.1 4.1 0 0 1-1.16-.5c-.17-.12-.15-.17.05-.18.63 0 1.2.2 1.72.63Z" fill="#333"/><path d="m32.63 21.5 2.23.19c.42-.03.65.1.7.39.03.2-.03.23-.17.08-.12-.13-.3-.25-.54-.36a.2.2 0 0 0-.14-.02l-.47.12c-.59-.31-1.33-.28-1.98-.32l.37-.08Z" fill="#A9A9A9"/><path d="m35.59 21.57.31.3a.2.2 0 0 1 0 .29.2.2 0 0 1-.09.05c-.74.22-1.58.3-2.52.24-.05 0-.08-.03-.08-.08l.01-.07c.01-.02.05-.04.1-.06a.25.25 0 0 0 .14-.14l.78-.2.47-.12a.2.2 0 0 1 .14.02c.24.11.42.23.54.36.14.15.2.12.17-.08-.05-.29-.28-.42-.7-.4.21-.1.45-.13.73-.11Z" fill="#CECECE"/><path d="M34.2 29.46a4.57 4.57 0 0 1 .05 1.65.18.18 0 0 0 .18.12c.02 0 .04-.02.07-.06.8-.07 1.4.24 1.8.92-.4.54-.65 1.2-.72 2-.06.72.02 1.37.25 1.93l.7 1c0 .04.03.07.07.09l.24.27c.33.39.71.7 1.16.94.81.44 1.63.86 2.46 1.28l-.4.44a19.15 19.15 0 0 0-2.92-1.98 2.06 2.06 0 0 0-1.84-.09.23.23 0 0 1-.33-.2c-.07-.81-.18-1.64-.31-2.46-.08-.5.14-1.14.2-1.65.02-.22-.08-.56-.3-1.01-.05-.1-.1-.32-.17-.7 0-.22-.03-.42-.13-.6-.1-.23-.25-.3-.43-.22l-.9.39v-.06l.48-.32a.07.07 0 0 0 .03-.05.1.1 0 0 1 .07-.1c.14-.03.24-.1.3-.17a.13.13 0 0 0-.05-.2.13.13 0 0 0-.07-.01l-.58.07c.17-.67.13-1.37-.13-2.08a.5.5 0 0 0 .24.15c.07.01.11 0 .14-.06.02-.05 0-.1-.04-.18.71.18 1.61.26 2.05-.24.93-1.03 2.28-3.41 1.13-4.67-.03-.03-.07-.04-.12-.02-.31.17-.67.21-1.05.13l.8-.17c.14 0 .22-.02.25-.1.02-.04 0-.1-.03-.19a1.2 1.2 0 0 1-.08-.2.39.39 0 0 0-.38-.28h-2.86c-.14 0-.35.03-.63.1-.36.16-.8.47-1.2.46.03-.2.03-.4-.01-.62a.12.12 0 0 1 .02-.1.12.12 0 0 1 .09-.05c.71-.04 1.44-.2 2.16-.46a.25.25 0 0 1-.14.14c-.05.02-.09.04-.1.06a.11.11 0 0 0-.01.07c0 .05.02.08.08.08.94.05 1.78-.02 2.52-.24a.2.2 0 0 0 .15-.14.2.2 0 0 0-.06-.2l-.31-.3c.28.06.57.1.86.12.21.02.37.13.48.33.55.97.93 2.17.65 3.26-.27 1.05-.72 2.01-1.35 2.9-.65.92-1.5 1.13-2.51.64-.07-.03-.1-.01-.11.06 0 .06-.03.1-.08.1-.05.01-.06.04-.04.09.24.44.39.87.44 1.28.02.16.04.16.04 0 0-.3.08-.6.23-.89Z" fill="#A9A9A9"/><path d="M32.26 21.58c.65.04 1.4.01 1.98.32l-.78.2a7.67 7.67 0 0 1-2.21.47.12.12 0 0 0-.06.08v.06c.04.21.04.42 0 .62-.07-.07-.1.03-.12.3l-.05-.59-.06-.9a.47.47 0 0 1 .02-.23c.02-.06.06-.08.13-.06l.1.02c.05.02.1.01.15-.01.29-.14.58-.24.9-.28Z" fill="#6D6D6D"/><path d="M42.6 22.4c.17.6.4 1.11.7 1.55.17.25.15.26-.06.04-.43-.46-.92-.5-1.46-.1-.74.51-.7 1.68-.96 2.33a4.67 4.67 0 0 0-.22 2.53.07.07 0 0 0 .1 0l.9-.9c.22-.22.3-.18.2.12l-1.1 4.01V32l.03.03c.01.02.02.01.03 0l.65-1.82c.01-.03 0-.04-.02-.02h.01c.02.01.02.02.02.03a17 17 0 0 1-.88 2.45 5.26 5.26 0 0 1-2.2 2.6c-.52.3-.96.48-1.5.93a.1.1 0 0 0-.04.13l.16.51c.03.12.1.17.22.16a6.44 6.44 0 0 1 1.88.1c.05 0 .09.03.11.08l.74 1.27a.12.12 0 0 1-.06.17.12.12 0 0 1-.06 0 .56.56 0 0 1-.2-.09 8.8 8.8 0 0 0-2.8-1.27l-.2-.14a.14.14 0 0 1-.06-.09 2.9 2.9 0 0 0-.31-1.2.1.1 0 0 1 .01-.13c.22-.28.4-.45.52-.52a69.8 69.8 0 0 0 2.16-1.26c.75-.47 1.3-1.55 1.62-2.48.14-.38.27-1.04.01-1.38l-.27-.24c-.25-.2-.35-.53-.3-.96.1-.97.2-1.6.3-1.92.24-.72.48-1.56.73-2.53.07-.26.26-.63.57-1.1.22-.34.34-.66.53-1.03.12-.24.27-.27.45-.12l.04.26Z" fill="#222"/><path d="M26.92 23.15c0 .26.02.5.1.7-.02.2-.15.16-.4-.11l-1.8-.07c-.45-.18-.9-.34-1.36-.48-.4-.12-.7-.1-1.04-.17-.19-.05-.27-.15-.24-.31a.17.17 0 0 1 .08-.12l.5-.26a1 1 0 0 1 .54-.1c.55.04.86.07.91.09.52.15 1.06.06 1.5.18.46.12.86.34 1.21.65Z" fill="#161616"/><path d="m44.43 23.84.33 1.58c-.26 1.3-.47 2.5-.58 3.9-.06.71-.13 1.63-.24 2.75-.04.53-.02 1.1.07 1.72a.75.75 0 0 1-.2.43c-.6-.86-.48-1.5-.45-2.49.02-1.04.1-1.8.22-2.28.45-1.81.69-2.68.8-4.02a.1.1 0 0 0-.16-.1 2.1 2.1 0 0 0-.77.97c-.2.43-.41.85-.64 1.27-.4.56-.68 1.07-.86 1.53-.18.48-.52 1.5-1 3.08-.42.95-.82 1.71-1.19 2.27a5.3 5.3 0 0 1-1.55 1.52c-.3.2-.54.39-.76.64-.16.2-.12.26.13.21.67-.14 1.2-.57 1.82-1.08.23-.18.28-.14.16.12-.41.85-.26 1.62.46 2.3.3.3.62.6.95.9l-.29.3a2.85 2.85 0 0 0-.35-.21c-.97-.51-1.94-1-2.91-1.49-.1-.05-.31-.19-.63-.41 1 .26 1.94.68 2.8 1.27.07.05.14.08.2.1a.12.12 0 0 0 .12-.18l-.74-1.27a.17.17 0 0 0-.1-.09 6.44 6.44 0 0 0-1.89-.09c-.11 0-.19-.04-.22-.16l-.16-.51a.1.1 0 0 1 .04-.13c.54-.45.98-.64 1.5-.93a5.26 5.26 0 0 0 2.2-2.6 17 17 0 0 0 .86-2.47v-.01c.01-.02.02-.01.01.02L40.76 32c0 .02-.02.03-.03.01l-.03-.03 1.1-4.02c.1-.3.02-.34-.2-.12l-.9.9a.07.07 0 0 1-.1 0 4.67 4.67 0 0 1 .22-2.53c.25-.65.22-1.82.96-2.34.54-.39 1.03-.35 1.46.1.2.23.23.22.06-.03-.3-.44-.53-.95-.7-1.54.24.48.75 1.5 1.31 1.44a4 4 0 0 1 .52-.01Z" fill="#333"/><path d="m36.6 22.47.14.17c.07.25 0 .32-.22.21-.62-.3-1.47-.19-2.85-.21-.02 0-.03-.01-.02-.03 0-.02.01-.03.03-.03a17.97 17.97 0 0 0 2.87-.14l.04.03Z" fill="#7C7C7C"/><path d="m38.83 26.06-.32.68c-.01.02-.03.03-.05.02-.02-.01-.02-.03-.02-.04.46-1.5.73-2.7.47-4.25.15.44.24.88.27 1.31.04.72-.2 1.52-.35 2.28Z" fill="#333"/><path d="M32.4 22.87c.36 0 .68.1.96.25.13.08.31.11.43.08.78-.2 1.3-.3 1.54-.31.37-.01.65.13.83.41a.11.11 0 0 1-.1.17 1.76 1.76 0 0 0-.6.14h-.01v.03l.03.03.65-.12-.8.16-.33.12-2.28.2a2.86 2.86 0 0 0-1.58-.13c-.05.02-.08 0-.08-.06l.01-.22c.01-.26.05-.35.12-.29.41 0 .85-.3 1.22-.46Z" fill="#222"/><path d="M31.07 23.62v.22c0 .05.02.08.07.06a2.86 2.86 0 0 1 1.58.12 17.02 17.02 0 0 0 3.04-.16l-.76-.03.33-.12c.39.08.74.04 1.05-.13.05-.02.09-.01.12.03 1.15 1.25-.2 3.63-1.13 4.66-.44.5-1.34.42-2.04.24l-.93-.85c1.1.15 1.93.01 2.61-.94a3.5 3.5 0 0 0 .67-1.9.06.06 0 0 0-.03-.03h-.03c-.92.07-1.88.12-2.87.14-.28.01-.75.12-1.42.33-.16.05-.34 0-.54-.17l.23-2.05.05.58Z" fill="#CECECE"/><path d="m23.12 23.29 1.7.38 1.8.07c-.96.12-1.91.13-2.85.02-.13 0-.13-.03 0-.05a.8.8 0 0 1 .26 0h.05l-.02-.01c-.78-.06-1.8.3-2.15 1.07a6.5 6.5 0 0 0-.54 2.15c-.02.07 0 .13.04.2 1.13 1.55 2.67 1.04 3.95-.03l.64.04c.06 0 .07.02.02.05-.56.34-1.22.77-1.98 1.3-.66.47-1.32.53-2 .17-.74-.4-1.23-.88-1.28-1.78-.03-.59.04-1.14.22-1.65.23-1.17.94-1.81 2.14-1.93Z" fill="#7C7C7C"/><path d="M26.61 23.74c.26.28.39.32.4.12.3.73.38 1.48.21 2.24-.03.14-.08.15-.16.04l-.26-.37a.14.14 0 0 0-.22-.02.14.14 0 0 0-.03.08l-.1.49c-.05.2-.07.41-.06.62a1.3 1.3 0 0 1-.05.03l-.01-.1c-.02-.1-.04-.1-.08 0l-.04.1a.1.1 0 0 1-.1.08l-.75.04c-1.28 1.07-2.82 1.58-3.95.02a.23.23 0 0 1-.04-.2l.03-.13a6.5 6.5 0 0 1 .51-2.01c.34-.77 1.37-1.13 2.15-1.07h.02-.05a.8.8 0 0 0-.27.01c-.12.02-.12.04 0 .05.95.1 1.9.1 2.85-.02ZM35 23.83l.76.03a17 17 0 0 1-3.04.16l2.28-.19Z" fill="#A9A9A9"/><path d="M40.81 27.33a.13.13 0 0 1-.03-.11c.1-.7.41-1.87.97-2.38a.27.27 0 0 1 .36 0c.37.3 1.23 1.21.35 1.6-.51.24-.82.71-1.27 1.05a.13.13 0 0 1-.13.02.65.65 0 0 1-.25-.18Z" fill="#484848"/><path d="m32.4 27.66-.76-.4c-.04-.02-.06-.01-.05.03v.08c0 .02.02.03.03.03.4.1.68.32.87.67.03.54.1 1.08.2 1.61.05.21 0 .47-.16.78-.2.4-.2.64-.05 1.02-.02.07-.02.13 0 .16.03.05.07.06.12.04l.33-.16.9-.4c.18-.07.32 0 .43.23.1.18.14.38.13.6-.1.62-.2 1.22-.34 1.83a10.2 10.2 0 0 0-.27 1.7l-.05 1.74c0 .03-.02.04-.05.04h-.04c-.03.01-.05 0-.05-.03-.07-.86-.22-1.69-.45-2.5.54-.56.7-1.44.96-2.15.02-.06.01-.1-.03-.14a.2.2 0 0 0-.09-.04c-.04-.01-.09.01-.14.07a2.4 2.4 0 0 0-.77 2.13c-.22.55-.13 1.3-.12 2.15 0 .46-.04.88-.14 1.25-.38 1.4-.72 2.82-1.54 3.87-.54.7-1.23.71-1.99.36a.13.13 0 0 1-.08-.1l-.18-1.55-.06-1.1.02-1.62.02 1.3c0 .06.03.1.07.15.61.61 1.13.52 1.4-.34.35-1.1.49-2.05.43-2.87-.03-.3-.12-1.02-.3-2.13 0-.09-.02-.44-.02-1.05 0-.06.02-.08.08-.08s.13.05.2.14c.03.02.03.04 0 .06l-.02.03a.1.1 0 0 0-.03.07c.04 1.06.22 2.06.53 2.98.12.34.2.34.26-.02a6.62 6.62 0 0 0-.35-3.2c.08.06.21.1.38.08.13 0 .2-.04.2-.1.15-.5.18-1.01.1-1.54-.28-2.12-.4-4.2-1.14-6.25.2.16.38.22.53.17.68-.21 1.15-.32 1.43-.33a56.42 56.42 0 0 0 2.92-.13.06.06 0 0 1 .01.04 3.5 3.5 0 0 1-.67 1.88c-.69.95-1.51 1.09-2.61.94Z" fill="#DFDFE0"/><path d="M20.43 25.3c-.02-.02-.02-.04-.02-.07 0-.02.01-.03.03-.04a.4.4 0 0 1 .06-.03c.07-.02.1 0 .08.07l-.21 1.24-.02.02h-.05c-.01 0-.02-.01-.02-.03l.19-1.06a.1.1 0 0 0-.04-.1ZM20.98 25.21a4.34 4.34 0 0 0-.22 1.66c.05.9.54 1.37 1.29 1.78.67.35 1.34.3 2-.16a33.2 33.2 0 0 1 1.97-1.31c.05-.03.04-.05-.01-.05l-.65-.04.75-.04a.1.1 0 0 0 .1-.08l.04-.1c.04-.1.06-.1.08 0l.01.1c.03.15.02.3-.01.43-.02.05-.05.08-.1.08a.74.74 0 0 0-.44.14c-.44.36-.84.76-1.22 1.23-.35.43-.4.91-.14 1.45l-.55-.13c-.19-.04-.21 0-.06.13l.28.22.52.4c-.4-.12-.88-.3-1.42-.53-.45-.2-.63-.48-.56-.87 0-.05.04-.08.09-.1a3.26 3.26 0 0 0 1.37-.78c.1-.1.09-.11-.03-.05-.39.22-.88.5-1.38.44a3.68 3.68 0 0 1-1.32-.69c-.92-.7-.81-2.19-.39-3.13Z" fill="#484848"/><path d="M30.37 26.97c-.16-.61-.07-1.03.03-1.72a.04.04 0 0 1 .04-.04h.06a.08.08 0 0 1 .07.02.08.08 0 0 1 .02.07c-.12.74-.13 1.3-.03 1.66a21.22 21.22 0 0 1 .43 1.88c.14.8.31 1.67.5 2.6a.8.8 0 0 1-.03.27c-.02.07-.06.09-.12.07l-.07-.02c-.06-.01-.1-.06-.08-.12.04-.22.04-.38.02-.48-.3-1.19-.48-2.78-.84-4.2Z" fill="#DFDFE0"/><path d="M43.81 34.22c0 .02 0 .04-.02.07-.58-.31-.76-1.26-.68-1.84.05-.33 0-.64-.05-.88-.04-.24-.13-.26-.27-.06a4.9 4.9 0 0 0-.84 2.15c-.03.3-.1.66-.19 1.09a.28.28 0 0 0 0 .16c.18.51.27.97.26 1.36 0 .05-.02.07-.07.05-.67-.35-.98-.9-1.22-1.6a.12.12 0 0 0-.22 0c-.5.92-.6 1.92-.35 2.97.13.51.47.89 1 1.12l-.19.25c-.33-.3-.65-.6-.95-.9-.72-.68-.87-1.45-.46-2.3.12-.26.07-.3-.16-.12-.62.51-1.15.94-1.82 1.08-.25.05-.3-.02-.13-.21.22-.25.46-.45.76-.64a5.3 5.3 0 0 0 1.55-1.52c.37-.56.77-1.32 1.19-2.27.28-.29.48-.66.58-1.12.28-1.21.7-2.38 1.28-3.5.23-.4.44-.83.64-1.26.2-.44.4-.72.77-.97a.1.1 0 0 1 .17.1c-.12 1.34-.36 2.2-.81 4.02-.12.47-.2 1.24-.22 2.28-.03.99-.15 1.63.45 2.49Z" fill="#6D6D6D"/><path d="m19.73 26.28-.24.5-.78.49c.51-.6 1.01-1.2 1.5-1.82.04-.05.07-.07.11-.08h.06c.05.01.07.04.06.09l-.23 1.31v.02l-.05-.03.1-1.05c.02-.16-.01-.18-.1-.04l-.43.61Z" fill="#484848"/><path d="m20.07 28-.17-.87c-.04-.19-.1-.2-.2-.03-.14.3-.3.67-.46 1.11-.14.4-.16.73.06 1.08.1.16.35.45.74.86.51.55.82 1.23.91 2.04l.1.89.27 1.62c.16 1.08.35 1.65 1.41 1.92.1.02.19-.01.25-.1.26-.39.43-.81.5-1.26a.97.97 0 0 0-.13-.58l-.27-.54.28.39.23.42c.24.88.34 2.02-.55 2.6-.63.41-.64-.27-1.08-.21-.16.02-.28.12-.37.3l-.47.94c-.42.77-1.57.91-2.34.84-.2-.02-.28-.14-.27-.37.48-.13.92-.35 1.3-.66.8-.55 1.29-1.3 1.44-2.23a.1.1 0 0 0 0-.07.12.12 0 0 0-.05-.05c-.05-.03-.08-.02-.11.03-.54 1.04-.8 1.63-1.8 2.12-.01 0-.03 0-.03-.02l-.02-.07c-.01-.03 0-.05.01-.07.48-.52.87-1.06 1.18-1.62.14-.26.2-.54.21-.83.03-1.07-.08-2.09-.82-2.94-.43-.5-.83-.34-1.45-.18-.81.2-1.46-.04-1.95-.74-.53-.77-.89-1.34-1.05-1.72l.1-.1a5.02 5.02 0 0 0 2.48 2.48.15.15 0 0 0 .15-.14c.07-.78.33-1.66.29-2.33a3.73 3.73 0 0 0-.31-1.25l.64-.69a3.4 3.4 0 0 0 1.05-1.1c.13-.22.17-.46.13-.73.05-.18.13-.3.23-.37.04-.03.06-.02.06.03l-.12 2.2Z" fill="#161616"/><path d="M19.9 26.14c.05.26 0 .5-.13.73a3.4 3.4 0 0 1-1.05 1.1l.77-1.2.24-.49.17-.14Z" fill="#222"/><path d="M26.45 26.32c0 .5 0 1.6.32 2 .15.2.42.15.52.42.32.82.46 1.6.42 2.33l-.1 1.98c-.04.8-.3 1.68-.46 2.28-.23.86-.22 1.9-.14 3.09.08 1.02.02 1.97.13 2.95 0 .05.02.1.06.13.2.19.42.13.57-.08.28-.38.5-.78.69-1.22.08-.2.12-.43.14-.7 0-.24.02-.48.04-.72.05 1.21.06 2.42.04 3.63-.01.5.03 1.1 0 1.67-.02.3-.16.6-.2.92l-2.5-.12c.08-.48.17-.95.28-1.41.14-.6.21-1.07.22-1.4.04-1.1.11-2.05.06-3.22a50.45 50.45 0 0 1-.01-3.47c.01-.68.08-1.78.87-2 .05-.02.07-.05.05-.1-.2-.64-.46-1.44-.2-2.01.18-.4.42-.96.15-1.32l-.26.6-.01.02h-.01c-.01.01-.02 0-.01-.01.1-.45.07-.88-.09-1.3 0-.02-.01-.02-.03-.02h-.01l-.02.03v.04l.07 1.07-.08-1.11c0-.05-.02-.1-.05-.14-.34-.4-.5-.87-.5-1.4v-.79c-.02-.2 0-.42.05-.62Z" fill="#DFDFE0"/><path d="m19.5 26.78-.78 1.2-.64.68-.29.29a.08.08 0 0 1-.14-.07c.01-.15-.05-.26-.19-.34l.35-.5.9-.77.78-.5Z" fill="#333"/><path d="m29.06 34.26-.11-.8c-.03-.19-.05-.19-.06.01l-.04.51c-.05-.35-.14-.72-.14-1.06 0-.82 0-1.46-.1-2.41-.05-.43-.07-.88-.07-1.36 0-.57-.07-.93-.37-1.36a.13.13 0 0 1 .03-.18c.19-.16.29-.4.3-.72 0-.01 0-.04.04-.1a.1.1 0 0 1 .03-.03.06.06 0 0 1 .09.03c.1.48.15.76.14.82a6.38 6.38 0 0 0-.1 1.96c.23 1.72.35 3.28.36 4.69Z" fill="#CECECE"/><path d="M26.4 26.94v.78c0 .54.16 1.01.5 1.41.03.04.05.09.05.14l.08 1.1-.14 1.2-.7 4.23-.05.97c0 .01 0 .02-.02.02-.01 0-.02 0-.02-.02l.04-.5c.01-.2-.02-.2-.08-.02l-.52 1.46a.02.02 0 0 1-.01.01h-.02l-.04-.02c-.03 0-.04-.03-.04-.06.17-.74.36-1.53.59-2.37.15-.58.2-1.12.13-1.63-.02-.18-.1-.26-.25-.25a.24.24 0 0 0-.18.13c-.14.28-.3.53-.47.76-.46.63-.58 1.3-.69 2.1-.02.17.02.36.1.57.3.65.33 1.62.4 2 .06.42.06.8-.02 1.15-.34 1.46-.93 2.9-1.45 4.3a.84.84 0 0 1-.26-.06 1.91 1.91 0 0 1-.16-.73c.06-1.08.33-2.1.8-3.04a.15.15 0 0 1 .12-.09c.04 0 .08 0 .12.02.05.03.07.07.07.13v.93c0 .21.04.22.14.03.26-.54.68-1.9.22-2.41-.2-.22-.28-.36-.26-.63l.21-3.15c.05-.7-.24-1.26-.7-1.93.4.3.73.65 1.02 1.05.03.04.05.04.07 0l.05-.15c0-.03 0-.06-.03-.07a1.11 1.11 0 0 1-.45-.35l-.03-.06c0-.04.03-.05.06-.03l.38.23a.14.14 0 0 0 .2-.07l.35-.98c.02-.05 0-.09-.03-.12a6.27 6.27 0 0 0-1.47-.85l-.25-.19a5.56 5.56 0 0 1 1.63-.24l.27.09a.07.07 0 0 0 .08-.02l.02-.03v-.04l-.14-.33a.82.82 0 0 1-.07-.27c-.01-.07.02-.08.07-.06l.18.08c.05.02.09 0 .1-.04l.04-.07c.03-.06.01-.12-.04-.16-.23-.18-.52-.3-.87-.33l-.6-.16c-.26-.53-.21-1.02.14-1.45.38-.47.78-.87 1.22-1.22.1-.1.25-.14.44-.15.05 0 .08-.03.1-.07.03-.15.04-.3.01-.44.02 0 .04-.02.05-.03Z" fill="#7C7C7C"/><path d="m32.4 27.67.92.84c.05.07.06.13.04.18-.03.05-.07.07-.14.06a.5.5 0 0 1-.24-.15l-.5-.53a1.28 1.28 0 0 0-.86-.67c-.01 0-.02-.01-.02-.03l-.01-.08c-.01-.04 0-.05.05-.03l.76.4Z" fill="#6D6D6D"/><path d="M42.81 27.57a14.7 14.7 0 0 0-1.28 3.5c-.1.45-.3.82-.58 1.11.48-1.57.82-2.6 1-3.08.18-.46.47-.97.86-1.53Z" fill="#484848"/><path d="M32.99 28.6c.25.71.3 1.4.12 2.08-.26.06-.42.23-.48.5l-.15.3c-.15-.38-.15-.63.05-1.02.15-.31.2-.57.17-.78a11.4 11.4 0 0 1-.21-1.61l.5.53Z" fill="#CECECE"/><path d="m27.4 29.95-.5 1.62.13-1.2-.07-1.06v-.04l.02-.02h.04c.16.43.19.86.09 1.3v.02h.02v-.01l.28-.61Z" fill="#A9A9A9"/><path d="M34.2 29.46c.1.05.2.1.27.18.04.03.08.05.13.04l.6-.05c.09-.01.09 0 0 .02l-.44.1c-.06.01-.07.05-.04.1l.14.24c.02.03.03.08.02.12-.03.2-.07.33-.12.4-.12.18-.18.17-.18-.04-.01-.23-.04-.37-.1-.45-.09-.12-.12-.11-.1.03.06.41.04.7-.08.86a.1.1 0 0 0 0 .11c.05.08.12.1.2.05-.03.04-.05.06-.07.06a.18.18 0 0 1-.18-.2c.07-.5.06-1.03-.05-1.57Z" fill="#484848"/><path d="m12.25 34.07-.56-1.75c.08.14.17.26.26.38.52.65 1.22-.16 1.44-.62.33-.64.65-1.17.98-1.6.13-.17.22-.46.29-.88.3.99-.06 1.9-.64 2.69-.15.2-.44.5-.88.89-.3.28-.6.57-.89.89Z" fill="#161616"/><path d="m25.99 44.88-1.6-.28c.13-.49.3-.96.52-1.42.3-.6.48-1.03.55-1.27.24-.84.38-1.5.41-1.99.05-.72.01-1.84.25-2.78.1-.4.06-.9.07-1.34l.7-4.23.51-1.62c.27.36.03.93-.15 1.32-.26.57 0 1.37.2 2 .02.06 0 .1-.05.1-.8.23-.86 1.33-.87 2-.04 1.25-.03 2.4.01 3.48.05 1.17-.02 2.12-.05 3.22-.02.33-.1.8-.23 1.4-.11.46-.2.93-.27 1.4Z" fill="#CECECE"/><path d="M26.28 30.21c.13.03.25-.02.28-.11.02-.1-.07-.2-.2-.23-.12-.03-.25.02-.27.11-.02.1.06.2.2.23Z" fill="#A9A9A9"/><path d="M15.37 30c.16.37.52.95 1.05 1.72.49.7 1.14.94 1.95.74.62-.16 1.02-.32 1.45.18.74.85.85 1.87.82 2.94 0 .3-.07.57-.21.82-.31.57-.7 1.1-1.18 1.63a.07.07 0 0 0-.01.07l.02.07c0 .02.02.02.04.01 1-.48 1.25-1.08 1.79-2.1.03-.06.06-.07.11-.04l.04.05a.1.1 0 0 1 .01.07 3.26 3.26 0 0 1-1.44 2.23l.2-.31c.04-.05.03-.06-.03-.03l-.6.36-.32.14c-.05.02-.08 0-.08-.05 0-.22.05-.4.16-.54.52-.65 1-1.23.96-2.15a2.8 2.8 0 0 0-1.12-2.25c-.44-.33-1.1-.48-1.63-.67a1.9 1.9 0 0 1-.69-.56 5.92 5.92 0 0 1-1.3-2.33Z" fill="#222"/><path d="M25.62 31.3c-.15-.14-.23-.29-.24-.43 0-.14-.04-.22-.1-.24l-.25-.17c.35.04.64.15.87.33.05.04.07.1.04.16l-.03.07c-.02.05-.06.06-.1.04l-.19-.08c-.05-.02-.08 0-.07.06 0 .08.03.17.07.27Z" fill="#6D6D6D"/><path d="M26.5 32.44c.03-.14.03-.25 0-.32-.04-.06-.12-.1-.25-.1-.26 0-.5-.07-.72-.2l.23.02c.03 0 .05-.01.06-.04l.32-1.17a.18.18 0 0 1 .1-.12c.14-.07.26-.05.36.06.08.08.12.18.12.3 0 .52-.07 1.04-.21 1.57Z" fill="#A9A9A9"/><path d="M32.92 31.46v.06l-.32.16c-.05.02-.09.01-.12-.04-.02-.03-.02-.09 0-.16l.15-.3c.11.07.21.16.3.28Z" fill="#161616"/><path d="M43.79 34.3c0 .16-.05.29-.14.4l-.63-1.26c-.03-.05-.05-.05-.07 0-.4.9-.38 2.26-.26 3.16-.43.8-.94 1.54-1.52 2.21-.54-.23-.88-.6-1-1.12a4.06 4.06 0 0 1 .39-3.03.12.12 0 0 1 .17.07c.24.7.55 1.24 1.22 1.59.05.02.07 0 .07-.05 0-.39-.08-.85-.25-1.36a.28.28 0 0 1 0-.16c.09-.43.15-.79.18-1.1a4.9 4.9 0 0 1 .84-2.14c.14-.2.23-.18.28.06.04.25.1.55.05.88-.09.58.09 1.53.67 1.84ZM15.36 33.19l-.81.62c-.05.03-.05.06 0 .09a.2.2 0 0 0 .12 0c.06 0 .08.03.05.09-.03.04-.06.07-.1.08-.25.05-.47.16-.64.34-.36.36-.74.7-1.15 1.03l-.45-1.1c.3-.21.49-.47.6-.78a.22.22 0 0 1 .08-.11c.22-.14.41-.31.58-.52.84-.32 1.2-.8 1.77-1.27.23-.19.33-.13.3.17-.05.44-.16.9-.35 1.36Z" fill="#7C7C7C"/><path d="m23.76 31.88.25.19c.13.19-.09.34-.65.44l-.08-.51c-.01-.06 0-.1.05-.14.1-.08.25-.07.43.02Z" fill="#DFDFE0"/><path d="M25.53 31.81c.22.14.46.2.72.21.13 0 .21.04.24.1.04.07.04.18.02.32-.03.13-.12.2-.27.2-.23.02-.37-.15-.63-.05a.28.28 0 0 1-.39-.29c.01-.11.04-.25.1-.41.03-.1.1-.12.21-.08Z" fill="#F0F0F0"/><path d="M34.39 31.96c.07.37.12.6.17.69.22.45.32.8.3 1.01-.06.51-.28 1.14-.2 1.65.14.82.24 1.65.31 2.47a.23.23 0 0 0 .33.19 2.06 2.06 0 0 1 1.84.09c.8.4 1.78 1.07 2.93 1.98a17.1 17.1 0 0 1-11 4.94l-.05-4.4.18 1.54c0 .05.03.09.08.11.76.35 1.45.34 1.99-.36.82-1.05 1.16-2.47 1.54-3.87.1-.37.15-.8.14-1.25 0-.84-.1-1.6.12-2.15l.07.13c.23.81.38 1.64.45 2.5 0 .03.02.04.05.04h.05c.02-.01.03-.02.04-.05l.05-1.73c.01-.36.1-.92.27-1.7.13-.62.25-1.22.34-1.83Z" fill="#CECECE"/><path d="m23.88 33.47-.52-.96c.56-.1.78-.25.65-.44.5.2 1 .49 1.47.85.04.03.05.07.03.12l-.34.98a.14.14 0 0 1-.2.07l-.4-.23c-.02-.02-.04 0-.05.03 0 .01 0 .03.03.06.13.16.28.28.45.35.03.01.04.04.03.07l-.05.14c-.02.05-.04.05-.07.01-.29-.4-.63-.75-1.03-1.05Z" fill="#A9A9A9"/><path d="m33.14 34.73-.07-.13a2.4 2.4 0 0 1 .77-2.13c.05-.06.1-.08.14-.07a.2.2 0 0 1 .09.04c.04.04.05.08.03.14-.25.7-.42 1.59-.96 2.15Z" fill="#F0F0F0"/><path d="M31.83 32.87c0 .07-.06.1-.2.12-.17 0-.3-.03-.38-.09.15-.1.34-.1.58-.03ZM26.2 35.8c-.02.44.02.95-.08 1.34-.24.94-.2 2.06-.25 2.78a9.99 9.99 0 0 1-.41 1.99c-.07.24-.26.67-.55 1.27-.21.46-.39.93-.51 1.42l-.81-.2c.52-1.4 1.1-2.84 1.45-4.3.08-.35.09-.73.01-1.16-.06-.37-.09-1.34-.38-2-.1-.2-.13-.39-.1-.56.1-.8.22-1.47.69-2.1.16-.23.32-.48.46-.76a.23.23 0 0 1 .18-.13c.15-.01.23.07.25.25.06.51.02 1.05-.13 1.63-.22.84-.42 1.63-.58 2.37-.01.03 0 .05.03.06l.04.02h.02v-.01l.53-1.46c.07-.18.1-.18.08.01l-.04.51c0 .02 0 .02.02.02s.02 0 .02-.02l.05-.97Z" fill="#A9A9A9"/><path d="m19.38 38.4.6-.35c.06-.03.07-.02.03.03l-.2.3c-.38.32-.82.54-1.3.67-.43.2-.77.36-1.27.37-.52.02-1.06.07-1.6.15l-1.07-1.3 1.03-.09c.07 0 .08.02.03.07-.14.14-.28.25-.41.32a.22.22 0 0 0-.06.34l.24.24a.14.14 0 0 0 .1.04c1.39-.03 2.35-.64 2.9-1.8.07-.15.04-.2-.11-.13a15.88 15.88 0 0 1-1.2.46.28.28 0 0 1-.05-.02.06.06 0 0 1-.03-.04.06.06 0 0 1 .02-.05l.6-.48a.16.16 0 0 0 .06-.12l.14-2.2c.01-.16-.05-.19-.17-.09l-1.2.97c-.16.13-.23.09-.23-.12.01-.47-.14-.96-.3-1.38-.01-.05 0-.1.05-.12a.18.18 0 0 0 .05-.04c.06-.06.04-.1-.04-.09-.74.04-1.38.34-1.91.9-.44.3-.76.7-.96 1.18l-.29-.58c.4-.33.79-.67 1.15-1.03.17-.18.4-.3.65-.34.03-.01.06-.04.09-.08.03-.06.01-.09-.05-.08a.2.2 0 0 1-.12-.01c-.04-.03-.05-.06 0-.1l.8-.61.95.01a.1.1 0 0 0 .1-.06c0-.01.02-.03.05-.03.03-.01.05 0 .05.04l-.06.95c0 .07.02.12.08.14l.13.06c.05.02.09.05.11.1.16.24.41.32.75.23a.1.1 0 0 0 .07-.13l-.26-.89c0-.03 0-.05.03-.06l.04-.03h.05l.93.4c.18.09.26.23.22.42l-.25 1.18c-.1.43.04 1.12.66.81a.12.12 0 0 1 .18.12c-.07.81-.43 1.49-1.07 2.03a.54.54 0 0 0-.18.37c0 .05.02.08.07.08.53-.02 1-.19 1.38-.52Z" fill="#6D6D6D"/><path d="m29.06 34.26-.2 1.82c-.03.18-.07.18-.14.02a1.14 1.14 0 0 1-.05-.61c.08-.5.14-1 .18-1.5l.04-.52c.01-.2.03-.2.06 0l.1.79ZM43.65 34.7l-.96 1.9c-.12-.9-.15-2.26.25-3.16.03-.05.05-.05.08 0l.63 1.26Z" fill="#A9A9A9"/><path d="m14.57 38.26-.13-.1c.88-.12 1.72-.07 2.52-.58.04-.02.05-.05.03-.1a.08.08 0 0 0-.02-.03c-.02-.02-.06-.02-.1-.02l-.2.04c-.09.02-.1-.01-.05-.08l.06-.08.04-.03.51-.33c.1-.06.15-.15.15-.26l.09-1.32a.08.08 0 0 0-.13-.07c-.57.4-1.1.69-1.61.85-.16.05-.22 0-.2-.17l.09-.47a.08.08 0 0 0-.11-.08l-.85.31h-.01l-.04-.04a.07.07 0 0 1 0-.1l.63-.64c.06-.06.06-.13 0-.19a.84.84 0 0 0-.36-.23.21.21 0 0 0-.15.01l-.65.29a2.75 2.75 0 0 1 1.91-.9c.08 0 .1.03.04.09a.18.18 0 0 1-.05.04c-.05.03-.06.07-.04.12.15.42.3.9.3 1.38-.01.2.06.25.23.12l1.19-.97c.12-.1.18-.07.17.1L17.7 37c0 .05-.03.09-.07.12l-.6.48a.05.05 0 0 0-.02.05.06.06 0 0 0 .03.05l.05.01h.05c.36-.12.74-.28 1.15-.46.15-.06.19-.02.11.13-.55 1.17-1.51 1.77-2.89 1.8a.14.14 0 0 1-.1-.04l-.25-.24a.21.21 0 0 1 .06-.34c.13-.07.27-.18.41-.32.05-.05.04-.07-.03-.07l-1.03.08Z" fill="#7C7C7C"/><path d="m22.61 44.11-.5-.18a3.8 3.8 0 0 0 .7-1.75c.06-.47-.03-.92-.11-1.49a.33.33 0 0 1 .1-.3c.58-.5.82-.87 1.03-1.63.27-.97.43-1.95.49-2.96a.2.2 0 0 0-.05-.15l-.91-1.12-.28-.4-.03-.11c.35.29.66.6.93.96.46.58.48 1.3.39 2.08-.16 1.3-.28 2.1-.38 2.4-.26.76-.51 1.45-.7 2.27-.18.8-.41 1.6-.68 2.38Z" fill="#484848"/><path d="m22.1 43.93-.38-.16c.45-.85.98-1.36.71-2.48-.01-.05-.04-.07-.1-.05-1 .29-1.4 1.1-1.77 2.02l-1.3-.73c.83-.82 1.53-1.74 2.73-2.03 1.28-.3 1.77-2.58 1.96-3.67.12-.68 0-1.3-.36-1.88l-.23-.42.91 1.12a.2.2 0 0 1 .05.15c-.06 1-.23 2-.5 2.96a2.88 2.88 0 0 1-1.02 1.63.33.33 0 0 0-.1.3c.08.57.17 1.02.1 1.49a3.8 3.8 0 0 1-.7 1.75Z" fill="#333"/><path d="m16.72 37.28.02-.27c0-.05-.01-.1-.06-.13-.78-.62-1.74-.12-2.5.33a.19.19 0 0 0-.04.28l.26.33c.04.04.08.06.13.05a7.37 7.37 0 0 0 2.15-.56l-.06.08c-.05.07-.04.1.05.08l.2-.04c.04 0 .08 0 .1.02l.02.04c.02.03 0 .06-.03.08-.8.51-1.64.47-2.52.6l-1.32-2.15c.2-.48.52-.87.96-1.18l.65-.29c.05-.02.1-.02.15 0 .13.03.25.1.36.22.07.06.06.13 0 .19l-.63.63-.02.03a.07.07 0 0 0 .02.08l.04.04h.01l.85-.31a.08.08 0 0 1 .08 0 .08.08 0 0 1 .03.08l-.08.47c-.03.16.03.22.19.17a6.07 6.07 0 0 0 1.65-.86.08.08 0 0 1 .09.08l-.09 1.32c0 .1-.05.2-.15.26l-.51.33ZM40.67 35.02c.4.94.84 1.97.98 2.84.06.35-.02.39-.24.1-.65-.83-1.25-1.99-.95-2.93.06-.2.13-.2.2-.01Z" fill="#A9A9A9"/><path d="m19.26 42.53-.32-.19c.39-.25.75-.53 1.08-.86.7-.68 1.26-.92 2.26-1.2a.17.17 0 0 0 .11-.09c.12-.23.2-.44.23-.63.03-.14-.01-.17-.13-.1l-.97.65 1.08-1.08c.04-.03.05-.08.02-.13-.07-.12-.18-.15-.32-.1a.25.25 0 0 0-.1.05l-1.83 1.76-1.3.44c.1-.2.04-.35-.15-.47a.1.1 0 0 1-.05-.12c.18-.87-2.2-.5-2.8-.4l-.42-.49c.53-.08 1.07-.13 1.6-.15.49-.01.83-.17 1.26-.37-.01.23.08.35.27.37.77.07 1.92-.07 2.34-.84l.47-.95c.09-.18.21-.28.37-.3.44-.05.45.63 1.08.22.89-.58.79-1.72.55-2.6.36.58.48 1.2.37 1.88-.2 1.1-.7 3.36-1.97 3.67-1.2.3-1.9 1.21-2.73 2.03Z" fill="#222"/><path d="m16.72 37.28-.04.03c-.69.3-1.4.48-2.15.57a.13.13 0 0 1-.13-.06l-.26-.33a.19.19 0 0 1 .05-.28c.75-.45 1.71-.95 2.5-.33.03.03.05.08.05.13l-.02.27Z" fill="#CECECE"/><path d="m28.98 37.86-.02 1.61-.08-1.05c0-.06-.02-.06-.05-.02a.9.9 0 0 0-.15.27l.15-1.6c0-.04.02-.05.06-.04l.05.02c.02 0 .03 0 .03.02l.01.79Z" fill="#A9A9A9"/><path d="M36.79 37.25c.31.23.52.36.63.42.97.48 1.94.97 2.9 1.48.13.06.25.13.36.22l-.08.05a75.2 75.2 0 0 1-2.56-1.29 9.11 9.11 0 0 1-1.2-.75l-.24-.27.19.14Z" fill="#6D6D6D"/><path d="M40.6 39.42a.48.48 0 0 1-.14.18c-.83-.42-1.65-.84-2.46-1.28a3.96 3.96 0 0 1-1.16-.94c.38.28.78.53 1.2.75.85.45 1.7.88 2.57 1.29ZM28.96 39.47l.06 1.11.04 4.4-.58.02c.04-.33.18-.61.2-.92.04-.56-.01-1.18 0-1.67.02-1.2 0-2.42-.04-3.63l.04-.1a.9.9 0 0 1 .15-.28c.03-.04.05-.04.05.02l.08 1.05Z" fill="#7C7C7C"/><path d="m21.52 40.1-1.15.51 1.83-1.76a.25.25 0 0 1 .1-.06c.14-.04.25 0 .32.11.02.05.02.1-.02.13l-1.08 1.08Z" fill="#484848"/><path d="m18.94 42.34-1.25-.91v-.05l.01-.02.03-.01 1.34-.3 1.3-.43 1.15-.51.97-.64c.12-.08.16-.05.13.1-.04.18-.12.4-.23.62a.17.17 0 0 1-.11.1c-1 .27-1.56.5-2.26 1.2-.33.32-.7.6-1.08.85Z" fill="#161616"/><path d="m19.07 41.05-1.34.3a.04.04 0 0 0-.04.03v.05a.33.33 0 0 1-.12-.1l.5-.23a.17.17 0 0 0 .08-.24.17.17 0 0 0-.07-.06l-.17-.08a.14.14 0 0 1-.08-.08.74.74 0 0 0-.3-.4.18.18 0 0 0-.15-.02l-.92.17-.38-.34c.58-.1 2.97-.46 2.8.4a.1.1 0 0 0 .04.13c.2.12.24.28.15.47Z" fill="#484848"/><path d="m17.56 41.33-1.1-.94.92-.17c.05-.01.1 0 .14.03.16.1.26.23.31.39.02.04.04.07.08.09l.16.07a.17.17 0 0 1 0 .3l-.5.23Z" fill="#6D6D6D"/><path d="m21.72 43.77-1.16-.51c.37-.92.76-1.73 1.78-2.02.05-.02.08 0 .1.05.26 1.12-.27 1.63-.72 2.48Z" fill="#222"/><path fill-rule="evenodd" d="M28 44.5a16.5 16.5 0 1 0 0-33 16.5 16.5 0 0 0 0 33Zm0 .5a17 17 0 1 0 0-34 17 17 0 0 0 0 34Z" fill="#F0F0F0"/><defs><linearGradient id="a" x1="10.42" y1="9.71" x2="68.15" y2="76.02" gradientUnits="userSpaceOnUse"><stop stop-color="#1A1E21"/><stop offset="1" stop-color="#06060A"/></linearGradient></defs></svg>