<?xml version="1.0" encoding="UTF-8"?>
<!DOCTYPE svg PUBLIC "-//W3C//DTD SVG 1.1//EN" "http://www.w3.org/Graphics/SVG/1.1/DTD/svg11.dtd">
<svg xmlns="http://www.w3.org/2000/svg" version="1.1" width="64px" height="64px" style="shape-rendering:geometricPrecision; text-rendering:geometricPrecision; image-rendering:optimizeQuality; fill-rule:evenodd; clip-rule:evenodd" xmlns:xlink="http://www.w3.org/1999/xlink">
<g><path style="opacity:1" fill="#f9f9f9" d="M -0.5,-0.5 C 20.8333,-0.5 42.1667,-0.5 63.5,-0.5C 63.5,20.8333 63.5,42.1667 63.5,63.5C 42.1667,63.5 20.8333,63.5 -0.5,63.5C -0.5,42.1667 -0.5,20.8333 -0.5,-0.5 Z"/></g>
<g><path style="opacity:1" fill="#929292" d="M 22.5,5.5 C 26.1936,3.58761 30.1936,3.08761 34.5,4C 30.4899,4.50126 26.4899,5.00126 22.5,5.5 Z"/></g>
<g><path style="opacity:1" fill="#767676" d="M 35.5,5.5 C 37.1849,4.15599 38.8516,4.32266 40.5,6C 38.8925,5.98128 37.2259,5.81461 35.5,5.5 Z"/></g>
<g><path style="opacity:1" fill="#787878" d="M 22.5,5.5 C 21.6857,7.2726 20.3524,7.7726 18.5,7C 19.745,6.20858 21.0783,5.70858 22.5,5.5 Z"/></g>
<g><path style="opacity:1" fill="#757575" d="M 48.5,12.5 C 50.0847,13.0024 50.5847,14.0024 50,15.5C 48.9614,14.7562 48.4614,13.7562 48.5,12.5 Z"/></g>
<g><path style="opacity:1" fill="#a2a2a2" d="M 12.5,11.5 C 13.1239,11.9169 13.4573,12.5836 13.5,13.5C 12.3594,16.7554 11.5261,20.0888 11,23.5C 10.535,19.3891 11.035,15.3891 12.5,11.5 Z"/></g>
<g><path style="opacity:1" fill="#2e2e2e" d="M 51.5,18.5 C 52.5983,19.6009 52.765,20.9343 52,22.5C 50.4894,21.436 50.3228,20.1026 51.5,18.5 Z"/></g>
<g><path style="opacity:1" fill="#a1a1a1" d="M 42.5,27.5 C 42.5,28.1667 42.5,28.8333 42.5,29.5C 41.8333,29.5 41.1667,29.5 40.5,29.5C 39.1979,27.1782 37.1979,25.8449 34.5,25.5C 34.9175,24.7784 35.5842,24.2784 36.5,24C 36.0426,23.586 35.7093,23.086 35.5,22.5C 36.1892,20.556 36.6892,18.556 37,16.5C 37.2065,19.6229 37.8732,22.6229 39,25.5C 40.8706,24.0027 41.8706,22.0027 42,19.5C 42.4974,22.146 42.6641,24.8127 42.5,27.5 Z"/></g>
<g><path style="opacity:1" fill="#7d7d7d" d="M 30.5,25.5 C 28.901,25.2322 27.5676,25.5655 26.5,26.5C 25.1266,26.6567 23.7932,26.49 22.5,26C 25.2268,24.3643 27.8934,24.1976 30.5,25.5 Z"/></g>
<g><path style="opacity:1" fill="#1c1c1c" d="M 13.5,26.5 C 16.1873,26.3359 18.854,26.5026 21.5,27C 19.1902,27.4966 16.8568,27.6633 14.5,27.5C 13.9553,31.1716 13.6219,30.8383 13.5,26.5 Z"/></g>
<g><path style="opacity:1" fill="#231f20" d="M 30.5,25.5 C 31.8333,25.5 33.1667,25.5 34.5,25.5C 37.1979,25.8449 39.1979,27.1782 40.5,29.5C 39.776,31.2184 39.1094,33.0517 38.5,35C 36.1902,35.4966 33.8568,35.6633 31.5,35.5C 31.0618,35.5654 30.7284,35.3988 30.5,35C 31.4162,34.6258 32.2496,34.1258 33,33.5C 33.6708,34.2524 34.5041,34.5858 35.5,34.5C 36.4959,34.5858 37.3292,34.2524 38,33.5C 38.7796,31.6131 38.6129,29.9464 37.5,28.5C 34.3733,27.4192 31.0399,26.7526 27.5,26.5C 27.3309,31.0407 27.9975,31.374 29.5,27.5C 35.5682,29.7014 35.9015,31.0348 30.5,31.5C 29.325,31.281 28.325,31.6143 27.5,32.5C 27.9569,33.2975 28.6236,33.6309 29.5,33.5C 29.1583,34.3382 28.4916,34.6716 27.5,34.5C 26.2616,32.7857 25.595,30.7857 25.5,28.5C 24.448,28.6495 23.448,28.4828 22.5,28C 24.0581,27.79 25.3915,27.29 26.5,26.5C 27.5676,25.5655 28.901,25.2322 30.5,25.5 Z"/></g>
<g><path style="opacity:1" fill="#f2f2f2" d="M 37.5,28.5 C 38.6129,29.9464 38.7796,31.6131 38,33.5C 37.3292,34.2524 36.4959,34.5858 35.5,34.5C 34.7107,32.1962 35.3774,30.1962 37.5,28.5 Z"/></g>
<g><path style="opacity:1" fill="#f1f7f7" d="M 30.5,31.5 C 30.6716,32.4916 30.3382,33.1583 29.5,33.5C 28.6236,33.6309 27.9569,33.2975 27.5,32.5C 28.325,31.6143 29.325,31.281 30.5,31.5 Z"/></g>
<g><path style="opacity:1" fill="#3a3737" d="M 50.5,35.5 C 49.5,35.5 48.5,35.5 47.5,35.5C 44.0344,35.7228 43.0344,34.3894 44.5,31.5C 44.2528,30.2867 43.5862,29.62 42.5,29.5C 42.5,28.8333 42.5,28.1667 42.5,27.5C 46.6936,27.4604 50.527,26.4604 54,24.5C 55.4178,29.4285 55.7511,34.4285 55,39.5C 54.51,38.2068 54.3433,36.8734 54.5,35.5C 53.1667,35.5 51.8333,35.5 50.5,35.5 Z"/></g>
<g><path style="opacity:1" fill="#c3c9ce" d="M 51.5,27.5 C 53.229,28.9527 54.229,30.9527 54.5,33.5C 51.5,34.8333 48.5,34.8333 45.5,33.5C 51.4373,32.57 51.7706,31.07 46.5,29C 48.3817,28.8019 50.0484,28.3019 51.5,27.5 Z"/></g>
<g><path style="opacity:1" fill="#555555" d="M 17.5,37.5 C 18.209,36.596 19.209,36.2627 20.5,36.5C 20.6495,37.552 20.4828,38.552 20,39.5C 19.5831,38.244 18.7498,37.5774 17.5,37.5 Z"/></g>
<g><path style="opacity:1" fill="#9ea5ae" d="M 37.5,28.5 C 35.3774,30.1962 34.7107,32.1962 35.5,34.5C 34.5041,34.5858 33.6708,34.2524 33,33.5C 32.2496,34.1258 31.4162,34.6258 30.5,35C 30.7284,35.3988 31.0618,35.5654 31.5,35.5C 29.5674,38.8987 28.734,42.5653 29,46.5C 29.5609,43.71 30.8942,41.3766 33,39.5C 33.5074,40.9961 33.0074,42.1627 31.5,43C 32.1667,43.3333 32.8333,43.6667 33.5,44C 32.572,44.3879 31.9054,45.0546 31.5,46C 32.1868,47.1618 32.3534,48.3284 32,49.5C 30.187,48.3909 29.3537,49.0576 29.5,51.5C 28.71,50.3915 28.21,49.0581 28,47.5C 27.501,43.1794 27.3343,38.8461 27.5,34.5C 28.4916,34.6716 29.1583,34.3382 29.5,33.5C 30.3382,33.1583 30.6716,32.4916 30.5,31.5C 35.9015,31.0348 35.5682,29.7014 29.5,27.5C 27.9975,31.374 27.3309,31.0407 27.5,26.5C 31.0399,26.7526 34.3733,27.4192 37.5,28.5 Z"/></g>
<g><path style="opacity:1" fill="#e7e7e8" d="M 40.5,29.5 C 41.1667,29.5 41.8333,29.5 42.5,29.5C 43.5862,29.62 44.2528,30.2867 44.5,31.5C 43.0344,34.3894 44.0344,35.7228 47.5,35.5C 47.8509,39.6836 48.5176,43.6836 49.5,47.5C 49.5,48.5 49.5,49.5 49.5,50.5C 49.5,50.8333 49.5,51.1667 49.5,51.5C 46.5,51.1667 45.1667,52.5 45.5,55.5C 43.2441,56.385 40.9107,57.385 38.5,58.5C 36.497,58.0887 34.6637,56.7554 33,54.5C 32.6667,54.8333 32.3333,55.1667 32,55.5C 30.887,54.2396 30.7203,53.073 31.5,52C 30.9056,51.5357 30.2389,51.369 29.5,51.5C 29.3537,49.0576 30.187,48.3909 32,49.5C 32.3534,48.3284 32.1868,47.1618 31.5,46C 31.9054,45.0546 32.572,44.3879 33.5,44C 32.8333,43.6667 32.1667,43.3333 31.5,43C 33.0074,42.1627 33.5074,40.9961 33,39.5C 30.8942,41.3766 29.5609,43.71 29,46.5C 28.734,42.5653 29.5674,38.8987 31.5,35.5C 33.8568,35.6633 36.1902,35.4966 38.5,35C 39.1094,33.0517 39.776,31.2184 40.5,29.5 Z"/></g>
<g><path style="opacity:1" fill="#adadad" d="M 13.5,54.5 C 14.5544,48.7852 14.721,43.1186 14,37.5C 15.1091,39.7997 15.6091,42.2997 15.5,45C 15.6725,48.4774 15.0058,51.644 13.5,54.5 Z"/></g>
<g><path style="opacity:1" fill="#8ea7ba" d="M 47.5,35.5 C 48.5,35.5 49.5,35.5 50.5,35.5C 51.1647,38.4701 51.8314,41.4701 52.5,44.5C 52.3764,45.1067 52.0431,45.44 51.5,45.5C 50.8333,46.1667 50.1667,46.8333 49.5,47.5C 48.5176,43.6836 47.8509,39.6836 47.5,35.5 Z"/></g>
<g><path style="opacity:1" fill="#3d3d3d" d="M 44.5,41.5 C 46.0847,42.0024 46.5847,43.0024 46,44.5C 44.9326,43.8095 43.7659,43.3095 42.5,43C 43.4158,42.7216 44.0825,42.2216 44.5,41.5 Z"/></g>
<g><path style="opacity:1" fill="#747474" d="M 18.5,41.5 C 19.9097,40.1716 21.0764,40.5049 22,42.5C 23.4379,45.2778 23.4379,47.9445 22,50.5C 21.879,48.2729 21.0456,46.4396 19.5,45C 21.6124,43.7834 21.2791,42.6168 18.5,41.5 Z"/></g>
<g><path style="opacity:1" fill="#141414" d="M 36.5,44.5 C 37.2216,44.9175 37.7216,45.5842 38,46.5C 38.6667,43.8333 39.3333,43.8333 40,46.5C 41.916,43.967 43.916,43.967 46,46.5C 46.3333,46.1667 46.6667,45.8333 47,45.5C 46.5442,50.7934 43.7109,54.1268 38.5,55.5C 33.1245,52.4392 32.4578,48.7725 36.5,44.5 Z"/></g>
<g><path style="opacity:1" fill="#2c2b2a" d="M 51.5,45.5 C 51.5979,47.5529 50.9313,49.2196 49.5,50.5C 49.5,49.5 49.5,48.5 49.5,47.5C 50.1667,46.8333 50.8333,46.1667 51.5,45.5 Z"/></g>
<g><path style="opacity:1" fill="#62686e" d="M 49.5,51.5 C 48.5977,53.3407 47.2644,54.674 45.5,55.5C 45.1667,52.5 46.5,51.1667 49.5,51.5 Z"/></g>
<g><path style="opacity:1" fill="#49494c" d="M 28.5,53.5 C 27.603,54.5981 26.7697,54.5981 26,53.5C 26.422,48.2636 27.2554,48.2636 28.5,53.5 Z"/></g>
<g><path style="opacity:1" fill="#767676" d="M 13.5,54.5 C 13.573,56.0269 12.9063,57.0269 11.5,57.5C 11.427,55.9731 12.0937,54.9731 13.5,54.5 Z"/></g>
<g><path style="opacity:1" fill="#6a6b6c" d="M 29.5,51.5 C 30.2389,51.369 30.9056,51.5357 31.5,52C 30.7203,53.073 30.887,54.2396 32,55.5C 32.3333,55.1667 32.6667,54.8333 33,54.5C 34.6637,56.7554 36.497,58.0887 38.5,58.5C 40.9107,57.385 43.2441,56.385 45.5,55.5C 45.5,56.5 45.5,57.5 45.5,58.5C 47.1992,58.3398 48.8659,58.5065 50.5,59C 45.5821,59.1948 40.7488,59.6948 36,60.5C 34.8289,59.1068 33.3289,58.2735 31.5,58C 29.8588,56.871 28.8588,55.371 28.5,53.5C 29.3382,53.1583 29.6716,52.4916 29.5,51.5 Z"/></g>
<g><path style="opacity:1" fill="#848484" d="M 11.5,57.5 C 11.5299,58.4972 11.0299,59.1639 10,59.5C 7.84165,60.451 5.67499,60.951 3.5,61C 6.03746,59.5429 8.70413,58.3762 11.5,57.5 Z"/></g>
</svg>
