<!-- by TradingView --><svg width="56" height="56" viewBox="0 0 56 56" xmlns="http://www.w3.org/2000/svg"><path fill="#EB1C24" d="M0 0h56v56H0z"/><path d="M26.72 19.68c.2.05.41.06.65.03.05-.01.06-.03.03-.07a8.15 8.15 0 0 1-1.12-2.3c-.04-.81-.02-1.65.05-2.52 0-.13.02-.13.04 0 .17 1.06.9 1.97 2.18 2.72.5.3 1.13.64 1.86 1.04a9.27 9.27 0 0 1 .9.58c.03.03.05.02.07-.02a33.58 33.58 0 0 1 2.3-4.74c.34-.58.73-1.15 1.17-1.7.11-.13.24-.27.39-.41a1 1 0 0 1 1.58.21c.65 1 1.2 2.08 1.67 3.25.71 1.79 1.3 3.75 1.77 5.89.5 2.25.86 4.38 1.07 6.38a5.19 5.19 0 0 0 .2.99 8.82 8.82 0 0 1-.28 5.27 5.5 5.5 0 0 0-1.85.04c-.24.05-.35.2-.31.45v.01c.04.24.19.35.43.31.48-.07.94-.08 1.38-.04l-.73 1.27c-.41-.17-.88-.3-1.42-.41-.24-.05-.39.04-.45.28v.02c-.05.23.05.38.28.45l1.08.33a13.03 13.03 0 0 1-3.85 3.11c-1.12.6-2.27 1.04-3.46 1.35a17.52 17.52 0 0 1-10.67-.64c-2.1-.84-3.89-2.1-5.35-3.81l1.1-.35c.2-.06.3-.2.31-.42v-.01c-.08-.26-.24-.36-.48-.32a7.2 7.2 0 0 0-1.43.43l-.75-1.29a6.5 6.5 0 0 1 1.4.05c.2.02.33-.05.41-.21a.4.4 0 0 0 .05-.1c0-.27-.12-.42-.35-.46a5.34 5.34 0 0 0-1.86-.06l-.02-.02.02-.02v-.01a8.63 8.63 0 0 1-.24-5.29c.09-.32.15-.62.18-.9.28-2.55.73-5.1 1.36-7.64.4-1.62.9-3.16 1.47-4.62.46-1.15.98-2.18 1.58-3.1.2-.33.4-.52.59-.59.26-.09.5-.1.71-.02.2.07.38.22.58.44.36.42.7.86.98 1.32.63.98 1.17 1.97 1.64 2.96.08.17.12.16.11-.02v-.78c0-.11.03-.12.07-.01.23.56.47 1.1.71 1.6.15.3.34.6.55.93.41.6.98 1 1.7 1.19Z" fill="#fff"/><path d="m23.54 19.98.12.79a33.5 33.5 0 0 0-3.33 1.74c-1.1.67-2.25 1.37-3.43 2.11a.06.06 0 0 1-.06 0 .06.06 0 0 1-.03-.05c.2-1.73.5-3.37.87-4.94.24-.98.53-1.92.88-2.84.33-.86.72-1.64 1.17-2.35.12-.18.27-.3.43-.35a.7.7 0 0 1 .55.1c.06.03.17.15.32.37.22.3.47.74.77 1.34.5.98 1.07 2.34 1.74 4.08ZM39.42 24.65a43.28 43.28 0 0 0-3.65-2.4 17.98 17.98 0 0 0-2.89-1.38c-.15-.06-.24-.12-.29-.18-.07-.1-.08-.22-.02-.37.62-1.7 1.31-3.27 2.07-4.73.18-.36.4-.72.65-1.09a1 1 0 0 1 .46-.39c.2-.08.4-.05.6.07.09.06.23.26.42.59.31.53.58 1.07.81 1.64.34.83.62 1.67.85 2.51.42 1.56.75 3.31 1 5.26.03.2.04.35.02.46 0 .02 0 .02-.03 0Z" fill="#F6BAD4"/><path d="m23.66 20.77-.12-.8c.01-.9.04-1.74.1-2.5.04-.53.1-.52.16.03a8.96 8.96 0 0 0 1.8 4.35 6 6 0 0 0 2.54 2c.02 0 .03.02.04.04 0 .02 0 .03-.02.04a.38.38 0 0 1-.18.06c-.42.06-1.02.12-1.8.21-.1.01-.2 0-.28-.04-.53-.24-.9-.48-1.11-.73a4.55 4.55 0 0 1-1.06-2.25l-.07-.41ZM26.72 19.68a5.35 5.35 0 0 1-.44-2.33c.26.84.63 1.6 1.12 2.3.03.03.02.05-.03.06-.24.03-.46.02-.65-.03Z" fill="#D6E9F8"/><path d="M18.9 28.69c-.6.93-.63 1.82-.08 2.69.29.45.7.78 1.25.98.55.2 1.1.21 1.62.04.58-.2 1.03-.54 1.33-1 .3-.48.42-1.02.37-1.64l1.18.28c.03 0 .05.03.05.06.02.14.01.25 0 .35a3.77 3.77 0 0 1-1.9 2.77c-.66.38-1.39.54-2.17.49a3.8 3.8 0 0 1-2.08-.79 3.64 3.64 0 0 1-1.48-2.98c-.01-.45.1-.97.32-1.54.03-.06.08-.09.15-.07l1.44.36ZM32.33 29.74c-.05.92.23 1.64.83 2.15a2.5 2.5 0 0 0 3.1.16c.52-.37.85-.86.98-1.47.14-.66 0-1.29-.39-1.87.05-.05.1-.09.16-.1.43-.08.86-.18 1.27-.28.05-.01.1 0 .12.06a3.92 3.92 0 0 1 .2 2.6 3.81 3.81 0 0 1-4.49 2.65 3.84 3.84 0 0 1-3.02-3.53c0-.04.02-.06.06-.07l1.18-.3Z" fill="#A9DFF7"/><path d="m18.9 28.69 4.49 1.07c.05.62-.07 1.16-.37 1.63s-.75.8-1.33 1c-.53.18-1.07.17-1.62-.03a2.4 2.4 0 0 1-1.25-.98c-.55-.87-.52-1.76.08-2.7ZM36.85 28.71c.4.58.53 1.2.39 1.87-.13.61-.46 1.1-.98 1.47a2.5 2.5 0 0 1-3.1-.16c-.6-.51-.88-1.23-.83-2.15l4.52-1.03Z" fill="#231F20"/><path d="M15.08 35.04c-1.2.15-2.34.52-3.41 1.12-.33.18-.69.38-1.08.62-.2.12-.38.09-.5-.12a.25.25 0 0 1-.02-.02c-.12-.21-.08-.39.13-.53a11.09 11.09 0 0 1 4.44-1.83c.03 0 .05-.01.07-.04l.02.02c.02.02.04.02.06.02a5.34 5.34 0 0 1 1.8.04c.23.04.35.2.35.45l-.05.1c-.08.17-.22.24-.4.22a6.5 6.5 0 0 0-1.4-.05ZM41.24 34.28c.5.07.82.13.99.18 1.28.35 2.46.9 3.56 1.65.2.14.26.32.16.54a.4.4 0 0 1-.01.04c-.17.18-.35.21-.55.1-.68-.44-1.32-.8-1.94-1.07a8.36 8.36 0 0 0-2.55-.67c-.44-.04-.9-.03-1.38.04-.24.04-.39-.07-.43-.3v-.02c-.04-.25.07-.4.31-.45a5.51 5.51 0 0 1 1.84-.04Z" fill="#291C1E"/><path d="M27.66 35.73c.66 0 1.19-.24 1.19-.54 0-.3-.53-.55-1.19-.55-.65 0-1.18.24-1.18.55 0 .3.53.54 1.18.54Z" fill="#F6BAD4"/><path d="M27.7 35.85c.12 0 .22.03.3.09.22.2.44.32.63.37.23.06.48.04.75-.06.21-.09.41-.2.59-.36.07-.06.16-.06.29-.02.24.07.34.23.29.47-.02.1-.11.2-.28.32-.4.3-.82.45-1.26.47-.47.03-.9-.1-1.29-.39h-.01a.07.07 0 0 0-.02 0h-.02c-.38.29-.81.42-1.28.4a2.3 2.3 0 0 1-1.26-.48c-.17-.12-.26-.23-.28-.32-.05-.24.04-.4.29-.47.12-.04.22-.04.29.02.18.15.37.27.59.36.26.1.51.12.75.06.19-.05.4-.18.63-.37.07-.06.17-.1.3-.1Z" fill="#231F20"/><path d="M16.33 37a7.62 7.62 0 0 0-3.49 2.72c-.1.15-.26.2-.47.13h-.01c-.26-.19-.31-.4-.14-.63a8.24 8.24 0 0 1 5.04-3.32c.24-.04.4.06.48.32v.01c0 .22-.1.36-.3.42l-1.1.35ZM40.17 36.32a8.3 8.3 0 0 1 3.62 2.9c.14.2.13.4-.05.6h-.02c-.24.12-.43.1-.56-.09a7.57 7.57 0 0 0-3.5-2.74l-1.08-.33c-.23-.07-.33-.22-.28-.45v-.02c.06-.24.21-.33.45-.28.54.1 1 .24 1.42.41Z" fill="#291C1E"/></svg>