<?xml version="1.0" encoding="UTF-8"?>
<!DOCTYPE svg PUBLIC "-//W3C//DTD SVG 1.1//EN" "http://www.w3.org/Graphics/SVG/1.1/DTD/svg11.dtd">
<svg xmlns="http://www.w3.org/2000/svg" version="1.1" width="64px" height="64px" style="shape-rendering:geometricPrecision; text-rendering:geometricPrecision; image-rendering:optimizeQuality; fill-rule:evenodd; clip-rule:evenodd" xmlns:xlink="http://www.w3.org/1999/xlink">
<g><path style="opacity:1" fill="#030303" d="M -0.5,-0.5 C 20.8333,-0.5 42.1667,-0.5 63.5,-0.5C 63.5,20.8333 63.5,42.1667 63.5,63.5C 42.1667,63.5 20.8333,63.5 -0.5,63.5C -0.5,42.1667 -0.5,20.8333 -0.5,-0.5 Z"/></g>
<g><path style="opacity:1" fill="#f2f2f2" d="M 24.5,8.5 C 25.8221,8.33003 26.9887,8.66337 28,9.5C 28.2362,11.764 28.7362,13.9307 29.5,16C 28.6919,16.3076 28.0253,16.8076 27.5,17.5C 28.7044,19.9028 29.0378,22.2362 28.5,24.5C 26.429,21.674 23.929,19.3406 21,17.5C 19.4412,15.7834 18.6079,13.7834 18.5,11.5C 19.552,11.3505 20.552,11.5172 21.5,12C 22.5418,13.918 23.7085,15.7513 25,17.5C 25.6924,16.9747 26.1924,16.3081 26.5,15.5C 25.4229,13.2706 24.7563,10.9372 24.5,8.5 Z"/></g>
<g><path style="opacity:1" fill="#fcfcfc" d="M 31.5,8.5 C 32.8734,8.34332 34.2068,8.50999 35.5,9C 34.8333,11.3333 34.1667,13.6667 33.5,16C 34.3081,16.3076 34.9747,16.8076 35.5,17.5C 35.0879,19.8867 34.0879,21.8867 32.5,23.5C 31.5059,18.544 31.1725,13.544 31.5,8.5 Z"/></g>
<g><path style="opacity:1" fill="#fcfcfc" d="M 38.5,9.5 C 39.9953,9.41483 40.9953,10.0815 41.5,11.5C 40.6493,13.8816 39.316,15.8816 37.5,17.5C 37.1667,17 36.8333,16.5 36.5,16C 37.2741,13.8458 37.9408,11.6792 38.5,9.5 Z"/></g>
<g><path style="opacity:1" fill="#f6f6f6" d="M 44.5,12.5 C 46.3628,12.8459 47.1961,13.8459 47,15.5C 43.6514,19.0158 40.1514,22.3492 36.5,25.5C 35.5923,24.21 35.759,22.8767 37,21.5C 40.434,19.2243 42.934,16.2243 44.5,12.5 Z"/></g>
<g><path style="opacity:1" fill="#f1f1f1" d="M 13.5,15.5 C 17.94,18.7635 22.2733,22.2635 26.5,26C 25.9747,26.6924 25.3081,27.1924 24.5,27.5C 22.6675,26.7515 21.0009,25.7515 19.5,24.5C 17.6601,21.8277 15.3268,19.661 12.5,18C 13.2524,17.3292 13.5858,16.4959 13.5,15.5 Z"/></g>
<g><path style="opacity:1" fill="#fcfcfc" d="M 10.5,21.5 C 13.3029,22.0665 15.6363,23.3998 17.5,25.5C 15.1442,26.2943 12.8109,25.961 10.5,24.5C 9.43764,23.5754 9.43764,22.5754 10.5,21.5 Z"/></g>
<g><path style="opacity:1" fill="#f6f6f6" d="M 48.5,18.5 C 49.5,18.5 50.5,18.5 51.5,18.5C 51.6495,19.552 51.4828,20.552 51,21.5C 49.082,22.5418 47.2487,23.7085 45.5,25C 46.0253,25.6924 46.6919,26.1924 47.5,26.5C 49.7294,25.4229 52.0628,24.7563 54.5,24.5C 54.6399,26.1238 53.9733,27.2904 52.5,28C 48.0026,27.0842 43.6692,27.5842 39.5,29.5C 38.479,28.9984 38.3123,28.3317 39,27.5C 42.7914,25.0273 45.958,22.0273 48.5,18.5 Z"/></g>
<g><path style="opacity:1" fill="#fcfcfc" d="M 8.5,27.5 C 11.0092,28.1131 13.5092,28.7798 16,29.5C 16.3076,28.6919 16.8076,28.0253 17.5,27.5C 19.8867,27.9121 21.8867,28.9121 23.5,30.5C 18.544,31.4941 13.544,31.8275 8.5,31.5C 8.5,30.1667 8.5,28.8333 8.5,27.5 Z"/></g>
<g><path style="opacity:1" fill="#fcfcfc" d="M 39.5,31.5 C 44.5,31.5 49.5,31.5 54.5,31.5C 54.6567,32.8734 54.49,34.2068 54,35.5C 51.6667,34.8333 49.3333,34.1667 47,33.5C 46.6924,34.3081 46.1924,34.9747 45.5,35.5C 43.8849,34.846 42.2182,34.346 40.5,34C 39.7476,33.3292 39.4142,32.4959 39.5,31.5 Z"/></g>
<g><path style="opacity:1" fill="#f5f5f5" d="M 22.5,33.5 C 24.0281,33.5173 24.5281,34.184 24,35.5C 21.0151,36.8976 18.8485,39.0642 17.5,42C 15.7834,43.5588 13.7834,44.3921 11.5,44.5C 11.3505,43.448 11.5172,42.448 12,41.5C 13.918,40.4582 15.7513,39.2915 17.5,38C 16.9747,37.3076 16.3081,36.8076 15.5,36.5C 13.2706,37.5771 10.9372,38.2437 8.5,38.5C 8.36007,36.8762 9.02674,35.7096 10.5,35C 12.8991,34.289 15.2324,34.4557 17.5,35.5C 19.3361,34.9724 21.0028,34.3058 22.5,33.5 Z"/></g>
<g><path style="opacity:1" fill="#f1f1f1" d="M 37.5,35.5 C 39.7567,35.9617 41.7567,36.9617 43.5,38.5C 45.3399,41.1723 47.6732,43.339 50.5,45C 49.9323,46.6036 48.9323,47.2703 47.5,47C 44.465,43.6298 41.1317,40.6298 37.5,38C 36.4019,37.2303 36.4019,36.397 37.5,35.5 Z"/></g>
<g><path style="opacity:1" fill="#fcfcfc" d="M 45.5,36.5 C 48.475,36.7134 51.1416,37.7134 53.5,39.5C 53.1667,40.5 52.5,41.1667 51.5,41.5C 48.5737,40.7349 46.5737,39.0683 45.5,36.5 Z"/></g>
<g><path style="opacity:1" fill="#f6f6f6" d="M 25.5,37.5 C 26.3764,37.3691 27.0431,37.7025 27.5,38.5C 27,39.5 26.5,40.5 26,41.5C 22.6446,43.8698 19.978,46.8698 18,50.5C 16.3964,49.9323 15.7297,48.9323 16,47.5C 19.3709,44.2975 22.5375,40.9641 25.5,37.5 Z"/></g>
<g><path style="opacity:1" fill="#f3f3f3" d="M 33.5,38.5 C 36.1311,40.9536 38.9644,43.2869 42,45.5C 43.5588,47.2166 44.3921,49.2166 44.5,51.5C 43.448,51.6495 42.448,51.4828 41.5,51C 40.4582,49.082 39.2915,47.2487 38,45.5C 37.3076,46.0253 36.8076,46.6919 36.5,47.5C 37.5771,49.7294 38.2437,52.0628 38.5,54.5C 37.1779,54.67 36.0113,54.3366 35,53.5C 34.7638,51.236 34.2638,49.0693 33.5,47C 34.3081,46.6924 34.9747,46.1924 35.5,45.5C 34.6751,43.1987 34.0084,40.8654 33.5,38.5 Z"/></g>
<g><path style="opacity:1" fill="#f9f9f9" d="M 29.5,38.5 C 30.1174,38.6107 30.6174,38.944 31,39.5C 31.4993,44.4889 31.6659,49.4889 31.5,54.5C 30.1266,54.6567 28.7932,54.49 27.5,54C 28.1667,51.6667 28.8333,49.3333 29.5,47C 28.6919,46.6924 28.0253,46.1924 27.5,45.5C 28.3249,43.1987 28.9916,40.8654 29.5,38.5 Z"/></g>
<g><path style="opacity:1" fill="#fcfcfc" d="M 24.5,45.5 C 25.4972,45.4701 26.1639,45.9701 26.5,47C 25.9761,49.4133 24.9761,51.5799 23.5,53.5C 22.5,53.1667 21.8333,52.5 21.5,51.5C 22.5133,49.4734 23.5133,47.4734 24.5,45.5 Z"/></g>
</svg>
