<?xml version="1.0" encoding="UTF-8"?>
<!DOCTYPE svg PUBLIC "-//W3C//DTD SVG 1.1//EN" "http://www.w3.org/Graphics/SVG/1.1/DTD/svg11.dtd">
<svg xmlns="http://www.w3.org/2000/svg" version="1.1" width="64px" height="64px" style="shape-rendering:geometricPrecision; text-rendering:geometricPrecision; image-rendering:optimizeQuality; fill-rule:evenodd; clip-rule:evenodd" xmlns:xlink="http://www.w3.org/1999/xlink">
<g><path style="opacity:0.996" fill="#00a3ff" d="M 3.5,0.5 C 6.54679,-0.14456 8.71345,0.85544 10,3.5C 10.6667,21.8333 10.6667,40.1667 10,58.5C 7.7651,63.1073 5.09843,63.4407 2,59.5C 1.33333,40.5 1.33333,21.5 2,2.5C 2.71719,1.9558 3.21719,1.28913 3.5,0.5 Z"/></g>
<g><path style="opacity:0.995" fill="#00a3ff" d="M 63.5,3.5 C 63.5,21.8333 63.5,40.1667 63.5,58.5C 61.1379,62.0012 58.3045,62.3345 55,59.5C 53.8881,50.0569 53.3881,40.5569 53.5,31C 53.3881,21.4431 53.8881,11.9431 55,2.5C 58.3045,-0.334541 61.1379,-0.001208 63.5,3.5 Z"/></g>
<g><path style="opacity:0.991" fill="#03a0ff" d="M 16.5,19.5 C 20.7572,18.5971 23.2572,20.2637 24,24.5C 24.6667,35.1667 24.6667,45.8333 24,56.5C 22.2011,62.2628 19.2011,63.2628 15,59.5C 14.3333,47.1667 14.3333,34.8333 15,22.5C 15.5133,21.4734 16.0133,20.4734 16.5,19.5 Z"/></g>
<g><path style="opacity:0.987" fill="#00a3ff" d="M 43.5,19.5 C 46.8078,18.9738 48.9745,20.3072 50,23.5C 50.6667,35.1667 50.6667,46.8333 50,58.5C 49.5212,60.646 48.1879,61.646 46,61.5C 43.6948,61.5159 42.0282,60.5159 41,58.5C 40.3333,46.5 40.3333,34.5 41,22.5C 42.045,21.6266 42.8783,20.6266 43.5,19.5 Z"/></g>
<g><path style="opacity:0.948" fill="#00a2ff" d="M 29.5,37.5 C 33.1816,36.7253 35.6816,38.0586 37,41.5C 37.6667,46.8333 37.6667,52.1667 37,57.5C 35.6661,61.1044 33.1661,62.271 29.5,61C 28.8742,60.2496 28.3742,59.4162 28,58.5C 27.3333,52.1667 27.3333,45.8333 28,39.5C 28.7172,38.9558 29.2172,38.2891 29.5,37.5 Z"/></g>
</svg>
