<!-- by TradingView --><svg width="56" height="56" viewBox="0 0 56 56" xmlns="http://www.w3.org/2000/svg"><path fill="#F0F3FA" d="M0 0h56v56H0z"/><path d="M33.42 11.92c-.21.25-.48.3-.8.15a.13.13 0 0 0-.15.02c-.12.1-.2.27-.27.5l-.54-.29a.22.22 0 0 0-.16-.01.66.66 0 0 0-.4.34c-.44.77-.9 1.07-1.36.9a.2.2 0 0 0-.18.01l-1.06.62a.28.28 0 0 1-.28 0c-.31-.2-.62-.24-.92-.14-.07.02-.12 0-.15-.06-.1-.18-.17-.38-.2-.57-.04-.16-.09-.26-.15-.3-.24-.2-.63-.2-.88-.26a.25.25 0 0 1-.14-.1 1.63 1.63 0 0 0-1.03-.65l-.85-.56a16.6 16.6 0 0 1 9.52.4Z" fill="#1E5924"/><path d="m23.9 11.52.85.56c.14.17.3.32.48.44.26.17.42.3.5.4.1.14.2.32.31.55.09.18.1.37.05.57-.14.52-.46.76-.97.72a5.9 5.9 0 0 1-2.01-.55 1.11 1.11 0 0 1-.4-.32 19 19 0 0 1-.9-1.23.71.71 0 0 1-.15-.27c-.01-.06 0-.1.07-.13.69-.33 1.42-.57 2.17-.74Z" fill="#BFBFBF"/><path d="M39.28 15.33c-.67-.13-1.57-.36-2.7-.68a5.8 5.8 0 0 0-1.38-.16c-.32-.01-.48.2-.7.34a.2.2 0 0 1-.28-.05l-.68-.89a4.5 4.5 0 0 0-.66-.65c-.25-.21-.47-.42-.68-.65.06-.23.15-.4.27-.5.05-.03.1-.04.15-.02.32.15.59.1.8-.15 2.18.69 4.14 1.82 5.86 3.4Z" fill="#5A98E3"/><path d="M31.09 12.63c.04.42.13.72.27.9.22.26.42.55.6.84.23.38.43.65.6.83.64.66 1.4 1.25 2.26 1.77a34.66 34.66 0 0 0-1.5 1.03c-.1.13-.07.15.07.07l1.32-.84c.25.42.55.73.9.93l1.14.67c.18.1.37.16.56.2.97.15 1.92.16 2.86.02.22-.03.53-.14.94-.3.3-.13.63-.23.96-.3a15.9 15.9 0 0 1 2.04 4.07c-.38.2-1.2.77-1.23 1.25 0 .06.01.11.05.16.3.4.66.57 1.17.5l.5-.03.31 1.67a27.69 27.69 0 0 1-6.61-.88 4.66 4.66 0 0 1-.54-.12c-.67-.22-1.35-.42-2.04-.6a.2.2 0 0 1-.13-.09c-.1-.14-.2-.26-.33-.34l-.32-.18c-.03-.13-.1-.18-.22-.17-.06 0-.13.04-.22.1-.3.25-.61.23-.94-.03-.2-.17-.42-.33-.66-.5l-.38-.41a4.56 4.56 0 0 0-.95-1.72 6.16 6.16 0 0 0-2.37-2.28c-.02-.05 0-.09.07-.12.65-.31 1.33-.56 2.03-.75.1-.03.22-.12.33-.26.2-.07.31-.18.34-.33.07-.48-.12-.87-.56-1.18-1.08-.76-2.1-.71-3.06.14a2.18 2.18 0 0 0-.8 1.77.04.04 0 0 1-.05.02c-.4-.27-.85-.42-1.35-.46a22 22 0 0 0-1.38 0l-.97-.12-2.97-2.74c-.43-.4-.81-.93-1.15-1.59a4 4 0 0 1 1.56-.66c.06 0 .11 0 .17.02.15.07.28.1.4.07.32.48.63.9.9 1.23.13.15.26.25.4.32a5.9 5.9 0 0 0 2.01.55c.5.04.83-.2.97-.72a.81.81 0 0 0-.05-.57c-.1-.24-.21-.42-.3-.54-.09-.11-.25-.25-.5-.41a2.16 2.16 0 0 1-.49-.44c.44.1.78.31 1.03.65.03.05.08.09.14.1.25.06.64.05.88.25.06.05.1.15.14.31.04.2.11.38.21.57.03.06.08.08.15.06.3-.1.6-.05.91.13a.27.27 0 0 0 .29 0l1.06-.6a.2.2 0 0 1 .18-.02c.47.17.92-.13 1.35-.9Z" fill="#5A98E3"/><path d="M32.2 12.6c.2.22.43.43.68.64.27.22.5.44.66.65l.69.89a.2.2 0 0 0 .27.05c.22-.14.38-.35.7-.34.6.01 1.06.06 1.38.16 1.13.32 2.03.55 2.7.68 1.07.87 2 1.91 2.8 3.12-.34.07-.66.17-.97.3-.4.17-.72.27-.94.3-.94.14-1.89.13-2.86-.03a1.8 1.8 0 0 1-.56-.19l-1.14-.67c-.35-.2-.65-.51-.9-.93l3.24-1.74c.05-.03.09-.01.11.04.21.45.22.44.01-.04-.02-.06-.06-.07-.12-.05-.8.3-1.46.6-1.98.9-.57.32-.95.54-1.15.63-.87-.52-1.62-1.1-2.26-1.77a4.91 4.91 0 0 1-.6-.83c-.18-.3-.38-.57-.6-.84-.14-.18-.23-.48-.27-.9.1-.18.23-.3.4-.34.06-.02.12-.01.17.01l.54.3Z" fill="#BFBFBF"/><path d="M19.68 13.23c.34.66.72 1.2 1.15 1.59l2.97 2.74-1.55.27a.13.13 0 0 1-.13-.06c-.22-.38-.43-.75-.7-1.1l-1.5-2a2.3 2.3 0 0 1-.47-1.32.5.5 0 0 1 .23-.12Z" fill="#8CC9D4"/><path d="M19.45 13.35c.01.46.17.9.48 1.31.49.68.99 1.34 1.5 2 .26.36.47.73.69 1.1a.12.12 0 0 0 .13.07l1.55-.27.97.11-3.05.56-.93.31c-.07.03-.1 0-.07-.08.02-.06.1-.12.24-.17a.37.37 0 0 0 .3-.26.26.26 0 0 0-.05-.25c-.2-.22-.41-.43-.64-.63a3.95 3.95 0 0 1-.57-.6c-.48-.64-.96-1.3-1.43-1.96a.59.59 0 0 0-.24-.26c-.15-.08-.16-.16-.01-.25l1.13-.73Z" fill="#F3F2F0"/><path d="M20.05 19.05c-.04 0-.09.04-.14.1l.03-.23c0-.06-.01-.1-.06-.14a2.3 2.3 0 0 1-.43-.44c-.4-.54-.8-1.08-1.18-1.62-.4-.57-.74-1.2-1.03-1.86l.55-.38c.06-.04.1-.03.13.03.38.63.78 1.25 1.2 1.84.07.09.14.17.23.23l.1.1 1.17 1.64c.03.05.03.1-.01.14l-.56.6Z" fill="#01354E"/><path d="M20.96 18.29a1.16 1.16 0 0 0-.7-.7.3.3 0 0 1-.13-.1c-.1-.15-.22-.3-.34-.45l-.87-1.46a2.09 2.09 0 0 1-.2-.48l-.15-.5c.47.66.95 1.3 1.43 1.94.2.26.39.46.57.61.23.2.44.4.64.63a.26.26 0 0 1 .05.25.37.37 0 0 1-.3.26Z" fill="#8CC9D4"/><path d="M17.24 14.86c.29.67.63 1.29 1.03 1.86l1.18 1.62c.13.17.27.31.43.44.05.03.07.08.06.14l-.03.23-.8.46-.82.4c-.34.15-.63.39-.86.7a13.73 13.73 0 0 1-1.04 1.21h-.03l-.02-.03v-.1a.11.11 0 0 0-.03-.05.88.88 0 0 1-.17-.55c0-.06-.03-.1-.1-.09H16a.18.18 0 0 1-.12-.07c-.33-.44-.54-.7-.62-.76a.46.46 0 0 0-.5-.07l-.72.32a.24.24 0 0 0-.12.11c-.28.6-.26 1.11.06 1.53.1.17.17.36.2.58.13.25.28.47.45.65.17.18.37.33.61.44.4.17.49.38.41.78 0 .05 0 .1.02.16l.52 1.19c-.36.24-.48.46-.38.67.1.17.13.3.12.38-.33.41-.51.89-.54 1.41a.52.52 0 0 1-.04-.02 2.51 2.51 0 0 0-1.18-1.53c-.62-.39-1.33-.93-2.11-1.62a1.72 1.72 0 0 0-.8-.3c.22-1.06.42-1.83.59-2.3a17.6 17.6 0 0 1 5.4-7.79Z" fill="#001F37"/><path d="m34.71 17.23-1.32.84c-.14.08-.16.06-.07-.07l.09-.07c.4-.29.87-.6 1.4-.96.2-.1.6-.3 1.17-.64.51-.3 1.17-.6 1.97-.9.06-.01.1 0 .12.06.2.48.2.49 0 .03-.03-.05-.07-.06-.12-.03l-3.24 1.74Z" fill="#601700"/><path d="M31.63 17.72a.69.69 0 0 0-.47-.09l-1.37-.1a1.7 1.7 0 0 0-1.6.79h-.02a.04.04 0 0 1-.04 0l-.04-.04c-.04-.03-.04-.06-.02-.1.43-.65 1-.96 1.72-.94.53.02 1.05.08 1.55.18a.36.36 0 0 0 .42-.44c-.08-.32-.25-.51-.5-.58-.9-.64-1.8-.58-2.74.18-.38.31-.6.66-.65 1.07-.03.12-.04.34-.02.65 0 .08.02.13.05.16.04.04.08.06.14.07.06 0 .1.04.1.1a9.62 9.62 0 0 1-.01.67.1.1 0 0 0 .07.06c.06.01.1-.01.13-.07.16-.49.46-.64.87-.44.95.5 1.74 1.26 2.37 2.28l.95 1.72.38.4.47.97c.03.07.08.1.15.1.3-.03.57.06.8.26a.06.06 0 0 0 .07 0l.02-.02v-.03c-.03-.46.14-.69.53-.67l.32.18c.17.26.24.54.21.84a.48.48 0 0 0-.2.18c-.02.05.02.12.12.21.32.3.58.6.78.9l.44.63c.1.13.17.29.23.49.05.17.11.35.19.52l.15.6.13.69a.2.2 0 0 0 .16.16 6.24 6.24 0 0 1 3.24 1.97 10.43 10.43 0 0 1 2.25 4.78l.04.1a.4.4 0 0 1-.2.25 9.93 9.93 0 0 0-2.06-4.7 6.24 6.24 0 0 0-2.03-1.7c-.39-.2-.8-.34-1.23-.43-.06-.01-.1.01-.1.07l-.08.4c.04.76-.07 1.53-.34 2.3-.08 0-.13-.02-.16-.08l.28-2.02c0-.74-.14-1.48-.4-2.2a.12.12 0 0 0-.12-.09l-3.72-.16c.37-.85.48-1.78.34-2.8a3.46 3.46 0 0 0-.54-1.5l-.02.02c-.01 0-.02.02-.01.04a6.9 6.9 0 0 1 .14 4l-.84-1.26c.25-.87.35-1.54.3-2a6.91 6.91 0 0 0-2.54-4.9c-.2-.18-.46-.29-.76-.33a.2.2 0 0 0-.16.05.8.8 0 0 0-.27.44c-.03.12 0 .14.07.04l.18-.25a.34.34 0 0 1 .5-.05c.32.27.56.47.72.58.26.19.46.4.6.67l.73 1.12c.2.3.34.61.42.92a7 7 0 0 1-.18 4.33 5.8 5.8 0 0 1-.33-1.68c.22-.63.33-1.2.3-1.73-.01-.36-.06-.36-.12 0-.07.32-.14.74-.2 1.24a8.3 8.3 0 0 0-2.28-2.84c-2.28-1.91-4.73-2.27-7.36-1.09-.5.22-1.45.68-2.88 1.37-.5.25-1.1.5-1.75.72-.12.04-.16 0-.1-.12.38-.96.95-1.77 1.72-2.45.87-.6 1.63-1.06 2.3-1.38.53-.25 1.2-.47 2-.65a6.62 6.62 0 0 1 1.6-.15c.65.01 1.19.03 1.6.06a2.81 2.81 0 0 1 1.63.58h.01l.01-.02v-.02c-.33-.79-2.02-.81-2.7-.75-.38.03-.7.04-1 .03-.32 0-.64.02-.98.08-.42.08-.84.18-1.26.28a.26.26 0 0 1-.01-.12l3.05-.56 1.38.01a2.7 2.7 0 0 1 1.37.46.04.04 0 0 0 .03-.02v-.01c-.02-.69.25-1.27.8-1.76.96-.85 1.98-.9 3.06-.14.44.3.63.7.56 1.18-.03.15-.14.26-.34.33Z" fill="#543930"/><path d="M31.26 16.4c-1.55-.52-2.67-.11-3.39 1.25.06-.4.27-.76.65-1.06.93-.77 1.85-.83 2.74-.19Z" fill="#E8B3A5"/><path d="M31.26 16.4c.25.07.42.26.5.58a.36.36 0 0 1-.42.44c-.5-.1-1.02-.16-1.55-.18-.72-.02-1.3.3-1.72.94-.02.04-.02.08.02.1l.04.04a.04.04 0 0 0 .04 0 .04.04 0 0 0 .03-.01c.4-.56.92-.82 1.6-.77-.25.01-.46.06-.64.13-.26.1-.26.2.01.28a.8.8 0 0 0 .3.03c.26-.03.28.02.05.14l-.23.11a.07.07 0 0 0-.04.04.07.07 0 0 0 0 .06c.03.04.07.06.14.07h.16l1.8-.66c.06-.02.05-.04-.02-.06l-.17-.05c.16-.03.32 0 .47.1-.11.14-.22.22-.33.25-.7.19-1.38.44-2.03.75-.07.03-.09.07-.07.12-.41-.2-.7-.05-.87.44-.03.06-.07.08-.13.07a.1.1 0 0 1-.07-.05 9.63 9.63 0 0 0 0-.67c0-.07-.03-.1-.09-.1a.22.22 0 0 1-.14-.08c-.03-.03-.04-.08-.05-.15-.02-.32-.01-.53.02-.66.72-1.36 1.84-1.77 3.39-1.24Z" fill="#6C4335"/><path d="m29.8 17.53 1.36.1.17.04c.07.02.08.05.01.07l-1.79.66h-.16c-.06 0-.1-.03-.13-.07l-.01-.03a.07.07 0 0 1 .02-.05l.02-.02.23-.12c.23-.11.21-.16-.05-.14a.8.8 0 0 1-.3-.02c-.27-.08-.27-.17 0-.28.17-.07.38-.12.62-.14Z" fill="#EF6568"/><path d="M18.52 20.3c-.18-.2-.46-.05-.84.46-.53.5-.94 1.03-1.24 1.58-.11.2-.2.2-.25-.03l-.23-.95c0-.04-.02-.04-.03 0-.1.51-.04 1 .19 1.45.05.16.04.28-.01.34-.05.05-.09.04-.11-.02a2.7 2.7 0 0 1-.26-.93c.02-.24.02-.47 0-.7 0-.17-.05-.3-.13-.42-.1-.12-.2-.22-.34-.3l-.18-.18c.03-.08 0-.15-.07-.21-.04-.04-.09-.05-.14-.02a.28.28 0 0 1-.17.04c-.37.13-.6.38-.7.76-.04.11-.05.28-.05.5l.01.5c-.32-.43-.34-.94-.06-1.54.03-.05.07-.09.12-.11l.71-.32a.46.46 0 0 1 .5.07c.1.07.3.32.63.76a.18.18 0 0 0 .17.07c.07 0 .1.03.1.1 0 .2.05.38.17.54l.03.05a.2.2 0 0 1 0 .06.06.06 0 0 0 .02.07h.05c.37-.4.71-.8 1.02-1.2.23-.32.52-.56.86-.71l.82-.4a28.45 28.45 0 0 0 .94-.56l1.68-.7c.42-.1.84-.2 1.26-.27.34-.07.66-.1.99-.08.28 0 .61-.01.99-.04.69-.06 2.37-.04 2.7.75a.03.03 0 0 1 0 .03.03.03 0 0 1-.04 0 2.81 2.81 0 0 0-1.6-.57c-.42-.03-.96-.05-1.61-.06a6.62 6.62 0 0 0-1.6.15c-.8.18-1.47.4-2 .65-.67.32-1.43.78-2.3 1.38Z" fill="#E8B3A5"/><path d="M15.27 18.66c.1.04.2.01.24-.07.04-.08-.01-.18-.1-.22-.1-.04-.2-.01-.24.07-.04.08.01.18.1.22Z" fill="#BFBFBF"/><path d="M31.91 26.25c-.13.63-.41 1.2-.83 1.69a.67.67 0 0 1-.1.14c-.13.1-.16.08-.08-.07l.61-1.14a7.37 7.37 0 0 0 .19-4.33 2.92 2.92 0 0 0-.42-.92l-.72-1.11a2.03 2.03 0 0 0-.61-.68c-.16-.1-.4-.3-.72-.58a.34.34 0 0 0-.4-.04.34.34 0 0 0-.1.1l-.18.24c-.08.1-.1.09-.07-.04a.8.8 0 0 1 .27-.44.2.2 0 0 1 .16-.05c.3.05.56.16.76.33a6.91 6.91 0 0 1 2.55 4.9c.04.47-.06 1.13-.3 2Z" fill="#E8B3A5"/><path d="M31.16 24.7c-.1.4-.08.57.03.5.02.56.13 1.12.32 1.67l-.6 1.14c-.09.15-.06.17.07.07a.67.67 0 0 0 .1-.14c2.13 1.52 3.8 2.82 5.27 4.83.03.04.06.04.08 0l.26-.47c-.03.07.01.04.1-.08.04.06.1.09.17.09l-.46 1.18-.02-.06c0-.04-.03-.04-.06 0l-.1.12-.01-.06c-.02-.04-.03-.05-.05 0L34.7 36.2c-.12.3-.32.6-.59.87l-.69.72c-.3.32-.63.6-.96.83-.33.23-.63.38-.9.45-.09.02-.1 0-.06-.08l.17-.32.03-.08a.31.31 0 0 0 0-.13c-.2-1.22-1.01-1.88-2.1-2.28a1.03 1.03 0 0 0-.51-.05l-.5.08c-.18.11-.27.19-.3.23-.22.43-.3.41-.23-.06.02-.14.1-.3.27-.47.3-.34 1.06-.4 1.48-.41.19 0 .22-.06.09-.18-.03-.04-.12-.03-.27 0a.1.1 0 0 1-.12-.1c.2-.9.86-1.84 1.37-2.5.13-.17.1-.22-.1-.15a.6.6 0 0 0-.24.19 9.77 9.77 0 0 0-1.17 1.77c-.12.22-.18.42-.19.59 0 .12-.06.19-.18.2a1.9 1.9 0 0 0-.96.4c-.47.37-.22 1.24-.02 1.75.03.1.04.18.03.25-.03.17-.21.33-.28.42-.33.5-.79.85-1.37 1.04a.52.52 0 0 0-.27-.25c-.2-.08-.28-.14-.38-.31a6.83 6.83 0 0 1-.8-2.9 20.1 20.1 0 0 0-.08-1.16c-.01-.06-.04-.07-.08-.02a.36.36 0 0 0-.1.2c-.05.42-.05.83 0 1.23l-.07-1.03a.06.06 0 0 0-.03-.05.06.06 0 0 0-.06 0l-.05.03a.2.2 0 0 0-.11.18l-.04 1.07c0 .2-.06.21-.15.02a.89.89 0 0 0-.32-.36.36.36 0 0 1-.12-.13l-.7-1.2a.11.11 0 0 0-.1-.06.1.1 0 0 0-.1.07c0 .02.02.07.07.14h-.06a.07.07 0 0 0-.05.02.06.06 0 0 0 0 .05c.29 1 .86 1.79 1.72 2.37.03.23.08.52.17.87.03.1-.01.32-.12.63a.34.34 0 0 0-.02.17c.04.26 0 .45-.13.58-.44.44-.9.51-1.36.22.12-.07.13-.12.01-.16a7.02 7.02 0 0 1-2.12-2.55l-.4-.85a4.97 4.97 0 0 1-.35-.88 8 8 0 0 1-.26-2.76c0-.06.02-.11.05-.16a.38.38 0 0 0 .06-.23c.2.16.33.33.36.51.04.18.06.53.06 1.05 0 .23.1.39.3.47.3.13.65.17 1.03.12.94-.1 1.9-.39 2.89-.83.3-.14.78-.05 1.12-.14.69-.17 1.42-.49 2.2-.94.48-.28.84-.6 1.07-.97a3.58 3.58 0 0 0 1.49-1.5c.19-.36.16-.37-.08-.05a6.3 6.3 0 0 1-1.08 1.1c-.47.39-1.28.86-2.43 1.41.25-.24.5-.47.76-.68.31-.25.56-.49.75-.7.72-.83 1.54-1.69 1.92-2.7l.35-1.37c.01-.05.04-.1.09-.14.06-.06.1-.12.09-.16-.03-.23-.09-.24-.19-.04l-.52 1.07c-.82 1.77-2 3.26-3.56 4.47a7.52 7.52 0 0 1-2.86 1.25l1.93-1.28a4.37 4.37 0 0 0 1.37-1.85c.38-.89.55-1.7.5-2.44a.43.43 0 0 0-.03-.16c-.08-.16-.04-.3.12-.4a2.73 2.73 0 0 0 1.22-2.28c0-.06-.03-.1-.08-.13a.6.6 0 0 0-.3-.09c-.08 0-.1.04-.1.1l.08.32-.66 1.35a.07.07 0 0 0 .02.08.07.07 0 0 0 .07.02l.04-.04.01.01v.03a4.6 4.6 0 0 1-2.18 1.35.44.44 0 0 0-.01-.06c-.01-.03-.04-.05-.08-.04-.56.14-1.05.2-1.46.2l-2.55-.08c-.69-.02-1.3.13-1.81.47l-2.42 1.35c-.24-.1-.53-.09-.85 0-.43 0-.71-.18-.85-.55-.03-.06-.05-.06-.06 0-.02.1 0 .2.06.3a.16.16 0 0 0-.12-.04l-.07.1a1.47 1.47 0 0 0-.2-.54c-.11-.06-.13-.24-.07-.51l.03.02c-.05.06-.03.1.04.14a.08.08 0 0 0 .1-.02l.01-.04c.07-.6.44-1.23.78-1.75.15-.24.12-.27-.1-.09a1.5 1.5 0 0 0-.28.35c0-.08-.03-.21-.12-.38-.1-.21.02-.43.38-.67a6.67 6.67 0 0 1 .5.23.1.1 0 0 0 .06-.02c.03-.03.04-.06.01-.1a.44.44 0 0 0-.1-.1c.28.02.49-.06.62-.23l.3-.27c.06-.04.1-.05.1-.01-.04-.05-.04-.04 0 .03 0 .02.02.03.04.02.2-.13.4-.26.6-.41.57-.45.94-.49 1.65-.65.46-.1.93-.32 1.4-.66.05-.03.06-.07.03-.11l-.03-.06c-.02-.02-.03-.03-.06-.01-.52.36-1.1.6-1.73.71l.1-.09a.1.1 0 0 0-.02-.16.1.1 0 0 0-.06 0c-.62.07-1.19.32-1.7.74-.04.04-.08.03-.1-.02-.1-.18-.1-.4-.24-.58-.32-.4-.68-.35-1.1.14l.11-1.37c.18-.75.56-1.43 1.13-2.02.14-.14.14-.21 0-.2.37-.51.65-.67.83-.47a6.39 6.39 0 0 0-1.73 2.45c-.05.12-.01.16.11.12.66-.23 1.24-.47 1.75-.71 1.43-.7 2.39-1.16 2.88-1.38 2.63-1.18 5.08-.82 7.36 1.09a8.3 8.3 0 0 1 2.27 2.84Z" fill="#7C513C"/><path d="M15.09 20.6a6.04 6.04 0 0 0-.3 2c0 .05.01.1.04.16l.08.14c.04.06.03.08-.04.04a.18.18 0 0 1-.06-.05c-.1-.16-.2-.3-.31-.39a.31.31 0 0 1-.1-.14c-.15-.47-.2-.83-.17-1.07.04-.3.23-.56.56-.77.07-.04.06-.07 0-.1a.29.29 0 0 0-.08 0c.06 0 .12-.02.17-.05.05-.03.1-.02.14.01.08.07.1.14.07.21Z" fill="#EF6568"/><path d="M14.7 20.41c.04 0 .06 0 .08.02.07.02.07.05.01.1-.33.2-.52.45-.56.76-.03.24.02.6.18 1.07.01.05.04.1.09.14.1.1.21.23.31.39l.06.05c.06.04.08.02.04-.04l-.08-.14a.34.34 0 0 1-.05-.17c0-.68.1-1.35.3-2l.19.18a5.06 5.06 0 0 0-.1 1.75 1.7 1.7 0 0 0 .73 1.25.03.03 0 0 0 .02-.01c.22-.53.28-.85.2-.95a2.22 2.22 0 0 1-.19-1.45c.01-.04.02-.04.03 0l.23.95c.05.23.14.24.25.03.3-.55.71-1.08 1.24-1.58.15 0 .15.06.01.2-.57.6-.95 1.27-1.13 2.02a2.9 2.9 0 0 0-.2 2.09c.04.16.14.32.29.47.01.01.02.02.04.01.02 0 .03 0 .05-.02.02-.02.03-.05 0-.08-.2-.34-.3-.7-.29-1.1.42-.5.78-.54 1.1-.14.14.19.13.4.23.58.03.06.07.06.11.03.51-.43 1.08-.68 1.7-.76a.1.1 0 0 1 .11.12.1.1 0 0 1-.03.05l-.1.1c-.74.16-1.37.53-1.9 1.13 0-.03-.04-.03-.1.01.06-.23.02-.43-.14-.6.07-.1.07-.22-.01-.33a.07.07 0 0 0-.07-.04.08.08 0 0 0-.06.05.4.4 0 0 0-.02.2c-.12-.08-.22-.03-.29.15-.04.1-.05.31-.03.63.01.15.12.22.32.21-.13.18-.34.25-.62.23a1.93 1.93 0 0 1-.73-1.08c-.06-.22-.03-.52-.03-.75 0-.06-.03-.1-.1-.13-.5-.21-.92-.53-1.25-.97a.27.27 0 0 0-.13-.09c-.07-.02-.12-.07-.14-.14-.04-.13-.08-.16-.1-.07-.03-.22-.1-.41-.2-.58v-.5c-.02-.21 0-.38.03-.5.11-.37.34-.62.7-.75ZM23.97 20.96c.92.22 1.47.78 1.66 1.68.02.06 0 .1-.07.1-.41.03-.77.17-1.07.42a.13.13 0 0 1-.15.01 2.1 2.1 0 0 1-1.16-1.87c0-.05.01-.1.04-.14.4-.59.92-.68 1.57-.28l.02.03.01.06c.01.03 0 .04-.03.03l-.74-.23h-.04a.05.05 0 0 0-.03.04l-.03.1v.02a.03.03 0 0 0 .02.03Z" fill="#601700"/><path d="M15.27 20.77c.13.09.25.2.34.31.08.11.12.25.13.42.02.23.02.46 0 .7 0 .17.08.48.26.93.03.06.06.07.1.02.06-.06.07-.18.02-.34.08.1.02.42-.2.94v.01h-.02a1.7 1.7 0 0 1-.73-1.24 5.05 5.05 0 0 1 .1-1.75Z" fill="#6C4335"/><path d="m41.73 21.08 1.16.53a.37.37 0 0 1 .19.48c-.22.51-.57.85-1.05 1.01a.18.18 0 0 1-.13 0l-1.07-.49c-.15-.06-.21-.18-.2-.33.07-.71.43-1.1 1.07-1.2h.03Z" fill="#1E5924"/><path d="m32.52 22.85-.95-1.72c.42.47.74 1.04.95 1.72Z" fill="#8CC9D4"/><path d="M24.32 21.73a.56.56 0 0 1-.34-.12c-.18-.15-.15-.23.08-.26.04 0 .08 0 .12.02.2.13.24.25.14.36Z" fill="#E8B3A5"/><path d="M23.98 21.6c.1.08.2.13.34.13a1 1 0 0 1 .63.71.25.25 0 0 1-.11.27.25.25 0 0 1-.1.04c-.54.08-.9-.41-1.08-.86a.14.14 0 0 1 .04-.16c.07-.07.16-.1.28-.12Z" fill="#001F37"/><path d="m37.45 24.8-.67-.28a.19.19 0 0 1-.1-.12c-.13-.42-.28-1 .04-1.37.36-.4.8-.55 1.32-.45.55.11 2.3.62 2.46 1.23.13.5-.17.95-.5 1.29a.2.2 0 0 1-.15.06c-.64 0-1.32-.08-2.05-.24a2.74 2.74 0 0 1-.35-.12Z" fill="#1E5924"/><path d="m44.1 22.52.5 1.88c-.16 0-.33.02-.5.04-.5.06-.87-.1-1.17-.5a.23.23 0 0 1-.05-.17c.02-.48.85-1.06 1.23-1.25Z" fill="#BFBFBF"/><path d="m16.65 25.97.1.1c.03.04.02.07-.01.1a.1.1 0 0 1-.06.02 6.67 6.67 0 0 0-.5-.23l-.52-1.19a.28.28 0 0 1-.02-.16c.07-.4-.02-.6-.4-.78-.25-.1-.46-.26-.62-.44-.17-.18-.32-.4-.45-.65.02-.09.06-.06.1.07.02.07.07.12.14.14.05.02.1.05.13.1.33.43.75.75 1.26.96.06.02.08.06.09.13 0 .23-.03.53.03.74.1.44.35.8.73 1.1Z" fill="#E8B3A5"/><path d="M22.45 23.3c.53-.05.9-.12 1.15-.19a.2.2 0 0 1 .11 0c.06.02.1.03.11.05.12.12.1.18-.08.18-.1 0-.23-.04-.38-.02-.45.09-.76.1-.92.05-.08-.03-.08-.05 0-.06Z" fill="#696868"/><path d="M17.67 25.46c.53-.6 1.16-.98 1.9-1.14.63-.12 1.2-.35 1.73-.71.03-.02.04-.01.06 0l.03.07c.03.04.02.08-.02.11-.48.34-.95.56-1.4.66-.72.16-1.1.2-1.67.65-.19.15-.38.28-.6.4-.01.02-.03.01-.03 0-.04-.08-.04-.09 0-.04Z" fill="#E8B3A5"/><path d="m28.39 24.03-.01-.01V24c.02-.05.08-.08.17-.08.1 0 .2.02.32.07l.07.03.15.07.11.1a.3.3 0 0 1 .07.1v.08l-.01.01h-.02l-.85-.35Z" fill="#601700"/><path d="M44.91 26.07 45 27c-1.6.12-2.75.16-3.44.15-1.16-.04-2.92-.4-4.44-.46-.14 0-.25-.03-.3-.07a.61.61 0 0 1-.22-.29.43.43 0 0 0-.12-.17 4.26 4.26 0 0 1-1-1.28c.03-.3-.04-.58-.21-.84.13.08.24.2.33.35a.2.2 0 0 0 .13.09c.69.18 1.37.37 2.04.6a10.85 10.85 0 0 1 1.08.25c1.82.44 3.84.69 6.07.74Z" fill="#8CC9D4"/><path d="M17.43 24.87a.22.22 0 0 1-.16-.13c-.01-.08 0-.15.02-.2a.08.08 0 0 1 .06-.04l.04.01.03.03c.08.11.08.23 0 .33Z" fill="#E8B3A5"/><path d="m22.2 24.79-.65.23c-.1.04-.1.01-.06-.07.13-.19.31-.33.57-.42.08-.03.13 0 .16.08l.03.06a.09.09 0 0 1-.03.1l-.03.02ZM25.75 31.93c.44-.62.8-1.22 1.06-1.82.12-.27.2-.54.26-.8l.17-.84c.06-.29.05-.58-.02-.89a.12.12 0 0 0-.09-.08.12.12 0 0 0-.12.04c-.1.13-.17.2-.22.22l-.37.07c-.06.02-.08.05-.07.1.08.6.05 1.23-.1 1.9.05.19.03.34-.07.45-.18.23-.29.36-.3.39-.09.1-.21.22-.37.34-.17.13-.41.36-.72.69a3.47 3.47 0 0 1-1.1.69c-.64.23-1.07.4-1.29.5-.4.2-.73.2-1 0-.15-.1-.27-.3-.37-.6a2.73 2.73 0 0 0-.53-.93c-.28-.34-.69-.75-1.22-1.24-.14-.13-.3-.23-.47-.3a2.93 2.93 0 0 1-.49-.26h-.05l-.07.08c-.03.03-.03.05 0 .07.64.35 1.21.83 1.74 1.43.37.44.6.87.72 1.32l.05.4.07.42c.09.39.3.56.65.53a7.8 7.8 0 0 0 2.39-.6 7.52 7.52 0 0 0 2.86-1.25 7.33 7.33 0 0 0 3.56-4.47l.53-1.07c.1-.2.15-.19.18.04 0 .04-.03.1-.1.16a.29.29 0 0 0-.08.15l-.35 1.36c-.37 1.01-1.2 1.87-1.92 2.7-.19.21-.44.45-.75.7-.26.21-.51.44-.76.69-.42.16-.8.34-1.12.52-.37.2-.36.26.06.14a10.2 10.2 0 0 0 3.16-1.63c-.23.37-.59.7-1.06.97-.78.45-1.52.77-2.2.94-.35.1-.82 0-1.13.14-1 .45-1.95.72-2.89.83-.38.05-.72.01-1.02-.11-.2-.09-.3-.25-.3-.48-.01-.52-.03-.87-.06-1.05-.04-.18-.16-.35-.37-.51 0-.08-.01-.13-.03-.13-.04 0-.08.01-.11.04a.17.17 0 0 0-.06.1 7.1 7.1 0 0 0 .15 3.05 9.5 9.5 0 0 0 1.81 3.49c.3.37.72.72 1.25 1.04.47.3.92.22 1.36-.22.12-.13.17-.32.13-.58 0-.06 0-.11.02-.17.11-.31.15-.52.13-.63a6.1 6.1 0 0 1-.18-.87 2.1 2.1 0 0 0-.42-.54 5.96 5.96 0 0 1-.46-.45c-.38-.46-.5-.96-.73-1.45-.05-.07-.07-.11-.06-.14a.1.1 0 0 1 .09-.07.1.1 0 0 1 .1.05l.7 1.21c.03.06.07.1.12.13.14.1.25.22.32.36.1.2.14.19.15-.02l.04-1.06a.2.2 0 0 1 .1-.18l.06-.04a.06.06 0 0 1 .06 0 .06.06 0 0 1 .04.05L24.7 36c.15 1.1.42 1.98.81 2.61.15.23.45.43.9.6.58-.2 1.04-.55 1.37-1.05.07-.1.25-.25.28-.42a.45.45 0 0 0-.03-.24c-.2-.52-.45-1.4.02-1.77.27-.2.6-.34.96-.38.12-.02.18-.09.19-.21 0-.17.06-.37.18-.59.34-.65.73-1.24 1.17-1.77a.6.6 0 0 1 .24-.2c.2-.06.23-.01.1.15a7.05 7.05 0 0 0-1.36 2.56.1.1 0 0 0 .11.06c.15-.04.24-.04.27-.01.13.12.1.18-.09.18-.42 0-1.18.07-1.48.4a.95.95 0 0 0-.27.48c-.06.48.01.5.23.06.03-.04.12-.12.3-.23a2.74 2.74 0 0 1 1.1.08l.02.04c0 .03-.01.05-.05.05h-.75a.44.44 0 0 0-.43.38c-.04.28-.04.55.01.8.04.2.18.42.41.67.53.55 1.17.86 1.94.92.06 0 .12 0 .16-.03.23-.14.4-.33.54-.58.06-.13.1-.12.12.02l.01.11-.17.32c-.05.08-.03.1.06.08.27-.07.57-.22.9-.45.33-.23.65-.51.96-.83l.7-.72c.26-.27.46-.56.58-.87.67-.83 1.21-1.71 1.61-2.66l.1-.13c.03-.03.05-.03.07.02v.05a13.76 13.76 0 0 1-3.34 5.03c-.54.5-1.27.8-2.17.92-.5.06-.96-.04-1.4-.3a3.72 3.72 0 0 1-1.18-1.02.1.1 0 0 0-.13.03c-.34.52-.78.9-1.3 1.16-.17.08-.37.13-.62.13a.86.86 0 0 1-.56-.22c-.4-.32-.64-.54-.75-.66-.06-.07-.1-.05-.11.03-.17.95-.67 1.42-1.52 1.4a.32.32 0 0 0-.17.04l-1.34.7-1.22.06-.46-.1c-.07-.02-.1 0-.08.07.14.88.38 1.75.73 2.61-.06.1-.17.05-.32-.15a8.68 8.68 0 0 1-.65-2.55c0-.05-.03-.09-.08-.11a5.25 5.25 0 0 1-1.61-1.3 1.77 1.77 0 0 1-.36-.7l-.22-.77c-.03-.09 0-.2.08-.35.1-.42.27-.7.68-.87.52-.24.97-.5 1.37-.8a.17.17 0 0 0 .06-.19c-.1-.25-.19-.55-.28-.88-.06-.25-.1-.55-.12-.92v-.94c0-.54.07-1 .19-1.39a.2.2 0 0 0-.04-.2 7.7 7.7 0 0 0-1.66-1.4.17.17 0 0 0-.15-.02l-.9.3-.16.04a.3.3 0 0 1-.17 0 2.88 2.88 0 0 1-.68-.33c-.13-.09-.15-.2-.2-.34 0-.08-.02-.1-.03-.04.03-.07.05-.1.06-.1.05-.01.09 0 .12.03.28.4.67.52 1.16.38l.54-.13 2.42-1.34c.67-.14 1.2-.2 1.6-.2l2.44.07c.58.02 1.2-.1 1.87-.37a4.6 4.6 0 0 0 2.18-1.38v-.01c.39-.41.57-.88.52-1.41l-.07-.31c-.02-.07.01-.1.08-.1a.6.6 0 0 1 .31.08c.05.03.08.07.08.13a2.73 2.73 0 0 1-1.22 2.28c-.16.1-.2.24-.12.4.02.05.04.1.04.16.04.74-.13 1.55-.51 2.44-.35.8-.8 1.42-1.37 1.85Z" fill="#601700"/><path d="M17.27 24.74c.02.07.08.11.16.13.16.17.2.37.13.6l-.3.27c-.2.01-.3-.06-.31-.21-.02-.32-.01-.53.03-.63.07-.18.17-.23.29-.16Z" fill="#001F37"/><path d="M15.34 28.4c-.06.27-.04.45.06.51-.1.25-.04.46.16.62l.05.02c.02 0 .03-.02.04-.05.05.14.07.25.2.33.21.14.44.25.68.33a.3.3 0 0 0 .17 0l.16-.03c0 .07 0 .1-.03.07.11.06.13.14.06.23-.39.53-.67.95-.84 1.25-.37.65-.25.76.37.33.16-.12.34-.32.53-.6.3-.44.7-.8 1.09-1.17.23.1.4.2.5.32-.6.63-1.14 1.33-1.6 2.1a12.06 12.06 0 0 0-1.55 3.67.13.13 0 0 1-.11.04l-.06-.01a40.9 40.9 0 0 1-1.99-1.24c-.1-.07-.19-.15-.29-.25-.17-.17-.38-.4-.62-.32a7.22 7.22 0 0 1-.49-1.27c-.51-1.73-.8-3.37-.83-4.92 0-.2.04-.36.1-.53a.2.2 0 0 0 0-.17 1 1 0 0 1-.08-.56c.08-.98.16-1.7.23-2.15.39.07.65.17.8.3.78.7 1.49 1.23 2.11 1.62.63.4 1.03.9 1.18 1.53Z" fill="#002748"/><path d="M44.98 27v1.14c-2.31.1-4.62-.02-6.9-.34a4.08 4.08 0 0 0-1.05.01 3.69 3.69 0 0 1-.2-.52c-.05-.2-.13-.36-.22-.5l-.44-.62c-.2-.3-.46-.6-.78-.9-.1-.1-.14-.16-.11-.21.03-.06.09-.12.19-.18.25.5.59.91 1 1.27.06.05.1.11.12.18.05.12.12.22.21.29.06.04.16.07.31.07 1.52.05 3.28.42 4.44.45.69.02 1.83-.02 3.43-.14Z" fill="#F3F2F0"/><path d="M28.53 25c.05.53-.13 1-.53 1.4 0 .02-.01.04-.04.05a.07.07 0 0 1-.1-.05c0-.02 0-.03.02-.04l.65-1.36Z" fill="#E8B3A5"/><path d="m18.38 26.37-.73.13a.1.1 0 0 1-.12-.07l-.01-.08c-.02-.09.02-.14.11-.16.29-.05.54-.03.76.08.1.05.09.08-.01.1Z" fill="#601700"/><path d="m31.91 26.25.84 1.27-.11.44c-.03.1-.01.1.04.03l.16-.24 3.72.16c.06 0 .1.03.12.09.26.73.4 1.46.4 2.2l-.4 2.1-.25.46c-.02.05-.05.05-.08 0-1.48-2-3.14-3.3-5.27-4.82.42-.5.7-1.06.83-1.7Z" fill="#6C4335"/><path d="M15.37 28.42c.04-.52.22-1 .55-1.41.1-.16.2-.28.28-.34.22-.19.25-.16.1.08a4.49 4.49 0 0 0-.79 1.79.07.07 0 0 1-.06.03h-.04c-.07-.04-.09-.09-.04-.15ZM30.24 27.49a7.33 7.33 0 0 1-3.56 4.47 11.96 11.96 0 0 0 3.56-4.47Z" fill="#E8B3A5"/><path d="m25.75 31.93-1.93 1.28a7.8 7.8 0 0 1-2.4.6c-.34.03-.55-.15-.64-.53a4.24 4.24 0 0 1-.12-.83 3.23 3.23 0 0 0-.73-1.3 6.27 6.27 0 0 0-1.72-1.44c-.04-.02-.04-.04-.01-.07l.07-.08h.05c.17.1.33.2.5.26.17.07.32.17.46.3.53.49.94.9 1.22 1.23.25.29.42.6.53.93.1.3.22.51.37.61.27.2.6.2 1 0 .22-.1.65-.27 1.3-.5a3.47 3.47 0 0 0 1.1-.69c.3-.33.53-.56.7-.7.17-.11.3-.22.37-.33l.31-.39c.1-.11.12-.26.07-.45l.26-.66a.13.13 0 0 1 .11-.09c.07 0 .11-.05.12-.14a2.9 2.9 0 0 0 0-.6.35.35 0 0 0-.06-.16c-.11-.16-.08-.3.11-.42.05-.02.12-.09.22-.22a.12.12 0 0 1 .12-.04.12.12 0 0 1 .09.08c.07.3.08.6.02.9-.09.4-.15.68-.17.83-.06.26-.14.53-.26.8-.27.6-.62 1.2-1.06 1.82Z" fill="#EF6568"/><path d="M44.99 28.14c.02.11 0 .27-.06.48-1.46.06-2.86 0-4.2-.14-.32-.04-.36.05-.15.28.12.13.27.24.43.34.09.06.15.14.18.22.02.06 0 .11-.05.14-.08.05-.17.04-.28-.04-.32-.24-.67-.4-1.05-.5a2.2 2.2 0 0 1-.58-.23 3.09 3.09 0 0 0-.62-.25 48.12 48.12 0 0 1-1.34-.4.11.11 0 0 0-.09.08l.01.07.05.11a.27.27 0 0 0-.06.11l-.15-.6c.41-.05.76-.05 1.05-.01 2.28.33 4.59.44 6.91.34Z" fill="#8CC9D4"/><path d="M26.8 27.76c-.2.12-.23.26-.12.42.03.05.05.1.06.16.02.17.02.37 0 .6 0 .09-.05.13-.12.14-.06 0-.1.04-.11.09l-.26.66c.15-.67.18-1.3.1-1.9-.01-.05.01-.08.07-.1l.37-.07Z" fill="#9B2F2F"/><path d="m41.01 29.1.92.9h.04c.03-.02.03-.03.03-.04l-.66-.73c-.1-.12-.08-.18.07-.17l3.59.04a16.4 16.4 0 0 1-1.12 5.05 1.26 1.26 0 0 0-.34-.6.16.16 0 0 1-.05-.14c0-.04 0-.07-.02-.1a10.94 10.94 0 0 0-2.08-2.3 3.99 3.99 0 0 0-1.1-.9c-.3-.17-.43-.4-.7-.51-.19-.09-.37-.2-.55-.31-.32-.22-.5-.33-.54-.33a1.18 1.18 0 0 1-.62-.27.24.24 0 0 0-.16-.06c-.19 0-.35-.11-.48-.33l-.05-.11a.11.11 0 0 1 .02-.12.11.11 0 0 1 .12-.03c.15.05.57.19 1.28.4.28.09.48.17.62.25.18.1.38.19.58.24.38.09.73.25 1.05.5.1.07.2.08.28.03.06-.03.07-.08.05-.14a.55.55 0 0 0-.18-.22Z" fill="#002748"/><path d="M21.32 30.26c.18-.28.39-.47.61-.59a.5.5 0 0 0 .14-.1l.46-.46c.04-.03.06-.03.1 0l.02.06c.01.03.03.04.06 0l.2-.2a7.6 7.6 0 0 0-.71 2.62h.05l.02-.03c.25-.93.5-1.6.76-2.02.31-.51.69-.9 1.12-1.18.12-.07.2-.07.26.01.03.05.08.08.14.08.1 0 .3-.04.56-.11.43-.12.7.03.8.47.02.05.01.11-.02.16-.36.68-.77 1.34-1.24 1.98l-.29.3c-.03.02-.03.05 0 .08.01.03.04.05.08.06.05.01.1 0 .13-.04l1.14-1.14c.02-.02.04-.02.05 0l.02.07v.04a7.25 7.25 0 0 1-1.87 1.63c-.69.38-1.36.57-2 .58a.7.7 0 0 1-.55-.27 1.11 1.11 0 0 1-.25-.52c-.1-.5-.03-1 .2-1.48Z" fill="#EF6568"/><path d="m22.9 28.97-.19.2c-.03.04-.05.03-.06 0a.26.26 0 0 0-.03-.05c-.02-.04-.05-.04-.08-.01l-.47.47a.51.51 0 0 1-.14.1c-.22.1-.43.3-.61.58.25-.78.78-1.35 1.57-1.73l.17-.1c.08-.05.14-.07.2-.07.2.02.22.09.06.2-.16.12-.3.26-.42.41Z" fill="#9B2F2F"/><path d="m44.93 28.62.07.48-3.59-.04c-.15 0-.17.05-.07.17l.66.73s0 .02-.03.04h-.04l-.92-.9c-.16-.1-.3-.21-.43-.34-.21-.22-.17-.32.14-.28 1.35.15 2.75.2 4.21.14Z" fill="#196378"/><path d="M24.98 28.83c-.05.08-.04.16.02.2.06.04.14 0 .19-.07.04-.07.03-.16-.03-.2-.05-.03-.14 0-.18.07ZM15.62 29.46c.01-.05.02-.04.04.04l-.05.05c-.01 0-.03 0-.05-.02-.2-.16-.25-.37-.16-.61.1.11.16.3.22.54ZM29.1 31.25a10.2 10.2 0 0 1-3.17 1.63c-.42.12-.43.07-.06-.14.33-.18.7-.36 1.12-.52a13.17 13.17 0 0 0 2.43-1.41 6.3 6.3 0 0 0 1.08-1.1c.24-.33.27-.31.08.04a3.58 3.58 0 0 1-1.49 1.5Z" fill="#E8B3A5"/><path d="m17.5 29.64-.54.13c.1-.13 0-.17-.31-.12.32-.1.61-.1.85-.01Z" fill="#B7AA97"/><path d="M23.67 31.18c-.18.11-.2.09-.08-.08l1.03-1.36.02-.01.04.01c.02 0 .02.02.02.03-.07.6-.53 1.09-1.03 1.41Z" fill="#E8B3A5"/><path d="m17.71 37.44-.04-.04c.03-.93.1-1.75.25-2.45a7.3 7.3 0 0 1 1.16-2.7c.07-.1.07-.28.01-.55.07-.25.06-.43-.03-.54a1.04 1.04 0 0 0-.52-.6c-.1-.12-.27-.22-.5-.32a.6.6 0 0 0-.33-.13c-.05 0-.11 0-.16.03-.2.1-.45.13-.72.07.03.02.04 0 .03-.08l.9-.3c.05-.02.1-.01.15.02a7.7 7.7 0 0 1 1.66 1.4.2.2 0 0 1 .04.2 4.7 4.7 0 0 0-.19 1.4v.93c.01.37.06.67.12.92l.28.88a.17.17 0 0 1-.06.2c-.4.29-.85.55-1.37.79-.41.18-.59.45-.68.87Z" fill="#F3F2F0"/><path d="M37.3 30c.28.36.65.66 1.1.88.24.11.43.22.58.34l.36.26a.7.7 0 0 1 .3.33c.08.18.28.41.6.7.03.03.06.08.07.13l.04.27c.02.09.06.17.12.25.13.15.23.32.31.5.12.28.22.48.3.63.1.2.2.4.26.65.1.33.24.67.43 1.04.08.15.14.46.18.93 0 .06-.03.1-.08.12l-1.25.4c-.32-.38-.6-.45-.87-.21-.23.21-.2.25.08.12.28-.14.5-.02.68.34a.07.07 0 0 0 .08.03c.05-.01.07-.03.07-.06.05.03.1.04.17.02.28-.1.64-.2 1.06-.31.07-.02.1 0 .1.07l-.03.06c-.03.03-.01.05.04.06l.06.03a15.15 15.15 0 0 1-3.66 3.9.5.5 0 0 1-.24.1.78.78 0 0 1-.27 0c-.33-.1-.6-.11-.8-.04-.2.07-.5.25-.93.52-.44.28-.73.72-.87 1.32a16.64 16.64 0 0 1-5.68 1.58c-.5.05-1.02.05-1.53.01-.14 0-.24-.09-.3-.24a.24.24 0 0 0-.12-.12c-.66-.34-1.23-.28-1.7.16a.23.23 0 0 1-.16.07 3.46 3.46 0 0 1-1.82-.44.3.3 0 0 1-.12-.12c-.18-.33-.4-.55-.66-.67a.18.18 0 0 1-.1-.12c-.06-.2-.14-.38-.24-.51a42.8 42.8 0 0 0 4.4-1.01h-.01l-.01-.01a214.91 214.91 0 0 1-4.45.77l-.82-1.75a.11.11 0 0 0-.06-.06l-.05-.02c-.05-.03-.06-.06-.02-.11a.2.2 0 0 1 .06-.06l1.34-.7c.06-.03.11-.04.17-.04.85.02 1.35-.45 1.52-1.4.01-.09.05-.1.1-.03l.76.66c.19.15.37.22.56.22.24 0 .45-.05.62-.13a3.3 3.3 0 0 0 1.34-1.19.1.1 0 0 1 .13.03c.28.38.66.71 1.14 1 .44.25.9.35 1.4.29.9-.11 1.63-.42 2.17-.92 1.4-1.3 2.52-2.98 3.35-5.03l.46-1.18c.27-.78.38-1.55.34-2.31Z" fill="#B7AA97"/><path d="M18.04 30.24c-.4.37-.8.73-1.1 1.17-.18.28-.36.48-.52.6-.62.44-.74.32-.37-.33.17-.3.45-.71.84-1.25.07-.1.05-.17-.06-.23.27.07.51.04.72-.06.05-.03.1-.04.16-.03a.6.6 0 0 1 .33.13Z" fill="#196378"/><path d="M21.8 31.24v.01a.02.02 0 0 1-.02.01h-.02a.12.12 0 0 1-.08-.05.33.33 0 0 1-.05-.12 1.06 1.06 0 0 1 0-.36l.01-.06a1.06 1.06 0 0 1 .13-.34.33.33 0 0 1 .09-.1.12.12 0 0 1 .09-.01h.01a.02.02 0 0 1 .02.03l-.18 1Z" fill="#E8B3A5"/><path d="m37.08 30.2-.28 2.02c-.1.12-.14.15-.11.08l.39-2.1Z" fill="#B7AA97"/><path d="M18.54 30.56c.27.15.44.35.52.6-.7.67-1.3 1.42-1.79 2.26l-.72 1.06-.03.02h-.07a.07.07 0 0 1-.05-.03.06.06 0 0 1-.01-.06l.55-1.75c.46-.77 1-1.47 1.6-2.1ZM43.88 34.15l-.53 1.18a.38.38 0 0 0-.04.17c0 .27-.1.47-.3.61l-.05-.1c.17-.11.22-.29.15-.52a11.24 11.24 0 0 0-1.32-2.96.05.05 0 0 1 .03-.02l.06-.03c.05-.01.09 0 .11.04.31.49.59.98.83 1.48.02.04.06.06.12.06.06.01.1.04.1.1a.1.1 0 0 1-.03.09.15.15 0 0 0-.03.16l.2.52a.09.09 0 0 0 .15 0c.05-.09.03-.16-.04-.22a.19.19 0 0 1-.08-.13c0-.05.01-.09.04-.1a.23.23 0 0 0 .08-.08.25.25 0 0 0 .04-.1.32.32 0 0 0-.05-.22c-.2-.32-.34-.6-.4-.83-.08-.3-.29-.48-.42-.76-.05-.12-.11-.21-.18-.29a9.9 9.9 0 0 1-.93-1.18c.8.67 1.5 1.44 2.08 2.3.02.02.02.05.02.09 0 .05 0 .1.05.13.17.18.29.38.34.6Z" fill="#196378"/><path d="M19.06 31.16c.09.11.1.3.03.54-.42.33-.74.67-.94 1.02a13.9 13.9 0 0 0-1.65 4.39l-.54-.3c.01-.46.13-.9.35-1.29.16-.3.2-.46.28-.74.03-.1.12-.28.27-.53.15-.26.3-.54.41-.83.49-.84 1.08-1.59 1.79-2.26Z" fill="#002748"/><path d="M21.82 33.23c.59 0 1.17-.15 1.75-.47a6.52 6.52 0 0 0 1.76-1.42.13.13 0 0 1 .17-.02l.04.04v.02a5.46 5.46 0 0 1-3.38 2.16c-.3.06-.61-.02-.92-.26a.15.15 0 0 1-.06-.12v-.1c0-.07.03-.08.08-.04.17.14.36.21.56.21Z" fill="#601700"/><path d="M21.5 31.7c0 .04 0 .08.02.13.02.04.04.08.08.11.03.03.07.06.12.08.04.02.1.03.14.02h.58c.14 0 .16.03.03.1-.43.24-.78.2-1.06-.15a.34.34 0 0 1-.08-.2c0-.04 0-.12.03-.24.02-.08.04-.08.08 0l.06.14Z" fill="#9B2F2F"/><path d="M19.09 31.7c.06.27.06.45 0 .55a7.31 7.31 0 0 0-1.17 2.7c-.14.7-.22 1.52-.25 2.45-.11.2-.16.34-.13.44l.24.96-.06.2c-.16.17-.24.13-.25-.1l-.02-.48-.06-.04c-.04-.03-.06-.02-.06.03l-.04.44c0 .06-.03.08-.1.07-.07-.01-.14-.06-.2-.15a.22.22 0 0 0-.15-.09c-.1-.02-.18.02-.22.12a.1.1 0 0 1-.07.06.1.1 0 0 1-.09 0l-2.3-1.45-.04.06c-.01.02 0 .03.01.05.57.45 1.17.84 1.78 1.15.22.12.4.23.55.34.17.13.37.23.6.3l.07.05.04.08c.02.21.04.35.07.42.02.04.05.08.1.11.08.04.11.02.11-.06v-.16c0-.07.03-.1.1-.08l.11.02.15.57c.05.16.07.36.07.6 0 .25.04.54.11.86a15.56 15.56 0 0 1-4.55-4.92c-.29-.51-.62-1-.84-1.54l-.28-.7c.24-.08.45.14.62.31.1.1.2.19.3.25a40.9 40.9 0 0 0 2.04 1.25.13.13 0 0 0 .1-.04 12.06 12.06 0 0 1 1.55-3.66l-.54 1.74a.07.07 0 0 0 0 .06.06.06 0 0 0 .06.03h.07s.02 0 .03-.02l.72-1.06a6.5 6.5 0 0 1-.41.83c-.15.25-.24.43-.27.53-.08.28-.12.45-.28.74-.22.4-.34.83-.35 1.3l-.51-.35a.06.06 0 0 0-.06 0 .19.19 0 0 0-.04.03c-.04.04-.04.07 0 .11.14.17.32.28.53.34.06 0 .1.03.16.07.13.1.29.13.46.09.34-1.67.9-3.13 1.65-4.39.2-.35.52-.69.94-1.02Z" fill="#01354E"/><path d="m40.2 33.57.22.34c.2.72.27 1.22.22 1.51-.05.38-.3.59-.74.63-.44.04-.8 0-1.06-.13-.2-.1-.33-.28-.4-.55a9.1 9.1 0 0 1-.32-1.91c-.03-.51.17-.87.6-1.08.06-.02.11-.02.16.01.14.08.34.18.61.3.2.1.37.27.5.53l.2.35Z" fill="#575048"/><path d="M36.32 33.55c-.4.95-.94 1.83-1.6 2.66l1.54-2.73c.02-.03.03-.03.05.01l.01.06Z" fill="#B7AA97"/><path d="M26.42 39.2c-.46-.17-.76-.37-.9-.6a6.67 6.67 0 0 1-.81-3.85.36.36 0 0 1 .09-.2c.04-.05.07-.04.08.02l.08 1.16c.05 1.03.32 2 .8 2.9.1.17.17.23.38.31.12.05.21.13.28.25Z" fill="#E8B3A5"/><path d="M18.44 37.66c-.16.08-.28.15-.36.22-.16.13-.22.1-.2-.1.04-.4.21-.79.66-.95.36-.14.81-.35 1.36-.65.06-.03.1-.02.13.04l.59 1.1a6.04 6.04 0 0 0 1.7 2.02l.54.4c.04.04.04.08-.01.1l-.95.55a.1.1 0 0 1-.08.01.1.1 0 0 1-.05-.05c-.24-.5-.4-.94-.8-1.34a5.49 5.49 0 0 0-2.13-1.31c-.18-.07-.31-.08-.4-.04Z" fill="#7C513C"/><path d="M31.68 38.68v-.1c-.03-.15-.07-.16-.14-.03-.13.25-.3.44-.53.57a.27.27 0 0 1-.16.04 2.93 2.93 0 0 1-1.94-.92 1.45 1.45 0 0 1-.4-.68 2.36 2.36 0 0 1-.02-.8.43.43 0 0 1 .43-.37h.75c.04 0 .05-.02.05-.05 0-.02 0-.03-.02-.04 0-.02-.02-.02-.04-.03-.34-.08-.7-.1-1.06-.05l.5-.08c.18-.03.34 0 .5.05 1.1.4 1.9 1.06 2.11 2.28v.13l-.03.08Z" fill="#9B2F2F"/><path d="m15.96 36.82.54.29a.52.52 0 0 1-.46-.1.43.43 0 0 0-.16-.06c-.21-.06-.39-.17-.54-.34-.03-.04-.03-.07 0-.1a.18.18 0 0 1 .05-.04.06.06 0 0 1 .06 0l.5.35Z" fill="#196378"/><path d="m40.62 37.43.04.23c0 .02-.02.04-.06.06a.06.06 0 0 1-.09-.04c-.17-.36-.4-.48-.68-.34-.29.13-.31.1-.08-.12.26-.24.55-.17.87.21Z" fill="#543930"/><path d="m17.78 38.8-.12.89-.1-.03c-.08 0-.11.02-.11.09v.16c0 .08-.03.1-.1.06a.26.26 0 0 1-.1-.11c-.04-.07-.06-.2-.08-.42a.15.15 0 0 0-.04-.08.16.16 0 0 0-.07-.05 1.79 1.79 0 0 1-.6-.3 3.47 3.47 0 0 0-.55-.34c-.61-.31-1.2-.7-1.78-1.15-.02-.02-.02-.03-.01-.05l.03-.06h.02l2.3 1.44a.1.1 0 0 0 .12 0 .1.1 0 0 0 .03-.05c.04-.1.12-.14.22-.12.06.01.1.04.14.09.07.09.14.14.22.15.06.01.09-.01.1-.07l.03-.44c0-.05.02-.06.06-.03l.05.03v.01l.03.48c.01.23.1.27.25.1l.06-.2Z" fill="#196378"/><path d="m17.67 37.4.04.04c-.08.15-.11.26-.09.35l.23.76c.08.3.2.53.35.7.5.59 1.05 1.02 1.62 1.3.05.03.08.07.08.12.1.9.3 1.74.65 2.55a.43.43 0 0 1-.13.09 1.48 1.48 0 0 0-.68-.35c.09 0 .05-.07-.12-.17a2.4 2.4 0 0 0-.29-.96.27.27 0 0 1-.03-.15c0-.07.02-.12.06-.15a.39.39 0 0 0 .12-.32.42.42 0 0 0-.16-.3c-.2-.16-.27-.2-.36-.45-.1-.28-.28-.5-.54-.7-.05-.03-.08-.04-.12-.02-.03.01-.03.03 0 .05l.13.09a.12.12 0 0 1 .06.08l.13.95v.03c.1.19.13.38.09.57-.01.06-.01.11.01.17.08.2.12.41.1.61l-.83-.57c-.07-.32-.1-.61-.1-.87 0-.23-.03-.43-.08-.59l-.15-.57.12-.9-.24-.95c-.03-.1.02-.25.13-.44Z" fill="#BFBFBF"/><path d="m37.86 40.05.74-1.18c.3-.26.6-.56.93-.9a.75.75 0 0 1 .4-.24.25.25 0 0 1 .26.12c.02.03.03.06.03.1.02.16-.02.35-.12.55a5.17 5.17 0 0 1-1.66 2.02.81.81 0 0 1-.3.15c-.15.03-.25 0-.3-.08-.09-.11-.08-.3.02-.54Z" fill="#543930"/><path d="M18.2 38.99c-.2-.3-.2-.62.03-.94a.2.2 0 0 1 .14-.09c.32-.05.6-.02.86.1.46.2.9.48 1.31.83a3.3 3.3 0 0 1 .98 1.48.14.14 0 0 1-.12.12c-.23.02-.58 0-1.07-.05a2 2 0 0 1-.94-.35 4.7 4.7 0 0 1-1.19-1.1Z" fill="#9B2F2F"/><path d="m38.6 38.87-.74 1.18c-.06.05-.1.07-.14.06a.15.15 0 0 1-.07-.03.14.14 0 0 1-.03-.06.12.12 0 0 1-.01-.06l.03-.06.96-1.03Z" fill="#E8B3A5"/><path d="M38.59 40.02c.21-.2.52-.59.93-1.14.03-.05.06-.05.1-.01l.03.03v.03c-.17.29-.37.56-.58.83a2.33 2.33 0 0 1-.84.65l-.04-.04c-.02-.02-.02-.03 0-.05.15-.09.28-.2.4-.3Z" fill="#7C513C"/><path d="m19.62 42.79-.8-.5c.02-.2-.02-.4-.1-.61a.28.28 0 0 1-.01-.17.82.82 0 0 0-.08-.57l-.01-.03-.13-.95a.12.12 0 0 0-.06-.08l-.14-.1c-.02 0-.02-.03 0-.04.05-.02.08 0 .13.02.26.2.44.42.54.7.09.25.16.3.36.44a.44.44 0 0 1 .16.31.4.4 0 0 1-.12.32.21.21 0 0 0-.06.15c0 .05 0 .1.03.15.17.3.26.61.3.96Z" fill="#196378"/><path d="M37.56 39.97c-.24.59-.16.85.46 1.03.04.01.05.03.02.07-.01.02-.03.03-.06.03a.79.79 0 0 1-.61-.24c-.33-.3-.15-.7.13-.93.08-.06.1-.05.06.04Z" fill="#543930"/><path d="M21.9 40.73a.21.21 0 0 0-.06.06c-.04.05-.03.08.02.11l.05.02a.1.1 0 0 1 .06.06l.82 1.75-1.42.2c-.06.01-.1 0-.14-.06a3.74 3.74 0 0 1-.4-1.5c-.02-.2.06-.27.24-.22.06.02.12-.02.18-.1.03-.05.02-.1-.04-.11l-.53-.15 1.22-.06Z" fill="#696868"/><path d="M37.9 41.57c-.3.42-.7.76-1.21 1.02-.34.17-.8.43-1.4.8.14-.6.43-1.05.87-1.33.43-.27.74-.44.93-.52.2-.07.47-.06.8.03Z" fill="#575048"/><path d="m33.05 41.92-.16.07c-.19.1-.27.32-.18.52l.1.22c.1.2.33.28.52.19l.15-.08c.2-.09.28-.32.19-.5l-.1-.23a.39.39 0 0 0-.52-.19Z" fill="#696868"/><path d="M19.74 42.96c.27.06.5.18.68.35a.82.82 0 0 1-.68-.35Z" fill="#543930"/></svg>