<?xml version="1.0" encoding="UTF-8"?>
<!DOCTYPE svg PUBLIC "-//W3C//DTD SVG 1.1//EN" "http://www.w3.org/Graphics/SVG/1.1/DTD/svg11.dtd">
<svg xmlns="http://www.w3.org/2000/svg" version="1.1" width="200px" height="200px" style="shape-rendering:geometricPrecision; text-rendering:geometricPrecision; image-rendering:optimizeQuality; fill-rule:evenodd; clip-rule:evenodd" xmlns:xlink="http://www.w3.org/1999/xlink">
<g><path style="opacity:1" fill="#fefefe" d="M -0.5,-0.5 C 66.1667,-0.5 132.833,-0.5 199.5,-0.5C 199.5,66.1667 199.5,132.833 199.5,199.5C 132.833,199.5 66.1667,199.5 -0.5,199.5C -0.5,132.833 -0.5,66.1667 -0.5,-0.5 Z"/></g>
<g><path style="opacity:1" fill="#f2b709" d="M 86.5,2.5 C 127.914,-0.396269 155.414,17.6037 169,56.5C 170.743,67.7897 170.909,79.123 169.5,90.5C 151.397,102.959 132.397,104.459 112.5,95C 103.609,87.7804 93.942,81.7804 83.5,77C 61.9542,70.9107 42.7875,75.0774 26,89.5C 20.8424,52.6484 34.6757,25.4817 67.5,8C 73.8236,5.71195 80.1569,3.87862 86.5,2.5 Z"/></g>
<g><path style="opacity:1" fill="#5bcdca" d="M 60.5,83.5 C 74.8426,83.2669 88.176,86.7669 100.5,94C 108.864,101.031 118.197,106.364 128.5,110C 139.602,111.635 150.269,110.301 160.5,106C 164.265,103.369 168.098,100.869 172,98.5C 177.241,100.959 177.741,104.125 173.5,108C 154.688,120.681 134.688,122.681 113.5,114C 103.838,107.167 93.8379,100.834 83.5,95C 63.3353,89.7995 45.3353,93.7995 29.5,107C 23.0801,108.584 20.9135,106.417 23,100.5C 30.1182,95.3578 37.6182,90.8578 45.5,87C 50.7319,86.2734 55.7319,85.1067 60.5,83.5 Z"/></g>
<g><path style="opacity:1" fill="#60cfcc" d="M 50.5,102.5 C 53.3245,102.081 55.4912,103.081 57,105.5C 57.6667,120.833 57.6667,136.167 57,151.5C 54.771,156.471 51.771,156.804 48,152.5C 47.3333,137.167 47.3333,121.833 48,106.5C 48.6622,105.016 49.4955,103.683 50.5,102.5 Z"/></g>
<g><path style="opacity:1" fill="#5acdca" d="M 67.5,102.5 C 70.3646,102.055 72.8646,102.722 75,104.5C 75.6667,134.833 75.6667,165.167 75,195.5C 72.7175,199.041 70.0509,199.374 67,196.5C 66.1818,165.125 66.3485,133.791 67.5,102.5 Z"/></g>
<g><path style="opacity:1" fill="#5dcdca" d="M 85.5,109.5 C 89.1816,108.725 91.6816,110.059 93,113.5C 93.6667,124.5 93.6667,135.5 93,146.5C 91.3342,149.379 88.8342,150.212 85.5,149C 84.8742,148.25 84.3742,147.416 84,146.5C 83.3333,135.167 83.3333,123.833 84,112.5C 84.5133,111.473 85.0133,110.473 85.5,109.5 Z"/></g>
<g><path style="opacity:1" fill="#60cfcc" d="M 32.5,112.5 C 35.3245,112.081 37.4912,113.081 39,115.5C 39.6667,126.833 39.6667,138.167 39,149.5C 37.2701,152.548 34.7701,153.214 31.5,151.5C 31,150.5 30.5,149.5 30,148.5C 29.3333,137.833 29.3333,127.167 30,116.5C 30.6622,115.016 31.4955,113.683 32.5,112.5 Z"/></g>
<g><path style="opacity:1" fill="#60cfcc" d="M 103.5,120.5 C 106.365,120.055 108.865,120.722 111,122.5C 111.667,126.5 111.667,130.5 111,134.5C 108.633,137.932 105.966,138.265 103,135.5C 102.222,130.416 102.389,125.416 103.5,120.5 Z"/></g>
<g><path style="opacity:1" fill="#5acdca" d="M 158.5,124.5 C 160.936,124.317 163.103,124.984 165,126.5C 165.667,133.167 165.667,139.833 165,146.5C 162.822,150.065 160.156,150.399 157,147.5C 155.922,139.565 156.422,131.898 158.5,124.5 Z"/></g>
<g><path style="opacity:1" fill="#5ccdca" d="M 123.5,126.5 C 125.903,126.393 127.736,127.393 129,129.5C 129.667,145.5 129.667,161.5 129,177.5C 125.477,181.701 122.477,181.368 120,176.5C 119.333,161.167 119.333,145.833 120,130.5C 120.69,128.65 121.856,127.316 123.5,126.5 Z"/></g>
<g><path style="opacity:1" fill="#56ccc9" d="M 139.5,128.5 C 142.079,128.083 144.246,128.75 146,130.5C 146.667,144.833 146.667,159.167 146,173.5C 143.667,176.167 141.333,176.167 139,173.5C 138.199,158.455 138.366,143.455 139.5,128.5 Z"/></g>
</svg>
