<!-- by TradingView --><svg width="56" height="56" viewBox="0 0 56 56" xmlns="http://www.w3.org/2000/svg"><path fill="url(#a)" d="M0 0h56v56H0z"/><path d="M42.05 20.33c-.19.12-.5.18-.95.17l-7.58.19-.02.05v.01a.03.03 0 0 0 .01.02h.01l7.93-.2.75.02a16.3 16.3 0 0 1 1.78 8.22c0 .05-.01.12-.04.2l-10.4.1c-.02 0-.02.01-.03.02v.03l.02.01 10.42.03c-.05.82-.18 1.7-.4 2.64a59.54 59.54 0 0 0-5.06.05c-.95.05-1.74.06-2.36.03-.8-.03-1.6-.04-2.39-.03a.27.27 0 0 0-.13.03l-.39.2-.2-5.42a.16.16 0 0 1 .14-.16l.72-.11a.16.16 0 0 0 .13-.15 3.24 3.24 0 0 0-.41-1.81c-.44-.86-.21-1.92-.17-2.76 0-.08-.05-.36-.18-.85a.4.4 0 0 0-.09-.17c-.17-.19-.35-.5-.55-.96a.3.3 0 0 1-.02-.16c.16-1.16.05-2.13-.73-3.02l-.32-.84.26-.11a.22.22 0 0 0 .06-.39 1.7 1.7 0 0 1-.6-.7.17.17 0 0 0-.1-.1l-.19-.07a.14.14 0 0 1-.05-.03.15.15 0 0 1-.03-.06c-.07-.18-.22-.3-.44-.35a.3.3 0 0 1-.16-.1c-1.13-1.24-3.07-1.34-4.53-.78-.75.29-1.33.81-1.74 1.56-.08.14-.09.23-.04.27.02.07.05.12.09.17a.86.86 0 0 0-.3.1c-.07.08-.14.11-.2.1a.97.97 0 0 1-.49-.26 4.04 4.04 0 0 0-2.23-1.1.08.08 0 0 1-.06-.03.09.09 0 0 1-.02-.05v-.06l2.25-.92 1.36.76h.02a.04.04 0 0 0 .02-.06c-.32-.3-.72-.55-1.2-.77a16.01 16.01 0 0 1 18.83 7.6Z" fill="#B8C8B6"/><path d="M31.54 15.7a.65.65 0 0 0-.26.09.1.1 0 0 0-.05.1 1.48 1.48 0 0 1 .23.51.14.14 0 0 0 .13.12l.27.03c.78.9.89 1.86.73 3.02 0 .05 0 .1.02.16.2.45.38.77.55.96.04.05.08.1.1.17.12.49.18.77.17.85-.04.84-.27 1.9.17 2.76.33.65.44 1.07.41 1.8a.16.16 0 0 1-.13.16l-.72.1a.16.16 0 0 0-.14.17l.2 5.42.03 2.14a.87.87 0 0 0-.01.31l.02 3.59c.06.6-.18.75-.56 1.1a.2.2 0 0 0-.06.11l-.07.29v.03c-.26.49-.5.97-.72 1.46a2.2 2.2 0 0 1-.32.52.06.06 0 0 0 .02.05l.02.01 1.58.4c.2.05.33.23.4.54a.15.15 0 0 1-.03.14.81.81 0 0 1-.52.24c-1 .12-1.99.16-2.97.14-.2 0-.36-.02-.48-.06-.54-.19-.16-.88.06-1.13a.22.22 0 0 0 .05-.14c0-.52.3-.96.6-1.47a.13.13 0 0 0-.15-.2c-.7.26-1.73.25-2.3.3-.13 0-.27.03-.41.06-1.1.31-1.74.48-1.93.5l-.55.03a.18.18 0 0 0-.17.16c-.05.46-.08 1-.08 1.66 0 .26-.14.48-.42.65l-.28-.07a6.47 6.47 0 0 1-.95-4.01l.24-.15a2.52 2.52 0 0 1 .83.06.05.05 0 0 0 0-.08l-.23-.17a.15.15 0 0 1-.04-.06.16.16 0 0 1-.02-.07v-1.8a.33.33 0 0 0-.14-.26c-.2-.14-.34-.28-.41-.44l-.15-.24v-.02l-.02-.01h-.02a8 8 0 0 0-2.22-.2.11.11 0 0 1-.06-.1l.01-.06c.25-.45.36-1 .57-1.53.39-.97.6-1.53.64-1.68a3.2 3.2 0 0 0 0-1.32l.21-1.76c.2-.5.4-1 .58-1.52.06-.17.08-.33.07-.47-.06-.65 0-1.3 0-1.78a.8.8 0 0 0-.13-.43 7.51 7.51 0 0 1-.83-1.8c-.1-.48-.15-.8-.14-.94.07-.85.4-1.8 1-2.83.15-.25.25-.48.3-.68a19.27 19.27 0 0 0 .35-2.64c-.08-.6.04-1.05.36-1.36.1-.06.2-.1.3-.1.32-.14.66-.3.97-.38a26.7 26.7 0 0 1 3.62-.66c.46-.05 1.05-.02 1.5-.08a.04.04 0 0 0 .03-.03v-.02l-.01-.02c-.5-.44-.95-.72-1.6-.85-1.92-.4-3.65.05-4.6 1.86-.05-.04-.04-.13.04-.27.4-.75.99-1.27 1.74-1.56 1.46-.56 3.4-.46 4.53.78.04.05.1.08.16.1.22.05.37.17.44.35a.15.15 0 0 0 .08.1l.2.06a.17.17 0 0 1 .1.1c.1.24.29.48.59.7a.22.22 0 0 1-.06.39l-.26.1Z" fill="#040404"/><path d="M23.22 12.73a4.42 4.42 0 0 1 1.21.8v.01a.04.04 0 0 1-.05.02l-1.36-.76.2-.07Z" fill="#788374"/><path d="M24.07 15.02a.57.57 0 0 1-.09-.17c.95-1.8 2.68-2.25 4.6-1.86a3.27 3.27 0 0 1 1.6.87v.02a.04.04 0 0 1-.03.03c-.44.06-1.02.03-1.49.08-1.25.14-2.46.36-3.62.66-.31.08-.65.24-.97.37Z" fill="#fff"/><path d="M20.78 13.72v.06l.01.05.06.03c.88.14 1.62.5 2.23 1.1.15.13.3.22.5.26.05.01.12-.02.19-.1-.32.32-.44.78-.36 1.37v.17c-.07.88-.2 1.7-.36 2.47-.04.2-.14.43-.28.68a6.76 6.76 0 0 0-1 2.83c-.02.15.03.46.13.94a3.7 3.7 0 0 0-2.4-.87 359.28 359.28 0 0 0-6.33-.11v-.02l.04-.05.02-.01H18.17l.01-.02a.03.03 0 0 0-.01-.04c-.46-.4-1.35-.53-1.95-.6-.96-.1-1.93-.17-2.9-.21a15.9 15.9 0 0 1 7.46-7.93Z" fill="#788374"/><path d="M23.95 15.48a.08.08 0 0 1-.06-.06.08.08 0 0 1 .03-.08c.36-.23.77-.41 1.22-.56.41-.13 1.37-.32 2.88-.57.6-.1 1.31-.07 1.94-.11.2-.02.4 0 .55.05a.1.1 0 0 1-.03.21c-.64 0-1.29.14-1.81.18a16.24 16.24 0 0 0-4.13.88c-.18.08-.37.1-.6.06Z" fill="#3E3C3C"/><path d="m25.96 25.67.11.36c0 .08.03.14.07.19l.67 1.04a.11.11 0 0 1 .01.1.11.11 0 0 1-.09.07l-1.04.16a7.26 7.26 0 0 0-2.58-.1.12.12 0 0 1-.13-.13c.08-1.7.05-3.32-.07-4.9-.09-1.08.05-2.23.34-3.6a14.17 14.17 0 0 0 .34-2.4.18.18 0 0 1 .05-.07c.29-.23.64-.4 1.05-.51 2.08-.58 4.2-.96 6.34-1.14a.33.33 0 0 1 .26.1l.5.48a.1.1 0 0 1 .02.09.1.1 0 0 1-.05.07c-.23.12-.47.15-.71.11a.18.18 0 0 1-.13-.26c.03-.06.03-.11 0-.16a.14.14 0 0 0-.12-.07c-.52 0-.84.31-1.31.69-.1.07-.21.03-.35-.13a.1.1 0 0 0-.17.04l.02.08a.08.08 0 0 1-.1.09l-.2-.08a.07.07 0 0 1-.04-.07.07.07 0 0 1 .04-.06c.14-.04.38-.15.43-.14l.1.05a.06.06 0 0 0 .05.02.06.06 0 0 0 .04-.04l.02-.05v-.03a.05.05 0 0 0-.01-.03c-.32-.26-.79.15-1.11.35-.43.26-.88.35-1.34.27-.21-.04-.46.15-.55.36-.26.56-.35.98-.26 1.63.05.4.06.66.03.75a464.22 464.22 0 0 0-.52 1.36 4.61 4.61 0 0 0 .03 1.6c.3.76.43 1.44.4 2.02-.06.85-.07 1.48-.04 1.9Z" fill="#fff"/><path d="M24.9 15.6a.06.06 0 0 1-.06-.04V15.47l.01-.04a.07.07 0 0 1 .05-.03l.48-.07.04-.03c.05-.07.3-.07.44-.12a9.97 9.97 0 0 1 2.26-.37l.02.05v.04l-2.87.61-.36.08Z" fill="#3E3C3C"/><path d="M30.6 15.43c.16-.03.3-.09.29-.13-.01-.04-.15-.05-.32-.02-.17.03-.3.09-.3.13.01.04.16.05.32.02Z" fill="#CCA388"/><path d="M30.18 16.84c0-.03-.05-.06-.13-.08h-.02l-.5.05a.1.1 0 0 1-.11-.06c-.15-.34-.09-.62.18-.85.7-.58 1.66-.23 1.71.7 0 .03.01.06.03.08l.06.04.36.1a.03.03 0 0 1 .02.02v.06a.04.04 0 0 1-.02.02h-.02a11.24 11.24 0 0 0-1.44.08.18.18 0 0 1-.1-.09.16.16 0 0 1-.02-.07Z" fill="#8D6B5D"/><path d="m31.54 15.7.32.85-.27-.03a.14.14 0 0 1-.13-.11 1.48 1.48 0 0 0-.21-.48.1.1 0 0 1-.02-.08.1.1 0 0 1 .05-.06.65.65 0 0 1 .26-.08Z" fill="#788374"/><path d="m26.86 17.29-.06-.08c-.02-.02-.02-.04-.02-.06.02-.29.12-.55.28-.78.04-.05.1-.09.17-.1.35-.06.63-.14.84-.25.4-.2.73-.06.96.21a3.91 3.91 0 0 1 .25.61.1.1 0 0 1-.03.06.3.3 0 0 1-.2.06.08.08 0 0 0-.06.12c0 .01.02.03.04.03l.05.02a.02.02 0 0 1 0 .03l-2.13.33a.05.05 0 0 1-.06-.04v-.03l.02-.1-.02-.02a.04.04 0 0 0-.03-.01Z" fill="#8D6B5D"/><path d="M31.8 18.06a.04.04 0 0 1 .05-.02.04.04 0 0 1 .03.03l.3 1.41a.08.08 0 0 1-.02.08.08.08 0 0 1-.08.02l-1.55-.34a.04.04 0 0 0-.05.02l-.01.04a.05.05 0 0 0 0 .05.06.06 0 0 0 .03.02c.54.18 1.07.27 1.58.3a.2.2 0 0 1 .2.16v.04a.12.12 0 0 1-.03.11.12.12 0 0 1-.11.03 6.86 6.86 0 0 0-4.75.34c-.41.2-1.01.85-.25 1.15a3 3 0 0 0 .96.22 14.5 14.5 0 0 0 4.3-.4.11.11 0 0 1 .1.1l.23 1.62a.3.3 0 0 1-.2.33c-.4.14-1.08.32-1.4.73-.08.1-.25.17-.52.2a.16.16 0 0 1-.13-.06c-.25-.27-.53-.22-.87-.22a523.02 523.02 0 0 0-3.4-.04.17.17 0 0 1-.1-.16 4.54 4.54 0 0 0-.27-1.76 3.51 3.51 0 0 1-.15-1.7c.09-.52.38-1.05.52-1.52.07-.23.03-.61-.02-.91-.09-.57.03-1.1.35-1.6.07-.11.19-.15.34-.13h.02a.05.05 0 0 1 .02.05v.02l-.54 1.32a.03.03 0 0 0 0 .03c.17.12.26.23.3.32.22.73.78 1.3 1.57 1.29a1.3 1.3 0 0 0 1.23-.82.08.08 0 0 1 .11-.04l.36.18c.78.4 1.4.24 1.86-.5Z" fill="#CCA388"/><path d="M29.85 17.06c.14-.02.25-.06.25-.09s-.12-.04-.27-.02c-.14.02-.25.06-.25.09s.13.04.27.02Z" fill="#696868"/><path d="M32.83 20.31a.03.03 0 0 1 0 .04.03.03 0 0 1-.03.01c-.3-.05-.44-.22-.4-.49l-.01-.08c-.12-.64-.22-1.3-.42-1.93a2 2 0 0 1-.07-.79.08.08 0 0 1 .13-.05c.46.44.55 1.48.5 2.1-.04.36-.04.57-.02.64.07.22.18.4.32.55ZM29.68 17.29c.3-.12.5-.13.62-.03.17.15.3.22.39.22.22.02.37-.08.45-.27a.15.15 0 0 1 .1-.1.7.7 0 0 1 .38.02.14.14 0 0 1 .1.12c.03.39-.04.7-.22.94-.49.64-1.25.4-1.83.02a.1.1 0 0 1-.05-.1v-.73c0-.02 0-.04.02-.06a.1.1 0 0 1 .04-.03ZM29.44 17.45c.05.48-.07.9-.34 1.26a.35.35 0 0 1-.11.1c-.52.3-1.01.3-1.5.03-.35-.22-.56-.65-.7-1.02a.12.12 0 0 1 .01-.1.11.11 0 0 1 .08-.05l.98-.15a.2.2 0 0 1 .17.05c.22.21.3.3.63.22a.14.14 0 0 0 .1-.1l.05-.18a.11.11 0 0 1 .09-.09l.42-.06a.1.1 0 0 1 .08.02.1.1 0 0 1 .04.07Z" fill="#fff"/><path d="M29.77 19.33v.01a.02.02 0 0 1-.01.02l-1.12.35a11.9 11.9 0 0 1-.95.23l-.01-.06a11.86 11.86 0 0 1 .9-.34l1.12-.34h.02a.03.03 0 0 1 .01.01l.04.12Z" fill="#040404"/><path d="M29.85 21.51c-.8.05-1.58.06-2.35-.06a.73.73 0 0 1-.54-.33.2.2 0 0 1 .02-.23c.22-.25.47-.43.75-.52.72-.24 1.4-.38 2.03-.42a7.9 7.9 0 0 1 2.07.18c.28.06.55.2.8.42a.2.2 0 0 1 .06.1.2.2 0 0 1-.02.13c-.09.2-.25.32-.49.39a11 11 0 0 1-2.33.34Z" fill="#8D6B5D"/><path d="M22.77 20.24a.05.05 0 0 1 .06 0 .05.05 0 0 1 .03.05 10 10 0 0 0-.09 1.74 223.75 223.75 0 0 0 .1 2.88.09.09 0 0 1-.14-.01c-.15-.3-.34-.73-.56-1.25-.13-.33-.2-.62-.2-.86.02-.81.34-1.71.68-2.4a.35.35 0 0 1 .12-.15ZM42.2 20.6l-.75-.03c-.01-.08-.13-.1-.35-.07.44 0 .76-.05.95-.17.08.06.13.14.15.26Z" fill="#92A18F"/><path d="M30 20.51a7.23 7.23 0 0 1 2.16.17.1.1 0 0 1 .03.04v.05l-.01.04h-.08a8.77 8.77 0 0 0-4.2.3.09.09 0 0 1-.03-.07.1.1 0 0 1 .06-.07c.66-.25 1.35-.4 2.08-.46Z" fill="#040404"/><path d="m33.01 25.31.1-.58-.01-.09-.18-.47a16.97 16.97 0 0 0-.27-3l.04-.08c.1-.11.15-.22.15-.33a.1.1 0 0 1 .07-.1.1.1 0 0 1 .12.04c.22.38.32.82.27 1.3-.08.91-.25 1.72.22 2.58.25.48.39 1 .4 1.56a.2.2 0 0 1-.18.2l-.59.09a.13.13 0 0 1-.15-.14l.01-.98Z" fill="#fff"/><path d="M21.9 23.58c.2.66.48 1.25.83 1.8a.8.8 0 0 1 .12.43c0 .48-.05 1.13.01 1.78.01.14-.01.3-.07.47-.18.51-.37 1.02-.57 1.52l-.13-.01a.2.2 0 0 0-.16-.07c-2.83-.03-6.1-.03-9.8 0-.05-.05-.08-.15-.1-.3-.17-2.63.26-5.15 1.28-7.55.98.04 1.95.11 2.9.21.6.07 1.5.2 1.96.6a.03.03 0 0 1 .01.04.04.04 0 0 1-.03.02h-4.93l-.05.06v.02a.03.03 0 0 0 .02.01l6.3.1c.95.02 1.75.31 2.41.87Z" fill="#92A18F"/><path d="M31.97 23.85a.11.11 0 0 0-.12-.03l.67-.27v.01c-.17.13-.35.23-.55.3Z" fill="#788374"/><path d="M32.77 24.45c-.22.22-.36.47-.44.76a.19.19 0 0 1-.1.12c-.25.11-.4.3-.46.54a.22.22 0 0 1-.14.16l-.53.18c.03-.55.08-1.1.13-1.63.02-.23.14-.38.34-.45a5.78 5.78 0 0 0 1.11-.5.06.06 0 0 1 .06.05l.03.77Z" fill="#fff"/><path d="M31.85 23.82c.04-.01.08 0 .12.03a1.53 1.53 0 0 1-.49.17.03.03 0 0 1 0-.04c.08-.09.2-.14.37-.16Z" fill="#92A18F"/><path d="M30.08 24.27a.2.2 0 0 1-.2.07c-.29-.02-.59-.02-.88.02l-1.35-.02c-.17 0-.33-.04-.46-.1l-.02-.01a.05.05 0 0 1 .02-.07l.17-.02c.91.06 1.72.07 2.42.05.12 0 .22.02.3.08Z" fill="#B8C8B6"/><path d="m32.92 24.17.18.47v.09l-.09.58c-.08-.1-.15-.03-.2.21-.03-.03-.07-.03-.12-.02a.14.14 0 0 0-.07.11c-.06.34-.23.55-.52.62a.17.17 0 0 0-.11.12.85.85 0 0 1-.16.32.26.26 0 0 1-.17.09l-.53.06c-.07-.14-.14-.19-.2-.16-.1.05-.18.14-.22.29-.3 0-.55-.11-.76-.31a.16.16 0 0 0-.15-.04c-.35.08-.82.13-.98-.28a.15.15 0 0 0-.09-.08.15.15 0 0 0-.12 0c-.45.22-.7 0-1.02-.26a.22.22 0 0 0-.17-.05c-.21.02-.39 0-.53-.04a.26.26 0 0 1-.15-.11.83.83 0 0 0-.68-.46v-.61c.38-.1.51.05.68.34a.24.24 0 0 0 .2.11c.24.01.44.08.6.21.28.22.65.1.97.3l.22.14c.05.02.12.03.18.01.39-.1.7-.02.95.24a.17.17 0 0 0 .15.04l.62-.1c.07.14.2.25.36.32.03.02.06.02.1 0 .06-.02.07-.06 0-.11l.54-.18a.22.22 0 0 0 .14-.16.77.77 0 0 1 .46-.54.18.18 0 0 0 .1-.12c.08-.29.22-.54.44-.76.1-.1.15-.2.15-.28Z" fill="#F0DD7A"/><path d="m30.18 24.4-1.1.02a.12.12 0 0 0-.08-.06c.3-.04.6-.04.89-.02a.2.2 0 0 0 .19-.07c.05-.01.08.03.1.13Z" fill="#788374"/><path d="m29.07 24.42 1.11-.02c.1.04.16.13.2.28.09.41.17.85.25 1.31l-.62.11a.16.16 0 0 1-.15-.04c-.25-.26-.56-.34-.95-.24a.28.28 0 0 1-.18-.01l-.22-.14c-.32-.2-.69-.08-.97-.3a.98.98 0 0 0-.6-.2.24.24 0 0 1-.2-.12c-.17-.3-.3-.44-.67-.34a.74.74 0 0 1 .01-.33.1.1 0 0 1 .1-.07c.44-.01.72 0 .85.02.78.13 1.46.16 2.04.09Z" fill="#fff"/><path d="m30.76 25.3-.05-.02h-.01v-.02l-.12-.75.01-.05a.07.07 0 0 1 .04-.03l.38-.08a.04.04 0 0 1 .04.01.04.04 0 0 1 0 .05c-.04.11-.05.28-.03.5 0 .05 0 .1-.03.14-.08.17-.1.36-.08.57a.05.05 0 0 1-.04.06.05.05 0 0 1-.05-.03.37.37 0 0 1-.03-.3.05.05 0 0 0 0-.03.05.05 0 0 0-.03-.03Z" fill="#6E8669"/><path d="M30.7 26.95c.1.1.12.24.08.4 0 .04 0 .09.02.13a.7.7 0 0 1 .08.5c0 .05-.01.07-.05.07h-.02l-.01-.01c-.14-.15-.3-.26-.53-.24-.1 0-.19 0-.25-.03a.3.3 0 0 1-.1-.08.95.95 0 0 0-.22-.19c-.23-.13-.55-.06-.73-.28-.24-.28-.65-.11-.8-.36-.11-.2-.27-.29-.47-.3a.92.92 0 0 1-.64-.28c-.03-.03-.18-.1-.45-.21a.95.95 0 0 1-.53-.56c-.01 0-.02-.06-.02-.2.3.03.52.18.68.47.03.05.09.1.15.11.14.05.32.06.53.04a.22.22 0 0 1 .17.05c.32.26.57.48 1.02.26a.16.16 0 0 1 .12 0 .15.15 0 0 1 .09.08c.16.4.63.36.98.28a.16.16 0 0 1 .15.04c.2.2.46.3.76.3ZM32.82 25.52c.03.29.02.46-.05.51l-1.54 1.95c-.03.04-.09.04-.16 0-.04-.2-.04-.38.02-.56a.25.25 0 0 0 0-.14.96.96 0 0 1 .04-.46l.53-.06c.07-.01.13-.04.17-.1a.85.85 0 0 0 .16-.31.16.16 0 0 1 .11-.12c.29-.07.46-.28.52-.62a.14.14 0 0 1 .07-.1c.05-.02.09-.02.13.01Z" fill="#fff"/><path d="M30.88 27.98c.08.05.14.05.19 0 .07.04.13.04.16 0l1.54-1.95c.1.2.11.34.05.43l-1.55 1.98c-.15-.08-.3-.01-.47.22a.03.03 0 0 0 .04.05l.09-.09c.02-.02.09-.03.2-.02.1 0 .2 0 .27-.03.06.02.1.06.16.11a.12.12 0 0 1 .02.13.53.53 0 0 1-.23.28c-.18-.25-.3-.27-.38-.06-.1.02-.2-.04-.3-.18a.18.18 0 0 1 0-.2.45.45 0 0 0 .06-.15c0-.03 0-.06-.02-.08a.1.1 0 0 0-.06-.04c-.3-.09-.64-.31-1.04-.41a9.65 9.65 0 0 0-2.01-.93l-.77-.44c-.13-.07-.23-.32-.47-.21l-.14-.22c-.03-.1-.08-.14-.15-.14l-.1-.36c.05.02.09-.03.11-.16.11.27.29.46.53.56.27.1.42.18.45.2.15.17.38.3.64.3.2 0 .36.1.47.29.15.25.56.08.8.36.19.22.5.15.73.28.06.04.13.1.21.2a.3.3 0 0 0 .1.07c.07.02.16.04.26.03.22-.02.39.1.53.24h.01l.02.01c.04 0 .05-.02.05-.07Z" fill="#FBBF49"/><path d="M30.97 29.03c.13.05.26.07.38.06.1-.06.18-.16.23-.28a.13.13 0 0 0-.02-.13.4.4 0 0 0-.16-.1.6.6 0 0 0-.13-.14l1.55-1.98.08 12.19a.23.23 0 0 1-.08.18 5.04 5.04 0 0 1-1.99.97l-.03-.01a.08.08 0 0 1-.03-.06c-.03-.8-.01-1.5.05-2.1.19-1.65.32-3.6.4-5.82a22.09 22.09 0 0 0-.06-2.51.08.08 0 0 0-.06-.02h-.04a.06.06 0 0 0-.04.02.06.06 0 0 0-.01.04c.06.64.08 1.12.08 1.47a97.8 97.8 0 0 1-.28 5.42c-.1 1.24-.31 2.43-.63 3.57a.36.36 0 0 1-.18.22c-.46.24-1.06.19-1.64.21a8.62 8.62 0 0 1-2.94-.46 3.02 3.02 0 0 1-1.38-.78.21.21 0 0 1-.06-.15V37.1a.06.06 0 0 1 .07-.06c.8.14 1.41-.05 1.82-.58a.23.23 0 0 1 .18-.1H27l.05-.01a.09.09 0 0 0 .03-.05l.8-2.14a.25.25 0 0 0 0-.15c-.18-.64-.29-1.29-.55-1.8a5.3 5.3 0 0 0-1.35-1.67c-.33-.27-.52-.47-.9-.54a5.43 5.43 0 0 0-.76-.08.05.05 0 0 1 0-.05l.85-2.08a.1.1 0 0 1 .08-.06l1.63-.17a.13.13 0 0 0 .12-.13c0-.02 0-.05-.02-.07l-.61-.97c.24-.1.34.14.47.21a16.96 16.96 0 0 1 .9.5 9.65 9.65 0 0 1 1.88.87c.4.1.75.32 1.04.4a.1.1 0 0 1 .08.13c0 .03-.03.08-.07.15a.19.19 0 0 0 0 .2c.11.14.21.2.31.18Z" fill="#fff"/><path d="m24.35 33.84-.33.09c-.35-.04-.6.01-.74.17-.24.05-.42.05-.55-.02a.15.15 0 0 1-.07-.09l-.42-1.46v-.05c-.03-.7-.03-1.3-.03-1.78 0-.3.11-.78.32-1.44a35.9 35.9 0 0 1 .6-1.56 4.94 4.94 0 0 1 1.96-.06v.02l-.01.01a9.5 9.5 0 0 0-1.12 3.05 6.2 6.2 0 0 0 .42 2.9c.02.07.01.14-.03.22Z" fill="#fff"/><path d="m31.27 28.44.13.13a.66.66 0 0 1-.27.03c-.11-.01-.18 0-.2.02l-.09.09a.03.03 0 0 1-.04-.03v-.02c.16-.23.32-.3.47-.22ZM31.35 29.1a.78.78 0 0 1-.38-.07c.08-.21.2-.2.38.06Z" fill="#040404"/><path d="M43.94 29.02c.02.05.02.11 0 .18l-10.4-.03h-.03v-.02a.03.03 0 0 1 .02-.03l10.41-.1Z" fill="#788374"/><path d="M22.09 29.57a.42.42 0 0 1-.16.03 401.77 401.77 0 0 1-9.78-.02l-.01-.07c3.7-.04 6.96-.04 9.8 0a.2.2 0 0 1 .15.06Z" fill="#3E3C3C"/><path d="M22.09 29.57h.12l-.2 1.77c-1.05.12-2.18.17-3.4.15-1.65-.02-3.72-.03-6.21 0a9.1 9.1 0 0 1-.29-1.75c0-.06.01-.11.04-.16l.15.02c3.2.04 6.42.04 9.63 0l.16-.03Z" fill="#98B78E"/><path d="M24.16 31.3v-1.02c0-.03.02-.07.04-.1a.14.14 0 0 1 .1-.04c.36 0 .65.04.85.11a.12.12 0 0 1 .08.1l.14.93a.11.11 0 0 1-.02.09.1.1 0 0 1-.08.04h-1a.11.11 0 0 1-.1-.11ZM26.89 31.9c.25.4.4.69.43.84a17.01 17.01 0 0 0 .25.99.05.05 0 0 1-.08.03 4.36 4.36 0 0 1-1.41-1.35 4.37 4.37 0 0 1-.6-1.9.05.05 0 0 1 .05-.03 17.4 17.4 0 0 0 .79.66c.12.1.3.35.57.76Z" fill="#FBBF49"/><path d="M22 31.34c.1.55.1.99 0 1.32-.04.15-.25.7-.64 1.68-.21.53-.32 1.08-.57 1.53a.12.12 0 0 0 .1.18 7.99 7.99 0 0 1 2.2.2v.01c-.8.18-1.46.28-1.94.32-1 .07-2.32.02-3.33.05l-3.23.1c-.44-.69-.86-1.47-1.27-2.34-.12-.25-.2-.52-.25-.82l5.3.04c.86 0 1.76-.07 2.68-.1l.01-.02v-.01h-.02c-.93-.03-1.97-.12-3.04-.13h-5.05a9.1 9.1 0 0 1-.55-1.87c2.5-.02 4.56-.02 6.21.01 1.22.02 2.35-.03 3.4-.15Z" fill="#435B3F"/><path d="M24.27 31.59h1.14c.03 0 .06 0 .08.02l.05.06.28.7a.07.07 0 0 1-.02.07l-1.18.88a.12.12 0 0 1-.18-.05c-.2-.47-.28-1-.28-1.58a.1.1 0 0 1 .1-.1Z" fill="#FBBF49"/><path d="m43.55 31.84-.65 2.03a171.5 171.5 0 0 0-9.6-.06.08.08 0 0 0-.02.05.07.07 0 0 0 .02.05.06.06 0 0 0 .05.02l5.06.02a.1.1 0 0 1 .08.04.11.11 0 0 1 .03.07v.1l-.04.01-1.5.04c-.25 0-.74.03-1.48.07-.75.05-1.5.04-2.25-.02l-.03-2.14.4-.2a.27.27 0 0 1 .12-.03 40 40 0 0 1 2.39.03c.62.03 1.4.02 2.36-.03 1.7-.09 3.39-.1 5.06-.05Z" fill="#6E8669"/><path d="M24.28 35.07a1.5 1.5 0 0 1-.97.16 5.1 5.1 0 0 1-1.79.5.07.07 0 0 1-.02-.09l.03-.03 1.11-.72a.1.1 0 0 0 .04-.11.1.1 0 0 0-.02-.04.12.12 0 0 0-.16-.02 11.19 11.19 0 0 1-.98.64.07.07 0 0 1-.05-.04.07.07 0 0 1 .01-.06 8.12 8.12 0 0 0 .84-1.43.11.11 0 0 1 .17.06c.16.44.42.51.79.2.14-.15.39-.2.74-.16 0 .1.13.09.37-.07a8.4 8.4 0 0 1 1.5-1.26.1.1 0 0 1 .08-.02c.03 0 .05.02.07.05l.48.64a.16.16 0 0 1 .02.16L26 34.76a.3.3 0 0 1-.38.16l-.65-.27a.1.1 0 0 0-.1.01l-.6.4ZM21.42 35.07a.06.06 0 0 1-.1-.05l.8-2.19a.04.04 0 0 1 .06-.01l.02.02.1.5c.02.1 0 .19-.04.27l-.84 1.46Z" fill="#FBBF49"/><path d="M13.07 33.57c-.06.02-.1.02-.11-.02a.25.25 0 0 1-.01-.2H18c1.07 0 2.11.1 3.04.12h.01v.01h.01v.02l-.01.01c-.92.03-1.82.1-2.68.1-1.76 0-3.53-.02-5.3-.04Z" fill="#98B78E"/><path d="m26.2 34.74.5-1.2a.07.07 0 0 1 .1-.03l.78.57a.16.16 0 0 1 .05.18L27 35.98a.2.2 0 0 1-.19.13h-1.39a.16.16 0 0 1-.13-.06l-.03-.05a.06.06 0 0 1 0-.06.06.06 0 0 1 .05-.03c.26.02.96-.17 1.23-.42.28-.27-.01-.52-.29-.62a.1.1 0 0 1-.05-.13Z" fill="#FBBF49"/><path d="m42.9 33.87-.19.44-9.47.26a.87.87 0 0 1 0-.3c.76.05 1.51.06 2.26.01a38.77 38.77 0 0 1 2.98-.1l.03-.02.01-.03v-.07a.1.1 0 0 0-.03-.07.11.11 0 0 0-.08-.04l-5.06-.02a.06.06 0 0 1-.05-.02.07.07 0 0 1-.02-.04v-.01a.08.08 0 0 1 .08-.07c3.18-.07 6.36-.04 9.54.08Z" fill="#98B78E"/><path d="m24.35 33.84.04.02c-.24.16-.37.18-.37.07l.33-.1Z" fill="#8D6B5D"/><path d="M42.71 34.3a15.22 15.22 0 0 1-2.09 3.52c-1.8.04-3.58.08-5.34.1-.46.01-1.13.08-2 .2l-.02.04-.02-3.59 9.47-.26Z" fill="#6E8669"/><path d="M23.3 35.23c.33.06.65 0 .98-.16l.62-.26a.18.18 0 0 1 .17.02c.3.19.65.26 1.01.2.12-.02.26.05.34.12a.15.15 0 0 1 .04.2.16.16 0 0 1-.06.06c-.4.22-.8.34-1.23.35a.09.09 0 0 0-.08.09c0 .35.17.52.5.49h.03a.06.06 0 0 1 .03.05v.02c-.04.1-.14.2-.3.27-1.08.55-2.5-.04-2.04-1.45Z" fill="#CCA388"/><path d="M23.07 35.88a.04.04 0 0 1 0 .03h-.02l-.02.01h-.02a6.05 6.05 0 0 1-.82-.02c-.05-.01-.07-.03-.07-.04v-.02c0-.02.02-.04.06-.05l.2-.06a3.68 3.68 0 0 1 .61-.07h.04a.04.04 0 0 1 .03.03l.01.19Z" fill="#FBBF49"/><path d="m23.1 36.26.15.24a9.1 9.1 0 0 1-1.92.38l-6.25.12-.36-.05-.13-.22 3.23-.1c1-.03 2.32.02 3.33-.05.48-.04 1.13-.14 1.95-.32Z" fill="#98B78E"/><path d="M23.26 39.32c-.02-.06-.07-.09-.15-.08-.34.02-.73.06-1.18.12-.42.06-.81.1-1.18.1-1.27 0-2.56 0-3.86.04a18.1 18.1 0 0 1-2.17-2.55l.36.05 6.25-.12a9.1 9.1 0 0 0 1.92-.38c.07.16.2.3.4.44a.33.33 0 0 1 .15.27V39c0 .02 0 .04.02.06l.04.06.23.17a.05.05 0 0 1 .02.06.05.05 0 0 1-.06.03 2.52 2.52 0 0 0-.8-.07Z" fill="#556B52"/><path d="M40.62 37.82a.87.87 0 0 1-.22.26c-2.84.03-4.83.06-5.98.1a7.98 7.98 0 0 0-1.1.13.06.06 0 0 1-.03-.05l-.02-.14c.88-.12 1.55-.19 2-.2 1.77-.02 3.55-.06 5.35-.1Z" fill="#98B78E"/><path d="M40.4 38.08c-.53.69-1.15 1.34-1.87 1.97a16.04 16.04 0 0 1-14.28 3.5c.28-.17.42-.39.42-.65 0-.65.03-1.2.08-1.66a.19.19 0 0 1 .17-.16l.55-.04c.2-.01.84-.18 1.93-.49.14-.03.28-.06.42-.07.56-.04 1.6-.03 2.29-.28a.13.13 0 0 1 .14.04.13.13 0 0 1 .01.15c-.3.51-.6.95-.6 1.47 0 .05-.02.1-.05.14-.22.25-.6.94-.06 1.13.12.04.28.06.48.06.98.02 1.97-.02 2.97-.14.21-.02.38-.1.52-.24a.15.15 0 0 0 .03-.14c-.07-.31-.2-.5-.4-.54a170.26 170.26 0 0 1-1.6-.4.06.06 0 0 1 0-.09c.12-.15.23-.32.3-.49a35.97 35.97 0 0 1 .72-1.49l.07-.29a.2.2 0 0 1 .06-.1c.38-.36.62-.5.56-1.11l.01-.04.02.14a.06.06 0 0 0 .05.06h.03a8 8 0 0 1 1.05-.14c1.15-.04 3.14-.07 5.98-.1Z" fill="#556B52"/><path d="m23.26 39.32-.24.15-1.25.17c-.4.04-.82.07-1.26.08l-3.37.04-.25-.26c1.3-.03 2.6-.05 3.86-.05.37 0 .76-.03 1.18-.09.45-.06.84-.1 1.18-.12.08 0 .13.02.15.08Z" fill="#98B78E"/><path d="m32.43 39.45-.87 1.71a.4.4 0 0 1-.36.22 3.4 3.4 0 0 0-1.2.17.09.09 0 0 1-.06-.07l.01-.05.6-1.18a.4.4 0 0 1 .2-.18l1.63-.68a.04.04 0 0 1 .04.01l.01.03v.02Z" fill="#fff"/><path d="M23.02 39.47c-.09 1.56.23 2.9.95 4a15.95 15.95 0 0 1-6.83-3.71l3.37-.04c.44-.01.86-.04 1.26-.08.4-.05.83-.1 1.25-.17Z" fill="#556B52"/><path d="M24.81 40.74a.13.13 0 0 1-.11.17c-.03 0-.06 0-.08-.02l-.46-.26a.25.25 0 0 1-.09-.09c-.18-.3-.2-.56-.06-.81.08-.15.22-.16.42-.05.04.02.07.05.08.09l.3.97Z" fill="#92A18F"/><path d="m27.09 40.47-1.77.37a.28.28 0 0 1-.32-.17l-.37-.88a.04.04 0 0 1 .01-.05.05.05 0 0 1 .05-.01l2.4.65a.05.05 0 0 1 0 .09Z" fill="#fff"/><path d="M31.16 41.57h.01l.01.01v.02c.01.04 0 .09-.02.13a.37.37 0 0 1-.1.11.64.64 0 0 1-.17.1.86.86 0 0 1-.2.04h-.05a.76.76 0 0 1-.39-.05c-.1-.05-.17-.13-.18-.21v-.03h.02l1.07-.12Z" fill="#CCA388"/><defs><linearGradient id="a" x1="10.42" y1="9.71" x2="68.15" y2="76.02" gradientUnits="userSpaceOnUse"><stop stop-color="#1A1E21"/><stop offset="1" stop-color="#06060A"/></linearGradient></defs></svg>