<?xml version="1.0" encoding="UTF-8"?>
<!DOCTYPE svg PUBLIC "-//W3C//DTD SVG 1.1//EN" "http://www.w3.org/Graphics/SVG/1.1/DTD/svg11.dtd">
<svg xmlns="http://www.w3.org/2000/svg" version="1.1" width="64px" height="64px" style="shape-rendering:geometricPrecision; text-rendering:geometricPrecision; image-rendering:optimizeQuality; fill-rule:evenodd; clip-rule:evenodd" xmlns:xlink="http://www.w3.org/1999/xlink">
<g><path style="opacity:0.981" fill="#231f20" d="M 25.5,-0.5 C 29.5,-0.5 33.5,-0.5 37.5,-0.5C 51.1667,3.16667 59.8333,11.8333 63.5,25.5C 63.5,29.5 63.5,33.5 63.5,37.5C 59.8333,51.1667 51.1667,59.8333 37.5,63.5C 33.5,63.5 29.5,63.5 25.5,63.5C 11.8333,59.8333 3.16667,51.1667 -0.5,37.5C -0.5,33.5 -0.5,29.5 -0.5,25.5C 3.16667,11.8333 11.8333,3.16667 25.5,-0.5 Z"/></g>
<g><path style="opacity:1" fill="#38c8a7" d="M 33.5,2.5 C 42.1667,11.8333 51.1667,20.8333 60.5,29.5C 61.1115,32.304 61.1115,35.304 60.5,38.5C 59.078,37.075 57.4113,36.075 55.5,35.5C 55.7083,31.9152 54.375,29.2485 51.5,27.5C 49.6098,25.4099 47.9431,23.0765 46.5,20.5C 44.8333,19.6667 43.1667,18.8333 41.5,18C 41.9574,17.586 42.2907,17.086 42.5,16.5C 40.314,15.7792 38.1474,15.1125 36,14.5C 31.2552,14.322 26.0885,14.6553 20.5,15.5C 20.6495,16.552 20.4828,17.552 20,18.5C 16.6093,19.7232 14.4426,22.0565 13.5,25.5C 12.8333,25.5 12.1667,25.5 11.5,25.5C 11.5569,24.391 11.8902,23.391 12.5,22.5C 14.1667,20.1667 16.1667,18.1667 18.5,16.5C 20.5727,14.7462 22.7393,13.0795 25,11.5C 25.6708,12.2524 26.5041,12.5858 27.5,12.5C 28.4959,12.5858 29.3292,12.2524 30,11.5C 31.8783,13.6975 34.0449,13.8642 36.5,12C 33.2956,8.96406 30.2956,5.79739 27.5,2.5C 29.6531,1.42708 31.6531,1.42708 33.5,2.5 Z"/></g>
<g><path style="opacity:1" fill="#34d6a4" d="M 33.5,2.5 C 44.3244,3.00228 52.4911,8.00228 58,17.5C 59.7827,21.2982 60.6161,25.2982 60.5,29.5C 51.1667,20.8333 42.1667,11.8333 33.5,2.5 Z"/></g>
<g><path style="opacity:1" fill="#3cb8ab" d="M 27.5,2.5 C 30.2956,5.79739 33.2956,8.96406 36.5,12C 34.0449,13.8642 31.8783,13.6975 30,11.5C 29.3292,12.2524 28.4959,12.5858 27.5,12.5C 25.2034,10.7059 23.0367,8.70587 21,6.5C 20.5172,5.55198 20.3505,4.55198 20.5,3.5C 22.8056,3.00745 25.139,2.67412 27.5,2.5 Z"/></g>
<g><path style="opacity:1" fill="#439fb1" d="M 20.5,3.5 C 20.3505,4.55198 20.5172,5.55198 21,6.5C 23.0367,8.70587 25.2034,10.7059 27.5,12.5C 26.5041,12.5858 25.6708,12.2524 25,11.5C 22.7393,13.0795 20.5727,14.7462 18.5,16.5C 16.5,14.1667 14.5,11.8333 12.5,9.5C 14.7703,7.02516 17.437,5.02516 20.5,3.5 Z"/></g>
<g><path style="opacity:1" fill="#4a86b7" d="M 12.5,9.5 C 14.5,11.8333 16.5,14.1667 18.5,16.5C 16.1667,18.1667 14.1667,20.1667 12.5,22.5C 10.5428,20.5086 8.54277,18.5086 6.5,16.5C 7.75731,13.5726 9.75731,11.2393 12.5,9.5 Z"/></g>
<g><path style="opacity:1" fill="#323131" d="M 51.5,27.5 C 53.055,30.2085 53.7216,32.8752 53.5,35.5C 52.3994,36.8484 51.3994,38.3484 50.5,40C 48.2726,40.941 46.2726,42.1077 44.5,43.5C 44.1667,43.5 43.8333,43.5 43.5,43.5C 43.1667,43.5 42.8333,43.5 42.5,43.5C 42.4606,34.6283 37.9606,30.295 29,30.5C 22.5464,32.7897 19.7131,37.123 20.5,43.5C 15.466,42.5037 11.7993,39.837 9.5,35.5C 9.57174,31.9693 10.9051,28.636 13.5,25.5C 14.4426,22.0565 16.6093,19.7232 20,18.5C 20.4828,17.552 20.6495,16.552 20.5,15.5C 26.0885,14.6553 31.2552,14.322 36,14.5C 38.1474,15.1125 40.314,15.7792 42.5,16.5C 42.2907,17.086 41.9574,17.586 41.5,18C 43.1667,18.8333 44.8333,19.6667 46.5,20.5C 47.9431,23.0765 49.6098,25.4099 51.5,27.5 Z"/></g>
<g><path style="opacity:1" fill="#506cbc" d="M 6.5,16.5 C 8.54277,18.5086 10.5428,20.5086 12.5,22.5C 11.8902,23.391 11.5569,24.391 11.5,25.5C 10.2632,26.9649 9.26315,28.6316 8.5,30.5C 6.5,28.8333 4.5,27.1667 2.5,25.5C 2.79224,21.9336 4.12557,18.9336 6.5,16.5 Z"/></g>
<g><path style="opacity:1" fill="#424243" d="M 42.5,43.5 C 41.6597,45.8525 40.3264,47.8525 38.5,49.5C 38.2172,48.7109 37.7172,48.0442 37,47.5C 33.3333,50.1667 29.6667,50.1667 26,47.5C 25.3333,48.1667 24.6667,48.8333 24,49.5C 22.5576,47.6089 21.3909,45.6089 20.5,43.5C 19.7131,37.123 22.5464,32.7897 29,30.5C 37.9606,30.295 42.4606,34.6283 42.5,43.5 Z"/></g>
<g><path style="opacity:1" fill="#4790b4" d="M 11.5,25.5 C 12.1667,25.5 12.8333,25.5 13.5,25.5C 10.9051,28.636 9.57174,31.9693 9.5,35.5C 7.15335,34.3931 6.82002,32.7264 8.5,30.5C 9.26315,28.6316 10.2632,26.9649 11.5,25.5 Z"/></g>
<g><path style="opacity:1" fill="#478db4" d="M 51.5,27.5 C 54.375,29.2485 55.7083,31.9152 55.5,35.5C 55.5,35.8333 55.5,36.1667 55.5,36.5C 54.8333,36.1667 54.1667,35.8333 53.5,35.5C 53.7216,32.8752 53.055,30.2085 51.5,27.5 Z"/></g>
<g><path style="opacity:1" fill="#5947c5" d="M 2.5,34.5 C 11.5,42.8333 20.1667,51.5 28.5,60.5C 18.0838,59.7002 10.2505,54.7002 5,45.5C 3.3783,42.0131 2.54496,38.3465 2.5,34.5 Z"/></g>
<g><path style="opacity:1" fill="#5655c2" d="M 2.5,25.5 C 4.5,27.1667 6.5,28.8333 8.5,30.5C 6.82002,32.7264 7.15335,34.3931 9.5,35.5C 11.7993,39.837 15.466,42.5037 20.5,43.5C 21.3909,45.6089 22.5576,47.6089 24,49.5C 24.6667,48.8333 25.3333,48.1667 26,47.5C 29.6667,50.1667 33.3333,50.1667 37,47.5C 37.7172,48.0442 38.2172,48.7109 38.5,49.5C 36.1798,50.7624 33.8465,51.7624 31.5,52.5C 29.9017,51.5153 28.235,51.3486 26.5,52C 29.3714,54.7028 32.0381,57.5361 34.5,60.5C 32.5,61.8333 30.5,61.8333 28.5,60.5C 20.1667,51.5 11.5,42.8333 2.5,34.5C 1.62807,31.5785 1.62807,28.5785 2.5,25.5 Z"/></g>
<g><path style="opacity:1" fill="#40a9ad" d="M 55.5,35.5 C 57.4113,36.075 59.078,37.075 60.5,38.5C 59.9154,41.8483 58.582,44.8483 56.5,47.5C 54.1667,45.8333 52.1667,43.8333 50.5,41.5C 52.5,40.1667 54.1667,38.5 55.5,36.5C 55.5,36.1667 55.5,35.8333 55.5,35.5 Z"/></g>
<g><path style="opacity:1" fill="#506bbc" d="M 53.5,35.5 C 54.1667,35.8333 54.8333,36.1667 55.5,36.5C 54.1667,38.5 52.5,40.1667 50.5,41.5C 48.7028,42.7298 46.7028,43.3964 44.5,43.5C 46.2726,42.1077 48.2726,40.941 50.5,40C 51.3994,38.3484 52.3994,36.8484 53.5,35.5 Z"/></g>
<g><path style="opacity:1" fill="#4692b5" d="M 50.5,41.5 C 52.1667,43.8333 54.1667,45.8333 56.5,47.5C 54.8333,49.8333 52.8333,51.8333 50.5,53.5C 47.8333,51.5 45.5,49.1667 43.5,46.5C 43.5,45.5 43.5,44.5 43.5,43.5C 43.8333,43.5 44.1667,43.5 44.5,43.5C 46.7028,43.3964 48.7028,42.7298 50.5,41.5 Z"/></g>
<g><path style="opacity:1" fill="#4b7fb8" d="M 43.5,46.5 C 45.5,49.1667 47.8333,51.5 50.5,53.5C 48.9095,55.6326 46.9095,57.2993 44.5,58.5C 43.2464,55.9066 41.5798,53.5732 39.5,51.5C 40.604,49.6115 41.9373,47.9448 43.5,46.5 Z"/></g>
<g><path style="opacity:1" fill="#594ac5" d="M 42.5,43.5 C 42.8333,43.5 43.1667,43.5 43.5,43.5C 43.5,44.5 43.5,45.5 43.5,46.5C 41.9373,47.9448 40.604,49.6115 39.5,51.5C 38.6618,51.1583 38.3284,50.4916 38.5,49.5C 40.3264,47.8525 41.6597,45.8525 42.5,43.5 Z"/></g>
<g><path style="opacity:1" fill="#5168be" d="M 38.5,49.5 C 38.3284,50.4916 38.6618,51.1583 39.5,51.5C 41.5798,53.5732 43.2464,55.9066 44.5,58.5C 41.3209,59.7934 37.9876,60.4601 34.5,60.5C 32.0381,57.5361 29.3714,54.7028 26.5,52C 28.235,51.3486 29.9017,51.5153 31.5,52.5C 33.8465,51.7624 36.1798,50.7624 38.5,49.5 Z"/></g>
</svg>
