<?xml version="1.0" encoding="UTF-8"?>
<!DOCTYPE svg PUBLIC "-//W3C//DTD SVG 1.1//EN" "http://www.w3.org/Graphics/SVG/1.1/DTD/svg11.dtd">
<svg xmlns="http://www.w3.org/2000/svg" version="1.1" width="64px" height="64px" style="shape-rendering:geometricPrecision; text-rendering:geometricPrecision; image-rendering:optimizeQuality; fill-rule:evenodd; clip-rule:evenodd" xmlns:xlink="http://www.w3.org/1999/xlink">
<g><path style="opacity:1" fill="#8e6dfe" d="M -0.5,-0.5 C 20.8333,-0.5 42.1667,-0.5 63.5,-0.5C 63.5,0.833333 63.5,2.16667 63.5,3.5C 57.8236,3.33391 52.1569,3.50058 46.5,4C 48.8333,4.33333 51.1667,4.66667 53.5,5C 47.5,5.33333 41.5,5.66667 35.5,6C 23.6695,8.78874 11.6695,10.6221 -0.5,11.5C -0.5,7.5 -0.5,3.5 -0.5,-0.5 Z"/></g>
<g><path style="opacity:1" fill="#7d6bfb" d="M 63.5,3.5 C 63.5,10.1667 63.5,16.8333 63.5,23.5C 58.2112,24.4883 52.8779,25.155 47.5,25.5C 47.2833,29.7051 46.6167,33.7051 45.5,37.5C 44.6576,14.8407 43.4909,14.8407 42,37.5C 39.8826,43.7243 35.5493,47.0576 29,47.5C 24.5632,46.8571 20.3966,45.5237 16.5,43.5C 16.8333,42.8333 17.1667,42.1667 17.5,41.5C 16.8335,36.3187 16.1668,30.9853 15.5,25.5C 14.0374,25.3678 12.5374,25.0345 11,24.5C 7.36197,26.1848 3.52864,26.8514 -0.5,26.5C -0.5,21.5 -0.5,16.5 -0.5,11.5C 11.6695,10.6221 23.6695,8.78874 35.5,6C 41.5,5.66667 47.5,5.33333 53.5,5C 51.1667,4.66667 48.8333,4.33333 46.5,4C 52.1569,3.50058 57.8236,3.33391 63.5,3.5 Z"/></g>
<g><path style="opacity:1" fill="#fcfbfc" d="M 17.5,41.5 C 17.3338,35.4908 17.5005,29.4908 18,23.5C 23.87,11.6549 32.7034,8.82158 44.5,15C 46.0368,16.1096 46.7035,17.6096 46.5,19.5C 42.6034,17.4763 38.4368,16.1429 34,15.5C 27.4507,15.9424 23.1174,19.2757 21,25.5C 20.6667,30.8333 20.3333,36.1667 20,41.5C 19.2303,42.5981 18.397,42.5981 17.5,41.5 Z"/></g>
<g><path style="opacity:1" fill="#fbfbfc" d="M 39.5,24.5 C 36.2598,20.9283 32.5932,20.595 28.5,23.5C 27.4164,24.6651 26.5831,25.9984 26,27.5C 26.1018,31.9558 25.2684,35.9558 23.5,39.5C 23.3342,34.8215 23.5008,30.1548 24,25.5C 27.2769,19.8912 32.1103,18.0578 38.5,20C 39.5,21 40.5,22 41.5,23C 40.9558,23.7172 40.2891,24.2172 39.5,24.5 Z"/></g>
<g><path style="opacity:1" fill="#6a67f9" d="M 39.5,24.5 C 37.7316,28.0442 36.8982,32.0442 37,36.5C 36.1121,40.5261 33.6121,42.5261 29.5,42.5C 26.8984,42.5328 24.8984,41.5328 23.5,39.5C 25.2684,35.9558 26.1018,31.9558 26,27.5C 26.5831,25.9984 27.4164,24.6651 28.5,23.5C 32.5932,20.595 36.2598,20.9283 39.5,24.5 Z"/></g>
<g><path style="opacity:1" fill="#fafbfc" d="M 45.5,37.5 C 43.8731,44.7902 39.5397,49.4568 32.5,51.5C 30.8333,51.5 29.1667,51.5 27.5,51.5C 24.3271,50.8303 21.3271,49.6636 18.5,48C 16.9632,46.8904 16.2965,45.3904 16.5,43.5C 20.3966,45.5237 24.5632,46.8571 29,47.5C 35.5493,47.0576 39.8826,43.7243 42,37.5C 43.4909,14.8407 44.6576,14.8407 45.5,37.5 Z"/></g>
<g><path style="opacity:1" fill="#fafbfb" d="M 39.5,24.5 C 39.6658,29.1785 39.4992,33.8452 39,38.5C 35.7231,44.1088 30.8897,45.9422 24.5,44C 23.5,43 22.5,42 21.5,41C 22.0442,40.2828 22.7109,39.7828 23.5,39.5C 24.8984,41.5328 26.8984,42.5328 29.5,42.5C 33.6121,42.5261 36.1121,40.5261 37,36.5C 36.8982,32.0442 37.7316,28.0442 39.5,24.5 Z"/></g>
<g><path style="opacity:1" fill="#5b64fe" d="M 63.5,23.5 C 63.5,31.8333 63.5,40.1667 63.5,48.5C 56.9141,48.3876 50.5808,49.3876 44.5,51.5C 41.7559,50.5094 39.0893,50.8427 36.5,52.5C 35.2638,51.7542 33.9305,51.4208 32.5,51.5C 39.5397,49.4568 43.8731,44.7902 45.5,37.5C 46.6167,33.7051 47.2833,29.7051 47.5,25.5C 52.8779,25.155 58.2112,24.4883 63.5,23.5 Z"/></g>
<g><path style="opacity:1" fill="#5e64fe" d="M 17.5,41.5 C 17.1667,42.1667 16.8333,42.8333 16.5,43.5C 16.2965,45.3904 16.9632,46.8904 18.5,48C 21.3271,49.6636 24.3271,50.8303 27.5,51.5C 26.158,52.793 24.4913,53.6264 22.5,54C 14.7317,55.2327 7.06506,56.0661 -0.5,56.5C -0.5,46.5 -0.5,36.5 -0.5,26.5C 3.52864,26.8514 7.36197,26.1848 11,24.5C 12.5374,25.0345 14.0374,25.3678 15.5,25.5C 16.1668,30.9853 16.8335,36.3187 17.5,41.5 Z"/></g>
<g><path style="opacity:1" fill="#4960fe" d="M 63.5,48.5 C 63.5,53.5 63.5,58.5 63.5,63.5C 42.1667,63.5 20.8333,63.5 -0.5,63.5C -0.5,61.1667 -0.5,58.8333 -0.5,56.5C 7.06506,56.0661 14.7317,55.2327 22.5,54C 24.4913,53.6264 26.158,52.793 27.5,51.5C 29.1667,51.5 30.8333,51.5 32.5,51.5C 33.9305,51.4208 35.2638,51.7542 36.5,52.5C 39.0893,50.8427 41.7559,50.5094 44.5,51.5C 50.5808,49.3876 56.9141,48.3876 63.5,48.5 Z"/></g>
</svg>
