<?xml version="1.0" encoding="UTF-8"?>
<!DOCTYPE svg PUBLIC "-//W3C//DTD SVG 1.1//EN" "http://www.w3.org/Graphics/SVG/1.1/DTD/svg11.dtd">
<svg xmlns="http://www.w3.org/2000/svg" version="1.1" width="64px" height="64px" style="shape-rendering:geometricPrecision; text-rendering:geometricPrecision; image-rendering:optimizeQuality; fill-rule:evenodd; clip-rule:evenodd" xmlns:xlink="http://www.w3.org/1999/xlink">
<g><path style="opacity:0.868" fill="#2f2f2f" d="M 21.5,-0.5 C 22.1667,-0.5 22.8333,-0.5 23.5,-0.5C 24.1667,0.833333 24.8333,0.833333 25.5,-0.5C 29.5,-0.5 33.5,-0.5 37.5,-0.5C 38.5,0.833333 39.5,0.833333 40.5,-0.5C 40.8333,-0.5 41.1667,-0.5 41.5,-0.5C 42.2763,1.97401 43.7763,2.64067 46,1.5C 50.1537,4.65393 53.9871,8.15393 57.5,12C 57.4301,12.7648 57.0967,13.2648 56.5,13.5C 56.5,13.1667 56.5,12.8333 56.5,12.5C 55.8333,11.1667 55.1667,11.1667 54.5,12.5C 53.5,12.5 52.5,12.5 51.5,12.5C 51.1667,11.1667 50.8333,11.1667 50.5,12.5C 49.6851,11.5707 48.8518,10.5707 48,9.5C 46.984,10.6341 46.3173,10.3008 46,8.5C 45.6667,8.83333 45.3333,9.16667 45,9.5C 43.6667,8.16667 42.3333,6.83333 41,5.5C 39.5944,6.66816 38.4277,6.33482 37.5,4.5C 33.3177,5.36269 29.3177,5.69602 25.5,5.5C 25.1667,5.5 24.8333,5.5 24.5,5.5C 24.2893,3.57591 23.6226,3.24258 22.5,4.5C 22.1667,4.5 21.8333,4.5 21.5,4.5C 21.1583,3.66175 20.4916,3.32842 19.5,3.5C 19.0618,3.56544 18.7284,3.39877 18.5,3C 20.0629,2.24109 21.0629,1.07442 21.5,-0.5 Z"/></g>
<g><path style="opacity:0.98" fill="#279f95" d="M 19.5,3.5 C 20.4916,3.32842 21.1583,3.66175 21.5,4.5C 21.8333,5.83333 22.1667,5.83333 22.5,4.5C 23.2216,4.91753 23.7216,5.5842 24,6.5C 24.3988,6.27155 24.5654,5.93822 24.5,5.5C 24.8333,5.5 25.1667,5.5 25.5,5.5C 27.5643,8.42624 29.2309,11.0929 30.5,13.5C 29.1667,14.5 29.1667,15.5 30.5,16.5C 30.5,17.1667 30.5,17.8333 30.5,18.5C 29.1667,19.1667 29.1667,19.8333 30.5,20.5C 30.4226,21.7498 29.756,22.5831 28.5,23C 29.056,23.3826 29.3893,23.8826 29.5,24.5C 28.1667,24.5 27.5,25.1667 27.5,26.5C 27.5,27.1667 27.1667,27.5 26.5,27.5C 25.1667,27.5 24.5,28.1667 24.5,29.5C 24.1667,29.5 23.8333,29.5 23.5,29.5C 23.1667,28.1667 22.8333,28.1667 22.5,29.5C 21.8333,29.5 21.5,29.8333 21.5,30.5C 18.6649,29.2138 15.8316,29.2138 13,30.5C 12.5581,28.3215 11.5581,27.6548 10,28.5C 9.58138,27.3279 8.91471,26.3279 8,25.5C 7.23029,26.5981 6.39695,26.5981 5.5,25.5C 5.5,25.1667 5.5,24.8333 5.5,24.5C 6.55728,23.794 6.22394,23.4607 4.5,23.5C 4.83333,22.8333 5.16667,22.1667 5.5,21.5C 5.15829,20.6618 4.49162,20.3284 3.5,20.5C 3.5,19.8333 3.5,19.1667 3.5,18.5C 4.51518,17.5398 4.51518,16.3731 3.5,15C 3.90536,14.0546 4.57203,13.3879 5.5,13C 5.16667,12.6667 4.83333,12.3333 4.5,12C 5.57075,11.1482 6.57075,10.3149 7.5,9.5C 8.5,9.16667 9.16667,8.5 9.5,7.5C 10.8395,5.16001 12.5062,3.82668 14.5,3.5C 16.3163,4.73494 17.983,4.73494 19.5,3.5 Z"/></g>
<g><path style="opacity:0.004" fill="#00fffe" d="M 9.5,7.5 C 8.83333,6.16667 8.83333,6.16667 9.5,7.5 Z"/></g>
<g><path style="opacity:0.004" fill="#00fffe" d="M 7.5,9.5 C 6.83333,8.16667 6.83333,8.16667 7.5,9.5 Z"/></g>
<g><path style="opacity:0.965" fill="#303030" d="M 43.5,16.5 C 43.5,16.8333 43.5,17.1667 43.5,17.5C 43.5,18.8333 44.1667,19.5 45.5,19.5C 46.1667,19.8333 46.8333,20.1667 47.5,20.5C 47.5,20.8333 47.5,21.1667 47.5,21.5C 46.1667,21.8333 46.1667,22.1667 47.5,22.5C 48.209,23.404 49.209,23.7373 50.5,23.5C 50.5,24.1667 50.1667,24.5 49.5,24.5C 48.1667,24.8333 48.1667,25.1667 49.5,25.5C 49.8333,26.1667 50.1667,26.8333 50.5,27.5C 49.1667,28.5 49.1667,29.5 50.5,30.5C 51.8333,31.5 51.8333,32.5 50.5,33.5C 49.266,33.2849 49.266,33.9516 50.5,35.5C 50.5,35.8333 50.5,36.1667 50.5,36.5C 50.0825,37.2216 49.4158,37.7216 48.5,38C 49.7111,39.1131 49.7111,40.2798 48.5,41.5C 45.1437,44.1953 41.8103,46.8619 38.5,49.5C 38.1667,48.1667 37.8333,48.1667 37.5,49.5C 37.5,49.8333 37.5,50.1667 37.5,50.5C 36.8333,50.5 36.1667,50.5 35.5,50.5C 32.8333,49.1667 30.1667,49.1667 27.5,50.5C 26.8333,50.5 26.5,50.8333 26.5,51.5C 25.6618,51.1583 25.3284,50.4916 25.5,49.5C 25.1667,49.5 24.8333,49.5 24.5,49.5C 24.5,48.1667 23.8333,47.5 22.5,47.5C 21.9941,45.8946 21.3274,45.5613 20.5,46.5C 19.5084,46.6716 18.8417,46.3382 18.5,45.5C 19.0431,45.44 19.3764,45.1067 19.5,44.5C 18.4717,42.6385 16.9717,41.3052 15,40.5C 13.9806,38.7306 13.814,37.0639 14.5,35.5C 13.8333,34.8333 13.1667,34.1667 12.5,33.5C 15.8967,32.8281 19.2301,31.9948 22.5,31C 22.2716,30.6012 21.9382,30.4346 21.5,30.5C 21.5,29.8333 21.8333,29.5 22.5,29.5C 22.8333,29.5 23.1667,29.5 23.5,29.5C 23.8333,29.5 24.1667,29.5 24.5,29.5C 24.4346,29.9382 24.6012,30.2716 25,30.5C 25.5133,29.4734 26.0133,28.4734 26.5,27.5C 27.1667,27.5 27.5,27.1667 27.5,26.5C 28.4734,26.0133 29.4734,25.5133 30.5,25C 30.2716,24.6012 29.9382,24.4346 29.5,24.5C 29.3893,23.8826 29.056,23.3826 28.5,23C 29.756,22.5831 30.4226,21.7498 30.5,20.5C 30.5,19.8333 30.5,19.1667 30.5,18.5C 30.5,17.8333 30.5,17.1667 30.5,16.5C 30.5,15.5 30.5,14.5 30.5,13.5C 31.2679,14.2625 31.7679,15.2625 32,16.5C 32.49,15.2068 32.6567,13.8734 32.5,12.5C 34.1238,12.3601 35.2904,13.0267 36,14.5C 36.414,14.0426 36.914,13.7093 37.5,13.5C 38.8498,15.7348 40.3498,17.0681 42,17.5C 42.3826,16.944 42.8826,16.6107 43.5,16.5 Z"/></g>
<g><path style="opacity:0.957" fill="#29a094" d="M 51.5,12.5 C 52.5,13.8333 53.5,13.8333 54.5,12.5C 55.1667,12.5 55.8333,12.5 56.5,12.5C 56.5,12.8333 56.5,13.1667 56.5,13.5C 57.2625,14.2679 58.2625,14.7679 59.5,15C 59.1667,15.3333 58.8333,15.6667 58.5,16C 60.687,17.025 62.3536,18.525 63.5,20.5C 63.5,20.8333 63.5,21.1667 63.5,21.5C 62.1667,21.8333 62.1667,22.1667 63.5,22.5C 63.5,24.5 63.5,26.5 63.5,28.5C 62.1667,29.1667 62.1667,29.8333 63.5,30.5C 63.5,30.8333 63.5,31.1667 63.5,31.5C 61.3023,31.4088 60.9689,32.0755 62.5,33.5C 60.1667,33.8333 58.8333,35.1667 58.5,37.5C 57.8333,37.5 57.1667,37.5 56.5,37.5C 54.9891,38.5025 53.3224,39.1692 51.5,39.5C 51.7373,38.209 51.404,37.209 50.5,36.5C 50.5,36.1667 50.5,35.8333 50.5,35.5C 50.5,34.8333 50.5,34.1667 50.5,33.5C 51.8333,32.5 51.8333,31.5 50.5,30.5C 50.5,29.5 50.5,28.5 50.5,27.5C 51.7574,26.3774 51.4241,25.7107 49.5,25.5C 49.5,25.1667 49.5,24.8333 49.5,24.5C 50.1667,24.5 50.5,24.1667 50.5,23.5C 49.791,22.596 48.791,22.2627 47.5,22.5C 47.5,22.1667 47.5,21.8333 47.5,21.5C 50.1667,21.1667 50.1667,20.8333 47.5,20.5C 46.8333,20.1667 46.1667,19.8333 45.5,19.5C 45.1667,18.5 44.5,17.8333 43.5,17.5C 43.5,17.1667 43.5,16.8333 43.5,16.5C 43.3505,15.448 43.5172,14.448 44,13.5C 45.016,14.6341 45.6827,14.3008 46,12.5C 47.6155,13.8009 49.1155,13.8009 50.5,12.5C 50.8333,11.1667 51.1667,11.1667 51.5,12.5 Z"/></g>
<g><path style="opacity:0.877" fill="#303030" d="M 3.5,18.5 C 3.5,19.1667 3.5,19.8333 3.5,20.5C 3.84171,21.3382 4.50838,21.6716 5.5,21.5C 5.16667,22.1667 4.83333,22.8333 4.5,23.5C 3.44272,24.206 3.77606,24.5393 5.5,24.5C 5.5,24.8333 5.5,25.1667 5.5,25.5C 5.17853,30.7858 5.17853,35.9525 5.5,41C 6.91907,43.2387 8.91907,45.572 11.5,48C 11.1667,48.3333 10.8333,48.6667 10.5,49C 12.1066,50.049 12.7733,51.549 12.5,53.5C 12.5,54.1667 12.5,54.8333 12.5,55.5C 11.4427,56.206 11.7761,56.5393 13.5,56.5C 13.5,56.8333 13.5,57.1667 13.5,57.5C 12.8826,57.6107 12.3826,57.944 12,58.5C 9.16667,55.6667 6.33333,52.8333 3.5,50C 3.16539,48.836 3.16539,47.5026 3.5,46C 2.83333,45.6667 2.16667,45.3333 1.5,45C 1.5,44 1.5,43 1.5,42C 0.905578,41.5357 0.238911,41.369 -0.5,41.5C -0.5,40.5 -0.5,39.5 -0.5,38.5C 0.833333,37.8333 0.833333,37.1667 -0.5,36.5C -0.5,33.1667 -0.5,29.8333 -0.5,26.5C 0.833333,25.8333 0.833333,25.1667 -0.5,24.5C -0.5,23.5 -0.5,22.5 -0.5,21.5C -0.068529,20.2273 1.2648,19.2273 3.5,18.5 Z"/></g>
<g><path style="opacity:0.891" fill="#303030" d="M 62.5,33.5 C 62.8333,33.5 63.1667,33.5 63.5,33.5C 63.5,34.8333 63.5,36.1667 63.5,37.5C 62.1667,38.1667 62.1667,38.8333 63.5,39.5C 63.5,40.1667 63.5,40.8333 63.5,41.5C 61.1676,42.1617 60.5009,43.495 61.5,45.5C 58.2195,50.7807 54.2195,55.4474 49.5,59.5C 46.8732,59.6395 44.5399,60.3062 42.5,61.5C 41.7025,61.9569 41.3691,62.6236 41.5,63.5C 40.8333,63.5 40.1667,63.5 39.5,63.5C 38.5,62.1667 37.5,62.1667 36.5,63.5C 35.5,63.5 34.5,63.5 33.5,63.5C 33.5,63.1667 33.5,62.8333 33.5,62.5C 35.5441,61.9688 37.2107,60.8022 38.5,59C 38.2716,58.6012 37.9382,58.4346 37.5,58.5C 37.8333,57.8333 38.1667,57.1667 38.5,56.5C 39.4959,56.4142 40.3292,56.7476 41,57.5C 45.4114,55.2995 49.5781,52.1329 53.5,48C 53.5,47 53.5,46 53.5,45C 56.8488,43.2299 57.8488,40.7299 56.5,37.5C 57.1667,37.5 57.8333,37.5 58.5,37.5C 58.4346,37.9382 58.6012,38.2716 59,38.5C 60.6692,37.1537 61.8358,35.487 62.5,33.5 Z"/></g>
<g><path style="opacity:0.966" fill="#28a096" d="M 18.5,45.5 C 18.8417,46.3382 19.5084,46.6716 20.5,46.5C 20.8417,47.3382 21.5084,47.6716 22.5,47.5C 21.3424,48.9498 21.8424,49.9498 24,50.5C 24.3988,50.2716 24.5654,49.9382 24.5,49.5C 24.8333,49.5 25.1667,49.5 25.5,49.5C 25.3284,50.4916 25.6618,51.1583 26.5,51.5C 27.1667,51.5 27.5,51.1667 27.5,50.5C 30.1667,50.5 32.8333,50.5 35.5,50.5C 36.1667,51.8333 36.8333,51.8333 37.5,50.5C 37.5,50.1667 37.5,49.8333 37.5,49.5C 37.8333,49.5 38.1667,49.5 38.5,49.5C 39.4172,52.1603 39.4172,54.4936 38.5,56.5C 38.1667,57.1667 37.8333,57.8333 37.5,58.5C 35.1667,58.8333 33.8333,60.1667 33.5,62.5C 32.0755,60.9689 31.4088,61.3023 31.5,63.5C 31.1667,63.5 30.8333,63.5 30.5,63.5C 29.8333,62.1667 29.1667,62.1667 28.5,63.5C 26.8333,63.5 25.1667,63.5 23.5,63.5C 22.8333,62.1667 22.1667,62.1667 21.5,63.5C 21.1667,63.5 20.8333,63.5 20.5,63.5C 20.4588,61.2547 19.6255,60.5881 18,61.5C 15.7447,60.1322 14.2447,58.7988 13.5,57.5C 13.5,57.1667 13.5,56.8333 13.5,56.5C 14.5573,55.794 14.2239,55.4607 12.5,55.5C 12.5,54.8333 12.5,54.1667 12.5,53.5C 13.7665,51.3057 13.7665,48.9724 12.5,46.5C 13.0253,45.8076 13.6919,45.3076 14.5,45C 14.1667,44.6667 13.8333,44.3333 13.5,44C 15.6308,42.2487 17.2974,42.7487 18.5,45.5 Z"/></g>
</svg>
