<!-- by TradingView --><svg width="56" height="56" viewBox="0 0 56 56" xmlns="http://www.w3.org/2000/svg"><path fill="url(#a)" d="M0 0h56v56H0z"/><path d="M28 11a17 17 0 0 1 9.2 31.3h.01l-.06.03A17 17 0 1 1 28 11ZM12.73 23.22A16 16 0 0 0 28 44c1.98 0 3.88-.36 5.63-1.02-2.8-1.32-8.42-4.77-13.55-10.55-4.43-5-6.48-7.78-7.35-9.2ZM28 12c-3.46 0-6.66 1.1-9.28 2.96A48.62 48.62 0 0 1 31 23v1.88c-4.03-3.78-8.6-7-13.14-9.26a16.07 16.07 0 0 0-4.03 4.95c.73 1.63 2.57 4.63 6.17 8.67V20h3.78L32 30.1V20h4v16h-3.7L24 25.52v7.9l.67.65c4.41 4.21 8.86 6.7 11.36 7.77 1.9-1.1 3.55-2.59 4.85-4.35a43.99 43.99 0 0 0-3.88-6v-2.04a44.38 44.38 0 0 1 4.5 7.14A16 16 0 0 0 28 12Z" fill="#fff"/><defs><linearGradient id="a" x1="5.03" y1="15.45" x2="47.71" y2="49.59" gradientUnits="userSpaceOnUse"><stop stop-color="#37ECCF"/><stop offset="1" stop-color="#5575FD"/></linearGradient></defs></svg>