<?xml version="1.0" encoding="UTF-8"?>
<!DOCTYPE svg PUBLIC "-//W3C//DTD SVG 1.1//EN" "http://www.w3.org/Graphics/SVG/1.1/DTD/svg11.dtd">
<svg xmlns="http://www.w3.org/2000/svg" version="1.1" width="64px" height="64px" style="shape-rendering:geometricPrecision; text-rendering:geometricPrecision; image-rendering:optimizeQuality; fill-rule:evenodd; clip-rule:evenodd" xmlns:xlink="http://www.w3.org/1999/xlink">
<g><path style="opacity:1" fill="#020101" d="M -0.5,-0.5 C 8.83333,-0.5 18.1667,-0.5 27.5,-0.5C 25.4006,0.611848 23.0673,1.27852 20.5,1.5C 17.9684,2.59575 15.6351,3.92908 13.5,5.5C 12.1667,6.16667 11.1667,7.16667 10.5,8.5C 8.5,9.83333 6.83333,11.5 5.5,13.5C 3.04904,16.7403 1.38237,20.4069 0.5,24.5C 0.737305,25.791 0.403972,26.791 -0.5,27.5C -0.5,18.1667 -0.5,8.83333 -0.5,-0.5 Z"/></g>
<g><path style="opacity:1" fill="#020101" d="M 34.5,-0.5 C 44.1667,-0.5 53.8333,-0.5 63.5,-0.5C 63.5,8.83333 63.5,18.1667 63.5,27.5C 59.7204,12.0535 50.0537,2.72013 34.5,-0.5 Z"/></g>
<g><path style="opacity:1" fill="#fd96d3" d="M 27.5,-0.5 C 29.8333,-0.5 32.1667,-0.5 34.5,-0.5C 50.0537,2.72013 59.7204,12.0535 63.5,27.5C 63.5,30.1667 63.5,32.8333 63.5,35.5C 60.819,48.5177 53.1523,57.1843 40.5,61.5C 40.2488,59.8297 39.5822,58.3297 38.5,57C 38.8333,56.6667 39.1667,56.3333 39.5,56C 36.7261,51.9913 35.3928,47.4913 35.5,42.5C 41.2617,38.2432 46.595,33.4099 51.5,28C 50.3147,26.647 48.9814,25.4803 47.5,24.5C 43.4799,28.1886 39.4799,31.8553 35.5,35.5C 33.0695,33.954 31.7361,31.6207 31.5,28.5C 36.8068,25.8731 36.8068,23.2064 31.5,20.5C 30.1482,21.5244 28.8149,22.5244 27.5,23.5C 24.6996,17.8234 22.0329,11.99 19.5,6C 20.3081,5.69238 20.9747,5.19238 21.5,4.5C 20.8728,3.58317 20.5394,2.58317 20.5,1.5C 23.0673,1.27852 25.4006,0.611848 27.5,-0.5 Z"/></g>
<g><path style="opacity:1" fill="#f99dc2" d="M 20.5,1.5 C 20.5394,2.58317 20.8728,3.58317 21.5,4.5C 20.9747,5.19238 20.3081,5.69238 19.5,6C 22.0329,11.99 24.6996,17.8234 27.5,23.5C 28.0798,25.7488 29.4131,27.4154 31.5,28.5C 31.7361,31.6207 33.0695,33.954 35.5,35.5C 30.9703,38.4315 27.3036,37.4315 24.5,32.5C 24.9382,32.5654 25.2716,32.3988 25.5,32C 24.6005,29.8083 23.6005,27.6416 22.5,25.5C 21.675,24.6143 20.675,24.281 19.5,24.5C 19.683,22.0637 19.0163,19.897 17.5,18C 17.8333,17.6667 18.1667,17.3333 18.5,17C 16.1593,13.4828 14.4927,9.64949 13.5,5.5C 15.6351,3.92908 17.9684,2.59575 20.5,1.5 Z"/></g>
<g><path style="opacity:1" fill="#faa5b7" d="M 13.5,5.5 C 14.4927,9.64949 16.1593,13.4828 18.5,17C 18.1667,17.3333 17.8333,17.6667 17.5,18C 19.0163,19.897 19.683,22.0637 19.5,24.5C 20.675,24.281 21.675,24.6143 22.5,25.5C 23.6005,27.6416 24.6005,29.8083 25.5,32C 25.2716,32.3988 24.9382,32.5654 24.5,32.5C 21.5,30.1667 18.8333,27.5 16.5,24.5C 15.3044,19.1494 13.3044,13.8161 10.5,8.5C 11.1667,7.16667 12.1667,6.16667 13.5,5.5 Z"/></g>
<g><path style="opacity:1" fill="#fbabae" d="M 10.5,8.5 C 13.3044,13.8161 15.3044,19.1494 16.5,24.5C 14.5887,25.075 12.922,26.075 11.5,27.5C 9.67723,22.6796 7.67723,18.0129 5.5,13.5C 6.83333,11.5 8.5,9.83333 10.5,8.5 Z"/></g>
<g><path style="opacity:1" fill="#f7b19e" d="M 5.5,13.5 C 7.67723,18.0129 9.67723,22.6796 11.5,27.5C 12.5,28.8333 13.5,30.1667 14.5,31.5C 13.4017,32.6009 13.235,33.9343 14,35.5C 16.7012,42.8615 19.8678,50.3615 23.5,58C 23.0338,59.2988 23.0338,60.7988 23.5,62.5C 21.0846,61.6948 18.7513,60.6948 16.5,59.5C 14.7129,53.0313 12.0462,46.5313 8.5,40C 9.45805,38.8525 9.12472,37.8525 7.5,37C 7.83333,36.6667 8.16667,36.3333 8.5,36C 6.50292,33.5084 5.50292,30.675 5.5,27.5C 4.12656,27.6567 2.79323,27.49 1.5,27C 2.88254,25.5391 2.54921,24.7058 0.5,24.5C 1.38237,20.4069 3.04904,16.7403 5.5,13.5 Z"/></g>
<g><path style="opacity:1" fill="#3d3738" d="M 31.5,28.5 C 29.4131,27.4154 28.0798,25.7488 27.5,23.5C 28.8149,22.5244 30.1482,21.5244 31.5,20.5C 36.8068,23.2064 36.8068,25.8731 31.5,28.5 Z"/></g>
<g><path style="opacity:1" fill="#f7b694" d="M 0.5,24.5 C 2.54921,24.7058 2.88254,25.5391 1.5,27C 2.79323,27.49 4.12656,27.6567 5.5,27.5C 5.50292,30.675 6.50292,33.5084 8.5,36C 8.16667,36.3333 7.83333,36.6667 7.5,37C 9.12472,37.8525 9.45805,38.8525 8.5,40C 12.0462,46.5313 14.7129,53.0313 16.5,59.5C 6.86972,54.2172 1.20305,46.2172 -0.5,35.5C -0.5,32.8333 -0.5,30.1667 -0.5,27.5C 0.403972,26.791 0.737305,25.791 0.5,24.5 Z"/></g>
<g><path style="opacity:1" fill="#383536" d="M 16.5,24.5 C 18.8333,27.5 21.5,30.1667 24.5,32.5C 27.3036,37.4315 30.9703,38.4315 35.5,35.5C 39.4799,31.8553 43.4799,28.1886 47.5,24.5C 48.9814,25.4803 50.3147,26.647 51.5,28C 46.595,33.4099 41.2617,38.2432 35.5,42.5C 33.283,43.3686 30.9496,43.702 28.5,43.5C 27.0351,42.2632 25.3684,41.2632 23.5,40.5C 20.8333,37.1667 17.8333,34.1667 14.5,31.5C 13.5,30.1667 12.5,28.8333 11.5,27.5C 12.922,26.075 14.5887,25.075 16.5,24.5 Z"/></g>
<g><path style="opacity:1" fill="#f9abab" d="M 14.5,31.5 C 17.8333,34.1667 20.8333,37.1667 23.5,40.5C 22.9569,40.56 22.6236,40.8933 22.5,41.5C 23.772,44.3819 25.1053,47.2152 26.5,50C 26.1667,50.3333 25.8333,50.6667 25.5,51C 26.6822,55.2107 28.6822,59.3774 31.5,63.5C 29.8333,63.5 28.1667,63.5 26.5,63.5C 25.791,62.596 24.791,62.2627 23.5,62.5C 23.0338,60.7988 23.0338,59.2988 23.5,58C 19.8678,50.3615 16.7012,42.8615 14,35.5C 13.235,33.9343 13.4017,32.6009 14.5,31.5 Z"/></g>
<g><path style="opacity:1" fill="#050304" d="M -0.5,35.5 C 1.20305,46.2172 6.86972,54.2172 16.5,59.5C 18.7513,60.6948 21.0846,61.6948 23.5,62.5C 24.791,62.2627 25.791,62.596 26.5,63.5C 17.5,63.5 8.5,63.5 -0.5,63.5C -0.5,54.1667 -0.5,44.8333 -0.5,35.5 Z"/></g>
<g><path style="opacity:1" fill="#050304" d="M 63.5,35.5 C 63.5,44.8333 63.5,54.1667 63.5,63.5C 54.5,63.5 45.5,63.5 36.5,63.5C 36.5,63.1667 36.5,62.8333 36.5,62.5C 38.099,62.7678 39.4324,62.4345 40.5,61.5C 53.1523,57.1843 60.819,48.5177 63.5,35.5 Z"/></g>
<g><path style="opacity:1" fill="#f8a5b5" d="M 23.5,40.5 C 25.3684,41.2632 27.0351,42.2632 28.5,43.5C 29.1616,49.8978 31.1616,55.3978 34.5,60C 33.5881,61.6255 34.2547,62.4588 36.5,62.5C 36.5,62.8333 36.5,63.1667 36.5,63.5C 34.8333,63.5 33.1667,63.5 31.5,63.5C 28.6822,59.3774 26.6822,55.2107 25.5,51C 25.8333,50.6667 26.1667,50.3333 26.5,50C 25.1053,47.2152 23.772,44.3819 22.5,41.5C 22.6236,40.8933 22.9569,40.56 23.5,40.5 Z"/></g>
<g><path style="opacity:1" fill="#fca0c3" d="M 35.5,42.5 C 35.3928,47.4913 36.7261,51.9913 39.5,56C 39.1667,56.3333 38.8333,56.6667 38.5,57C 39.5822,58.3297 40.2488,59.8297 40.5,61.5C 39.4324,62.4345 38.099,62.7678 36.5,62.5C 34.2547,62.4588 33.5881,61.6255 34.5,60C 31.1616,55.3978 29.1616,49.8978 28.5,43.5C 30.9496,43.702 33.283,43.3686 35.5,42.5 Z"/></g>
</svg>
