<?xml version="1.0" encoding="UTF-8"?>
<!DOCTYPE svg PUBLIC "-//W3C//DTD SVG 1.1//EN" "http://www.w3.org/Graphics/SVG/1.1/DTD/svg11.dtd">
<svg xmlns="http://www.w3.org/2000/svg" version="1.1" width="64px" height="64px" style="shape-rendering:geometricPrecision; text-rendering:geometricPrecision; image-rendering:optimizeQuality; fill-rule:evenodd; clip-rule:evenodd" xmlns:xlink="http://www.w3.org/1999/xlink">
<g><path style="opacity:0.935" fill="#000000" d="M 26.5,-0.5 C 29.8333,-0.5 33.1667,-0.5 36.5,-0.5C 50.7188,2.71834 59.7188,11.385 63.5,25.5C 63.5,29.1667 63.5,32.8333 63.5,36.5C 61.8333,36.5 60.1667,36.5 58.5,36.5C 59.7445,20.9222 53.0778,10.4222 38.5,5C 18.2367,2.61028 6.90338,11.4436 4.5,31.5C 4.87319,45.0447 11.5399,53.878 24.5,58C 32.5,58.3333 40.5,58.6667 48.5,59C 45.1847,60.8298 41.8514,62.3298 38.5,63.5C 34.1667,63.5 29.8333,63.5 25.5,63.5C 11.8333,59.8333 3.16667,51.1667 -0.5,37.5C -0.5,33.5 -0.5,29.5 -0.5,25.5C 3.28121,11.385 12.2812,2.71834 26.5,-0.5 Z"/></g>
<g><path style="opacity:0.935" fill="#000000" d="M 27.5,8.5 C 45.9827,8.64988 54.9827,17.9832 54.5,36.5C 52.8333,36.5 51.1667,36.5 49.5,36.5C 50.1876,20.3535 42.521,12.8535 26.5,14C 12.6074,20.9345 9.77408,31.1012 18,44.5C 20.2513,46.3773 22.7513,47.8773 25.5,49C 36.1822,49.1676 46.8489,49.6676 57.5,50.5C 56.6872,51.8139 55.6872,52.9805 54.5,54C 45.1667,54.6667 35.8333,54.6667 26.5,54C 11.5412,49.0232 6.04119,38.8566 10,23.5C 13.2818,15.3755 19.1151,10.3755 27.5,8.5 Z"/></g>
<g><path style="opacity:0.97" fill="#000000" d="M 28.5,17.5 C 40.6513,17.6431 45.9846,23.6431 44.5,35.5C 39.8826,37.5223 38.5493,36.3557 40.5,32C 39.6371,24.8026 35.6371,21.8026 28.5,23C 20.9209,28.1667 20.5876,33.8333 27.5,40C 39.1667,40.3333 50.8333,40.6667 62.5,41C 61.8095,42.0674 61.3095,43.2341 61,44.5C 50.2433,45.6529 39.41,45.8196 28.5,45C 17.6007,40.302 15.1007,32.802 21,22.5C 23.4256,20.5476 25.9256,18.881 28.5,17.5 Z"/></g>
</svg>
