<?xml version="1.0" encoding="UTF-8"?>
<!DOCTYPE svg PUBLIC "-//W3C//DTD SVG 1.1//EN" "http://www.w3.org/Graphics/SVG/1.1/DTD/svg11.dtd">
<svg xmlns="http://www.w3.org/2000/svg" version="1.1" width="64px" height="64px" style="shape-rendering:geometricPrecision; text-rendering:geometricPrecision; image-rendering:optimizeQuality; fill-rule:evenodd; clip-rule:evenodd" xmlns:xlink="http://www.w3.org/1999/xlink">
<g><path style="opacity:0.667" fill="#4aa6ff" d="M 43.5,15.5 C 41.5336,14.5588 39.5336,13.5588 37.5,12.5C 36.8165,12.8627 36.1499,13.1961 35.5,13.5C 31.5115,13.1164 27.8448,13.783 24.5,15.5C 23.8333,15.5 23.5,15.8333 23.5,16.5C 22.5326,15.1938 21.1993,14.5271 19.5,14.5C 18.5,13.8333 17.5,13.1667 16.5,12.5C 15.9326,11.5798 16.5992,11.2465 18.5,11.5C 19.4584,11.9528 20.2917,12.6195 21,13.5C 29.158,7.78132 36.658,8.44799 43.5,15.5 Z"/></g>
<g><path style="opacity:0.012" fill="#5b9fff" d="M 13.5,30.5 C 12.346,24.013 12.1794,17.3464 13,10.5C 13.4996,17.1583 13.6663,23.825 13.5,30.5 Z"/></g>
<g><path style="opacity:0.266" fill="#49a3ff" d="M 18.5,11.5 C 16.5992,11.2465 15.9326,11.5798 16.5,12.5C 16.5,12.8333 16.5,13.1667 16.5,13.5C 15.5111,18.9753 15.1778,24.642 15.5,30.5C 15.1667,30.5 14.8333,30.5 14.5,30.5C 14.3337,23.825 14.5004,17.1583 15,10.5C 16.5788,9.20035 17.7455,9.53368 18.5,11.5 Z"/></g>
<g><path style="opacity:0.306" fill="#4dadff" d="M 43.5,15.5 C 44.397,16.5981 45.2303,16.5981 46,15.5C 47.5458,16.5029 47.7125,17.5029 46.5,18.5C 46.5,17.8333 46.1667,17.5 45.5,17.5C 44.6618,17.8417 44.3284,18.5084 44.5,19.5C 44.1667,19.5 43.8333,19.5 43.5,19.5C 43.1667,19.5 42.8333,19.5 42.5,19.5C 40.7315,16.7234 38.3982,14.7234 35.5,13.5C 36.1499,13.1961 36.8165,12.8627 37.5,12.5C 39.5336,13.5588 41.5336,14.5588 43.5,15.5 Z"/></g>
<g><path style="opacity:0.982" fill="#48a5ff" d="M 19.5,14.5 C 21.1993,14.5271 22.5326,15.1938 23.5,16.5C 23.8333,16.5 24.1667,16.5 24.5,16.5C 24.5,17.1667 24.8333,17.5 25.5,17.5C 26.1667,18.5 26.8333,19.5 27.5,20.5C 28.038,22.1172 28.3713,23.7839 28.5,25.5C 26.1667,23.5 23.8333,21.5 21.5,19.5C 21.5,18.8333 21.1667,18.5 20.5,18.5C 20.5,17.8333 20.1667,17.5 19.5,17.5C 19.5,17.1667 19.5,16.8333 19.5,16.5C 19.5,15.8333 19.5,15.1667 19.5,14.5 Z"/></g>
<g><path style="opacity:0.914" fill="#47a2ff" d="M 16.5,12.5 C 17.5,13.1667 18.5,13.8333 19.5,14.5C 19.5,15.1667 19.5,15.8333 19.5,16.5C 18.8333,16.5 18.5,16.8333 18.5,17.5C 17.6773,20.977 17.1773,24.6437 17,28.5C 16.5007,23.5111 16.3341,18.5111 16.5,13.5C 16.5,13.1667 16.5,12.8333 16.5,12.5 Z"/></g>
<g><path style="opacity:0.008" fill="#7bc8ff" d="M 24.5,16.5 C 24.5,16.1667 24.5,15.8333 24.5,15.5C 27.8531,15.3453 28.1864,16.0119 25.5,17.5C 24.8333,17.5 24.5,17.1667 24.5,16.5 Z"/></g>
<g><path style="opacity:0.607" fill="#4ba8ff" d="M 45.5,17.5 C 46.1667,17.5 46.5,17.8333 46.5,18.5C 46.9707,20.5786 47.6373,22.5786 48.5,24.5C 47.5,24.5 46.5,24.5 45.5,24.5C 45.3713,22.7839 45.038,21.1172 44.5,19.5C 44.3284,18.5084 44.6618,17.8417 45.5,17.5 Z"/></g>
<g><path style="opacity:0.996" fill="#47abff" d="M 27.5,20.5 C 29.1288,21.6253 30.6288,22.9586 32,24.5C 32.3333,24.1667 32.6667,23.8333 33,23.5C 34.7073,25.0375 36.2073,26.7041 37.5,28.5C 37.5654,28.9382 37.3988,29.2716 37,29.5C 35.6288,27.9586 34.1288,26.6253 32.5,25.5C 31.1667,25.5 30.5,26.1667 30.5,27.5C 29.5,27.1667 28.8333,26.5 28.5,25.5C 28.3713,23.7839 28.038,22.1172 27.5,20.5 Z"/></g>
<g><path style="opacity:0.894" fill="#46a4ff" d="M 45.5,24.5 C 46.5,24.5 47.5,24.5 48.5,24.5C 48.5,30.5 48.5,36.5 48.5,42.5C 46.2054,41.8645 44.5387,40.5311 43.5,38.5C 43.5,38.1667 43.5,37.8333 43.5,37.5C 44.8333,37.1667 44.8333,36.8333 43.5,36.5C 43.5,36.1667 43.5,35.8333 43.5,35.5C 43.8333,35.5 44.1667,35.5 44.5,35.5C 45.4816,32.0381 45.815,28.3714 45.5,24.5 Z"/></g>
<g><path style="opacity:0.008" fill="#6d7aff" d="M 42.5,19.5 C 42.3284,20.4916 42.6618,21.1583 43.5,21.5C 43.5,21.8333 43.5,22.1667 43.5,22.5C 43.5,26.1667 43.5,29.8333 43.5,33.5C 42.8333,33.5 42.5,33.1667 42.5,32.5C 42.2552,27.9435 42.2552,23.6102 42.5,19.5 Z"/></g>
<g><path style="opacity:0.008" fill="#7c84ff" d="M 49.5,42.5 C 49.3338,36.1579 49.5005,29.8246 50,23.5C 50.82,30.0137 50.6533,36.3471 49.5,42.5 Z"/></g>
<g><path style="opacity:0.145" fill="#459eff" d="M 43.5,19.5 C 43.8333,19.5 44.1667,19.5 44.5,19.5C 45.038,21.1172 45.3713,22.7839 45.5,24.5C 45.815,28.3714 45.4816,32.0381 44.5,35.5C 44.8182,30.9677 44.4849,26.6344 43.5,22.5C 43.5,22.1667 43.5,21.8333 43.5,21.5C 43.5,20.8333 43.5,20.1667 43.5,19.5 Z"/></g>
<g><path style="opacity:0.012" fill="#5999ff" d="M 32.5,25.5 C 34.1288,26.6253 35.6288,27.9586 37,29.5C 37.3988,29.2716 37.5654,28.9382 37.5,28.5C 39.1667,29.8333 40.8333,31.1667 42.5,32.5C 42.5,33.1667 42.8333,33.5 43.5,33.5C 43.5,34.1667 43.5,34.8333 43.5,35.5C 43.1667,35.5 42.8333,35.5 42.5,35.5C 42.5,34.8333 42.1667,34.5 41.5,34.5C 41.5,33.8333 41.1667,33.5 40.5,33.5C 36.8116,31.8116 34.1449,29.145 32.5,25.5 Z"/></g>
<g><path style="opacity:0.765" fill="#4cb1ff" d="M 16.5,13.5 C 16.3341,18.5111 16.5007,23.5111 17,28.5C 17.1773,24.6437 17.6773,20.977 18.5,17.5C 18.8333,17.5 19.1667,17.5 19.5,17.5C 20.1667,17.5 20.5,17.8333 20.5,18.5C 21.1667,18.5 21.5,18.8333 21.5,19.5C 20.024,24.9342 20.3573,30.2675 22.5,35.5C 22.1667,35.5 21.8333,35.5 21.5,35.5C 21.1667,34.1667 20.8333,34.1667 20.5,35.5C 20.5569,36.609 20.8902,37.609 21.5,38.5C 19.8612,38.9258 18.5279,38.9258 17.5,38.5C 15.7497,37.3406 14.7497,35.674 14.5,33.5C 15.404,32.791 15.7373,31.791 15.5,30.5C 15.1778,24.642 15.5111,18.9753 16.5,13.5 Z"/></g>
<g><path style="opacity:0.016" fill="#43c9ff" d="M 13.5,30.5 C 13.8333,30.5 14.1667,30.5 14.5,30.5C 14.5,31.5 14.5,32.5 14.5,33.5C 13.596,32.791 13.2627,31.791 13.5,30.5 Z"/></g>
<g><path style="opacity:1" fill="#4aa8ff" d="M 32.5,25.5 C 34.1449,29.145 36.8116,31.8116 40.5,33.5C 41.1667,33.5 41.5,33.8333 41.5,34.5C 42.1667,34.5 42.5,34.8333 42.5,35.5C 42.5,36.1667 42.8333,36.5 43.5,36.5C 43.5,36.8333 43.5,37.1667 43.5,37.5C 43.5,37.8333 43.5,38.1667 43.5,38.5C 42.3951,37.3995 41.0618,36.7329 39.5,36.5C 39.1667,36.5 38.8333,36.5 38.5,36.5C 38.5,35.8333 38.1667,35.5 37.5,35.5C 35.1667,32.8333 32.8333,30.1667 30.5,27.5C 30.5,26.1667 31.1667,25.5 32.5,25.5 Z"/></g>
<g><path style="opacity:0.004" fill="#5881ff" d="M 37.5,35.5 C 38.1667,35.5 38.5,35.8333 38.5,36.5C 38.5,36.8333 38.5,37.1667 38.5,37.5C 37.8333,37.5 37.5,37.8333 37.5,38.5C 36.1266,38.6567 34.7932,38.49 33.5,38C 35.133,37.5204 36.4664,36.6871 37.5,35.5 Z"/></g>
<g><path style="opacity:0.879" fill="#50a6ff" d="M 39.5,36.5 C 41.0618,36.7329 42.3951,37.3995 43.5,38.5C 44.5387,40.5311 46.2054,41.8645 48.5,42.5C 48.8333,42.5 49.1667,42.5 49.5,42.5C 49.5,43.1667 49.5,43.8333 49.5,44.5C 49.1667,44.5 48.8333,44.5 48.5,44.5C 48.5,43.8333 48.1667,43.5 47.5,43.5C 46.8333,43.5 46.1667,43.5 45.5,43.5C 44.3559,42.8174 44.3559,43.1507 45.5,44.5C 45.5,46.1667 45.5,47.8333 45.5,49.5C 45.1667,49.5 44.8333,49.5 44.5,49.5C 44.1667,44.1667 43.8333,44.1667 43.5,49.5C 42.193,47.7768 42.193,45.9435 43.5,44C 42.7562,42.9614 41.7562,42.4614 40.5,42.5C 40.5,42.1667 40.5,41.8333 40.5,41.5C 41.8333,41.1667 41.8333,40.8333 40.5,40.5C 39.7611,40.631 39.0944,40.4643 38.5,40C 39.2524,39.3292 39.5858,38.4959 39.5,37.5C 39.5,37.1667 39.5,36.8333 39.5,36.5 Z"/></g>
<g><path style="opacity:0.617" fill="#4ea3ff" d="M 17.5,38.5 C 18.5279,38.9258 19.8612,38.9258 21.5,38.5C 23.3716,39.5114 25.3716,40.3448 27.5,41C 26.552,41.4828 25.552,41.6495 24.5,41.5C 23.391,41.4431 22.391,41.1098 21.5,40.5C 20.8333,39.1667 20.1667,39.1667 19.5,40.5C 19.1667,40.5 18.8333,40.5 18.5,40.5C 17.8333,40.5 17.1667,40.5 16.5,40.5C 16.1583,39.6618 15.4916,39.3284 14.5,39.5C 14.4524,38.4929 15.4524,38.1596 17.5,38.5 Z"/></g>
<g><path style="opacity:0.995" fill="#4baaff" d="M 14.5,39.5 C 15.4916,39.3284 16.1583,39.6618 16.5,40.5C 16.7947,42.7354 16.4614,44.7354 15.5,46.5C 15.1667,46.5 14.8333,46.5 14.5,46.5C 14.5,44.1667 14.5,41.8333 14.5,39.5 Z"/></g>
<g><path style="opacity:0.908" fill="#48b7ff" d="M 16.5,40.5 C 17.1667,40.5 17.8333,40.5 18.5,40.5C 18.8333,47.1667 19.1667,47.1667 19.5,40.5C 20.1667,40.5 20.8333,40.5 21.5,40.5C 20.8153,42.4144 20.3153,44.4144 20,46.5C 18.522,46.7898 17.022,46.7898 15.5,46.5C 16.4614,44.7354 16.7947,42.7354 16.5,40.5 Z"/></g>
<g><path style="opacity:0.564" fill="#4ba4ff" d="M 20.5,35.5 C 20.8333,35.5 21.1667,35.5 21.5,35.5C 21.8333,36.8333 22.1667,36.8333 22.5,35.5C 23.7562,35.4614 24.7562,35.9614 25.5,37C 24.1667,37.6667 24.1667,38.3333 25.5,39C 29.6957,40.9798 33.6957,40.8132 37.5,38.5C 38.1667,38.5 38.5,38.1667 38.5,37.5C 38.8333,37.5 39.1667,37.5 39.5,37.5C 39.5858,38.4959 39.2524,39.3292 38.5,40C 39.0944,40.4643 39.7611,40.631 40.5,40.5C 40.5,40.8333 40.5,41.1667 40.5,41.5C 39.5084,41.3284 38.8417,41.6618 38.5,42.5C 37.5084,42.3284 36.8417,42.6618 36.5,43.5C 33.1501,43.665 29.8168,43.4983 26.5,43C 25.5842,42.7216 24.9175,42.2216 24.5,41.5C 25.552,41.6495 26.552,41.4828 27.5,41C 25.3716,40.3448 23.3716,39.5114 21.5,38.5C 20.8902,37.609 20.5569,36.609 20.5,35.5 Z"/></g>
<g><path style="opacity:0.008" fill="#7f7fff" d="M 38.5,43.5 C 38.5,43.1667 38.5,42.8333 38.5,42.5C 39.1667,42.5 39.8333,42.5 40.5,42.5C 40.1583,43.3382 39.4916,43.6716 38.5,43.5 Z"/></g>
<g><path style="opacity:0.008" fill="#74e2ff" d="M 36.5,44.5 C 36.5,44.1667 36.5,43.8333 36.5,43.5C 37.1667,43.5 37.8333,43.5 38.5,43.5C 38.1583,44.3382 37.4916,44.6716 36.5,44.5 Z"/></g>
<g><path style="opacity:0.924" fill="#4ca2ff" d="M 45.5,43.5 C 46.1667,43.5 46.8333,43.5 47.5,43.5C 48.1667,43.5 48.5,43.8333 48.5,44.5C 48.8333,51.1667 49.1667,51.1667 49.5,44.5C 50.4614,46.2646 50.7947,48.2646 50.5,50.5C 48.5853,50.7845 46.9187,50.4511 45.5,49.5C 45.5,47.8333 45.5,46.1667 45.5,44.5C 45.5,44.1667 45.5,43.8333 45.5,43.5 Z"/></g>
<g><path style="opacity:0.004" fill="#0000ff" d="M 14.5,46.5 C 13.8333,47.1667 13.8333,47.1667 14.5,46.5 Z"/></g>
<g><path style="opacity:0.576" fill="#579bff" d="M 36.5,44.5 C 35.7724,47.0795 35.2724,49.7462 35,52.5C 33.1109,53.0894 31.1109,53.4227 29,53.5C 27.8926,50.7748 27.0592,47.9415 26.5,45C 29.8168,44.5017 33.1501,44.335 36.5,44.5 Z"/></g>
<g><path style="opacity:0.008" fill="#748dff" d="M 15.5,49.5 C 15.8966,48.475 16.5632,48.3083 17.5,49C 16.9056,49.4643 16.2389,49.631 15.5,49.5 Z"/></g>
<g><path style="opacity:0.008" fill="#007eff" d="M 43.5,49.5 C 43.8333,49.5 44.1667,49.5 44.5,49.5C 44.3147,50.1701 43.9813,50.1701 43.5,49.5 Z"/></g>
<g><path style="opacity:0.012" fill="#5588ff" d="M 45.5,52.5 C 46.2506,51.4265 47.2506,51.2599 48.5,52C 47.552,52.4828 46.552,52.6495 45.5,52.5 Z"/></g>
<g><path style="opacity:0.004" fill="#00fffe" d="M 30.5,55.5 C 30.8966,54.475 31.5632,54.3083 32.5,55C 31.9056,55.4643 31.2389,55.631 30.5,55.5 Z"/></g>
</svg>
