<?xml version="1.0" encoding="UTF-8"?>
<!DOCTYPE svg PUBLIC "-//W3C//DTD SVG 1.1//EN" "http://www.w3.org/Graphics/SVG/1.1/DTD/svg11.dtd">
<svg xmlns="http://www.w3.org/2000/svg" version="1.1" width="64px" height="64px" style="shape-rendering:geometricPrecision; text-rendering:geometricPrecision; image-rendering:optimizeQuality; fill-rule:evenodd; clip-rule:evenodd" xmlns:xlink="http://www.w3.org/1999/xlink">
<g><path style="opacity:1" fill="#fefbfb" d="M -0.5,-0.5 C 8.16667,-0.5 16.8333,-0.5 25.5,-0.5C 17.1247,1.78118 10.2914,6.44785 5,13.5C 2.8381,17.4813 1.00477,21.4813 -0.5,25.5C -0.5,16.8333 -0.5,8.16667 -0.5,-0.5 Z"/></g>
<g><path style="opacity:1" fill="#fc0721" d="M 25.5,-0.5 C 29.5,-0.5 33.5,-0.5 37.5,-0.5C 45.9098,1.79344 52.7432,6.46011 58,13.5C 60.1619,17.4813 61.9952,21.4813 63.5,25.5C 63.5,29.5 63.5,33.5 63.5,37.5C 61.2066,45.9098 56.5399,52.7432 49.5,58C 45.5187,60.1619 41.5187,61.9952 37.5,63.5C 33.5,63.5 29.5,63.5 25.5,63.5C 17.0902,61.2066 10.2568,56.5399 5,49.5C 2.8381,45.5187 1.00477,41.5187 -0.5,37.5C -0.5,33.5 -0.5,29.5 -0.5,25.5C 1.00477,21.4813 2.8381,17.4813 5,13.5C 10.2914,6.44785 17.1247,1.78118 25.5,-0.5 Z"/></g>
<g><path style="opacity:1" fill="#fefafb" d="M 37.5,-0.5 C 46.1667,-0.5 54.8333,-0.5 63.5,-0.5C 63.5,8.16667 63.5,16.8333 63.5,25.5C 61.9952,21.4813 60.1619,17.4813 58,13.5C 52.7432,6.46011 45.9098,1.79344 37.5,-0.5 Z"/></g>
<g><path style="opacity:1" fill="#fdfafa" d="M 35.5,23.5 C 39.1817,23.3347 42.8484,23.5014 46.5,24C 49.1295,27.1994 48.7961,30.1994 45.5,33C 42.854,33.4974 40.1873,33.6641 37.5,33.5C 38.1518,37.5601 36.4851,39.5601 32.5,39.5C 33.2436,34.1154 34.2436,28.782 35.5,23.5 Z"/></g>
<g><path style="opacity:1" fill="#fdf8f8" d="M 22.5,22.5 C 31.4816,22.7951 33.9816,27.1284 30,35.5C 26.7355,39.3281 22.5689,40.4947 17.5,39C 14.9579,33.9877 15.4579,29.1543 19,24.5C 20.3024,23.9152 21.469,23.2485 22.5,22.5 Z"/></g>
<g><path style="opacity:1" fill="#f60d24" d="M 22.5,26.5 C 24.6648,26.1159 26.3315,26.7826 27.5,28.5C 26.8195,30.8889 25.9862,33.2222 25,35.5C 23.6439,36.3802 22.1439,36.7135 20.5,36.5C 20.1524,32.9153 20.819,29.582 22.5,26.5 Z"/></g>
<g><path style="opacity:1" fill="#f80f23" d="M 39.5,26.5 C 40.8333,26.5 42.1667,26.5 43.5,26.5C 43.5,27.8333 43.5,29.1667 43.5,30.5C 39.5089,31.128 38.1755,29.7947 39.5,26.5 Z"/></g>
<g><path style="opacity:1" fill="#fefafb" d="M -0.5,37.5 C 1.00477,41.5187 2.8381,45.5187 5,49.5C 10.2568,56.5399 17.0902,61.2066 25.5,63.5C 16.8333,63.5 8.16667,63.5 -0.5,63.5C -0.5,54.8333 -0.5,46.1667 -0.5,37.5 Z"/></g>
<g><path style="opacity:1" fill="#fefafb" d="M 63.5,37.5 C 63.5,46.1667 63.5,54.8333 63.5,63.5C 54.8333,63.5 46.1667,63.5 37.5,63.5C 41.5187,61.9952 45.5187,60.1619 49.5,58C 56.5399,52.7432 61.2066,45.9098 63.5,37.5 Z"/></g>
</svg>
