<!-- by TradingView --><svg width="56" height="56" viewBox="0 0 56 56" xmlns="http://www.w3.org/2000/svg"><path fill="url(#aranlnmuh)" d="M0 0h56v56H0z"/><path d="M17.96 18c4.79 0 7.8 3.1 8.7 4.64l-7.14 1.54 1.98-1.54c-4.53-3.23-10.5.85-10.5 5.1 0 3.41 2.84 5.62 4.12 6.3-3.86-.54-6.42-3.16-6.68-4a8.06 8.06 0 0 1-.44-2.3C8 22.96 11.97 18 17.96 18Z" fill="url(#branlnmuh)"/><path d="M38.04 38c-4.79 0-7.8-3.1-8.7-4.64l7.14-1.54-1.98 1.54c4.53 3.23 10.5-.85 10.5-5.1 0-3.41-2.84-5.62-4.12-6.3 3.86.54 6.42 3.16 6.68 4 .21.68.44 1.51.44 2.3 0 4.79-3.97 9.74-9.96 9.74Z" fill="url(#cranlnmuh)"/><path d="M15.57 34.43a8.7 8.7 0 0 1-7.2-3.6c.55 3.4 4.5 7.17 9.71 7.17 4.18 0 7.82-3.65 9.12-5.48l5.14-7.59c.96-1.17 3.71-3.51 6.96-3.51s7.15 2.34 8.7 3.51c-.66-2.29-3.33-6.86-8.7-6.86-5.37 0-9.03 3.8-10.2 5.7-1.95 2.64-6.03 8.11-6.77 8.75-.92.8-1.8 1.91-6.76 1.91Z" fill="url(#dranlnmuh)"/><defs><linearGradient id="aranlnmuh" x1="10.42" y1="9.71" x2="68.15" y2="76.02" gradientUnits="userSpaceOnUse"><stop stop-color="#1A1E21"/><stop offset="1" stop-color="#06060A"/></linearGradient><linearGradient id="branlnmuh" x1="23.57" y1="19.39" x2="17.22" y2="33.98" gradientUnits="userSpaceOnUse"><stop stop-color="#68D869"/><stop offset=".8" stop-color="#C6F88A"/></linearGradient><linearGradient id="cranlnmuh" x1="38.67" y1="38" x2="48.13" y2="25.69" gradientUnits="userSpaceOnUse"><stop stop-color="#1CD7CA"/><stop offset=".39" stop-color="#1BB8CA"/><stop offset="1" stop-color="#1CD7CA"/></linearGradient><linearGradient id="dranlnmuh" x1="8.36" y1="38" x2="43.2" y2="7.37" gradientUnits="userSpaceOnUse"><stop stop-color="#ADF160"/><stop offset=".65" stop-color="#17B6D7"/><stop offset=".92" stop-color="#0061A0"/></linearGradient></defs></svg>