<?xml version="1.0" encoding="UTF-8"?>
<!DOCTYPE svg PUBLIC "-//W3C//DTD SVG 1.1//EN" "http://www.w3.org/Graphics/SVG/1.1/DTD/svg11.dtd">
<svg xmlns="http://www.w3.org/2000/svg" version="1.1" width="64px" height="64px" style="shape-rendering:geometricPrecision; text-rendering:geometricPrecision; image-rendering:optimizeQuality; fill-rule:evenodd; clip-rule:evenodd" xmlns:xlink="http://www.w3.org/1999/xlink">
<g><path style="opacity:1" fill="#000000" d="M -0.5,-0.5 C 20.8333,-0.5 42.1667,-0.5 63.5,-0.5C 63.5,20.8333 63.5,42.1667 63.5,63.5C 42.1667,63.5 20.8333,63.5 -0.5,63.5C -0.5,42.1667 -0.5,20.8333 -0.5,-0.5 Z"/></g>
<g><path style="opacity:1" fill="#fefefe" d="M 22.5,16.5 C 24.8333,16.5 27.1667,16.5 29.5,16.5C 29.5,17.8333 29.5,19.1667 29.5,20.5C 27.1667,20.5 24.8333,20.5 22.5,20.5C 21.1667,27.8333 21.1667,35.1667 22.5,42.5C 24.8333,42.5 27.1667,42.5 29.5,42.5C 29.5,43.8333 29.5,45.1667 29.5,46.5C 26.059,46.6989 22.7256,46.1989 19.5,45C 18.8742,44.2496 18.3742,43.4162 18,42.5C 17.834,38.6695 17.0007,35.0028 15.5,31.5C 17.0007,27.9972 17.834,24.3305 18,20.5C 18.9066,18.3909 20.4066,17.0576 22.5,16.5 Z"/></g>
<g><path style="opacity:1" fill="#fefefe" d="M 33.5,16.5 C 37.2154,16.1961 40.7154,16.8627 44,18.5C 44.8494,22.9022 46.016,27.2355 47.5,31.5C 46.016,35.7645 44.8494,40.0978 44,44.5C 40.7154,46.1373 37.2154,46.8039 33.5,46.5C 33.5,45.1667 33.5,43.8333 33.5,42.5C 35.8333,42.5 38.1667,42.5 40.5,42.5C 41.8333,35.1667 41.8333,27.8333 40.5,20.5C 38.1667,20.5 35.8333,20.5 33.5,20.5C 33.5,19.1667 33.5,17.8333 33.5,16.5 Z"/></g>
<g><path style="opacity:1" fill="#fefefe" d="M 29.5,25.5 C 35.3296,25.1605 37.8296,27.8272 37,33.5C 33.3333,38.8333 29.6667,38.8333 26,33.5C 25.2793,29.9463 26.4459,27.2796 29.5,25.5 Z"/></g>
<g><path style="opacity:1" fill="#000000" d="M 29.5,28.5 C 34.1585,28.0146 35.4919,29.848 33.5,34C 28.7282,34.8104 27.3948,32.9771 29.5,28.5 Z"/></g>
</svg>
