<!-- by TradingView --><svg width="56" height="56" viewBox="0 0 56 56" xmlns="http://www.w3.org/2000/svg"><path fill="#F0F3FA" d="M0 0h56v56H0z"/><circle cx="28" cy="28" r="17" fill="url(#a)"/><circle cx="28" cy="28" r="16" fill="url(#b)"/><circle cx="28" cy="28" r="13" fill="url(#c)"/><circle cx="28" cy="28" r="12" fill="url(#d)"/><ellipse cx="23.28" cy="22.86" rx="1.02" ry="1.04" fill="#FCFCFC"/><ellipse cx="24.99" cy="21.65" rx="1.02" ry="1.04" fill="#FCFCFC"/><ellipse cx="26.89" cy="21.04" rx="1.02" ry="1.04" fill="#FCFCFC"/><ellipse cx="28.93" cy="21.04" rx="1.02" ry="1.04" fill="#FCFCFC"/><ellipse cx="30.83" cy="21.78" rx="1.02" ry="1.04" fill="#FCFCFC"/><ellipse cx="32.34" cy="22.86" rx="1.02" ry="1.04" fill="#FCFCFC"/><ellipse cx="33.52" cy="24.54" rx="1.02" ry="1.04" fill="#FCFCFC"/><ellipse cx="33.98" cy="26.63" rx="1.02" ry="1.04" fill="#FCFCFC"/><ellipse cx="33.98" cy="28.71" rx="1.02" ry="1.04" fill="#FCFCFC"/><ellipse cx="33.33" cy="30.59" rx="1.02" ry="1.04" fill="#FCFCFC"/><ellipse cx="32.27" cy="32.21" rx="1.02" ry="1.04" fill="#FCFCFC"/><ellipse cx="30.57" cy="33.28" rx="1.02" ry="1.04" fill="#FCFCFC"/><ellipse cx="28.73" cy="33.96" rx="1.02" ry="1.04" fill="#FCFCFC"/><ellipse cx="26.69" cy="33.96" rx="1.02" ry="1.04" fill="#FCFCFC"/><ellipse cx="24.66" cy="33.28" rx="1.02" ry="1.04" fill="#FCFCFC"/><ellipse cx="23.02" cy="32.07" rx="1.02" ry="1.04" fill="#FCFCFC"/><ellipse cx="24.92" cy="30.39" rx=".62" ry=".64" fill="#FCFCFC"/><ellipse cx="25.97" cy="31.13" rx=".62" ry=".64" fill="#FCFCFC"/><ellipse cx="27.09" cy="31.54" rx=".62" ry=".64" fill="#FCFCFC"/><ellipse cx="28.34" cy="31.47" rx=".62" ry=".64" fill="#FCFCFC"/><ellipse cx="29.52" cy="31.07" rx=".62" ry=".64" fill="#FCFCFC"/><ellipse cx="30.5" cy="30.39" rx=".62" ry=".64" fill="#FCFCFC"/><ellipse cx="31.29" cy="29.32" rx=".62" ry=".64" fill="#FCFCFC"/><ellipse cx="31.68" cy="28.17" rx=".62" ry=".64" fill="#FCFCFC"/><ellipse cx="31.62" cy="26.83" rx=".62" ry=".64" fill="#FCFCFC"/><ellipse cx="31.22" cy="25.55" rx=".62" ry=".64" fill="#FCFCFC"/><ellipse cx="30.5" cy="24.47" rx=".62" ry=".64" fill="#FCFCFC"/><ellipse cx="29.58" cy="23.73" rx=".62" ry=".64" fill="#FCFCFC"/><ellipse cx="28.4" cy="23.4" rx=".62" ry=".64" fill="#FCFCFC"/><ellipse cx="27.09" cy="23.33" rx=".62" ry=".64" fill="#FCFCFC"/><ellipse cx="25.91" cy="23.73" rx=".62" ry=".64" fill="#FCFCFC"/><ellipse cx="24.86" cy="24.61" rx=".62" ry=".64" fill="#FCFCFC"/><ellipse cx="25.98" cy="29.01" rx=".33" ry=".34" fill="#FCFCFC"/><ellipse cx="26.54" cy="29.4" rx=".33" ry=".34" fill="#FCFCFC"/><ellipse cx="27.13" cy="29.62" rx=".33" ry=".34" fill="#FCFCFC"/><ellipse cx="27.79" cy="29.58" rx=".33" ry=".34" fill="#FCFCFC"/><ellipse cx="28.42" cy="29.36" rx=".33" ry=".34" fill="#FCFCFC"/><ellipse cx="28.95" cy="29.01" rx=".33" ry=".34" fill="#FCFCFC"/><ellipse cx="29.36" cy="28.43" rx=".33" ry=".34" fill="#FCFCFC"/><ellipse cx="29.57" cy="27.83" rx=".33" ry=".34" fill="#FCFCFC"/><ellipse cx="29.54" cy="27.11" rx=".33" ry=".34" fill="#FCFCFC"/><ellipse cx="29.33" cy="26.43" rx=".33" ry=".34" fill="#FCFCFC"/><ellipse cx="28.95" cy="25.86" rx=".33" ry=".34" fill="#FCFCFC"/><ellipse cx="28.46" cy="25.46" rx=".33" ry=".34" fill="#FCFCFC"/><ellipse cx="27.83" cy="25.29" rx=".33" ry=".34" fill="#FCFCFC"/><ellipse cx="27.13" cy="25.25" rx=".33" ry=".34" fill="#FCFCFC"/><ellipse cx="26.5" cy="25.46" rx=".33" ry=".34" fill="#FCFCFC"/><ellipse cx="25.94" cy="25.93" rx=".33" ry=".34" fill="#FCFCFC"/><defs><linearGradient id="a" x1="45" y1="28" x2="11" y2="28" gradientUnits="userSpaceOnUse"><stop stop-color="#D246E8"/><stop offset="1" stop-color="#8F85ED"/></linearGradient><linearGradient id="b" x1="44" y1="28" x2="12" y2="28" gradientUnits="userSpaceOnUse"><stop stop-color="#D246E8"/><stop offset="1" stop-color="#7B72E1"/></linearGradient><linearGradient id="c" x1="17.53" y1="20.32" x2="38.44" y2="35.75" gradientUnits="userSpaceOnUse"><stop stop-color="#442E98"/><stop offset="1" stop-color="#DB59F1"/></linearGradient><linearGradient id="d" x1="21.7" y1="17.83" x2="35.9" y2="36.97" gradientUnits="userSpaceOnUse"><stop stop-color="#642FBD"/><stop offset="1" stop-color="#BA45D9"/></linearGradient></defs></svg>