<?xml version="1.0" encoding="UTF-8"?>
<!DOCTYPE svg PUBLIC "-//W3C//DTD SVG 1.1//EN" "http://www.w3.org/Graphics/SVG/1.1/DTD/svg11.dtd">
<svg xmlns="http://www.w3.org/2000/svg" version="1.1" width="64px" height="64px" style="shape-rendering:geometricPrecision; text-rendering:geometricPrecision; image-rendering:optimizeQuality; fill-rule:evenodd; clip-rule:evenodd" xmlns:xlink="http://www.w3.org/1999/xlink">
<g><path style="opacity:1" fill="#1a1510" d="M 12.5,0.5 C 12.5,0.166667 12.5,-0.166667 12.5,-0.5C 15.1667,-0.5 17.8333,-0.5 20.5,-0.5C 20.5,0.166667 20.5,0.833333 20.5,1.5C 18.5,1.16667 16.5,0.833333 14.5,0.5C 13.8333,0.5 13.1667,0.5 12.5,0.5 Z"/></g>
<g><path style="opacity:1" fill="#916f4c" d="M 38.5,-0.5 C 39.8333,-0.5 41.1667,-0.5 42.5,-0.5C 42.5,0.5 42.5,1.5 42.5,2.5C 41.609,1.89022 40.609,1.55688 39.5,1.5C 39.1667,0.833333 38.8333,0.166667 38.5,-0.5 Z"/></g>
<g><path style="opacity:1" fill="#3e271b" d="M 52.5,-0.5 C 53.5,-0.5 54.5,-0.5 55.5,-0.5C 55.4701,0.497222 55.9701,1.16389 57,1.5C 59.0989,0.713478 61.2655,0.380145 63.5,0.5C 63.5,0.833333 63.5,1.16667 63.5,1.5C 61.7839,1.62867 60.1172,1.962 58.5,2.5C 58.1667,2.5 57.8333,2.5 57.5,2.5C 55.8361,3.22308 54.1694,2.88974 52.5,1.5C 52.5,0.833333 52.5,0.166667 52.5,-0.5 Z"/></g>
<g><path style="opacity:1" fill="#1d1312" d="M 55.5,-0.5 C 58.1667,-0.5 60.8333,-0.5 63.5,-0.5C 63.5,-0.166667 63.5,0.166667 63.5,0.5C 61.2655,0.380145 59.0989,0.713478 57,1.5C 55.9701,1.16389 55.4701,0.497222 55.5,-0.5 Z"/></g>
<g><path style="opacity:1" fill="#1c100f" d="M -0.5,-0.5 C 3.83333,-0.5 8.16667,-0.5 12.5,-0.5C 12.5,-0.166667 12.5,0.166667 12.5,0.5C 8.67065,-0.0689576 5.33732,0.597709 2.5,2.5C 1.66175,2.84171 1.32842,3.50838 1.5,4.5C 0.833333,4.5 0.166667,4.5 -0.5,4.5C -0.5,2.83333 -0.5,1.16667 -0.5,-0.5 Z"/></g>
<g><path style="opacity:1" fill="#7e4c29" d="M 23.5,-0.5 C 25.1667,-0.5 26.8333,-0.5 28.5,-0.5C 28.5,0.166667 28.5,0.833333 28.5,1.5C 26.8333,1.5 25.1667,1.5 23.5,1.5C 23.5,0.833333 23.5,0.166667 23.5,-0.5 Z"/></g>
<g><path style="opacity:1" fill="#331914" d="M 35.5,-0.5 C 36.5,-0.5 37.5,-0.5 38.5,-0.5C 38.8333,0.166667 39.1667,0.833333 39.5,1.5C 37.0065,1.13068 36.3398,1.79734 37.5,3.5C 36.1266,3.65668 34.7932,3.49001 33.5,3C 34.305,1.88732 34.9717,0.72065 35.5,-0.5 Z"/></g>
<g><path style="opacity:1" fill="#85522a" d="M 44.5,-0.5 C 46.5,-0.5 48.5,-0.5 50.5,-0.5C 50.5,0.166667 50.5,0.833333 50.5,1.5C 48.5,1.5 46.5,1.5 44.5,1.5C 44.5,0.833333 44.5,0.166667 44.5,-0.5 Z"/></g>
<g><path style="opacity:1" fill="#956735" d="M 12.5,0.5 C 13.1667,0.5 13.8333,0.5 14.5,0.5C 14.8333,1.16667 15.1667,1.83333 15.5,2.5C 15.1667,2.5 14.8333,2.5 14.5,2.5C 13.8333,2.5 13.1667,2.5 12.5,2.5C 10.5,2.5 8.5,2.5 6.5,2.5C 5.83333,2.5 5.16667,2.5 4.5,2.5C 3.83333,2.5 3.16667,2.5 2.5,2.5C 5.33732,0.597709 8.67065,-0.0689576 12.5,0.5 Z"/></g>
<g><path style="opacity:1" fill="#a37e4d" d="M 23.5,1.5 C 25.1667,1.5 26.8333,1.5 28.5,1.5C 29.404,2.20895 29.7373,3.20895 29.5,4.5C 29.1667,4.5 28.8333,4.5 28.5,4.5C 28.5,4.16667 28.5,3.83333 28.5,3.5C 27.0813,2.54885 25.4147,2.21552 23.5,2.5C 23.5,7.16667 23.5,11.8333 23.5,16.5C 23.5,17.8333 23.5,19.1667 23.5,20.5C 23.5,20.8333 23.5,21.1667 23.5,21.5C 23.5,22.1667 23.5,22.8333 23.5,23.5C 22.8333,22.8333 22.1667,22.1667 21.5,21.5C 20.8333,21.5 20.1667,21.5 19.5,21.5C 19.5,21.1667 19.5,20.8333 19.5,20.5C 20.791,20.7373 21.791,20.404 22.5,19.5C 22.1771,13.31 22.5104,7.31004 23.5,1.5 Z"/></g>
<g><path style="opacity:1" fill="#2d150f" d="M 42.5,-0.5 C 43.1667,-0.5 43.8333,-0.5 44.5,-0.5C 44.5,0.166667 44.5,0.833333 44.5,1.5C 44.5,2.5 44.5,3.5 44.5,4.5C 43.8333,4.5 43.1667,4.5 42.5,4.5C 42.5,3.83333 42.5,3.16667 42.5,2.5C 42.5,1.5 42.5,0.5 42.5,-0.5 Z"/></g>
<g><path style="opacity:1" fill="#27110a" d="M 14.5,0.5 C 16.5,0.833333 18.5,1.16667 20.5,1.5C 20.5,2.5 20.5,3.5 20.5,4.5C 19.8826,4.38929 19.3826,4.05596 19,3.5C 18.501,7.82056 18.3343,12.1539 18.5,16.5C 18.1667,16.5 17.8333,16.5 17.5,16.5C 17.5,16.1667 17.5,15.8333 17.5,15.5C 17.5,14.8333 17.5,14.1667 17.5,13.5C 17.6646,10.4816 17.498,7.48162 17,4.5C 16.7216,3.5842 16.2216,2.91753 15.5,2.5C 15.1667,1.83333 14.8333,1.16667 14.5,0.5 Z"/></g>
<g><path style="opacity:1" fill="#1d110a" d="M 28.5,-0.5 C 29.5,-0.5 30.5,-0.5 31.5,-0.5C 31.5172,1.56475 31.8505,3.56475 32.5,5.5C 31.8333,5.5 31.5,5.83333 31.5,6.5C 30.1667,6.5 29.5,5.83333 29.5,4.5C 29.7373,3.20895 29.404,2.20895 28.5,1.5C 28.5,0.833333 28.5,0.166667 28.5,-0.5 Z"/></g>
<g><path style="opacity:1" fill="#5e3f2a" d="M 31.5,-0.5 C 32.8333,-0.5 34.1667,-0.5 35.5,-0.5C 34.9717,0.72065 34.305,1.88732 33.5,3C 34.7932,3.49001 36.1266,3.65668 37.5,3.5C 38.1667,3.5 38.5,3.83333 38.5,4.5C 38.1667,4.5 37.8333,4.5 37.5,4.5C 35.901,4.23219 34.5676,4.56552 33.5,5.5C 33.1667,5.5 32.8333,5.5 32.5,5.5C 31.8505,3.56475 31.5172,1.56475 31.5,-0.5 Z"/></g>
<g><path style="opacity:1" fill="#281915" d="M 39.5,1.5 C 40.609,1.55688 41.609,1.89022 42.5,2.5C 42.5,3.16667 42.5,3.83333 42.5,4.5C 42.5,5.16667 42.5,5.83333 42.5,6.5C 41.3951,5.39952 40.0618,4.73286 38.5,4.5C 38.5,3.83333 38.1667,3.5 37.5,3.5C 36.3398,1.79734 37.0065,1.13068 39.5,1.5 Z"/></g>
<g><path style="opacity:1" fill="#cda352" d="M 6.5,2.5 C 8.5,2.5 10.5,2.5 12.5,2.5C 12.5,3.16667 12.1667,3.5 11.5,3.5C 10.5084,3.32842 9.84171,3.66175 9.5,4.5C 8.83333,4.5 8.16667,4.5 7.5,4.5C 5.30228,4.59121 4.96895,3.92454 6.5,2.5 Z"/></g>
<g><path style="opacity:1" fill="#d0b16a" d="M 44.5,1.5 C 46.5,1.5 48.5,1.5 50.5,1.5C 50.5,2.83333 50.5,4.16667 50.5,5.5C 49.7777,4.44886 48.7777,3.78219 47.5,3.5C 46.391,3.55688 45.391,3.89022 44.5,4.5C 44.5,3.5 44.5,2.5 44.5,1.5 Z"/></g>
<g><path style="opacity:1" fill="#ddbd65" d="M 11.5,3.5 C 12.038,5.11723 12.3713,6.7839 12.5,8.5C 11.5,8.5 10.5,8.5 9.5,8.5C 9.5,7.5 9.5,6.5 9.5,5.5C 9.5,5.16667 9.5,4.83333 9.5,4.5C 9.84171,3.66175 10.5084,3.32842 11.5,3.5 Z"/></g>
<g><path style="opacity:1" fill="#311e0b" d="M 20.5,-0.5 C 21.5,-0.5 22.5,-0.5 23.5,-0.5C 23.5,0.166667 23.5,0.833333 23.5,1.5C 22.5104,7.31004 22.1771,13.31 22.5,19.5C 21.8333,19.5 21.5,19.1667 21.5,18.5C 21.8222,12.642 21.4889,6.97533 20.5,1.5C 20.5,0.833333 20.5,0.166667 20.5,-0.5 Z"/></g>
<g><path style="opacity:1" fill="#deb990" d="M 37.5,4.5 C 37.8333,4.5 38.1667,4.5 38.5,4.5C 40.0618,4.73286 41.3951,5.39952 42.5,6.5C 42.5,7.5 42.5,8.5 42.5,9.5C 42.5,10.1667 42.1667,10.5 41.5,10.5C 41.5,9.16667 40.8333,8.5 39.5,8.5C 39.4729,6.80072 38.8062,5.46739 37.5,4.5 Z"/></g>
<g><path style="opacity:1" fill="#dfd397" d="M 47.5,3.5 C 46.931,7.32935 47.5977,10.6627 49.5,13.5C 49.1667,14.1667 48.8333,14.8333 48.5,15.5C 47.8333,15.5 47.5,15.8333 47.5,16.5C 46.8333,16.5 46.1667,16.5 45.5,16.5C 45.5858,15.5041 45.2524,14.6708 44.5,14C 45.3805,13.2917 46.0472,12.4584 46.5,11.5C 45.9853,9.10551 45.3186,6.77218 44.5,4.5C 45.391,3.89022 46.391,3.55688 47.5,3.5 Z"/></g>
<g><path style="opacity:1" fill="#dbae59" d="M 7.5,4.5 C 8.16667,4.5 8.83333,4.5 9.5,4.5C 9.5,4.83333 9.5,5.16667 9.5,5.5C 8.56552,6.56764 8.23219,7.90097 8.5,9.5C 10.1667,9.5 11.8333,9.5 13.5,9.5C 13.2322,7.90097 13.5655,6.56764 14.5,5.5C 14.5,7.5 14.5,9.5 14.5,11.5C 12.1667,11.5 9.83333,11.5 7.5,11.5C 7.42265,10.2502 6.75598,9.41691 5.5,9C 6.97326,8.29044 7.63993,7.12377 7.5,5.5C 7.5,5.16667 7.5,4.83333 7.5,4.5 Z"/></g>
<g><path style="opacity:1" fill="#522d1c" d="M 15.5,2.5 C 16.2216,2.91753 16.7216,3.5842 17,4.5C 17.498,7.48162 17.6646,10.4816 17.5,13.5C 16.8333,13.5 16.1667,13.5 15.5,13.5C 15.5,13.1667 15.5,12.8333 15.5,12.5C 15.5,9.16667 15.5,5.83333 15.5,2.5 Z"/></g>
<g><path style="opacity:1" fill="#e2cb73" d="M 28.5,3.5 C 28.5,3.83333 28.5,4.16667 28.5,4.5C 28.5,4.83333 28.5,5.16667 28.5,5.5C 27.3995,7.27741 26.5662,9.27741 26,11.5C 25.7679,10.2625 25.2679,9.26253 24.5,8.5C 24.5,6.83333 24.5,5.16667 24.5,3.5C 25.8333,3.5 27.1667,3.5 28.5,3.5 Z"/></g>
<g><path style="opacity:1" fill="#211611" d="M 42.5,4.5 C 43.1667,4.5 43.8333,4.5 44.5,4.5C 45.3186,6.77218 45.9853,9.10551 46.5,11.5C 45.391,11.4431 44.391,11.1098 43.5,10.5C 43.5,9.83333 43.1667,9.5 42.5,9.5C 42.5,8.5 42.5,7.5 42.5,6.5C 42.5,5.83333 42.5,5.16667 42.5,4.5 Z"/></g>
<g><path style="opacity:1" fill="#1d1002" d="M 50.5,-0.5 C 51.1667,-0.5 51.8333,-0.5 52.5,-0.5C 52.5,0.166667 52.5,0.833333 52.5,1.5C 52.5,4.83333 52.5,8.16667 52.5,11.5C 51.8333,11.8333 51.1667,12.1667 50.5,12.5C 50.5,10.1667 50.5,7.83333 50.5,5.5C 50.5,4.16667 50.5,2.83333 50.5,1.5C 50.5,0.833333 50.5,0.166667 50.5,-0.5 Z"/></g>
<g><path style="opacity:1" fill="#dbb767" d="M 63.5,1.5 C 63.5,2.83333 63.5,4.16667 63.5,5.5C 61.8793,5.7869 60.8793,6.7869 60.5,8.5C 61.325,9.38568 62.325,9.71901 63.5,9.5C 63.5,10.5 63.5,11.5 63.5,12.5C 62.1667,12.5 60.8333,12.5 59.5,12.5C 59.8064,9.61456 59.4731,6.9479 58.5,4.5C 58.5,3.83333 58.5,3.16667 58.5,2.5C 60.1172,1.962 61.7839,1.62867 63.5,1.5 Z"/></g>
<g><path style="opacity:1" fill="#e2c873" d="M 63.5,5.5 C 63.5,6.83333 63.5,8.16667 63.5,9.5C 62.325,9.71901 61.325,9.38568 60.5,8.5C 60.8793,6.7869 61.8793,5.7869 63.5,5.5 Z"/></g>
<g><path style="opacity:1" fill="#d49e4b" d="M 4.5,2.5 C 5.16667,2.5 5.83333,2.5 6.5,2.5C 4.96895,3.92454 5.30228,4.59121 7.5,4.5C 7.5,4.83333 7.5,5.16667 7.5,5.5C 6.5,5.5 5.5,5.5 4.5,5.5C 4.5,7.5 4.5,9.5 4.5,11.5C 3.22482,8.60375 3.22482,5.60375 4.5,2.5 Z"/></g>
<g><path style="opacity:1" fill="#2b1810" d="M 28.5,4.5 C 28.8333,4.5 29.1667,4.5 29.5,4.5C 29.5,5.83333 30.1667,6.5 31.5,6.5C 31.5,7.16667 31.1667,7.5 30.5,7.5C 29.9033,7.7352 29.5699,8.2352 29.5,9C 29.9783,10.3026 30.645,11.4693 31.5,12.5C 30.5,12.5 29.5,12.5 28.5,12.5C 28.5,10.1667 28.5,7.83333 28.5,5.5C 28.5,5.16667 28.5,4.83333 28.5,4.5 Z"/></g>
<g><path style="opacity:1" fill="#e1c273" d="M 28.5,3.5 C 27.1667,3.5 25.8333,3.5 24.5,3.5C 24.5,5.16667 24.5,6.83333 24.5,8.5C 24.5,10.1667 24.5,11.8333 24.5,13.5C 24.5,14.5 24.5,15.5 24.5,16.5C 24.1667,16.5 23.8333,16.5 23.5,16.5C 23.5,11.8333 23.5,7.16667 23.5,2.5C 25.4147,2.21552 27.0813,2.54885 28.5,3.5 Z"/></g>
<g><path style="opacity:1" fill="#e8dbbe" d="M 37.5,4.5 C 38.8062,5.46739 39.4729,6.80072 39.5,8.5C 37.6943,9.02412 36.0276,9.69079 34.5,10.5C 33.8333,10.5 33.1667,10.5 32.5,10.5C 33.3007,8.95819 33.634,7.29152 33.5,5.5C 34.5676,4.56552 35.901,4.23219 37.5,4.5 Z"/></g>
<g><path style="opacity:1" fill="#e0de8f" d="M 47.5,3.5 C 48.7777,3.78219 49.7777,4.44886 50.5,5.5C 50.5,7.83333 50.5,10.1667 50.5,12.5C 50.5,13.1667 50.1667,13.5 49.5,13.5C 47.5977,10.6627 46.931,7.32935 47.5,3.5 Z"/></g>
<g><path style="opacity:1" fill="#80573b" d="M 52.5,1.5 C 54.1694,2.88974 55.8361,3.22308 57.5,2.5C 57.0295,4.28826 56.6962,6.1216 56.5,8C 56.6083,9.68113 57.2749,10.8478 58.5,11.5C 58.5,12.1667 58.5,12.8333 58.5,13.5C 57.5,13.5 56.5,13.5 55.5,13.5C 55.1667,13.5 54.8333,13.5 54.5,13.5C 54.5,12.1667 53.8333,11.5 52.5,11.5C 52.5,8.16667 52.5,4.83333 52.5,1.5 Z"/></g>
<g><path style="opacity:1" fill="#93632e" d="M 57.5,2.5 C 57.8333,2.5 58.1667,2.5 58.5,2.5C 58.5,3.16667 58.5,3.83333 58.5,4.5C 58.5,6.83333 58.5,9.16667 58.5,11.5C 57.2749,10.8478 56.6083,9.68113 56.5,8C 56.6962,6.1216 57.0295,4.28826 57.5,2.5 Z"/></g>
<g><path style="opacity:1" fill="#d4ad69" d="M 58.5,4.5 C 59.4731,6.9479 59.8064,9.61456 59.5,12.5C 60.8333,12.5 62.1667,12.5 63.5,12.5C 63.5,12.8333 63.5,13.1667 63.5,13.5C 61.8333,13.5 60.1667,13.5 58.5,13.5C 58.5,12.8333 58.5,12.1667 58.5,11.5C 58.5,9.16667 58.5,6.83333 58.5,4.5 Z"/></g>
<g><path style="opacity:1" fill="#20140f" d="M -0.5,4.5 C 0.166667,4.5 0.833333,4.5 1.5,4.5C 1.66463,7.51838 1.49796,10.5184 1,13.5C 0.617425,14.056 0.117425,14.3893 -0.5,14.5C -0.5,11.1667 -0.5,7.83333 -0.5,4.5 Z"/></g>
<g><path style="opacity:1" fill="#dcb65e" d="M 12.5,2.5 C 13.1667,2.5 13.8333,2.5 14.5,2.5C 14.5,3.5 14.5,4.5 14.5,5.5C 13.5655,6.56764 13.2322,7.90097 13.5,9.5C 11.8333,9.5 10.1667,9.5 8.5,9.5C 8.23219,7.90097 8.56552,6.56764 9.5,5.5C 9.5,6.5 9.5,7.5 9.5,8.5C 10.5,8.5 11.5,8.5 12.5,8.5C 12.3713,6.7839 12.038,5.11723 11.5,3.5C 12.1667,3.5 12.5,3.16667 12.5,2.5 Z"/></g>
<g><path style="opacity:1" fill="#d5a77d" d="M 32.5,5.5 C 32.8333,5.5 33.1667,5.5 33.5,5.5C 33.634,7.29152 33.3007,8.95819 32.5,10.5C 31.0937,10.0269 30.427,9.02694 30.5,7.5C 31.1667,7.5 31.5,7.16667 31.5,6.5C 31.5,5.83333 31.8333,5.5 32.5,5.5 Z"/></g>
<g><path style="opacity:1" fill="#ba8c52" d="M 2.5,2.5 C 3.16667,2.5 3.83333,2.5 4.5,2.5C 3.22482,5.60375 3.22482,8.60375 4.5,11.5C 7.96192,12.4816 11.6286,12.815 15.5,12.5C 15.5,12.8333 15.5,13.1667 15.5,13.5C 12.1667,13.5 8.83333,13.5 5.5,13.5C 4.5,13.5 3.5,13.5 2.5,13.5C 2.5,9.83333 2.5,6.16667 2.5,2.5 Z"/></g>
<g><path style="opacity:1" fill="#dbad53" d="M 7.5,5.5 C 7.63993,7.12377 6.97326,8.29044 5.5,9C 6.75598,9.41691 7.42265,10.2502 7.5,11.5C 6.5,11.5 5.5,11.5 4.5,11.5C 4.5,9.5 4.5,7.5 4.5,5.5C 5.5,5.5 6.5,5.5 7.5,5.5 Z"/></g>
<g><path style="opacity:1" fill="#d8a866" d="M 14.5,2.5 C 14.8333,2.5 15.1667,2.5 15.5,2.5C 15.5,5.83333 15.5,9.16667 15.5,12.5C 11.6286,12.815 7.96192,12.4816 4.5,11.5C 5.5,11.5 6.5,11.5 7.5,11.5C 9.83333,11.5 12.1667,11.5 14.5,11.5C 14.5,9.5 14.5,7.5 14.5,5.5C 14.5,4.5 14.5,3.5 14.5,2.5 Z"/></g>
<g><path style="opacity:1" fill="#ddc57b" d="M 28.5,5.5 C 28.5,7.83333 28.5,10.1667 28.5,12.5C 29.3007,14.0418 29.634,15.7085 29.5,17.5C 29.5,18.1667 29.1667,18.5 28.5,18.5C 29.2436,15.0504 27.9103,13.3838 24.5,13.5C 24.5,11.8333 24.5,10.1667 24.5,8.5C 25.2679,9.26253 25.7679,10.2625 26,11.5C 26.5662,9.27741 27.3995,7.27741 28.5,5.5 Z"/></g>
<g><path style="opacity:1" fill="#542e25" d="M 30.5,7.5 C 30.427,9.02694 31.0937,10.0269 32.5,10.5C 33.1667,10.5 33.8333,10.5 34.5,10.5C 35.3382,10.8417 35.6716,11.5084 35.5,12.5C 34.5,12.5 33.5,12.5 32.5,12.5C 32.1667,12.5 31.8333,12.5 31.5,12.5C 30.645,11.4693 29.9783,10.3026 29.5,9C 29.5699,8.2352 29.9033,7.7352 30.5,7.5 Z"/></g>
<g><path style="opacity:1" fill="#b89375" d="M 39.5,8.5 C 40.8333,8.5 41.5,9.16667 41.5,10.5C 40.209,10.2627 39.209,10.596 38.5,11.5C 36.9519,11.8212 36.2852,12.8212 36.5,14.5C 36.1667,14.5 35.8333,14.5 35.5,14.5C 35.5,13.8333 35.5,13.1667 35.5,12.5C 35.6716,11.5084 35.3382,10.8417 34.5,10.5C 36.0276,9.69079 37.6943,9.02412 39.5,8.5 Z"/></g>
<g><path style="opacity:1" fill="#e3ceaa" d="M 42.5,9.5 C 43.1667,9.5 43.5,9.83333 43.5,10.5C 43.5,10.8333 43.5,11.1667 43.5,11.5C 42.8333,12.8333 42.1667,14.1667 41.5,15.5C 41.762,14.0222 41.4287,12.6888 40.5,11.5C 39.5712,12.5498 38.9046,12.5498 38.5,11.5C 39.209,10.596 40.209,10.2627 41.5,10.5C 42.1667,10.5 42.5,10.1667 42.5,9.5 Z"/></g>
<g><path style="opacity:1" fill="#351b0e" d="M 28.5,12.5 C 29.5,12.5 30.5,12.5 31.5,12.5C 31.8333,12.5 32.1667,12.5 32.5,12.5C 31.8902,13.391 31.5569,14.391 31.5,15.5C 30.8333,16.1667 30.1667,16.8333 29.5,17.5C 29.634,15.7085 29.3007,14.0418 28.5,12.5 Z"/></g>
<g><path style="opacity:1" fill="#2f2113" d="M 52.5,11.5 C 53.8333,11.5 54.5,12.1667 54.5,13.5C 52.6783,12.5714 51.3449,13.2381 50.5,15.5C 49.8333,15.5 49.1667,15.5 48.5,15.5C 48.8333,14.8333 49.1667,14.1667 49.5,13.5C 50.1667,13.5 50.5,13.1667 50.5,12.5C 51.1667,12.1667 51.8333,11.8333 52.5,11.5 Z"/></g>
<g><path style="opacity:1" fill="#331d14" d="M 2.5,2.5 C 2.5,6.16667 2.5,9.83333 2.5,13.5C 3.5,13.5 4.5,13.5 5.5,13.5C 5.5,14.1667 5.5,14.8333 5.5,15.5C 4.12656,15.3433 2.79323,15.51 1.5,16C 2.05596,16.3826 2.38929,16.8826 2.5,17.5C 1.5,17.5 0.5,17.5 -0.5,17.5C -0.5,16.5 -0.5,15.5 -0.5,14.5C 0.117425,14.3893 0.617425,14.056 1,13.5C 1.49796,10.5184 1.66463,7.51838 1.5,4.5C 1.32842,3.50838 1.66175,2.84171 2.5,2.5 Z"/></g>
<g><path style="opacity:1" fill="#301819" d="M 5.5,13.5 C 8.83333,13.5 12.1667,13.5 15.5,13.5C 16.1667,13.5 16.8333,13.5 17.5,13.5C 17.5,14.1667 17.5,14.8333 17.5,15.5C 13.5,15.5 9.5,15.5 5.5,15.5C 5.5,14.8333 5.5,14.1667 5.5,13.5 Z"/></g>
<g><path style="opacity:1" fill="#dec39f" d="M 32.5,12.5 C 33.5,12.5 34.5,12.5 35.5,12.5C 35.5,13.1667 35.5,13.8333 35.5,14.5C 34.2921,15.2341 32.9587,15.5674 31.5,15.5C 31.5569,14.391 31.8902,13.391 32.5,12.5 Z"/></g>
<g><path style="opacity:1" fill="#ebdec2" d="M 38.5,11.5 C 38.9046,12.5498 39.5712,12.5498 40.5,11.5C 41.4287,12.6888 41.762,14.0222 41.5,15.5C 41.6716,16.4916 41.3382,17.1583 40.5,17.5C 39.209,17.7373 38.209,17.404 37.5,16.5C 38.3764,16.6309 39.0431,16.2975 39.5,15.5C 38.675,14.6143 37.675,14.281 36.5,14.5C 36.2852,12.8212 36.9519,11.8212 38.5,11.5 Z"/></g>
<g><path style="opacity:1" fill="#251a13" d="M 54.5,13.5 C 54.8333,13.5 55.1667,13.5 55.5,13.5C 56.1667,14.5 56.8333,15.5 57.5,16.5C 58.5063,17.3957 58.5063,18.0623 57.5,18.5C 56.8333,18.1667 56.1667,17.8333 55.5,17.5C 55.0269,16.0937 54.0269,15.427 52.5,15.5C 51.8333,15.5 51.1667,15.5 50.5,15.5C 51.3449,13.2381 52.6783,12.5714 54.5,13.5 Z"/></g>
<g><path style="opacity:1" fill="#3b2011" d="M 55.5,13.5 C 56.5,13.5 57.5,13.5 58.5,13.5C 60.1667,13.5 61.8333,13.5 63.5,13.5C 63.5,14.5 63.5,15.5 63.5,16.5C 61.5,16.5 59.5,16.5 57.5,16.5C 56.8333,15.5 56.1667,14.5 55.5,13.5 Z"/></g>
<g><path style="opacity:1" fill="#c79874" d="M 43.5,10.5 C 44.391,11.1098 45.391,11.4431 46.5,11.5C 46.0472,12.4584 45.3805,13.2917 44.5,14C 45.2524,14.6708 45.5858,15.5041 45.5,16.5C 45.5,17.1667 45.1667,17.5 44.5,17.5C 43.5386,15.7354 43.2053,13.7354 43.5,11.5C 43.5,11.1667 43.5,10.8333 43.5,10.5 Z"/></g>
<g><path style="opacity:1" fill="#826b4c" d="M 5.5,15.5 C 9.5,15.5 13.5,15.5 17.5,15.5C 17.5,15.8333 17.5,16.1667 17.5,16.5C 12.4725,16.5029 7.47255,16.8363 2.5,17.5C 2.38929,16.8826 2.05596,16.3826 1.5,16C 2.79323,15.51 4.12656,15.3433 5.5,15.5 Z"/></g>
<g><path style="opacity:1" fill="#c5b091" d="M 20.5,1.5 C 21.4889,6.97533 21.8222,12.642 21.5,18.5C 19.5,18.5 17.5,18.5 15.5,18.5C 12.1667,18.5 8.83333,18.5 5.5,18.5C 3.5,18.5 1.5,18.5 -0.5,18.5C -0.5,18.1667 -0.5,17.8333 -0.5,17.5C 0.5,17.5 1.5,17.5 2.5,17.5C 7.47255,16.8363 12.4725,16.5029 17.5,16.5C 17.8333,16.5 18.1667,16.5 18.5,16.5C 18.56,17.0431 18.8933,17.3764 19.5,17.5C 20.4922,13.2172 20.8256,8.88387 20.5,4.5C 20.5,3.5 20.5,2.5 20.5,1.5 Z"/></g>
<g><path style="opacity:1" fill="#5a3829" d="M 20.5,4.5 C 20.8256,8.88387 20.4922,13.2172 19.5,17.5C 18.8933,17.3764 18.56,17.0431 18.5,16.5C 18.3343,12.1539 18.501,7.82056 19,3.5C 19.3826,4.05596 19.8826,4.38929 20.5,4.5 Z"/></g>
<g><path style="opacity:1" fill="#cdae6a" d="M 23.5,16.5 C 23.8333,16.5 24.1667,16.5 24.5,16.5C 25.6049,17.6005 26.9382,18.2671 28.5,18.5C 28.5,19.1667 28.5,19.8333 28.5,20.5C 26.8333,20.5 25.1667,20.5 23.5,20.5C 23.5,19.1667 23.5,17.8333 23.5,16.5 Z"/></g>
<g><path style="opacity:1" fill="#dfcf77" d="M 24.5,13.5 C 27.9103,13.3838 29.2436,15.0504 28.5,18.5C 26.9382,18.2671 25.6049,17.6005 24.5,16.5C 24.5,15.5 24.5,14.5 24.5,13.5 Z"/></g>
<g><path style="opacity:1" fill="#cfac91" d="M 35.5,14.5 C 35.8333,14.5 36.1667,14.5 36.5,14.5C 37.675,14.281 38.675,14.6143 39.5,15.5C 39.0431,16.2975 38.3764,16.6309 37.5,16.5C 37.44,15.9569 37.1067,15.6236 36.5,15.5C 35.4822,16.1925 34.4822,16.8592 33.5,17.5C 32.5,17.1667 31.8333,16.5 31.5,15.5C 32.9587,15.5674 34.2921,15.2341 35.5,14.5 Z"/></g>
<g><path style="opacity:1" fill="#dab185" d="M 43.5,11.5 C 43.2053,13.7354 43.5386,15.7354 44.5,17.5C 44.5,17.8333 44.5,18.1667 44.5,18.5C 44.1667,18.5 43.8333,18.5 43.5,18.5C 42.5,18.5 41.5,18.5 40.5,18.5C 40.5,18.1667 40.5,17.8333 40.5,17.5C 41.3382,17.1583 41.6716,16.4916 41.5,15.5C 42.1667,14.1667 42.8333,12.8333 43.5,11.5 Z"/></g>
<g><path style="opacity:1" fill="#2f2017" d="M 48.5,15.5 C 49.1667,15.5 49.8333,15.5 50.5,15.5C 51.1667,15.5 51.8333,15.5 52.5,15.5C 51.5144,17.4077 49.8477,18.4077 47.5,18.5C 47.5,17.8333 47.5,17.1667 47.5,16.5C 47.5,15.8333 47.8333,15.5 48.5,15.5 Z"/></g>
<g><path style="opacity:1" fill="#b27c62" d="M 37.5,16.5 C 38.209,17.404 39.209,17.7373 40.5,17.5C 40.5,17.8333 40.5,18.1667 40.5,18.5C 39.8333,18.5 39.1667,18.5 38.5,18.5C 36.8212,18.2852 35.8212,18.9519 35.5,20.5C 34.5987,19.7095 33.9321,18.7095 33.5,17.5C 34.4822,16.8592 35.4822,16.1925 36.5,15.5C 37.1067,15.6236 37.44,15.9569 37.5,16.5 Z"/></g>
<g><path style="opacity:1" fill="#604722" d="M 55.5,17.5 C 56.1667,17.8333 56.8333,18.1667 57.5,18.5C 57.5,18.8333 57.5,19.1667 57.5,19.5C 56.6618,19.8417 56.3284,20.5084 56.5,21.5C 55.8333,21.1667 55.1667,20.8333 54.5,20.5C 54.1667,19.8333 53.8333,19.1667 53.5,18.5C 53.8417,17.6618 54.5084,17.3284 55.5,17.5 Z"/></g>
<g><path style="opacity:1" fill="#180901" d="M 5.5,18.5 C 8.83333,18.5 12.1667,18.5 15.5,18.5C 15.1667,19.1667 14.8333,19.8333 14.5,20.5C 12.8333,20.5 11.1667,20.5 9.5,20.5C 8.16667,19.8333 6.83333,19.1667 5.5,18.5 Z"/></g>
<g><path style="opacity:1" fill="#d0a185" d="M 38.5,18.5 C 39.1667,18.5 39.8333,18.5 40.5,18.5C 41.5,18.5 42.5,18.5 43.5,18.5C 42.5637,19.9744 41.2303,20.9744 39.5,21.5C 38.7375,20.7321 37.7375,20.2321 36.5,20C 37.4158,19.7216 38.0825,19.2216 38.5,18.5 Z"/></g>
<g><path style="opacity:1" fill="#2f2310" d="M 45.5,16.5 C 46.1667,16.5 46.8333,16.5 47.5,16.5C 47.5,17.1667 47.5,17.8333 47.5,18.5C 47.5,18.8333 47.5,19.1667 47.5,19.5C 46.7095,20.4013 45.7095,21.0679 44.5,21.5C 44.5,20.5 44.5,19.5 44.5,18.5C 44.5,18.1667 44.5,17.8333 44.5,17.5C 45.1667,17.5 45.5,17.1667 45.5,16.5 Z"/></g>
<g><path style="opacity:1" fill="#594128" d="M 52.5,15.5 C 54.0269,15.427 55.0269,16.0937 55.5,17.5C 54.5084,17.3284 53.8417,17.6618 53.5,18.5C 51.5648,19.1495 49.5648,19.4828 47.5,19.5C 47.5,19.1667 47.5,18.8333 47.5,18.5C 49.8477,18.4077 51.5144,17.4077 52.5,15.5 Z"/></g>
<g><path style="opacity:1" fill="#201405" d="M -0.5,18.5 C 1.5,18.5 3.5,18.5 5.5,18.5C 6.83333,19.1667 8.16667,19.8333 9.5,20.5C 6.16667,20.5 2.83333,20.5 -0.5,20.5C -0.5,19.8333 -0.5,19.1667 -0.5,18.5 Z"/></g>
<g><path style="opacity:1" fill="#1d1104" d="M 15.5,18.5 C 17.5,18.5 19.5,18.5 21.5,18.5C 21.5,19.1667 21.8333,19.5 22.5,19.5C 21.791,20.404 20.791,20.7373 19.5,20.5C 17.8333,20.5 16.1667,20.5 14.5,20.5C 14.8333,19.8333 15.1667,19.1667 15.5,18.5 Z"/></g>
<g><path style="opacity:1" fill="#301811" d="M 31.5,15.5 C 31.8333,16.5 32.5,17.1667 33.5,17.5C 33.9321,18.7095 34.5987,19.7095 35.5,20.5C 36.1098,21.391 36.4431,22.391 36.5,23.5C 35.609,22.8902 34.609,22.5569 33.5,22.5C 33.1667,21.5 32.5,20.8333 31.5,20.5C 30.6522,19.375 29.6522,19.375 28.5,20.5C 28.5,19.8333 28.5,19.1667 28.5,18.5C 29.1667,18.5 29.5,18.1667 29.5,17.5C 30.1667,16.8333 30.8333,16.1667 31.5,15.5 Z"/></g>
<g><path style="opacity:1" fill="#7c4b37" d="M 38.5,18.5 C 38.0825,19.2216 37.4158,19.7216 36.5,20C 37.7375,20.2321 38.7375,20.7321 39.5,21.5C 39.1667,22.5 38.5,23.1667 37.5,23.5C 37.1667,23.5 36.8333,23.5 36.5,23.5C 36.4431,22.391 36.1098,21.391 35.5,20.5C 35.8212,18.9519 36.8212,18.2852 38.5,18.5 Z"/></g>
<g><path style="opacity:1" fill="#4c402f" d="M 57.5,16.5 C 59.5,16.5 61.5,16.5 63.5,16.5C 63.5,19.8333 63.5,23.1667 63.5,26.5C 62.2719,25.6935 61.2719,24.6935 60.5,23.5C 59.5,22.1667 58.5,20.8333 57.5,19.5C 57.5,19.1667 57.5,18.8333 57.5,18.5C 58.5063,18.0623 58.5063,17.3957 57.5,16.5 Z"/></g>
<g><path style="opacity:1" fill="#7b5f36" d="M 53.5,18.5 C 53.8333,19.1667 54.1667,19.8333 54.5,20.5C 53.3684,21.3543 52.035,21.3543 50.5,20.5C 49.2905,20.9321 48.2905,21.5987 47.5,22.5C 45.3812,22.4677 44.0478,23.4677 43.5,25.5C 42.8333,25.8333 42.1667,26.1667 41.5,26.5C 40.8333,26.5 40.5,26.1667 40.5,25.5C 41.5,23.8333 42.8333,22.5 44.5,21.5C 45.7095,21.0679 46.7095,20.4013 47.5,19.5C 49.5648,19.4828 51.5648,19.1495 53.5,18.5 Z"/></g>
<g><path style="opacity:1" fill="#e1c980" d="M -0.5,21.5 C 0.5,21.5 1.5,21.5 2.5,21.5C 0.997634,23.8293 1.6643,25.1627 4.5,25.5C 4.5,25.8333 4.5,26.1667 4.5,26.5C 2.83333,26.5 1.16667,26.5 -0.5,26.5C -0.5,24.8333 -0.5,23.1667 -0.5,21.5 Z"/></g>
<g><path style="opacity:1" fill="#e4d389" d="M 2.5,21.5 C 3.5,21.5 4.5,21.5 5.5,21.5C 5.42265,22.7498 4.75598,23.5831 3.5,24C 4.4158,24.2784 5.08247,24.7784 5.5,25.5C 5.16667,25.5 4.83333,25.5 4.5,25.5C 1.6643,25.1627 0.997634,23.8293 2.5,21.5 Z"/></g>
<g><path style="opacity:1" fill="#e3de99" d="M 5.5,21.5 C 7.5,21.5 9.5,21.5 11.5,21.5C 11.5,22.8333 11.5,24.1667 11.5,25.5C 9.5,25.5 7.5,25.5 5.5,25.5C 5.08247,24.7784 4.4158,24.2784 3.5,24C 4.75598,23.5831 5.42265,22.7498 5.5,21.5 Z"/></g>
<g><path style="opacity:1" fill="#e2e2a2" d="M 11.5,21.5 C 17.0803,22.3224 17.4137,23.1558 12.5,24C 13.056,24.3826 13.3893,24.8826 13.5,25.5C 12.8333,25.5 12.1667,25.5 11.5,25.5C 11.5,24.1667 11.5,22.8333 11.5,21.5 Z"/></g>
<g><path style="opacity:1" fill="#e4d898" d="M 19.5,21.5 C 20.1667,21.5 20.8333,21.5 21.5,21.5C 21.5,23.1667 21.5,24.8333 21.5,26.5C 15.8333,26.5 10.1667,26.5 4.5,26.5C 4.5,26.1667 4.5,25.8333 4.5,25.5C 4.83333,25.5 5.16667,25.5 5.5,25.5C 7.5,25.5 9.5,25.5 11.5,25.5C 12.1667,25.5 12.8333,25.5 13.5,25.5C 15.288,25.7852 16.9547,25.4519 18.5,24.5C 16.9084,22.7751 17.2417,21.7751 19.5,21.5 Z"/></g>
<g><path style="opacity:1" fill="#211514" d="M 23.5,21.5 C 24.5,21.5 25.5,21.5 26.5,21.5C 26.366,23.2915 26.6993,24.9582 27.5,26.5C 27.6716,27.4916 27.3382,28.1583 26.5,28.5C 26.1667,28.5 25.8333,28.5 25.5,28.5C 25.5,27.8333 25.1667,27.5 24.5,27.5C 25.4709,26.0379 25.1376,24.7046 23.5,23.5C 23.5,22.8333 23.5,22.1667 23.5,21.5 Z"/></g>
<g><path style="opacity:1" fill="#1e1b0e" d="M 23.5,21.5 C 23.5,21.1667 23.5,20.8333 23.5,20.5C 25.1667,20.5 26.8333,20.5 28.5,20.5C 28.8333,21.1667 29.1667,21.8333 29.5,22.5C 28.8333,23.8333 28.1667,25.1667 27.5,26.5C 26.6993,24.9582 26.366,23.2915 26.5,21.5C 25.5,21.5 24.5,21.5 23.5,21.5 Z"/></g>
<g><path style="opacity:1" fill="#141414" d="M 31.5,20.5 C 31.4208,21.9305 31.7542,23.2638 32.5,24.5C 31.9953,25.9185 30.9953,26.5852 29.5,26.5C 29.5,25.1667 29.5,23.8333 29.5,22.5C 29.1667,21.8333 28.8333,21.1667 28.5,20.5C 29.6522,19.375 30.6522,19.375 31.5,20.5 Z"/></g>
<g><path style="opacity:1" fill="#866432" d="M 50.5,20.5 C 52.035,21.3543 53.3684,21.3543 54.5,20.5C 55.1667,20.8333 55.8333,21.1667 56.5,21.5C 57.5511,22.2223 58.2178,23.2223 58.5,24.5C 56.9826,24.4894 55.8159,23.8228 55,22.5C 55.3308,24.0187 55.1641,25.352 54.5,26.5C 53.596,25.791 53.2627,24.791 53.5,23.5C 52.5,23.5 51.5,23.5 50.5,23.5C 50.5,22.5 50.5,21.5 50.5,20.5 Z"/></g>
<g><path style="opacity:1" fill="#e4e0af" d="M -0.5,21.5 C -0.5,21.1667 -0.5,20.8333 -0.5,20.5C 2.83333,20.5 6.16667,20.5 9.5,20.5C 11.1667,20.5 12.8333,20.5 14.5,20.5C 16.1667,20.5 17.8333,20.5 19.5,20.5C 19.5,20.8333 19.5,21.1667 19.5,21.5C 17.2417,21.7751 16.9084,22.7751 18.5,24.5C 16.9547,25.4519 15.288,25.7852 13.5,25.5C 13.3893,24.8826 13.056,24.3826 12.5,24C 17.4137,23.1558 17.0803,22.3224 11.5,21.5C 9.5,21.5 7.5,21.5 5.5,21.5C 4.5,21.5 3.5,21.5 2.5,21.5C 1.5,21.5 0.5,21.5 -0.5,21.5 Z"/></g>
<g><path style="opacity:1" fill="#735834" d="M 21.5,21.5 C 22.1667,22.1667 22.8333,22.8333 23.5,23.5C 25.1376,24.7046 25.4709,26.0379 24.5,27.5C 23.8333,28.8333 23.1667,30.1667 22.5,31.5C 22.7678,29.901 22.4345,28.5676 21.5,27.5C 14.1667,27.5 6.83333,27.5 -0.5,27.5C -0.5,27.1667 -0.5,26.8333 -0.5,26.5C 1.16667,26.5 2.83333,26.5 4.5,26.5C 10.1667,26.5 15.8333,26.5 21.5,26.5C 21.5,24.8333 21.5,23.1667 21.5,21.5 Z"/></g>
<g><path style="opacity:1" fill="#1b1417" d="M 31.5,20.5 C 32.5,20.8333 33.1667,21.5 33.5,22.5C 34.8333,24.1667 34.8333,25.8333 33.5,27.5C 32.7321,28.2625 32.2321,29.2625 32,30.5C 31.3292,31.2524 30.4959,31.5858 29.5,31.5C 29.5,29.8333 29.5,28.1667 29.5,26.5C 30.9953,26.5852 31.9953,25.9185 32.5,24.5C 31.7542,23.2638 31.4208,21.9305 31.5,20.5 Z"/></g>
<g><path style="opacity:1" fill="#211715" d="M 33.5,22.5 C 34.609,22.5569 35.609,22.8902 36.5,23.5C 36.5323,25.6188 35.5323,26.9522 33.5,27.5C 34.8333,25.8333 34.8333,24.1667 33.5,22.5 Z"/></g>
<g><path style="opacity:1" fill="#2f1b15" d="M 43.5,18.5 C 43.8333,18.5 44.1667,18.5 44.5,18.5C 44.5,19.5 44.5,20.5 44.5,21.5C 42.8333,22.5 41.5,23.8333 40.5,25.5C 40.1667,25.5 39.8333,25.5 39.5,25.5C 38.1667,25.5 37.5,24.8333 37.5,23.5C 38.5,23.1667 39.1667,22.5 39.5,21.5C 41.2303,20.9744 42.5637,19.9744 43.5,18.5 Z"/></g>
<g><path style="opacity:1" fill="#967641" d="M 47.5,22.5 C 47.6107,23.1174 47.944,23.6174 48.5,24C 47.4293,24.8518 46.4293,25.6851 45.5,26.5C 44.8333,26.5 44.1667,26.5 43.5,26.5C 43.5,26.1667 43.5,25.8333 43.5,25.5C 44.0478,23.4677 45.3812,22.4677 47.5,22.5 Z"/></g>
<g><path style="opacity:1" fill="#7f673a" d="M 57.5,19.5 C 58.5,20.8333 59.5,22.1667 60.5,23.5C 60.4431,24.609 60.1098,25.609 59.5,26.5C 59.1667,26.5 58.8333,26.5 58.5,26.5C 58.5,25.8333 58.5,25.1667 58.5,24.5C 58.2178,23.2223 57.5511,22.2223 56.5,21.5C 56.3284,20.5084 56.6618,19.8417 57.5,19.5 Z"/></g>
<g><path style="opacity:1" fill="#a78855" d="M 50.5,20.5 C 50.5,21.5 50.5,22.5 50.5,23.5C 51.5,23.5 52.5,23.5 53.5,23.5C 53.2627,24.791 53.596,25.791 54.5,26.5C 54.5,27.1667 54.1667,27.5 53.5,27.5C 52.8333,27.5 52.1667,27.5 51.5,27.5C 51.5386,26.2438 51.0386,25.2438 50,24.5C 49.1841,25.8228 48.0174,26.4894 46.5,26.5C 46.1667,26.5 45.8333,26.5 45.5,26.5C 46.4293,25.6851 47.4293,24.8518 48.5,24C 47.944,23.6174 47.6107,23.1174 47.5,22.5C 48.2905,21.5987 49.2905,20.9321 50.5,20.5 Z"/></g>
<g><path style="opacity:1" fill="#b89564" d="M 43.5,25.5 C 43.5,25.8333 43.5,26.1667 43.5,26.5C 42.8902,27.391 42.5569,28.391 42.5,29.5C 41.0474,30.8249 41.3808,31.6582 43.5,32C 42.9056,32.4643 42.2389,32.631 41.5,32.5C 40.8333,32.5 40.5,32.8333 40.5,33.5C 40.1667,33.5 39.8333,33.5 39.5,33.5C 39.6287,31.7839 39.962,30.1172 40.5,28.5C 40.8333,27.8333 41.1667,27.1667 41.5,26.5C 42.1667,26.1667 42.8333,25.8333 43.5,25.5 Z"/></g>
<g><path style="opacity:1" fill="#af9358" d="M 58.5,24.5 C 58.5,25.1667 58.5,25.8333 58.5,26.5C 57.5,26.8333 56.8333,27.5 56.5,28.5C 55.209,28.7373 54.209,28.404 53.5,27.5C 54.1667,27.5 54.5,27.1667 54.5,26.5C 55.1641,25.352 55.3308,24.0187 55,22.5C 55.8159,23.8228 56.9826,24.4894 58.5,24.5 Z"/></g>
<g><path style="opacity:1" fill="#d5bf99" d="M -0.5,28.5 C -0.5,28.1667 -0.5,27.8333 -0.5,27.5C 6.83333,27.5 14.1667,27.5 21.5,27.5C 21.5,30.5 21.5,33.5 21.5,36.5C 21.1667,36.5 20.8333,36.5 20.5,36.5C 20.5,34.1667 20.5,31.8333 20.5,29.5C 20.1583,28.6618 19.4916,28.3284 18.5,28.5C 12.1667,28.5 5.83333,28.5 -0.5,28.5 Z"/></g>
<g><path style="opacity:1" fill="#2e2213" d="M 36.5,23.5 C 36.8333,23.5 37.1667,23.5 37.5,23.5C 37.5,24.8333 38.1667,25.5 39.5,25.5C 38.5,26.5 37.5,27.5 36.5,28.5C 35.8333,28.8333 35.1667,29.1667 34.5,29.5C 34.1667,28.8333 33.8333,28.1667 33.5,27.5C 35.5323,26.9522 36.5323,25.6188 36.5,23.5 Z"/></g>
<g><path style="opacity:1" fill="#917d4f" d="M 39.5,25.5 C 39.8333,25.5 40.1667,25.5 40.5,25.5C 40.5,26.1667 40.8333,26.5 41.5,26.5C 41.1667,27.1667 40.8333,27.8333 40.5,28.5C 39.1667,29.1667 37.8333,29.8333 36.5,30.5C 36.5,29.8333 36.5,29.1667 36.5,28.5C 37.5,27.5 38.5,26.5 39.5,25.5 Z"/></g>
<g><path style="opacity:1" fill="#c0a06b" d="M 43.5,26.5 C 44.1667,26.5 44.8333,26.5 45.5,26.5C 45.8333,26.5 46.1667,26.5 46.5,26.5C 47.562,28.2341 47.562,29.9008 46.5,31.5C 46.1667,31.5 45.8333,31.5 45.5,31.5C 45.1788,29.9519 44.1788,29.2852 42.5,29.5C 42.5569,28.391 42.8902,27.391 43.5,26.5 Z"/></g>
<g><path style="opacity:1" fill="#caab78" d="M 51.5,27.5 C 51.0432,29.7727 49.7099,31.106 47.5,31.5C 47.1667,31.5 46.8333,31.5 46.5,31.5C 47.562,29.9008 47.562,28.2341 46.5,26.5C 48.0174,26.4894 49.1841,25.8228 50,24.5C 51.0386,25.2438 51.5386,26.2438 51.5,27.5 Z"/></g>
<g><path style="opacity:1" fill="#6e5328" d="M 60.5,23.5 C 61.2719,24.6935 62.2719,25.6935 63.5,26.5C 63.5,27.8333 63.5,29.1667 63.5,30.5C 62.5,29.8333 61.5,29.1667 60.5,28.5C 60.1667,27.8333 59.8333,27.1667 59.5,26.5C 60.1098,25.609 60.4431,24.609 60.5,23.5 Z"/></g>
<g><path style="opacity:1" fill="#200d03" d="M -0.5,28.5 C 5.83333,28.5 12.1667,28.5 18.5,28.5C 12.6807,29.3276 6.68071,29.8276 0.5,30C 1.05596,30.3826 1.38929,30.8826 1.5,31.5C 0.833333,31.5 0.5,31.8333 0.5,32.5C 0.67158,33.4916 0.338246,34.1583 -0.5,34.5C -0.5,32.5 -0.5,30.5 -0.5,28.5 Z"/></g>
<g><path style="opacity:1" fill="#261b13" d="M 33.5,27.5 C 33.8333,28.1667 34.1667,28.8333 34.5,29.5C 33.5275,31.1392 32.1942,32.4726 30.5,33.5C 30.1667,33.5 29.8333,33.5 29.5,33.5C 29.5,32.8333 29.5,32.1667 29.5,31.5C 30.4959,31.5858 31.3292,31.2524 32,30.5C 32.2321,29.2625 32.7321,28.2625 33.5,27.5 Z"/></g>
<g><path style="opacity:1" fill="#e2d5a0" d="M 51.5,27.5 C 52.1667,27.5 52.8333,27.5 53.5,27.5C 54.209,28.404 55.209,28.7373 56.5,28.5C 55.8333,29.1667 55.1667,29.8333 54.5,30.5C 51.8527,30.9287 49.8527,32.2621 48.5,34.5C 47.0582,35.8195 46.3915,37.4862 46.5,39.5C 45.8333,39.5 45.5,39.8333 45.5,40.5C 42.7386,41.3498 42.0719,40.3498 43.5,37.5C 43.8333,37.5 44.1667,37.5 44.5,37.5C 46.3465,35.9699 47.3465,33.9699 47.5,31.5C 49.7099,31.106 51.0432,29.7727 51.5,27.5 Z"/></g>
<g><path style="opacity:1" fill="#38201b" d="M 18.5,28.5 C 19.4916,28.3284 20.1583,28.6618 20.5,29.5C 19.8826,29.6107 19.3826,29.944 19,30.5C 18.5034,32.8098 18.3367,35.1432 18.5,37.5C 18.1667,37.5 17.8333,37.5 17.5,37.5C 17.5,35.8333 17.5,34.1667 17.5,32.5C 12.3595,31.5119 7.02621,31.1786 1.5,31.5C 1.38929,30.8826 1.05596,30.3826 0.5,30C 6.68071,29.8276 12.6807,29.3276 18.5,28.5 Z"/></g>
<g><path style="opacity:1" fill="#be9e67" d="M 24.5,27.5 C 25.1667,27.5 25.5,27.8333 25.5,28.5C 25.9492,30.9775 25.2825,32.9775 23.5,34.5C 22.6143,33.675 22.281,32.675 22.5,31.5C 23.1667,30.1667 23.8333,28.8333 24.5,27.5 Z"/></g>
<g><path style="opacity:1" fill="#1f1812" d="M 29.5,22.5 C 29.5,23.8333 29.5,25.1667 29.5,26.5C 29.5,28.1667 29.5,29.8333 29.5,31.5C 29.5,32.1667 29.5,32.8333 29.5,33.5C 28.8333,33.8333 28.1667,34.1667 27.5,34.5C 27.6747,32.3792 27.3414,30.3792 26.5,28.5C 27.3382,28.1583 27.6716,27.4916 27.5,26.5C 28.1667,25.1667 28.8333,23.8333 29.5,22.5 Z"/></g>
<g><path style="opacity:1" fill="#e8ddac" d="M 58.5,26.5 C 58.8333,26.5 59.1667,26.5 59.5,26.5C 59.8333,27.1667 60.1667,27.8333 60.5,28.5C 59.8333,28.5 59.5,28.8333 59.5,29.5C 58.2719,30.3065 57.2719,31.3065 56.5,32.5C 55.8333,32.5 55.1667,32.5 54.5,32.5C 54.5,31.8333 54.5,31.1667 54.5,30.5C 55.1667,29.8333 55.8333,29.1667 56.5,28.5C 56.8333,27.5 57.5,26.8333 58.5,26.5 Z"/></g>
<g><path style="opacity:1" fill="#dfcc9a" d="M 0.5,32.5 C 0.5,31.8333 0.833333,31.5 1.5,31.5C 7.02621,31.1786 12.3595,31.5119 17.5,32.5C 16.8333,32.8333 16.1667,33.1667 15.5,33.5C 11.1667,33.5 6.83333,33.5 2.5,33.5C 1.83333,33.1667 1.16667,32.8333 0.5,32.5 Z"/></g>
<g><path style="opacity:1" fill="#baa073" d="M 40.5,28.5 C 39.962,30.1172 39.6287,31.7839 39.5,33.5C 38.8826,33.3893 38.3826,33.056 38,32.5C 36.1413,33.5791 34.6413,34.9124 33.5,36.5C 32.5084,36.6716 31.8417,36.3382 31.5,35.5C 32.8606,33.4727 34.5273,31.806 36.5,30.5C 37.8333,29.8333 39.1667,29.1667 40.5,28.5 Z"/></g>
<g><path style="opacity:1" fill="#564629" d="M 36.5,28.5 C 36.5,29.1667 36.5,29.8333 36.5,30.5C 34.5273,31.806 32.8606,33.4727 31.5,35.5C 31.1667,35.5 30.8333,35.5 30.5,35.5C 30.5,34.8333 30.5,34.1667 30.5,33.5C 32.1942,32.4726 33.5275,31.1392 34.5,29.5C 35.1667,29.1667 35.8333,28.8333 36.5,28.5 Z"/></g>
<g><path style="opacity:1" fill="#ceb681" d="M 45.5,31.5 C 45.8333,31.5 46.1667,31.5 46.5,31.5C 46.8333,31.5 47.1667,31.5 47.5,31.5C 47.3465,33.9699 46.3465,35.9699 44.5,37.5C 44.2053,35.2646 44.5386,33.2646 45.5,31.5 Z"/></g>
<g><path style="opacity:1" fill="#e3dfad" d="M 54.5,30.5 C 54.5,31.1667 54.5,31.8333 54.5,32.5C 54.0432,34.7727 52.7099,36.106 50.5,36.5C 50.5,35.1667 49.8333,34.5 48.5,34.5C 49.8527,32.2621 51.8527,30.9287 54.5,30.5 Z"/></g>
<g><path style="opacity:1" fill="#d6b983" d="M 59.5,29.5 C 59.4366,30.6605 59.7699,31.9938 60.5,33.5C 59.8333,33.5 59.5,33.8333 59.5,34.5C 59.1667,34.5 58.8333,34.5 58.5,34.5C 57.8333,33.8333 57.1667,33.1667 56.5,32.5C 57.2719,31.3065 58.2719,30.3065 59.5,29.5 Z"/></g>
<g><path style="opacity:1" fill="#ccad75" d="M 59.5,29.5 C 59.5,28.8333 59.8333,28.5 60.5,28.5C 61.5,29.1667 62.5,29.8333 63.5,30.5C 63.5,31.5 63.5,32.5 63.5,33.5C 62.5,33.5 61.5,33.5 60.5,33.5C 59.7699,31.9938 59.4366,30.6605 59.5,29.5 Z"/></g>
<g><path style="opacity:1" fill="#ba9d67" d="M 42.5,29.5 C 44.1788,29.2852 45.1788,29.9519 45.5,31.5C 44.5386,33.2646 44.2053,35.2646 44.5,37.5C 44.1667,37.5 43.8333,37.5 43.5,37.5C 42.8333,37.5 42.1667,37.5 41.5,37.5C 42.0906,36.8485 42.7573,36.1818 43.5,35.5C 42.8075,34.4822 42.1408,33.4822 41.5,32.5C 42.2389,32.631 42.9056,32.4643 43.5,32C 41.3808,31.6582 41.0474,30.8249 42.5,29.5 Z"/></g>
<g><path style="opacity:1" fill="#cc9c4b" d="M 4.5,34.5 C 6.28801,34.2148 7.95467,34.5481 9.5,35.5C 9.13727,36.1835 8.80393,36.8501 8.5,37.5C 7.83333,37.5 7.16667,37.5 6.5,37.5C 5.83333,37.1667 5.16667,36.8333 4.5,36.5C 4.5,35.8333 4.5,35.1667 4.5,34.5 Z"/></g>
<g><path style="opacity:1" fill="#846557" d="M 20.5,29.5 C 20.5,31.8333 20.5,34.1667 20.5,36.5C 20.5,37.1667 20.1667,37.5 19.5,37.5C 19.1667,37.5 18.8333,37.5 18.5,37.5C 18.3367,35.1432 18.5034,32.8098 19,30.5C 19.3826,29.944 19.8826,29.6107 20.5,29.5 Z"/></g>
<g><path style="opacity:1" fill="#2b1a15" d="M 21.5,27.5 C 22.4345,28.5676 22.7678,29.901 22.5,31.5C 22.281,32.675 22.6143,33.675 23.5,34.5C 25.2825,32.9775 25.9492,30.9775 25.5,28.5C 25.8333,28.5 26.1667,28.5 26.5,28.5C 27.3414,30.3792 27.6747,32.3792 27.5,34.5C 27.1788,36.0481 26.1788,36.7148 24.5,36.5C 23.6522,35.375 22.6522,35.375 21.5,36.5C 21.5,33.5 21.5,30.5 21.5,27.5 Z"/></g>
<g><path style="opacity:1" fill="#a58651" d="M 41.5,32.5 C 42.1408,33.4822 42.8075,34.4822 43.5,35.5C 42.7573,36.1818 42.0906,36.8485 41.5,37.5C 41.5,38.1667 41.1667,38.5 40.5,38.5C 39.7808,36.6827 38.7808,36.0161 37.5,36.5C 38.7701,35.7124 39.7701,34.7124 40.5,33.5C 40.5,32.8333 40.8333,32.5 41.5,32.5 Z"/></g>
<g><path style="opacity:1" fill="#dac58b" d="M 54.5,32.5 C 55.1667,32.5 55.8333,32.5 56.5,32.5C 57.1667,33.1667 57.8333,33.8333 58.5,34.5C 58.5,35.1667 58.1667,35.5 57.5,35.5C 54.9368,35.7313 53.2702,37.0646 52.5,39.5C 51.8333,39.8333 51.1667,40.1667 50.5,40.5C 50.5,39.1667 50.5,37.8333 50.5,36.5C 52.7099,36.106 54.0432,34.7727 54.5,32.5 Z"/></g>
<g><path style="opacity:1" fill="#eae8d1" d="M 48.5,34.5 C 49.8333,34.5 50.5,35.1667 50.5,36.5C 50.5,37.8333 50.5,39.1667 50.5,40.5C 49.5,40.5 48.5,40.5 47.5,40.5C 47.5,39.8333 47.1667,39.5 46.5,39.5C 46.3915,37.4862 47.0582,35.8195 48.5,34.5 Z"/></g>
<g><path style="opacity:1" fill="#d7c684" d="M 58.5,34.5 C 58.8333,34.5 59.1667,34.5 59.5,34.5C 60.1667,34.5 60.5,34.8333 60.5,35.5C 60.5,36.8333 60.5,38.1667 60.5,39.5C 58.3227,40.5042 57.9893,39.8375 59.5,37.5C 58.8333,36.8333 58.1667,36.1667 57.5,35.5C 58.1667,35.5 58.5,35.1667 58.5,34.5 Z"/></g>
<g><path style="opacity:1" fill="#dbc080" d="M 59.5,34.5 C 59.5,33.8333 59.8333,33.5 60.5,33.5C 61.5,33.5 62.5,33.5 63.5,33.5C 63.5,34.8333 63.5,36.1667 63.5,37.5C 62.2223,37.2178 61.2223,36.5511 60.5,35.5C 60.5,34.8333 60.1667,34.5 59.5,34.5 Z"/></g>
<g><path style="opacity:1" fill="#5a3115" d="M 17.5,32.5 C 17.5,34.1667 17.5,35.8333 17.5,37.5C 17.573,39.0269 16.9063,40.0269 15.5,40.5C 15.5,38.8333 15.5,37.1667 15.5,35.5C 15.5,34.8333 15.5,34.1667 15.5,33.5C 16.1667,33.1667 16.8333,32.8333 17.5,32.5 Z"/></g>
<g><path style="opacity:1" fill="#e7d79b" d="M 57.5,35.5 C 58.1667,36.1667 58.8333,36.8333 59.5,37.5C 58.8333,37.5 58.1667,37.5 57.5,37.5C 55.6776,37.8308 54.0109,38.4975 52.5,39.5C 53.2702,37.0646 54.9368,35.7313 57.5,35.5 Z"/></g>
<g><path style="opacity:1" fill="#4b261b" d="M 0.5,32.5 C 1.16667,32.8333 1.83333,33.1667 2.5,33.5C 2.5,33.8333 2.5,34.1667 2.5,34.5C 2.5,38.1667 2.5,41.8333 2.5,45.5C 1.10008,44.9002 0.100078,43.9002 -0.5,42.5C -0.5,39.8333 -0.5,37.1667 -0.5,34.5C 0.338246,34.1583 0.67158,33.4916 0.5,32.5 Z"/></g>
<g><path style="opacity:1" fill="#c3955a" d="M 2.5,34.5 C 3.16667,34.5 3.83333,34.5 4.5,34.5C 4.5,35.1667 4.5,35.8333 4.5,36.5C 3.36594,38.9664 3.19927,41.633 4,44.5C 5.35613,45.3802 6.85613,45.7135 8.5,45.5C 6.5,46.8333 4.5,46.8333 2.5,45.5C 2.5,41.8333 2.5,38.1667 2.5,34.5 Z"/></g>
<g><path style="opacity:1" fill="#cca351" d="M 2.5,34.5 C 2.5,34.1667 2.5,33.8333 2.5,33.5C 6.83333,33.5 11.1667,33.5 15.5,33.5C 15.5,34.1667 15.5,34.8333 15.5,35.5C 14.6618,35.8417 14.3284,36.5084 14.5,37.5C 13.609,38.1098 12.609,38.4431 11.5,38.5C 10.791,37.596 9.79105,37.2627 8.5,37.5C 8.80393,36.8501 9.13727,36.1835 9.5,35.5C 7.95467,34.5481 6.28801,34.2148 4.5,34.5C 3.83333,34.5 3.16667,34.5 2.5,34.5 Z"/></g>
<g><path style="opacity:1" fill="#362215" d="M 29.5,33.5 C 29.8333,33.5 30.1667,33.5 30.5,33.5C 30.5,34.1667 30.5,34.8333 30.5,35.5C 30.5,36.1667 30.1667,36.5 29.5,36.5C 28.078,37.925 26.4113,38.925 24.5,39.5C 24.5,38.8333 24.5,38.1667 24.5,37.5C 24.5,37.1667 24.5,36.8333 24.5,36.5C 26.1788,36.7148 27.1788,36.0481 27.5,34.5C 28.1667,34.1667 28.8333,33.8333 29.5,33.5 Z"/></g>
<g><path style="opacity:1" fill="#8f6d3b" d="M 30.5,35.5 C 30.8333,35.5 31.1667,35.5 31.5,35.5C 31.8417,36.3382 32.5084,36.6716 33.5,36.5C 33.7148,38.1788 33.0481,39.1788 31.5,39.5C 30.1667,39.8333 28.8333,40.1667 27.5,40.5C 28.6005,39.3951 29.2671,38.0618 29.5,36.5C 30.1667,36.5 30.5,36.1667 30.5,35.5 Z"/></g>
<g><path style="opacity:1" fill="#977843" d="M 39.5,33.5 C 39.8333,33.5 40.1667,33.5 40.5,33.5C 39.7701,34.7124 38.7701,35.7124 37.5,36.5C 38.7808,36.0161 39.7808,36.6827 40.5,38.5C 39.1667,39.1667 38.1667,40.1667 37.5,41.5C 36.609,42.1098 35.609,42.4431 34.5,42.5C 33.9569,42.44 33.6236,42.1067 33.5,41.5C 35.297,40.3049 36.297,38.6382 36.5,36.5C 35.5,36.5 34.5,36.5 33.5,36.5C 34.6413,34.9124 36.1413,33.5791 38,32.5C 38.3826,33.056 38.8826,33.3893 39.5,33.5 Z"/></g>
<g><path style="opacity:1" fill="#ba8d3b" d="M 14.5,37.5 C 13.8333,39.1667 13.1667,40.8333 12.5,42.5C 11.8333,42.5 11.1667,42.5 10.5,42.5C 10.4326,41.0413 10.7659,39.7079 11.5,38.5C 12.609,38.4431 13.609,38.1098 14.5,37.5 Z"/></g>
<g><path style="opacity:1" fill="#d5b878" d="M 60.5,35.5 C 61.2223,36.5511 62.2223,37.2178 63.5,37.5C 63.5,38.8333 63.5,40.1667 63.5,41.5C 62.2618,42.4124 60.9285,42.5791 59.5,42C 61.6192,41.6582 61.9526,40.8249 60.5,39.5C 60.5,38.1667 60.5,36.8333 60.5,35.5 Z"/></g>
<g><path style="opacity:1" fill="#171010" d="M 24.5,36.5 C 24.5,36.8333 24.5,37.1667 24.5,37.5C 23.5,38.1667 22.5,38.8333 21.5,39.5C 18.8333,40.8333 18.1667,40.1667 19.5,37.5C 20.1667,37.5 20.5,37.1667 20.5,36.5C 20.8333,36.5 21.1667,36.5 21.5,36.5C 22.6522,35.375 23.6522,35.375 24.5,36.5 Z"/></g>
<g><path style="opacity:1" fill="#38281c" d="M 24.5,37.5 C 24.5,38.1667 24.5,38.8333 24.5,39.5C 23.4937,40.3957 23.4937,41.0623 24.5,41.5C 24.1667,42.1667 23.8333,42.8333 23.5,43.5C 22.609,42.8902 21.609,42.5569 20.5,42.5C 20.5,42.1667 20.5,41.8333 20.5,41.5C 21.3382,41.1583 21.6716,40.4916 21.5,39.5C 22.5,38.8333 23.5,38.1667 24.5,37.5 Z"/></g>
<g><path style="opacity:1" fill="#ab8a56" d="M 33.5,36.5 C 34.5,36.5 35.5,36.5 36.5,36.5C 36.297,38.6382 35.297,40.3049 33.5,41.5C 33.6236,42.1067 33.9569,42.44 34.5,42.5C 34.5,43.1667 34.1667,43.5 33.5,43.5C 32.8333,42.8333 32.1667,42.1667 31.5,41.5C 31.5,40.8333 31.5,40.1667 31.5,39.5C 33.0481,39.1788 33.7148,38.1788 33.5,36.5 Z"/></g>
<g><path style="opacity:1" fill="#c99a48" d="M 8.5,37.5 C 9.79105,37.2627 10.791,37.596 11.5,38.5C 10.7659,39.7079 10.4326,41.0413 10.5,42.5C 10.1667,42.5 9.83333,42.5 9.5,42.5C 9.3502,40.9405 9.01686,39.2739 8.5,37.5 Z"/></g>
<g><path style="opacity:1" fill="#1f1410" d="M 17.5,37.5 C 17.8333,37.5 18.1667,37.5 18.5,37.5C 18.8333,37.5 19.1667,37.5 19.5,37.5C 18.1667,40.1667 18.8333,40.8333 21.5,39.5C 21.6716,40.4916 21.3382,41.1583 20.5,41.5C 19.391,41.5569 18.391,41.8902 17.5,42.5C 17.1583,41.6618 16.4916,41.3284 15.5,41.5C 15.5,41.1667 15.5,40.8333 15.5,40.5C 16.9063,40.0269 17.573,39.0269 17.5,37.5 Z"/></g>
<g><path style="opacity:1" fill="#7b5c35" d="M 29.5,36.5 C 29.2671,38.0618 28.6005,39.3951 27.5,40.5C 26.7784,40.9175 26.2784,41.5842 26,42.5C 25.6174,41.944 25.1174,41.6107 24.5,41.5C 23.4937,41.0623 23.4937,40.3957 24.5,39.5C 26.4113,38.925 28.078,37.925 29.5,36.5 Z"/></g>
<g><path style="opacity:1" fill="#997944" d="M 31.5,39.5 C 31.5,40.1667 31.5,40.8333 31.5,41.5C 30.5,42.5 29.5,43.5 28.5,44.5C 27.8333,44.8333 27.1667,45.1667 26.5,45.5C 25.6348,45.4361 24.6348,45.1027 23.5,44.5C 23.5,44.1667 23.5,43.8333 23.5,43.5C 23.8333,42.8333 24.1667,42.1667 24.5,41.5C 25.1174,41.6107 25.6174,41.944 26,42.5C 26.2784,41.5842 26.7784,40.9175 27.5,40.5C 28.8333,40.1667 30.1667,39.8333 31.5,39.5 Z"/></g>
<g><path style="opacity:1" fill="#ccb076" d="M 41.5,37.5 C 42.1667,37.5 42.8333,37.5 43.5,37.5C 42.0719,40.3498 42.7386,41.3498 45.5,40.5C 45.5,41.1667 45.5,41.8333 45.5,42.5C 44.5,42.5 43.5,42.5 42.5,42.5C 41.4324,41.5655 40.099,41.2322 38.5,41.5C 38.1667,41.5 37.8333,41.5 37.5,41.5C 38.1667,40.1667 39.1667,39.1667 40.5,38.5C 41.1667,38.5 41.5,38.1667 41.5,37.5 Z"/></g>
<g><path style="opacity:1" fill="#c29860" d="M 15.5,35.5 C 15.5,37.1667 15.5,38.8333 15.5,40.5C 15.5,40.8333 15.5,41.1667 15.5,41.5C 14.391,41.5569 13.391,41.8902 12.5,42.5C 13.1667,40.8333 13.8333,39.1667 14.5,37.5C 14.3284,36.5084 14.6618,35.8417 15.5,35.5 Z"/></g>
<g><path style="opacity:1" fill="#a1834c" d="M 31.5,41.5 C 32.1667,42.1667 32.8333,42.8333 33.5,43.5C 33.5,43.8333 33.5,44.1667 33.5,44.5C 32.0413,44.4326 30.7079,44.7659 29.5,45.5C 29.5,44.8333 29.1667,44.5 28.5,44.5C 29.5,43.5 30.5,42.5 31.5,41.5 Z"/></g>
<g><path style="opacity:1" fill="#e2d398" d="M 57.5,37.5 C 57.5,38.1667 57.5,38.8333 57.5,39.5C 55.847,39.6596 54.5137,40.3263 53.5,41.5C 52.8333,42.1667 52.1667,42.8333 51.5,43.5C 51.1667,43.5 50.8333,43.5 50.5,43.5C 50.1667,43.5 49.8333,43.5 49.5,43.5C 49.2178,42.2223 48.5511,41.2223 47.5,40.5C 48.5,40.5 49.5,40.5 50.5,40.5C 51.1667,40.1667 51.8333,39.8333 52.5,39.5C 54.0109,38.4975 55.6776,37.8308 57.5,37.5 Z"/></g>
<g><path style="opacity:1" fill="#e1cc89" d="M 57.5,37.5 C 58.1667,37.5 58.8333,37.5 59.5,37.5C 57.9893,39.8375 58.3227,40.5042 60.5,39.5C 61.9526,40.8249 61.6192,41.6582 59.5,42C 60.9285,42.5791 62.2618,42.4124 63.5,41.5C 63.5,42.5 63.5,43.5 63.5,44.5C 62.609,45.1098 61.609,45.4431 60.5,45.5C 59.36,44.1986 58.0267,43.0319 56.5,42C 57.2524,41.3292 57.5858,40.4959 57.5,39.5C 57.5,38.8333 57.5,38.1667 57.5,37.5 Z"/></g>
<g><path style="opacity:1" fill="#c49449" d="M 4.5,36.5 C 5.16667,36.8333 5.83333,37.1667 6.5,37.5C 7.53608,39.3911 7.53608,41.2245 6.5,43C 8.30364,44.8122 9.30364,44.6456 9.5,42.5C 9.83333,42.5 10.1667,42.5 10.5,42.5C 11.1667,42.5 11.8333,42.5 12.5,42.5C 12.1667,43.1667 11.8333,43.8333 11.5,44.5C 10.8333,44.8333 10.1667,45.1667 9.5,45.5C 9.16667,45.5 8.83333,45.5 8.5,45.5C 6.85613,45.7135 5.35613,45.3802 4,44.5C 3.19927,41.633 3.36594,38.9664 4.5,36.5 Z"/></g>
<g><path style="opacity:1" fill="#d8a955" d="M 6.5,37.5 C 7.16667,37.5 7.83333,37.5 8.5,37.5C 9.01686,39.2739 9.3502,40.9405 9.5,42.5C 9.30364,44.6456 8.30364,44.8122 6.5,43C 7.53608,41.2245 7.53608,39.3911 6.5,37.5 Z"/></g>
<g><path style="opacity:1" fill="#19130c" d="M 15.5,41.5 C 16.4916,41.3284 17.1583,41.6618 17.5,42.5C 16.8333,43.1667 16.1667,43.8333 15.5,44.5C 14.1667,44.5 12.8333,44.5 11.5,44.5C 11.8333,43.8333 12.1667,43.1667 12.5,42.5C 13.391,41.8902 14.391,41.5569 15.5,41.5 Z"/></g>
<g><path style="opacity:1" fill="#2f1f15" d="M 20.5,41.5 C 20.5,41.8333 20.5,42.1667 20.5,42.5C 19.6935,43.7281 18.6935,44.7281 17.5,45.5C 16.8333,45.5 16.1667,45.5 15.5,45.5C 15.5,45.1667 15.5,44.8333 15.5,44.5C 16.1667,43.8333 16.8333,43.1667 17.5,42.5C 18.391,41.8902 19.391,41.5569 20.5,41.5 Z"/></g>
<g><path style="opacity:1" fill="#ae8a56" d="M 46.5,39.5 C 47.1667,39.5 47.5,39.8333 47.5,40.5C 48.5511,41.2223 49.2178,42.2223 49.5,43.5C 48.1667,43.5 46.8333,43.5 45.5,43.5C 45.5,43.1667 45.5,42.8333 45.5,42.5C 45.5,41.8333 45.5,41.1667 45.5,40.5C 45.5,39.8333 45.8333,39.5 46.5,39.5 Z"/></g>
<g><path style="opacity:1" fill="#e2dc9e" d="M 53.5,41.5 C 54.1667,41.5 54.5,41.8333 54.5,42.5C 54.8925,44.2838 55.5592,45.9505 56.5,47.5C 55.6618,47.8417 55.3284,48.5084 55.5,49.5C 54.1798,47.5368 52.8465,45.5368 51.5,43.5C 52.1667,42.8333 52.8333,42.1667 53.5,41.5 Z"/></g>
<g><path style="opacity:1" fill="#dac987" d="M 57.5,39.5 C 57.5858,40.4959 57.2524,41.3292 56.5,42C 58.0267,43.0319 59.36,44.1986 60.5,45.5C 59.8333,45.5 59.1667,45.5 58.5,45.5C 57.4739,44.147 56.1405,43.147 54.5,42.5C 54.5,41.8333 54.1667,41.5 53.5,41.5C 54.5137,40.3263 55.847,39.6596 57.5,39.5 Z"/></g>
<g><path style="opacity:1" fill="#f0daa2" d="M 38.5,41.5 C 40.099,41.2322 41.4324,41.5655 42.5,42.5C 41.8333,43.1667 41.1667,43.8333 40.5,44.5C 39.2905,44.9321 38.2905,45.5987 37.5,46.5C 36.8333,46.5 36.5,46.1667 36.5,45.5C 37.1667,44.1667 37.8333,42.8333 38.5,41.5 Z"/></g>
<g><path style="opacity:1" fill="#d0b37c" d="M 37.5,41.5 C 37.8333,41.5 38.1667,41.5 38.5,41.5C 37.8333,42.8333 37.1667,44.1667 36.5,45.5C 35.0209,46.759 33.3542,47.759 31.5,48.5C 31.5,48.1667 31.5,47.8333 31.5,47.5C 32.9063,47.0269 33.573,46.0269 33.5,44.5C 33.5,44.1667 33.5,43.8333 33.5,43.5C 34.1667,43.5 34.5,43.1667 34.5,42.5C 35.609,42.4431 36.609,42.1098 37.5,41.5 Z"/></g>
<g><path style="opacity:1" fill="#cbaa6a" d="M 45.5,43.5 C 46.8333,43.5 48.1667,43.5 49.5,43.5C 49.8333,43.5 50.1667,43.5 50.5,43.5C 50.5,44.1667 50.5,44.8333 50.5,45.5C 49.8826,45.3893 49.3826,45.056 49,44.5C 48.5,45.6667 47.6667,46.5 46.5,47C 47.9007,47.4101 49.234,47.9101 50.5,48.5C 49.8333,49.1667 49.1667,49.8333 48.5,50.5C 48.1667,50.5 47.8333,50.5 47.5,50.5C 46.7375,49.7321 45.7375,49.2321 44.5,49C 45.3802,47.6439 45.7135,46.1439 45.5,44.5C 45.5,44.1667 45.5,43.8333 45.5,43.5 Z"/></g>
<g><path style="opacity:1" fill="#967342" d="M 23.5,44.5 C 24.6348,45.1027 25.6348,45.4361 26.5,45.5C 25.5,46.1667 24.5,46.8333 23.5,47.5C 22.2022,48.1157 21.2022,48.1157 20.5,47.5C 19.8049,45.5627 20.8049,44.5627 23.5,44.5 Z"/></g>
<g><path style="opacity:1" fill="#c09e68" d="M 28.5,44.5 C 29.1667,44.5 29.5,44.8333 29.5,45.5C 29.5,46.1667 29.5,46.8333 29.5,47.5C 27.4727,48.8606 25.806,50.5273 24.5,52.5C 23.5,52.5 22.5,52.5 21.5,52.5C 21.1961,51.8501 20.8627,51.1835 20.5,50.5C 21.9935,49.8589 22.9935,48.8589 23.5,47.5C 24.5,46.8333 25.5,46.1667 26.5,45.5C 27.1667,45.1667 27.8333,44.8333 28.5,44.5 Z"/></g>
<g><path style="opacity:1" fill="#dbb97b" d="M 50.5,45.5 C 50.9528,46.4584 51.6195,47.2917 52.5,48C 51.9056,48.4643 51.2389,48.631 50.5,48.5C 49.234,47.9101 47.9007,47.4101 46.5,47C 47.6667,46.5 48.5,45.6667 49,44.5C 49.3826,45.056 49.8826,45.3893 50.5,45.5 Z"/></g>
<g><path style="opacity:1" fill="#ded696" d="M 54.5,42.5 C 56.1405,43.147 57.4739,44.147 58.5,45.5C 58.1667,46.5 57.5,47.1667 56.5,47.5C 55.5592,45.9505 54.8925,44.2838 54.5,42.5 Z"/></g>
<g><path style="opacity:1" fill="#e7dea6" d="M 58.5,45.5 C 59.1667,45.5 59.8333,45.5 60.5,45.5C 59.5946,46.9643 59.5946,48.2976 60.5,49.5C 58.7659,48.438 57.0992,48.438 55.5,49.5C 55.3284,48.5084 55.6618,47.8417 56.5,47.5C 57.5,47.1667 58.1667,46.5 58.5,45.5 Z"/></g>
<g><path style="opacity:1" fill="#161514" d="M 11.5,44.5 C 12.8333,44.5 14.1667,44.5 15.5,44.5C 15.5,44.8333 15.5,45.1667 15.5,45.5C 13.2282,46.927 11.0615,48.5937 9,50.5C 8.51722,51.448 8.35055,52.448 8.5,53.5C 8.16667,53.5 7.83333,53.5 7.5,53.5C 7.87988,51.302 7.21321,49.6354 5.5,48.5C 7.21914,47.9779 8.55247,46.9779 9.5,45.5C 10.1667,45.1667 10.8333,44.8333 11.5,44.5 Z"/></g>
<g><path style="opacity:1" fill="#654827" d="M 20.5,42.5 C 21.609,42.5569 22.609,42.8902 23.5,43.5C 23.5,43.8333 23.5,44.1667 23.5,44.5C 20.8049,44.5627 19.8049,45.5627 20.5,47.5C 20.1667,47.5 19.8333,47.5 19.5,47.5C 18.1667,48.1667 16.8333,48.8333 15.5,49.5C 15.5,48.8333 15.5,48.1667 15.5,47.5C 16.5,47.1667 17.1667,46.5 17.5,45.5C 18.6935,44.7281 19.6935,43.7281 20.5,42.5 Z"/></g>
<g><path style="opacity:1" fill="#c6a872" d="M 33.5,44.5 C 33.573,46.0269 32.9063,47.0269 31.5,47.5C 30.8333,47.5 30.1667,47.5 29.5,47.5C 29.5,46.8333 29.5,46.1667 29.5,45.5C 30.7079,44.7659 32.0413,44.4326 33.5,44.5 Z"/></g>
<g><path style="opacity:1" fill="#d0a96a" d="M 42.5,42.5 C 43.5,42.5 44.5,42.5 45.5,42.5C 45.5,42.8333 45.5,43.1667 45.5,43.5C 45.5,43.8333 45.5,44.1667 45.5,44.5C 42.8653,45.5796 40.8653,47.2463 39.5,49.5C 39.5,48.8333 39.1667,48.5 38.5,48.5C 39.6005,47.3951 40.2671,46.0618 40.5,44.5C 41.1667,43.8333 41.8333,43.1667 42.5,42.5 Z"/></g>
<g><path style="opacity:1" fill="#4c352d" d="M -0.5,42.5 C 0.100078,43.9002 1.10008,44.9002 2.5,45.5C 4.5,46.8333 6.5,46.8333 8.5,45.5C 8.83333,45.5 9.16667,45.5 9.5,45.5C 8.55247,46.9779 7.21914,47.9779 5.5,48.5C 4.19786,50.8218 2.19786,52.1551 -0.5,52.5C -0.5,49.1667 -0.5,45.8333 -0.5,42.5 Z"/></g>
<g><path style="opacity:1" fill="#ddc38b" d="M 29.5,47.5 C 30.1667,47.5 30.8333,47.5 31.5,47.5C 31.5,47.8333 31.5,48.1667 31.5,48.5C 31.1667,48.5 30.8333,48.5 30.5,48.5C 29.1877,49.8123 27.8543,51.1457 26.5,52.5C 26.9569,53.2975 27.6236,53.6309 28.5,53.5C 27.2112,54.6366 26.2112,55.9699 25.5,57.5C 24.8333,57.5 24.1667,57.5 23.5,57.5C 23.3893,56.8826 23.056,56.3826 22.5,56C 23.8228,55.1841 24.4894,54.0174 24.5,52.5C 25.806,50.5273 27.4727,48.8606 29.5,47.5 Z"/></g>
<g><path style="opacity:1" fill="#e0cb8f" d="M 36.5,45.5 C 36.5,46.1667 36.8333,46.5 37.5,46.5C 36.3065,47.2719 35.3065,48.2719 34.5,49.5C 33.5,49.8333 32.8333,50.5 32.5,51.5C 31.8333,51.8333 31.1667,52.1667 30.5,52.5C 30.5,51.1667 30.5,49.8333 30.5,48.5C 30.8333,48.5 31.1667,48.5 31.5,48.5C 33.3542,47.759 35.0209,46.759 36.5,45.5 Z"/></g>
<g><path style="opacity:1" fill="#a68448" d="M 40.5,44.5 C 40.2671,46.0618 39.6005,47.3951 38.5,48.5C 37.8333,48.5 37.5,48.8333 37.5,49.5C 36.2022,50.1157 35.2022,50.1157 34.5,49.5C 35.3065,48.2719 36.3065,47.2719 37.5,46.5C 38.2905,45.5987 39.2905,44.9321 40.5,44.5 Z"/></g>
<g><path style="opacity:1" fill="#d9c080" d="M 50.5,43.5 C 50.8333,43.5 51.1667,43.5 51.5,43.5C 52.8465,45.5368 54.1798,47.5368 55.5,49.5C 55.8333,50.1667 56.1667,50.8333 56.5,51.5C 55.0413,51.4326 53.7079,51.7659 52.5,52.5C 51.3951,51.3995 50.0618,50.7329 48.5,50.5C 49.1667,49.8333 49.8333,49.1667 50.5,48.5C 51.2389,48.631 51.9056,48.4643 52.5,48C 51.6195,47.2917 50.9528,46.4584 50.5,45.5C 50.5,44.8333 50.5,44.1667 50.5,43.5 Z"/></g>
<g><path style="opacity:1" fill="#d7bd7c" d="M 63.5,44.5 C 63.5,46.8333 63.5,49.1667 63.5,51.5C 62.8333,51.5 62.1667,51.5 61.5,51.5C 61.5,50.8333 61.1667,50.5 60.5,50.5C 60.5,50.1667 60.5,49.8333 60.5,49.5C 59.5946,48.2976 59.5946,46.9643 60.5,45.5C 61.609,45.4431 62.609,45.1098 63.5,44.5 Z"/></g>
<g><path style="opacity:1" fill="#181717" d="M 5.5,48.5 C 7.21321,49.6354 7.87988,51.302 7.5,53.5C 5.5,52.1667 3.5,52.1667 1.5,53.5C 0.833333,53.5 0.166667,53.5 -0.5,53.5C -0.5,53.1667 -0.5,52.8333 -0.5,52.5C 2.19786,52.1551 4.19786,50.8218 5.5,48.5 Z"/></g>
<g><path style="opacity:1" fill="#271814" d="M 15.5,45.5 C 16.1667,45.5 16.8333,45.5 17.5,45.5C 17.1667,46.5 16.5,47.1667 15.5,47.5C 13.4514,48.8818 11.7847,50.5484 10.5,52.5C 9.83333,52.5 9.5,52.8333 9.5,53.5C 9.16667,53.5 8.83333,53.5 8.5,53.5C 8.35055,52.448 8.51722,51.448 9,50.5C 11.0615,48.5937 13.2282,46.927 15.5,45.5 Z"/></g>
<g><path style="opacity:1" fill="#623d25" d="M 15.5,47.5 C 15.5,48.1667 15.5,48.8333 15.5,49.5C 14.4489,50.2223 13.7822,51.2223 13.5,52.5C 12.8333,53.1667 12.1667,53.8333 11.5,54.5C 10.6618,54.1583 10.3284,53.4916 10.5,52.5C 11.7847,50.5484 13.4514,48.8818 15.5,47.5 Z"/></g>
<g><path style="opacity:1" fill="#ddc380" d="M 45.5,44.5 C 45.7135,46.1439 45.3802,47.6439 44.5,49C 45.7375,49.2321 46.7375,49.7321 47.5,50.5C 46.3115,51.0476 45.1448,51.3809 44,51.5C 43.6667,50.8333 43.3333,50.1667 43,49.5C 42.2917,50.3805 41.4584,51.0472 40.5,51.5C 40.5,50.8333 40.1667,50.5 39.5,50.5C 39.5,50.1667 39.5,49.8333 39.5,49.5C 40.8653,47.2463 42.8653,45.5796 45.5,44.5 Z"/></g>
<g><path style="opacity:1" fill="#ece7c9" d="M 60.5,49.5 C 60.5,49.8333 60.5,50.1667 60.5,50.5C 59.713,52.1042 58.3797,52.7709 56.5,52.5C 56.5,52.1667 56.5,51.8333 56.5,51.5C 56.1667,50.8333 55.8333,50.1667 55.5,49.5C 57.0992,48.438 58.7659,48.438 60.5,49.5 Z"/></g>
<g><path style="opacity:1" fill="#926f38" d="M 19.5,47.5 C 19.0113,48.9952 18.3446,50.3285 17.5,51.5C 16.6618,51.8417 16.3284,52.5084 16.5,53.5C 15.7784,53.0825 15.2784,52.4158 15,51.5C 14.6174,52.056 14.1174,52.3893 13.5,52.5C 13.7822,51.2223 14.4489,50.2223 15.5,49.5C 16.8333,48.8333 18.1667,48.1667 19.5,47.5 Z"/></g>
<g><path style="opacity:1" fill="#e1ce94" d="M 30.5,48.5 C 30.5,49.8333 30.5,51.1667 30.5,52.5C 29.8333,52.5 29.5,52.8333 29.5,53.5C 29.1667,53.5 28.8333,53.5 28.5,53.5C 27.6236,53.6309 26.9569,53.2975 26.5,52.5C 27.8543,51.1457 29.1877,49.8123 30.5,48.5 Z"/></g>
<g><path style="opacity:1" fill="#e1d18d" d="M 47.5,50.5 C 47.8333,50.5 48.1667,50.5 48.5,50.5C 50.0618,50.7329 51.3951,51.3995 52.5,52.5C 52.5,52.8333 52.5,53.1667 52.5,53.5C 51.8333,53.5 51.1667,53.5 50.5,53.5C 48.64,52.9285 46.9733,52.9285 45.5,53.5C 43.7839,53.3713 42.1172,53.038 40.5,52.5C 40.5,52.1667 40.5,51.8333 40.5,51.5C 41.4584,51.0472 42.2917,50.3805 43,49.5C 43.3333,50.1667 43.6667,50.8333 44,51.5C 45.1448,51.3809 46.3115,51.0476 47.5,50.5 Z"/></g>
<g><path style="opacity:1" fill="#ae8e55" d="M 19.5,47.5 C 19.8333,47.5 20.1667,47.5 20.5,47.5C 21.2022,48.1157 22.2022,48.1157 23.5,47.5C 22.9935,48.8589 21.9935,49.8589 20.5,50.5C 20.8627,51.1835 21.1961,51.8501 21.5,52.5C 21.5,52.8333 21.5,53.1667 21.5,53.5C 19.5168,53.8432 18.1834,53.1765 17.5,51.5C 18.3446,50.3285 19.0113,48.9952 19.5,47.5 Z"/></g>
<g><path style="opacity:1" fill="#9a723b" d="M 34.5,49.5 C 35.2022,50.1157 36.2022,50.1157 37.5,49.5C 36.6548,53.4457 34.9882,54.1123 32.5,51.5C 32.8333,50.5 33.5,49.8333 34.5,49.5 Z"/></g>
<g><path style="opacity:1" fill="#deca87" d="M 40.5,52.5 C 42.1172,53.038 43.7839,53.3713 45.5,53.5C 45.5,54.1667 45.1667,54.5 44.5,54.5C 43.6618,54.8417 43.3284,55.5084 43.5,56.5C 41.7376,55.7377 40.7376,54.4044 40.5,52.5 Z"/></g>
<g><path style="opacity:1" fill="#90703c" d="M 16.5,53.5 C 13.8999,54.9689 14.2332,55.9689 17.5,56.5C 17.5,56.8333 17.5,57.1667 17.5,57.5C 15.9699,58.2112 14.6366,59.2112 13.5,60.5C 10.6345,58.4582 10.9679,57.2915 14.5,57C 12.8807,56.7645 11.8807,55.9311 11.5,54.5C 12.1667,53.8333 12.8333,53.1667 13.5,52.5C 14.1174,52.3893 14.6174,52.056 15,51.5C 15.2784,52.4158 15.7784,53.0825 16.5,53.5 Z"/></g>
<g><path style="opacity:1" fill="#a88851" d="M 17.5,51.5 C 18.1834,53.1765 19.5168,53.8432 21.5,53.5C 21.5,53.8333 21.5,54.1667 21.5,54.5C 19.9382,54.7329 18.6049,55.3995 17.5,56.5C 14.2332,55.9689 13.8999,54.9689 16.5,53.5C 16.3284,52.5084 16.6618,51.8417 17.5,51.5 Z"/></g>
<g><path style="opacity:1" fill="#b38e55" d="M 38.5,48.5 C 39.1667,48.5 39.5,48.8333 39.5,49.5C 39.5,49.8333 39.5,50.1667 39.5,50.5C 38.8333,52.5 37.5,53.8333 35.5,54.5C 34.8333,54.5 34.1667,54.5 33.5,54.5C 33.1667,54.5 32.8333,54.5 32.5,54.5C 32.5,53.5 32.5,52.5 32.5,51.5C 34.9882,54.1123 36.6548,53.4457 37.5,49.5C 37.5,48.8333 37.8333,48.5 38.5,48.5 Z"/></g>
<g><path style="opacity:1" fill="#e7dd99" d="M 50.5,53.5 C 50.1667,54.5 49.5,55.1667 48.5,55.5C 47.1779,55.33 46.0113,55.6634 45,56.5C 44.5357,55.9056 44.369,55.2389 44.5,54.5C 45.1667,54.5 45.5,54.1667 45.5,53.5C 46.9733,52.9285 48.64,52.9285 50.5,53.5 Z"/></g>
<g><path style="opacity:1" fill="#ceac6d" d="M 61.5,51.5 C 62.1667,51.5 62.8333,51.5 63.5,51.5C 63.5,53.1667 63.5,54.8333 63.5,56.5C 61.7973,57.6602 61.1307,56.9935 61.5,54.5C 62.8333,53.5 62.8333,52.5 61.5,51.5 Z"/></g>
<g><path style="opacity:1" fill="#a17a45" d="M 32.5,51.5 C 32.5,52.5 32.5,53.5 32.5,54.5C 31.7784,54.9175 31.2784,55.5842 31,56.5C 30.6174,55.944 30.1174,55.6107 29.5,55.5C 29.5,54.8333 29.5,54.1667 29.5,53.5C 29.5,52.8333 29.8333,52.5 30.5,52.5C 31.1667,52.1667 31.8333,51.8333 32.5,51.5 Z"/></g>
<g><path style="opacity:1" fill="#e6e4d7" d="M 7.5,53.5 C 7.83333,53.5 8.16667,53.5 8.5,53.5C 8.83333,53.5 9.16667,53.5 9.5,53.5C 10.8333,55.1667 10.8333,56.8333 9.5,58.5C 9.16667,58.5 8.83333,58.5 8.5,58.5C 6.89837,56.9261 4.89837,56.2594 2.5,56.5C 2.5,55.8333 2.16667,55.5 1.5,55.5C 1.5,54.8333 1.5,54.1667 1.5,53.5C 3.5,52.1667 5.5,52.1667 7.5,53.5 Z"/></g>
<g><path style="opacity:1" fill="#654a2c" d="M 10.5,52.5 C 10.3284,53.4916 10.6618,54.1583 11.5,54.5C 11.8807,55.9311 12.8807,56.7645 14.5,57C 10.9679,57.2915 10.6345,58.4582 13.5,60.5C 14.1667,61.5 14.8333,62.5 15.5,63.5C 14.5,63.5 13.5,63.5 12.5,63.5C 11.925,61.5887 10.925,59.922 9.5,58.5C 10.8333,56.8333 10.8333,55.1667 9.5,53.5C 9.5,52.8333 9.83333,52.5 10.5,52.5 Z"/></g>
<g><path style="opacity:1" fill="#a58048" d="M 32.5,54.5 C 32.8333,54.5 33.1667,54.5 33.5,54.5C 33.573,56.0269 32.9063,57.0269 31.5,57.5C 29.6214,57.3932 29.2881,57.8932 30.5,59C 29.9341,59.9947 29.2674,60.828 28.5,61.5C 28.6716,60.5084 28.3382,59.8417 27.5,59.5C 27.2291,57.6203 27.8958,56.287 29.5,55.5C 30.1174,55.6107 30.6174,55.944 31,56.5C 31.2784,55.5842 31.7784,54.9175 32.5,54.5 Z"/></g>
<g><path style="opacity:1" fill="#dbbc7b" d="M 39.5,50.5 C 40.1667,50.5 40.5,50.8333 40.5,51.5C 40.5,51.8333 40.5,52.1667 40.5,52.5C 40.7376,54.4044 41.7376,55.7377 43.5,56.5C 43.8333,57.1667 44.1667,57.8333 44.5,58.5C 43.8333,59.5 43.1667,60.5 42.5,61.5C 41.5084,61.3284 40.8417,61.6618 40.5,62.5C 40.1667,62.5 39.8333,62.5 39.5,62.5C 39.3893,61.8826 39.056,61.3826 38.5,61C 39.8329,59.3627 41.1663,58.5293 42.5,58.5C 41.2713,57.7189 39.938,57.2189 38.5,57C 39.6956,56.3457 39.6956,55.8457 38.5,55.5C 37.5832,56.1272 36.5832,56.4606 35.5,56.5C 35.5,55.8333 35.5,55.1667 35.5,54.5C 37.5,53.8333 38.8333,52.5 39.5,50.5 Z"/></g>
<g><path style="opacity:1" fill="#a8854f" d="M 60.5,50.5 C 61.1667,50.5 61.5,50.8333 61.5,51.5C 62.8333,52.5 62.8333,53.5 61.5,54.5C 60.6554,55.6715 59.9887,57.0048 59.5,58.5C 58.609,57.8902 57.609,57.5569 56.5,57.5C 56.7373,56.209 56.404,55.209 55.5,54.5C 55.3284,53.5084 55.6618,52.8417 56.5,52.5C 58.3797,52.7709 59.713,52.1042 60.5,50.5 Z"/></g>
<g><path style="opacity:1" fill="#2b1813" d="M 1.5,55.5 C 2.16667,55.5 2.5,55.8333 2.5,56.5C 3.85298,57.5261 4.85298,58.8595 5.5,60.5C 5.5,60.8333 5.5,61.1667 5.5,61.5C 2.22441,60.8784 0.891077,58.8784 1.5,55.5 Z"/></g>
<g><path style="opacity:1" fill="#cfc3b1" d="M 2.5,56.5 C 4.89837,56.2594 6.89837,56.9261 8.5,58.5C 8.16667,59.1667 7.83333,59.8333 7.5,60.5C 6.83333,60.5 6.16667,60.5 5.5,60.5C 4.85298,58.8595 3.85298,57.5261 2.5,56.5 Z"/></g>
<g><path style="opacity:1" fill="#dfc18a" d="M 21.5,52.5 C 22.5,52.5 23.5,52.5 24.5,52.5C 24.4894,54.0174 23.8228,55.1841 22.5,56C 23.056,56.3826 23.3893,56.8826 23.5,57.5C 23.1583,58.3382 22.4916,58.6716 21.5,58.5C 21.0742,57.4721 21.0742,56.1388 21.5,54.5C 21.5,54.1667 21.5,53.8333 21.5,53.5C 21.5,53.1667 21.5,52.8333 21.5,52.5 Z"/></g>
<g><path style="opacity:1" fill="#ccac6c" d="M 39.5,62.5 C 38.0779,62.2504 37.0779,61.417 36.5,60C 38.8572,58.78 38.5239,57.9467 35.5,57.5C 35.5,57.1667 35.5,56.8333 35.5,56.5C 36.5832,56.4606 37.5832,56.1272 38.5,55.5C 39.6956,55.8457 39.6956,56.3457 38.5,57C 39.938,57.2189 41.2713,57.7189 42.5,58.5C 41.1663,58.5293 39.8329,59.3627 38.5,61C 39.056,61.3826 39.3893,61.8826 39.5,62.5 Z"/></g>
<g><path style="opacity:1" fill="#dec786" d="M 44.5,54.5 C 44.369,55.2389 44.5357,55.9056 45,56.5C 46.0113,55.6634 47.1779,55.33 48.5,55.5C 48.5,55.8333 48.5,56.1667 48.5,56.5C 47.1667,57.1667 45.8333,57.8333 44.5,58.5C 44.1667,57.8333 43.8333,57.1667 43.5,56.5C 43.3284,55.5084 43.6618,54.8417 44.5,54.5 Z"/></g>
<g><path style="opacity:1" fill="#d8bb79" d="M 50.5,53.5 C 51.1667,53.5 51.8333,53.5 52.5,53.5C 52.5,54.8333 52.5,56.1667 52.5,57.5C 51.209,57.2627 50.209,57.596 49.5,58.5C 48.6618,58.1583 48.3284,57.4916 48.5,56.5C 48.5,56.1667 48.5,55.8333 48.5,55.5C 49.5,55.1667 50.1667,54.5 50.5,53.5 Z"/></g>
<g><path style="opacity:1" fill="#bc995d" d="M 61.5,54.5 C 61.1307,56.9935 61.7973,57.6602 63.5,56.5C 63.5,58.1667 63.5,59.8333 63.5,61.5C 62.3634,60.2112 61.0301,59.2112 59.5,58.5C 59.9887,57.0048 60.6554,55.6715 61.5,54.5 Z"/></g>
<g><path style="opacity:1" fill="#c9ab75" d="M 21.5,54.5 C 21.0742,56.1388 21.0742,57.4721 21.5,58.5C 21.5,58.8333 21.5,59.1667 21.5,59.5C 19.6203,59.7709 18.287,59.1042 17.5,57.5C 17.5,57.1667 17.5,56.8333 17.5,56.5C 18.6049,55.3995 19.9382,54.7329 21.5,54.5 Z"/></g>
<g><path style="opacity:1" fill="#8c6b35" d="M 28.5,53.5 C 28.8333,53.5 29.1667,53.5 29.5,53.5C 29.5,54.1667 29.5,54.8333 29.5,55.5C 27.8958,56.287 27.2291,57.6203 27.5,59.5C 26.8333,59.5 26.1667,59.5 25.5,59.5C 25.1667,59.5 24.8333,59.5 24.5,59.5C 24.8333,58.8333 25.1667,58.1667 25.5,57.5C 26.2112,55.9699 27.2112,54.6366 28.5,53.5 Z"/></g>
<g><path style="opacity:1" fill="#cca769" d="M 56.5,51.5 C 56.5,51.8333 56.5,52.1667 56.5,52.5C 55.6618,52.8417 55.3284,53.5084 55.5,54.5C 54.6647,55.0358 54.6647,55.8691 55.5,57C 54.8699,58.3102 53.8699,59.1435 52.5,59.5C 51.791,58.596 50.791,58.2627 49.5,58.5C 50.209,57.596 51.209,57.2627 52.5,57.5C 52.5,56.1667 52.5,54.8333 52.5,53.5C 52.5,53.1667 52.5,52.8333 52.5,52.5C 53.7079,51.7659 55.0413,51.4326 56.5,51.5 Z"/></g>
<g><path style="opacity:1" fill="#c5a165" d="M 33.5,54.5 C 34.1667,54.5 34.8333,54.5 35.5,54.5C 35.5,55.1667 35.5,55.8333 35.5,56.5C 35.5,56.8333 35.5,57.1667 35.5,57.5C 34.6551,59.7619 33.3217,60.4286 31.5,59.5C 31.5,58.8333 31.5,58.1667 31.5,57.5C 32.9063,57.0269 33.573,56.0269 33.5,54.5 Z"/></g>
<g><path style="opacity:1" fill="#bc9658" d="M 48.5,56.5 C 48.3284,57.4916 48.6618,58.1583 49.5,58.5C 50.791,58.2627 51.791,58.596 52.5,59.5C 50.8762,59.3601 49.7096,60.0267 49,61.5C 47.9288,58.8875 47.0955,58.8875 46.5,61.5C 45.1667,61.5 43.8333,61.5 42.5,61.5C 43.1667,60.5 43.8333,59.5 44.5,58.5C 45.8333,57.8333 47.1667,57.1667 48.5,56.5 Z"/></g>
<g><path style="opacity:1" fill="#c8a366" d="M 56.5,57.5 C 57.609,57.5569 58.609,57.8902 59.5,58.5C 59.6107,59.1174 59.944,59.6174 60.5,60C 58.6763,60.66 57.343,61.8267 56.5,63.5C 56.1667,63.5 55.8333,63.5 55.5,63.5C 53.0035,61.4424 53.6702,60.2757 57.5,60C 56.7476,59.3292 56.4142,58.4959 56.5,57.5 Z"/></g>
<g><path style="opacity:1" fill="#b59367" d="M -0.5,53.5 C 0.166667,53.5 0.833333,53.5 1.5,53.5C 1.5,54.1667 1.5,54.8333 1.5,55.5C 0.891077,58.8784 2.22441,60.8784 5.5,61.5C 3.73535,62.4614 1.73535,62.7947 -0.5,62.5C -0.5,59.5 -0.5,56.5 -0.5,53.5 Z"/></g>
<g><path style="opacity:1" fill="#bfa36b" d="M 17.5,57.5 C 18.287,59.1042 19.6203,59.7709 21.5,59.5C 19.8608,60.4725 18.5274,61.8058 17.5,63.5C 16.8333,63.5 16.1667,63.5 15.5,63.5C 14.8333,62.5 14.1667,61.5 13.5,60.5C 14.6366,59.2112 15.9699,58.2112 17.5,57.5 Z"/></g>
<g><path style="opacity:1" fill="#bb9658" d="M 55.5,54.5 C 56.404,55.209 56.7373,56.209 56.5,57.5C 56.4142,58.4959 56.7476,59.3292 57.5,60C 53.6702,60.2757 53.0035,61.4424 55.5,63.5C 54.5,63.5 53.5,63.5 52.5,63.5C 52.0825,62.7784 51.4158,62.2784 50.5,62C 51.756,61.5831 52.4226,60.7498 52.5,59.5C 53.8699,59.1435 54.8699,58.3102 55.5,57C 54.6647,55.8691 54.6647,55.0358 55.5,54.5 Z"/></g>
<g><path style="opacity:1" fill="#1d1912" d="M 8.5,58.5 C 8.83333,58.5 9.16667,58.5 9.5,58.5C 10.925,59.922 11.925,61.5887 12.5,63.5C 10.8333,63.5 9.16667,63.5 7.5,63.5C 7.5,62.5 7.5,61.5 7.5,60.5C 7.83333,59.8333 8.16667,59.1667 8.5,58.5 Z"/></g>
<g><path style="opacity:1" fill="#876634" d="M 24.5,59.5 C 24.8333,59.5 25.1667,59.5 25.5,59.5C 25.8333,60.8333 26.1667,62.1667 26.5,63.5C 25.1667,63.5 23.8333,63.5 22.5,63.5C 22.9887,62.0048 23.6554,60.6715 24.5,59.5 Z"/></g>
<g><path style="opacity:1" fill="#9b7743" d="M 25.5,59.5 C 26.1667,59.5 26.8333,59.5 27.5,59.5C 28.3382,59.8417 28.6716,60.5084 28.5,61.5C 28.8333,62.1667 29.1667,62.8333 29.5,63.5C 28.5,63.5 27.5,63.5 26.5,63.5C 26.1667,62.1667 25.8333,60.8333 25.5,59.5 Z"/></g>
<g><path style="opacity:1" fill="#bf985d" d="M 31.5,57.5 C 31.5,58.1667 31.5,58.8333 31.5,59.5C 31.3505,60.552 31.5172,61.552 32,62.5C 33,62.1667 34,61.8333 35,61.5C 35.7172,62.0442 36.2172,62.7109 36.5,63.5C 34.1667,63.5 31.8333,63.5 29.5,63.5C 29.1667,62.8333 28.8333,62.1667 28.5,61.5C 29.2674,60.828 29.9341,59.9947 30.5,59C 29.2881,57.8932 29.6214,57.3932 31.5,57.5 Z"/></g>
<g><path style="opacity:1" fill="#d7b273" d="M 35.5,57.5 C 38.5239,57.9467 38.8572,58.78 36.5,60C 37.0779,61.417 38.0779,62.2504 39.5,62.5C 39.8333,62.5 40.1667,62.5 40.5,62.5C 40.5,62.8333 40.5,63.1667 40.5,63.5C 39.1667,63.5 37.8333,63.5 36.5,63.5C 36.2172,62.7109 35.7172,62.0442 35,61.5C 34,61.8333 33,62.1667 32,62.5C 31.5172,61.552 31.3505,60.552 31.5,59.5C 33.3217,60.4286 34.6551,59.7619 35.5,57.5 Z"/></g>
<g><path style="opacity:1" fill="#ad8951" d="M 59.5,58.5 C 61.0301,59.2112 62.3634,60.2112 63.5,61.5C 63.5,62.1667 63.5,62.8333 63.5,63.5C 61.1667,63.5 58.8333,63.5 56.5,63.5C 57.343,61.8267 58.6763,60.66 60.5,60C 59.944,59.6174 59.6107,59.1174 59.5,58.5 Z"/></g>
<g><path style="opacity:1" fill="#29190d" d="M 5.5,60.5 C 6.16667,60.5 6.83333,60.5 7.5,60.5C 7.5,61.5 7.5,62.5 7.5,63.5C 4.83333,63.5 2.16667,63.5 -0.5,63.5C -0.5,63.1667 -0.5,62.8333 -0.5,62.5C 1.73535,62.7947 3.73535,62.4614 5.5,61.5C 5.5,61.1667 5.5,60.8333 5.5,60.5 Z"/></g>
<g><path style="opacity:1" fill="#7a5928" d="M 23.5,57.5 C 24.1667,57.5 24.8333,57.5 25.5,57.5C 25.1667,58.1667 24.8333,58.8333 24.5,59.5C 23.6554,60.6715 22.9887,62.0048 22.5,63.5C 20.8333,63.5 19.1667,63.5 17.5,63.5C 18.5274,61.8058 19.8608,60.4725 21.5,59.5C 21.5,59.1667 21.5,58.8333 21.5,58.5C 22.4916,58.6716 23.1583,58.3382 23.5,57.5 Z"/></g>
<g><path style="opacity:1" fill="#b2894b" d="M 42.5,61.5 C 43.8333,61.5 45.1667,61.5 46.5,61.5C 46.8333,62.1667 47.1667,62.8333 47.5,63.5C 45.1667,63.5 42.8333,63.5 40.5,63.5C 40.5,63.1667 40.5,62.8333 40.5,62.5C 40.8417,61.6618 41.5084,61.3284 42.5,61.5 Z"/></g>
<g><path style="opacity:1" fill="#c9a164" d="M 52.5,59.5 C 52.4226,60.7498 51.756,61.5831 50.5,62C 51.4158,62.2784 52.0825,62.7784 52.5,63.5C 50.8333,63.5 49.1667,63.5 47.5,63.5C 47.1667,62.8333 46.8333,62.1667 46.5,61.5C 47.0955,58.8875 47.9288,58.8875 49,61.5C 49.7096,60.0267 50.8762,59.3601 52.5,59.5 Z"/></g>
</svg>
