<?xml version="1.0" encoding="UTF-8"?>
<!DOCTYPE svg PUBLIC "-//W3C//DTD SVG 1.1//EN" "http://www.w3.org/Graphics/SVG/1.1/DTD/svg11.dtd">
<svg xmlns="http://www.w3.org/2000/svg" version="1.1" width="64px" height="64px" style="shape-rendering:geometricPrecision; text-rendering:geometricPrecision; image-rendering:optimizeQuality; fill-rule:evenodd; clip-rule:evenodd" xmlns:xlink="http://www.w3.org/1999/xlink">
<g><path style="opacity:1" fill="#0059fa" d="M -0.5,12.5 C 0.166667,12.5 0.5,12.8333 0.5,13.5C 0.166667,13.1667 -0.166667,12.8333 -0.5,12.5 Z"/></g>
<g><path style="opacity:0.996" fill="#005afa" d="M 0.5,13.5 C 9.56991,17.2018 18.2366,21.7018 26.5,27C 26.1639,28.0299 25.4972,28.5299 24.5,28.5C 24.1583,27.6618 23.4916,27.3284 22.5,27.5C 21.2196,26.0687 19.5529,25.4021 17.5,25.5C 12.7111,22.9418 7.71111,20.6084 2.5,18.5C 1.04988,17.1502 0.383211,15.4835 0.5,13.5 Z"/></g>
<g><path style="opacity:0.98" fill="#005afa" d="M 63.5,12.5 C 63.5,12.8333 63.5,13.1667 63.5,13.5C 62.7895,15.4124 61.6229,17.079 60,18.5C 54.2487,21.1948 48.4154,23.6948 42.5,26C 48.3004,24.9008 53.967,23.0675 59.5,20.5C 60.4709,21.9621 60.1376,23.2954 58.5,24.5C 50.6863,27.7712 42.6863,30.4379 34.5,32.5C 34.5743,30.5891 35.5743,29.4224 37.5,29C 35.2985,28.2232 35.2985,27.0565 37.5,25.5C 46.2198,21.1401 54.8864,16.8068 63.5,12.5 Z"/></g>
<g><path style="opacity:0.99" fill="#005afa" d="M 30.5,16.5 C 33.3388,17.1756 35.0054,19.0089 35.5,22C 34.2986,24.9025 32.9652,27.7358 31.5,30.5C 30.0348,27.7358 28.7014,24.9025 27.5,22C 28.1242,19.9149 29.1242,18.0816 30.5,16.5 Z"/></g>
<g><path style="opacity:0.972" fill="#005afa" d="M 17.5,25.5 C 18.7804,26.9313 20.4471,27.5979 22.5,27.5C 22.8417,28.3382 23.5084,28.6716 24.5,28.5C 26.8888,29.0537 28.5555,30.5537 29.5,33C 28.9056,33.4643 28.2389,33.631 27.5,33.5C 26.791,32.596 25.791,32.2627 24.5,32.5C 18.1261,29.5376 11.4594,27.0376 4.5,25C 2.98607,23.561 2.65273,22.061 3.5,20.5C 8.0501,22.5717 12.7168,24.2383 17.5,25.5 Z"/></g>
<g><path style="opacity:0.975" fill="#035bfa" d="M 24.5,32.5 C 25.209,33.404 26.209,33.7373 27.5,33.5C 28.8675,34.3063 30.2008,35.3063 31.5,36.5C 40.0466,32.4851 48.8799,29.1517 58,26.5C 58.3374,28.807 57.504,30.6403 55.5,32C 47.3587,33.9615 39.192,35.7949 31,37.5C 23.1157,35.904 15.2823,34.0707 7.5,32C 5.49597,30.6403 4.66263,28.807 5,26.5C 11.2819,29.1957 17.7819,31.1957 24.5,32.5 Z"/></g>
<g><path style="opacity:1" fill="#0059fa" d="M 34.5,32.5 C 33.8333,33.1667 33.8333,33.1667 34.5,32.5 Z"/></g>
<g><path style="opacity:0.996" fill="#005afa" d="M 30.5,38.5 C 33.2178,41.5887 35.2178,45.2554 36.5,49.5C 35.2233,52.1103 33.5566,54.4437 31.5,56.5C 29.4434,54.4437 27.7767,52.1103 26.5,49.5C 28.129,45.9149 29.4623,42.2482 30.5,38.5 Z"/></g>
</svg>
