<?xml version="1.0" encoding="UTF-8"?>
<!DOCTYPE svg PUBLIC "-//W3C//DTD SVG 1.1//EN" "http://www.w3.org/Graphics/SVG/1.1/DTD/svg11.dtd">
<svg xmlns="http://www.w3.org/2000/svg" version="1.1" width="64px" height="64px" style="shape-rendering:geometricPrecision; text-rendering:geometricPrecision; image-rendering:optimizeQuality; fill-rule:evenodd; clip-rule:evenodd" xmlns:xlink="http://www.w3.org/1999/xlink">
<g><path style="opacity:1" fill="#7dc900" d="M 40.5,10.5 C 37.5,10.5 34.5,10.5 31.5,10.5C 28.5,10.5 25.5,10.5 22.5,10.5C 25.0866,9.18363 28.0866,8.51697 31.5,8.5C 34.9134,8.51697 37.9134,9.18363 40.5,10.5 Z"/></g>
<g><path style="opacity:1" fill="#e9fd7e" d="M 22.5,10.5 C 25.5,10.5 28.5,10.5 31.5,10.5C 28.7626,11.0515 26.0959,12.0515 23.5,13.5C 23.1667,14.1667 22.8333,14.8333 22.5,15.5C 23.9059,17.1777 25.2392,18.8443 26.5,20.5C 23.8333,20.5 21.1667,20.5 18.5,20.5C 16.9103,18.179 14.5769,17.179 11.5,17.5C 11.5,16.1667 11.5,14.8333 11.5,13.5C 13.4832,13.8432 14.8166,13.1765 15.5,11.5C 17.6074,10.5318 19.9407,10.1984 22.5,10.5 Z"/></g>
<g><path style="opacity:1" fill="#b3e804" d="M 31.5,10.5 C 34.5,10.5 37.5,10.5 40.5,10.5C 43.0593,10.1984 45.3926,10.5318 47.5,11.5C 48.1834,13.1765 49.5168,13.8432 51.5,13.5C 52.8333,13.5 53.5,14.1667 53.5,15.5C 51.8784,16.1224 50.5451,17.1224 49.5,18.5C 47.5168,18.1568 46.1834,18.8235 45.5,20.5C 42.6122,19.9898 40.2789,20.6565 38.5,22.5C 36.1667,22.5 33.8333,22.5 31.5,22.5C 30.4479,20.744 28.7812,20.0773 26.5,20.5C 25.2392,18.8443 23.9059,17.1777 22.5,15.5C 22.8333,14.8333 23.1667,14.1667 23.5,13.5C 26.0959,12.0515 28.7626,11.0515 31.5,10.5 Z"/></g>
<g><path style="opacity:1" fill="#9ddb02" d="M 15.5,11.5 C 14.8166,13.1765 13.4832,13.8432 11.5,13.5C 12.1834,11.8235 13.5168,11.1568 15.5,11.5 Z"/></g>
<g><path style="opacity:1" fill="#5ba600" d="M 47.5,11.5 C 49.4832,11.1568 50.8166,11.8235 51.5,13.5C 49.5168,13.8432 48.1834,13.1765 47.5,11.5 Z"/></g>
<g><path style="opacity:1" fill="#a9e203" d="M 11.5,13.5 C 11.5,14.8333 11.5,16.1667 11.5,17.5C 14.5769,17.179 16.9103,18.179 18.5,20.5C 15.5353,21.3157 12.8686,22.649 10.5,24.5C 9.16667,23.8333 7.83333,23.1667 6.5,22.5C 6.5,21.8333 6.5,21.1667 6.5,20.5C 7.37894,17.6185 9.04561,15.2851 11.5,13.5 Z"/></g>
<g><path style="opacity:1" fill="#ecff83" d="M 53.5,15.5 C 53.5,16.5 53.5,17.5 53.5,18.5C 52.1667,18.5 50.8333,18.5 49.5,18.5C 50.5451,17.1224 51.8784,16.1224 53.5,15.5 Z"/></g>
<g><path style="opacity:1" fill="#59a200" d="M 53.5,15.5 C 54.5,16.5 55.5,17.5 56.5,18.5C 53.8333,19.1667 53.8333,19.8333 56.5,20.5C 55.6834,23.9805 54.0168,26.9805 51.5,29.5C 50.8333,29.5 50.1667,29.5 49.5,29.5C 47.8333,29.5 46.1667,29.5 44.5,29.5C 47.1098,28.8426 49.4431,27.5093 51.5,25.5C 49.7389,24.0834 48.4056,22.4167 47.5,20.5C 48.8333,20.5 49.5,19.8333 49.5,18.5C 50.8333,18.5 52.1667,18.5 53.5,18.5C 53.5,17.5 53.5,16.5 53.5,15.5 Z"/></g>
<g><path style="opacity:1" fill="#ecff83" d="M 49.5,18.5 C 49.5,19.8333 48.8333,20.5 47.5,20.5C 46.8333,20.5 46.1667,20.5 45.5,20.5C 46.1834,18.8235 47.5168,18.1568 49.5,18.5 Z"/></g>
<g><path style="opacity:1" fill="#496769" d="M 56.5,18.5 C 56.5,19.1667 56.5,19.8333 56.5,20.5C 53.8333,19.8333 53.8333,19.1667 56.5,18.5 Z"/></g>
<g><path style="opacity:1" fill="#549b00" d="M 6.5,20.5 C 6.5,21.1667 6.5,21.8333 6.5,22.5C 6.5,23.8333 6.5,25.1667 6.5,26.5C 5.30652,26.0296 4.63985,25.0296 4.5,23.5C 4.63985,21.9704 5.30652,20.9704 6.5,20.5 Z"/></g>
<g><path style="opacity:1" fill="#ecff83" d="M 18.5,20.5 C 18.5,21.1667 18.5,21.8333 18.5,22.5C 20.1321,25.1334 22.1321,27.4667 24.5,29.5C 21.6257,29.5489 18.7923,29.2156 16,28.5C 13.5241,27.8552 11.6907,26.5218 10.5,24.5C 12.8686,22.649 15.5353,21.3157 18.5,20.5 Z"/></g>
<g><path style="opacity:1" fill="#f6f4e5" d="M 18.5,20.5 C 21.1667,20.5 23.8333,20.5 26.5,20.5C 26.5,21.1667 26.5,21.8333 26.5,22.5C 23.8333,22.5 21.1667,22.5 18.5,22.5C 18.5,21.8333 18.5,21.1667 18.5,20.5 Z"/></g>
<g><path style="opacity:1" fill="#ecff83" d="M 26.5,20.5 C 28.7812,20.0773 30.4479,20.744 31.5,22.5C 29.8333,22.5 28.1667,22.5 26.5,22.5C 26.5,21.8333 26.5,21.1667 26.5,20.5 Z"/></g>
<g><path style="opacity:1" fill="#ecff83" d="M 45.5,20.5 C 43.7211,22.3435 41.3878,23.0102 38.5,22.5C 40.2789,20.6565 42.6122,19.9898 45.5,20.5 Z"/></g>
<g><path style="opacity:1" fill="#467f00" d="M 45.5,20.5 C 46.1667,20.5 46.8333,20.5 47.5,20.5C 48.4056,22.4167 49.7389,24.0834 51.5,25.5C 49.4431,27.5093 47.1098,28.8426 44.5,29.5C 42.5,29.5 40.5,29.5 38.5,29.5C 36.7497,28.3406 35.7497,26.674 35.5,24.5C 37.1788,24.7148 38.1788,24.0481 38.5,22.5C 41.3878,23.0102 43.7211,22.3435 45.5,20.5 Z"/></g>
<g><path style="opacity:1" fill="#496767" d="M 56.5,20.5 C 57.6935,20.9704 58.3601,21.9704 58.5,23.5C 56.9372,26.99 55.2705,30.3234 53.5,33.5C 53.8432,31.5168 53.1765,30.1834 51.5,29.5C 54.0168,26.9805 55.6834,23.9805 56.5,20.5 Z"/></g>
<g><path style="opacity:1" fill="#f6f4e5" d="M 6.5,22.5 C 7.83333,23.1667 9.16667,23.8333 10.5,24.5C 11.6907,26.5218 13.5241,27.8552 16,28.5C 18.7923,29.2156 21.6257,29.5489 24.5,29.5C 25.1667,29.5 25.8333,29.5 26.5,29.5C 26.5,30.1667 26.5,30.8333 26.5,31.5C 24.5,31.5 22.5,31.5 20.5,31.5C 20.5,33.1667 20.5,34.8333 20.5,36.5C 18.8386,34.6724 17.1719,32.6724 15.5,30.5C 12.2703,29.5404 9.27029,28.2071 6.5,26.5C 6.5,25.1667 6.5,23.8333 6.5,22.5 Z"/></g>
<g><path style="opacity:1" fill="#69be00" d="M 18.5,22.5 C 21.1667,22.5 23.8333,22.5 26.5,22.5C 27.5521,24.256 29.2188,24.9227 31.5,24.5C 30.5272,26.1494 29.5272,27.816 28.5,29.5C 27.8333,29.5 27.1667,29.5 26.5,29.5C 25.8333,29.5 25.1667,29.5 24.5,29.5C 22.1321,27.4667 20.1321,25.1334 18.5,22.5 Z"/></g>
<g><path style="opacity:1" fill="#f6f4e5" d="M 26.5,22.5 C 28.1667,22.5 29.8333,22.5 31.5,22.5C 31.5,23.1667 31.5,23.8333 31.5,24.5C 29.2188,24.9227 27.5521,24.256 26.5,22.5 Z"/></g>
<g><path style="opacity:1" fill="#ecff83" d="M 31.5,22.5 C 33.8333,22.5 36.1667,22.5 38.5,22.5C 38.1788,24.0481 37.1788,24.7148 35.5,24.5C 34.1667,24.5 32.8333,24.5 31.5,24.5C 31.5,23.8333 31.5,23.1667 31.5,22.5 Z"/></g>
<g><path style="opacity:1" fill="#b6eb04" d="M 31.5,24.5 C 32.8333,24.5 34.1667,24.5 35.5,24.5C 35.7497,26.674 36.7497,28.3406 38.5,29.5C 37.5,29.5 36.5,29.5 35.5,29.5C 33.1667,29.5 30.8333,29.5 28.5,29.5C 29.5272,27.816 30.5272,26.1494 31.5,24.5 Z"/></g>
<g><path style="opacity:1" fill="#d8f36b" d="M 6.5,26.5 C 9.27029,28.2071 12.2703,29.5404 15.5,30.5C 17.1719,32.6724 18.8386,34.6724 20.5,36.5C 20.1568,38.4832 20.8235,39.8166 22.5,40.5C 24.5693,42.2923 25.9026,44.6256 26.5,47.5C 23.6408,45.5706 20.6408,43.9039 17.5,42.5C 15.2783,39.2681 12.6116,36.2681 9.5,33.5C 8.20101,31.2418 7.20101,28.9084 6.5,26.5 Z"/></g>
<g><path style="opacity:1" fill="#ecff83" d="M 26.5,29.5 C 27.1667,29.5 27.8333,29.5 28.5,29.5C 30.8333,29.5 33.1667,29.5 35.5,29.5C 35.5,30.1667 35.5,30.8333 35.5,31.5C 33.5,31.5 31.5,31.5 29.5,31.5C 29.5,33.8333 29.5,36.1667 29.5,38.5C 29.0826,35.8411 28.0826,33.5078 26.5,31.5C 26.5,30.8333 26.5,30.1667 26.5,29.5 Z"/></g>
<g><path style="opacity:1" fill="#69be00" d="M 35.5,29.5 C 36.5,29.5 37.5,29.5 38.5,29.5C 40.5,29.5 42.5,29.5 44.5,29.5C 43.8166,31.1765 42.4832,31.8432 40.5,31.5C 40.8432,33.4832 40.1765,34.8166 38.5,35.5C 38.5,34.1667 38.5,32.8333 38.5,31.5C 37.5,31.5 36.5,31.5 35.5,31.5C 35.5,30.8333 35.5,30.1667 35.5,29.5 Z"/></g>
<g><path style="opacity:1" fill="#457c00" d="M 44.5,29.5 C 46.1667,29.5 47.8333,29.5 49.5,29.5C 47.2206,32.7832 44.5539,35.7832 41.5,38.5C 40.201,40.7582 39.201,43.0916 38.5,45.5C 35.8333,46.1667 35.8333,46.8333 38.5,47.5C 38.5,48.1667 38.5,48.8333 38.5,49.5C 37.8333,49.5 37.1667,49.5 36.5,49.5C 35.5655,48.4324 35.2322,47.099 35.5,45.5C 35.2155,43.5853 35.5489,41.9187 36.5,40.5C 38.256,39.4479 38.9227,37.7812 38.5,35.5C 40.1765,34.8166 40.8432,33.4832 40.5,31.5C 42.4832,31.8432 43.8166,31.1765 44.5,29.5 Z"/></g>
<g><path style="opacity:1" fill="#496767" d="M 49.5,29.5 C 50.1667,29.5 50.8333,29.5 51.5,29.5C 51.5,30.8333 51.5,32.1667 51.5,33.5C 50.1667,33.5 49.5,34.1667 49.5,35.5C 47.9519,35.8212 47.2852,36.8212 47.5,38.5C 46.1667,38.5 45.5,39.1667 45.5,40.5C 44.548,41.452 43.548,42.452 42.5,43.5C 42.9569,44.2975 43.6236,44.6309 44.5,44.5C 43.4549,45.8776 42.1216,46.8776 40.5,47.5C 40.5,46.1667 39.8333,45.5 38.5,45.5C 39.201,43.0916 40.201,40.7582 41.5,38.5C 44.5539,35.7832 47.2206,32.7832 49.5,29.5 Z"/></g>
<g><path style="opacity:1" fill="#b6eb04" d="M 26.5,31.5 C 28.0826,33.5078 29.0826,35.8411 29.5,38.5C 29.815,42.3714 29.4816,46.0381 28.5,49.5C 28.5,48.1667 27.8333,47.5 26.5,47.5C 25.9026,44.6256 24.5693,42.2923 22.5,40.5C 22.8432,38.5168 22.1765,37.1834 20.5,36.5C 20.5,34.8333 20.5,33.1667 20.5,31.5C 22.5,31.5 24.5,31.5 26.5,31.5 Z"/></g>
<g><path style="opacity:1" fill="#65a35a" d="M 35.5,31.5 C 36.5,31.5 37.5,31.5 38.5,31.5C 38.5,32.8333 38.5,34.1667 38.5,35.5C 36.744,36.5521 36.0773,38.2188 36.5,40.5C 35.5489,41.9187 35.2155,43.5853 35.5,45.5C 34.1667,47.5 32.8333,49.5 31.5,51.5C 32.0969,46.706 31.4302,42.3727 29.5,38.5C 29.5,36.1667 29.5,33.8333 29.5,31.5C 31.5,31.5 33.5,31.5 35.5,31.5 Z"/></g>
<g><path style="opacity:1" fill="#5ca600" d="M 51.5,29.5 C 53.1765,30.1834 53.8432,31.5168 53.5,33.5C 52.8333,33.5 52.1667,33.5 51.5,33.5C 51.5,32.1667 51.5,30.8333 51.5,29.5 Z"/></g>
<g><path style="opacity:1" fill="#69be00" d="M 51.5,33.5 C 51.5,34.1667 51.5,34.8333 51.5,35.5C 50.8333,35.5 50.1667,35.5 49.5,35.5C 49.5,34.1667 50.1667,33.5 51.5,33.5 Z"/></g>
<g><path style="opacity:1" fill="#496769" d="M 51.5,33.5 C 52.1667,33.5 52.8333,33.5 53.5,33.5C 53.5,34.8333 52.8333,35.5 51.5,35.5C 51.5,34.8333 51.5,34.1667 51.5,33.5 Z"/></g>
<g><path style="opacity:1" fill="#69be00" d="M 38.5,35.5 C 38.9227,37.7812 38.256,39.4479 36.5,40.5C 36.0773,38.2188 36.744,36.5521 38.5,35.5 Z"/></g>
<g><path style="opacity:1" fill="#f6f4e5" d="M 20.5,36.5 C 22.1765,37.1834 22.8432,38.5168 22.5,40.5C 20.8235,39.8166 20.1568,38.4832 20.5,36.5 Z"/></g>
<g><path style="opacity:1" fill="#5f9d2b" d="M 49.5,35.5 C 50.1667,35.5 50.8333,35.5 51.5,35.5C 50.4489,36.2223 49.7822,37.2223 49.5,38.5C 48.8333,38.5 48.1667,38.5 47.5,38.5C 47.2852,36.8212 47.9519,35.8212 49.5,35.5 Z"/></g>
<g><path style="opacity:1" fill="#eafd7f" d="M 29.5,38.5 C 31.4302,42.3727 32.0969,46.706 31.5,51.5C 31.5,52.1667 31.5,52.8333 31.5,53.5C 30.8333,53.5 30.1667,53.5 29.5,53.5C 28.6618,53.1583 28.3284,52.4916 28.5,51.5C 28.5,50.8333 28.5,50.1667 28.5,49.5C 29.4816,46.0381 29.815,42.3714 29.5,38.5 Z"/></g>
<g><path style="opacity:1" fill="#69be00" d="M 47.5,38.5 C 47.5,39.1667 47.5,39.8333 47.5,40.5C 46.8333,40.5 46.1667,40.5 45.5,40.5C 45.5,39.1667 46.1667,38.5 47.5,38.5 Z"/></g>
<g><path style="opacity:1" fill="#496769" d="M 47.5,38.5 C 48.1667,38.5 48.8333,38.5 49.5,38.5C 49.5,39.8333 48.8333,40.5 47.5,40.5C 47.5,39.8333 47.5,39.1667 47.5,38.5 Z"/></g>
<g><path style="opacity:1" fill="#496769" d="M 45.5,40.5 C 46.1667,40.5 46.8333,40.5 47.5,40.5C 47.5,41.8333 46.8333,42.5 45.5,42.5C 45.5,41.8333 45.5,41.1667 45.5,40.5 Z"/></g>
<g><path style="opacity:1" fill="#95cc1c" d="M 17.5,42.5 C 20.6408,43.9039 23.6408,45.5706 26.5,47.5C 27.8333,47.5 28.5,48.1667 28.5,49.5C 28.5,50.1667 28.5,50.8333 28.5,51.5C 27.0222,51.762 25.6888,51.4287 24.5,50.5C 21.7196,48.0644 19.3863,45.3977 17.5,42.5 Z"/></g>
<g><path style="opacity:1" fill="#4f8225" d="M 45.5,40.5 C 45.5,41.1667 45.5,41.8333 45.5,42.5C 45.6716,43.4916 45.3382,44.1583 44.5,44.5C 43.6236,44.6309 42.9569,44.2975 42.5,43.5C 43.548,42.452 44.548,41.452 45.5,40.5 Z"/></g>
<g><path style="opacity:1" fill="#76c400" d="M 35.5,45.5 C 35.2322,47.099 35.5655,48.4324 36.5,49.5C 36.5,50.1667 36.5,50.8333 36.5,51.5C 35.7777,52.5511 34.7777,53.2178 33.5,53.5C 32.8333,53.5 32.1667,53.5 31.5,53.5C 31.5,52.8333 31.5,52.1667 31.5,51.5C 32.8333,49.5 34.1667,47.5 35.5,45.5 Z"/></g>
<g><path style="opacity:1" fill="#496769" d="M 38.5,45.5 C 38.5,46.1667 38.5,46.8333 38.5,47.5C 35.8333,46.8333 35.8333,46.1667 38.5,45.5 Z"/></g>
<g><path style="opacity:1" fill="#427900" d="M 38.5,45.5 C 39.8333,45.5 40.5,46.1667 40.5,47.5C 39.8333,47.5 39.1667,47.5 38.5,47.5C 38.5,46.8333 38.5,46.1667 38.5,45.5 Z"/></g>
<g><path style="opacity:1" fill="#496769" d="M 38.5,47.5 C 39.1667,47.5 39.8333,47.5 40.5,47.5C 40.5,48.8333 39.8333,49.5 38.5,49.5C 38.5,48.8333 38.5,48.1667 38.5,47.5 Z"/></g>
<g><path style="opacity:1" fill="#496769" d="M 36.5,49.5 C 37.1667,49.5 37.8333,49.5 38.5,49.5C 38.5,50.8333 37.8333,51.5 36.5,51.5C 36.5,50.8333 36.5,50.1667 36.5,49.5 Z"/></g>
<g><path style="opacity:1" fill="#427900" d="M 29.5,53.5 C 30.1667,53.5 30.8333,53.5 31.5,53.5C 32.1667,53.5 32.8333,53.5 33.5,53.5C 33.38,54.5862 32.7133,55.2528 31.5,55.5C 30.2867,55.2528 29.62,54.5862 29.5,53.5 Z"/></g>
</svg>
