<!-- by TradingView --><svg width="56" height="56" viewBox="0 0 56 56" xmlns="http://www.w3.org/2000/svg"><path fill="#FF3D00" d="M0 0h56v56H0z"/><path d="M19 29.44V19.07c0-.06.03-.07.05-.07h1.4a1617.32 1617.32 0 0 1 8.87-.01.05.05 0 0 0 .02-.08c-.79-.8-1.5-1.54-2.12-2.2-.53-.56-1-1.06-1.42-1.48a.7.7 0 0 0-.5-.23l-3.07.01a620.59 620.59 0 0 1-6.96 0c-.1-.02-.17 0-.22.04-.04.05-.06.12-.05.22l.02.22v9.9c0 .22.05.39.16.5.41.42.91.89 1.47 1.41.69.65 1.46 1.37 2.26 2.18a.05.05 0 0 0 .05 0 .05.05 0 0 0 .04-.04Zm11.02-.12 3.87 3.73a.06.06 0 0 0 .07.01c.01 0 .02 0 .03-.02l.01-.03v-9.37a.06.06 0 0 0-.02-.05l-3.87-3.88-.03-.01h-.04a.06.06 0 0 0-.03.02l-.01.04v9.52a.06.06 0 0 0 .02.04ZM36 35.91l-.01-10.8c0-.13.04-.14.13-.05.84.83 1.61 1.65 2.29 2.36.52.55.98 1.04 1.37 1.43.13.13.22.35.22.66v9.09c0 .17.03.32.16.45l.55.6c.25.29.52.58.93.98.05.05.09.12.1.19l.26 1.09a.07.07 0 0 1-.05.09h-.03l-1.06-.16a.59.59 0 0 1-.33-.17l-1.6-1.52a.55.55 0 0 0-.39-.16l-9.37.01a.44.44 0 0 1-.31-.14l-3.8-3.72c-.1-.1-.08-.14.06-.14H35.9c.03 0 .05-.01.06-.03.02-.02.04-.04.04-.06Zm-16-5.8 3.68 3.87.04.02h9.43l.04-.01.02-.03a.07.07 0 0 0-.01-.07l-3.69-3.87a.06.06 0 0 0-.04-.02h-9.43l-.04.01a.06.06 0 0 0-.02.03v.04l.01.03Z" fill="#fff"/></svg>