<!-- by TradingView --><svg width="56" height="56" viewBox="0 0 56 56" xmlns="http://www.w3.org/2000/svg"><path fill="url(#a)" d="M0 0h56v56H0z"/><path d="m35.2 13.68-4.34.9-.82-.94a.28.28 0 0 0-.29-.1c-.4.09-.77.07-1.09-.04-.2-.07-.46-.23-.8-.48-.38-.28-.7-.47-.97-.58-.75-.1-1.3-.1-1.63 0-.25.06-.54.28-.88.65-.17.18-.4.42-.7.71-.26.27-.47.47-.6.62a.15.15 0 0 0-.04.19c.1.2.08.35-.04.44-.06.05-.1.03-.13-.05-.05-.18-.15-.24-.3-.17.16-.16.27-.32.33-.48.03-.08 0-.1-.07-.05-.62.39-1.04.9-1.25 1.55a.2.2 0 0 1-.13.13c-.8.3-2.06.24-3.76-.2a15.5 15.5 0 0 1 8.43-3.67 16.3 16.3 0 0 1 9.08 1.57Z" fill="#D0C9BC"/><path d="m30.86 14.59.42 1.36c.03.07.08.1.15.1l1.52-.06c-.14.03-.3.06-.45.07a4.98 4.98 0 0 0-1.91.83c-.31.3-.64.55-1 .73-.06.08-.1.12-.15.12a4.48 4.48 0 0 1-.48-1.57 2.82 2.82 0 0 0-.45-1.26l-.17-.3c-.05-.1-.14-.25-.28-.44-.22-.33-.37-.6-.44-.79a.65.65 0 0 0-.3-.4.47.47 0 0 1-.15-.14l-.28-.4c.26.1.59.3.97.58.34.25.6.4.8.48.32.11.68.13 1.1.04.1-.02.2 0 .28.1l.82.95Z" fill="#EBE4D4"/><path d="m26.89 12.44.28.4c.04.06.09.1.14.14.17.1.27.24.3.4-.15.22-.3.25-.44.1a1.23 1.23 0 0 1-.25-.39.35.35 0 0 0-.28-.24.35.35 0 0 0-.34.11c-.07.07-.06.17.02.3.02.03.01.05-.02.07l-.1.06-.05-.01c-.1-.13-.15-.2-.15-.22-.04-.14-.12-.22-.27-.25a.37.37 0 0 0-.36.14c-.26.3-.4.62-.4.97 0 .04-.03.1-.07.19l-.58 1.07a.5.5 0 0 1-.06.1l-.48.36c.04-.2.12-.4.25-.58.03-.05.02-.1-.03-.14a.26.26 0 0 0-.19-.04c-.1.01-.15.07-.15.17 0 .22-.13.38-.4.48a.18.18 0 0 0-.12.15c-.02.24-.16.4-.4.47a.23.23 0 0 0-.15.14.76.76 0 0 1-.36.37c-.07.04-.08.1-.04.16l.04.09c.03.03.06.04.09 0l1.22-1.14c.54.73.51 1.41-.08 2.04-.06.06-.05.1.03.12l.35.11-1.86-.01c-.04-.65-.06-1.3-.07-1.97-.01-.55.21-1 .66-1.33.15-.07.25-.01.3.17.03.08.07.1.13.05.12-.1.14-.24.04-.44a.15.15 0 0 1 .03-.18l.61-.63c.3-.29.53-.53.7-.71.34-.37.63-.59.88-.66.34-.1.88-.1 1.63 0Z" fill="#7A5A32"/><path d="M27.62 13.38c.07.2.22.45.44.79a5.25 5.25 0 0 1 .45.73c.29.48.43.9.45 1.27.01.3.13.75.36 1.32l.08.2v.25c-.03.07-.08.1-.15.07a.72.72 0 0 0-.4.03 1 1 0 0 1-.25.06c-1.59.09-3.18.1-4.76.04l-.35-.1c-.08-.03-.09-.07-.04-.13.6-.63.63-1.31.09-2.04.09-.02.17-.06.24-.14l.48-.36.06-.1.58-1.06a.52.52 0 0 0 .07-.19c0-.35.14-.67.4-.97.1-.12.22-.16.36-.14.15.03.23.1.26.24.01.03.06.1.16.22.01.02.03.03.05.01l.1-.06c.03-.01.04-.04.02-.06-.08-.13-.09-.23-.02-.3.1-.1.2-.13.34-.1.14.02.23.1.28.23.03.1.12.23.25.38.14.16.29.13.45-.09Z" fill="#733914"/><path d="M35.2 13.68c1.34.7 2.56 1.54 3.65 2.54.07 2.92-.05 5.49-.36 7.72a28.67 28.67 0 0 1-2.04 7.42l-.4-1.8c.65-2.1.69-4.21.1-6.34-.3-1.1-.7-2.26-1.2-3.5-.32-.76-.83-1.92-1.54-3.47l-.46-.26-1.52.07c-.07 0-.12-.04-.15-.11l-.42-1.36 4.34-.91Z" fill="#CDDCED"/><path d="M22.57 14.83c-.45.33-.67.78-.66 1.33 0 .66.03 1.32.07 1.97.1 0 .03.02-.18.07-1-.08-1.94.1-2.82.56a.8.8 0 0 0-.32.3l-.22.4a.32.32 0 0 0-.04.2c.11.63.4 1.14.89 1.53.61.5 1.3.74 2.05.73l.45-.01.12.65c-.04.04-.08.05-.12.04-.07-.02-.1-.07-.1-.14 0-.09-.02-.15-.08-.2-.07-.05-.11-.04-.13.05l-.06.37-.03-.47c-.01-.07-.04-.1-.11-.11a72.11 72.11 0 0 0-8.09-.18c1-2.43 2.5-4.48 4.5-6.15 1.7.45 2.95.52 3.76.21a.2.2 0 0 0 .13-.13 2.9 2.9 0 0 1 1.25-1.55c.08-.05.1-.03.07.05-.06.16-.17.32-.33.48Z" fill="#EBE4D4"/><path d="M23.78 15.74a.43.43 0 0 1-.24.13l-1.22 1.15c-.04.03-.06.02-.09-.01l-.04-.09c-.04-.07-.03-.12.04-.16.18-.1.3-.22.36-.37.03-.07.08-.11.15-.14.24-.08.37-.23.4-.47a.18.18 0 0 1 .13-.15c.26-.1.4-.26.4-.48 0-.1.04-.16.14-.17.07 0 .14 0 .19.04.05.04.06.09.03.14-.13.18-.2.37-.25.58ZM22.17 15.87c-.08.22-.1.43-.03.45.07.03.19-.14.27-.36.09-.23.1-.43.03-.45-.07-.03-.19.13-.27.36Z" fill="#D79468"/><path d="m32.95 15.99.46.26c.12.21.18.41.16.6-.34.06-.64.22-.9.48a.26.26 0 0 1-.17.08c-.2.02-.4.06-.58.13l-.66.23-.58.15c-.1.03-.25.04-.43.04-.2 0-.35.02-.46.06-.08.04-.14.02-.18-.05-.06-.07-.07-.19-.02-.35.36-.18.7-.42 1-.73a4.98 4.98 0 0 1 1.91-.83c.16-.01.3-.04.45-.07Z" fill="#A36136"/><path d="m36.05 29.57-.53-1.22a1.02 1.02 0 0 0-.21-.46h-.02a2.4 2.4 0 0 1-.54-.8c-.13-.35-.4-.7-.81-1.02a3.4 3.4 0 0 0-.29-.35 4 4 0 0 1-.29-.35 15.23 15.23 0 0 0-2.52-2.74A3.12 3.12 0 0 1 30.8 21a.22.22 0 0 0-.02-.18l-.2-.34a.38.38 0 0 1-.05-.14c-.03-.23-.1-.42-.22-.6-.15-.2-.32-.3-.53-.29.18-.27.38-.45.6-.54a31.04 31.04 0 0 0 1.97-.93 4.7 4.7 0 0 0 1.1-.75.6.6 0 0 0 .12-.4c.02-.18-.04-.38-.16-.6.71 1.56 1.22 2.72 1.53 3.49.5 1.23.9 2.4 1.21 3.5.59 2.12.55 4.23-.1 6.34Z" fill="#DCE1EC"/><path d="m43.67 30.85-3.83-.4c-.07-.01-.1.02-.1.09l-.06 1.36c-.16.5-.32.81-.5.91a1.4 1.4 0 0 0-.75 1.03c-.2 1.11-.4 2.06-.61 2.85-.02.09-.05.1-.1.01l-.39-.84-.36-2.42-.52-2.08a28.68 28.68 0 0 0 2.04-7.43c.3-2.22.43-4.8.36-7.71 1.99 1.81 3.41 4 4.28 6.54.84 2.5 1.07 5.1.7 7.82a.9.9 0 0 1-.16.27Z" fill="#CDD1DC"/><path d="M33.57 16.85a.6.6 0 0 1-.13.4c-.47.25-.94.48-1.41.67a2.3 2.3 0 0 1-1.05.2 5.06 5.06 0 0 0-1.55.04v-.42c.05 0 .1-.04.16-.12-.05.16-.04.28.01.35.05.07.11.09.19.05.1-.04.26-.07.46-.06.18 0 .32 0 .43-.04l.58-.15.66-.23c.18-.07.38-.11.58-.13.07 0 .13-.03.17-.08.26-.26.56-.42.9-.48Z" fill="#F2B382"/><path d="M33.44 17.24c-.34.3-.7.56-1.1.75a106.48 106.48 0 0 1-1.95.92c-.23.1-.44.28-.61.55-.38-.1-.63-.15-.74-.15-1.53.02-3.2.28-5.02.76-.34.09-.57.3-.71.62-.44.19-.9.24-1.35.17-.41-.2-.62.16-.63 1.06a3.08 3.08 0 0 1-2.04-.73c-.48-.39-.78-.9-.89-1.53a.32.32 0 0 1 .03-.2l.23-.4a.8.8 0 0 1 .32-.3 5.02 5.02 0 0 1 2.85-.55c.23.09.41.13.54.13 2.37.07 4.72.01 7.06-.18.38-.08.9-.1 1.55-.03.29.02.64-.05 1.05-.21.47-.19.94-.42 1.41-.68Z" fill="#61290A"/><path d="M29.44 17.74v.43a64.5 64.5 0 0 1-7.07.17 1.94 1.94 0 0 1-.57-.14c.21-.05.27-.07.18-.07l1.86.01c1.59.06 3.17.05 4.76-.04a1 1 0 0 0 .24-.05c.17-.06.3-.07.42-.04.07.03.11 0 .13-.07a.6.6 0 0 0 0-.26l.05.06Z" fill="#A36136"/><path d="m29.78 19.46.23.14c.06.03.08.08.07.15-.01.06-.05.1-.12.11-.45.06-.84.2-1.18.4a7.24 7.24 0 0 0-1 .82c-.1.1-.29.18-.56.23-.07.01-.1.05-.1.13l.03.51c0 .1-.02.16-.08.19-.05.02-.09 0-.11-.04l-.07-.13c-.04-.06-.06-.06-.07.02v.35a2.75 2.75 0 0 0-.02 0c-.1-.61-.31-.82-.62-.64-.2-.35-.48-.5-.85-.44-.07.01-.11.05-.12.13-.01.07 0 .16.02.25l-.2-.28a.1.1 0 0 0-.06-.04c-.1-.02-.14.02-.13.12.02.36 0 .67-.08.92-.02.07-.07.1-.14.1a.4.4 0 0 1-.27-.13.15.15 0 0 0-.13-.05.14.14 0 0 0-.11.08l-.23.46c-.3-.01-.63-.06-1-.14-.27-.07-.39-.18-.35-.34.06-.34-.03-.39-.28-.14-.03.03-.05.11-.05.24 0 .06.01.13.06.18.07.09.13.19.16.3.01.04 0 .06-.04.06h-.1a.1.1 0 0 1-.1-.06 1.24 1.24 0 0 0-.27-.36l-.12-.65-.03-.17c0-.2.03-.36.11-.51.03-.07.09-.1.16-.1l.28.05c.21.04.38.04.51 0 .3-.08.45-.24.49-.49.14-.32.37-.53.71-.62 1.81-.48 3.49-.74 5.02-.76.11 0 .36.05.74.15Z" fill="#0E0403"/><path d="M21.32 19.4a.92.92 0 0 1 .25-.06c.2.03.21.1.02.2-.1.05-.2.03-.29-.06-.04-.04-.03-.06.02-.08Z" fill="#7A5A32"/><path d="M30.84 22.63c-.06.77.09 1.32.44 1.66.12.12.22.25.3.4.04.05.05.11.05.18 0 .4.1.74.3 1.05.04.05.06.12.06.19v.09c0 .07.03.12.1.13.41.1.82.07 1.23-.12v.46c.19.33.12.4-.2.2a2.5 2.5 0 0 0-1.23-.38.2.2 0 0 1-.16-.08.2.2 0 0 1-.03-.18c.03-.12 0-.26-.09-.42a.23.23 0 0 0-.17-.12c-.29-.06-.57-.02-.84.11a.46.46 0 0 0-.24.28.47.47 0 0 0 .02.36c.1.2.11.4.04.61-.02.06 0 .1.06.13.19.07.27.24.23.5l-.96-.1a2 2 0 0 0-.78-.46L28.9 27c.16 0 .3-.06.42-.15.05-.04.08-.1.08-.16-.01-.14.04-.24.15-.28.07-.03.08-.07.04-.14-.03-.05-.06-.08-.11-.08-.52-.03-1.02-.08-1.5-.16-.25-.04-.26-.11-.04-.23.2-.1.35-.21.41-.3.18-.27.13-.34-.17-.2-.08.03-.2 0-.34-.08.2.07.34.04.43-.11a.53.53 0 0 0-.14-.71c-.1-.08-.29-.08-.55 0 .37-.16.76-.26 1.16-.3.03 0 .04-.01.05-.04V24a.09.09 0 0 0-.08-.07.58.58 0 0 1-.4-.26c-.04-.07-.1-.08-.17-.04l-.96.55c-.05.03-.07.08-.05.13l.4 1.36v.06c-.01.02-.03.03-.05.02-.09-.01-.14-.03-.15-.04a3.17 3.17 0 0 0-2.23-1.12.1.1 0 0 0-.1.06.1.1 0 0 0 .01.12c.14.16.3.3.5.41.24.15.23.26-.05.33l-.23.07c-.32.08-.55.15-.68.23-.22.12-.34.28-.36.5-.01.06-.05.1-.1.1l-.38.05c-.07.02-.08.04-.01.09l.86.56c-.1-.03-.26-.07-.48-.11a7 7 0 0 1-.99-.26 2.33 2.33 0 0 1-.86-.56c-.05-.05-.1-.06-.16-.02a.79.79 0 0 0-.35.34c-.04.08-.03.13.05.17l.89.48-.39-.02c-.1 0-.12.04-.04.11l.32.32c.06.06.06.12 0 .2l-.64.8a2.9 2.9 0 0 1-2.45 1.66c.53-1.19 1.2-1.78 2-1.78.14 0 .16-.06.08-.17-.14-.19-.19-.34-.13-.45.02-.03.07-.06.16-.1l.2-.07c.07-.03.08-.07.02-.11l-.83-.55a.24.24 0 0 1-.1-.16c-.02-.1 0-.22.06-.35a.73.73 0 0 1 .33-.33l.46-.26a.35.35 0 0 1 .18-.05h1.37c.18 0 .27-.09.27-.26v-.4c0-.26.09-.3.27-.11l.55.55c.03.03.06.02.07-.03.12-.62.33-1.18.64-1.68.04-.06.02-.09-.05-.08l-.84.12c-.15.03-.23-.04-.24-.2l-.05-.92.23-.46a.14.14 0 0 1 .11-.08c.05 0 .1 0 .13.05a.4.4 0 0 0 .27.13c.07 0 .12-.03.14-.1.07-.25.1-.56.08-.92 0-.1.04-.14.13-.12a.1.1 0 0 1 .06.04l.2.28.15.03c.07.03.09.09.06.16a.75.75 0 0 1-.14.2c-.05.06-.06.12-.01.18.2.25.37.37.52.34.16-.02.3-.09.4-.2.1-.12.15-.25.14-.4 0-.04-.06-.13-.17-.24.3-.2.51.02.62.63a2.75 2.75 0 0 1 .01 0l.01-.35c0-.08.03-.08.07-.01l.07.12c.02.04.06.06.1.04.07-.03.1-.09.1-.19l-.04-.51c0-.07.03-.12.1-.13a1.17 1.17 0 0 0 .62-.27c.41-.38.73-.64.94-.77.34-.21.73-.35 1.18-.4.07-.02.1-.05.12-.12a.13.13 0 0 0-.07-.15l-.23-.14c.2-.02.38.08.53.3.11.17.19.36.22.59 0 .05.02.1.05.14l.2.34c.03.06.04.12.02.18-.13.51-.12 1.05.04 1.62Z" fill="#4D371F"/><path d="M23.31 20.7c-.03.24-.2.4-.49.48-.13.04-.3.04-.5 0a2.18 2.18 0 0 0-.29-.04.16.16 0 0 0-.16.09c-.08.15-.11.32-.1.5-.15-.16-.09-.45.19-.87.46.07.9.02 1.35-.17Z" fill="#696868"/><path d="M21.96 20.86c-.28.42-.34.71-.2.88l.03.17-.45.01c0-.9.21-1.26.62-1.06Z" fill="#D79468"/><path d="M26.18 21.7c.11.12.17.2.17.26 0 .14-.04.27-.14.39a.64.64 0 0 1-.4.2c-.15.03-.32-.09-.52-.34-.05-.06-.04-.12 0-.17a.75.75 0 0 0 .15-.21c.03-.07 0-.13-.06-.16a.41.41 0 0 0-.15-.03.8.8 0 0 1-.02-.25c0-.08.05-.12.12-.13.37-.06.65.09.85.45Z" fill="#1D0B03"/><path d="M21.42 22.68a1 1 0 0 1-.16.43.3.3 0 0 1-.15.12 1 1 0 0 0-.44.38c-.12.16-.24.28-.34.33-.78.44-1.36.93-1.74 1.47-.3.42-.46.92-.5 1.5-.02.52.04 1.05.2 1.6-.36.41-.56.78-.62 1.08a16.3 16.3 0 0 0-5.14 2.54c-.88-3.52-.66-6.92.66-10.2a72.1 72.1 0 0 1 8.09.17c.06 0 .1.04.1.1l.04.48Z" fill="#F5F0E6"/><path d="m23.88 22.81.05.93c0 .16.09.22.24.2l.84-.12c.07 0 .1.02.05.08-.3.5-.52 1.06-.64 1.68-.01.05-.04.06-.07.02l-.55-.55c-.18-.18-.27-.14-.27.11v.4c0 .18-.1.27-.27.27h-1.37a.35.35 0 0 0-.18.05l-.46.26a.73.73 0 0 0-.33.32.59.59 0 0 0-.07.36c.02.07.05.12.11.16l.83.55c.06.04.05.07-.02.1l-.2.08c-.09.04-.14.07-.16.1-.06.11-.01.26.13.45.09.1.06.16-.08.16-.8 0-1.47.6-2 1.8-.05.33-.07.67-.06 1 0 .1-.02.17-.05.22-.05.09-.13.12-.21.1.18-.38.16-.79-.06-1.22-.2-.38-.33-.76-.4-1.12a.33.33 0 0 0-.27-.29c-.34-.07-.38-.2-.13-.4a4.83 4.83 0 0 1-.18-1.6c.03-.58.2-1.08.5-1.5.37-.54.95-1.03 1.73-1.47.1-.06.22-.17.34-.34a1 1 0 0 1 .44-.37.3.3 0 0 0 .15-.12 1 1 0 0 0 .16-.43l.06-.37c.02-.09.06-.1.13-.05.06.05.08.11.08.2 0 .07.03.12.1.14.04.01.08 0 .12-.04.12.1.2.22.28.36a.1.1 0 0 0 .1.06h.09c.04 0 .05-.02.04-.06a.87.87 0 0 0-.16-.3.26.26 0 0 1-.06-.19c0-.12.02-.2.05-.23.25-.25.35-.2.28.14-.04.16.08.27.36.34.36.08.7.13.99.13Z" fill="#7A5A32"/><path d="M33.94 26.07c-.17 0-.38.05-.62.14-.4.19-.82.23-1.23.12-.07-.01-.1-.06-.1-.13v-.1a.32.32 0 0 0-.06-.18c-.2-.3-.3-.66-.3-1.05a.36.36 0 0 0-.05-.19 1.87 1.87 0 0 0-.3-.39c-.35-.34-.5-.9-.44-1.66.95.8 1.79 1.72 2.52 2.74.08.1.17.22.3.35l.28.35Z" fill="#F2B382"/><path d="M22.3 23.92a2.5 2.5 0 0 0-.1-.12c-.2-.24-.29-.42-.25-.55.02-.08.07-.1.14-.05.2.16.33.29.36.4.17.46.38.82.66 1.08.05.06.1.14.1.23l.03.18c0 .08-.04.1-.11.07-.37-.18-.6-.42-.68-.75-.08-.3-.13-.46-.16-.49ZM27.58 24.4a.32.32 0 0 0-.12.2c-.01.06 0 .13.05.18l.33.44c.15.08.26.1.34.07.3-.13.35-.06.17.2-.07.1-.2.2-.4.3-.24.13-.22.2.03.24.48.08.98.13 1.5.16.05 0 .08.03.11.08.04.07.03.11-.04.14-.11.04-.16.13-.16.28 0 .07-.02.12-.07.16a.82.82 0 0 1-.42.15l-.13-.07a1.5 1.5 0 0 0-.83-.29c-.03 0-.05.02-.05.04-.02.03-.01.05 0 .07l.09.08c.05.05.05.1 0 .15a.4.4 0 0 1-.21.1c-.27.04-.43.14-.49.3-.16.42-.1.83.18 1.21.22.52.55.91 1 1.17.35.2.58.36.68.48.24.3.4.61.48.93.07.28.09.65.06 1.1-.03.37-.03.7 0 .97 0 .16.1.23.25.21.4-.04.83-.01 1.31.08.65.11.97.31.96.59 0 .07.03.11.1.12.09.02.2.09.35.2.06.04.08.1.07.17-.02.13.01.27.11.41.05.06.04.11-.03.15-.03.02-.06.02-.1.01a3.4 3.4 0 0 1-.25-.07.2.2 0 0 0-.2.02c-.37.27-.8.42-1.32.44-.08 0-.1.05-.1.13.08.38.29.69.64.9l-1 .01a.34.34 0 0 1-.19-.05c-.21-.13-.39-.07-.52.17-.04.08-.06.27-.05.58-.14-.86.04-1.49.53-1.89.21-.17.18-.28-.1-.33-.6-.1-1.1-.46-1.53-1.09-.17-.25-.27-.23-.3.07-.09.85.02 1.57.33 2.17.2.38.14.44-.2.15a3.15 3.15 0 0 0-1.1-.54l-.28-.36c-.56-.71-1-1.22-1.3-1.53a5.3 5.3 0 0 0-1.68-1.13 1.56 1.56 0 0 1-.27-.2.9.9 0 0 0-.4-.2c-.23-.04-.44-.1-.63-.16-.23-.39-.6-.71-1.1-.98.45.25.9.37 1.35.36.05 0 .1.03.12.08l.09.14c.02.04.05.06.09.08.15.06.36.18.61.37.28.21.51.34.69.4l.15.04c1.34.38 2.33.53 2.97.44.08 0 .25.03.49.11.35.12.7.07 1.07-.14.07-.05.1-.1.06-.18l-.22-.51a.53.53 0 0 1-.05-.2v-.19c.03-.94-.13-1.53-.47-1.76-.3-.2-.64-.53-1-1a1.46 1.46 0 0 0-.48-.43 1.24 1.24 0 0 0-.63-.06c-.61.06-1.17.07-1.66.03a20.1 20.1 0 0 0-1.15-.04 18.6 18.6 0 0 1-1.57-.08c.03-.08-.05-.15-.23-.2l.65-.8c.05-.08.05-.14-.01-.2l-.32-.32c-.08-.07-.06-.11.04-.1h.39c.42.05.57.3.45.76-.02.08-.06.13-.11.16l-.47.27c-.1.06-.1.08.03.06.15-.02.37-.03.65-.02.35.01.6 0 .76-.04.27-.08.5-.24.69-.5.04-.05.1-.08.16-.08.22-.01.42-.13.6-.35.04-.06.02-.1-.05-.11l-.8-.18-.87-.56c-.07-.05-.06-.07.01-.09l.37-.05c.06 0 .1-.04.1-.1.03-.22.15-.38.37-.5.13-.08.36-.15.68-.23l.23-.07c.28-.07.29-.18.04-.33-.2-.1-.36-.25-.5-.42a.1.1 0 0 1 0-.12.1.1 0 0 1 .1-.05c.93.08 1.68.46 2.23 1.12.01.01.06.03.15.04.02 0 .04 0 .05-.02v-.06l-.4-1.36c-.02-.05 0-.1.05-.13l.96-.55c.07-.04.13-.03.18.04.1.14.22.23.4.26.03 0 .05.03.07.07v.07c0 .03-.02.04-.05.05-.4.03-.79.12-1.16.28Z" fill="#341506"/><path d="M30.47 24.86c-.15.28-.34.38-.57.28-.29-.25-.4-.6-.36-1.03 0-.07.03-.13.09-.18.18-.15.38-.18.58-.09.33.15.41.49.26 1.02Z" fill="#1D0B03"/><path d="M29.9 25.14c.23.1.42 0 .57-.28 0 .15-.04.29-.1.42a.18.18 0 0 1-.14.12c-.26.05-.51.04-.76-.03-.08-.02-.12-.07-.12-.15v-.1c0-.04-.02-.07-.07-.08a1.18 1.18 0 0 1-.76-.6c-.05-.09-.02-.13.08-.13h.35c.09 0 .16.03.23.1l.72.73ZM27.84 25.21l-.33-.43a.23.23 0 0 1-.05-.19.32.32 0 0 1 .12-.2c.26-.07.44-.07.55 0 .1.09.18.2.2.33.03.14.01.27-.06.38-.09.16-.23.2-.43.11Z" fill="#7A5A32"/><path d="M33.32 26.2c.25-.08.45-.13.62-.13.4.32.68.66.81 1.03.1.24.28.5.55.78v.01c.1.1.17.24.22.46a1.1 1.1 0 0 1-.36 0c-.11-.16-.32-.22-.6-.17a1 1 0 0 1-.33.01.19.19 0 0 1-.15-.11.86.86 0 0 0-.33-.38.19.19 0 0 0-.2-.01.18.18 0 0 0-.1.16c-.02.35.05.54.2.59.19.55.09.84-.3.88.12-.25.17-.46.13-.62a.2.2 0 0 0-.12-.14c-.32-.14-.54-.39-.64-.74a.14.14 0 0 0-.12-.1l-.97-.2a.1.1 0 0 0-.1.04.1.1 0 0 0-.03.1c.04.18.14.33.31.46.06.05.08.1.04.17-.05.12-.21.15-.47.1l-.66-.7c.03-.27-.05-.44-.24-.51-.06-.03-.08-.07-.06-.13a.78.78 0 0 0-.04-.61.47.47 0 0 1-.02-.37.46.46 0 0 1 .24-.27c.27-.13.55-.17.84-.12.08.02.14.06.17.13.09.16.12.3.09.42a.2.2 0 0 0 .03.17c.04.06.1.09.16.1.48.02.9.15 1.23.36.32.2.39.14.21-.19a1.78 1.78 0 0 1-.01-.46Z" fill="#1D0B03"/><path d="m24.56 27.1.81.18c.07.01.09.05.04.1-.17.23-.36.35-.58.36a.21.21 0 0 0-.17.08c-.2.26-.42.42-.69.5-.16.04-.41.05-.76.04-.28 0-.5 0-.65.02-.13.02-.14 0-.03-.06l.47-.27c.05-.03.09-.08.1-.16.13-.46-.02-.71-.44-.76l-.9-.47c-.07-.04-.08-.1-.04-.17a.79.79 0 0 1 .35-.34c.06-.04.11-.03.16.02.23.24.52.43.86.56.21.08.54.17 1 .26l.47.1Z" fill="#733914"/><path d="M28.77 26.93c-.23-.04-.4.02-.5.17a.22.22 0 0 1-.16.1c-.17.03-.27.1-.3.2-.02.08 0 .14.07.19.06.04.13.06.22.03l.8-.23c.08-.02.1-.07.09-.14l-.02-.13c.3.1.56.25.78.46-.52.03-1.02.13-1.5.33l-.47.1c-.25.07-.36.26-.32.58a1.2 1.2 0 0 1-.18-1.21c.06-.16.22-.26.49-.3a.4.4 0 0 0 .2-.1c.06-.05.06-.1 0-.15l-.07-.08a.05.05 0 0 1-.01-.07c0-.02.02-.04.05-.03.3 0 .58.1.83.28Z" fill="#7A5A32"/><path d="m28.77 26.93.13.07.07.12.02.12c.01.08-.02.13-.08.15l-.82.23a.23.23 0 0 1-.21-.04c-.07-.05-.09-.1-.07-.18.03-.1.13-.17.3-.2a.22.22 0 0 0 .15-.1c.11-.16.28-.21.51-.17Z" fill="#D79468"/><path d="m33.34 29.32-.06-.37c0-.07-.05-.11-.12-.13-.16-.03-.28.04-.37.22-.17.33-.1.53.2.62.08.02.1.07.1.14-.01.12-.07.2-.16.25-.1.05-.11.11-.05.2l.08.11c.38.53.72.93 1 1.19.36.31.7.69 1 1.11.06.1.05.1-.04.03-.12-.1-.25-.25-.4-.45a11.12 11.12 0 0 1-1.78-1.9c-.2-.19-.34-.4-.45-.61l-.91-1.34c.25.05.41.02.47-.1.03-.07.02-.12-.04-.16a.81.81 0 0 1-.31-.46.1.1 0 0 1 .03-.1.1.1 0 0 1 .1-.04l.97.18c.06.01.1.05.11.1.11.36.33.61.65.76.06.02.1.07.12.13.03.16-.01.37-.14.62Z" fill="#733914"/><path d="m29.75 27.58.96.1.67.7.91 1.35a6.5 6.5 0 0 1-2.34-.48c-.17-.07-.44-.07-.83 0-.07 0-.08.04-.05.1l.25.39c.38.57.62 1.04.72 1.4.4 1.4 1.1 2.03 2.14 1.9.6-.07.91-.4.93-.97a5.43 5.43 0 0 0-.37-1.72c.53.7 1.12 1.34 1.78 1.9-.01.3.06.59.22.87s.36.49.62.64c.26.16.53.22.8.18.3-.04.57-.21.8-.5l.37 2.42c0 .32.06.6.2.84l.34.6c.27.57.6 1.14 1.02 1.69.05.07.07.06.06-.03-.02-.11.02-.19.13-.21.07-.02.11-.06.12-.13l.22-1.93-.06 2.54a12.83 12.83 0 0 1-3.38 2.65l-.74-1.85a1.5 1.5 0 0 0-1.17-1l-.42-.07a7.55 7.55 0 0 1-1.82-.42c-.66-.3-.94-.73-.82-1.3.01-.07.06-.1.12-.08.98.3 1.23.24.77-.17-.12-.3-.26-.42-.43-.39a1.31 1.31 0 0 1-.63-.9c-.02-.08.02-.12.1-.12.5-.03.94-.18 1.31-.44a.2.2 0 0 1 .2-.03l.24.07c.05.02.08.01.11 0 .07-.04.08-.1.03-.16-.1-.14-.13-.28-.1-.4a.17.17 0 0 0-.08-.19.99.99 0 0 0-.35-.18c-.07-.02-.1-.06-.1-.13 0-.28-.31-.48-.95-.6a4.83 4.83 0 0 0-1.32-.07c-.15.02-.24-.05-.25-.21-.03-.28-.03-.6 0-.98.03-.44 0-.8-.06-1.1a2.38 2.38 0 0 0-.48-.91c-.1-.13-.33-.3-.68-.5a2.26 2.26 0 0 1-1-1.16c-.03-.32.07-.51.32-.57a10 10 0 0 0 .47-.11c.48-.2.98-.3 1.5-.33Z" fill="#F2B382"/><path d="M35.16 28.35a3.22 3.22 0 0 0-1.52.09c-.14-.05-.2-.24-.2-.59.01-.07.05-.13.11-.16a.19.19 0 0 1 .2.01c.16.1.27.23.33.38.03.06.08.1.15.11a1 1 0 0 0 .32-.01c.3-.05.5 0 .61.17Z" fill="#A36136"/><path d="M35.16 28.36h.36l.53 1.2.4 1.8.52 2.08c-.24.29-.5.45-.8.5-.28.04-.55-.02-.81-.18a1.7 1.7 0 0 1-.62-.64 1.62 1.62 0 0 1-.22-.88c.15.2.28.35.4.45.1.07.1.06.04-.03-.3-.42-.64-.8-1-1.11a7.4 7.4 0 0 1-1-1.19l-.08-.1c-.06-.1-.04-.16.05-.21.1-.05.15-.13.16-.25 0-.07-.02-.12-.1-.14-.3-.09-.37-.3-.2-.62.09-.18.21-.25.38-.22.06.02.1.06.12.13l.05.37c.4-.04.5-.33.3-.88.39-.14.9-.17 1.52-.08Z" fill="#FBC58F"/><path d="M22.14 28.75c-.24.51-.44 1.05-.6 1.62-.1.33-.05.63.15.92.5.27.86.6 1.09.98l-1.29-.25c-.05-.01-.1.01-.14.07l-.6.8a.86.86 0 0 0-.1.17.47.47 0 0 1-.29.3 5 5 0 0 0-.3.12c-.3.18-.58.38-.85.6-.09.1-.15.21-.2.34-.01.04-.03.04-.06.01l-.05-.05a.07.07 0 0 1-.02-.09l.09-.16c.13-.26.19-.46.16-.6-.04-.16-.13-.25-.26-.28-.07-.02-.11-.06-.11-.13a2.4 2.4 0 0 1 .38-1.57c.08.01.15-.02.21-.11a.38.38 0 0 0 .05-.2c-.01-.35 0-.69.05-1.03a2.9 2.9 0 0 0 2.46-1.67c.18.06.26.13.23.21Z" fill="#1D0B03"/><path d="M18.28 28.5c-.25.2-.2.34.13.41.15.04.24.13.27.29.07.36.2.74.4 1.12.22.43.24.84.06 1.23-.3.4-.42.93-.38 1.57 0 .07.04.11.1.13.15.03.23.12.27.28.03.14-.03.34-.16.6a2.5 2.5 0 0 0-.09.16c-.01.04 0 .07.02.09l.05.05c.03.03.05.03.06 0 .05-.14.11-.25.2-.35.18.01.28.08.3.2l-.02.37c0 .06 0 .1.03.13.05.06.1.06.14 0 .06-.07.14-.18.23-.33.18-.26.33-.44.45-.55l1.05-.97a.3.3 0 0 1 .18-.08c.63-.07 1.22.03 1.78.3.91.34 1.52.64 1.8.9a3.8 3.8 0 0 1 1.1 2.17c.15.79.14 1.61-.02 2.48-.02.13.03.2.17.22.72.07 1.26.27 1.62.6a5.72 5.72 0 0 1 1.04 1.55c.03.06.08.11.14.15.21.13.35.3.42.54.02.05.05.1.1.13.1.08.2.14.3.16.61.6.78.87.49.82-1-.02-1.95.05-2.84.23-.25.05-.53.16-.84.33-.25.14-.52.27-.82.4l-1.72-.25a6.76 6.76 0 0 0-1.66-5.34 3.23 3.23 0 0 0-2.14-1.13c-.62-.07-1.47 0-2.53.2l-.22-.33a.2.2 0 0 1-.02-.18c.26-.7.37-1.4.33-2.14l-.03-.63a5.9 5.9 0 0 0-.16-1.41c-.1-.37-.19-.87-.24-1.5-.02-.16-.01-.4.02-.73.03-.35.04-.61.03-.8.06-.3.26-.67.61-1.08Z" fill="#FBC58F"/><path d="M22.14 28.75c.34.04.87.06 1.57.08.54 0 .92.02 1.15.04.5.04 1.05.03 1.66-.03.27-.03.48 0 .63.06.14.06.3.2.48.43.36.47.7.8 1 1 .34.23.5.82.48 1.76v.2c0 .06.01.13.04.19l.22.51c.03.08.02.13-.05.18-.37.21-.73.26-1.08.14-.24-.08-.4-.12-.49-.1a8.18 8.18 0 0 1-2.97-.45l-.15-.05a2.3 2.3 0 0 1-.69-.39 2.77 2.77 0 0 0-.61-.37.17.17 0 0 1-.09-.08l-.09-.14a.13.13 0 0 0-.12-.08c-.45 0-.9-.11-1.34-.36-.2-.29-.25-.6-.15-.92.16-.57.37-1.1.6-1.62Z" fill="#733914"/><path d="M32.3 29.73c.1.22.25.42.44.62l.04.12c.23.73.34 1.27.33 1.6-.02.57-.33.9-.93.97-1.03.13-1.74-.5-2.13-1.9-.1-.36-.35-.83-.73-1.4l-.25-.39c-.03-.06-.02-.1.05-.1.39-.07.66-.07.83 0 .74.3 1.52.46 2.34.48Z" fill="#FBC58F"/><path d="M26.8 30.87a.87.87 0 0 1-.7-.03 6.78 6.78 0 0 0-1.84-.71c-.07-.01-.1-.06-.09-.14.03-.12.15-.2.36-.23.67-.1 1.42-.27 2.23-.49.08-.02.14 0 .2.05l.88.9c.04.03.04.07 0 .1-.3.24-.65.42-1.04.55Z" fill="#61290A"/><path d="M17.67 29.6c.01.18 0 .44-.03.8-.03.32-.04.56-.02.72.05.63.13 1.13.24 1.5.1.32.15.8.16 1.4l.03.64c.04.74-.07 1.45-.34 2.14a.2.2 0 0 0 .03.18l.22.33c.05.16.1.27.16.31.66.52 1.1.93 1.3 1.23.62.92 1.34 1.8 2.16 2.62.16.17.29.43.39.78.01.07.05.12.11.15a1 1 0 0 1 .52.67 15.06 15.06 0 0 1-6.38-4.23 16.29 16.29 0 0 1-3.69-6.71 16.3 16.3 0 0 1 5.14-2.54Z" fill="#DCD5C2"/><path d="m43.67 30.85-.05.39-3.13-.27c-.1 0-.15.04-.16.14l-.37 7.51-.6.6.06-2.53.26-4.8.05-1.35c0-.07.04-.1.1-.1l3.84.41Z" fill="#1D0B03"/><path d="M28.32 31.32c-.23.3-.54.32-.92.08a.27.27 0 0 1-.13-.2.27.27 0 0 1 .08-.24l.4-.4a.17.17 0 0 1 .18-.04 2 2 0 0 0 .62.07c.09 0 .14.04.17.12a.3.3 0 0 1 .01.13c0 .05-.04.1-.1.14-.08.07-.19.18-.31.34Z" fill="#A36136"/><path d="M43.62 31.24a5.75 5.75 0 0 1-.31 1.49c-.2.52-.51 1.32-.96 2.41a12.68 12.68 0 0 1-2.39 3.48l.37-7.51c0-.1.06-.15.16-.14l3.13.27ZM39.68 31.9l-.26 4.8-.22 1.91c0 .08-.05.12-.12.14-.1.02-.15.1-.13.21.01.09 0 .1-.06.03a8.92 8.92 0 0 1-1.02-1.7 26 26 0 0 0-.34-.6c-.14-.23-.2-.51-.2-.83l.4.84c.04.08.07.08.09 0 .2-.8.4-1.75.6-2.86.09-.46.34-.8.75-1.02.19-.1.36-.41.51-.92Z" fill="#C3BEBD"/><path d="M22.78 32.27c.19.07.4.12.63.16.14.03.27.1.4.2a3.68 3.68 0 0 0 .27.2c.6.25 1.16.63 1.68 1.13a16.2 16.2 0 0 1 1.58 1.9 17.28 17.28 0 0 1 1.71 3.2c.03.07.07.11.13.15.34.17.76.53 1.28 1.08l.25.25c.04.05.1.18.17.4.19.57.26 1.21.23 1.92.03.15-.17.15-.6 0 .29.06.12-.21-.49-.8l-1.48-2.86c-.15-.3-.42-.75-.8-1.33a18.05 18.05 0 0 1-.92-1.56 14.9 14.9 0 0 0-.97-1.67 3.34 3.34 0 0 0-1.3-1.17 13.29 13.29 0 0 0-1.88-.65c-.02.01-.03.03-.03.05-.01.04 0 .05.04.05.34-.04.56.03.67.23a3.29 3.29 0 0 0-1.78-.3.3.3 0 0 0-.18.08l-1.05.97c-.12.1-.27.3-.44.55l-.23.33c-.05.06-.1.06-.15 0-.03-.03-.04-.07-.03-.13l.02-.38c-.02-.11-.12-.18-.3-.2.27-.21.55-.41.86-.59l.3-.11a.47.47 0 0 0 .28-.3.85.85 0 0 1 .1-.17l.6-.8c.04-.07.1-.1.15-.08l1.28.25Z" fill="#A36136"/><path d="M30.02 42.05c-.1-.02-.2-.08-.3-.16a.25.25 0 0 1-.1-.13.94.94 0 0 0-.42-.54.42.42 0 0 1-.14-.15l-.1-.18c-.38-.7-.7-1.16-.94-1.38-.36-.32-.9-.52-1.62-.59-.14-.01-.2-.09-.17-.22.16-.87.17-1.7.03-2.48a3.8 3.8 0 0 0-1.1-2.17 6.02 6.02 0 0 0-1.81-.9c-.1-.2-.33-.27-.67-.23-.04 0-.05-.01-.04-.05l.02-.05h.05c.63.17 1.24.39 1.83.65.46.2.9.6 1.31 1.17a14.9 14.9 0 0 1 1.1 1.91c.16.3.42.74.8 1.32.37.58.64 1.02.8 1.33.48.96.98 1.91 1.47 2.85Z" fill="#D79468"/><path d="M29.7 37.3a9 9 0 0 0 2.6 3.93c.25.23.67.8 1.26 1.73-.28.17-.53.27-.74.3l-1.71-.4a5.3 5.3 0 0 0-.23-1.93 1.27 1.27 0 0 0-.18-.39l-.24-.25c-.52-.55-.94-.9-1.28-1.08a.26.26 0 0 1-.13-.15 17.28 17.28 0 0 0-1.7-3.2c.48.14.85.32 1.1.53.33.29.4.23.2-.15a3.74 3.74 0 0 1-.34-2.16c.03-.3.13-.33.3-.08.43.63.94 1 1.53 1.1.28.04.31.15.1.32-.49.4-.67 1.03-.53 1.89Z" fill="#0E0403"/><path d="M32.08 34.56a.98.98 0 0 1 .35-.03c.04 0 .07.03.08.07v.06c0 .04-.03.06-.06.07a.6.6 0 0 1-.38-.07c-.09-.04-.09-.08 0-.1ZM19.1 34.64c.05.04.07.1.08.18.01.08-.03.12-.13.12-.06 0-.1-.04-.1-.1-.02-.05-.01-.1.01-.16.03-.07.08-.09.14-.04ZM31.47 36.6c.17-.03.3.1.43.4l-1.85-.3a.2.2 0 0 0-.19.06.2.2 0 0 0-.06.19c.06.37.14.66.24.85a7.1 7.1 0 0 0 2.28 2.69c.63.48 1.1.89 1.4 1.22l.86.9c-.4.2-.73.31-1.01.35-.6-.93-1.02-1.5-1.27-1.73a9 9 0 0 1-2.6-3.92c0-.3.02-.5.06-.58.14-.24.3-.3.52-.17.06.04.13.06.2.05h.99Z" fill="#A36136"/><path d="m24.29 43.58-1.7-.51a1 1 0 0 0-.5-.67.23.23 0 0 1-.12-.15c-.1-.35-.23-.61-.4-.78-.8-.82-1.53-1.7-2.15-2.62-.2-.3-.64-.7-1.3-1.23-.06-.05-.12-.15-.16-.31a8.63 8.63 0 0 1 2.53-.2c.88.1 1.59.48 2.14 1.13a6.76 6.76 0 0 1 1.66 5.34Z" fill="#F2B382"/><path d="M31.9 37c.46.4.2.46-.77.16-.06-.02-.1 0-.12.08-.12.57.16 1 .82 1.3.38.16.98.3 1.82.42l.41.06c.56.1.95.44 1.18 1l.74 1.86-1.4.72-.85-.9a13.11 13.11 0 0 0-1.8-1.52 7.1 7.1 0 0 1-1.89-2.38c-.1-.2-.18-.48-.24-.85a.2.2 0 0 1 .06-.2.2.2 0 0 1 .19-.05l1.85.3Z" fill="#D79468"/><path d="m31.1 42.86 1.72.4c-2.23.72-4.5.92-6.81.58l.82-.41c.3-.17.59-.29.84-.33.89-.18 1.83-.25 2.84-.23.43.14.63.14.6 0Z" fill="#3D3D49"/><defs><linearGradient id="a" x1="10.42" y1="9.71" x2="68.15" y2="76.02" gradientUnits="userSpaceOnUse"><stop stop-color="#1A1E21"/><stop offset="1" stop-color="#06060A"/></linearGradient></defs></svg>