<?xml version="1.0" encoding="UTF-8"?>
<!DOCTYPE svg PUBLIC "-//W3C//DTD SVG 1.1//EN" "http://www.w3.org/Graphics/SVG/1.1/DTD/svg11.dtd">
<svg xmlns="http://www.w3.org/2000/svg" version="1.1" width="64px" height="64px" style="shape-rendering:geometricPrecision; text-rendering:geometricPrecision; image-rendering:optimizeQuality; fill-rule:evenodd; clip-rule:evenodd" xmlns:xlink="http://www.w3.org/1999/xlink">
<g><path style="opacity:0.998" fill="#ea3273" d="M 25.5,-0.5 C 29.5,-0.5 33.5,-0.5 37.5,-0.5C 50.8007,2.80072 59.1341,11.1341 62.5,24.5C 61.1667,24.5 59.8333,24.5 58.5,24.5C 51.5245,6.84628 38.8579,0.679609 20.5,6C 12.8556,9.14232 7.85558,14.6423 5.5,22.5C 3.83333,22.5 2.16667,22.5 0.5,22.5C 4.73025,10.2659 13.0636,2.59928 25.5,-0.5 Z"/></g>
<g><path style="opacity:1" fill="#fefefe" d="M 58.5,24.5 C 59.905,30.2628 59.5717,35.9295 57.5,41.5C 48.1213,58.6816 34.4546,63.1816 16.5,55C 13.3078,52.9718 10.6411,50.4718 8.5,47.5C 6.61572,44.3965 5.28239,41.0632 4.5,37.5C 3.09865,32.3796 3.43198,27.3796 5.5,22.5C 7.85558,14.6423 12.8556,9.14232 20.5,6C 38.8579,0.679609 51.5245,6.84628 58.5,24.5 Z"/></g>
<g><path style="opacity:1" fill="#e23272" d="M 44.5,22.5 C 42.8333,22.5 41.1667,22.5 39.5,22.5C 39.0825,21.7784 38.4158,21.2784 37.5,21C 33.1794,20.501 28.8461,20.3343 24.5,20.5C 24.5,19.1667 24.5,17.8333 24.5,16.5C 30.7624,15.872 36.7624,16.7054 42.5,19C 43.305,20.1127 43.9717,21.2794 44.5,22.5 Z"/></g>
<g><path style="opacity:1" fill="#b82d6d" d="M 39.5,22.5 C 41.1667,22.5 42.8333,22.5 44.5,22.5C 46.0964,29.5421 43.4297,33.5421 36.5,34.5C 32.5,34.5 28.5,34.5 24.5,34.5C 24.5,33.5 24.5,32.5 24.5,31.5C 29.2973,31.8789 33.964,31.3789 38.5,30C 40.7146,27.7585 41.0479,25.2585 39.5,22.5 Z"/></g>
<g><path style="opacity:1" fill="#b52c6d" d="M 0.5,22.5 C 2.16667,22.5 3.83333,22.5 5.5,22.5C 3.43198,27.3796 3.09865,32.3796 4.5,37.5C 3.16667,37.5 1.83333,37.5 0.5,37.5C 0.166667,37.5 -0.166667,37.5 -0.5,37.5C -0.5,33.5 -0.5,29.5 -0.5,25.5C 0.403972,24.791 0.737305,23.791 0.5,22.5 Z"/></g>
<g><path style="opacity:1" fill="#9b2969" d="M 24.5,34.5 C 28.5,34.5 32.5,34.5 36.5,34.5C 34.0521,35.4731 31.3854,35.8064 28.5,35.5C 28.5,39.1667 28.5,42.8333 28.5,46.5C 27.1667,46.5 25.8333,46.5 24.5,46.5C 24.5,42.5 24.5,38.5 24.5,34.5 Z"/></g>
<g><path style="opacity:0.981" fill="#a82b6b" d="M 58.5,24.5 C 59.8333,24.5 61.1667,24.5 62.5,24.5C 62.5,25.1667 62.8333,25.5 63.5,25.5C 63.5,29.5 63.5,33.5 63.5,37.5C 62.8333,38.8333 62.1667,40.1667 61.5,41.5C 60.1667,41.5 58.8333,41.5 57.5,41.5C 59.5717,35.9295 59.905,30.2628 58.5,24.5 Z"/></g>
<g><path style="opacity:0.913" fill="#912868" d="M 0.5,37.5 C 1.83333,37.5 3.16667,37.5 4.5,37.5C 5.28239,41.0632 6.61572,44.3965 8.5,47.5C 7.16667,47.5 5.83333,47.5 4.5,47.5C 1.81928,44.8082 0.485947,41.4748 0.5,37.5 Z"/></g>
<g><path style="opacity:0.986" fill="#6b2463" d="M 57.5,41.5 C 58.8333,41.5 60.1667,41.5 61.5,41.5C 57.6208,53.3811 49.6208,60.7144 37.5,63.5C 33.5,63.5 29.5,63.5 25.5,63.5C 20.1516,61.8724 15.1516,59.3724 10.5,56C 7.61941,53.7213 5.61941,50.888 4.5,47.5C 5.83333,47.5 7.16667,47.5 8.5,47.5C 10.6411,50.4718 13.3078,52.9718 16.5,55C 34.4546,63.1816 48.1213,58.6816 57.5,41.5 Z"/></g>
</svg>
