<?xml version="1.0" encoding="UTF-8"?>
<!DOCTYPE svg PUBLIC "-//W3C//DTD SVG 1.1//EN" "http://www.w3.org/Graphics/SVG/1.1/DTD/svg11.dtd">
<svg xmlns="http://www.w3.org/2000/svg" version="1.1" width="64px" height="64px" style="shape-rendering:geometricPrecision; text-rendering:geometricPrecision; image-rendering:optimizeQuality; fill-rule:evenodd; clip-rule:evenodd" xmlns:xlink="http://www.w3.org/1999/xlink">
<g><path style="opacity:1" fill="#eddedb" d="M -0.5,-0.5 C 20.8333,-0.5 42.1667,-0.5 63.5,-0.5C 63.5,20.8333 63.5,42.1667 63.5,63.5C 42.1667,63.5 20.8333,63.5 -0.5,63.5C -0.5,42.1667 -0.5,20.8333 -0.5,-0.5 Z"/></g>
<g><path style="opacity:1" fill="#996d6a" d="M 46.5,28.5 C 45.1634,27.6851 44.1634,26.5185 43.5,25C 41.0524,24.1469 40.3857,24.6469 41.5,26.5C 39.9826,26.4894 38.8159,25.8228 38,24.5C 36.9887,25.3366 35.8221,25.67 34.5,25.5C 35.7898,24.0652 37.4565,23.0652 39.5,22.5C 39.0233,21.5224 38.3567,20.6891 37.5,20C 39.3732,17.3775 41.7065,16.5442 44.5,17.5C 44.1667,18.1667 43.8333,18.8333 43.5,19.5C 44.9634,22.357 45.9634,25.357 46.5,28.5 Z"/></g>
<g><path style="opacity:1" fill="#1f1b1a" d="M 27.5,22.5 C 31.2434,22.4592 31.4101,23.1259 28,24.5C 27.5357,23.9056 27.369,23.2389 27.5,22.5 Z"/></g>
<g><path style="opacity:1" fill="#301412" d="M 41.5,26.5 C 42.5,27.5 43.5,28.5 44.5,29.5C 44.6641,32.1873 44.4974,34.854 44,37.5C 43.7216,38.4158 43.2216,39.0825 42.5,39.5C 42.631,38.7611 42.4643,38.0944 42,37.5C 40.0926,38.9298 37.9259,39.5965 35.5,39.5C 32.6644,39.2937 29.9977,38.627 27.5,37.5C 25.3361,31.8342 27.0028,27.8342 32.5,25.5C 33.1667,25.5 33.8333,25.5 34.5,25.5C 35.8221,25.67 36.9887,25.3366 38,24.5C 38.8159,25.8228 39.9826,26.4894 41.5,26.5 Z"/></g>
<g><path style="opacity:1" fill="#e9d6d1" d="M 46.5,28.5 C 46.6633,30.8568 46.4966,33.1902 46,35.5C 45.8091,33.2922 45.3091,31.2922 44.5,29.5C 43.5,28.5 42.5,27.5 41.5,26.5C 40.3857,24.6469 41.0524,24.1469 43.5,25C 44.1634,26.5185 45.1634,27.6851 46.5,28.5 Z"/></g>
<g><path style="opacity:1" fill="#6f4641" d="M 27.5,22.5 C 26.5987,23.2905 25.9321,24.2905 25.5,25.5C 25.1412,27.371 24.1412,28.871 22.5,30C 22.1119,31.5252 22.1119,33.1918 22.5,35C 21.6266,36.045 20.6266,36.8783 19.5,37.5C 17.3547,30.2816 16.188,22.9483 16,15.5C 16.2321,16.7375 16.7321,17.7375 17.5,18.5C 17.1253,21.3965 17.6253,24.0632 19,26.5C 19.3961,24.0398 20.5628,22.0398 22.5,20.5C 21.7401,18.6396 20.7401,16.973 19.5,15.5C 19.4346,15.0618 19.6012,14.7284 20,14.5C 22.8546,18.3437 26.6879,20.177 31.5,20C 29.6803,20.2004 28.347,21.0337 27.5,22.5 Z"/></g>
<g><path style="opacity:1" fill="#bb7b79" d="M 19.5,15.5 C 20.7401,16.973 21.7401,18.6396 22.5,20.5C 20.5628,22.0398 19.3961,24.0398 19,26.5C 17.6253,24.0632 17.1253,21.3965 17.5,18.5C 17.2852,16.8212 17.9519,15.8212 19.5,15.5 Z"/></g>
<g><path style="opacity:1" fill="#bda59f" d="M 25.5,25.5 C 27.698,26.0671 30.0314,26.0671 32.5,25.5C 27.0028,27.8342 25.3361,31.8342 27.5,37.5C 30.9287,42.7448 35.5954,43.9115 41.5,41C 42.056,40.6174 42.3893,40.1174 42.5,39.5C 43.2216,39.0825 43.7216,38.4158 44,37.5C 44.4974,34.854 44.6641,32.1873 44.5,29.5C 45.3091,31.2922 45.8091,33.2922 46,35.5C 46.4966,33.1902 46.6633,30.8568 46.5,28.5C 48.6673,41.5045 43.0006,47.3378 29.5,46C 24.7476,44.7414 21.4143,41.9081 19.5,37.5C 20.6266,36.8783 21.6266,36.045 22.5,35C 22.1119,33.1918 22.1119,31.5252 22.5,30C 24.1412,28.871 25.1412,27.371 25.5,25.5 Z"/></g>
<g><path style="opacity:1" fill="#713c3a" d="M 27.5,37.5 C 29.9977,38.627 32.6644,39.2937 35.5,39.5C 37.9259,39.5965 40.0926,38.9298 42,37.5C 42.4643,38.0944 42.631,38.7611 42.5,39.5C 42.3893,40.1174 42.056,40.6174 41.5,41C 35.5954,43.9115 30.9287,42.7448 27.5,37.5 Z"/></g>
</svg>
