<?xml version="1.0" encoding="UTF-8"?>
<!DOCTYPE svg PUBLIC "-//W3C//DTD SVG 1.1//EN" "http://www.w3.org/Graphics/SVG/1.1/DTD/svg11.dtd">
<svg xmlns="http://www.w3.org/2000/svg" version="1.1" width="64px" height="64px" style="shape-rendering:geometricPrecision; text-rendering:geometricPrecision; image-rendering:optimizeQuality; fill-rule:evenodd; clip-rule:evenodd" xmlns:xlink="http://www.w3.org/1999/xlink">
<g><path style="opacity:1" fill="#11031f" d="M -0.5,-0.5 C 20.8333,-0.5 42.1667,-0.5 63.5,-0.5C 63.5,20.8333 63.5,42.1667 63.5,63.5C 42.1667,63.5 20.8333,63.5 -0.5,63.5C -0.5,42.1667 -0.5,20.8333 -0.5,-0.5 Z"/></g>
<g><path style="opacity:1" fill="#fcfcfc" d="M 31.5,4.5 C 38.8161,8.80597 46.1494,13.1393 53.5,17.5C 54.6623,22.467 54.8289,27.467 54,32.5C 50.9177,34.625 47.7511,36.625 44.5,38.5C 43.6717,33.8685 43.1717,29.2018 43,24.5C 39.3333,22.1667 35.6667,19.8333 32,17.5C 31.501,13.1794 31.3343,8.84611 31.5,4.5 Z"/></g>
<g><path style="opacity:1" fill="#fdfcfd" d="M 19.5,39.5 C 15.4849,40.5911 11.9849,42.5911 9,45.5C 8.33333,36.1667 8.33333,26.8333 9,17.5C 12.4235,15.0817 16.0902,13.0817 20,11.5C 23.8912,12.8609 27.3912,14.8609 30.5,17.5C 27.086,19.9574 23.586,22.2907 20,24.5C 19.5007,29.4889 19.3341,34.4889 19.5,39.5 Z"/></g>
<g><path style="opacity:1" fill="#fcfbfc" d="M 19.5,39.5 C 23.4832,41.4916 27.4832,43.4916 31.5,45.5C 35.5,43.5 39.5,41.5 43.5,39.5C 47.4951,40.4934 50.8284,42.4934 53.5,45.5C 46.6866,50.6323 39.3533,54.9656 31.5,58.5C 27.6245,56.645 23.7912,54.645 20,52.5C 19.501,48.1794 19.3343,43.8461 19.5,39.5 Z"/></g>
</svg>
