<?xml version="1.0" encoding="UTF-8"?>
<!DOCTYPE svg PUBLIC "-//W3C//DTD SVG 1.1//EN" "http://www.w3.org/Graphics/SVG/1.1/DTD/svg11.dtd">
<svg xmlns="http://www.w3.org/2000/svg" version="1.1" width="64px" height="64px" style="shape-rendering:geometricPrecision; text-rendering:geometricPrecision; image-rendering:optimizeQuality; fill-rule:evenodd; clip-rule:evenodd" xmlns:xlink="http://www.w3.org/1999/xlink">
<g><path style="opacity:1" fill="#fefefe" d="M -0.5,-0.5 C 20.8333,-0.5 42.1667,-0.5 63.5,-0.5C 63.5,20.8333 63.5,42.1667 63.5,63.5C 42.1667,63.5 20.8333,63.5 -0.5,63.5C -0.5,42.1667 -0.5,20.8333 -0.5,-0.5 Z"/></g>
<g><path style="opacity:1" fill="#313131" d="M 29.5,11.5 C 25.8781,13.7867 22.5448,16.4534 19.5,19.5C 15.1519,13.224 16.9852,9.22405 25,7.5C 27.521,7.82219 29.021,9.15553 29.5,11.5 Z"/></g>
<g><path style="opacity:1" fill="#cececd" d="M 40.5,11.5 C 44.4325,14.0917 48.0991,17.0917 51.5,20.5C 51.3573,22.2624 51.6906,23.9291 52.5,25.5C 52.0656,29.451 51.0656,33.1176 49.5,36.5C 46.6189,40.0441 42.9522,42.3774 38.5,43.5C 38.366,41.7085 38.6993,40.0418 39.5,38.5C 42.8333,38.5 44.5,36.8333 44.5,33.5C 41.9327,33.7215 39.5994,34.3882 37.5,35.5C 35.9157,36.3818 34.249,37.2152 32.5,38C 33.3081,38.3076 33.9747,38.8076 34.5,39.5C 33.7542,40.7362 33.4208,42.0695 33.5,43.5C 28.1722,44.6903 23.6722,43.0237 20,38.5C 16.7615,33.8859 15.5949,28.8859 16.5,23.5C 17.5981,22.603 17.5981,21.7697 16.5,21C 17.5266,20.4867 18.5266,19.9867 19.5,19.5C 22.5448,16.4534 25.8781,13.7867 29.5,11.5C 33.0043,11.0726 36.671,11.0726 40.5,11.5 Z"/></g>
<g><path style="opacity:1" fill="#2f2f2f" d="M 51.5,20.5 C 48.0991,17.0917 44.4325,14.0917 40.5,11.5C 46.9068,8.2463 51.9068,9.7463 55.5,16C 55.0267,18.3046 53.6934,19.8046 51.5,20.5 Z"/></g>
<g><path style="opacity:1" fill="#2a2a2a" d="M 44.5,27.5 C 44.1667,27.5 43.8333,27.5 43.5,27.5C 39.6472,24.4499 39.6472,21.4499 43.5,18.5C 46.3327,20.9894 48.3327,23.9894 49.5,27.5C 49.4933,31.0125 47.8266,32.5125 44.5,32C 45.7279,30.5098 45.7279,29.0098 44.5,27.5 Z"/></g>
<g><path style="opacity:1" fill="#353535" d="M 28.5,17.5 C 32.099,16.9376 34.099,18.4376 34.5,22C 33.7299,24.0687 32.3965,25.7353 30.5,27C 31.1667,28.3333 31.8333,29.6667 32.5,31C 27.5408,35.1813 24.2075,34.1813 22.5,28C 24.7114,24.6216 26.7114,21.1216 28.5,17.5 Z"/></g>
<g><path style="opacity:1" fill="#313131" d="M 16.5,23.5 C 15.5949,28.8859 16.7615,33.8859 20,38.5C 23.6722,43.0237 28.1722,44.6903 33.5,43.5C 34.8121,43.8243 35.6454,44.4909 36,45.5C 37.0111,44.9444 37.8444,44.2778 38.5,43.5C 42.9522,42.3774 46.6189,40.0441 49.5,36.5C 50.3596,38.8155 50.8596,41.1489 51,43.5C 47.2232,49.1315 42.0565,52.4649 35.5,53.5C 35.3059,49.9952 34.3059,49.6618 32.5,52.5C 18.8163,51.6337 10.6496,44.6337 8,31.5C 10.7291,28.6007 13.5624,25.934 16.5,23.5 Z"/></g>
<g><path style="opacity:1" fill="#fdfdfd" d="M 44.5,27.5 C 44.6964,25.3544 45.6964,25.1878 47.5,27C 46.552,27.4828 45.552,27.6495 44.5,27.5 Z"/></g>
<g><path style="opacity:1" fill="#323232" d="M 43.5,27.5 C 43.7067,30.1268 42.54,31.7935 40,32.5C 38.1944,31.24 36.361,30.0733 34.5,29C 37.2784,27.6081 40.2784,27.1081 43.5,27.5 Z"/></g>
<g><path style="opacity:1" fill="#826045" d="M 39.5,38.5 C 39.7148,36.8212 39.0481,35.8212 37.5,35.5C 39.5994,34.3882 41.9327,33.7215 44.5,33.5C 44.5,36.8333 42.8333,38.5 39.5,38.5 Z"/></g>
<g><path style="opacity:1" fill="#3f8244" d="M 37.5,35.5 C 39.0481,35.8212 39.7148,36.8212 39.5,38.5C 38.6993,40.0418 38.366,41.7085 38.5,43.5C 37.8444,44.2778 37.0111,44.9444 36,45.5C 35.6454,44.4909 34.8121,43.8243 33.5,43.5C 33.4208,42.0695 33.7542,40.7362 34.5,39.5C 33.9747,38.8076 33.3081,38.3076 32.5,38C 34.249,37.2152 35.9157,36.3818 37.5,35.5 Z"/></g>
<g><path style="opacity:1" fill="#4e8951" d="M 35.5,47.5 C 36.0768,46.2267 36.7435,46.2267 37.5,47.5C 38.4279,48.7678 38.5946,50.1011 38,51.5C 37.3918,49.9336 36.5585,48.6002 35.5,47.5 Z"/></g>
<g><path style="opacity:1" fill="#4a8c50" d="M 35.5,53.5 C 33.8041,55.129 32.8041,54.7957 32.5,52.5C 34.3059,49.6618 35.3059,49.9952 35.5,53.5 Z"/></g>
</svg>
