<?xml version="1.0" encoding="UTF-8"?>
<!DOCTYPE svg PUBLIC "-//W3C//DTD SVG 1.1//EN" "http://www.w3.org/Graphics/SVG/1.1/DTD/svg11.dtd">
<svg xmlns="http://www.w3.org/2000/svg" version="1.1" width="64px" height="64px" style="shape-rendering:geometricPrecision; text-rendering:geometricPrecision; image-rendering:optimizeQuality; fill-rule:evenodd; clip-rule:evenodd" xmlns:xlink="http://www.w3.org/1999/xlink">
<g><path style="opacity:1" fill="#e5d9fd" d="M 25.5,-0.5 C 29.5,-0.5 33.5,-0.5 37.5,-0.5C 51.1667,3.16667 59.8333,11.8333 63.5,25.5C 63.5,29.5 63.5,33.5 63.5,37.5C 59.8333,51.1667 51.1667,59.8333 37.5,63.5C 33.5,63.5 29.5,63.5 25.5,63.5C 11.8333,59.8333 3.16667,51.1667 -0.5,37.5C -0.5,33.5 -0.5,29.5 -0.5,25.5C 3.16667,11.8333 11.8333,3.16667 25.5,-0.5 Z"/></g>
<g><path style="opacity:1" fill="#232235" d="M 27.5,12.5 C 42.3145,11.8137 49.1478,18.8137 48,33.5C 45.5819,40.968 40.4152,44.968 32.5,45.5C 32.238,44.0222 32.5713,42.6888 33.5,41.5C 43.0591,38.3818 46.2258,32.0485 43,22.5C 36.3382,14.9766 29.3382,14.6433 22,21.5C 21.0266,23.3921 20.3599,25.3921 20,27.5C 19.6667,33.1667 19.3333,38.8333 19,44.5C 18,43.5 17,42.5 16,41.5C 15.1824,35.0983 15.5158,28.765 17,22.5C 19.0808,17.5837 22.5808,14.2504 27.5,12.5 Z"/></g>
<g><path style="opacity:1" fill="#232235" d="M 29.5,20.5 C 38.3649,20.8474 41.5316,25.1807 39,33.5C 37.4675,35.5624 35.4675,36.8957 33,37.5C 32.1745,34.3977 33.1745,32.0643 36,30.5C 36.692,27.2293 35.3587,25.2293 32,24.5C 30.7387,24.7591 29.7387,25.4258 29,26.5C 28.6667,35.5 28.3333,44.5 28,53.5C 23.9688,49.6273 22.4688,44.794 23.5,39C 23.4629,34.0993 23.9629,29.266 25,24.5C 26.3968,22.9297 27.8968,21.5964 29.5,20.5 Z"/></g>
</svg>
