<?xml version="1.0" encoding="UTF-8"?>
<!DOCTYPE svg PUBLIC "-//W3C//DTD SVG 1.1//EN" "http://www.w3.org/Graphics/SVG/1.1/DTD/svg11.dtd">
<svg xmlns="http://www.w3.org/2000/svg" version="1.1" width="64px" height="64px" style="shape-rendering:geometricPrecision; text-rendering:geometricPrecision; image-rendering:optimizeQuality; fill-rule:evenodd; clip-rule:evenodd" xmlns:xlink="http://www.w3.org/1999/xlink">
<g><path style="opacity:0.993" fill="#5555fe" d="M 25.5,-0.5 C 29.5,-0.5 33.5,-0.5 37.5,-0.5C 51.1667,3.16667 59.8333,11.8333 63.5,25.5C 63.5,29.5 63.5,33.5 63.5,37.5C 59.8333,51.1667 51.1667,59.8333 37.5,63.5C 33.5,63.5 29.5,63.5 25.5,63.5C 11.8333,59.8333 3.16667,51.1667 -0.5,37.5C -0.5,33.5 -0.5,29.5 -0.5,25.5C 3.16667,11.8333 11.8333,3.16667 25.5,-0.5 Z"/></g>
<g><path style="opacity:1" fill="#54d856" d="M 46.5,11.5 C 47.8734,11.3433 49.2068,11.51 50.5,12C 49.376,16.6116 47.876,21.1116 46,25.5C 42.6644,28.1694 38.8311,29.6694 34.5,30C 32.617,33.7392 31.617,37.7392 31.5,42C 32.0694,45.8173 32.4027,49.6506 32.5,53.5C 30.5328,53.7394 28.6995,53.4061 27,52.5C 26.9578,49.0321 27.1245,45.5321 27.5,42C 27.8283,38.4633 26.9949,35.2966 25,32.5C 22.9973,34.9221 20.4973,35.7554 17.5,35C 14.1667,33 11.5,30.3333 9.5,27C 18.4861,24.9906 25.1528,28.1572 29.5,36.5C 31.7058,30.384 34.2058,24.384 37,18.5C 39.529,15.1151 42.6956,12.7818 46.5,11.5 Z"/></g>
</svg>
