<?xml version="1.0" encoding="UTF-8"?>
<!DOCTYPE svg PUBLIC "-//W3C//DTD SVG 1.1//EN" "http://www.w3.org/Graphics/SVG/1.1/DTD/svg11.dtd">
<svg xmlns="http://www.w3.org/2000/svg" version="1.1" width="64px" height="64px" style="shape-rendering:geometricPrecision; text-rendering:geometricPrecision; image-rendering:optimizeQuality; fill-rule:evenodd; clip-rule:evenodd" xmlns:xlink="http://www.w3.org/1999/xlink">
<g><path style="opacity:0.954" fill="#03fcab" d="M 28.5,-0.5 C 30.5,-0.5 32.5,-0.5 34.5,-0.5C 42.398,0.355809 49.0646,3.68914 54.5,9.5C 46.8333,9.5 39.1667,9.5 31.5,9.5C 31.1667,5.5 30.8333,5.5 30.5,9.5C 23.1667,9.5 15.8333,9.5 8.5,9.5C 13.9354,3.68914 20.602,0.355809 28.5,-0.5 Z"/></g>
<g><path style="opacity:1" fill="#fafcfe" d="M 31.5,9.5 C 32.3007,11.0418 32.634,12.7085 32.5,14.5C 32.9113,17.6624 33.7447,20.6624 35,23.5C 38.8118,20.3596 42.6451,17.3596 46.5,14.5C 46.8333,14.5 47.1667,14.5 47.5,14.5C 45.7622,16.9214 44.4289,19.5881 43.5,22.5C 41.8333,23.5 40.5,24.8333 39.5,26.5C 39.3893,27.1174 39.056,27.6174 38.5,28C 44.4789,29.1291 50.4789,30.1291 56.5,31C 54.9419,31.21 53.6085,31.71 52.5,32.5C 47.6836,32.5803 43.0169,33.4137 38.5,35C 40.3003,36.8119 41.9669,38.6452 43.5,40.5C 43.9321,41.7095 44.5987,42.7095 45.5,43.5C 46.0283,44.7206 46.695,45.8873 47.5,47C 46.4232,47.4696 45.4232,47.3029 44.5,46.5C 41.8292,43.8394 38.8292,41.5061 35.5,39.5C 34.914,39.7093 34.414,40.0426 34,40.5C 33.5045,42.4727 33.3379,44.4727 33.5,46.5C 32.5655,47.5676 32.2322,48.901 32.5,50.5C 31.8153,52.4144 31.3153,54.4144 31,56.5C 30.7096,54.0796 30.2096,51.7463 29.5,49.5C 29.2189,45.8121 28.7189,42.1454 28,38.5C 23.4045,42.3581 18.5712,45.5248 13.5,48C 14.3805,47.2917 15.0472,46.4584 15.5,45.5C 17.1921,43.7952 18.5254,41.7952 19.5,39.5C 20.9744,38.5637 21.9744,37.2303 22.5,35.5C 22.9382,35.5654 23.2716,35.3988 23.5,35C 17.9331,33.4051 12.2665,32.2384 6.5,31.5C 12.0418,30.1873 17.7084,28.854 23.5,27.5C 21.448,25.122 19.448,22.7887 17.5,20.5C 16.5,18.5 15.5,16.5 14.5,14.5C 14.8333,14.5 15.1667,14.5 15.5,14.5C 19.4319,17.4793 23.4319,20.4793 27.5,23.5C 28.4891,20.5623 29.1558,17.5623 29.5,14.5C 30.038,12.8828 30.3713,11.2161 30.5,9.5C 30.8333,5.5 31.1667,5.5 31.5,9.5 Z"/></g>
<g><path style="opacity:0.999" fill="#12e6b3" d="M 8.5,9.5 C 15.8333,9.5 23.1667,9.5 30.5,9.5C 30.3713,11.2161 30.038,12.8828 29.5,14.5C 24.8333,14.5 20.1667,14.5 15.5,14.5C 15.1667,14.5 14.8333,14.5 14.5,14.5C 11.4768,14.3567 8.14349,14.3567 4.5,14.5C 5.1237,12.246 6.45703,10.5794 8.5,9.5 Z"/></g>
<g><path style="opacity:0.999" fill="#0de6b3" d="M 31.5,9.5 C 39.1667,9.5 46.8333,9.5 54.5,9.5C 56.543,10.5794 57.8763,12.246 58.5,14.5C 54.5234,14.3711 50.8567,14.3711 47.5,14.5C 47.1667,14.5 46.8333,14.5 46.5,14.5C 41.8333,14.5 37.1667,14.5 32.5,14.5C 32.634,12.7085 32.3007,11.0418 31.5,9.5 Z"/></g>
<g><path style="opacity:1" fill="#1fd0ba" d="M 15.5,14.5 C 20.1667,14.5 24.8333,14.5 29.5,14.5C 29.1558,17.5623 28.4891,20.5623 27.5,23.5C 23.4319,20.4793 19.4319,17.4793 15.5,14.5 Z"/></g>
<g><path style="opacity:1" fill="#1fd0ba" d="M 32.5,14.5 C 37.1667,14.5 41.8333,14.5 46.5,14.5C 42.6451,17.3596 38.8118,20.3596 35,23.5C 33.7447,20.6624 32.9113,17.6624 32.5,14.5 Z"/></g>
<g><path style="opacity:0.998" fill="#1acabb" d="M 14.5,14.5 C 15.5,16.5 16.5,18.5 17.5,20.5C 12.1667,20.5 6.83333,20.5 1.5,20.5C 1.99249,18.1815 2.99249,16.1815 4.5,14.5C 8.14349,14.3567 11.4768,14.3567 14.5,14.5 Z"/></g>
<g><path style="opacity:1" fill="#1dc4bd" d="M 58.5,14.5 C 60.3433,16.8531 61.6766,19.5198 62.5,22.5C 56.1667,22.5 49.8333,22.5 43.5,22.5C 44.4289,19.5881 45.7622,16.9214 47.5,14.5C 50.8567,14.3711 54.5234,14.3711 58.5,14.5 Z"/></g>
<g><path style="opacity:1" fill="#23acc4" d="M 43.5,22.5 C 49.8333,22.5 56.1667,22.5 62.5,22.5C 62.5,23.5 62.5,24.5 62.5,25.5C 55.0182,26.492 47.3516,26.8254 39.5,26.5C 40.5,24.8333 41.8333,23.5 43.5,22.5 Z"/></g>
<g><path style="opacity:0.975" fill="#27a7c6" d="M 1.5,20.5 C 6.83333,20.5 12.1667,20.5 17.5,20.5C 19.448,22.7887 21.448,25.122 23.5,27.5C 17.7084,28.854 12.0418,30.1873 6.5,31.5C 4.28298,30.6314 1.94965,30.298 -0.5,30.5C -0.5,28.8333 -0.5,27.1667 -0.5,25.5C 0.309209,23.9724 0.975875,22.3057 1.5,20.5 Z"/></g>
<g><path style="opacity:0.987" fill="#2a9bca" d="M 62.5,25.5 C 62.8333,25.5 63.1667,25.5 63.5,25.5C 63.5,27.8333 63.5,30.1667 63.5,32.5C 59.8333,32.5 56.1667,32.5 52.5,32.5C 53.6085,31.71 54.9419,31.21 56.5,31C 50.4789,30.1291 44.4789,29.1291 38.5,28C 39.056,27.6174 39.3893,27.1174 39.5,26.5C 47.3516,26.8254 55.0182,26.492 62.5,25.5 Z"/></g>
<g><path style="opacity:0.986" fill="#3184d1" d="M -0.5,30.5 C 1.94965,30.298 4.28298,30.6314 6.5,31.5C 12.2665,32.2384 17.9331,33.4051 23.5,35C 23.2716,35.3988 22.9382,35.5654 22.5,35.5C 14.8333,35.5 7.16667,35.5 -0.5,35.5C -0.5,33.8333 -0.5,32.1667 -0.5,30.5 Z"/></g>
<g><path style="opacity:1" fill="#3478d4" d="M 52.5,32.5 C 56.1667,32.5 59.8333,32.5 63.5,32.5C 63.5,33.8333 63.5,35.1667 63.5,36.5C 62.596,37.209 62.2627,38.209 62.5,39.5C 55.9779,39.1765 49.6446,39.5098 43.5,40.5C 41.9669,38.6452 40.3003,36.8119 38.5,35C 43.0169,33.4137 47.6836,32.5803 52.5,32.5 Z"/></g>
<g><path style="opacity:1" fill="#3573d6" d="M -0.5,36.5 C -0.5,36.1667 -0.5,35.8333 -0.5,35.5C 7.16667,35.5 14.8333,35.5 22.5,35.5C 21.9744,37.2303 20.9744,38.5637 19.5,39.5C 13.1667,39.5 6.83333,39.5 0.5,39.5C 0.737305,38.209 0.403972,37.209 -0.5,36.5 Z"/></g>
<g><path style="opacity:0.988" fill="#3e5ddd" d="M 0.5,39.5 C 6.83333,39.5 13.1667,39.5 19.5,39.5C 18.5254,41.7952 17.1921,43.7952 15.5,45.5C 11.3656,44.5151 7.03225,44.1818 2.5,44.5C 1.46253,43.0697 0.795864,41.403 0.5,39.5 Z"/></g>
<g><path style="opacity:0.988" fill="#3c5edc" d="M 62.5,39.5 C 62.1667,40.8333 61.8333,42.1667 61.5,43.5C 56.1667,43.5 50.8333,43.5 45.5,43.5C 44.5987,42.7095 43.9321,41.7095 43.5,40.5C 49.6446,39.5098 55.9779,39.1765 62.5,39.5 Z"/></g>
<g><path style="opacity:1" fill="#4757e0" d="M 44.5,46.5 C 40.8333,46.5 37.1667,46.5 33.5,46.5C 33.3379,44.4727 33.5045,42.4727 34,40.5C 34.414,40.0426 34.914,39.7093 35.5,39.5C 38.8292,41.5061 41.8292,43.8394 44.5,46.5 Z"/></g>
<g><path style="opacity:1" fill="#4648e4" d="M 29.5,49.5 C 21.149,49.5185 12.8156,49.1852 4.5,48.5C 3.39952,47.3951 2.73286,46.0618 2.5,44.5C 7.03225,44.1818 11.3656,44.5151 15.5,45.5C 15.0472,46.4584 14.3805,47.2917 13.5,48C 18.5712,45.5248 23.4045,42.3581 28,38.5C 28.7189,42.1454 29.2189,45.8121 29.5,49.5 Z"/></g>
<g><path style="opacity:0.989" fill="#4b43e6" d="M 45.5,43.5 C 50.8333,43.5 56.1667,43.5 61.5,43.5C 60.1891,46.1354 58.5224,48.4687 56.5,50.5C 48.5,50.5 40.5,50.5 32.5,50.5C 32.2322,48.901 32.5655,47.5676 33.5,46.5C 37.1667,46.5 40.8333,46.5 44.5,46.5C 45.4232,47.3029 46.4232,47.4696 47.5,47C 46.695,45.8873 46.0283,44.7206 45.5,43.5 Z"/></g>
<g><path style="opacity:0.974" fill="#5422f0" d="M 4.5,48.5 C 12.8156,49.1852 21.149,49.5185 29.5,49.5C 30.2096,51.7463 30.7096,54.0796 31,56.5C 31.3153,54.4144 31.8153,52.4144 32.5,50.5C 40.5,50.5 48.5,50.5 56.5,50.5C 50.5159,58.9897 42.1825,62.9897 31.5,62.5C 19.7958,62.8162 10.7958,58.1495 4.5,48.5 Z"/></g>
</svg>
