<?xml version="1.0" encoding="UTF-8"?>
<!DOCTYPE svg PUBLIC "-//W3C//DTD SVG 1.1//EN" "http://www.w3.org/Graphics/SVG/1.1/DTD/svg11.dtd">
<svg xmlns="http://www.w3.org/2000/svg" version="1.1" width="64px" height="64px" style="shape-rendering:geometricPrecision; text-rendering:geometricPrecision; image-rendering:optimizeQuality; fill-rule:evenodd; clip-rule:evenodd" xmlns:xlink="http://www.w3.org/1999/xlink">
<g><path style="opacity:0.994" fill="#b923cb" d="M 24.5,-0.5 C 29.1667,-0.5 33.8333,-0.5 38.5,-0.5C 48.9003,2.23056 56.2337,8.56389 60.5,18.5C 55.8333,18.5 51.1667,18.5 46.5,18.5C 43.4707,13.1429 38.804,10.8095 32.5,11.5C 26.8596,11.3801 21.8596,13.0468 17.5,16.5C 12.8333,16.5 8.16667,16.5 3.5,16.5C 8.00219,7.74877 15.0022,2.08211 24.5,-0.5 Z"/></g>
<g><path style="opacity:1" fill="#fefdfe" d="M 46.5,18.5 C 46.8396,22.1309 46.0063,25.4642 44,28.5C 40.3285,32.0773 36.1619,34.7439 31.5,36.5C 34.7655,46.0201 39.9322,47.0201 47,39.5C 47.6924,40.0253 48.1924,40.6919 48.5,41.5C 45.1193,47.2428 40.1193,49.4094 33.5,48C 30.1166,44.7308 27.6166,40.8974 26,36.5C 24.7729,41.201 22.6062,45.3677 19.5,49C 15.9124,49.6114 14.7458,48.1114 16,44.5C 17.1799,42.1401 18.3466,39.8068 19.5,37.5C 22.4701,33.0046 25.3034,28.3379 28,23.5C 29.1096,21.9632 30.6096,21.2965 32.5,21.5C 32.1046,24.6862 31.1046,27.6862 29.5,30.5C 35.7072,30.9854 39.3739,27.9854 40.5,21.5C 40.6648,18.994 39.6648,17.1607 37.5,16C 33.8333,15.3333 30.1667,15.3333 26.5,16C 23.3451,18.9891 20.3451,22.1558 17.5,25.5C 16.1667,24.8333 15.1667,23.8333 14.5,22.5C 15.1286,20.2592 16.1286,18.2592 17.5,16.5C 21.8596,13.0468 26.8596,11.3801 32.5,11.5C 38.804,10.8095 43.4707,13.1429 46.5,18.5 Z"/></g>
<g><path style="opacity:1" fill="#ac15e0" d="M 19.5,37.5 C 13.021,36.5093 6.3543,36.176 -0.5,36.5C -0.5,32.5 -0.5,28.5 -0.5,24.5C 0.641417,21.7458 1.97475,19.0791 3.5,16.5C 8.16667,16.5 12.8333,16.5 17.5,16.5C 16.1286,18.2592 15.1286,20.2592 14.5,22.5C 15.1667,23.8333 16.1667,24.8333 17.5,25.5C 20.3451,22.1558 23.3451,18.9891 26.5,16C 30.1667,15.3333 33.8333,15.3333 37.5,16C 39.6648,17.1607 40.6648,18.994 40.5,21.5C 39.3739,27.9854 35.7072,30.9854 29.5,30.5C 31.1046,27.6862 32.1046,24.6862 32.5,21.5C 30.6096,21.2965 29.1096,21.9632 28,23.5C 25.3034,28.3379 22.4701,33.0046 19.5,37.5 Z"/></g>
<g><path style="opacity:1" fill="#a80fe5" d="M 46.5,18.5 C 51.1667,18.5 55.8333,18.5 60.5,18.5C 61.5,20.5 62.5,22.5 63.5,24.5C 63.5,28.5 63.5,32.5 63.5,36.5C 52.8333,36.5 42.1667,36.5 31.5,36.5C 36.1619,34.7439 40.3285,32.0773 44,28.5C 46.0063,25.4642 46.8396,22.1309 46.5,18.5 Z"/></g>
<g><path style="opacity:0.991" fill="#9f02f4" d="M -0.5,36.5 C 6.3543,36.176 13.021,36.5093 19.5,37.5C 18.3466,39.8068 17.1799,42.1401 16,44.5C 14.7458,48.1114 15.9124,49.6114 19.5,49C 22.6062,45.3677 24.7729,41.201 26,36.5C 27.6166,40.8974 30.1166,44.7308 33.5,48C 40.1193,49.4094 45.1193,47.2428 48.5,41.5C 48.1924,40.6919 47.6924,40.0253 47,39.5C 39.9322,47.0201 34.7655,46.0201 31.5,36.5C 42.1667,36.5 52.8333,36.5 63.5,36.5C 63.5,37.1667 63.5,37.8333 63.5,38.5C 59.5,51.1667 51.1667,59.5 38.5,63.5C 33.8333,63.5 29.1667,63.5 24.5,63.5C 11.8333,59.5 3.5,51.1667 -0.5,38.5C -0.5,37.8333 -0.5,37.1667 -0.5,36.5 Z"/></g>
</svg>
