<?xml version="1.0" encoding="UTF-8"?>
<!DOCTYPE svg PUBLIC "-//W3C//DTD SVG 1.1//EN" "http://www.w3.org/Graphics/SVG/1.1/DTD/svg11.dtd">
<svg xmlns="http://www.w3.org/2000/svg" version="1.1" width="64px" height="64px" style="shape-rendering:geometricPrecision; text-rendering:geometricPrecision; image-rendering:optimizeQuality; fill-rule:evenodd; clip-rule:evenodd" xmlns:xlink="http://www.w3.org/1999/xlink">
<g><path style="opacity:0.991" fill="#cf1212" d="M 24.5,-0.5 C 29.1667,-0.5 33.8333,-0.5 38.5,-0.5C 51.1667,3.5 59.5,11.8333 63.5,24.5C 63.5,29.1667 63.5,33.8333 63.5,38.5C 59.5,51.1667 51.1667,59.5 38.5,63.5C 33.8333,63.5 29.1667,63.5 24.5,63.5C 11.8333,59.5 3.5,51.1667 -0.5,38.5C -0.5,33.8333 -0.5,29.1667 -0.5,24.5C 3.5,11.8333 11.8333,3.5 24.5,-0.5 Z"/></g>
<g><path style="opacity:1" fill="#fdf6f6" d="M 18.5,11.5 C 25.2973,12.1073 26.9639,15.2739 23.5,21C 20.666,21.0454 18.166,21.8787 16,23.5C 12.5,42.6667 20.3333,50.5 39.5,47C 49.2014,39.879 51.0347,31.0457 45,20.5C 41.5049,16.278 37.0049,14.278 31.5,14.5C 31.5,13.5 31.5,12.5 31.5,11.5C 48.879,14.7206 54.7123,24.7206 49,41.5C 37.3333,54.8333 25.6667,54.8333 14,41.5C 11.8582,37.0301 11.1915,32.3635 12,27.5C 14.355,23.1372 15.6883,18.4706 16,13.5C 16.9947,12.9341 17.828,12.2674 18.5,11.5 Z"/></g>
<g><path style="opacity:1" fill="#d2251f" d="M 18.5,14.5 C 19.8333,14.5 21.1667,14.5 22.5,14.5C 22.3645,19.9873 20.6978,20.654 17.5,16.5C 17.8627,15.8165 18.1961,15.1499 18.5,14.5 Z"/></g>
<g><path style="opacity:1" fill="#fef9f9" d="M 29.5,23.5 C 37.357,24.1648 40.1904,28.1648 38,35.5C 31.3249,41.4288 26.4916,40.0955 23.5,31.5C 24.401,27.9421 26.401,25.2754 29.5,23.5 Z"/></g>
</svg>
