<?xml version="1.0" encoding="utf-8"?>
<!-- Generator: Adobe Illustrator 26.0.3, SVG Export Plug-In . SVG Version: 6.00 Build 0)  -->
<svg version="1.0" id="katman_1" xmlns="http://www.w3.org/2000/svg" xmlns:xlink="http://www.w3.org/1999/xlink" x="0px" y="0px"
	 viewBox="0 0 600 450" style="enable-background:new 0 0 600 450;" xml:space="preserve">
<style type="text/css">
	.st0{fill-rule:evenodd;clip-rule:evenodd;fill:#356BB3;}
	.st1{fill-rule:evenodd;clip-rule:evenodd;fill:#FFFFFF;}
</style>
<g>
	<path class="st0" d="M199.1,42.2h201.8c15.6,0,28.3,12.7,28.3,28.3v221.6c0,10.7-4.8,20.8-13.1,27.5l-102.8,83.4
		c-7.8,6.3-19,6.3-26.8,0l-102.8-83.4c-8.3-6.7-13.1-16.8-13.1-27.5V70.5C170.8,54.9,183.5,42.2,199.1,42.2z"/>
	<path class="st1" d="M365.5,84.7c11.7,0,21.2,9.5,21.2,21.2v68.5l0,0.6c-0.3,14-11.6,25.2-25.5,25.5l-0.6,0l0.6,0
		c14,0.3,25.2,11.6,25.5,25.5l0,0.6v42.9c0,6.1-2.6,11.9-7.2,15.9l-53.4,47l0-96c0-11.7-9.5-21.2-21.2-21.2h-31.1l0,117.3l-53.4-47
		c-4.6-4-7.2-9.8-7.2-15.9V105.9c0-11.7,9.5-21.2,21.2-21.2H365.5z M326.2,114h-52.4v65.3h31.1c11.7,0,21.2-9.5,21.2-21.2V114z"/>
</g>
</svg>
