<!-- by TradingView --><svg width="56" height="56" viewBox="0 0 56 56" xmlns="http://www.w3.org/2000/svg"><path fill="url(#a)" d="M0 0h56v56H0z"/><path d="M21.77 13.31a37.7 37.7 0 0 0 22.18 12.87.07.07 0 0 0 .05-.07 16.13 16.13 0 0 0-16.96-14.08 16.52 16.52 0 0 0-5.27 1.19.07.07 0 0 0-.02.06l.02.03ZM30.69 24l-1.7-1.07a39.56 39.56 0 0 1-9.38-8.5.13.13 0 0 0-.17-.03 17.73 17.73 0 0 0-2.53 1.98.12.12 0 0 0 0 .1l.02.03c3.52 3.5 8.13 5.62 12.75 7.22l1 .35.02-.01v-.01l.01-.02V24l-.02-.01Zm-.73 2.47c.36.13.73.24 1.1.34.06.01.14.05.21.12.05.05.05.07-.02.07l-.3-.01-18.88-.04a.07.07 0 0 1-.05-.02.07.07 0 0 1-.02-.05 15.89 15.89 0 0 1 3.2-8.44c.03-.05.07-.05.12-.01 4.1 3.91 9.29 6.4 14.64 8.04ZM31.1 29l-3.56.01H12.11a.09.09 0 0 0-.08.06v.03c.02.77.14 1.58.34 2.45a16.24 16.24 0 0 0 2.85 6.02.09.09 0 0 0 .1-.02c3.25-3.16 7.3-5.38 11.5-6.96l4.3-1.45c.28-.1.27-.14-.02-.14Zm-1.23 14.92c-2.45.24-4.84-.07-7.16-.93a1.93 1.93 0 0 1-.37-.18.1.1 0 0 1-.04-.08.11.11 0 0 1 .02-.09 37.2 37.2 0 0 1 7.65-7.04 36.23 36.23 0 0 1 13.93-5.76.14.14 0 0 1 .1.09V30c-1.1 7.46-6.66 13.1-14.13 13.92Zm-6.66-6.26a38.66 38.66 0 0 1 5.6-4.46l1.85-1.1c.02 0 .02-.02.01-.04l-.02-.05c-.03-.04-.06-.06-.11-.04l-3.04 1.1a34.19 34.19 0 0 0-7.94 4.18 23.78 23.78 0 0 0-2.65 2.28.16.16 0 0 0 .05.19l.5.4c.71.6 1.23 1.02 2 1.5a.1.1 0 0 0 .07.01 40.05 40.05 0 0 1 3.68-3.97Z" fill="#fff"/><defs><linearGradient id="a" x1="6.38" y1="9.97" x2="47.04" y2="56" gradientUnits="userSpaceOnUse"><stop stop-color="#111113"/><stop offset="1" stop-color="#7C492A"/></linearGradient></defs></svg>