<!-- by TradingView --><svg width="56" height="56" viewBox="0 0 56 56" xmlns="http://www.w3.org/2000/svg"><path fill="url(#a)" d="M0 0h56v56H0z"/><path fill-rule="evenodd" d="M12.5 31.61c-2-2-2-5.23 0-7.22l11.89-11.9c2-1.99 5.23-1.99 7.22 0l11.9 11.9c1.99 2 1.99 5.23 0 7.22l-11.9 11.9c-2 1.99-5.23 1.99-7.22 0l-11.9-11.9ZM22.18 39A5.18 5.18 0 0 1 17 33.82V22.18A5.18 5.18 0 0 1 22.18 17h11.64A5.18 5.18 0 0 1 39 22.18v11.64A5.18 5.18 0 0 1 33.82 39H22.18Zm4.17-1.68c.91.9 2.39.9 3.3 0l7.67-7.67c.9-.91.9-2.39 0-3.3l-7.67-7.67a2.33 2.33 0 0 0-3.3 0l-7.67 7.67a2.33 2.33 0 0 0 0 3.3l7.67 7.67Z" fill="#fff"/><defs><linearGradient id="a" x1="10.42" y1="9.71" x2="68.15" y2="76.02" gradientUnits="userSpaceOnUse"><stop stop-color="#1A1E21"/><stop offset="1" stop-color="#06060A"/></linearGradient></defs></svg>