<!-- by TradingView --><svg width="56" height="56" viewBox="0 0 56 56" xmlns="http://www.w3.org/2000/svg"><path fill="#FFEEDA" d="M0 0h56v56H0z"/><path d="M12 21.3c0 2.37 1.6 4.56 2.76 5.74.31.32.8.3 1.11-.02.38-.38.33-1.02-.05-1.4A6.28 6.28 0 0 1 14 21.3c0-4.09 3.26-5.17 5-5.3h18.2c.48 0 .8.19.8.68v15.59c1.08.26 1.87.58 2 .71v-16.3C40 15.2 38.64 14 37.19 14H19.36A7.3 7.3 0 0 0 12 21.3Zm5.73-1.3H16v2h1v17.23c0 2.63 2.5 4.77 5.08 4.77h14.67A5.3 5.3 0 0 0 42 38.65C42 35.7 39.65 33 36.75 33H22.71c-.97 0-1.71.55-1.71 1.54v2.6c0 1 .74 1.8 1.7 1.8H24V37h-1v-2h.38C25.7 35 26 37.86 26 38.52c0 .65-.14 3.69-3.37 3.69-2.58 0-3.56-1.97-3.63-2.95V21.09c0-.82-.46-1.09-1.27-1.09Zm15.33 0H22v2h11.06c.52 0 .94-.45.94-1s-.42-1-.94-1ZM22 24h13.06c.52 0 .94.45.94 1s-.42 1-.94 1H22v-2Zm11.06 4H22v2h11.06c.52 0 .94-.45.94-1s-.42-1-.94-1Z" fill="#190602"/><path d="M36.6 35h-9.76c.44.44 1.3 1.72 1.3 3.3 0 1.57-.86 3.12-1.3 3.7h9.75c1.9 0 3.41-1.57 3.41-3.5S38.49 35 36.6 35Z" fill="#EBC28E"/></svg>