<?xml version="1.0" encoding="UTF-8"?>
<!DOCTYPE svg PUBLIC "-//W3C//DTD SVG 1.1//EN" "http://www.w3.org/Graphics/SVG/1.1/DTD/svg11.dtd">
<svg xmlns="http://www.w3.org/2000/svg" version="1.1" width="64px" height="64px" style="shape-rendering:geometricPrecision; text-rendering:geometricPrecision; image-rendering:optimizeQuality; fill-rule:evenodd; clip-rule:evenodd" xmlns:xlink="http://www.w3.org/1999/xlink">
<g><path style="opacity:1" fill="#f3e2cb" d="M -0.5,-0.5 C 20.8333,-0.5 42.1667,-0.5 63.5,-0.5C 63.5,20.8333 63.5,42.1667 63.5,63.5C 42.1667,63.5 20.8333,63.5 -0.5,63.5C -0.5,42.1667 -0.5,20.8333 -0.5,-0.5 Z"/></g>
<g><path style="opacity:1" fill="#963259" d="M 16.5,20.5 C 16.5654,20.9382 16.3988,21.2716 16,21.5C 15.6667,20.8333 15.3333,20.1667 15,19.5C 14.5,20.6667 13.6667,21.5 12.5,22C 10.6577,21.932 8.99104,22.0986 7.5,22.5C 13.4466,8.85981 23.78,3.69314 38.5,7C 41.9518,7.89171 44.9518,9.55838 47.5,12C 43.4194,16.5594 39.4194,16.5594 35.5,12C 26.8108,9.5144 20.4775,12.3477 16.5,20.5 Z"/></g>
<g><path style="opacity:1" fill="#ab3653" d="M 55.5,23.5 C 51.5659,25.2129 47.5659,26.5463 43.5,27.5C 39.6895,25.6903 35.6895,25.1903 31.5,26C 28.2951,27.8949 25.1284,29.7283 22,31.5C 18.6108,30.4377 15.4442,28.9377 12.5,27C 10.4325,26.3131 8.43249,26.4798 6.5,27.5C 5.75262,25.7106 6.08595,24.0439 7.5,22.5C 8.99104,22.0986 10.6577,21.932 12.5,22C 13.6667,21.5 14.5,20.6667 15,19.5C 15.3333,20.1667 15.6667,20.8333 16,21.5C 16.3988,21.2716 16.5654,20.9382 16.5,20.5C 17.7942,21.2899 18.9609,22.2899 20,23.5C 22.7462,20.5858 25.9129,18.2525 29.5,16.5C 33.0181,18.8412 36.8515,20.5079 41,21.5C 45.0449,20.9497 48.5449,19.283 51.5,16.5C 53.6002,18.3637 54.9335,20.6971 55.5,23.5 Z"/></g>
<g><path style="opacity:1" fill="#bc364c" d="M 55.5,23.5 C 56.7508,28.6309 56.7508,33.6309 55.5,38.5C 55.5,37.5 55.5,36.5 55.5,35.5C 52.4867,35.1072 49.8201,35.7739 47.5,37.5C 47.5106,35.9826 48.1772,34.8159 49.5,34C 47.2941,31.9633 45.2941,29.7966 43.5,27.5C 47.5659,26.5463 51.5659,25.2129 55.5,23.5 Z"/></g>
<g><path style="opacity:1" fill="#c3394a" d="M 47.5,37.5 C 49.8201,35.7739 52.4867,35.1072 55.5,35.5C 55.5,36.5 55.5,37.5 55.5,38.5C 55.4959,40.8421 54.6625,42.8421 53,44.5C 48.8952,41.1059 44.3952,40.6059 39.5,43C 38.1832,44.6591 36.5165,45.8257 34.5,46.5C 26.4727,39.5545 18.8061,39.8878 11.5,47.5C 7.46251,44.0925 5.62918,39.7591 6,34.5C 7.80832,32.6041 9.97498,32.1041 12.5,33C 14.9634,35.565 17.9634,37.065 21.5,37.5C 26.3786,35.9444 31.0453,33.9444 35.5,31.5C 39.3517,33.1634 42.8517,35.4968 46,38.5C 46.3826,37.944 46.8826,37.6107 47.5,37.5 Z"/></g>
<g><path style="opacity:1" fill="#da3d42" d="M 20.5,47.5 C 24.9605,49.2334 29.6271,50.5667 34.5,51.5C 36.1667,51.3333 37.8333,51.1667 39.5,51C 42.5688,47.2773 45.9021,46.7773 49.5,49.5C 38.8354,59.036 27.5021,59.8693 15.5,52C 17.6175,50.9509 19.2842,49.4509 20.5,47.5 Z"/></g>
</svg>
