<!-- by TradingView --><svg xmlns="http://www.w3.org/2000/svg" width="56" height="56" viewBox="0 0 56 56"><path fill="#9BE9FF" d="M0 0h56v56H0z"/><path d="M18.35 37.56c1.99 1.1 1.81 3.8 1.48 5.01H35.2c-.34-1.21-.51-3.9 1.48-5.01l-.15-.48c-.95.76-3.86 2.05-9.02 2.05-5.11 0-8.07-1.29-9.03-2.05l-.14.48z" fill="#FA9B27"/><path d="M19.83 42.67h15.42c-.08-.3-.2-.8-.23-1.25-6.55 1.34-15 0-15 0-.03.45-.1.94-.2 1.25z" fill="#B3793A"/><path d="M30.86 38.75l-1.48-7.74c2.58-.38 4.54-1.2 5.87-2.2.88.77 1.42 2.43 1.58 3.16l-.86.38c.38.81 1.02 3.25 1.15 4.1-1.95 1.8-4.99 2.28-6.26 2.3z" fill="#FF2C5F"/><path d="M37.12 36.46c-1.95 1.8-4.99 2.27-6.26 2.29l-.38-2c1.63.16 3.16-.05 4.01-.3 1.05-.33.28-.5-1.65-.59-.06 0-.07-.1 0-.11 2.2-.47 2.17-1.54 2.03-2.01-.07-.25-.13-.23-.34-.34-.48-.25-.5-.76-.06-1.12.4-.34 1.36-.84 2.12-1.17.11.34.2.64.24.86l-.86.38c.38.81 1.02 3.25 1.15 4.1z" fill="#B62B53"/><path d="M30.86 38.75l-1.48-7.74c.43-.06.85-.14 1.24-.22l1.53 7.84c-.51.08-.96.12-1.29.12z" fill="#F5FDFA"/><path d="M17.92 36.5l.43-2.14c2.6 3.06 6.7-.47 7.27-3.04l.04-.21-.04.2-1.4 7.54a10.45 10.45 0 0 1-6.3-2.34z" fill="#FB2D5D"/><path d="M17.92 36.5l.43-2.14c2.05 3.3 6.26 2.38 6.26 2.38l-.39 2.1a10.45 10.45 0 0 1-6.3-2.33z" fill="#BB2958"/><path d="M25.62 31.28l-1.4 7.57c-.43-.02-.85-.06-1.24-.12l.81-4.66a6.07 6.07 0 0 0 1.83-2.79l.04-.17-.04.17z" fill="#FEFEFE"/><path d="M24.27 38.9c.62.57 2.48.7 3.25.7.76 0 2.62-.13 3.25-.7l-1.2-7.98c-.43.06-1.44.19-2.05.19-.61 0-1.63-.13-2.06-.2l-1.19 7.98z" fill="#FFFFFD"/><path d="M27.52 31.16c-1.64 0-7.82-.6-9.38-4.54-.95-2.4.2-4.35.45-5.54a8.86 8.86 0 0 1 8.93-7.21c4.46 0 8 2.83 8.93 7.21.25 1.2 1.4 3.13.44 5.54-1.56 3.94-7.74 4.54-9.37 4.54z" fill="#FA9B27"/><path d="M19.08 19.46a8.82 8.82 0 0 1 8.44-5.6 8.82 8.82 0 0 1 8.44 5.6c-2.66-3.87-5.62-5.26-9.35-4.95-.05.31-1.24 1.03-2.3.46-1.66.52-3.47 1.86-5.23 4.49z" fill="#FFE0BC"/><path d="M19.92 12.3c-1.86 1.04-1.76 5.96-1.14 7.87 1.86-4.68 4.82-5.49 5.73-5.87-1.83-1.84-3.96-2.36-4.59-2z" fill="#F5982C"/><path d="M20.55 13.44c-1.38.53-1.28 3.56-1.06 5.01.42-.74 1.78-2.54 3.92-3.72-.76-.77-2.24-1.53-2.86-1.3z" fill="#B5516B"/><path d="M20.78 14.44c-.71.28-.95 1.63-.8 3.2.61-.86.95-1.62 2.81-2.67-.67-.53-1.38-.77-2-.53z" fill="#FB6A9F"/><path d="M18.78 19.65c-.2-.77-.77-6.35 1.38-7.26-.52.48-1.62 1.67-1 6.45l-.38.8z" fill="#FCDBC1"/><path d="M20.63 12.4c-.3-.04-.5 0-.61.06-.41.23-.73.69-.97 1.3a8.07 8.07 0 0 0-.44 2.17c-.1 1.31 0 2.7.2 3.65a10.23 10.23 0 0 1 3.08-4.1 8.7 8.7 0 0 1 2.27-1.25 7.64 7.64 0 0 0-2.47-1.57c-.4-.16-.77-.24-1.06-.27zm1.2-.1c.86.32 1.88.93 2.81 1.86l.2.2-.26.11c-.07.04-.16.07-.26.1-.5.2-1.31.52-2.2 1.2a10.16 10.16 0 0 0-3.16 4.47l-.2.5-.16-.5c-.32-1-.5-2.73-.37-4.34.07-.82.21-1.6.46-2.27a2.8 2.8 0 0 1 1.14-1.5c.2-.12.5-.15.83-.12.34.03.74.13 1.17.29z" fill="#09262C"/><path d="M21.81 13.81c-.6-.28-1.14-.33-1.5 0-.21.2-.38.5-.5.89-.12.38-.2.83-.23 1.3-.07.94 0 1.93.1 2.57l-.37.06c-.1-.67-.18-1.69-.1-2.66.03-.48.1-.96.23-1.38.14-.42.33-.8.6-1.06.56-.5 1.3-.36 1.93-.06.64.3 1.24.79 1.58 1.12l-.27.27a5.69 5.69 0 0 0-1.47-1.05z" fill="#09262C"/><path d="M35.16 12.3c1.86 1.04 1.77 5.96 1.14 7.87-1.86-4.68-4.82-5.49-5.73-5.87 1.84-1.84 3.97-2.36 4.59-2z" fill="#F5982C"/><path d="M34.54 13.44c1.37.53 1.27 3.56 1.05 5.01a10.81 10.81 0 0 0-3.92-3.72c.77-.77 2.25-1.53 2.87-1.3z" fill="#C24F78"/><path d="M33.25 13.82c.6-.28 1.13-.35 1.5-.03.22.19.39.49.51.87.13.39.2.84.24 1.31.07.95 0 1.95-.1 2.6l.38.06c.1-.68.18-1.7.1-2.69a6.2 6.2 0 0 0-.25-1.4A2.3 2.3 0 0 0 35 13.5c-.55-.48-1.3-.32-1.91-.03-.63.3-1.22.8-1.55 1.12l.27.27c.31-.3.86-.76 1.44-1.04z" fill="#09262C"/><path d="M34.3 14.44c.72.28.95 1.63.81 3.2-.72-.9-1.34-1.96-2.82-2.67.67-.53 1.39-.77 2-.53z" fill="#FE669E"/><path d="M36.3 19.65c.2-.77.77-6.35-1.38-7.26.53.48 1.62 1.67 1 6.45l.38.8z" fill="#FCDBC1"/><path d="M34.46 12.4c.3-.04.5 0 .6.06.41.23.74.69.97 1.3.24.62.38 1.38.44 2.17.11 1.31 0 2.7-.2 3.65a10.23 10.23 0 0 0-3.07-4.1 8.7 8.7 0 0 0-2.28-1.25 7.64 7.64 0 0 1 2.47-1.57c.4-.16.77-.24 1.07-.27zm-1.2-.1c-.87.32-1.88.93-2.82 1.86l-.2.2.26.11c.07.04.16.07.26.1.51.2 1.31.52 2.2 1.2 1.06.82 2.25 2.16 3.17 4.47l.2.5.16-.5c.32-1 .5-2.73.36-4.34a8.44 8.44 0 0 0-.46-2.27 2.8 2.8 0 0 0-1.14-1.5c-.2-.12-.5-.15-.83-.12-.34.03-.73.13-1.17.29z" fill="#09262C"/><ellipse cx="24.71" cy="20.2" rx=".54" ry=".91" transform="rotate(-51.78 24.71 20.2)" fill="#EFFEFF"/><ellipse rx=".54" ry=".91" transform="scale(-1 1) rotate(-51.78 5.66 41.3)" fill="#EFFEFF"/><path d="M25.51 31.01l-.1.77c1.98.28 3.75.13 5.27-.23l-.2-.79c-2.7.56-4.97.25-4.97.25z" fill="#BABAC2"/><path d="M35.16 28.8a12.25 12.25 0 0 1-4.68 1.96l.19.8c2.23-.53 3.93-1.5 4.92-2.24l-.43-.52z" fill="#AD335C"/><path d="M37.83 31.3l-1.05.62a7.24 7.24 0 0 0-1.43-3.1c.24-.24.52-.53.76-.82 1.15.82 1.58 2.49 1.72 3.3z" fill="#FFF8FF"/><path d="M39.31 30.06s-1.16.97-1.48 1.2c0-.24-.47-2.4-1.76-3.26a8 8 0 0 0 .71-1.19 4.82 4.82 0 0 1 2.53 3.25z" fill="#F8981F"/><path d="M39.31 30.01s-1.16 1.02-1.48 1.24c0-.23-.47-2.39-1.76-3.25.08-.1.19-.25.3-.43.99 1.2 2.27 1.06 2.27 1.06.38.58.64 1.07.67 1.38z" fill="#B5781B"/><path d="M36.83 26.9c.38-.8.43-1.76.38-2.81 1.48-1.35 2.66-1.03 3.32-.48 1.83 1.53.28 5.16-1.17 6.45-.27-.69-.95-2.34-2.53-3.15z" fill="#F7FFFF"/><path d="M39.36 30.06a7.9 7.9 0 0 0-.71-1.43c1.19-.1 2.1-2.01 2.42-4.35.9 1.74-.44 4.66-1.7 5.78z" fill="#B8B9B9"/><circle cx="38.84" cy="26.09" r=".72" fill="#FA679B"/><path d="M38.74 24.85c0 .24-.15.43-.33.43-.19 0-.34-.2-.34-.43 0-.24.15-.43.34-.43.18 0 .33.2.33.43zM39.69 24.82c-.04.23-.22.4-.4.36-.19-.03-.3-.25-.26-.48.04-.23.22-.4.4-.37.19.04.3.25.26.49zM40.34 25.65c-.1.22-.32.33-.48.25-.17-.07-.23-.31-.13-.53.1-.21.31-.33.48-.25.17.08.23.31.13.53z" fill="#FA679B"/><path d="M39.12 36.94c-1.07 1.1-2.34.76-2.53.04l.48-.57-1.05-4.06c.95-.42 1.83-1.03 2.15-1.29 3.48 1.72 2.24 4.73.95 5.88z" fill="#FE9826"/><path d="M36.97 35.4c.58-.18.88-.87.96-1.19-.38.38-.86.54-1.05.58l.1.62z" fill="#FCF4F1"/><path d="M38.17 31.06c3.48 1.72 2.24 4.73.95 5.88-.17.17-.35.31-.52.42.52-.76 2.67-3.15-1.1-5.82.3-.2.53-.37.67-.48z" fill="#FFFFFA"/><path d="M39.12 36.94c-.17.17-.35.31-.52.42 1.72-1.9 1-5.28 1-5.28 1.61 1.7.58 3.91-.48 4.86z" fill="#B5BFC2"/><path d="M37.21 37.32c.69-.27 2.06-1.77 2.49-2.53-.24 1.81-1.06 2.48-1.06 2.48l-1.43.05z" fill="#BD761C"/><path d="M37.93 34.21c.11.88-.46 1.58-.77 1.82l-.19-.62c.5-.16.85-.86.96-1.2z" fill="#09262C"/><path d="M16.68 37.32c3.55-.04 3.72 3.63 3.1 5.4h-2.86s-.91-.36-1.53-1.58c-.69-1.34-.38-3.68 1.29-3.82z" fill="#F9FFFF"/><path d="M16.92 42.71h2.86c.14-.39.24-.87.27-1.38 0 0-2.56 1.29-4.56 0a3.22 3.22 0 0 0 1.43 1.38z" fill="#BDC0C9"/><path d="M16.65 37.13c1-.15 2.1.4 2.8 1.42.2.29.33.57.42.92.1.41.17.93.1 1.1 0 0-.43-1.1-.62-1.45-.6-1.14-1.7-1.75-2.64-1.61-.6.09-1 .4-1.23.83-.24.43-.32.98-.26 1.54.1.98.58 2.13 1.74 2.64l10.56.1V43H13v-.29l3.2-.19a3.72 3.72 0 0 1-1.36-2.6 3 3 0 0 1 .3-1.77 2 2 0 0 1 1.5-1.02z" fill="#09262C"/><ellipse cx="17.44" cy="40.53" rx=".72" ry=".93" transform="rotate(-8.82 17.44 40.53)" fill="#FF649E"/><ellipse cx="18.13" cy="39.05" rx=".41" ry=".5" transform="rotate(-8.82 18.13 39.05)" fill="#FF649E"/><ellipse cx="16.98" cy="38.8" rx=".41" ry=".5" fill="#FF649E"/><ellipse cx="16.12" cy="39.57" rx=".41" ry=".5" transform="rotate(-8.93 16.12 39.57)" fill="#FF649E"/><path d="M38.12 42.73h-2.87a5.25 5.25 0 0 1-.26-1.38s2.56 1.29 4.55 0c-.6 1.06-1.42 1.38-1.42 1.38z" fill="#B0BCBC"/><path d="M36.54 28.53l-.57-.38c-.26.23-.53.45-.81.65l.43.52c.4-.3.76-.6.95-.79z" fill="#A7B1BB"/><path d="M24.61 36.74l-.39 2.1a11.8 11.8 0 0 1-1.24-.11l.34-1.87c.77 0 1.3-.12 1.3-.12z" fill="#B8BABF"/><path fill-rule="evenodd" d="M25.8 31.35l.04-.21-.37-.07-.04.2a6.09 6.09 0 0 1-2.78 3.51c-.69.4-1.42.62-2.13.57-.7-.06-1.4-.39-2.03-1.12l-.25-.3-.5 2.54a.2.2 0 0 0 .06.18c.97.8 3.06 2.24 6.41 2.39a.2.2 0 0 0 .2-.16l1.4-7.53zm-.67 1.55a6.93 6.93 0 0 1-2.29 2.22 4.1 4.1 0 0 1-2.35.6 3.19 3.19 0 0 1-2.03-.96l-.33 1.67c.95.76 2.89 2.04 5.94 2.22l1.06-5.75z" fill="#09262C"/><path fill-rule="evenodd" d="M25.81 31.32l.03-.18-.37-.07-.03.17c-.12 1.11-.9 2.06-1.76 2.88l-.05.05-.87 4.72.2.02c.4.07.81.1 1.25.13a.2.2 0 0 0 .2-.16l1.4-7.56zm-.66 1.45c-.32.5-.72 1.16-1.17 1.59l-.78 4.2c.28.04.57.07.87.09l1.08-5.88z" fill="#09262C"/><path d="M32.15 38.63c-.51.08-.96.12-1.29.12l-.38-2c.46.04.9.06 1.34.05l.33 1.83z" fill="#B8C0C0"/><path d="M31.92 38.47c-.34.05-.65.07-.9.08l-1.4-7.48-.38.07 1.43 7.64c.02.1.1.16.2.16.33 0 .79-.04 1.31-.12a9.94 9.94 0 0 0 5.07-2.22.2.2 0 0 0 .06-.17 24.89 24.89 0 0 0-1.07-4.07l-.35.17c.19.38.41 1.15.61 1.95.19.73.34 1.47.41 1.9a9.54 9.54 0 0 1-4.6 2.03l-1.55-7.58-.37.08 1.53 7.56z" fill="#09262C"/><path d="M37.6 30.58l-1 .53c.05.25.2.76.23.76.04 0 .65-.32.96-.47l-.2-.82z" fill="#A7B1BB"/><path d="M40.65 23.45c.93.79 1.24 2.45.27 4.68a7.93 7.93 0 0 1-2.78 3.2c-.34.25-2.4 1.55-3.03 1.3 0 0 2.41-1.32 2.82-1.6a7.55 7.55 0 0 0 2.64-3.05c.94-2.17.58-3.61-.17-4.24-.74-.63-1.97-.55-3 .57l-.28-.25c1.12-1.23 2.58-1.4 3.53-.61z" fill="#09262C"/><path d="M37.5 29.55c.27.65.4 1.31.47 1.72l-.37.06a7.4 7.4 0 0 0-.45-1.63 3.14 3.14 0 0 0-1.18-1.53l.2-.33a3.51 3.51 0 0 1 1.33 1.7zM36.43 30.24c.27.63.48 1.27.58 1.68l-.36.1c-.1-.4-.3-1.02-.57-1.63a4.33 4.33 0 0 0-.95-1.48l.25-.29c.42.36.77 1 1.05 1.62zM39.25 37.07a4.22 4.22 0 0 0 1.38-2.85c.02-.6-.12-1.2-.5-1.78a4.58 4.58 0 0 0-1.88-1.55l-.17.34c.85.42 1.4.91 1.73 1.42.33.5.45 1.04.43 1.56A3.84 3.84 0 0 1 39 36.79h-.01v.01c-.5.52-1.04.68-1.45.65-.42-.03-.7-.26-.76-.52l-.37.1c.12.46.57.76 1.1.8.54.05 1.18-.17 1.74-.76zM18.07 37.68l.3-.76.35.13-.29.76-.36-.13z" fill="#09262C"/><path d="M38.36 37.34c-3.55-.04-3.73 3.63-3.1 5.4h2.86s.9-.36 1.53-1.58c.68-1.34.38-3.68-1.3-3.82z" fill="#FFFFFD"/><path d="M38.39 37.15c-1-.15-2.05.38-2.75 1.35-.36.49-.77 1.59-.58 2.08 0 0 .39-1.19.91-1.9.63-.84 1.56-1.27 2.36-1.15.6.09.99.4 1.22.82.24.43.33.99.27 1.54-.1.99-.6 2.12-1.76 2.63l-10.56.1V43H42v-.29l-3.18-.19c.9-.66 1.28-1.7 1.38-2.58a3 3 0 0 0-.31-1.77 2 2 0 0 0-1.5-1.02z" fill="#09262C"/><ellipse rx=".72" ry=".93" transform="scale(-1 1) rotate(-8.82 244.01 263.97)" fill="#F171A2"/><ellipse rx=".41" ry=".5" transform="scale(-1 1) rotate(-8.82 234.76 258.74)" fill="#F171A2"/><ellipse rx=".41" ry=".5" transform="scale(-1 1) rotate(-3.96 541.77 569.13)" fill="#F171A2"/><ellipse rx=".41" ry=".5" transform="scale(-1 1) rotate(-8.93 234.07 269.02)" fill="#F171A2"/><path d="M27.52 31.16c-1.64 0-7.82-.6-9.38-4.54a5.74 5.74 0 0 1-.05-3.92c1.36-1.14 1.83 2.1 3.6 2.1 2.77 0 3.44-2.1 5.88-2.1 2.05 0 3.72 2.1 5.63 2.1 2.3 0 1.77-2.96 3.75-2.1.31 1.08.54 2.4-.06 3.92-1.56 3.94-7.74 4.54-9.37 4.54z" fill="#fff"/><path d="M26.18 24.95a.93.93 0 0 1-.43-1.24h3.53c.15.27.2.9-.43 1.24.3.43 1.52.78 2.25-.29 0 0 .19.05.24.24v.86l-.53.62a4.56 4.56 0 0 1-1.9 2.68h-2.78a4.56 4.56 0 0 1-1.9-2.68l-.53-.62v-.86c.05-.2.24-.24.24-.24.72 1.07 1.95.72 2.24.29z" fill="#BCBAC5"/><path d="M27.5 22.8c-2.5 0-2.3 2.2 0 2.2 2.37 0 2.51-2.2 0-2.2z" fill="#17223A"/><ellipse cx="27.52" cy="23.32" rx=".67" ry=".14" fill="#fff"/><path d="M23.84 24.61c.24 1.3 2.39 2.01 3.34.34h.67c.96 1.67 3.1.95 3.34-.34h.15v.77l-.81.86c-.34 1.33-1.2 3.3-3.01 3.3-1.82 0-2.68-1.97-3.01-3.3l-.81-.86v-.77h.14z" fill="#0C1E2D"/><path d="M27.52 26.86c-1.1 0-1.56.38-1.76.66a.31.31 0 0 0-.03.32c.35.72.94 1.22 1.79 1.22.85 0 1.44-.5 1.78-1.22a.31.31 0 0 0-.02-.32c-.2-.28-.66-.66-1.76-.66z" fill="#B03272"/><path d="M27.52 26.86l-.33.01c-1.04.08-1.15 1.28-.12 1.4.18.02.34.02.45.02h.1c1.22-.01 1.12-1.43-.1-1.43z" fill="#FD3D93"/><path d="M21.68 21.53a3.25 3.25 0 0 1 3.67.03c.34.22.72.38 1.12.38h2.1c.4 0 .78-.16 1.11-.38.71-.45 2.1-1.04 3.67-.03.29.19.6.32.95.33l5.87.18-5.75.66c-.41.03-.79 0-1.13.24-.79.56-2.15 1.4-3.66.4-.3-.2-1.25-.63-1.89-.63h-.43c-.64 0-1.61.42-1.9.62-1.52 1-2.88.17-3.67-.39-.34-.23-.71-.2-1.12-.24l-5.76-.66 5.88-.18c.34-.01.66-.14.94-.33z" fill="#FD2E27"/><path d="M24.63 22.29c0 .4-.44.72-1 .72-.55 0-1-.33-1-.72 0-.4.45-.72 1-.72.56 0 1 .32 1 .72zM32.38 22.28c0 .4-.44.71-1 .71-.55 0-1-.32-1-.71 0-.4.45-.72 1-.72.56 0 1 .32 1 .72z" fill="#FFD6DA"/><path d="M27.52 31.16c-1.64 0-7.82-.6-9.38-4.54a5.74 5.74 0 0 1-.05-3.92c-.89 5.05 5.67 7.17 9.43 7.17 4.75 0 9.6-1.77 9.43-7.17.31 1.08.54 2.4-.06 3.92-1.56 3.94-7.74 4.54-9.37 4.54z" fill="#B7BAC0"/><path d="M18.4 21.04a9.05 9.05 0 0 1 9.12-7.36 9.05 9.05 0 0 1 9.11 7.36c.06.25.16.54.27.88l.04.13c.13.39.27.83.37 1.3.2.97.26 2.1-.24 3.34-.81 2.05-2.81 3.2-4.78 3.86-1.96.65-3.94.8-4.77.8-.84 0-2.81-.15-4.78-.8-1.96-.65-3.96-1.81-4.78-3.86a5.6 5.6 0 0 1-.24-3.33 12.17 12.17 0 0 1 .42-1.44c.11-.34.2-.63.26-.88zm9.12-6.98a8.67 8.67 0 0 0-8.75 7.06 9.1 9.1 0 0 1-.27.92l-.04.13c-.13.39-.27.8-.36 1.27-.2.9-.24 1.95.22 3.1.75 1.9 2.62 3 4.54 3.64 1.92.64 3.85.79 4.66.79.8 0 2.73-.15 4.65-.79 1.93-.63 3.8-1.74 4.55-3.63.46-1.16.41-2.2.22-3.11-.1-.46-.23-.88-.36-1.27l-.04-.13c-.12-.33-.22-.64-.28-.92a8.67 8.67 0 0 0-8.74-7.06z" fill="#09262C"/><path d="M21.45 29.87c-.38-1.2 1-1.82 1.67-.72l-1.67.72z" fill="#F9FFFF"/><path d="M21.97 28.82c-.28.13-.5.47-.34.99l-.36.12c-.22-.68.07-1.24.55-1.46.48-.2 1.09-.04 1.47.58l-.33.2c-.29-.48-.7-.55-.99-.43z" fill="#09262C"/><path d="M21.36 29.87l-.91-.43c-1.53.85-3.4 3.45-1.73 5.25a2.7 2.7 0 0 0 2.11.86c-1.24-.81-.86-2.63-.28-3.25 0-1.03.54-2.05.8-2.43z" fill="#F3A51F"/><path d="M20.83 35.55a2.7 2.7 0 0 1-2.11-.86 2.36 2.36 0 0 1-.64-1.96c.8 1.82 2.04 1.88 2.04 1.88.11.37.34.7.71.94z" fill="#A37949"/><path d="M20.78 35.55c-.76-.43-1.19-2.05-.23-3.25 0-.76.38-1.72.76-2.2 1.1-1.38 3.68-1.52 4.01 1.15-.14 3.06-3.15 4.3-4.54 4.3z" fill="#fff"/><path d="M24.66 29.95l.37.12-.57 1.18.2-1.3zM22.36 29.22l.38.05-.43 1.55.05-1.6z" fill="#09262C"/><path d="M20.78 35.55c-.29-.17-.53-.5-.67-.93 3.16.26 4.64-1.6 4.97-2.08a5.38 5.38 0 0 1-4.3 3.01z" fill="#B6BABD"/><path d="M21.2 29.94a2.58 2.58 0 0 1 2.32-1c1.27.13 2.1 1.43 2 2.8a4.1 4.1 0 0 1-1.66 2.82 5.55 5.55 0 0 1-3.26 1.19c-.56 0-1.1-.14-1.55-.44-.45-.3-.8-.77-1-1.42-.3-.93-.04-1.93.46-2.77a4.95 4.95 0 0 1 2-1.9l.17.34c-.68.32-1.38.97-1.84 1.76a3.08 3.08 0 0 0-.43 2.45c.18.58.48.97.85 1.22.38.25.84.37 1.34.38 1.01 0 2.16-.45 3.03-1.12a3.71 3.71 0 0 0 1.5-2.54c.1-1.23-.64-2.28-1.64-2.38a2.2 2.2 0 0 0-2 .85c-.33.41-1 2.27-1 2.27.15-1.34.45-2.2.7-2.5z" fill="#09262C"/></svg>