<!-- by TradingView --><svg width="56" height="56" viewBox="0 0 56 56" xmlns="http://www.w3.org/2000/svg"><path fill="url(#a)" d="M0 0h56v56H0z"/><path d="M25 20.02c-.05.76-.4 1.3-1.05 1.64-.52.26-1.18.38-1.99.35-.01 0-.02 0-.03-.02l.01-.05a2.48 2.48 0 0 0 .72-2.65c-.18-.63-.59-.96-1.22-.98-.86-.03-1.48.53-1.85 1.68-.24.78-.4 1.67-.49 2.7-.05.65-.08 1.6-.08 2.86 0 .4-.06.93-.18 1.56a5.78 5.78 0 0 1-2.42 3.84A7 7 0 0 1 12.65 32a5.57 5.57 0 0 1-2.86-.62 3.13 3.13 0 0 1-1.65-3.8c.12-.43.36-.76.7-.98.36-.24.75-.28 1.17-.13.27.1.47.27.6.52.12.25.16.53.12.84-.08.54-.4.87-.97 1a.13.13 0 0 0-.11.1 2.1 2.1 0 0 0 .55 2c.51.54 1.15.82 1.91.84 1.48.05 2.6-.5 3.38-1.64.36-.54.65-1.3.86-2.28.18-.86.26-1.7.25-2.52-.03-2.1.29-3.73.97-4.88a4.78 4.78 0 0 1 3.95-2.43c1.3-.1 2.3.18 3.02.86.19.18.48.88.46 1.14ZM25.78 20.57c.48-.08.9.1 1.24.51.32.38.4.8.26 1.28-.15.47-.45.76-.92.88a1.23 1.23 0 0 1-1.41-.53 1.5 1.5 0 0 1 .01-1.57s.25-.49.82-.57ZM40.88 25c.03 0 .04 0 .02.03l-2.6 3.98.03.02h.03c.67-.86 1.22-1.5 1.65-1.95.58-.6 1.2-1.12 1.84-1.55.26-.17.56-.3.89-.4a2.18 2.18 0 0 1 1.52.05c.52.23.8.62.83 1.18.02.49-.14 1-.47 1.54-.38.61-.92 1.14-1.53 1.95-.17.22-.3.45-.4.7-.14.34-.15.59-.05.76.2.35.67.26 1.39-.26.43-.31.87-.71 1.3-1.19.87-.94 1.74-1.75 2.52-2.79.04-.05.07-.05.11 0h.01c.04.05.04.1 0 .15-.78 1.06-1.61 1.83-2.4 2.71a6.52 6.52 0 0 1-2.48 1.9c-.44.16-.86.2-1.27.12-.48-.08-.82-.31-1-.68-.46-.88-.3-1.83.44-2.86.1-.14.62-.55 1.48-1.6.11-.14.18-.34.2-.62.03-.24-.05-.4-.23-.5-.17-.08-.36-.07-.57.02-.38.17-.75.42-1.1.76a23.39 23.39 0 0 0-4.19 5.45.14.14 0 0 1-.12.08h-2.31c-.02 0-.04-.03-.05-.05a.05.05 0 0 1 0-.06l1.38-2.33v-.03h-.04a10.6 10.6 0 0 1-3.6 2.26.48.48 0 0 0-.26.23c-1.82 3.42-4.36 5.4-7.63 5.9a6.54 6.54 0 0 1-3.24-.3c-1.27-.48-1.9-1.26-1.9-2.35 0-.73.32-1.3.94-1.72a3.67 3.67 0 0 1 1.94-.51c.54-.02 1.1-.05 1.67-.04.09 0 .13.06.13.14v.04c0 .04-.03.06-.07.06-.62-.01-1.1.08-1.46.26-.43.23-.7.57-.81 1.13a2.9 2.9 0 0 0 .24 2c.33.63.86 1 1.59 1.1.78.12 1.59-.13 2.42-.76.6-.46 1.2-1.1 1.77-1.91a1286.88 1286.88 0 0 0 3.04-4.44h-.04a5 5 0 0 1-1.85 1.3c-.43.17-.86.26-1.29.26-.5 0-.9-.12-1.2-.37-.2-.17-.36-.4-.47-.69-.07-.2-.13-.5-.18-.87 0-.01 0-.03-.03-.03l-.04.01c-.35.35-.52.5-.96.89-.67.58-1.65.9-2.54.88-.38 0-.69-.16-.93-.39-.39-.36-.54-.9-.45-1.58a4.5 4.5 0 0 1 .58-1.61c.56-.99 1.38-2.14 2.09-3.33.04-.06.1-.1.17-.1h2.48c.04.01.05.03.02.06l-.31.48c-1.25 1.88-2.29 3.39-2.77 4.39-.13.28-.22.57-.25.87-.05.42.06.65.33.68.64.07 1.5-.3 2.59-1.55.04-.04.06-.1.07-.15.1-1 .58-1.94 1.42-2.8a6.93 6.93 0 0 1 2.7-1.72c.64-.23 1.24-.3 1.8-.21.68.1 1.15.44 1.42 1 .01.03.03.03.04 0l.58-.98c.03-.03.06-.06.1-.06h2.4l.05.03v.06l-3.88 6.4v.05c.02.02.04.02.07.02a10.43 10.43 0 0 0 4-2.77l2.15-3.7a.17.17 0 0 1 .14-.09h2.4Zm-9.57.29c-.69-.41-2.04.65-3.02 2.36-.99 1.72-1.23 3.44-.55 3.85.68.41 2.04-.65 3.02-2.36.99-1.72 1.23-3.44.55-3.85Z" fill="#fff"/><defs><linearGradient id="a" x1="-5.17" y1="0" x2="57.48" y2="52.05" gradientUnits="userSpaceOnUse"><stop offset=".1" stop-color="#F34112"/><stop offset=".53" stop-color="#FDA10C"/><stop offset="1" stop-color="#EE7A23"/></linearGradient></defs></svg>