<?xml version="1.0" encoding="UTF-8"?>
<!DOCTYPE svg PUBLIC "-//W3C//DTD SVG 1.1//EN" "http://www.w3.org/Graphics/SVG/1.1/DTD/svg11.dtd">
<svg xmlns="http://www.w3.org/2000/svg" version="1.1" width="64px" height="64px" style="shape-rendering:geometricPrecision; text-rendering:geometricPrecision; image-rendering:optimizeQuality; fill-rule:evenodd; clip-rule:evenodd" xmlns:xlink="http://www.w3.org/1999/xlink">
<g><path style="opacity:1" fill="#7ce4a9" d="M -0.5,-0.5 C 20.8333,-0.5 42.1667,-0.5 63.5,-0.5C 63.5,11.1667 63.5,22.8333 63.5,34.5C 61.2506,35.4438 58.7506,35.7771 56,35.5C 55.5357,34.9056 55.369,34.2389 55.5,33.5C 55.7148,31.8212 55.0481,30.8212 53.5,30.5C 54.2598,29.1067 54.9265,27.6067 55.5,26C 55.2906,24.1285 54.2906,22.9619 52.5,22.5C 51.7025,22.9569 51.3691,23.6236 51.5,24.5C 49.9699,23.7888 48.6366,22.7888 47.5,21.5C 47.8064,18.6146 47.4731,15.9479 46.5,13.5C 46.1788,11.9519 45.1788,11.2852 43.5,11.5C 42.5,8.83333 41.5,8.83333 40.5,11.5C 39.8423,12.3984 39.1757,13.3984 38.5,14.5C 37.1433,12.4346 35.81,10.4346 34.5,8.5C 33.1667,5.83333 31.8333,5.83333 30.5,8.5C 28.6944,10.0894 27.3611,12.0894 26.5,14.5C 25.8652,12.2173 24.5318,10.5507 22.5,9.5C 21.2867,9.74716 20.62,10.4138 20.5,11.5C 19.2652,11.7214 18.2652,12.3881 17.5,13.5C 16.52,16.0865 16.1866,18.7531 16.5,21.5C 15.8423,22.3984 15.1757,23.3984 14.5,24.5C 13.5,23.8333 12.5,23.1667 11.5,22.5C 10.7025,22.9569 10.3691,23.6236 10.5,24.5C 10.1667,24.5 9.83333,24.5 9.5,24.5C 8.77842,24.9175 8.27842,25.5842 8,26.5C 6.33333,25.1667 4.66667,25.1667 3,26.5C 1.9609,25.2899 0.794229,24.2899 -0.5,23.5C -0.5,15.5 -0.5,7.5 -0.5,-0.5 Z"/></g>
<g><path style="opacity:1" fill="#0f101c" d="M 34.5,8.5 C 33.1667,8.5 31.8333,8.5 30.5,8.5C 31.8333,5.83333 33.1667,5.83333 34.5,8.5 Z"/></g>
<g><path style="opacity:1" fill="#060019" d="M 43.5,11.5 C 42.5,11.5 41.5,11.5 40.5,11.5C 41.5,8.83333 42.5,8.83333 43.5,11.5 Z"/></g>
<g><path style="opacity:1" fill="#e9cf98" d="M 20.5,11.5 C 22.9424,11.3537 23.6091,12.187 22.5,14C 23.5707,14.8518 24.5707,15.6851 25.5,16.5C 23.9724,17.3092 22.3057,17.9759 20.5,18.5C 19.7376,16.0196 19.7376,13.6863 20.5,11.5 Z"/></g>
<g><path style="opacity:1" fill="#8bda49" d="M 30.5,8.5 C 31.8333,8.5 33.1667,8.5 34.5,8.5C 34.5,10.5 34.5,12.5 34.5,14.5C 32.955,15.2297 32.1216,16.563 32,18.5C 31.338,16.1873 30.838,13.854 30.5,11.5C 30.5,10.5 30.5,9.5 30.5,8.5 Z"/></g>
<g><path style="opacity:1" fill="#20292e" d="M 43.5,11.5 C 45.1788,11.2852 46.1788,11.9519 46.5,13.5C 44.9731,13.573 43.9731,12.9063 43.5,11.5 Z"/></g>
<g><path style="opacity:1" fill="#172033" d="M 34.5,8.5 C 35.81,10.4346 37.1433,12.4346 38.5,14.5C 39.1757,13.3984 39.8423,12.3984 40.5,11.5C 41.8968,13.8225 41.2302,15.4891 38.5,16.5C 36.9748,15.6112 35.9748,16.2779 35.5,18.5C 34.8344,17.0878 34.5011,15.7545 34.5,14.5C 34.5,12.5 34.5,10.5 34.5,8.5 Z"/></g>
<g><path style="opacity:1" fill="#1e2c34" d="M 30.5,8.5 C 30.5,9.5 30.5,10.5 30.5,11.5C 29.5222,11.811 28.8555,12.4777 28.5,13.5C 30.3788,15.0697 30.7122,16.7363 29.5,18.5C 28.713,16.8958 27.3797,16.2291 25.5,16.5C 24.5707,15.6851 23.5707,14.8518 22.5,14C 23.6091,12.187 22.9424,11.3537 20.5,11.5C 20.62,10.4138 21.2867,9.74716 22.5,9.5C 24.5318,10.5507 25.8652,12.2173 26.5,14.5C 27.3611,12.0894 28.6944,10.0894 30.5,8.5 Z"/></g>
<g><path style="opacity:1" fill="#e6cb98" d="M 40.5,11.5 C 41.5,11.5 42.5,11.5 43.5,11.5C 43.9731,12.9063 44.9731,13.573 46.5,13.5C 46.5,13.8333 46.5,14.1667 46.5,14.5C 45.0221,15.4475 44.0221,16.7809 43.5,18.5C 41.6943,17.9759 40.0276,17.3092 38.5,16.5C 41.2302,15.4891 41.8968,13.8225 40.5,11.5 Z"/></g>
<g><path style="opacity:1" fill="#3e3146" d="M 20.5,11.5 C 19.7376,13.6863 19.7376,16.0196 20.5,18.5C 19.8902,19.391 19.5569,20.391 19.5,21.5C 18.5,21.5 17.5,21.5 16.5,21.5C 16.1866,18.7531 16.52,16.0865 17.5,13.5C 18.2652,12.3881 19.2652,11.7214 20.5,11.5 Z"/></g>
<g><path style="opacity:1" fill="#107a5c" d="M 30.5,11.5 C 30.838,13.854 31.338,16.1873 32,18.5C 32.1216,16.563 32.955,15.2297 34.5,14.5C 34.5011,15.7545 34.8344,17.0878 35.5,18.5C 33.3576,20.7311 31.3576,20.7311 29.5,18.5C 30.7122,16.7363 30.3788,15.0697 28.5,13.5C 28.8555,12.4777 29.5222,11.811 30.5,11.5 Z"/></g>
<g><path style="opacity:1" fill="#788bb9" d="M 46.5,14.5 C 46.7845,16.4147 46.4511,18.0813 45.5,19.5C 44.5084,19.6716 43.8417,19.3382 43.5,18.5C 44.0221,16.7809 45.0221,15.4475 46.5,14.5 Z"/></g>
<g><path style="opacity:1" fill="#160f24" d="M 46.5,13.5 C 47.4731,15.9479 47.8064,18.6146 47.5,21.5C 46.8333,21.5 46.1667,21.5 45.5,21.5C 45.5,20.8333 45.5,20.1667 45.5,19.5C 46.4511,18.0813 46.7845,16.4147 46.5,14.5C 46.5,14.1667 46.5,13.8333 46.5,13.5 Z"/></g>
<g><path style="opacity:1" fill="#696f5c" d="M 26.5,22.5 C 24.8333,22.5 23.1667,22.5 21.5,22.5C 19.9699,23.2112 18.6366,24.2112 17.5,25.5C 17.631,24.7611 17.4643,24.0944 17,23.5C 16.7216,24.4158 16.2216,25.0825 15.5,25.5C 13.4141,29.3238 11.7474,28.9905 10.5,24.5C 10.3691,23.6236 10.7025,22.9569 11.5,22.5C 12.5,23.1667 13.5,23.8333 14.5,24.5C 15.1757,23.3984 15.8423,22.3984 16.5,21.5C 17.5,21.5 18.5,21.5 19.5,21.5C 20.9672,21.1062 22.4672,20.7728 24,20.5C 25.3756,20.6842 26.2089,21.3509 26.5,22.5 Z"/></g>
<g><path style="opacity:1" fill="#95d738" d="M 38.5,16.5 C 40.0276,17.3092 41.6943,17.9759 43.5,18.5C 43.8417,19.3382 44.5084,19.6716 45.5,19.5C 45.5,20.1667 45.5,20.8333 45.5,21.5C 44.0328,21.1062 42.5328,20.7728 41,20.5C 39.6244,20.6842 38.7911,21.3509 38.5,22.5C 37.596,23.209 37.2627,24.209 37.5,25.5C 36.1472,27.1284 36.4805,28.4617 38.5,29.5C 39.6354,31.2132 41.302,31.8799 43.5,31.5C 44.8221,31.67 45.9887,31.3366 47,30.5C 47.4966,28.1902 47.6633,25.8568 47.5,23.5C 48.4794,26.6248 48.8128,29.9581 48.5,33.5C 48.1667,33.5 47.8333,33.5 47.5,33.5C 46.1667,32.1667 44.8333,32.1667 43.5,33.5C 35.8462,34.7977 28.1796,34.7977 20.5,33.5C 19.5,32.1667 18.5,32.1667 17.5,33.5C 16.8333,33.5 16.1667,33.5 15.5,33.5C 15.5,30.8333 15.5,28.1667 15.5,25.5C 16.2216,25.0825 16.7216,24.4158 17,23.5C 17.4643,24.0944 17.631,24.7611 17.5,25.5C 17.5,26.8333 17.5,28.1667 17.5,29.5C 20.1153,31.9071 23.1153,32.0738 26.5,30C 27.8143,27.3953 27.8143,24.8953 26.5,22.5C 26.2089,21.3509 25.3756,20.6842 24,20.5C 22.4672,20.7728 20.9672,21.1062 19.5,21.5C 19.5569,20.391 19.8902,19.391 20.5,18.5C 22.3057,17.9759 23.9724,17.3092 25.5,16.5C 27.3797,16.2291 28.713,16.8958 29.5,18.5C 31.3576,20.7311 33.3576,20.7311 35.5,18.5C 35.9748,16.2779 36.9748,15.6112 38.5,16.5 Z"/></g>
<g><path style="opacity:1" fill="#21283b" d="M 21.5,22.5 C 23.1667,22.5 24.8333,22.5 26.5,22.5C 27.8143,24.8953 27.8143,27.3953 26.5,30C 23.1153,32.0738 20.1153,31.9071 17.5,29.5C 18.8589,28.9935 19.8589,27.9935 20.5,26.5C 21.6753,27.8549 22.6753,27.6883 23.5,26C 22.1772,25.1841 21.5106,24.0174 21.5,22.5 Z"/></g>
<g><path style="opacity:1" fill="#0a051b" d="M 38.5,22.5 C 42.9464,22.0736 45.2797,24.0736 45.5,28.5C 44.1779,28.67 43.0113,28.3366 42,27.5C 41.516,29.1933 42.016,30.5267 43.5,31.5C 41.302,31.8799 39.6354,31.2132 38.5,29.5C 39.2485,28.469 39.9152,27.3024 40.5,26C 39.695,24.8873 39.0283,23.7206 38.5,22.5 Z"/></g>
<g><path style="opacity:1" fill="#7f878a" d="M 45.5,21.5 C 46.1667,21.5 46.8333,21.5 47.5,21.5C 47.5,22.1667 47.5,22.8333 47.5,23.5C 47.6633,25.8568 47.4966,28.1902 47,30.5C 45.9887,31.3366 44.8221,31.67 43.5,31.5C 42.016,30.5267 41.516,29.1933 42,27.5C 43.0113,28.3366 44.1779,28.67 45.5,28.5C 45.2797,24.0736 42.9464,22.0736 38.5,22.5C 38.7911,21.3509 39.6244,20.6842 41,20.5C 42.5328,20.7728 44.0328,21.1062 45.5,21.5 Z"/></g>
<g><path style="opacity:1" fill="#c4d4c3" d="M 38.5,22.5 C 39.0283,23.7206 39.695,24.8873 40.5,26C 39.9152,27.3024 39.2485,28.469 38.5,29.5C 38.5674,28.0413 38.2341,26.7079 37.5,25.5C 37.2627,24.209 37.596,23.209 38.5,22.5 Z"/></g>
<g><path style="opacity:1" fill="#e1e2db" d="M 21.5,22.5 C 21.5106,24.0174 22.1772,25.1841 23.5,26C 22.6753,27.6883 21.6753,27.8549 20.5,26.5C 19.8589,27.9935 18.8589,28.9935 17.5,29.5C 17.5,28.1667 17.5,26.8333 17.5,25.5C 18.6366,24.2112 19.9699,23.2112 21.5,22.5 Z"/></g>
<g><path style="opacity:1" fill="#060019" d="M 37.5,25.5 C 38.2341,26.7079 38.5674,28.0413 38.5,29.5C 36.4805,28.4617 36.1472,27.1284 37.5,25.5 Z"/></g>
<g><path style="opacity:1" fill="#291931" d="M 9.5,24.5 C 9.83333,24.5 10.1667,24.5 10.5,24.5C 11.7474,28.9905 13.4141,29.3238 15.5,25.5C 15.5,28.1667 15.5,30.8333 15.5,33.5C 16.1667,35.1667 16.8333,36.8333 17.5,38.5C 15.7395,37.1817 13.2395,35.8484 10,34.5C 9.23502,32.9343 9.40168,31.6009 10.5,30.5C 9.85048,28.5648 9.51715,26.5648 9.5,24.5 Z"/></g>
<g><path style="opacity:1" fill="#272033" d="M 47.5,21.5 C 48.6366,22.7888 49.9699,23.7888 51.5,24.5C 51.3691,23.6236 51.7025,22.9569 52.5,22.5C 54.2906,22.9619 55.2906,24.1285 55.5,26C 54.9265,27.6067 54.2598,29.1067 53.5,30.5C 55.0481,30.8212 55.7148,31.8212 55.5,33.5C 53.6917,34.9073 51.6917,36.074 49.5,37C 50.3805,37.7083 51.0472,38.5416 51.5,39.5C 50.1667,39.1667 48.8333,38.8333 47.5,38.5C 48.038,36.8828 48.3713,35.2161 48.5,33.5C 48.8128,29.9581 48.4794,26.6248 47.5,23.5C 47.5,22.8333 47.5,22.1667 47.5,21.5 Z"/></g>
<g><path style="opacity:1" fill="#f9e3b4" d="M 51.5,24.5 C 54.0182,25.7595 53.8515,27.0928 51,28.5C 50.805,27.1807 50.9717,25.8474 51.5,24.5 Z"/></g>
<g><path style="opacity:1" fill="#0f0e1b" d="M 28.5,31.5 C 29.0768,30.2267 29.7435,30.2267 30.5,31.5C 30.0302,32.463 29.3635,32.463 28.5,31.5 Z"/></g>
<g><path style="opacity:1" fill="#7fb9ad" d="M -0.5,23.5 C 0.794229,24.2899 1.9609,25.2899 3,26.5C 4.66667,25.1667 6.33333,25.1667 8,26.5C 8.27842,25.5842 8.77842,24.9175 9.5,24.5C 9.51715,26.5648 9.85048,28.5648 10.5,30.5C 9.40168,31.6009 9.23502,32.9343 10,34.5C 13.2395,35.8484 15.7395,37.1817 17.5,38.5C 16.4863,39.6737 15.153,40.3404 13.5,40.5C 12.8333,40.8333 12.1667,41.1667 11.5,41.5C 11.1667,41.5 10.8333,41.5 10.5,41.5C 9.31151,42.0476 8.14484,42.3809 7,42.5C 5.69137,40.1088 4.69137,40.1088 4,42.5C 3.51722,41.552 3.35055,40.552 3.5,39.5C 2.29542,41.1376 0.962087,41.4709 -0.5,40.5C -0.5,34.8333 -0.5,29.1667 -0.5,23.5 Z"/></g>
<g><path style="opacity:1" fill="#e0b885" d="M 10.5,30.5 C 11.8333,30.5 13.1667,30.5 14.5,30.5C 14.5,31.5 14.5,32.5 14.5,33.5C 13.1667,33.5 11.8333,33.5 10.5,33.5C 10.5,32.5 10.5,31.5 10.5,30.5 Z"/></g>
<g><path style="opacity:1" fill="#d0aa83" d="M 53.5,30.5 C 53.5,31.5 53.5,32.5 53.5,33.5C 52.1667,33.5 50.8333,33.5 49.5,33.5C 49.5,32.5 49.5,31.5 49.5,30.5C 50.8333,30.5 52.1667,30.5 53.5,30.5 Z"/></g>
<g><path style="opacity:1" fill="#fc6d73" d="M 20.5,33.5 C 20.5,33.8333 20.5,34.1667 20.5,34.5C 19.8333,34.5 19.1667,34.5 18.5,34.5C 17.8333,34.5 17.5,34.1667 17.5,33.5C 18.5,32.1667 19.5,32.1667 20.5,33.5 Z"/></g>
<g><path style="opacity:1" fill="#ee796c" d="M 47.5,33.5 C 47.5,34.1667 47.1667,34.5 46.5,34.5C 45.5,34.5 44.5,34.5 43.5,34.5C 43.5,34.1667 43.5,33.8333 43.5,33.5C 44.8333,32.1667 46.1667,32.1667 47.5,33.5 Z"/></g>
<g><path style="opacity:1" fill="#65c626" d="M 43.5,34.5 C 44.5,34.5 45.5,34.5 46.5,34.5C 46.631,35.2389 46.4643,35.9056 46,36.5C 43.4119,39.1999 40.5786,41.5332 37.5,43.5C 36.375,42.6522 36.375,41.6522 37.5,40.5C 38.4916,40.6716 39.1583,40.3382 39.5,39.5C 41.0737,38.0158 42.407,36.3492 43.5,34.5 Z"/></g>
<g><path style="opacity:1" fill="#141723" d="M 20.5,33.5 C 28.1796,34.7977 35.8462,34.7977 43.5,33.5C 43.5,33.8333 43.5,34.1667 43.5,34.5C 42.407,36.3492 41.0737,38.0158 39.5,39.5C 37.5842,39.908 35.7509,39.2413 34,37.5C 30.9264,37.5537 27.7597,38.2204 24.5,39.5C 23.5161,37.5201 22.1827,35.8534 20.5,34.5C 20.5,34.1667 20.5,33.8333 20.5,33.5 Z"/></g>
<g><path style="opacity:1" fill="#8ca7bf" d="M 55.5,33.5 C 55.369,34.2389 55.5357,34.9056 56,35.5C 58.7506,35.7771 61.2506,35.4438 63.5,34.5C 63.5,36.5 63.5,38.5 63.5,40.5C 62.7784,40.9175 62.2784,41.5842 62,42.5C 59.3284,41.6363 56.4951,41.303 53.5,41.5C 53.1667,41.5 52.8333,41.5 52.5,41.5C 51.6618,41.1583 51.3284,40.4916 51.5,39.5C 51.0472,38.5416 50.3805,37.7083 49.5,37C 51.6917,36.074 53.6917,34.9073 55.5,33.5 Z"/></g>
<g><path style="opacity:1" fill="#967dd8" d="M 3.5,39.5 C 4.65695,37.8624 5.82362,36.1957 7,34.5C 9.18198,37.941 8.01532,39.6077 3.5,39.5 Z"/></g>
<g><path style="opacity:1" fill="#533545" d="M 47.5,38.5 C 49.6099,39.9501 50.9432,41.9501 51.5,44.5C 48.4585,43.6485 45.4585,43.3152 42.5,43.5C 43.5,41.1667 45.1667,39.5 47.5,38.5 Z"/></g>
<g><path style="opacity:1" fill="#5fba21" d="M 18.5,34.5 C 19.1667,34.5 19.8333,34.5 20.5,34.5C 22.1827,35.8534 23.5161,37.5201 24.5,39.5C 25.6715,40.3446 27.0048,41.0113 28.5,41.5C 28.6716,42.4916 28.3382,43.1583 27.5,43.5C 25.8791,41.8828 23.8791,40.7162 21.5,40C 20.2423,38.2591 19.2423,36.4258 18.5,34.5 Z"/></g>
<g><path style="opacity:1" fill="#1b8697" d="M 47.5,33.5 C 47.8333,33.5 48.1667,33.5 48.5,33.5C 48.3713,35.2161 48.038,36.8828 47.5,38.5C 45.1667,39.5 43.5,41.1667 42.5,43.5C 42.1667,43.5 41.8333,43.5 41.5,43.5C 40.1667,43.5 38.8333,43.5 37.5,43.5C 40.5786,41.5332 43.4119,39.1999 46,36.5C 46.4643,35.9056 46.631,35.2389 46.5,34.5C 47.1667,34.5 47.5,34.1667 47.5,33.5 Z"/></g>
<g><path style="opacity:1" fill="#1d8693" d="M 15.5,33.5 C 16.1667,33.5 16.8333,33.5 17.5,33.5C 17.5,34.1667 17.8333,34.5 18.5,34.5C 19.2423,36.4258 20.2423,38.2591 21.5,40C 23.8791,40.7162 25.8791,41.8828 27.5,43.5C 23.0168,43.9253 19.6834,42.2587 17.5,38.5C 16.8333,36.8333 16.1667,35.1667 15.5,33.5 Z"/></g>
<g><path style="opacity:1" fill="#c95a65" d="M 39.5,39.5 C 39.1583,40.3382 38.4916,40.6716 37.5,40.5C 35.8148,41.1837 34.8148,42.517 34.5,44.5C 34.9569,45.2975 35.6236,45.6309 36.5,45.5C 36.8333,46.1667 37.1667,46.8333 37.5,47.5C 34.1667,48.8333 30.8333,48.8333 27.5,47.5C 27.8333,46.8333 28.1667,46.1667 28.5,45.5C 29.3764,45.6309 30.0431,45.2975 30.5,44.5C 30.0576,43.2613 29.3909,42.2613 28.5,41.5C 27.0048,41.0113 25.6715,40.3446 24.5,39.5C 27.7597,38.2204 30.9264,37.5537 34,37.5C 35.7509,39.2413 37.5842,39.908 39.5,39.5 Z"/></g>
<g><path style="opacity:1" fill="#55b62e" d="M 47.5,38.5 C 48.8333,38.8333 50.1667,39.1667 51.5,39.5C 51.3284,40.4916 51.6618,41.1583 52.5,41.5C 52.7845,43.4147 52.4511,45.0813 51.5,46.5C 51.5,45.8333 51.5,45.1667 51.5,44.5C 50.9432,41.9501 49.6099,39.9501 47.5,38.5 Z"/></g>
<g><path style="opacity:1" fill="#9572d7" d="M 3.5,39.5 C 3.35055,40.552 3.51722,41.552 4,42.5C 4.69137,40.1088 5.69137,40.1088 7,42.5C 8.14484,42.3809 9.31151,42.0476 10.5,41.5C 10.1924,43.924 10.5258,46.2573 11.5,48.5C 12.5223,48.1445 13.189,47.4778 13.5,46.5C 14.9943,45.6014 16.4943,45.9347 18,47.5C 18.7172,46.9558 19.2172,46.2891 19.5,45.5C 20.675,45.281 21.675,45.6143 22.5,46.5C 21.8728,47.4168 21.5394,48.4168 21.5,49.5C 19.9671,51.7896 20.3004,52.4563 22.5,51.5C 23.8415,53.0049 25.5082,53.6715 27.5,53.5C 30.8333,53.5 34.1667,53.5 37.5,53.5C 39.451,53.7733 40.951,53.1066 42,51.5C 42.3333,52.1667 42.6667,52.8333 43,53.5C 43.322,51.3111 42.822,49.3111 41.5,47.5C 42.209,46.596 43.209,46.2627 44.5,46.5C 46.8123,46.542 49.1457,46.542 51.5,46.5C 51.3691,47.3764 51.7025,48.0431 52.5,48.5C 53.4742,46.2573 53.8076,43.924 53.5,41.5C 56.4951,41.303 59.3284,41.6363 62,42.5C 62.2784,41.5842 62.7784,40.9175 63.5,40.5C 63.5,48.1667 63.5,55.8333 63.5,63.5C 42.1667,63.5 20.8333,63.5 -0.5,63.5C -0.5,55.8333 -0.5,48.1667 -0.5,40.5C 0.962087,41.4709 2.29542,41.1376 3.5,39.5 Z"/></g>
<g><path style="opacity:1" fill="#c17b60" d="M 13.5,42.5 C 15.2967,42.9349 17.2967,42.9349 19.5,42.5C 19.5,43.5 19.5,44.5 19.5,45.5C 17.1099,45.0874 14.7765,44.4207 12.5,43.5C 12.6236,42.8933 12.9569,42.56 13.5,42.5 Z"/></g>
<g><path style="opacity:1" fill="#14162b" d="M 10.5,41.5 C 10.8333,41.5 11.1667,41.5 11.5,41.5C 11.0773,43.7812 11.744,45.4479 13.5,46.5C 13.189,47.4778 12.5223,48.1445 11.5,48.5C 10.5258,46.2573 10.1924,43.924 10.5,41.5 Z"/></g>
<g><path style="opacity:1" fill="#252b37" d="M 17.5,38.5 C 19.6834,42.2587 23.0168,43.9253 27.5,43.5C 28.3382,43.1583 28.6716,42.4916 28.5,41.5C 29.3909,42.2613 30.0576,43.2613 30.5,44.5C 30.0431,45.2975 29.3764,45.6309 28.5,45.5C 27.1667,45.5 25.8333,45.5 24.5,45.5C 24.9118,47.9726 23.9118,49.3059 21.5,49.5C 21.5394,48.4168 21.8728,47.4168 22.5,46.5C 21.675,45.6143 20.675,45.281 19.5,45.5C 19.5,44.5 19.5,43.5 19.5,42.5C 17.2967,42.9349 15.2967,42.9349 13.5,42.5C 13.5,41.8333 13.5,41.1667 13.5,40.5C 15.153,40.3404 16.4863,39.6737 17.5,38.5 Z"/></g>
<g><path style="opacity:1" fill="#182838" d="M 37.5,40.5 C 36.375,41.6522 36.375,42.6522 37.5,43.5C 38.8333,43.5 40.1667,43.5 41.5,43.5C 42.0998,44.8999 43.0998,45.8999 44.5,46.5C 43.209,46.2627 42.209,46.596 41.5,47.5C 40.1805,46.0582 38.5138,45.3915 36.5,45.5C 35.6236,45.6309 34.9569,45.2975 34.5,44.5C 34.8148,42.517 35.8148,41.1837 37.5,40.5 Z"/></g>
<g><path style="opacity:1" fill="#486942" d="M 41.5,43.5 C 41.8333,43.5 42.1667,43.5 42.5,43.5C 45.4585,43.3152 48.4585,43.6485 51.5,44.5C 51.5,45.1667 51.5,45.8333 51.5,46.5C 49.1457,46.542 46.8123,46.542 44.5,46.5C 43.0998,45.8999 42.0998,44.8999 41.5,43.5 Z"/></g>
<g><path style="opacity:1" fill="#4b8b3b" d="M 13.5,40.5 C 13.5,41.1667 13.5,41.8333 13.5,42.5C 12.9569,42.56 12.6236,42.8933 12.5,43.5C 14.7765,44.4207 17.1099,45.0874 19.5,45.5C 19.2172,46.2891 18.7172,46.9558 18,47.5C 16.4943,45.9347 14.9943,45.6014 13.5,46.5C 11.744,45.4479 11.0773,43.7812 11.5,41.5C 12.1667,41.1667 12.8333,40.8333 13.5,40.5 Z"/></g>
<g><path style="opacity:1" fill="#121527" d="M 52.5,41.5 C 52.8333,41.5 53.1667,41.5 53.5,41.5C 53.8076,43.924 53.4742,46.2573 52.5,48.5C 51.7025,48.0431 51.3691,47.3764 51.5,46.5C 52.4511,45.0813 52.7845,43.4147 52.5,41.5 Z"/></g>
<g><path style="opacity:1" fill="#5ab23c" d="M 36.5,45.5 C 38.5138,45.3915 40.1805,46.0582 41.5,47.5C 42.822,49.3111 43.322,51.3111 43,53.5C 42.6667,52.8333 42.3333,52.1667 42,51.5C 40.951,53.1066 39.451,53.7733 37.5,53.5C 38.3799,51.3888 38.3799,49.3888 37.5,47.5C 37.1667,46.8333 36.8333,46.1667 36.5,45.5 Z"/></g>
<g><path style="opacity:1" fill="#59b13b" d="M 28.5,45.5 C 28.1667,46.1667 27.8333,46.8333 27.5,47.5C 26.6201,49.3888 26.6201,51.3888 27.5,53.5C 25.5082,53.6715 23.8415,53.0049 22.5,51.5C 20.3004,52.4563 19.9671,51.7896 21.5,49.5C 23.9118,49.3059 24.9118,47.9726 24.5,45.5C 25.8333,45.5 27.1667,45.5 28.5,45.5 Z"/></g>
<g><path style="opacity:1" fill="#f2c179" d="M 27.5,47.5 C 30.8333,48.8333 34.1667,48.8333 37.5,47.5C 38.3799,49.3888 38.3799,51.3888 37.5,53.5C 34.1667,53.5 30.8333,53.5 27.5,53.5C 26.6201,51.3888 26.6201,49.3888 27.5,47.5 Z"/></g>
</svg>
