<?xml version="1.0" encoding="UTF-8"?>
<!DOCTYPE svg PUBLIC "-//W3C//DTD SVG 1.1//EN" "http://www.w3.org/Graphics/SVG/1.1/DTD/svg11.dtd">
<svg xmlns="http://www.w3.org/2000/svg" version="1.1" width="215px" height="215px" style="shape-rendering:geometricPrecision; text-rendering:geometricPrecision; image-rendering:optimizeQuality; fill-rule:evenodd; clip-rule:evenodd" xmlns:xlink="http://www.w3.org/1999/xlink">
<g><path style="opacity:1" fill="#fdfdfd" d="M -0.5,-0.5 C 71.1667,-0.5 142.833,-0.5 214.5,-0.5C 214.5,71.1667 214.5,142.833 214.5,214.5C 200.167,214.5 185.833,214.5 171.5,214.5C 163.256,204.25 153.256,196.25 141.5,190.5C 141.932,187.123 141.265,184.123 139.5,181.5C 136.536,179.013 135.869,176.013 137.5,172.5C 137.549,169.901 138.549,167.734 140.5,166C 146.526,164.164 152.193,161.664 157.5,158.5C 162.071,156.47 166.404,153.97 170.5,151C 173.118,148.894 175.118,146.394 176.5,143.5C 178.5,143.5 179.5,142.5 179.5,140.5C 180.885,139.426 182.051,138.093 183,136.5C 186.248,127.937 188.748,119.27 190.5,110.5C 191.643,110.092 192.643,109.425 193.5,108.5C 195.685,104.413 197.185,100.079 198,95.5C 197.693,89.8106 197.86,84.144 198.5,78.5C 198.276,76.5453 197.609,74.8787 196.5,73.5C 196.158,72.6618 195.492,72.3284 194.5,72.5C 191.638,69.9334 189.305,66.9334 187.5,63.5C 183.024,55.0224 176.358,49.0224 167.5,45.5C 165.493,43.1627 162.827,41.8294 159.5,41.5C 157.898,39.9261 155.898,39.2594 153.5,39.5C 153.082,38.7784 152.416,38.2784 151.5,38C 141.166,37.6665 131.166,35.6665 121.5,32C 115.5,31.3333 109.5,31.3333 103.5,32C 102.584,32.2784 101.918,32.7784 101.5,33.5C 88.5196,35.8564 76.5196,40.5231 65.5,47.5C 64.5084,47.3284 63.8417,47.6618 63.5,48.5C 48.8163,55.8397 36.1497,65.8397 25.5,78.5C 23.4352,78.5172 21.4352,78.8505 19.5,79.5C 12.8303,83.8378 6.16364,88.1712 -0.5,92.5C -0.5,61.5 -0.5,30.5 -0.5,-0.5 Z"/></g>
<g><path style="opacity:1" fill="#7e5122" d="M 153.5,39.5 C 149.958,39.1872 146.625,39.5206 143.5,40.5C 138.195,38.8533 132.861,37.1866 127.5,35.5C 126.5,35.5 125.5,35.5 124.5,35.5C 122.981,34.5902 121.315,33.7568 119.5,33C 113.484,32.5012 107.484,32.6679 101.5,33.5C 101.918,32.7784 102.584,32.2784 103.5,32C 109.5,31.3333 115.5,31.3333 121.5,32C 131.166,35.6665 141.166,37.6665 151.5,38C 152.416,38.2784 153.082,38.7784 153.5,39.5 Z"/></g>
<g><path style="opacity:1" fill="#fb8c08" d="M 124.5,35.5 C 125.5,35.5 126.5,35.5 127.5,35.5C 126.391,36.29 125.058,36.79 123.5,37C 130.553,38.3806 137.22,40.5473 143.5,43.5C 143.5,44.8333 143.5,46.1667 143.5,47.5C 146.237,47.3697 148.237,48.5364 149.5,51C 147.174,52.8348 145.174,55.0014 143.5,57.5C 143.5,57.8333 143.5,58.1667 143.5,58.5C 143.5,59.1667 143.167,59.5 142.5,59.5C 137.995,58.9087 134.329,56.7421 131.5,53C 128.167,51.3333 124.833,49.6667 121.5,48C 118.183,47.5017 114.85,47.335 111.5,47.5C 110.022,47.762 108.689,47.4287 107.5,46.5C 114.134,45.5033 120.8,45.17 127.5,45.5C 127.5,44.1667 127.5,42.8333 127.5,41.5C 118.034,41.9576 108.701,41.1243 99.5,39C 100.623,37.9563 101.956,37.2896 103.5,37C 103.167,36.6667 102.833,36.3333 102.5,36C 109.826,35.5003 117.159,35.3337 124.5,35.5 Z"/></g>
<g><path style="opacity:1" fill="#b7742a" d="M 153.5,39.5 C 155.898,39.2594 157.898,39.9261 159.5,41.5C 155.486,41.3345 151.486,41.5012 147.5,42C 149.396,43.0646 149.563,43.8979 148,44.5C 145.901,43.7219 144.401,42.3886 143.5,40.5C 146.625,39.5206 149.958,39.1872 153.5,39.5 Z"/></g>
<g><path style="opacity:1" fill="#84572a" d="M 101.5,33.5 C 93.5386,36.6499 85.8719,40.6499 78.5,45.5C 78.38,44.4138 77.7133,43.7472 76.5,43.5C 74.5952,44.065 72.9285,45.065 71.5,46.5C 69.604,47.4656 67.604,47.7989 65.5,47.5C 76.5196,40.5231 88.5196,35.8564 101.5,33.5 Z"/></g>
<g><path style="opacity:1" fill="#e98f19" d="M 127.5,35.5 C 132.861,37.1866 138.195,38.8533 143.5,40.5C 144.401,42.3886 145.901,43.7219 148,44.5C 149.563,43.8979 149.396,43.0646 147.5,42C 151.486,41.5012 155.486,41.3345 159.5,41.5C 161.891,43.3622 164.558,44.6955 167.5,45.5C 168.167,46.8333 168.833,48.1667 169.5,49.5C 164.999,48.8627 160.999,49.8627 157.5,52.5C 158.612,53.2652 159.279,54.2652 159.5,55.5C 158.167,55.5 156.833,55.5 155.5,55.5C 154.726,54.8529 153.726,54.5195 152.5,54.5C 149.244,54.9185 146.244,55.9185 143.5,57.5C 145.174,55.0014 147.174,52.8348 149.5,51C 148.237,48.5364 146.237,47.3697 143.5,47.5C 143.5,46.1667 143.5,44.8333 143.5,43.5C 137.22,40.5473 130.553,38.3806 123.5,37C 125.058,36.79 126.391,36.29 127.5,35.5 Z"/></g>
<g><path style="opacity:1" fill="#844d1b" d="M 159.5,41.5 C 162.827,41.8294 165.493,43.1627 167.5,45.5C 164.558,44.6955 161.891,43.3622 159.5,41.5 Z"/></g>
<g><path style="opacity:1" fill="#80521f" d="M 111.5,47.5 C 114.85,47.335 118.183,47.5017 121.5,48C 124.833,49.6667 128.167,51.3333 131.5,53C 134.329,56.7421 137.995,58.9087 142.5,59.5C 141.71,60.4013 140.71,61.0679 139.5,61.5C 135.772,58.4411 131.772,55.7744 127.5,53.5C 121.73,49.1893 115.73,48.5227 109.5,51.5C 108.292,50.7659 106.959,50.4326 105.5,50.5C 107.5,49.5 109.5,48.5 111.5,47.5 Z"/></g>
<g><path style="opacity:1" fill="#fd8703" d="M 169.5,49.5 C 172.554,49.354 174.554,50.6874 175.5,53.5C 170.604,55.4461 165.271,56.1128 159.5,55.5C 159.279,54.2652 158.612,53.2652 157.5,52.5C 160.999,49.8627 164.999,48.8627 169.5,49.5 Z"/></g>
<g><path style="opacity:1" fill="#d07e1d" d="M 78.5,45.5 C 74.2203,48.7761 70.2203,52.4428 66.5,56.5C 64.585,58.0712 63.585,60.0712 63.5,62.5C 62.8333,62.8333 62.1667,63.1667 61.5,63.5C 60.8333,63.5 60.1667,63.5 59.5,63.5C 60.4214,61.7313 61.5881,60.0646 63,58.5C 63.4935,56.8659 63.6602,55.1992 63.5,53.5C 60.8333,54.1667 58.1667,54.8333 55.5,55.5C 58.0946,53.1841 60.7613,50.8508 63.5,48.5C 63.8417,47.6618 64.5084,47.3284 65.5,47.5C 67.604,47.7989 69.604,47.4656 71.5,46.5C 72.9285,45.065 74.5952,44.065 76.5,43.5C 77.7133,43.7472 78.38,44.4138 78.5,45.5 Z"/></g>
<g><path style="opacity:1" fill="#8d5f24" d="M 167.5,45.5 C 176.358,49.0224 183.024,55.0224 187.5,63.5C 186.209,63.7373 185.209,63.404 184.5,62.5C 183.588,60.4048 182.421,58.4048 181,56.5C 179.736,54.393 177.903,53.393 175.5,53.5C 174.554,50.6874 172.554,49.354 169.5,49.5C 168.833,48.1667 168.167,46.8333 167.5,45.5 Z"/></g>
<g><path style="opacity:1" fill="#5c5132" d="M 105.5,50.5 C 106.959,50.4326 108.292,50.7659 109.5,51.5C 114.38,51.8587 119.047,53.0254 123.5,55C 122.833,55.1667 122.167,55.3333 121.5,55.5C 112.969,53.3504 104.303,52.3504 95.5,52.5C 98.6838,51.6768 102.017,51.0101 105.5,50.5 Z"/></g>
<g><path style="opacity:1" fill="#815527" d="M 63.5,48.5 C 60.7613,50.8508 58.0946,53.1841 55.5,55.5C 50.8819,57.8148 46.5486,60.6482 42.5,64C 36.917,69.4236 31.2504,74.5902 25.5,79.5C 25.5,79.1667 25.5,78.8333 25.5,78.5C 36.1497,65.8397 48.8163,55.8397 63.5,48.5 Z"/></g>
<g><path style="opacity:1" fill="#7f5014" d="M 95.5,52.5 C 91.9736,54.0716 88.307,55.5716 84.5,57C 82.2628,58.3996 80.5962,60.233 79.5,62.5C 78.8333,62.8333 78.1667,63.1667 77.5,63.5C 77.6138,61.2821 78.2804,59.2821 79.5,57.5C 84.4623,54.6877 89.7957,53.021 95.5,52.5 Z"/></g>
<g><path style="opacity:1" fill="#774d15" d="M 155.5,55.5 C 151.196,55.2663 147.529,56.5996 144.5,59.5C 144.5,58.8333 144.167,58.5 143.5,58.5C 143.5,58.1667 143.5,57.8333 143.5,57.5C 146.244,55.9185 149.244,54.9185 152.5,54.5C 153.726,54.5195 154.726,54.8529 155.5,55.5 Z"/></g>
<g><path style="opacity:1" fill="#d79639" d="M 175.5,53.5 C 177.903,53.393 179.736,54.393 181,56.5C 182.421,58.4048 183.588,60.4048 184.5,62.5C 183.833,62.5 183.5,62.8333 183.5,63.5C 181.517,63.8432 180.183,63.1765 179.5,61.5C 180.552,61.6495 181.552,61.4828 182.5,61C 180.833,60 179.167,59 177.5,58C 171.353,57.1625 165.353,56.3291 159.5,55.5C 165.271,56.1128 170.604,55.4461 175.5,53.5 Z"/></g>
<g><path style="opacity:1" fill="#f68f13" d="M 124.5,35.5 C 117.159,35.3337 109.826,35.5003 102.5,36C 102.833,36.3333 103.167,36.6667 103.5,37C 101.956,37.2896 100.623,37.9563 99.5,39C 108.701,41.1243 118.034,41.9576 127.5,41.5C 127.5,42.8333 127.5,44.1667 127.5,45.5C 120.8,45.17 114.134,45.5033 107.5,46.5C 108.689,47.4287 110.022,47.762 111.5,47.5C 109.5,48.5 107.5,49.5 105.5,50.5C 102.017,51.0101 98.6838,51.6768 95.5,52.5C 89.7957,53.021 84.4623,54.6877 79.5,57.5C 75.5,57.5 73.5,59.5 73.5,63.5C 70.0819,63.5768 67.7486,65.2435 66.5,68.5C 65.675,69.3857 64.675,69.719 63.5,69.5C 63.5,67.1667 63.5,64.8333 63.5,62.5C 63.585,60.0712 64.585,58.0712 66.5,56.5C 70.2203,52.4428 74.2203,48.7761 78.5,45.5C 85.8719,40.6499 93.5386,36.6499 101.5,33.5C 107.484,32.6679 113.484,32.5012 119.5,33C 121.315,33.7568 122.981,34.5902 124.5,35.5 Z"/></g>
<g><path style="opacity:1" fill="#7d5112" d="M 155.5,55.5 C 156.833,55.5 158.167,55.5 159.5,55.5C 165.353,56.3291 171.353,57.1625 177.5,58C 179.167,59 180.833,60 182.5,61C 181.552,61.4828 180.552,61.6495 179.5,61.5C 176.712,59.0237 173.378,58.0237 169.5,58.5C 165.702,57.5166 161.702,57.1832 157.5,57.5C 156.833,56.8333 156.167,56.1667 155.5,55.5 Z"/></g>
<g><path style="opacity:1" fill="#56503a" d="M 157.5,57.5 C 161.702,57.1832 165.702,57.5166 169.5,58.5C 161.675,57.6644 154.675,59.6644 148.5,64.5C 147.707,63.6446 148.04,62.8113 149.5,62C 152.191,60.3952 154.858,58.8952 157.5,57.5 Z"/></g>
<g><path style="opacity:1" fill="#2f2019" d="M 77.5,64.5 C 76.8333,64.5 76.5,64.1667 76.5,63.5C 76.8333,63.5 77.1667,63.5 77.5,63.5C 78.1667,63.1667 78.8333,62.8333 79.5,62.5C 84.8283,61.8516 90.1617,61.6849 95.5,62C 89.4746,62.7267 83.4746,63.5601 77.5,64.5 Z"/></g>
<g><path style="opacity:1" fill="#814f14" d="M 76.5,63.5 C 76.5,64.1667 76.8333,64.5 77.5,64.5C 71.7423,67.3437 69.0756,72.0103 69.5,78.5C 68.8333,79.5 68.1667,80.5 67.5,81.5C 66.3452,73.2367 69.3452,67.2367 76.5,63.5 Z"/></g>
<g><path style="opacity:1" fill="#6d6042" d="M 184.5,62.5 C 185.209,63.404 186.209,63.7373 187.5,63.5C 189.305,66.9334 191.638,69.9334 194.5,72.5C 185.765,69.3849 176.765,67.2182 167.5,66C 173.243,65.5928 178.91,66.0928 184.5,67.5C 184.833,67 185.167,66.5 185.5,66C 184.944,64.9889 184.278,64.1556 183.5,63.5C 183.5,62.8333 183.833,62.5 184.5,62.5 Z"/></g>
<g><path style="opacity:1" fill="#963d04" d="M 59.5,63.5 C 60.1667,63.5 60.8333,63.5 61.5,63.5C 58.3496,68.4529 56.5163,73.7863 56,79.5C 56.7485,77.6675 57.7485,76.0009 59,74.5C 59.1667,75 59.3333,75.5 59.5,76C 57.8309,79.8455 56.4975,83.6788 55.5,87.5C 54.305,83.5743 53.805,79.5743 54,75.5C 55.743,71.4283 57.5763,67.4283 59.5,63.5 Z"/></g>
<g><path style="opacity:1" fill="#cabb94" d="M 127.5,53.5 C 131.772,55.7744 135.772,58.4411 139.5,61.5C 140.306,62.7281 141.306,63.7281 142.5,64.5C 143.6,65.5585 144.934,66.3918 146.5,67C 144.871,67.5855 143.371,68.4188 142,69.5C 139.733,68.7293 137.9,67.3959 136.5,65.5C 136.167,65.8333 135.833,66.1667 135.5,66.5C 137.04,67.5321 137.54,68.8654 137,70.5C 135.431,69.8778 133.764,69.5445 132,69.5C 115.23,71.5332 98.3967,72.0332 81.5,71C 80.0267,70.2904 79.3601,69.1238 79.5,67.5C 95.5,67.5 111.5,67.5 127.5,67.5C 127.5,66.1667 127.5,64.8333 127.5,63.5C 129.199,63.6602 130.866,63.4935 132.5,63C 130.608,59.9442 128.941,56.7775 127.5,53.5 Z"/></g>
<g><path style="opacity:1" fill="#c5b79a" d="M 127.5,53.5 C 128.941,56.7775 130.608,59.9442 132.5,63C 130.866,63.4935 129.199,63.6602 127.5,63.5C 127.5,64.8333 127.5,66.1667 127.5,67.5C 111.5,67.5 95.5,67.5 79.5,67.5C 79.3601,69.1238 80.0267,70.2904 81.5,71C 98.3967,72.0332 115.23,71.5332 132,69.5C 133.764,69.5445 135.431,69.8778 137,70.5C 137.54,68.8654 137.04,67.5321 135.5,66.5C 135.833,66.1667 136.167,65.8333 136.5,65.5C 137.9,67.3959 139.733,68.7293 142,69.5C 143.371,68.4188 144.871,67.5855 146.5,67C 144.934,66.3918 143.6,65.5585 142.5,64.5C 143.309,62.9724 143.976,61.3057 144.5,59.5C 147.529,56.5996 151.196,55.2663 155.5,55.5C 156.167,56.1667 156.833,56.8333 157.5,57.5C 154.858,58.8952 152.191,60.3952 149.5,62C 148.04,62.8113 147.707,63.6446 148.5,64.5C 154.675,59.6644 161.675,57.6644 169.5,58.5C 173.378,58.0237 176.712,59.0237 179.5,61.5C 180.183,63.1765 181.517,63.8432 183.5,63.5C 184.278,64.1556 184.944,64.9889 185.5,66C 185.167,66.5 184.833,67 184.5,67.5C 178.91,66.0928 173.243,65.5928 167.5,66C 176.765,67.2182 185.765,69.3849 194.5,72.5C 195.492,72.3284 196.158,72.6618 196.5,73.5C 195.761,73.369 195.094,73.5357 194.5,74C 197.326,77.2309 197.659,80.5642 195.5,84C 197.721,93.6088 196.054,102.442 190.5,110.5C 188.284,111.966 186.284,113.633 184.5,115.5C 182.887,116.692 181.22,117.692 179.5,118.5C 178.5,118.5 177.5,118.5 176.5,118.5C 175.71,117.206 174.71,116.039 173.5,115C 177.907,113.661 181.24,111.161 183.5,107.5C 186.058,105.45 188.558,103.117 191,100.5C 191.483,99.552 191.649,98.552 191.5,97.5C 192.642,93.9288 193.309,90.2621 193.5,86.5C 194.692,85.4341 194.359,84.6008 192.5,84C 179.097,77.2028 165.097,75.7028 150.5,79.5C 148.338,79.8972 147.005,81.2305 146.5,83.5C 145.289,80.2387 144.289,76.9054 143.5,73.5C 142.833,72.8333 142.167,72.1667 141.5,71.5C 141.167,71.8333 140.833,72.1667 140.5,72.5C 143.266,78.5563 145.266,84.8896 146.5,91.5C 149.371,101.064 151.038,110.731 151.5,120.5C 151.44,121.043 151.107,121.376 150.5,121.5C 148.5,118.833 146.5,118.833 144.5,121.5C 146.078,122.298 147.744,122.798 149.5,123C 146.667,123.167 143.833,123.333 141,123.5C 137.748,123.481 134.915,122.814 132.5,121.5C 132.569,116.146 132.902,110.813 133.5,105.5C 134.217,100.656 134.217,95.9889 133.5,91.5C 133.5,87.5 133.5,83.5 133.5,79.5C 134.317,81.9686 134.817,84.6353 135,87.5C 135.147,84.4294 135.98,81.5961 137.5,79C 134.395,77.1319 131.062,75.9652 127.5,75.5C 126.737,74.7321 125.737,74.2321 124.5,74C 114.658,73.1754 104.991,73.342 95.5,74.5C 86.6497,75.192 77.983,76.5253 69.5,78.5C 69.0756,72.0103 71.7423,67.3437 77.5,64.5C 83.4746,63.5601 89.4746,62.7267 95.5,62C 90.1617,61.6849 84.8283,61.8516 79.5,62.5C 80.5962,60.233 82.2628,58.3996 84.5,57C 88.307,55.5716 91.9736,54.0716 95.5,52.5C 104.303,52.3504 112.969,53.3504 121.5,55.5C 122.167,55.3333 122.833,55.1667 123.5,55C 119.047,53.0254 114.38,51.8587 109.5,51.5C 115.73,48.5227 121.73,49.1893 127.5,53.5 Z"/></g>
<g><path style="opacity:1" fill="#594c2e" d="M 155.5,65.5 C 156.239,65.369 156.906,65.5357 157.5,66C 155.452,67.6811 153.285,69.1811 151,70.5C 150.333,69.8333 150.333,69.1667 151,68.5C 152.652,67.6006 154.152,66.6006 155.5,65.5 Z"/></g>
<g><path style="opacity:1" fill="#281d1a" d="M 143.5,58.5 C 144.167,58.5 144.5,58.8333 144.5,59.5C 143.976,61.3057 143.309,62.9724 142.5,64.5C 141.306,63.7281 140.306,62.7281 139.5,61.5C 140.71,61.0679 141.71,60.4013 142.5,59.5C 143.167,59.5 143.5,59.1667 143.5,58.5 Z"/></g>
<g><path style="opacity:1" fill="#5c5445" d="M 95.5,74.5 C 104.991,73.342 114.658,73.1754 124.5,74C 125.737,74.2321 126.737,74.7321 127.5,75.5C 116.865,74.5964 106.198,74.2631 95.5,74.5 Z"/></g>
<g><path style="opacity:1" fill="#121111" d="M 95.5,74.5 C 106.198,74.2631 116.865,74.5964 127.5,75.5C 131.062,75.9652 134.395,77.1319 137.5,79C 135.98,81.5961 135.147,84.4294 135,87.5C 134.817,84.6353 134.317,81.9686 133.5,79.5C 131.579,78.6373 129.579,77.9707 127.5,77.5C 124.313,76.1944 120.98,76.1944 117.5,77.5C 117.624,78.1067 117.957,78.44 118.5,78.5C 124.065,88.9917 121.732,97.4917 111.5,104C 100.336,108.905 90.8359,106.738 83,97.5C 79.9521,91.849 79.7855,86.1824 82.5,80.5C 81,80.1667 79.5,79.8333 78,79.5C 75.4563,79.336 73.2897,80.0027 71.5,81.5C 70.2905,81.9321 69.2905,82.5987 68.5,83.5C 67.8333,83.5 67.5,83.1667 67.5,82.5C 67.5,82.1667 67.5,81.8333 67.5,81.5C 68.1667,80.5 68.8333,79.5 69.5,78.5C 77.983,76.5253 86.6497,75.192 95.5,74.5 Z"/></g>
<g><path style="opacity:1" fill="#847d82" d="M 127.5,77.5 C 124.287,77.19 121.287,77.5233 118.5,78.5C 117.957,78.44 117.624,78.1067 117.5,77.5C 120.98,76.1944 124.313,76.1944 127.5,77.5 Z"/></g>
<g><path style="opacity:1" fill="#fb8e06" d="M 59.5,63.5 C 57.5763,67.4283 55.743,71.4283 54,75.5C 53.805,79.5743 54.305,83.5743 55.5,87.5C 54.5336,90.4449 53.2003,93.1116 51.5,95.5C 51.5386,94.2438 51.0386,93.2438 50,92.5C 49.19,99.0816 49.3567,105.582 50.5,112C 49.2845,114.096 48.4512,113.929 48,111.5C 47.8333,112 47.6667,112.5 47.5,113C 48.6953,114.533 48.6953,116.033 47.5,117.5C 48.0253,118.192 48.6919,118.692 49.5,119C 48.025,126.841 47.3583,135.008 47.5,143.5C 54.1667,143.5 60.8333,143.5 67.5,143.5C 67.5,141.5 67.5,139.5 67.5,137.5C 69.6208,137.325 71.6208,137.659 73.5,138.5C 74.1667,138.5 74.8333,138.5 75.5,138.5C 75.5,140.167 75.5,141.833 75.5,143.5C 76.8333,143.5 78.1667,143.5 79.5,143.5C 79.5,144.5 79.5,145.5 79.5,146.5C 80.146,150.74 79.8126,155.073 78.5,159.5C 76.8211,161.104 74.8211,161.771 72.5,161.5C 72.1667,161.5 71.8333,161.5 71.5,161.5C 70.3915,160.71 69.0581,160.21 67.5,160C 60.8417,159.5 54.175,159.334 47.5,159.5C 43.4862,159.666 39.4862,159.499 35.5,159C 33.5359,157.549 32.2026,155.716 31.5,153.5C 30.1667,150.167 28.8333,146.833 27.5,143.5C 26.1667,143.5 24.8333,143.5 23.5,143.5C 23.5,143.167 23.5,142.833 23.5,142.5C 23.2612,137.43 22.5946,132.43 21.5,127.5C 19.8333,127.5 18.1667,127.5 16.5,127.5C 16.1667,127.5 15.8333,127.5 15.5,127.5C 15.5,118.5 15.5,109.5 15.5,100.5C 16.1667,98.8333 16.8333,97.1667 17.5,95.5C 18.9152,91.7443 21.2485,88.4109 24.5,85.5C 25.4287,84.3112 25.762,82.9778 25.5,81.5C 25.5,80.8333 25.5,80.1667 25.5,79.5C 31.2504,74.5902 36.917,69.4236 42.5,64C 46.5486,60.6482 50.8819,57.8148 55.5,55.5C 58.1667,54.8333 60.8333,54.1667 63.5,53.5C 63.6602,55.1992 63.4935,56.8659 63,58.5C 61.5881,60.0646 60.4214,61.7313 59.5,63.5 Z"/></g>
<g><path style="opacity:1" fill="#dbdbdc" d="M 106.5,78.5 C 114.93,79.4489 118.096,84.1156 116,92.5C 115.044,93.5786 114.211,94.7453 113.5,96C 112.216,96.6838 111.049,96.5171 110,95.5C 111.683,90.2178 110.35,85.8845 106,82.5C 105.421,81.0715 105.588,79.7382 106.5,78.5 Z"/></g>
<g><path style="opacity:1" fill="#f1f1f0" d="M 127.5,77.5 C 129.579,77.9707 131.579,78.6373 133.5,79.5C 133.5,83.5 133.5,87.5 133.5,91.5C 132.878,97.395 130.545,102.395 126.5,106.5C 123.101,108.199 119.768,109.866 116.5,111.5C 108.862,112.313 101.196,112.646 93.5,112.5C 80.5154,106.204 73.182,95.8705 71.5,81.5C 73.2897,80.0027 75.4563,79.336 78,79.5C 79.5,79.8333 81,80.1667 82.5,80.5C 79.7855,86.1824 79.9521,91.849 83,97.5C 90.8359,106.738 100.336,108.905 111.5,104C 121.732,97.4917 124.065,88.9917 118.5,78.5C 121.287,77.5233 124.287,77.19 127.5,77.5 Z"/></g>
<g><path style="opacity:1" fill="#121111" d="M 193.5,86.5 C 191.883,85.962 190.216,85.6287 188.5,85.5C 187.3,101.425 178.966,107.592 163.5,104C 155.622,98.9855 151.955,91.8189 152.5,82.5C 151.737,81.7321 150.737,81.2321 149.5,81C 150.056,80.6174 150.389,80.1174 150.5,79.5C 165.097,75.7028 179.097,77.2028 192.5,84C 194.359,84.6008 194.692,85.4341 193.5,86.5 Z"/></g>
<g><path style="opacity:1" fill="#e78e24" d="M 79.5,57.5 C 78.2804,59.2821 77.6138,61.2821 77.5,63.5C 77.1667,63.5 76.8333,63.5 76.5,63.5C 69.3452,67.2367 66.3452,73.2367 67.5,81.5C 67.5,81.8333 67.5,82.1667 67.5,82.5C 65.7757,85.3448 64.4423,88.3448 63.5,91.5C 63.7594,86.9558 64.4261,82.4558 65.5,78C 65.8517,75.0221 65.0184,72.5221 63,70.5C 61.4806,75.0022 61.3139,79.8355 62.5,85C 62.5084,88.1539 61.8418,88.3206 60.5,85.5C 59.513,88.7683 59.1796,92.1016 59.5,95.5C 58.1667,95.5 56.8333,95.5 55.5,95.5C 55.5,99.5 55.5,103.5 55.5,107.5C 55.1667,108.167 54.8333,108.833 54.5,109.5C 53.8529,108.726 53.5195,107.726 53.5,106.5C 54.3651,100.182 55.0318,93.8487 55.5,87.5C 56.4975,83.6788 57.8309,79.8455 59.5,76C 59.3333,75.5 59.1667,75 59,74.5C 57.7485,76.0009 56.7485,77.6675 56,79.5C 56.5163,73.7863 58.3496,68.4529 61.5,63.5C 62.1667,63.1667 62.8333,62.8333 63.5,62.5C 63.5,64.8333 63.5,67.1667 63.5,69.5C 64.675,69.719 65.675,69.3857 66.5,68.5C 67.7486,65.2435 70.0819,63.5768 73.5,63.5C 73.5,59.5 75.5,57.5 79.5,57.5 Z"/></g>
<g><path style="opacity:1" fill="#e9e9e9" d="M 88.5,81.5 C 90.1667,81.5 91.8333,81.5 93.5,81.5C 93.665,84.8499 93.4983,88.1832 93,91.5C 90.9783,92.9909 89.3117,92.6576 88,90.5C 87.2642,87.408 87.4309,84.408 88.5,81.5 Z"/></g>
<g><path style="opacity:1" fill="#dbdbdb" d="M 173.5,81.5 C 181.639,81.3222 184.473,85.3222 182,93.5C 180.644,94.3802 179.144,94.7135 177.5,94.5C 177.662,92.4727 177.495,90.4727 177,88.5C 175.807,86.1136 174.64,83.7802 173.5,81.5 Z"/></g>
<g><path style="opacity:1" fill="#616351" d="M 196.5,73.5 C 197.609,74.8787 198.276,76.5453 198.5,78.5C 197.86,84.144 197.693,89.8106 198,95.5C 197.185,100.079 195.685,104.413 193.5,108.5C 192.643,109.425 191.643,110.092 190.5,110.5C 196.054,102.442 197.721,93.6088 195.5,84C 197.659,80.5642 197.326,77.2309 194.5,74C 195.094,73.5357 195.761,73.369 196.5,73.5 Z"/></g>
<g><path style="opacity:1" fill="#b98135" d="M 25.5,81.5 C 25.762,82.9778 25.4287,84.3112 24.5,85.5C 21.2485,88.4109 18.9152,91.7443 17.5,95.5C 18.1143,89.5768 20.781,84.9101 25.5,81.5 Z"/></g>
<g><path style="opacity:1" fill="#473f2d" d="M 150.5,79.5 C 150.389,80.1174 150.056,80.6174 149.5,81C 150.737,81.2321 151.737,81.7321 152.5,82.5C 148.197,82.7352 146.53,85.0685 147.5,89.5C 147.672,90.4916 147.338,91.1583 146.5,91.5C 145.266,84.8896 143.266,78.5563 140.5,72.5C 140.833,72.1667 141.167,71.8333 141.5,71.5C 142.167,72.1667 142.833,72.8333 143.5,73.5C 144.289,76.9054 145.289,80.2387 146.5,83.5C 147.005,81.2305 148.338,79.8972 150.5,79.5 Z"/></g>
<g><path style="opacity:1" fill="#321a0a" d="M 25.5,78.5 C 25.5,78.8333 25.5,79.1667 25.5,79.5C 25.5,80.1667 25.5,80.8333 25.5,81.5C 20.781,84.9101 18.1143,89.5768 17.5,95.5C 16.8333,97.1667 16.1667,98.8333 15.5,100.5C 15.5,96.1667 15.5,91.8333 15.5,87.5C 16.675,87.719 17.675,87.3857 18.5,86.5C 19.3742,84.2534 19.7076,81.9201 19.5,79.5C 21.4352,78.8505 23.4352,78.5172 25.5,78.5 Z"/></g>
<g><path style="opacity:1" fill="#212323" d="M 19.5,79.5 C 19.7076,81.9201 19.3742,84.2534 18.5,86.5C 17.675,87.3857 16.675,87.719 15.5,87.5C 15.5,91.8333 15.5,96.1667 15.5,100.5C 15.5,109.5 15.5,118.5 15.5,127.5C 15.6192,131.347 14.9525,135.014 13.5,138.5C 12.5,138.5 11.5,138.5 10.5,138.5C 8.98187,137.157 9.3152,138.824 11.5,143.5C 12.316,141.713 13.316,140.046 14.5,138.5C 16.0064,137.253 17.5064,137.253 19,138.5C 20.917,144.003 21.7504,149.669 21.5,155.5C 20.1266,155.343 18.7932,155.51 17.5,156C 18.3366,157.011 18.67,158.178 18.5,159.5C 22.5421,159.652 26.0421,158.318 29,155.5C 29.9454,155.905 30.6121,156.572 31,157.5C 31.4974,160.146 31.6641,162.813 31.5,165.5C 34.2108,165.185 36.5441,165.852 38.5,167.5C 38.2491,172.507 37.9157,177.507 37.5,182.5C 35.901,182.768 34.5676,182.434 33.5,181.5C 30.5968,179.896 27.2634,178.896 23.5,178.5C 22.8333,177.833 22.1667,177.167 21.5,176.5C 23.5,175.833 25.5,175.167 27.5,174.5C 25.0116,171.096 22.3449,167.762 19.5,164.5C 18.0859,161.787 16.7525,159.12 15.5,156.5C 14.5,156.5 13.5,156.5 12.5,156.5C 9.4377,146.305 6.77104,135.972 4.5,125.5C 3.50046,115.512 3.3338,105.512 4,95.5C 4.64494,94.354 5.47827,93.354 6.5,92.5C 6.16667,92.1667 5.83333,91.8333 5.5,91.5C 3.75666,93.0383 1.75666,94.0383 -0.5,94.5C -0.5,93.8333 -0.5,93.1667 -0.5,92.5C 6.16364,88.1712 12.8303,83.8378 19.5,79.5 Z"/></g>
<g><path style="opacity:1" fill="#c9c9c9" d="M 161.5,84.5 C 162.822,84.33 163.989,84.6634 165,85.5C 165.497,88.146 165.664,90.8127 165.5,93.5C 163.833,93.5 162.167,93.5 160.5,93.5C 160.508,90.4552 160.841,87.4552 161.5,84.5 Z"/></g>
<g><path style="opacity:1" fill="#6f511a" d="M 67.5,82.5 C 67.5,83.1667 67.8333,83.5 68.5,83.5C 66.3757,88.7419 65.0424,94.0752 64.5,99.5C 64.1667,99.5 63.8333,99.5 63.5,99.5C 63.5,96.8333 63.5,94.1667 63.5,91.5C 64.4423,88.3448 65.7757,85.3448 67.5,82.5 Z"/></g>
<g><path style="opacity:1" fill="#e6e6e6" d="M 98.5,98.5 C 100.977,98.0508 102.977,98.7175 104.5,100.5C 102.977,102.283 100.977,102.949 98.5,102.5C 98.5,101.167 98.5,99.8333 98.5,98.5 Z"/></g>
<g><path style="opacity:1" fill="#9c5706" d="M 55.5,87.5 C 55.0318,93.8487 54.3651,100.182 53.5,106.5C 53.5195,107.726 53.8529,108.726 54.5,109.5C 54.4431,110.609 54.1098,111.609 53.5,112.5C 52.8826,112.389 52.3826,112.056 52,111.5C 51.5006,106.177 51.334,100.844 51.5,95.5C 53.2003,93.1116 54.5336,90.4449 55.5,87.5 Z"/></g>
<g><path style="opacity:1" fill="#6b6458" d="M 71.5,81.5 C 73.182,95.8705 80.5154,106.204 93.5,112.5C 84.4745,109.655 77.6412,103.989 73,95.5C 71.7156,91.2922 70.2156,87.2922 68.5,83.5C 69.2905,82.5987 70.2905,81.9321 71.5,81.5 Z"/></g>
<g><path style="opacity:1" fill="#221d18" d="M 133.5,91.5 C 134.217,95.9889 134.217,100.656 133.5,105.5C 132.209,105.263 131.209,105.596 130.5,106.5C 129.609,107.11 128.609,107.443 127.5,107.5C 126.833,107.5 126.5,107.167 126.5,106.5C 130.545,102.395 132.878,97.395 133.5,91.5 Z"/></g>
<g><path style="opacity:1" fill="#6e5c53" d="M 191.5,97.5 C 191.649,98.552 191.483,99.552 191,100.5C 188.558,103.117 186.058,105.45 183.5,107.5C 185.817,103.854 188.484,100.52 191.5,97.5 Z"/></g>
<g><path style="opacity:1" fill="#efedeb" d="M 152.5,82.5 C 151.955,91.8189 155.622,98.9855 163.5,104C 178.966,107.592 187.3,101.425 188.5,85.5C 190.216,85.6287 191.883,85.962 193.5,86.5C 193.309,90.2621 192.642,93.9288 191.5,97.5C 188.484,100.52 185.817,103.854 183.5,107.5C 179.941,109.864 176.108,111.864 172,113.5C 170.2,112.68 168.366,112.014 166.5,111.5C 161.856,107.995 156.689,105.328 151,103.5C 150.432,98.5597 149.265,93.893 147.5,89.5C 146.53,85.0685 148.197,82.7352 152.5,82.5 Z"/></g>
<g><path style="opacity:1" fill="#c8c8c8" d="M 169.5,97.5 C 172.5,97.1667 173.833,98.5 173.5,101.5C 170.5,101.833 169.167,100.5 169.5,97.5 Z"/></g>
<g><path style="opacity:1" fill="#6c574b" d="M 63.5,99.5 C 63.8333,99.5 64.1667,99.5 64.5,99.5C 64.6761,102.727 65.3428,105.727 66.5,108.5C 66.0679,109.71 65.4013,110.71 64.5,111.5C 63.5166,107.702 63.1832,103.702 63.5,99.5 Z"/></g>
<g><path style="opacity:1" fill="#f4900d" d="M 63.5,91.5 C 63.5,94.1667 63.5,96.8333 63.5,99.5C 63.1832,103.702 63.5166,107.702 64.5,111.5C 64.5,112.167 64.5,112.833 64.5,113.5C 66.526,122.249 69.526,130.583 73.5,138.5C 71.6208,137.659 69.6208,137.325 67.5,137.5C 67.5,139.5 67.5,141.5 67.5,143.5C 60.8333,143.5 54.1667,143.5 47.5,143.5C 47.3583,135.008 48.025,126.841 49.5,119C 48.6919,118.692 48.0253,118.192 47.5,117.5C 48.6953,116.033 48.6953,114.533 47.5,113C 47.6667,112.5 47.8333,112 48,111.5C 48.4512,113.929 49.2845,114.096 50.5,112C 49.3567,105.582 49.19,99.0816 50,92.5C 51.0386,93.2438 51.5386,94.2438 51.5,95.5C 51.334,100.844 51.5006,106.177 52,111.5C 52.3826,112.056 52.8826,112.389 53.5,112.5C 54.4511,113.919 54.7845,115.585 54.5,117.5C 54.504,122.55 56.1707,126.883 59.5,130.5C 59.8333,130 60.1667,129.5 60.5,129C 58.9562,127.034 57.7895,124.868 57,122.5C 56.8261,117.316 56.3261,112.316 55.5,107.5C 55.5,103.5 55.5,99.5 55.5,95.5C 56.8333,95.5 58.1667,95.5 59.5,95.5C 59.1796,92.1016 59.513,88.7683 60.5,85.5C 61.8418,88.3206 62.5084,88.1539 62.5,85C 61.3139,79.8355 61.4806,75.0022 63,70.5C 65.0184,72.5221 65.8517,75.0221 65.5,78C 64.4261,82.4558 63.7594,86.9558 63.5,91.5 Z"/></g>
<g><path style="opacity:1" fill="#b15400" d="M 55.5,107.5 C 56.3261,112.316 56.8261,117.316 57,122.5C 57.7895,124.868 58.9562,127.034 60.5,129C 60.1667,129.5 59.8333,130 59.5,130.5C 56.1707,126.883 54.504,122.55 54.5,117.5C 55.8333,114.833 55.8333,112.167 54.5,109.5C 54.8333,108.833 55.1667,108.167 55.5,107.5 Z"/></g>
<g><path style="opacity:1" fill="#7b4a1f" d="M 89.5,116.5 C 89.6107,117.117 89.944,117.617 90.5,118C 87.8333,118.333 85.1667,118.667 82.5,119C 80.8588,120.129 79.8588,121.629 79.5,123.5C 76.7533,125.243 74.7533,127.576 73.5,130.5C 73.1667,130.5 72.8333,130.5 72.5,130.5C 72.8858,127.263 74.3858,124.597 77,122.5C 77.6667,118.5 77.6667,114.5 77,110.5C 73.3399,105.323 70.1732,105.657 67.5,111.5C 66.7777,112.551 65.7777,113.218 64.5,113.5C 64.5,112.833 64.5,112.167 64.5,111.5C 65.4013,110.71 66.0679,109.71 66.5,108.5C 69.3363,105.823 70.8363,102.49 71,98.5C 74.3954,104.896 78.8954,110.396 84.5,115C 86.0249,116.009 87.6916,116.509 89.5,116.5 Z"/></g>
<g><path style="opacity:1" fill="#6f6752" d="M 147.5,89.5 C 149.265,93.893 150.432,98.5597 151,103.5C 156.689,105.328 161.856,107.995 166.5,111.5C 161.865,109.854 157.198,108.187 152.5,106.5C 151.836,111.201 152.169,115.867 153.5,120.5C 152.833,120.5 152.167,120.5 151.5,120.5C 151.038,110.731 149.371,101.064 146.5,91.5C 147.338,91.1583 147.672,90.4916 147.5,89.5 Z"/></g>
<g><path style="opacity:1" fill="#5b0900" d="M 54.5,109.5 C 55.8333,112.167 55.8333,114.833 54.5,117.5C 54.7845,115.585 54.4511,113.919 53.5,112.5C 54.1098,111.609 54.4431,110.609 54.5,109.5 Z"/></g>
<g><path style="opacity:1" fill="#6f655a" d="M 183.5,107.5 C 181.24,111.161 177.907,113.661 173.5,115C 174.71,116.039 175.71,117.206 176.5,118.5C 176.167,118.5 175.833,118.5 175.5,118.5C 172.28,116.397 169.28,114.064 166.5,111.5C 168.366,112.014 170.2,112.68 172,113.5C 176.108,111.864 179.941,109.864 183.5,107.5 Z"/></g>
<g><path style="opacity:1" fill="#5d411e" d="M 130.5,106.5 C 131.209,105.596 132.209,105.263 133.5,105.5C 132.902,110.813 132.569,116.146 132.5,121.5C 130.952,121.179 130.285,120.179 130.5,118.5C 124.408,119.711 119.408,122.711 115.5,127.5C 114.833,127.5 114.167,127.5 113.5,127.5C 115.89,123.608 119.223,120.608 123.5,118.5C 126.012,117.205 128.679,116.539 131.5,116.5C 131.813,112.958 131.479,109.625 130.5,106.5 Z"/></g>
<g><path style="opacity:1" fill="#8c5420" d="M 184.5,115.5 C 185.947,116.134 186.613,117.301 186.5,119C 186.079,121.185 185.579,123.351 185,125.5C 183.649,124.039 182.149,122.706 180.5,121.5C 179.614,120.675 179.281,119.675 179.5,118.5C 181.22,117.692 182.887,116.692 184.5,115.5 Z"/></g>
<g><path style="opacity:1" fill="#5f4328" d="M 190.5,110.5 C 188.748,119.27 186.248,127.937 183,136.5C 182.051,138.093 180.885,139.426 179.5,140.5C 180.97,137.107 182.303,133.607 183.5,130C 181.708,125.592 179.042,121.758 175.5,118.5C 175.833,118.5 176.167,118.5 176.5,118.5C 177.5,118.5 178.5,118.5 179.5,118.5C 179.281,119.675 179.614,120.675 180.5,121.5C 182.149,122.706 183.649,124.039 185,125.5C 185.579,123.351 186.079,121.185 186.5,119C 186.613,117.301 185.947,116.134 184.5,115.5C 186.284,113.633 188.284,111.966 190.5,110.5 Z"/></g>
<g><path style="opacity:1" fill="#995710" d="M 72.5,130.5 C 70.6132,126.825 68.9465,122.992 67.5,119C 68.4556,117.635 69.1223,116.135 69.5,114.5C 69.3601,112.97 68.6935,111.97 67.5,111.5C 70.1732,105.657 73.3399,105.323 77,110.5C 77.6667,114.5 77.6667,118.5 77,122.5C 74.3858,124.597 72.8858,127.263 72.5,130.5 Z"/></g>
<g><path style="opacity:1" fill="#c9b892" d="M 79.5,123.5 C 79.8588,121.629 80.8588,120.129 82.5,119C 85.1667,118.667 87.8333,118.333 90.5,118C 89.944,117.617 89.6107,117.117 89.5,116.5C 90.9311,116.881 91.7645,117.881 92,119.5C 93.0113,118.663 94.1779,118.33 95.5,118.5C 95.5,117.5 95.5,116.5 95.5,115.5C 100.833,115.5 106.167,115.5 111.5,115.5C 111.5,118.167 111.5,120.833 111.5,123.5C 106.13,123.392 100.797,123.725 95.5,124.5C 95.5,125.5 95.5,126.5 95.5,127.5C 89.4645,128.285 84.1312,126.951 79.5,123.5 Z"/></g>
<g><path style="opacity:1" fill="#833e0b" d="M 67.5,111.5 C 68.6935,111.97 69.3601,112.97 69.5,114.5C 69.1223,116.135 68.4556,117.635 67.5,119C 68.9465,122.992 70.6132,126.825 72.5,130.5C 72.8333,130.5 73.1667,130.5 73.5,130.5C 73.5838,133.327 74.2504,135.994 75.5,138.5C 74.8333,138.5 74.1667,138.5 73.5,138.5C 69.526,130.583 66.526,122.249 64.5,113.5C 65.7777,113.218 66.7777,112.551 67.5,111.5 Z"/></g>
<g><path style="opacity:1" fill="#282727" d="M 33.5,181.5 C 27.7171,183.305 21.7171,183.972 15.5,183.5C 15.5,184.833 15.5,186.167 15.5,187.5C 17.5,187.5 19.5,187.5 21.5,187.5C 19.7701,189.121 17.7701,190.455 15.5,191.5C 14.8333,191.5 14.1667,191.5 13.5,191.5C 12.0222,191.238 10.6888,191.571 9.5,192.5C 6.42504,195.915 3.0917,198.915 -0.5,201.5C -0.5,165.833 -0.5,130.167 -0.5,94.5C 1.75666,94.0383 3.75666,93.0383 5.5,91.5C 5.83333,91.8333 6.16667,92.1667 6.5,92.5C 5.47827,93.354 4.64494,94.354 4,95.5C 3.3338,105.512 3.50046,115.512 4.5,125.5C 6.77104,135.972 9.4377,146.305 12.5,156.5C 13.5,156.5 14.5,156.5 15.5,156.5C 16.7525,159.12 18.0859,161.787 19.5,164.5C 22.3449,167.762 25.0116,171.096 27.5,174.5C 25.5,175.167 23.5,175.833 21.5,176.5C 22.1667,177.167 22.8333,177.833 23.5,178.5C 27.2634,178.896 30.5968,179.896 33.5,181.5 Z"/></g>
<g><path style="opacity:1" fill="#d0892d" d="M 16.5,127.5 C 18.1667,127.5 19.8333,127.5 21.5,127.5C 22.5946,132.43 23.2612,137.43 23.5,142.5C 20.4248,137.913 18.0915,132.913 16.5,127.5 Z"/></g>
<g><path style="opacity:1" fill="#926d26" d="M 75.5,138.5 C 77.543,139.579 78.8763,141.246 79.5,143.5C 78.1667,143.5 76.8333,143.5 75.5,143.5C 75.5,141.833 75.5,140.167 75.5,138.5 Z"/></g>
<g><path style="opacity:1" fill="#c8ba9d" d="M 68.5,83.5 C 70.2156,87.2922 71.7156,91.2922 73,95.5C 77.6412,103.989 84.4745,109.655 93.5,112.5C 93.6107,113.117 93.944,113.617 94.5,114C 102.193,115.099 109.526,114.266 116.5,111.5C 120.733,111.543 124.4,110.21 127.5,107.5C 128.609,107.443 129.609,107.11 130.5,106.5C 131.479,109.625 131.813,112.958 131.5,116.5C 128.679,116.539 126.012,117.205 123.5,118.5C 119.223,120.608 115.89,123.608 113.5,127.5C 112.307,127.97 111.64,128.97 111.5,130.5C 112.458,135.42 115.125,139.086 119.5,141.5C 119.821,143.048 120.821,143.715 122.5,143.5C 125.294,144.921 128.294,145.921 131.5,146.5C 130.894,149.916 131.894,152.582 134.5,154.5C 135.478,154.023 136.311,153.357 137,152.5C 137.002,149.949 137.836,147.949 139.5,146.5C 144.607,146.956 149.274,145.956 153.5,143.5C 155.401,143.567 157.234,143.233 159,142.5C 161.668,140.66 164.168,138.66 166.5,136.5C 168.529,133.114 170.196,129.447 171.5,125.5C 168.017,122.16 164.183,119.16 160,116.5C 159.506,114.866 159.34,113.199 159.5,111.5C 158.5,111.5 157.5,111.5 156.5,111.5C 156.81,114.713 156.477,117.713 155.5,120.5C 154.833,120.5 154.167,120.5 153.5,120.5C 152.169,115.867 151.836,111.201 152.5,106.5C 157.198,108.187 161.865,109.854 166.5,111.5C 169.28,114.064 172.28,116.397 175.5,118.5C 179.042,121.758 181.708,125.592 183.5,130C 182.303,133.607 180.97,137.107 179.5,140.5C 179.5,142.5 178.5,143.5 176.5,143.5C 170.495,149.164 163.829,153.831 156.5,157.5C 151.341,159.239 146.007,160.239 140.5,160.5C 124.582,162.475 111.249,157.641 100.5,146C 99.6683,145.312 99.0016,145.479 98.5,146.5C 110.379,158.903 124.712,163.903 141.5,161.5C 143.199,161.34 144.866,161.506 146.5,162C 143.92,163.144 141.253,163.978 138.5,164.5C 130.505,164.065 122.505,163.731 114.5,163.5C 106.905,161.414 99.5719,158.748 92.5,155.5C 91.4154,153.413 89.7488,152.08 87.5,151.5C 86.4154,149.413 84.7488,148.08 82.5,147.5C 81.391,147.443 80.391,147.11 79.5,146.5C 79.5,145.5 79.5,144.5 79.5,143.5C 78.8763,141.246 77.543,139.579 75.5,138.5C 74.2504,135.994 73.5838,133.327 73.5,130.5C 74.7533,127.576 76.7533,125.243 79.5,123.5C 84.1312,126.951 89.4645,128.285 95.5,127.5C 95.5,126.5 95.5,125.5 95.5,124.5C 100.797,123.725 106.13,123.392 111.5,123.5C 111.5,120.833 111.5,118.167 111.5,115.5C 106.167,115.5 100.833,115.5 95.5,115.5C 95.5,116.5 95.5,117.5 95.5,118.5C 94.1779,118.33 93.0113,118.663 92,119.5C 91.7645,117.881 90.9311,116.881 89.5,116.5C 87.6916,116.509 86.0249,116.009 84.5,115C 78.8954,110.396 74.3954,104.896 71,98.5C 70.8363,102.49 69.3363,105.823 66.5,108.5C 65.3428,105.727 64.6761,102.727 64.5,99.5C 65.0424,94.0752 66.3757,88.7419 68.5,83.5 Z"/></g>
<g><path style="opacity:1" fill="#61491c" d="M 151.5,135.5 C 148.663,137.402 145.329,138.069 141.5,137.5C 141.187,140.247 141.52,142.914 142.5,145.5C 144.523,143.827 146.856,143.16 149.5,143.5C 150.833,143.5 152.167,143.5 153.5,143.5C 149.274,145.956 144.607,146.956 139.5,146.5C 139.5,144.833 139.5,143.167 139.5,141.5C 139.5,139.833 139.5,138.167 139.5,136.5C 143.131,135.893 147.131,135.56 151.5,135.5 Z"/></g>
<g><path style="opacity:1" fill="#a15205" d="M 151.5,135.5 C 151.833,135.5 152.167,135.5 152.5,135.5C 154.833,135.5 157.167,135.5 159.5,135.5C 159.785,137.288 159.452,138.955 158.5,140.5C 155.039,140.768 152.039,141.768 149.5,143.5C 146.856,143.16 144.523,143.827 142.5,145.5C 141.52,142.914 141.187,140.247 141.5,137.5C 145.329,138.069 148.663,137.402 151.5,135.5 Z"/></g>
<g><path style="opacity:1" fill="#abd3cf" d="M 132.5,135.5 C 134.806,135.993 137.139,136.326 139.5,136.5C 139.5,138.167 139.5,139.833 139.5,141.5C 137.827,142.343 136.66,143.676 136,145.5C 135.667,147.833 135.333,150.167 135,152.5C 133.681,150.75 133.181,148.75 133.5,146.5C 132.756,142.881 132.423,139.215 132.5,135.5 Z"/></g>
<g><path style="opacity:1" fill="#88541f" d="M 113.5,127.5 C 114.167,127.5 114.833,127.5 115.5,127.5C 115.338,129.527 115.505,131.527 116,133.5C 116.333,132.167 116.667,130.833 117,129.5C 117.332,133.695 118.165,137.695 119.5,141.5C 115.125,139.086 112.458,135.42 111.5,130.5C 111.64,128.97 112.307,127.97 113.5,127.5 Z"/></g>
<g><path style="opacity:1" fill="#80531b" d="M 163.5,127.5 C 164.497,127.47 165.164,127.97 165.5,129C 166.322,131.434 166.656,133.934 166.5,136.5C 164.168,138.66 161.668,140.66 159,142.5C 157.234,143.233 155.401,143.567 153.5,143.5C 152.167,143.5 150.833,143.5 149.5,143.5C 152.039,141.768 155.039,140.768 158.5,140.5C 159.452,138.955 159.785,137.288 159.5,135.5C 157.167,135.5 154.833,135.5 152.5,135.5C 152.461,134.417 152.127,133.417 151.5,132.5C 149.668,131.943 148.335,130.943 147.5,129.5C 151.629,129.874 155.629,130.874 159.5,132.5C 160,133.5 160.5,134.5 161,135.5C 162.936,133.192 163.769,130.525 163.5,127.5 Z"/></g>
<g><path style="opacity:1" fill="#a05406" d="M 163.5,127.5 C 163.769,130.525 162.936,133.192 161,135.5C 160.5,134.5 160,133.5 159.5,132.5C 155.629,130.874 151.629,129.874 147.5,129.5C 146.167,129.5 144.833,129.5 143.5,129.5C 145.56,127.846 148.06,126.846 151,126.5C 155.066,127.464 159.233,127.797 163.5,127.5 Z"/></g>
<g><path style="opacity:1" fill="#150608" d="M 143.5,129.5 C 144.833,129.5 146.167,129.5 147.5,129.5C 148.335,130.943 149.668,131.943 151.5,132.5C 152.127,133.417 152.461,134.417 152.5,135.5C 152.167,135.5 151.833,135.5 151.5,135.5C 147.131,135.56 143.131,135.893 139.5,136.5C 137.139,136.326 134.806,135.993 132.5,135.5C 131.5,136.833 130.5,136.833 129.5,135.5C 128.833,135.5 128.167,135.5 127.5,135.5C 127.5,134.167 127.5,132.833 127.5,131.5C 132.743,130.19 138.077,129.524 143.5,129.5 Z"/></g>
<g><path style="opacity:1" fill="#7e7053" d="M 106.5,126.5 C 109.613,126.065 110.279,127.065 108.5,129.5C 109.04,132.662 110.04,135.662 111.5,138.5C 111.167,138.833 110.833,139.167 110.5,139.5C 107.56,135.679 106.227,131.346 106.5,126.5 Z"/></g>
<g><path style="opacity:1" fill="#9c5304" d="M 127.5,135.5 C 128.167,135.5 128.833,135.5 129.5,135.5C 129.5,138.167 129.5,140.833 129.5,143.5C 127.167,143.5 124.833,143.5 122.5,143.5C 120.821,143.715 119.821,143.048 119.5,141.5C 118.165,137.695 117.332,133.695 117,129.5C 116.667,130.833 116.333,132.167 116,133.5C 115.505,131.527 115.338,129.527 115.5,127.5C 117.527,127.662 119.527,127.495 121.5,127C 120.833,126.667 120.167,126.333 119.5,126C 122.356,125.12 125.189,124.287 128,123.5C 130.3,123.678 132.134,124.678 133.5,126.5C 130.232,127.487 126.898,127.82 123.5,127.5C 122.958,131.259 124.292,133.926 127.5,135.5 Z"/></g>
<g><path style="opacity:1" fill="#875418" d="M 132.5,121.5 C 134.915,122.814 137.748,123.481 141,123.5C 143.833,123.333 146.667,123.167 149.5,123C 147.744,122.798 146.078,122.298 144.5,121.5C 146.5,118.833 148.5,118.833 150.5,121.5C 151.107,121.376 151.44,121.043 151.5,120.5C 152.167,120.5 152.833,120.5 153.5,120.5C 154.167,120.5 154.833,120.5 155.5,120.5C 158.167,122.833 160.833,125.167 163.5,127.5C 159.233,127.797 155.066,127.464 151,126.5C 148.06,126.846 145.56,127.846 143.5,129.5C 138.077,129.524 132.743,130.19 127.5,131.5C 127.5,132.833 127.5,134.167 127.5,135.5C 124.292,133.926 122.958,131.259 123.5,127.5C 126.898,127.82 130.232,127.487 133.5,126.5C 132.134,124.678 130.3,123.678 128,123.5C 125.189,124.287 122.356,125.12 119.5,126C 120.167,126.333 120.833,126.667 121.5,127C 119.527,127.495 117.527,127.662 115.5,127.5C 119.408,122.711 124.408,119.711 130.5,118.5C 130.285,120.179 130.952,121.179 132.5,121.5 Z"/></g>
<g><path style="opacity:1" fill="#c6ba8f" d="M 166.5,136.5 C 166.656,133.934 166.322,131.434 165.5,129C 165.164,127.97 164.497,127.47 163.5,127.5C 160.833,125.167 158.167,122.833 155.5,120.5C 156.477,117.713 156.81,114.713 156.5,111.5C 157.5,111.5 158.5,111.5 159.5,111.5C 159.34,113.199 159.506,114.866 160,116.5C 164.183,119.16 168.017,122.16 171.5,125.5C 170.196,129.447 168.529,133.114 166.5,136.5 Z"/></g>
<g><path style="opacity:1" fill="#383725" d="M 134.5,118.5 C 138.31,119.754 138.31,120.754 134.5,121.5C 134.5,120.5 134.5,119.5 134.5,118.5 Z"/></g>
<g><path style="opacity:1" fill="#76665b" d="M 116.5,111.5 C 109.526,114.266 102.193,115.099 94.5,114C 93.944,113.617 93.6107,113.117 93.5,112.5C 101.196,112.646 108.862,112.313 116.5,111.5 Z"/></g>
<g><path style="opacity:1" fill="#626262" d="M 126.5,106.5 C 126.5,107.167 126.833,107.5 127.5,107.5C 124.4,110.21 120.733,111.543 116.5,111.5C 119.768,109.866 123.101,108.199 126.5,106.5 Z"/></g>
<g><path style="opacity:1" fill="#5b4726" d="M 129.5,135.5 C 130.5,136.833 131.5,136.833 132.5,135.5C 132.423,139.215 132.756,142.881 133.5,146.5C 132.833,146.5 132.167,146.5 131.5,146.5C 128.294,145.921 125.294,144.921 122.5,143.5C 124.833,143.5 127.167,143.5 129.5,143.5C 129.5,140.833 129.5,138.167 129.5,135.5 Z"/></g>
<g><path style="opacity:1" fill="#82480b" d="M 82.5,147.5 C 84.7488,148.08 86.4154,149.413 87.5,151.5C 85.2054,150.864 83.5387,149.531 82.5,147.5 Z"/></g>
<g><path style="opacity:1" fill="#c68d36" d="M 23.5,143.5 C 24.8333,143.5 26.1667,143.5 27.5,143.5C 28.8333,146.833 30.1667,150.167 31.5,153.5C 27.9032,151.007 25.2365,147.674 23.5,143.5 Z"/></g>
<g><path style="opacity:1" fill="#6a6c59" d="M 139.5,141.5 C 139.5,143.167 139.5,144.833 139.5,146.5C 137.836,147.949 137.002,149.949 137,152.5C 136.311,153.357 135.478,154.023 134.5,154.5C 131.894,152.582 130.894,149.916 131.5,146.5C 132.167,146.5 132.833,146.5 133.5,146.5C 133.181,148.75 133.681,150.75 135,152.5C 135.333,150.167 135.667,147.833 136,145.5C 136.66,143.676 137.827,142.343 139.5,141.5 Z"/></g>
<g><path style="opacity:1" fill="#665941" d="M 140.5,160.5 C 140.5,161.167 140.833,161.5 141.5,161.5C 124.712,163.903 110.379,158.903 98.5,146.5C 99.0016,145.479 99.6683,145.312 100.5,146C 111.249,157.641 124.582,162.475 140.5,160.5 Z"/></g>
<g><path style="opacity:1" fill="#753c06" d="M 87.5,151.5 C 89.7488,152.08 91.4154,153.413 92.5,155.5C 90.2054,154.864 88.5387,153.531 87.5,151.5 Z"/></g>
<g><path style="opacity:1" fill="#686254" d="M 176.5,143.5 C 175.118,146.394 173.118,148.894 170.5,151C 166.404,153.97 162.071,156.47 157.5,158.5C 157.5,157.833 157.167,157.5 156.5,157.5C 163.829,153.831 170.495,149.164 176.5,143.5 Z"/></g>
<g><path style="opacity:1" fill="#2a271e" d="M 15.5,127.5 C 15.8333,127.5 16.1667,127.5 16.5,127.5C 18.0915,132.913 20.4248,137.913 23.5,142.5C 23.5,142.833 23.5,143.167 23.5,143.5C 25.2365,147.674 27.9032,151.007 31.5,153.5C 32.2026,155.716 33.5359,157.549 35.5,159C 39.4862,159.499 43.4862,159.666 47.5,159.5C 50.1667,160.167 52.8333,160.833 55.5,161.5C 50.1667,161.5 44.8333,161.5 39.5,161.5C 39.6747,163.621 39.3414,165.621 38.5,167.5C 36.5441,165.852 34.2108,165.185 31.5,165.5C 31.6641,162.813 31.4974,160.146 31,157.5C 30.6121,156.572 29.9454,155.905 29,155.5C 26.0421,158.318 22.5421,159.652 18.5,159.5C 18.67,158.178 18.3366,157.011 17.5,156C 18.7932,155.51 20.1266,155.343 21.5,155.5C 21.7504,149.669 20.917,144.003 19,138.5C 17.5064,137.253 16.0064,137.253 14.5,138.5C 13.316,140.046 12.316,141.713 11.5,143.5C 9.3152,138.824 8.98187,137.157 10.5,138.5C 11.5,138.5 12.5,138.5 13.5,138.5C 14.9525,135.014 15.6192,131.347 15.5,127.5 Z"/></g>
<g><path style="opacity:1" fill="#ee8f1c" d="M 79.5,146.5 C 80.391,147.11 81.391,147.443 82.5,147.5C 83.5387,149.531 85.2054,150.864 87.5,151.5C 88.5387,153.531 90.2054,154.864 92.5,155.5C 93.5,156.833 94.5,158.167 95.5,159.5C 92.7118,159.923 90.7118,158.923 89.5,156.5C 88.0095,155.756 86.5095,155.09 85,154.5C 84.6667,154.833 84.3333,155.167 84,155.5C 83.9355,158.763 83.1022,161.763 81.5,164.5C 84.2881,166.412 85.6214,169.079 85.5,172.5C 85.4439,174.64 84.7773,176.306 83.5,177.5C 84.0356,174.302 83.369,171.635 81.5,169.5C 81.5,168.167 80.8333,167.5 79.5,167.5C 79.8432,165.517 79.1765,164.183 77.5,163.5C 75.8333,162.833 74.1667,162.167 72.5,161.5C 74.8211,161.771 76.8211,161.104 78.5,159.5C 79.8126,155.073 80.146,150.74 79.5,146.5 Z"/></g>
<g><path style="opacity:1" fill="#e68f2e" d="M 47.5,159.5 C 54.175,159.334 60.8417,159.5 67.5,160C 69.0581,160.21 70.3915,160.71 71.5,161.5C 66.1667,161.5 60.8333,161.5 55.5,161.5C 52.8333,160.833 50.1667,160.167 47.5,159.5 Z"/></g>
<g><path style="opacity:1" fill="#433d37" d="M 156.5,157.5 C 157.167,157.5 157.5,157.833 157.5,158.5C 152.193,161.664 146.526,164.164 140.5,166C 138.549,167.734 137.549,169.901 137.5,172.5C 136.833,171.5 136.167,170.5 135.5,169.5C 135.5,168.833 135.5,168.167 135.5,167.5C 136.338,167.158 136.672,166.492 136.5,165.5C 137.492,165.672 138.158,165.338 138.5,164.5C 141.253,163.978 143.92,163.144 146.5,162C 144.866,161.506 143.199,161.34 141.5,161.5C 140.833,161.5 140.5,161.167 140.5,160.5C 146.007,160.239 151.341,159.239 156.5,157.5 Z"/></g>
<g><path style="opacity:1" fill="#71410e" d="M 55.5,161.5 C 60.8333,161.5 66.1667,161.5 71.5,161.5C 71.8333,161.5 72.1667,161.5 72.5,161.5C 74.1667,162.167 75.8333,162.833 77.5,163.5C 76.1667,163.5 74.8333,163.5 73.5,163.5C 67.2737,163.612 61.2737,162.946 55.5,161.5 Z"/></g>
<g><path style="opacity:1" fill="#7d480f" d="M 92.5,155.5 C 99.5719,158.748 106.905,161.414 114.5,163.5C 115.952,164.302 117.618,164.802 119.5,165C 125.157,165.499 130.824,165.666 136.5,165.5C 136.672,166.492 136.338,167.158 135.5,167.5C 130.36,166.512 125.026,166.179 119.5,166.5C 111.199,164.952 103.199,162.619 95.5,159.5C 94.5,158.167 93.5,156.833 92.5,155.5 Z"/></g>
<g><path style="opacity:1" fill="#c5a878" d="M 114.5,163.5 C 122.505,163.731 130.505,164.065 138.5,164.5C 138.158,165.338 137.492,165.672 136.5,165.5C 130.824,165.666 125.157,165.499 119.5,165C 117.618,164.802 115.952,164.302 114.5,163.5 Z"/></g>
<g><path style="opacity:1" fill="#ce9339" d="M 119.5,166.5 C 125.026,166.179 130.36,166.512 135.5,167.5C 130.773,168.245 126.106,169.245 121.5,170.5C 120.194,169.533 119.527,168.199 119.5,166.5 Z"/></g>
<g><path style="opacity:1" fill="#984601" d="M 135.5,167.5 C 135.5,168.167 135.5,168.833 135.5,169.5C 134.508,169.328 133.842,169.662 133.5,170.5C 123.064,172.451 112.564,174.118 102,175.5C 101.5,175.167 101,174.833 100.5,174.5C 107.426,172.684 114.426,171.351 121.5,170.5C 126.106,169.245 130.773,168.245 135.5,167.5 Z"/></g>
<g><path style="opacity:1" fill="#623b17" d="M 79.5,167.5 C 80.8333,167.5 81.5,168.167 81.5,169.5C 81.1667,173.5 80.8333,177.5 80.5,181.5C 80.1667,181.5 79.8333,181.5 79.5,181.5C 79.5,176.833 79.5,172.167 79.5,167.5 Z"/></g>
<g><path style="opacity:1" fill="#90a9ad" d="M 55.5,161.5 C 61.2737,162.946 67.2737,163.612 73.5,163.5C 74.2625,164.268 75.2625,164.768 76.5,165C 77.0585,165.725 77.3918,166.558 77.5,167.5C 75.2933,175.683 74.1267,184.017 74,192.5C 73.3261,193.578 72.3261,194.245 71,194.5C 69.175,194.057 67.3417,193.723 65.5,193.5C 65.6747,195.621 65.3414,197.621 64.5,199.5C 63.5489,200.919 63.2155,202.585 63.5,204.5C 62.2521,205.334 61.5854,206.667 61.5,208.5C 61.6718,210.548 62.0051,212.548 62.5,214.5C 57.8333,214.5 53.1667,214.5 48.5,214.5C 50.5798,212.427 52.2464,210.093 53.5,207.5C 54.7498,207.423 55.5831,206.756 56,205.5C 59.3022,199.885 57.8022,196.552 51.5,195.5C 50.1667,194.833 48.8333,194.167 47.5,193.5C 47.5,192.833 47.5,192.167 47.5,191.5C 45.0948,190.232 42.4282,189.565 39.5,189.5C 38.8333,188.833 38.1667,188.167 37.5,187.5C 37.5,185.833 37.5,184.167 37.5,182.5C 37.9157,177.507 38.2491,172.507 38.5,167.5C 39.3414,165.621 39.6747,163.621 39.5,161.5C 44.8333,161.5 50.1667,161.5 55.5,161.5 Z"/></g>
<g><path style="opacity:1" fill="#68726e" d="M 45.5,164.5 C 48.5497,163.923 50.5497,165.09 51.5,168C 49.2668,174.817 46.2668,175.151 42.5,169C 43.3146,167.357 44.3146,165.857 45.5,164.5 Z"/></g>
<g><path style="opacity:1" fill="#ba7f30" d="M 81.5,169.5 C 83.369,171.635 84.0356,174.302 83.5,177.5C 83.1568,179.483 83.8235,180.817 85.5,181.5C 87.5,182.167 89.5,182.833 91.5,183.5C 87.6279,183.758 83.9612,183.091 80.5,181.5C 80.8333,177.5 81.1667,173.5 81.5,169.5 Z"/></g>
<g><path style="opacity:1" fill="#f88d0e" d="M 95.5,159.5 C 103.199,162.619 111.199,164.952 119.5,166.5C 119.527,168.199 120.194,169.533 121.5,170.5C 114.426,171.351 107.426,172.684 100.5,174.5C 101,174.833 101.5,175.167 102,175.5C 112.564,174.118 123.064,172.451 133.5,170.5C 133.945,173.28 133.945,175.947 133.5,178.5C 131.025,178.964 129.025,179.964 127.5,181.5C 113.5,181.5 99.5,181.5 85.5,181.5C 83.8235,180.817 83.1568,179.483 83.5,177.5C 84.7773,176.306 85.4439,174.64 85.5,172.5C 85.6214,169.079 84.2881,166.412 81.5,164.5C 83.1022,161.763 83.9355,158.763 84,155.5C 84.3333,155.167 84.6667,154.833 85,154.5C 86.5095,155.09 88.0095,155.756 89.5,156.5C 90.7118,158.923 92.7118,159.923 95.5,159.5 Z"/></g>
<g><path style="opacity:1" fill="#3d4947" d="M 73.5,163.5 C 74.8333,163.5 76.1667,163.5 77.5,163.5C 79.1765,164.183 79.8432,165.517 79.5,167.5C 77.2915,176.576 75.9582,185.91 75.5,195.5C 74.1667,195.5 72.8333,195.5 71.5,195.5C 70.1266,195.343 68.7932,195.51 67.5,196C 67.9574,196.414 68.2907,196.914 68.5,197.5C 66.8035,198.364 65.6368,199.697 65,201.5C 64.5357,200.906 64.369,200.239 64.5,199.5C 65.3414,197.621 65.6747,195.621 65.5,193.5C 67.3417,193.723 69.175,194.057 71,194.5C 72.3261,194.245 73.3261,193.578 74,192.5C 74.1267,184.017 75.2933,175.683 77.5,167.5C 77.3918,166.558 77.0585,165.725 76.5,165C 75.2625,164.768 74.2625,164.268 73.5,163.5 Z"/></g>
<g><path style="opacity:1" fill="#ca8f3e" d="M 135.5,169.5 C 135.665,173.182 135.499,176.848 135,180.5C 132.699,181.867 130.199,182.534 127.5,182.5C 127.5,182.167 127.5,181.833 127.5,181.5C 129.025,179.964 131.025,178.964 133.5,178.5C 133.945,175.947 133.945,173.28 133.5,170.5C 133.842,169.662 134.508,169.328 135.5,169.5 Z"/></g>
<g><path style="opacity:1" fill="#a0a992" d="M 38.5,178.5 C 41.3915,179.403 44.3915,179.736 47.5,179.5C 47.5,180.833 47.5,182.167 47.5,183.5C 44.5,183.5 41.5,183.5 38.5,183.5C 38.5,181.833 38.5,180.167 38.5,178.5 Z"/></g>
<g><path style="opacity:1" fill="#2f2011" d="M 135.5,169.5 C 136.167,170.5 136.833,171.5 137.5,172.5C 135.869,176.013 136.536,179.013 139.5,181.5C 138.993,182.859 137.993,183.859 136.5,184.5C 133.572,185.484 130.572,185.817 127.5,185.5C 111.39,186.04 95.3899,185.374 79.5,183.5C 79.5,182.833 79.5,182.167 79.5,181.5C 79.8333,181.5 80.1667,181.5 80.5,181.5C 83.9612,183.091 87.6279,183.758 91.5,183.5C 103.678,183.828 115.678,183.495 127.5,182.5C 130.199,182.534 132.699,181.867 135,180.5C 135.499,176.848 135.665,173.182 135.5,169.5 Z"/></g>
<g><path style="opacity:1" fill="#df8829" d="M 85.5,181.5 C 99.5,181.5 113.5,181.5 127.5,181.5C 127.5,181.833 127.5,182.167 127.5,182.5C 115.678,183.495 103.678,183.828 91.5,183.5C 89.5,182.833 87.5,182.167 85.5,181.5 Z"/></g>
<g><path style="opacity:1" fill="#1b2c39" d="M 33.5,181.5 C 34.5676,182.434 35.901,182.768 37.5,182.5C 37.5,184.167 37.5,185.833 37.5,187.5C 32.1667,187.5 26.8333,187.5 21.5,187.5C 19.5,187.5 17.5,187.5 15.5,187.5C 15.5,186.167 15.5,184.833 15.5,183.5C 21.7171,183.972 27.7171,183.305 33.5,181.5 Z"/></g>
<g><path style="opacity:1" fill="#6c848d" d="M 79.5,167.5 C 79.5,172.167 79.5,176.833 79.5,181.5C 79.5,182.167 79.5,182.833 79.5,183.5C 78.5176,187.316 77.8509,191.316 77.5,195.5C 76.8333,195.5 76.1667,195.5 75.5,195.5C 75.9582,185.91 77.2915,176.576 79.5,167.5 Z"/></g>
<g><path style="opacity:1" fill="#4d260d" d="M 21.5,187.5 C 26.8333,187.5 32.1667,187.5 37.5,187.5C 38.1667,188.167 38.8333,188.833 39.5,189.5C 34.1563,189.334 28.8229,189.501 23.5,190C 21.9419,190.21 20.6085,190.71 19.5,191.5C 18.1667,191.5 16.8333,191.5 15.5,191.5C 17.7701,190.455 19.7701,189.121 21.5,187.5 Z"/></g>
<g><path style="opacity:1" fill="#1d2934" d="M 79.5,183.5 C 95.3899,185.374 111.39,186.04 127.5,185.5C 127.5,186.833 127.5,188.167 127.5,189.5C 111.132,188.849 95.1317,189.515 79.5,191.5C 79.62,192.586 80.2867,193.253 81.5,193.5C 82.7133,193.253 83.38,192.586 83.5,191.5C 86.2469,191.187 88.9135,191.52 91.5,192.5C 90.1735,194.311 89.1735,196.311 88.5,198.5C 85.5788,197.593 82.5788,197.26 79.5,197.5C 78.8333,197.5 78.1667,197.5 77.5,197.5C 77.5,196.833 77.5,196.167 77.5,195.5C 77.8509,191.316 78.5176,187.316 79.5,183.5 Z"/></g>
<g><path style="opacity:1" fill="#e29031" d="M 39.5,189.5 C 40.1667,190.167 40.8333,190.833 41.5,191.5C 34.1667,191.5 26.8333,191.5 19.5,191.5C 20.6085,190.71 21.9419,190.21 23.5,190C 28.8229,189.501 34.1563,189.334 39.5,189.5 Z"/></g>
<g><path style="opacity:1" fill="#605d3d" d="M 39.5,189.5 C 42.4282,189.565 45.0948,190.232 47.5,191.5C 45.5,191.5 43.5,191.5 41.5,191.5C 40.8333,190.833 40.1667,190.167 39.5,189.5 Z"/></g>
<g><path style="opacity:1" fill="#183801" d="M 79.5,191.5 C 80.8333,191.5 82.1667,191.5 83.5,191.5C 83.38,192.586 82.7133,193.253 81.5,193.5C 80.2867,193.253 79.62,192.586 79.5,191.5 Z"/></g>
<g><path style="opacity:1" fill="#272625" d="M 139.5,181.5 C 141.265,184.123 141.932,187.123 141.5,190.5C 153.256,196.25 163.256,204.25 171.5,214.5C 150.167,214.5 128.833,214.5 107.5,214.5C 106.965,212.554 105.632,211.554 103.5,211.5C 101.428,208.802 98.7616,207.135 95.5,206.5C 95.5,205.5 95.5,204.5 95.5,203.5C 95.5,202.167 95.5,200.833 95.5,199.5C 94.1667,199.5 92.8333,199.5 91.5,199.5C 91.5,200.833 91.5,202.167 91.5,203.5C 87.1653,201.748 83.1653,199.748 79.5,197.5C 82.5788,197.26 85.5788,197.593 88.5,198.5C 89.1735,196.311 90.1735,194.311 91.5,192.5C 88.9135,191.52 86.2469,191.187 83.5,191.5C 82.1667,191.5 80.8333,191.5 79.5,191.5C 95.1317,189.515 111.132,188.849 127.5,189.5C 127.5,188.167 127.5,186.833 127.5,185.5C 130.572,185.817 133.572,185.484 136.5,184.5C 137.993,183.859 138.993,182.859 139.5,181.5 Z"/></g>
<g><path style="opacity:1" fill="#984b03" d="M 47.5,193.5 C 48.8333,194.167 50.1667,194.833 51.5,195.5C 51.5,195.833 51.5,196.167 51.5,196.5C 44.6457,196.176 37.979,196.509 31.5,197.5C 27.9007,198.64 24.234,199.14 20.5,199C 22.5,198 24.5,197 26.5,196C 33.6302,195.042 40.6302,194.208 47.5,193.5 Z"/></g>
<g><path style="opacity:1" fill="#653306" d="M 71.5,195.5 C 72.8333,195.5 74.1667,195.5 75.5,195.5C 76.1667,195.5 76.8333,195.5 77.5,195.5C 77.5,196.167 77.5,196.833 77.5,197.5C 76.8333,197.5 76.1667,197.5 75.5,197.5C 74.1667,196.833 72.8333,196.167 71.5,195.5 Z"/></g>
<g><path style="opacity:1" fill="#3a180b" d="M 13.5,191.5 C 8.86134,196.474 4.19468,201.474 -0.5,206.5C -0.5,204.833 -0.5,203.167 -0.5,201.5C 3.0917,198.915 6.42504,195.915 9.5,192.5C 10.6888,191.571 12.0222,191.238 13.5,191.5 Z"/></g>
<g><path style="opacity:1" fill="#cb893a" d="M 13.5,191.5 C 14.1667,191.5 14.8333,191.5 15.5,191.5C 14.1667,193.5 12.8333,195.5 11.5,197.5C 7.5,200.833 3.5,204.167 -0.5,207.5C -0.5,207.167 -0.5,206.833 -0.5,206.5C 4.19468,201.474 8.86134,196.474 13.5,191.5 Z"/></g>
<g><path style="opacity:1" fill="#e0a244" d="M 31.5,197.5 C 37.979,196.509 44.6457,196.176 51.5,196.5C 52.7653,197.479 54.0986,198.479 55.5,199.5C 54.7573,200.182 54.0906,200.849 53.5,201.5C 52.8333,201.833 52.1667,202.167 51.5,202.5C 51.7733,200.549 51.1066,199.049 49.5,198C 43.5092,197.501 37.5092,197.334 31.5,197.5 Z"/></g>
<g><path style="opacity:1" fill="#b28444" d="M 71.5,195.5 C 72.8333,196.167 74.1667,196.833 75.5,197.5C 72.9179,197.025 70.9179,197.692 69.5,199.5C 67.8564,199.81 66.8564,200.81 66.5,202.5C 65.9033,202.735 65.5699,203.235 65.5,204C 65.9783,205.303 66.645,206.469 67.5,207.5C 66.1667,207.5 64.8333,207.5 63.5,207.5C 63.5,206.5 63.5,205.5 63.5,204.5C 63.2155,202.585 63.5489,200.919 64.5,199.5C 64.369,200.239 64.5357,200.906 65,201.5C 65.6368,199.697 66.8035,198.364 68.5,197.5C 68.2907,196.914 67.9574,196.414 67.5,196C 68.7932,195.51 70.1266,195.343 71.5,195.5 Z"/></g>
<g><path style="opacity:1" fill="#ef9014" d="M 15.5,191.5 C 16.8333,191.5 18.1667,191.5 19.5,191.5C 26.8333,191.5 34.1667,191.5 41.5,191.5C 43.5,191.5 45.5,191.5 47.5,191.5C 47.5,192.167 47.5,192.833 47.5,193.5C 40.6302,194.208 33.6302,195.042 26.5,196C 24.5,197 22.5,198 20.5,199C 24.234,199.14 27.9007,198.64 31.5,197.5C 37.5092,197.334 43.5092,197.501 49.5,198C 51.1066,199.049 51.7733,200.549 51.5,202.5C 50.1667,202.833 48.8333,203.167 47.5,203.5C 47.5774,202.25 48.244,201.417 49.5,201C 48.8333,200.667 48.1667,200.333 47.5,200C 39.4536,199.505 31.4536,200.005 23.5,201.5C 20.8333,201.167 18.1667,200.833 15.5,200.5C 14.5331,199.016 13.1998,198.016 11.5,197.5C 12.8333,195.5 14.1667,193.5 15.5,191.5 Z"/></g>
<g><path style="opacity:1" fill="#63592e" d="M 51.5,195.5 C 57.8022,196.552 59.3022,199.885 56,205.5C 55.5831,206.756 54.7498,207.423 53.5,207.5C 53.5,206.167 53.5,204.833 53.5,203.5C 53.5,202.833 53.5,202.167 53.5,201.5C 54.0906,200.849 54.7573,200.182 55.5,199.5C 54.0986,198.479 52.7653,197.479 51.5,196.5C 51.5,196.167 51.5,195.833 51.5,195.5 Z"/></g>
<g><path style="opacity:1" fill="#fb8c06" d="M 11.5,197.5 C 13.1998,198.016 14.5331,199.016 15.5,200.5C 18.1667,200.833 20.8333,201.167 23.5,201.5C 31.4536,200.005 39.4536,199.505 47.5,200C 48.1667,200.333 48.8333,200.667 49.5,201C 48.244,201.417 47.5774,202.25 47.5,203.5C 44.8245,204.355 42.1579,205.522 39.5,207C 41.1341,207.494 42.8008,207.66 44.5,207.5C 46.1033,207.312 47.4366,207.812 48.5,209C 46.5817,210.657 44.915,212.49 43.5,214.5C 28.8333,214.5 14.1667,214.5 -0.5,214.5C -0.5,212.167 -0.5,209.833 -0.5,207.5C 3.5,204.167 7.5,200.833 11.5,197.5 Z"/></g>
<g><path style="opacity:1" fill="#2e1549" d="M 95.5,203.5 C 94.1667,203.5 92.8333,203.5 91.5,203.5C 91.5,202.167 91.5,200.833 91.5,199.5C 92.8333,199.5 94.1667,199.5 95.5,199.5C 95.5,200.833 95.5,202.167 95.5,203.5 Z"/></g>
<g><path style="opacity:1" fill="#904700" d="M 53.5,201.5 C 53.5,202.167 53.5,202.833 53.5,203.5C 50.318,204.594 47.318,205.928 44.5,207.5C 42.8008,207.66 41.1341,207.494 39.5,207C 42.1579,205.522 44.8245,204.355 47.5,203.5C 48.8333,203.167 50.1667,202.833 51.5,202.5C 52.1667,202.167 52.8333,201.833 53.5,201.5 Z"/></g>
<g><path style="opacity:1" fill="#611f06" d="M 91.5,203.5 C 92.8333,203.5 94.1667,203.5 95.5,203.5C 95.5,204.5 95.5,205.5 95.5,206.5C 93.7697,205.974 92.4363,204.974 91.5,203.5 Z"/></g>
<g><path style="opacity:1" fill="#dc9436" d="M 53.5,203.5 C 53.5,204.833 53.5,206.167 53.5,207.5C 50.7573,209.239 48.7573,211.573 47.5,214.5C 46.1667,214.5 44.8333,214.5 43.5,214.5C 44.915,212.49 46.5817,210.657 48.5,209C 47.4366,207.812 46.1033,207.312 44.5,207.5C 47.318,205.928 50.318,204.594 53.5,203.5 Z"/></g>
<g><path style="opacity:1" fill="#a14e01" d="M 66.5,202.5 C 69.1769,206.529 71.8435,210.529 74.5,214.5C 73.8333,214.5 73.1667,214.5 72.5,214.5C 70.3882,212.5 68.7215,210.166 67.5,207.5C 66.645,206.469 65.9783,205.303 65.5,204C 65.5699,203.235 65.9033,202.735 66.5,202.5 Z"/></g>
<g><path style="opacity:1" fill="#f38a15" d="M 63.5,207.5 C 64.8333,207.5 66.1667,207.5 67.5,207.5C 68.7215,210.166 70.3882,212.5 72.5,214.5C 69.5,214.5 66.5,214.5 63.5,214.5C 63.5,212.167 63.5,209.833 63.5,207.5 Z"/></g>
<g><path style="opacity:1" fill="#615a52" d="M 63.5,204.5 C 63.5,205.5 63.5,206.5 63.5,207.5C 63.5,209.833 63.5,212.167 63.5,214.5C 63.1667,214.5 62.8333,214.5 62.5,214.5C 62.0051,212.548 61.6718,210.548 61.5,208.5C 61.5854,206.667 62.2521,205.334 63.5,204.5 Z"/></g>
<g><path style="opacity:1" fill="#61401f" d="M 53.5,207.5 C 52.2464,210.093 50.5798,212.427 48.5,214.5C 48.1667,214.5 47.8333,214.5 47.5,214.5C 48.7573,211.573 50.7573,209.239 53.5,207.5 Z"/></g>
<g><path style="opacity:1" fill="#ea8e1a" d="M 75.5,197.5 C 76.1667,197.5 76.8333,197.5 77.5,197.5C 78.1667,197.5 78.8333,197.5 79.5,197.5C 83.1653,199.748 87.1653,201.748 91.5,203.5C 92.4363,204.974 93.7697,205.974 95.5,206.5C 98.7616,207.135 101.428,208.802 103.5,211.5C 103.782,212.778 104.449,213.778 105.5,214.5C 95.1667,214.5 84.8333,214.5 74.5,214.5C 71.8435,210.529 69.1769,206.529 66.5,202.5C 66.8564,200.81 67.8564,199.81 69.5,199.5C 70.9179,197.692 72.9179,197.025 75.5,197.5 Z"/></g>
<g><path style="opacity:1" fill="#984700" d="M 79.5,207.5 C 82.6863,208.356 85.3529,210.023 87.5,212.5C 86.9984,213.521 86.3317,213.688 85.5,213C 83.2368,211.383 81.2368,209.55 79.5,207.5 Z"/></g>
<g><path style="opacity:1" fill="#984001" d="M 69.5,199.5 C 73.2071,201.688 76.5405,204.355 79.5,207.5C 75.2708,205.936 71.9374,203.269 69.5,199.5 Z"/></g>
<g><path style="opacity:1" fill="#976f25" d="M 103.5,211.5 C 105.632,211.554 106.965,212.554 107.5,214.5C 106.833,214.5 106.167,214.5 105.5,214.5C 104.449,213.778 103.782,212.778 103.5,211.5 Z"/></g>
</svg>
