<?xml version="1.0" encoding="UTF-8"?>
<!DOCTYPE svg PUBLIC "-//W3C//DTD SVG 1.1//EN" "http://www.w3.org/Graphics/SVG/1.1/DTD/svg11.dtd">
<svg xmlns="http://www.w3.org/2000/svg" version="1.1" width="64px" height="64px" style="shape-rendering:geometricPrecision; text-rendering:geometricPrecision; image-rendering:optimizeQuality; fill-rule:evenodd; clip-rule:evenodd" xmlns:xlink="http://www.w3.org/1999/xlink">
<g><path style="opacity:0.957" fill="#034531" d="M 32.5,63.5 C 31.5,63.5 30.5,63.5 29.5,63.5C 8.48467,59.4907 1.31801,47.1574 8,26.5C 11.4936,19.8333 16.1603,14.1666 22,9.5C 21.6487,7.11413 21.8153,4.78079 22.5,2.5C 27.5392,-0.0925746 32.5392,-0.0925746 37.5,2.5C 37.4982,4.741 37.8316,7.07434 38.5,9.5C 55.9347,19.6489 61.1014,33.9822 54,52.5C 48.1549,58.9359 40.9882,62.6026 32.5,63.5 Z"/></g>
<g><path style="opacity:1" fill="#e7b348" d="M 34.5,3.5 C 34.1193,4.93112 33.1193,5.76445 31.5,6C 29.0709,6.70331 26.7375,6.53664 24.5,5.5C 27.3009,2.57454 30.6342,1.90787 34.5,3.5 Z"/></g>
<g><path style="opacity:1" fill="#dc8845" d="M 34.5,3.5 C 35.9601,6.62718 35.6268,9.62718 33.5,12.5C 31.1256,13.6861 28.7922,13.6861 26.5,12.5C 25.0605,10.412 24.3939,8.07862 24.5,5.5C 26.7375,6.53664 29.0709,6.70331 31.5,6C 33.1193,5.76445 34.1193,4.93112 34.5,3.5 Z"/></g>
<g><path style="opacity:1" fill="#8bb672" d="M 25.5,12.5 C 25.8333,12.5 26.1667,12.5 26.5,12.5C 28.7922,13.6861 31.1256,13.6861 33.5,12.5C 33.8333,12.5 34.1667,12.5 34.5,12.5C 34.5,14.1667 34.5,15.8333 34.5,17.5C 31.8033,18.6303 29.1367,18.6303 26.5,17.5C 25.962,15.8828 25.6287,14.2161 25.5,12.5 Z"/></g>
<g><path style="opacity:1" fill="#77b99c" d="M 54.5,31.5 C 54.7363,34.6614 54.2363,37.9948 53,41.5C 52.3918,43.0664 51.5585,44.3998 50.5,45.5C 50.5,42.1667 50.5,38.8333 50.5,35.5C 50.5394,34.4168 50.8728,33.4168 51.5,32.5C 51.0431,31.7025 50.3764,31.3691 49.5,31.5C 49.5,30.8333 49.5,30.1667 49.5,29.5C 48.9423,28.2101 47.9423,27.3768 46.5,27C 38.5069,26.5003 30.5069,26.3336 22.5,26.5C 23.388,23.9455 23.7214,21.2788 23.5,18.5C 24.791,18.7373 25.791,18.404 26.5,17.5C 29.1367,18.6303 31.8033,18.6303 34.5,17.5C 34.5,15.8333 34.5,14.1667 34.5,12.5C 35.1499,12.1961 35.8165,11.8627 36.5,11.5C 44.971,15.9696 50.971,22.6363 54.5,31.5 Z"/></g>
<g><path style="opacity:1" fill="#fbfdfc" d="M 23.5,18.5 C 23.7214,21.2788 23.388,23.9455 22.5,26.5C 20.8333,27.8333 19.1667,29.1667 17.5,30.5C 16.391,30.4431 15.391,30.1098 14.5,29.5C 15.0115,23.6663 18.0115,19.9996 23.5,18.5 Z"/></g>
<g><path style="opacity:1" fill="#fdd2d9" d="M 22.5,26.5 C 30.5069,26.3336 38.5069,26.5003 46.5,27C 47.9423,27.3768 48.9423,28.2101 49.5,29.5C 42.9025,30.8712 36.2358,31.8712 29.5,32.5C 25.2867,32.2824 21.2867,31.6157 17.5,30.5C 19.1667,29.1667 20.8333,27.8333 22.5,26.5 Z"/></g>
<g><path style="opacity:1" fill="#fcb0bc" d="M 14.5,29.5 C 15.391,30.1098 16.391,30.4431 17.5,30.5C 21.2867,31.6157 25.2867,32.2824 29.5,32.5C 36.2358,31.8712 42.9025,30.8712 49.5,29.5C 49.5,30.1667 49.5,30.8333 49.5,31.5C 48.7442,37.0468 45.7442,38.7134 40.5,36.5C 39.5084,36.6716 38.8417,36.3382 38.5,35.5C 38.189,34.5222 37.5223,33.8555 36.5,33.5C 33.142,35.8678 29.8087,38.2011 26.5,40.5C 23.3671,38.7621 20.3671,36.7621 17.5,34.5C 15.4714,35.8435 13.4714,37.1769 11.5,38.5C 11.9281,35.2154 12.9281,32.2154 14.5,29.5 Z"/></g>
<g><path style="opacity:1" fill="#6fb793" d="M 25.5,12.5 C 25.6287,14.2161 25.962,15.8828 26.5,17.5C 25.791,18.404 24.791,18.7373 23.5,18.5C 18.0115,19.9996 15.0115,23.6663 14.5,29.5C 12.9281,32.2154 11.9281,35.2154 11.5,38.5C 11.5654,38.9382 11.3988,39.2716 11,39.5C 10.0944,36.8792 9.5944,37.0459 9.5,40C 9.68237,42.5781 10.6824,43.0781 12.5,41.5C 14.297,51.7904 20.4637,56.7904 31,56.5C 35.3161,56.8926 39.1494,55.8926 42.5,53.5C 46.3491,53.9807 48.3491,52.314 48.5,48.5C 48.9321,47.2905 49.5987,46.2905 50.5,45.5C 51.5585,44.3998 52.3918,43.0664 53,41.5C 54.2363,37.9948 54.7363,34.6614 54.5,31.5C 57.1619,49.7958 49.1619,59.4625 30.5,60.5C 14.3748,59.2311 6.87482,50.5644 8,34.5C 9.91174,26.8397 13.7451,20.3397 19.5,15C 21.2166,13.4412 23.2166,12.6079 25.5,12.5 Z"/></g>
<g><path style="opacity:1" fill="#aff1e0" d="M 49.5,31.5 C 50.3764,31.3691 51.0431,31.7025 51.5,32.5C 50.8728,33.4168 50.5394,34.4168 50.5,35.5C 49.2206,37.1233 47.8872,38.79 46.5,40.5C 44.0894,39.6389 42.0894,38.3056 40.5,36.5C 45.7442,38.7134 48.7442,37.0468 49.5,31.5 Z"/></g>
<g><path style="opacity:1" fill="#fe95a3" d="M 38.5,35.5 C 38.8417,36.3382 39.5084,36.6716 40.5,36.5C 42.0894,38.3056 44.0894,39.6389 46.5,40.5C 47.8872,38.79 49.2206,37.1233 50.5,35.5C 50.5,38.8333 50.5,42.1667 50.5,45.5C 49.5987,46.2905 48.9321,47.2905 48.5,48.5C 45.4647,48.3469 43.4647,49.6803 42.5,52.5C 38.0549,54.6117 33.3882,55.4451 28.5,55C 22.6967,52.4328 22.0301,48.9328 26.5,44.5C 29.3022,41.5332 32.3022,38.6999 35.5,36C 36.448,35.5172 37.448,35.3505 38.5,35.5 Z"/></g>
<g><path style="opacity:1" fill="#fdaeba" d="M 26.5,44.5 C 22.0301,48.9328 22.6967,52.4328 28.5,55C 33.3882,55.4451 38.0549,54.6117 42.5,52.5C 42.5,52.8333 42.5,53.1667 42.5,53.5C 39.1494,55.8926 35.3161,56.8926 31,56.5C 20.4637,56.7904 14.297,51.7904 12.5,41.5C 13.7927,39.7041 15.2927,38.0375 17,36.5C 20.9271,38.3638 24.0938,41.0305 26.5,44.5 Z"/></g>
<g><path style="opacity:1" fill="#9ff0cd" d="M 38.5,35.5 C 37.448,35.3505 36.448,35.5172 35.5,36C 32.3022,38.6999 29.3022,41.5332 26.5,44.5C 24.0938,41.0305 20.9271,38.3638 17,36.5C 15.2927,38.0375 13.7927,39.7041 12.5,41.5C 10.6824,43.0781 9.68237,42.5781 9.5,40C 9.5944,37.0459 10.0944,36.8792 11,39.5C 11.3988,39.2716 11.5654,38.9382 11.5,38.5C 13.4714,37.1769 15.4714,35.8435 17.5,34.5C 20.3671,36.7621 23.3671,38.7621 26.5,40.5C 29.8087,38.2011 33.142,35.8678 36.5,33.5C 37.5223,33.8555 38.189,34.5222 38.5,35.5 Z"/></g>
<g><path style="opacity:1" fill="#fdfdfc" d="M 48.5,48.5 C 48.3491,52.314 46.3491,53.9807 42.5,53.5C 42.5,53.1667 42.5,52.8333 42.5,52.5C 43.4647,49.6803 45.4647,48.3469 48.5,48.5 Z"/></g>
</svg>
