<?xml version="1.0" encoding="UTF-8"?>
<!DOCTYPE svg PUBLIC "-//W3C//DTD SVG 1.1//EN" "http://www.w3.org/Graphics/SVG/1.1/DTD/svg11.dtd">
<svg xmlns="http://www.w3.org/2000/svg" version="1.1" width="64px" height="64px" style="shape-rendering:geometricPrecision; text-rendering:geometricPrecision; image-rendering:optimizeQuality; fill-rule:evenodd; clip-rule:evenodd" xmlns:xlink="http://www.w3.org/1999/xlink">
<g><path style="opacity:0.993" fill="#231c48" d="M 24.5,-0.5 C 27.8333,-0.5 31.1667,-0.5 34.5,-0.5C 34.5,5.5 34.5,11.5 34.5,17.5C 32.4727,17.6621 30.4727,17.4955 28.5,17C 32.449,16.1932 32.449,15.6932 28.5,15.5C 28.5,13.1667 28.5,10.8333 28.5,8.5C 25.1667,8.5 21.8333,8.5 18.5,8.5C 18.5,9.83333 18.5,11.1667 18.5,12.5C 16.1667,12.5 13.8333,12.5 11.5,12.5C 11.5,14.1667 11.5,15.8333 11.5,17.5C 9.16667,17.5 6.83333,17.5 4.5,17.5C 4.5,16.5 4.5,15.5 4.5,14.5C 6.21987,11.2689 8.5532,8.43559 11.5,6C 15.6467,3.25995 19.98,1.09328 24.5,-0.5 Z"/></g>
<g><path style="opacity:1" fill="#231c48" d="M 34.5,-0.5 C 35.8333,-0.5 37.1667,-0.5 38.5,-0.5C 43.02,1.09328 47.3533,3.25995 51.5,6C 54.4468,8.43559 56.7801,11.2689 58.5,14.5C 58.5,15.5 58.5,16.5 58.5,17.5C 50.5,17.5 42.5,17.5 34.5,17.5C 34.5,11.5 34.5,5.5 34.5,-0.5 Z"/></g>
<g><path style="opacity:1" fill="#8b87f7" d="M 18.5,12.5 C 20.5,12.5 22.5,12.5 24.5,12.5C 24.1494,16.1587 25.1494,19.1587 27.5,21.5C 27.5,21.8333 27.5,22.1667 27.5,22.5C 27.5,23.5 27.5,24.5 27.5,25.5C 25.8333,25.5 24.1667,25.5 22.5,25.5C 22.7251,21.9438 21.8918,21.6105 20,24.5C 17.7895,23.1498 15.4562,22.1498 13,21.5C 12.5172,22.448 12.3505,23.448 12.5,24.5C 11.5318,22.3926 11.1984,20.0593 11.5,17.5C 11.5,15.8333 11.5,14.1667 11.5,12.5C 13.8333,12.5 16.1667,12.5 18.5,12.5 Z"/></g>
<g><path style="opacity:1" fill="#231c48" d="M 4.5,14.5 C 4.5,15.5 4.5,16.5 4.5,17.5C 6.83333,17.5 9.16667,17.5 11.5,17.5C 11.1984,20.0593 11.5318,22.3926 12.5,24.5C 12.8333,24.5 13.1667,24.5 13.5,24.5C 13.238,25.9778 13.5713,27.3112 14.5,28.5C 14.3758,27.3895 14.7091,26.0562 15.5,24.5C 16.1667,24.5 16.5,24.8333 16.5,25.5C 16.8417,26.3382 17.5084,26.6716 18.5,26.5C 18.8333,28.5 19.1667,30.5 19.5,32.5C 16.752,34.0438 13.752,34.7105 10.5,34.5C 10.5,35.5 10.5,36.5 10.5,37.5C 2.5,37.8333 2.5,38.1667 10.5,38.5C 10.5,41.5 10.5,44.5 10.5,47.5C 8.16667,47.5 5.83333,47.5 3.5,47.5C 2.15,44.4279 0.816668,41.4279 -0.5,38.5C -0.5,33.8333 -0.5,29.1667 -0.5,24.5C 0.78282,20.9915 2.44949,17.6582 4.5,14.5 Z"/></g>
<g><path style="opacity:1" fill="#fbda76" d="M 34.5,31.5 C 34.1667,31.5 33.8333,31.5 33.5,31.5C 33.6107,30.8826 33.944,30.3826 34.5,30C 32.9544,28.5604 32.121,26.7271 32,24.5C 30.6703,23.4178 29.1703,22.7512 27.5,22.5C 27.5,22.1667 27.5,21.8333 27.5,21.5C 27.9175,20.7784 28.5842,20.2784 29.5,20C 28.376,19.7508 27.376,19.2508 26.5,18.5C 26.6667,18.1667 26.8333,17.8333 27,17.5C 30.2852,17.9786 33.1186,19.3119 35.5,21.5C 36.7596,23.3529 36.7596,25.1862 35.5,27C 38.1835,29.1216 37.8501,30.6216 34.5,31.5 Z"/></g>
<g><path style="opacity:1" fill="#2b214a" d="M 34.5,17.5 C 42.5,17.5 50.5,17.5 58.5,17.5C 54.3656,18.4849 50.0323,18.8182 45.5,18.5C 45.5,21.5 45.5,24.5 45.5,27.5C 62.8333,27.8333 62.8333,28.1667 45.5,28.5C 45.5,30.5 45.5,32.5 45.5,34.5C 62.7825,34.5059 62.7825,35.1725 45.5,36.5C 51.4632,37.4959 57.4632,37.8293 63.5,37.5C 63.5,37.8333 63.5,38.1667 63.5,38.5C 62.2172,42.0085 60.5505,45.3418 58.5,48.5C 56.1667,48.5 53.8333,48.5 51.5,48.5C 46.0613,42.6396 40.3946,36.973 34.5,31.5C 37.8501,30.6216 38.1835,29.1216 35.5,27C 36.7596,25.1862 36.7596,23.3529 35.5,21.5C 33.1186,19.3119 30.2852,17.9786 27,17.5C 26.8333,17.8333 26.6667,18.1667 26.5,18.5C 27.376,19.2508 28.376,19.7508 29.5,20C 28.5842,20.2784 27.9175,20.7784 27.5,21.5C 25.1494,19.1587 24.1494,16.1587 24.5,12.5C 22.5,12.5 20.5,12.5 18.5,12.5C 18.5,11.1667 18.5,9.83333 18.5,8.5C 21.8333,8.5 25.1667,8.5 28.5,8.5C 28.5,10.8333 28.5,13.1667 28.5,15.5C 32.449,15.6932 32.449,16.1932 28.5,17C 30.4727,17.4955 32.4727,17.6621 34.5,17.5 Z"/></g>
<g><path style="opacity:1" fill="#231c48" d="M 58.5,14.5 C 60.5505,17.6582 62.2172,20.9915 63.5,24.5C 63.5,28.8333 63.5,33.1667 63.5,37.5C 57.4632,37.8293 51.4632,37.4959 45.5,36.5C 62.7825,35.1725 62.7825,34.5059 45.5,34.5C 45.5,32.5 45.5,30.5 45.5,28.5C 62.8333,28.1667 62.8333,27.8333 45.5,27.5C 45.5,24.5 45.5,21.5 45.5,18.5C 50.0323,18.8182 54.3656,18.4849 58.5,17.5C 58.5,16.5 58.5,15.5 58.5,14.5 Z"/></g>
<g><path style="opacity:1" fill="#f2f1f8" d="M 27.5,22.5 C 29.1703,22.7512 30.6703,23.4178 32,24.5C 32.121,26.7271 32.9544,28.5604 34.5,30C 33.944,30.3826 33.6107,30.8826 33.5,31.5C 31.8333,29.1667 29.8333,27.1667 27.5,25.5C 27.5,24.5 27.5,23.5 27.5,22.5 Z"/></g>
<g><path style="opacity:1" fill="#e8ae49" d="M 13.5,24.5 C 14.1667,24.5 14.8333,24.5 15.5,24.5C 14.7091,26.0562 14.3758,27.3895 14.5,28.5C 13.5713,27.3112 13.238,25.9778 13.5,24.5 Z"/></g>
<g><path style="opacity:1" fill="#f3f2fc" d="M 16.5,25.5 C 19.9878,25.9063 23.3211,26.9063 26.5,28.5C 27.8818,30.5486 29.5484,32.2153 31.5,33.5C 28.5,34.8333 25.5,34.8333 22.5,33.5C 22.2639,30.3793 20.9305,28.046 18.5,26.5C 17.5084,26.6716 16.8417,26.3382 16.5,25.5 Z"/></g>
<g><path style="opacity:1" fill="#fac155" d="M 18.5,26.5 C 20.9305,28.046 22.2639,30.3793 22.5,33.5C 21.209,33.7373 20.209,33.404 19.5,32.5C 19.1667,30.5 18.8333,28.5 18.5,26.5 Z"/></g>
<g><path style="opacity:1" fill="#fad874" d="M 22.5,33.5 C 25.5,34.8333 28.5,34.8333 31.5,33.5C 31.8333,34.1667 32.1667,34.8333 32.5,35.5C 31.5655,36.5676 31.2322,37.901 31.5,39.5C 27.4428,38.9449 24.4428,36.9449 22.5,33.5 Z"/></g>
<g><path style="opacity:1" fill="#6b63e2" d="M 27.5,25.5 C 29.8333,27.1667 31.8333,29.1667 33.5,31.5C 33.8333,31.5 34.1667,31.5 34.5,31.5C 40.3946,36.973 46.0613,42.6396 51.5,48.5C 51.38,49.5862 50.7133,50.2528 49.5,50.5C 47.3076,50.2427 45.6409,49.2427 44.5,47.5C 43.7813,45.1119 42.1146,43.6119 39.5,43C 37.9546,39.6256 35.6213,37.1256 32.5,35.5C 32.1667,34.8333 31.8333,34.1667 31.5,33.5C 29.5484,32.2153 27.8818,30.5486 26.5,28.5C 23.3211,26.9063 19.9878,25.9063 16.5,25.5C 16.5,24.8333 16.1667,24.5 15.5,24.5C 14.8333,24.5 14.1667,24.5 13.5,24.5C 13.1667,24.5 12.8333,24.5 12.5,24.5C 12.3505,23.448 12.5172,22.448 13,21.5C 15.4562,22.1498 17.7895,23.1498 20,24.5C 21.8918,21.6105 22.7251,21.9438 22.5,25.5C 24.1667,25.5 25.8333,25.5 27.5,25.5 Z"/></g>
<g><path style="opacity:1" fill="#261e49" d="M 19.5,32.5 C 20.209,33.404 21.209,33.7373 22.5,33.5C 24.4428,36.9449 27.4428,38.9449 31.5,39.5C 31.2322,37.901 31.5655,36.5676 32.5,35.5C 35.6213,37.1256 37.9546,39.6256 39.5,43C 42.1146,43.6119 43.7813,45.1119 44.5,47.5C 39.3595,48.4881 34.0262,48.8214 28.5,48.5C 28.5,53.5 28.5,58.5 28.5,63.5C 28.1667,63.5 27.8333,63.5 27.5,63.5C 27.5,58.5 27.5,53.5 27.5,48.5C 24.5,48.5 21.5,48.5 18.5,48.5C 18.5,52.5 18.5,56.5 18.5,60.5C 11.9674,57.9696 6.96743,53.6362 3.5,47.5C 5.83333,47.5 8.16667,47.5 10.5,47.5C 10.5,44.5 10.5,41.5 10.5,38.5C 2.5,38.1667 2.5,37.8333 10.5,37.5C 10.5,36.5 10.5,35.5 10.5,34.5C 13.752,34.7105 16.752,34.0438 19.5,32.5 Z"/></g>
<g><path style="opacity:0.992" fill="#221b46" d="M 27.5,63.5 C 26.5,63.5 25.5,63.5 24.5,63.5C 22.5,62.5 20.5,61.5 18.5,60.5C 18.5,56.5 18.5,52.5 18.5,48.5C 21.5,48.5 24.5,48.5 27.5,48.5C 27.5,53.5 27.5,58.5 27.5,63.5 Z"/></g>
<g><path style="opacity:0.992" fill="#221b46" d="M 44.5,47.5 C 45.6409,49.2427 47.3076,50.2427 49.5,50.5C 50.7133,50.2528 51.38,49.5862 51.5,48.5C 53.8333,48.5 56.1667,48.5 58.5,48.5C 56.7801,51.7311 54.4468,54.5644 51.5,57C 47.3533,59.7401 43.02,61.9067 38.5,63.5C 35.1667,63.5 31.8333,63.5 28.5,63.5C 28.5,58.5 28.5,53.5 28.5,48.5C 34.0262,48.8214 39.3595,48.4881 44.5,47.5 Z"/></g>
</svg>
