<?xml version="1.0" encoding="UTF-8"?>
<!DOCTYPE svg PUBLIC "-//W3C//DTD SVG 1.1//EN" "http://www.w3.org/Graphics/SVG/1.1/DTD/svg11.dtd">
<svg xmlns="http://www.w3.org/2000/svg" version="1.1" width="64px" height="64px" style="shape-rendering:geometricPrecision; text-rendering:geometricPrecision; image-rendering:optimizeQuality; fill-rule:evenodd; clip-rule:evenodd" xmlns:xlink="http://www.w3.org/1999/xlink">
<g><path style="opacity:0.993" fill="#1aa4f8" d="M 29.5,-0.5 C 30.5,-0.5 31.5,-0.5 32.5,-0.5C 35.5089,3.50676 38.5089,7.50676 41.5,11.5C 39.8967,14.2796 38.0634,16.9462 36,19.5C 34.6106,21.2273 32.9439,22.5606 31,23.5C 26.8734,20.2126 23.7067,16.2126 21.5,11.5C 23.7649,7.23452 26.4316,3.23452 29.5,-0.5 Z"/></g>
<g><path style="opacity:0.989" fill="#1aa4f7" d="M 18.5,14.5 C 21.7798,17.0435 24.6132,20.0435 27,23.5C 27.7811,24.7287 28.2811,26.062 28.5,27.5C 25.6438,31.867 22.3105,35.867 18.5,39.5C 14.6133,35.7796 11.28,31.6129 8.5,27C 11.3036,22.3681 14.6369,18.2014 18.5,14.5 Z"/></g>
<g><path style="opacity:0.994" fill="#1aa4f8" d="M 43.5,14.5 C 47.7376,18.1253 51.4043,22.292 54.5,27C 51.7523,31.752 48.2523,35.9187 44,39.5C 39.764,35.9324 36.264,31.7657 33.5,27C 36.7167,22.7295 40.05,18.5628 43.5,14.5 Z"/></g>
<g><path style="opacity:0.617" fill="#1ba5f8" d="M 32.5,63.5 C 31.5,63.5 30.5,63.5 29.5,63.5C 26.8398,59.5181 24.1731,55.5181 21.5,51.5C 23.7576,46.7466 26.9242,42.7466 31,39.5C 35.5311,42.3984 39.0311,46.2317 41.5,51C 38.6834,55.3138 35.6834,59.4805 32.5,63.5 Z"/></g>
</svg>
