<?xml version="1.0" encoding="UTF-8"?>
<!DOCTYPE svg PUBLIC "-//W3C//DTD SVG 1.1//EN" "http://www.w3.org/Graphics/SVG/1.1/DTD/svg11.dtd">
<svg xmlns="http://www.w3.org/2000/svg" version="1.1" width="64px" height="64px" style="shape-rendering:geometricPrecision; text-rendering:geometricPrecision; image-rendering:optimizeQuality; fill-rule:evenodd; clip-rule:evenodd" xmlns:xlink="http://www.w3.org/1999/xlink">
<g><path style="opacity:1" fill="#000000" d="M -0.5,-0.5 C 20.8333,-0.5 42.1667,-0.5 63.5,-0.5C 63.5,20.8333 63.5,42.1667 63.5,63.5C 42.1667,63.5 20.8333,63.5 -0.5,63.5C -0.5,42.1667 -0.5,20.8333 -0.5,-0.5 Z"/></g>
<g><path style="opacity:1" fill="#959595" d="M 34.5,16.5 C 39.6621,16.0193 43.4954,18.3526 46,23.5C 47.1871,25.0444 47.5205,26.7111 47,28.5C 40.9826,26.314 36.8159,22.314 34.5,16.5 Z"/></g>
<g><path style="opacity:1" fill="#949494" d="M 25.5,15.5 C 26.552,15.3505 27.552,15.5172 28.5,16C 26.3333,22.1667 22.1667,26.3333 16,28.5C 16.6104,22.3776 19.7771,18.0443 25.5,15.5 Z"/></g>
<g><path style="opacity:1" fill="#ebebeb" d="M 29.5,23.5 C 30.9778,23.238 32.3112,23.5713 33.5,24.5C 35.0552,27.2622 37.0552,29.5956 39.5,31.5C 36.5,33.8333 33.8333,36.5 31.5,39.5C 29.1667,36.5 26.5,33.8333 23.5,31.5C 24.4471,29.5998 25.9471,28.2665 28,27.5C 28.7914,26.255 29.2914,24.9217 29.5,23.5 Z"/></g>
<g><path style="opacity:1" fill="#959595" d="M 15.5,34.5 C 21.9437,36.4432 26.277,40.6098 28.5,47C 21.1408,46.1437 16.8075,41.977 15.5,34.5 Z"/></g>
<g><path style="opacity:1" fill="#949494" d="M 46.5,34.5 C 47.0019,38.6808 45.3352,42.1808 41.5,45C 34.7075,49.2194 33.2075,48.0528 37,41.5C 39.529,38.1151 42.6956,35.7818 46.5,34.5 Z"/></g>
</svg>
