<?xml version="1.0" encoding="UTF-8"?>
<!DOCTYPE svg PUBLIC "-//W3C//DTD SVG 1.1//EN" "http://www.w3.org/Graphics/SVG/1.1/DTD/svg11.dtd">
<svg xmlns="http://www.w3.org/2000/svg" version="1.1" width="64px" height="64px" style="shape-rendering:geometricPrecision; text-rendering:geometricPrecision; image-rendering:optimizeQuality; fill-rule:evenodd; clip-rule:evenodd" xmlns:xlink="http://www.w3.org/1999/xlink">
<g><path style="opacity:0.99" fill="#267de2" d="M 24.5,-0.5 C 29.1667,-0.5 33.8333,-0.5 38.5,-0.5C 51.1667,3.5 59.5,11.8333 63.5,24.5C 63.5,29.1667 63.5,33.8333 63.5,38.5C 59.5,51.1667 51.1667,59.5 38.5,63.5C 33.8333,63.5 29.1667,63.5 24.5,63.5C 11.8333,59.5 3.5,51.1667 -0.5,38.5C -0.5,33.8333 -0.5,29.1667 -0.5,24.5C 3.5,11.8333 11.8333,3.5 24.5,-0.5 Z"/></g>
<g><path style="opacity:1" fill="#fbfcfe" d="M 31.5,36.5 C 27.1667,35.8333 22.8333,35.1667 18.5,34.5C 22.3828,25.7333 26.5494,17.0667 31,8.5C 31.4995,14.4908 31.6662,20.4908 31.5,26.5C 36.2137,26.1734 40.8804,26.5067 45.5,27.5C 41,36.5 36.5,45.5 32,54.5C 31.5005,48.5092 31.3338,42.5092 31.5,36.5 Z"/></g>
<g><path style="opacity:1" fill="#a4c8f3" d="M 18.5,34.5 C 22.8333,35.1667 27.1667,35.8333 31.5,36.5C 26.7863,36.8266 22.1196,36.4933 17.5,35.5C 17.6236,34.8933 17.9569,34.56 18.5,34.5 Z"/></g>
</svg>
