<?xml version="1.0" encoding="UTF-8"?>
<!DOCTYPE svg PUBLIC "-//W3C//DTD SVG 1.1//EN" "http://www.w3.org/Graphics/SVG/1.1/DTD/svg11.dtd">
<svg xmlns="http://www.w3.org/2000/svg" version="1.1" width="64px" height="64px" style="shape-rendering:geometricPrecision; text-rendering:geometricPrecision; image-rendering:optimizeQuality; fill-rule:evenodd; clip-rule:evenodd" xmlns:xlink="http://www.w3.org/1999/xlink">
<g><path style="opacity:0.999" fill="#7c00ff" d="M 25.5,-0.5 C 29.5,-0.5 33.5,-0.5 37.5,-0.5C 51.1667,3.16667 59.8333,11.8333 63.5,25.5C 63.5,29.5 63.5,33.5 63.5,37.5C 59.8333,51.1667 51.1667,59.8333 37.5,63.5C 33.5,63.5 29.5,63.5 25.5,63.5C 11.8333,59.8333 3.16667,51.1667 -0.5,37.5C -0.5,33.5 -0.5,29.5 -0.5,25.5C 3.16667,11.8333 11.8333,3.16667 25.5,-0.5 Z"/></g>
<g><path style="opacity:1" fill="#fefffe" d="M 25.5,24.5 C 21.5,24.5 17.5,24.5 13.5,24.5C 13.5,23.1667 13.5,21.8333 13.5,20.5C 17.5,20.5 21.5,20.5 25.5,20.5C 25.5,21.8333 25.5,23.1667 25.5,24.5 Z"/></g>
<g><path style="opacity:1" fill="#fefffe" d="M 33.5,24.5 C 32.1667,24.5 30.8333,24.5 29.5,24.5C 29.5,23.1667 29.5,21.8333 29.5,20.5C 30.8333,20.5 32.1667,20.5 33.5,20.5C 33.5,21.8333 33.5,23.1667 33.5,24.5 Z"/></g>
<g><path style="opacity:1" fill="#fefffe" d="M 37.5,24.5 C 37.5,23.1667 37.5,21.8333 37.5,20.5C 41.5,20.5 45.5,20.5 49.5,20.5C 49.5,21.8333 49.5,23.1667 49.5,24.5C 45.5,24.5 41.5,24.5 37.5,24.5 Z"/></g>
<g><path style="opacity:1" fill="#fefffe" d="M 25.5,24.5 C 26.8333,24.5 28.1667,24.5 29.5,24.5C 29.5,25.8333 29.5,27.1667 29.5,28.5C 28.1667,28.5 26.8333,28.5 25.5,28.5C 25.5,27.1667 25.5,25.8333 25.5,24.5 Z"/></g>
<g><path style="opacity:1" fill="#7d00ff" d="M 29.5,24.5 C 30.8333,24.5 32.1667,24.5 33.5,24.5C 33.5,25.8333 33.5,27.1667 33.5,28.5C 32.1667,28.5 30.8333,28.5 29.5,28.5C 29.5,27.1667 29.5,25.8333 29.5,24.5 Z"/></g>
<g><path style="opacity:1" fill="#fefffe" d="M 33.5,24.5 C 34.8333,24.5 36.1667,24.5 37.5,24.5C 37.5,25.8333 37.5,27.1667 37.5,28.5C 36.1667,28.5 34.8333,28.5 33.5,28.5C 33.5,27.1667 33.5,25.8333 33.5,24.5 Z"/></g>
<g><path style="opacity:1" fill="#f5e9ff" d="M 25.5,28.5 C 25.5,30.1667 25.5,31.8333 25.5,33.5C 21.5,33.5 17.5,33.5 13.5,33.5C 13.5,31.8333 13.5,30.1667 13.5,28.5C 17.5,28.5 21.5,28.5 25.5,28.5 Z"/></g>
<g><path style="opacity:1" fill="#a14fff" d="M 25.5,28.5 C 26.8333,28.5 28.1667,28.5 29.5,28.5C 30.8333,28.5 32.1667,28.5 33.5,28.5C 34.8333,28.5 36.1667,28.5 37.5,28.5C 41.7016,28.1832 45.7016,28.5166 49.5,29.5C 45.5,29.5 41.5,29.5 37.5,29.5C 36.1667,29.5 34.8333,29.5 33.5,29.5C 32.1667,29.5 30.8333,29.5 29.5,29.5C 29.5,30.8333 29.5,32.1667 29.5,33.5C 28.1667,33.5 26.8333,33.5 25.5,33.5C 25.5,31.8333 25.5,30.1667 25.5,28.5 Z"/></g>
<g><path style="opacity:1" fill="#fbf8ff" d="M 33.5,29.5 C 33.5,30.8333 33.5,32.1667 33.5,33.5C 32.1667,33.5 30.8333,33.5 29.5,33.5C 29.5,32.1667 29.5,30.8333 29.5,29.5C 30.8333,29.5 32.1667,29.5 33.5,29.5 Z"/></g>
<g><path style="opacity:1" fill="#8008ff" d="M 33.5,29.5 C 34.8333,29.5 36.1667,29.5 37.5,29.5C 37.5,30.8333 37.5,32.1667 37.5,33.5C 36.1667,33.5 34.8333,33.5 33.5,33.5C 33.5,32.1667 33.5,30.8333 33.5,29.5 Z"/></g>
<g><path style="opacity:1" fill="#fbf8ff" d="M 37.5,29.5 C 41.5,29.5 45.5,29.5 49.5,29.5C 49.5,30.8333 49.5,32.1667 49.5,33.5C 45.5,33.5 41.5,33.5 37.5,33.5C 37.5,32.1667 37.5,30.8333 37.5,29.5 Z"/></g>
<g><path style="opacity:1" fill="#fefffe" d="M 25.5,33.5 C 26.8333,33.5 28.1667,33.5 29.5,33.5C 29.5,37.5 29.5,41.5 29.5,45.5C 28.1667,45.5 26.8333,45.5 25.5,45.5C 25.5,41.5 25.5,37.5 25.5,33.5 Z"/></g>
<g><path style="opacity:1" fill="#fefffe" d="M 33.5,33.5 C 34.8333,33.5 36.1667,33.5 37.5,33.5C 37.5,37.5 37.5,41.5 37.5,45.5C 36.1667,45.5 34.8333,45.5 33.5,45.5C 33.5,41.5 33.5,37.5 33.5,33.5 Z"/></g>
</svg>
