<?xml version="1.0" encoding="UTF-8"?>
<!DOCTYPE svg PUBLIC "-//W3C//DTD SVG 1.1//EN" "http://www.w3.org/Graphics/SVG/1.1/DTD/svg11.dtd">
<svg xmlns="http://www.w3.org/2000/svg" version="1.1" width="64px" height="64px" style="shape-rendering:geometricPrecision; text-rendering:geometricPrecision; image-rendering:optimizeQuality; fill-rule:evenodd; clip-rule:evenodd" xmlns:xlink="http://www.w3.org/1999/xlink">
<g><path style="opacity:1" fill="#030303" d="M -0.5,-0.5 C 20.8333,-0.5 42.1667,-0.5 63.5,-0.5C 63.5,20.8333 63.5,42.1667 63.5,63.5C 42.1667,63.5 20.8333,63.5 -0.5,63.5C -0.5,42.1667 -0.5,20.8333 -0.5,-0.5 Z"/></g>
<g><path style="opacity:1" fill="#f8f8f8" d="M 20.5,8.5 C 27.8409,8.33368 35.1742,8.50034 42.5,9C 45.1667,12.6667 47.8333,16.3333 50.5,20C 44.6955,27.6376 38.3622,34.8043 31.5,41.5C 24.6378,34.8043 18.3045,27.6376 12.5,20C 14.9971,16.0107 17.6638,12.1773 20.5,8.5 Z"/></g>
<g><path style="opacity:1" fill="#020202" d="M 20.5,10.5 C 27.5079,10.3337 34.5079,10.5004 41.5,11C 43.6201,13.4087 45.6201,15.9087 47.5,18.5C 44.2317,19.487 40.8984,19.8204 37.5,19.5C 36.1205,26.3512 34.1205,33.0179 31.5,39.5C 28.8795,33.0179 26.8795,26.3512 25.5,19.5C 22.1016,19.8204 18.7683,19.487 15.5,18.5C 17.6893,16.1133 19.3559,13.4466 20.5,10.5 Z"/></g>
<g><path style="opacity:1" fill="#010101" d="M 15.5,21.5 C 18.0241,20.1997 20.6908,20.1997 23.5,21.5C 25.4104,25.7163 26.5771,30.0497 27,34.5C 23.3013,29.9728 19.468,25.6395 15.5,21.5 Z"/></g>
<g><path style="opacity:1" fill="#010101" d="M 39.5,20.5 C 42.1873,20.3359 44.854,20.5026 47.5,21C 43.6667,25.5 39.8333,30 36,34.5C 36.6287,29.7651 37.7953,25.0984 39.5,20.5 Z"/></g>
<g><path style="opacity:1" fill="#fefefe" d="M 12.5,44.5 C 13.9464,43.3871 15.6131,43.2204 17.5,44C 16.0325,45.0975 15.1992,46.5975 15,48.5C 14.8784,46.563 14.045,45.2297 12.5,44.5 Z"/></g>
<g><path style="opacity:1" fill="#e3e3e3" d="M 44.5,45.5 C 45.7736,46.1894 45.7736,47.0228 44.5,48C 43.2068,48.49 41.8734,48.6567 40.5,48.5C 40.5,46.8333 40.5,45.1667 40.5,43.5C 42.4832,43.1568 43.8166,43.8235 44.5,45.5 Z"/></g>
<g><path style="opacity:1" fill="#fbfbfb" d="M 24.5,43.5 C 26.4411,44.6378 26.6078,46.3045 25,48.5C 24.5065,46.8659 24.3398,45.1992 24.5,43.5 Z"/></g>
<g><path style="opacity:1" fill="#e9e9e9" d="M 33.5,44.5 C 31.5,44.5 30.5,45.5 30.5,47.5C 29.8826,47.6107 29.3826,47.944 29,48.5C 27.7325,46.5764 27.7325,44.9097 29,43.5C 30.5206,43.5186 32.0206,43.852 33.5,44.5 Z"/></g>
<g><path style="opacity:1" fill="#010201" d="M 33.5,44.5 C 33.5,45.5 33.5,46.5 33.5,47.5C 32.5,47.5 31.5,47.5 30.5,47.5C 30.5,45.5 31.5,44.5 33.5,44.5 Z"/></g>
<g><path style="opacity:1" fill="#000000" d="M 44.5,45.5 C 43.6324,47.6246 42.6324,47.7913 41.5,46C 42.1765,44.3167 43.1765,44.1501 44.5,45.5 Z"/></g>
<g><path style="opacity:1" fill="#e8e8e8" d="M 36.5,46.5 C 37.4971,45.2875 38.4971,45.4542 39.5,47C 38.4232,47.4696 37.4232,47.3029 36.5,46.5 Z"/></g>
<g><path style="opacity:1" fill="#f3f3f3" d="M 46.5,46.5 C 47.7082,45.218 49.0416,45.218 50.5,46.5C 49.4425,46.9059 48.1092,46.9059 46.5,46.5 Z"/></g>
<g><path style="opacity:1" fill="#fafafa" d="M 12.5,51.5 C 13.0768,50.2267 13.7435,50.2267 14.5,51.5C 14.0302,52.463 13.3635,52.463 12.5,51.5 Z"/></g>
<g><path style="opacity:1" fill="#fcfcfc" d="M 18.5,51.5 C 19.7082,50.218 21.0416,50.218 22.5,51.5C 21.4425,51.9059 20.1092,51.9059 18.5,51.5 Z"/></g>
<g><path style="opacity:1" fill="#fefefe" d="M 27.5,51.5 C 28.6009,50.4017 29.9343,50.235 31.5,51C 30.436,52.5106 29.1026,52.6772 27.5,51.5 Z"/></g>
<g><path style="opacity:1" fill="#bebebe" d="M 48.5,51.5 C 49.0768,50.2267 49.7435,50.2267 50.5,51.5C 50.0302,52.463 49.3635,52.463 48.5,51.5 Z"/></g>
<g><path style="opacity:1" fill="#f9f9f9" d="M 33.5,51.5 C 35.6211,50.9518 37.6211,50.9518 39.5,51.5C 37.5405,52.5192 35.5405,52.5192 33.5,51.5 Z"/></g>
<g><path style="opacity:1" fill="#f3f3f3" d="M 45.5,50.5 C 47.9752,50.7467 47.9752,51.4134 45.5,52.5C 44.537,52.0302 44.537,51.3635 45.5,50.5 Z"/></g>
</svg>
