<?xml version="1.0" encoding="UTF-8"?>
<!DOCTYPE svg PUBLIC "-//W3C//DTD SVG 1.1//EN" "http://www.w3.org/Graphics/SVG/1.1/DTD/svg11.dtd">
<svg xmlns="http://www.w3.org/2000/svg" version="1.1" width="64px" height="64px" style="shape-rendering:geometricPrecision; text-rendering:geometricPrecision; image-rendering:optimizeQuality; fill-rule:evenodd; clip-rule:evenodd" xmlns:xlink="http://www.w3.org/1999/xlink">
<g><path style="opacity:1" fill="#373737" d="M 28.5,1.5 C 30.5273,1.33788 32.5273,1.50454 34.5,2C 37.0187,5.84749 38.1853,10.0142 38,14.5C 32.2375,20.3196 27.4042,19.6529 23.5,12.5C 25.367,8.88801 27.0337,5.22134 28.5,1.5 Z"/></g>
<g><path style="opacity:1" fill="#272727" d="M 43.5,21.5 C 40.9837,21.2447 38.6504,20.4114 36.5,19C 38.0488,17.786 39.2155,16.286 40,14.5C 41.705,16.5766 42.8717,18.91 43.5,21.5 Z"/></g>
<g><path style="opacity:1" fill="#454545" d="M 19.5,21.5 C 19.7553,18.9837 20.5886,16.6504 22,14.5C 23.0458,16.0905 24.2125,17.5905 25.5,19C 23.5932,20.122 21.5932,20.9553 19.5,21.5 Z"/></g>
<g><path style="opacity:0.243" fill="#7a7b7a" d="M 19.5,21.5 C 18.8333,22.1667 18.8333,22.1667 19.5,21.5 Z"/></g>
<g><path style="opacity:0.314" fill="#6b6c6b" d="M 43.5,21.5 C 44.8333,22.1667 44.8333,22.1667 43.5,21.5 Z"/></g>
<g><path style="opacity:0.511" fill="#3c3c3c" d="M 27.5,20.5 C 33.0916,20.0866 38.0916,21.5866 42.5,25C 34.8333,25.6667 27.1667,25.6667 19.5,25C 22.0993,23.205 24.7659,21.705 27.5,20.5 Z"/></g>
<g><path style="opacity:1" fill="#0a0a0a" d="M 35.5,27.5 C 39.1817,27.3347 42.8484,27.5014 46.5,28C 47.1667,28.6667 47.8333,29.3333 48.5,30C 43.5111,30.4993 38.5111,30.6659 33.5,30.5C 33.4936,29.5826 34.4936,29.0826 36.5,29C 35.944,28.6174 35.6107,28.1174 35.5,27.5 Z"/></g>
<g><path style="opacity:1" fill="#4d4d4d" d="M 35.5,27.5 C 35.6107,28.1174 35.944,28.6174 36.5,29C 34.4936,29.0826 33.4936,29.5826 33.5,30.5C 33.6665,40.5056 33.4998,50.5056 33,60.5C 31.9887,61.3366 30.8221,61.67 29.5,61.5C 29.5,51.1667 29.5,40.8333 29.5,30.5C 24.456,30.8275 19.456,30.4941 14.5,29.5C 14.7093,28.914 15.0426,28.414 15.5,28C 22.1583,27.5004 28.825,27.3337 35.5,27.5 Z"/></g>
<g><path style="opacity:1" fill="#131313" d="M 35.5,33.5 C 40.544,33.1725 45.544,33.5059 50.5,34.5C 54.1053,47.5732 49.4386,56.2398 36.5,60.5C 35.5067,51.6822 35.1734,42.6822 35.5,33.5 Z"/></g>
<g><path style="opacity:1" fill="#515151" d="M 14.5,32.5 C 19.0986,32.2 23.5986,32.5333 28,33.5C 28.6667,42.8333 28.6667,52.1667 28,61.5C 14.972,57.4273 9.63866,48.7607 12,35.5C 12.6979,34.3094 13.5313,33.3094 14.5,32.5 Z"/></g>
<g><path style="opacity:1" fill="#323232" d="M 53.5,41.5 C 54.7255,42.937 55.7255,44.6036 56.5,46.5C 55.6721,47.4147 54.6721,48.0814 53.5,48.5C 52.6365,46.2287 52.6365,43.8954 53.5,41.5 Z"/></g>
<g><path style="opacity:1" fill="#2c2c2c" d="M 8.5,42.5 C 9.28288,44.3432 9.94955,46.3432 10.5,48.5C 9.4425,48.9059 8.10917,48.9059 6.5,48.5C 6.60357,46.2972 7.27024,44.2972 8.5,42.5 Z"/></g>
<g><path style="opacity:0.227" fill="#838383" d="M 35.5,33.5 C 35.1734,42.6822 35.5067,51.6822 36.5,60.5C 36.44,61.0431 36.1067,61.3764 35.5,61.5C 34.1778,52.0082 34.1778,42.6749 35.5,33.5 Z"/></g>
<g><path style="opacity:0.999" fill="#141414" d="M 54.5,49.5 C 56.3904,49.2965 57.8904,49.9632 59,51.5C 63.5541,61.3009 60.5541,64.3009 50,60.5C 48.3926,55.4383 49.8926,51.7716 54.5,49.5 Z"/></g>
<g><path style="opacity:1" fill="#373737" d="M 4.5,50.5 C 12.0956,50.8984 14.4289,54.3984 11.5,61C 8.23973,61.7835 5.07307,61.6168 2,60.5C 1.91652,56.9806 2.74986,53.6473 4.5,50.5 Z"/></g>
<g><path style="opacity:1" fill="#282828" d="M 45.5,57.5 C 47.1765,58.1834 47.8432,59.5168 47.5,61.5C 45.4727,61.6621 43.4727,61.4955 41.5,61C 43.0931,60.0513 44.4264,58.8846 45.5,57.5 Z"/></g>
<g><path style="opacity:1" fill="#474747" d="M 15.5,57.5 C 22.4701,61.1285 22.1368,62.1285 14.5,60.5C 15.1272,59.5832 15.4606,58.5832 15.5,57.5 Z"/></g>
</svg>
