<?xml version="1.0" encoding="UTF-8"?>
<!DOCTYPE svg PUBLIC "-//W3C//DTD SVG 1.1//EN" "http://www.w3.org/Graphics/SVG/1.1/DTD/svg11.dtd">
<svg xmlns="http://www.w3.org/2000/svg" version="1.1" width="64px" height="64px" style="shape-rendering:geometricPrecision; text-rendering:geometricPrecision; image-rendering:optimizeQuality; fill-rule:evenodd; clip-rule:evenodd" xmlns:xlink="http://www.w3.org/1999/xlink">
<g><path style="opacity:1" fill="#1c1c1c" d="M -0.5,-0.5 C 20.8333,-0.5 42.1667,-0.5 63.5,-0.5C 63.5,20.8333 63.5,42.1667 63.5,63.5C 42.1667,63.5 20.8333,63.5 -0.5,63.5C -0.5,42.1667 -0.5,20.8333 -0.5,-0.5 Z"/></g>
<g><path style="opacity:1" fill="#fefffe" d="M 36.5,31.5 C 33.1667,31.5 29.8333,31.5 26.5,31.5C 26.5,28.8333 26.5,26.1667 26.5,23.5C 21.456,23.8275 16.456,23.4941 11.5,22.5C 10.1667,19.8333 8.83333,17.1667 7.5,14.5C 23.5,13.1667 39.5,13.1667 55.5,14.5C 54.1667,17.1667 52.8333,19.8333 51.5,22.5C 46.544,23.4941 41.544,23.8275 36.5,23.5C 36.5,26.1667 36.5,28.8333 36.5,31.5 Z"/></g>
<g><path style="opacity:1" fill="#f1f1f1" d="M 36.5,31.5 C 40.1817,31.3347 43.8484,31.5014 47.5,32C 45.7515,35.4991 43.7515,38.8324 41.5,42C 39.8659,42.4935 38.1992,42.6602 36.5,42.5C 33.1667,42.5 29.8333,42.5 26.5,42.5C 29.6248,41.5206 32.9581,41.1872 36.5,41.5C 36.5,38.1667 36.5,34.8333 36.5,31.5 Z"/></g>
<g><path style="opacity:1" fill="#fefefe" d="M 26.5,42.5 C 29.8333,42.5 33.1667,42.5 36.5,42.5C 37.6787,49.4124 36.012,55.4124 31.5,60.5C 27.1075,55.2875 25.4409,49.2875 26.5,42.5 Z"/></g>
</svg>
