<?xml version="1.0" encoding="UTF-8"?>
<!DOCTYPE svg PUBLIC "-//W3C//DTD SVG 1.1//EN" "http://www.w3.org/Graphics/SVG/1.1/DTD/svg11.dtd">
<svg xmlns="http://www.w3.org/2000/svg" version="1.1" width="64px" height="64px" style="shape-rendering:geometricPrecision; text-rendering:geometricPrecision; image-rendering:optimizeQuality; fill-rule:evenodd; clip-rule:evenodd" xmlns:xlink="http://www.w3.org/1999/xlink">
<g><path style="opacity:0.99" fill="#2a2a2b" d="M 25.5,-0.5 C 29.5,-0.5 33.5,-0.5 37.5,-0.5C 51.1932,3.19314 59.8598,11.8598 63.5,25.5C 63.5,29.5 63.5,33.5 63.5,37.5C 59.8598,51.1402 51.1932,59.8069 37.5,63.5C 33.5,63.5 29.5,63.5 25.5,63.5C 11.3979,59.7313 2.73124,50.7313 -0.5,36.5C -0.5,33.1667 -0.5,29.8333 -0.5,26.5C 2.73124,12.2687 11.3979,3.26871 25.5,-0.5 Z"/></g>
<g><path style="opacity:1" fill="#fb0181" d="M 28.5,7.5 C 46.6956,8.18947 55.1956,17.5228 54,35.5C 51.6667,33.8333 49.3333,32.1667 47,30.5C 44.579,18.536 37.4123,14.036 25.5,17C 18.0968,20.5146 15.2634,26.348 17,34.5C 21.966,31.6981 26.7993,28.6981 31.5,25.5C 39.0804,29.7409 46.4137,34.4075 53.5,39.5C 53.1498,42.4307 51.6498,44.4307 49,45.5C 44.683,42.8398 40.3497,40.1731 36,37.5C 35.5005,43.4908 35.3338,49.4908 35.5,55.5C 32.8333,55.5 30.1667,55.5 27.5,55.5C 27.6662,49.4908 27.4995,43.4908 27,37.5C 22.6503,40.1731 18.317,42.8398 14,45.5C 11.9743,44.4798 10.6409,42.8132 10,40.5C 5.45147,23.2659 11.6181,12.2659 28.5,7.5 Z"/></g>
</svg>
