<?xml version="1.0" encoding="UTF-8"?>
<!DOCTYPE svg PUBLIC "-//W3C//DTD SVG 1.1//EN" "http://www.w3.org/Graphics/SVG/1.1/DTD/svg11.dtd">
<svg xmlns="http://www.w3.org/2000/svg" version="1.1" width="64px" height="64px" style="shape-rendering:geometricPrecision; text-rendering:geometricPrecision; image-rendering:optimizeQuality; fill-rule:evenodd; clip-rule:evenodd" xmlns:xlink="http://www.w3.org/1999/xlink">
<g><path style="opacity:0.016" fill="#c6f2f4" d="M 22.5,11.5 C 28.3188,10.3475 34.3188,10.1808 40.5,11C 34.5092,11.4995 28.5092,11.6662 22.5,11.5 Z"/></g>
<g><path style="opacity:0.008" fill="#cdecf1" d="M 19.5,12.5 C 19.8966,11.475 20.5632,11.3083 21.5,12C 20.9056,12.4643 20.2389,12.631 19.5,12.5 Z"/></g>
<g><path style="opacity:0.012" fill="#fefffe" d="M 19.5,12.5 C 19.5,12.8333 19.5,13.1667 19.5,13.5C 18.8299,13.0187 18.8299,12.6853 19.5,12.5 Z"/></g>
<g><path style="opacity:0.343" fill="#c6eaf9" d="M 49.5,17.5 C 48.5,17.5 47.5,17.5 46.5,17.5C 38.8101,14.7334 30.8101,13.7334 22.5,14.5C 21.5,14.5 20.5,14.5 19.5,14.5C 19.5,14.1667 19.5,13.8333 19.5,13.5C 30.1839,11.0802 40.1839,12.4135 49.5,17.5 Z"/></g>
<g><path style="opacity:1" fill="#8bc5ea" d="M 22.5,15.5 C 22.5,15.1667 22.5,14.8333 22.5,14.5C 30.8101,13.7334 38.8101,14.7334 46.5,17.5C 46.5,17.8333 46.5,18.1667 46.5,18.5C 46.5,18.8333 46.5,19.1667 46.5,19.5C 45.8333,19.5 45.1667,19.5 44.5,19.5C 42.7496,18.1302 40.7496,17.1302 38.5,16.5C 34.3656,15.5151 30.0323,15.1818 25.5,15.5C 24.5,15.5 23.5,15.5 22.5,15.5 Z"/></g>
<g><path style="opacity:1" fill="#83c8f6" d="M 25.5,15.5 C 30.0323,15.1818 34.3656,15.5151 38.5,16.5C 34.774,16.1774 31.1073,16.5108 27.5,17.5C 27.6236,18.1067 27.9569,18.44 28.5,18.5C 28.5,19.1667 28.5,19.8333 28.5,20.5C 26.8656,19.7934 25.5323,18.6268 24.5,17C 25.056,16.6174 25.3893,16.1174 25.5,15.5 Z"/></g>
<g><path style="opacity:1" fill="#7ec9fb" d="M 38.5,16.5 C 40.7496,17.1302 42.7496,18.1302 44.5,19.5C 42.7839,19.3713 41.1172,19.038 39.5,18.5C 36.1456,16.8868 33.1456,17.2202 30.5,19.5C 29.8333,19.1667 29.1667,18.8333 28.5,18.5C 27.9569,18.44 27.6236,18.1067 27.5,17.5C 31.1073,16.5108 34.774,16.1774 38.5,16.5 Z"/></g>
<g><path style="opacity:1" fill="#c3e9f9" d="M 19.5,14.5 C 20.5,14.5 21.5,14.5 22.5,14.5C 22.5,14.8333 22.5,15.1667 22.5,15.5C 21.391,15.5569 20.391,15.8902 19.5,16.5C 17.2163,16.9752 15.2163,17.9752 13.5,19.5C 13.5,18.8333 13.5,18.1667 13.5,17.5C 15.1815,15.9925 17.1815,14.9925 19.5,14.5 Z"/></g>
<g><path style="opacity:1" fill="#88c7ef" d="M 22.5,15.5 C 23.5,15.5 24.5,15.5 25.5,15.5C 25.3893,16.1174 25.056,16.6174 24.5,17C 25.5323,18.6268 26.8656,19.7934 28.5,20.5C 29.1667,20.5 29.5,20.8333 29.5,21.5C 28.1667,21.5 26.8333,21.5 25.5,21.5C 25.3893,20.8826 25.056,20.3826 24.5,20C 22.5273,19.5045 20.5273,19.3379 18.5,19.5C 18.5569,18.391 18.8902,17.391 19.5,16.5C 20.391,15.8902 21.391,15.5569 22.5,15.5 Z"/></g>
<g><path style="opacity:1" fill="#78c8fc" d="M 39.5,18.5 C 38.0998,19.1001 37.0998,20.1001 36.5,21.5C 36.1667,21.5 35.8333,21.5 35.5,21.5C 34.1667,21.5 32.8333,21.5 31.5,21.5C 31.1667,20.8333 30.8333,20.1667 30.5,19.5C 33.1456,17.2202 36.1456,16.8868 39.5,18.5 Z"/></g>
<g><path style="opacity:0.392" fill="#cfeaf4" d="M 13.5,17.5 C 13.5,18.1667 13.5,18.8333 13.5,19.5C 13.1667,20.1667 12.8333,20.8333 12.5,21.5C 12.1667,21.5 11.8333,21.5 11.5,21.5C 11.1667,20.1667 10.8333,20.1667 10.5,21.5C 9.53537,20.2789 9.70204,18.9456 11,17.5C 11.7697,16.4019 12.603,16.4019 13.5,17.5 Z"/></g>
<g><path style="opacity:1" fill="#9cd1f1" d="M 17.5,20.5 C 17.5,20.1667 17.5,19.8333 17.5,19.5C 17.8333,19.5 18.1667,19.5 18.5,19.5C 20.5273,19.3379 22.5273,19.5045 24.5,20C 25.056,20.3826 25.3893,20.8826 25.5,21.5C 24.8333,21.5 24.1667,21.5 23.5,21.5C 21.5,21.1667 19.5,20.8333 17.5,20.5 Z"/></g>
<g><path style="opacity:1" fill="#7ac6f2" d="M 28.5,18.5 C 29.1667,18.8333 29.8333,19.1667 30.5,19.5C 30.8333,20.1667 31.1667,20.8333 31.5,21.5C 31.8016,24.0593 31.4682,26.3926 30.5,28.5C 30.7678,26.901 30.4345,25.5676 29.5,24.5C 30.625,23.3478 30.625,22.3478 29.5,21.5C 29.5,20.8333 29.1667,20.5 28.5,20.5C 28.5,19.8333 28.5,19.1667 28.5,18.5 Z"/></g>
<g><path style="opacity:0.988" fill="#689fc4" d="M 46.5,18.5 C 49.144,19.1439 50.8106,20.8106 51.5,23.5C 51.5,24.1667 51.1667,24.5 50.5,24.5C 49.5161,22.5201 48.1827,20.8534 46.5,19.5C 46.5,19.1667 46.5,18.8333 46.5,18.5 Z"/></g>
<g><path style="opacity:0.392" fill="#c2e2f2" d="M 54.5,22.5 C 54.1667,22.5 53.8333,22.5 53.5,22.5C 53.1667,21.1667 52.8333,21.1667 52.5,22.5C 52.5,22.8333 52.5,23.1667 52.5,23.5C 52.1667,23.5 51.8333,23.5 51.5,23.5C 50.8106,20.8106 49.144,19.1439 46.5,18.5C 46.5,18.1667 46.5,17.8333 46.5,17.5C 47.5,17.5 48.5,17.5 49.5,17.5C 50.1174,17.3893 50.6174,17.056 51,16.5C 52.4424,18.3911 53.6091,20.3911 54.5,22.5 Z"/></g>
<g><path style="opacity:1" fill="#b9e5f9" d="M 17.5,20.5 C 19.5,20.8333 21.5,21.1667 23.5,21.5C 24.9418,22.8195 25.6085,24.4862 25.5,26.5C 24.8333,26.8333 24.1667,27.1667 23.5,27.5C 22.791,26.596 21.791,26.2627 20.5,26.5C 20.7148,24.8212 20.0481,23.8212 18.5,23.5C 17.8902,22.609 17.5569,21.609 17.5,20.5 Z"/></g>
<g><path style="opacity:1" fill="#ade5fe" d="M 23.5,21.5 C 24.1667,21.5 24.8333,21.5 25.5,21.5C 26.8333,21.5 28.1667,21.5 29.5,21.5C 30.625,22.3478 30.625,23.3478 29.5,24.5C 27.8595,25.147 26.5261,26.147 25.5,27.5C 25.5,27.1667 25.5,26.8333 25.5,26.5C 25.6085,24.4862 24.9418,22.8195 23.5,21.5 Z"/></g>
<g><path style="opacity:1" fill="#56adf0" d="M 36.5,21.5 C 37.1667,21.5 37.8333,21.5 38.5,21.5C 38.5,22.5 38.5,23.5 38.5,24.5C 38.1205,27.5669 39.1205,28.5669 41.5,27.5C 41.3225,28.6948 40.9891,29.8615 40.5,31C 40.8361,32.0299 41.5028,32.5299 42.5,32.5C 42.5,32.8333 42.5,33.1667 42.5,33.5C 41.5,33.8333 40.8333,34.5 40.5,35.5C 40.1667,35.5 39.8333,35.5 39.5,35.5C 39.5,34.8333 39.5,34.1667 39.5,33.5C 39.0679,32.2905 38.4013,31.2905 37.5,30.5C 36.3995,29.3951 35.7329,28.0618 35.5,26.5C 36.4511,25.0813 36.7845,23.4147 36.5,21.5 Z"/></g>
<g><path style="opacity:1" fill="#56aef7" d="M 38.5,21.5 C 40.2646,20.5386 42.2646,20.2053 44.5,20.5C 44.6399,22.1238 43.9733,23.2904 42.5,24C 43.2524,24.6708 43.5858,25.5041 43.5,26.5C 42.8333,26.8333 42.1667,27.1667 41.5,27.5C 39.1205,28.5669 38.1205,27.5669 38.5,24.5C 39.4584,24.9528 40.2917,25.6195 41,26.5C 41.4935,24.8659 41.6602,23.1992 41.5,21.5C 40.5,21.5 39.5,21.5 38.5,21.5 Z"/></g>
<g><path style="opacity:1" fill="#6fbff5" d="M 39.5,18.5 C 41.1172,19.038 42.7839,19.3713 44.5,19.5C 45.1667,19.5 45.8333,19.5 46.5,19.5C 48.1827,20.8534 49.5161,22.5201 50.5,24.5C 51.9538,26.2633 51.6204,27.5967 49.5,28.5C 49.6499,24.9413 48.3166,23.2746 45.5,23.5C 45.7373,22.209 45.404,21.209 44.5,20.5C 42.2646,20.2053 40.2646,20.5386 38.5,21.5C 37.8333,21.5 37.1667,21.5 36.5,21.5C 37.0998,20.1001 38.0998,19.1001 39.5,18.5 Z"/></g>
<g><path style="opacity:0.992" fill="#83badd" d="M 19.5,16.5 C 18.8902,17.391 18.5569,18.391 18.5,19.5C 18.1667,19.5 17.8333,19.5 17.5,19.5C 16.2418,18.9836 15.2418,19.6503 14.5,21.5C 13.2745,22.937 12.2745,24.6036 11.5,26.5C 11.8555,27.5223 12.5222,28.189 13.5,28.5C 13.5,28.8333 13.5,29.1667 13.5,29.5C 12.8333,29.5 12.5,29.8333 12.5,30.5C 11.8333,30.1667 11.1667,29.8333 10.5,29.5C 10.1072,26.4867 10.7739,23.8201 12.5,21.5C 12.8333,20.8333 13.1667,20.1667 13.5,19.5C 15.2163,17.9752 17.2163,16.9752 19.5,16.5 Z"/></g>
<g><path style="opacity:1" fill="#53abe5" d="M 35.5,21.5 C 35.8333,21.5 36.1667,21.5 36.5,21.5C 36.7845,23.4147 36.4511,25.0813 35.5,26.5C 31.666,24.5732 31.666,22.9065 35.5,21.5 Z"/></g>
<g><path style="opacity:1" fill="#54abf8" d="M 38.5,21.5 C 39.5,21.5 40.5,21.5 41.5,21.5C 41.6602,23.1992 41.4935,24.8659 41,26.5C 40.2917,25.6195 39.4584,24.9528 38.5,24.5C 38.5,23.5 38.5,22.5 38.5,21.5 Z"/></g>
<g><path style="opacity:1" fill="#c8e7f5" d="M 10.5,21.5 C 10.8333,21.5 11.1667,21.5 11.5,21.5C 11.8333,21.5 12.1667,21.5 12.5,21.5C 10.7739,23.8201 10.1072,26.4867 10.5,29.5C 9.16667,29.5 7.83333,29.5 6.5,29.5C 6.33982,27.8008 6.50649,26.1341 7,24.5C 8.10357,23.6057 9.27023,22.6057 10.5,21.5 Z"/></g>
<g><path style="opacity:1" fill="#8fcdf4" d="M 17.5,19.5 C 17.5,19.8333 17.5,20.1667 17.5,20.5C 17.5569,21.609 17.8902,22.609 18.5,23.5C 19.3007,25.0418 19.634,26.7085 19.5,28.5C 17.5,27.1667 15.5,27.1667 13.5,28.5C 13.3433,27.1266 13.51,25.7932 14,24.5C 14.6543,25.6956 15.1543,25.6956 15.5,24.5C 14.8728,23.5832 14.5394,22.5832 14.5,21.5C 15.2418,19.6503 16.2418,18.9836 17.5,19.5 Z"/></g>
<g><path style="opacity:1" fill="#8bc8f4" d="M 14.5,21.5 C 14.5394,22.5832 14.8728,23.5832 15.5,24.5C 15.1543,25.6956 14.6543,25.6956 14,24.5C 13.51,25.7932 13.3433,27.1266 13.5,28.5C 12.5222,28.189 11.8555,27.5223 11.5,26.5C 12.2745,24.6036 13.2745,22.937 14.5,21.5 Z"/></g>
<g><path style="opacity:1" fill="#62b9fc" d="M 44.5,20.5 C 45.404,21.209 45.7373,22.209 45.5,23.5C 45.6427,25.2624 45.3094,26.9291 44.5,28.5C 45.6016,29.1757 46.6016,29.8423 47.5,30.5C 47.1667,30.5 46.8333,30.5 46.5,30.5C 42.8141,30.87 41.8141,29.5367 43.5,26.5C 43.5858,25.5041 43.2524,24.6708 42.5,24C 43.9733,23.2904 44.6399,22.1238 44.5,20.5 Z"/></g>
<g><path style="opacity:1" fill="#6cbefa" d="M 45.5,23.5 C 48.3166,23.2746 49.6499,24.9413 49.5,28.5C 49.1667,29.5 48.5,30.1667 47.5,30.5C 46.6016,29.8423 45.6016,29.1757 44.5,28.5C 45.3094,26.9291 45.6427,25.2624 45.5,23.5 Z"/></g>
<g><path style="opacity:0.004" fill="#c2d8e7" d="M 56.5,25.5 C 57.8333,26.1667 57.8333,26.8333 56.5,27.5C 56.5,26.8333 56.5,26.1667 56.5,25.5 Z"/></g>
<g><path style="opacity:1" fill="#b4e1f6" d="M 18.5,23.5 C 20.0481,23.8212 20.7148,24.8212 20.5,26.5C 21.791,26.2627 22.791,26.596 23.5,27.5C 22.791,28.404 21.791,28.7373 20.5,28.5C 20.1667,28.5 19.8333,28.5 19.5,28.5C 19.634,26.7085 19.3007,25.0418 18.5,23.5 Z"/></g>
<g><path style="opacity:1" fill="#aee4fd" d="M 25.5,26.5 C 25.5,26.8333 25.5,27.1667 25.5,27.5C 25.4431,28.609 25.1098,29.609 24.5,30.5C 22.5591,31.6793 21.2257,31.0127 20.5,28.5C 21.791,28.7373 22.791,28.404 23.5,27.5C 24.1667,27.1667 24.8333,26.8333 25.5,26.5 Z"/></g>
<g><path style="opacity:1" fill="#85c6ec" d="M 29.5,24.5 C 30.4345,25.5676 30.7678,26.901 30.5,28.5C 30.5,28.8333 30.5,29.1667 30.5,29.5C 29.8826,29.3893 29.3826,29.056 29,28.5C 28.1841,29.8228 27.0174,30.4894 25.5,30.5C 25.1667,30.5 24.8333,30.5 24.5,30.5C 25.1098,29.609 25.4431,28.609 25.5,27.5C 26.5261,26.147 27.8595,25.147 29.5,24.5 Z"/></g>
<g><path style="opacity:1" fill="#6fc1f6" d="M 31.5,21.5 C 32.8333,21.5 34.1667,21.5 35.5,21.5C 31.666,22.9065 31.666,24.5732 35.5,26.5C 35.7329,28.0618 36.3995,29.3951 37.5,30.5C 35.0897,29.5615 32.7564,29.5615 30.5,30.5C 30.5,30.1667 30.5,29.8333 30.5,29.5C 30.5,29.1667 30.5,28.8333 30.5,28.5C 31.4682,26.3926 31.8016,24.0593 31.5,21.5 Z"/></g>
<g><path style="opacity:0.522" fill="#cbe7f5" d="M 52.5,22.5 C 52.8333,22.5 53.1667,22.5 53.5,22.5C 53.8333,23.8333 54.1667,23.8333 54.5,22.5C 55.9063,22.9731 56.573,23.9731 56.5,25.5C 55.1667,26.1667 55.1667,26.8333 56.5,27.5C 56.631,28.2389 56.4643,28.9056 56,29.5C 55.0138,28.8288 53.8471,28.8288 52.5,29.5C 53.8333,27.5 53.8333,25.5 52.5,23.5C 52.5,23.1667 52.5,22.8333 52.5,22.5 Z"/></g>
<g><path style="opacity:1" fill="#86ccf9" d="M 19.5,28.5 C 19.8333,28.5 20.1667,28.5 20.5,28.5C 21.2257,31.0127 22.5591,31.6793 24.5,30.5C 24.8333,30.5 25.1667,30.5 25.5,30.5C 25.5,31.1667 25.5,31.8333 25.5,32.5C 24.5,32.5 23.5,32.5 22.5,32.5C 21.1667,32.1667 19.8333,31.8333 18.5,31.5C 17.713,29.8958 16.3797,29.2291 14.5,29.5C 14.1667,29.5 13.8333,29.5 13.5,29.5C 13.5,29.1667 13.5,28.8333 13.5,28.5C 15.5,27.1667 17.5,27.1667 19.5,28.5 Z"/></g>
<g><path style="opacity:1" fill="#5db6fa" d="M 43.5,26.5 C 41.8141,29.5367 42.8141,30.87 46.5,30.5C 45.3285,31.3446 43.9952,32.0113 42.5,32.5C 41.5028,32.5299 40.8361,32.0299 40.5,31C 40.9891,29.8615 41.3225,28.6948 41.5,27.5C 42.1667,27.1667 42.8333,26.8333 43.5,26.5 Z"/></g>
<g><path style="opacity:0.992" fill="#6fabd7" d="M 51.5,23.5 C 51.8333,23.5 52.1667,23.5 52.5,23.5C 53.8333,25.5 53.8333,27.5 52.5,29.5C 50.7356,30.326 49.4023,31.6593 48.5,33.5C 47.8333,33.8333 47.1667,34.1667 46.5,34.5C 46.8333,33.1667 47.1667,31.8333 47.5,30.5C 48.5,30.1667 49.1667,29.5 49.5,28.5C 51.6204,27.5967 51.9538,26.2633 50.5,24.5C 51.1667,24.5 51.5,24.1667 51.5,23.5 Z"/></g>
<g><path style="opacity:0.365" fill="#c7eaf8" d="M 10.5,29.5 C 11.1667,29.8333 11.8333,30.1667 12.5,30.5C 15.2154,33.2139 17.5488,36.2139 19.5,39.5C 19.5,39.8333 19.5,40.1667 19.5,40.5C 19.1667,40.5 18.8333,40.5 18.5,40.5C 18.5,39.8333 18.1667,39.5 17.5,39.5C 16.8333,39.5 16.1667,39.5 15.5,39.5C 16.1236,37.4947 15.2903,35.8281 13,34.5C 12.6667,34.8333 12.3333,35.1667 12,35.5C 10.9542,33.9095 9.78749,32.4095 8.5,31C 9.4158,30.7216 10.0825,30.2216 10.5,29.5 Z"/></g>
<g><path style="opacity:1" fill="#79c2fd" d="M 37.5,30.5 C 38.4013,31.2905 39.0679,32.2905 39.5,33.5C 38.1667,33.5 36.8333,33.5 35.5,33.5C 33.4687,33.0276 31.8021,32.0276 30.5,30.5C 32.7564,29.5615 35.0897,29.5615 37.5,30.5 Z"/></g>
<g><path style="opacity:1" fill="#49a7ed" d="M 46.5,30.5 C 46.8333,30.5 47.1667,30.5 47.5,30.5C 47.1667,31.8333 46.8333,33.1667 46.5,34.5C 44.901,34.7678 43.5676,34.4345 42.5,33.5C 42.5,33.1667 42.5,32.8333 42.5,32.5C 43.9952,32.0113 45.3285,31.3446 46.5,30.5 Z"/></g>
<g><path style="opacity:1" fill="#60a3cf" d="M 13.5,29.5 C 13.8333,29.5 14.1667,29.5 14.5,29.5C 15.1237,31.754 16.457,33.4206 18.5,34.5C 19.5025,36.0109 20.1692,37.6776 20.5,39.5C 20.1667,39.5 19.8333,39.5 19.5,39.5C 17.5488,36.2139 15.2154,33.2139 12.5,30.5C 12.5,29.8333 12.8333,29.5 13.5,29.5 Z"/></g>
<g><path style="opacity:1" fill="#54aae1" d="M 14.5,29.5 C 16.3797,29.2291 17.713,29.8958 18.5,31.5C 18.5,32.5 18.5,33.5 18.5,34.5C 16.457,33.4206 15.1237,31.754 14.5,29.5 Z"/></g>
<g><path style="opacity:1" fill="#7fc2f7" d="M 30.5,29.5 C 30.5,29.8333 30.5,30.1667 30.5,30.5C 31.8021,32.0276 33.4687,33.0276 35.5,33.5C 32.1667,33.5 28.8333,33.5 25.5,33.5C 25.5,33.1667 25.5,32.8333 25.5,32.5C 25.5,31.8333 25.5,31.1667 25.5,30.5C 27.0174,30.4894 28.1841,29.8228 29,28.5C 29.3826,29.056 29.8826,29.3893 30.5,29.5 Z"/></g>
<g><path style="opacity:0.212" fill="#c9eaf5" d="M 52.5,29.5 C 55.0983,30.4722 55.0983,31.4722 52.5,32.5C 52.1667,31.1667 51.8333,31.1667 51.5,32.5C 50.8333,32.5 50.5,32.8333 50.5,33.5C 49.8333,33.5 49.5,33.8333 49.5,34.5C 49.1667,34.5 48.8333,34.5 48.5,34.5C 48.5,34.1667 48.5,33.8333 48.5,33.5C 49.4023,31.6593 50.7356,30.326 52.5,29.5 Z"/></g>
<g><path style="opacity:0.016" fill="#c4f2f3" d="M 51.5,32.5 C 51.8333,32.5 52.1667,32.5 52.5,32.5C 52.3147,33.1701 51.9813,33.1701 51.5,32.5 Z"/></g>
<g><path style="opacity:1" fill="#51a7e2" d="M 18.5,31.5 C 19.8333,31.8333 21.1667,32.1667 22.5,32.5C 23.2341,33.7079 23.5674,35.0413 23.5,36.5C 23.6567,37.8734 23.49,39.2068 23,40.5C 22.6582,38.3808 21.8249,38.0474 20.5,39.5C 20.1692,37.6776 19.5025,36.0109 18.5,34.5C 18.5,33.5 18.5,32.5 18.5,31.5 Z"/></g>
<g><path style="opacity:1" fill="#84cbfe" d="M 25.5,33.5 C 28.8333,33.5 32.1667,33.5 35.5,33.5C 36.8333,33.5 38.1667,33.5 39.5,33.5C 39.5,34.1667 39.5,34.8333 39.5,35.5C 39.1667,35.5 38.8333,35.5 38.5,35.5C 38.44,34.9569 38.1067,34.6236 37.5,34.5C 36.265,35.3398 35.265,36.3398 34.5,37.5C 34.0744,35.7151 32.9078,34.7151 31,34.5C 29.6244,34.6842 28.7911,35.3509 28.5,36.5C 27.8333,36.1667 27.1667,35.8333 26.5,35.5C 26.1667,34.8333 25.8333,34.1667 25.5,33.5 Z"/></g>
<g><path style="opacity:0.016" fill="#c4f2f3" d="M 50.5,33.5 C 50.8333,33.5 51.1667,33.5 51.5,33.5C 51.3147,34.1701 50.9813,34.1701 50.5,33.5 Z"/></g>
<g><path style="opacity:1" fill="#80cdfd" d="M 22.5,32.5 C 23.5,32.5 24.5,32.5 25.5,32.5C 25.5,32.8333 25.5,33.1667 25.5,33.5C 25.8333,34.1667 26.1667,34.8333 26.5,35.5C 26.5,36.8333 25.8333,37.5 24.5,37.5C 24.5,36.8333 24.1667,36.5 23.5,36.5C 23.5674,35.0413 23.2341,33.7079 22.5,32.5 Z"/></g>
<g><path style="opacity:1" fill="#8bcdfc" d="M 34.5,37.5 C 34.5,37.8333 34.5,38.1667 34.5,38.5C 33.8333,38.1667 33.1667,37.8333 32.5,37.5C 31.4324,36.5655 30.099,36.2322 28.5,36.5C 28.7911,35.3509 29.6244,34.6842 31,34.5C 32.9078,34.7151 34.0744,35.7151 34.5,37.5 Z"/></g>
<g><path style="opacity:1" fill="#83cffd" d="M 38.5,35.5 C 37.8333,37.5 37.1667,39.5 36.5,41.5C 35.5084,41.6716 34.8417,41.3382 34.5,40.5C 34.5,39.8333 34.5,39.1667 34.5,38.5C 34.5,38.1667 34.5,37.8333 34.5,37.5C 35.265,36.3398 36.265,35.3398 37.5,34.5C 38.1067,34.6236 38.44,34.9569 38.5,35.5 Z"/></g>
<g><path style="opacity:0.592" fill="#bce3f4" d="M 48.5,33.5 C 48.5,33.8333 48.5,34.1667 48.5,34.5C 48.8333,35.8333 49.1667,35.8333 49.5,34.5C 49.8333,34.5 50.1667,34.5 50.5,34.5C 50.573,36.0269 49.9063,37.0269 48.5,37.5C 48.1667,36.1667 47.8333,36.1667 47.5,37.5C 47.1667,37.5 46.8333,37.5 46.5,37.5C 45.8333,37.5 45.1667,37.5 44.5,37.5C 44.5,37.1667 44.5,36.8333 44.5,36.5C 45.5,36.1667 46.1667,35.5 46.5,34.5C 47.1667,34.1667 47.8333,33.8333 48.5,33.5 Z"/></g>
<g><path style="opacity:1" fill="#53a7e2" d="M 42.5,33.5 C 43.5676,34.4345 44.901,34.7678 46.5,34.5C 46.1667,35.5 45.5,36.1667 44.5,36.5C 43.2223,36.7822 42.2223,37.4489 41.5,38.5C 40.8902,37.609 40.5569,36.609 40.5,35.5C 40.8333,34.5 41.5,33.8333 42.5,33.5 Z"/></g>
<g><path style="opacity:1" fill="#80cbf7" d="M 26.5,35.5 C 27.1667,35.8333 27.8333,36.1667 28.5,36.5C 26.5989,37.935 26.2655,39.6017 27.5,41.5C 27.5,42.8333 27.5,44.1667 27.5,45.5C 26.8333,44.1667 26.1667,42.8333 25.5,41.5C 24.7659,40.2921 24.4326,38.9587 24.5,37.5C 25.8333,37.5 26.5,36.8333 26.5,35.5 Z"/></g>
<g><path style="opacity:1" fill="#8cccf3" d="M 28.5,36.5 C 30.099,36.2322 31.4324,36.5655 32.5,37.5C 32.4431,38.609 32.1098,39.609 31.5,40.5C 30.2921,41.2341 28.9587,41.5674 27.5,41.5C 26.2655,39.6017 26.5989,37.935 28.5,36.5 Z"/></g>
<g><path style="opacity:0.016" fill="#c4f2f3" d="M 47.5,37.5 C 47.8333,37.5 48.1667,37.5 48.5,37.5C 48.3147,38.1701 47.9813,38.1701 47.5,37.5 Z"/></g>
<g><path style="opacity:0.012" fill="#b5d6f7" d="M 46.5,38.5 C 46.8333,38.5 47.1667,38.5 47.5,38.5C 47.3147,39.1701 46.9813,39.1701 46.5,38.5 Z"/></g>
<g><path style="opacity:1" fill="#56a9e4" d="M 38.5,35.5 C 38.8333,35.5 39.1667,35.5 39.5,35.5C 39.8333,35.5 40.1667,35.5 40.5,35.5C 40.5569,36.609 40.8902,37.609 41.5,38.5C 40.0687,39.7804 39.4021,41.4471 39.5,43.5C 38.609,42.8902 37.609,42.5569 36.5,42.5C 36.5,42.1667 36.5,41.8333 36.5,41.5C 37.1667,39.5 37.8333,37.5 38.5,35.5 Z"/></g>
<g><path style="opacity:1" fill="#65a6d7" d="M 44.5,36.5 C 44.5,36.8333 44.5,37.1667 44.5,37.5C 42.8036,39.5248 41.137,41.5248 39.5,43.5C 39.4021,41.4471 40.0687,39.7804 41.5,38.5C 42.2223,37.4489 43.2223,36.7822 44.5,36.5 Z"/></g>
<g><path style="opacity:0.012" fill="#b5d6f7" d="M 45.5,39.5 C 45.8333,39.5 46.1667,39.5 46.5,39.5C 46.3147,40.1701 45.9813,40.1701 45.5,39.5 Z"/></g>
<g><path style="opacity:1" fill="#5ba7d7" d="M 23.5,36.5 C 24.1667,36.5 24.5,36.8333 24.5,37.5C 24.4326,38.9587 24.7659,40.2921 25.5,41.5C 24.3684,42.3543 23.035,42.3543 21.5,41.5C 21.1667,40.8333 20.8333,40.1667 20.5,39.5C 21.8249,38.0474 22.6582,38.3808 23,40.5C 23.49,39.2068 23.6567,37.8734 23.5,36.5 Z"/></g>
<g><path style="opacity:0.941" fill="#bfe4f5" d="M 15.5,39.5 C 16.1667,39.5 16.8333,39.5 17.5,39.5C 18.1667,39.5 18.5,39.8333 18.5,40.5C 18.8333,41.8333 19.1667,41.8333 19.5,40.5C 19.5,40.1667 19.5,39.8333 19.5,39.5C 19.8333,39.5 20.1667,39.5 20.5,39.5C 20.8333,40.1667 21.1667,40.8333 21.5,41.5C 22.1667,42.5 22.8333,43.5 23.5,44.5C 23.1667,44.5 22.8333,44.5 22.5,44.5C 22.1667,44.5 21.8333,44.5 21.5,44.5C 19.1807,43.909 17.1807,42.2423 15.5,39.5 Z"/></g>
<g><path style="opacity:1" fill="#8dccf6" d="M 32.5,37.5 C 33.1667,37.8333 33.8333,38.1667 34.5,38.5C 34.5,39.1667 34.5,39.8333 34.5,40.5C 33.2801,42.0496 33.2801,43.7163 34.5,45.5C 32.9731,45.573 31.9731,44.9063 31.5,43.5C 31.5,42.5 31.5,41.5 31.5,40.5C 32.1098,39.609 32.4431,38.609 32.5,37.5 Z"/></g>
<g><path style="opacity:1" fill="#84cbf3" d="M 34.5,40.5 C 34.8417,41.3382 35.5084,41.6716 36.5,41.5C 36.5,41.8333 36.5,42.1667 36.5,42.5C 36.7373,43.791 36.404,44.791 35.5,45.5C 35.1667,45.5 34.8333,45.5 34.5,45.5C 33.2801,43.7163 33.2801,42.0496 34.5,40.5 Z"/></g>
<g><path style="opacity:0.769" fill="#c5e8f4" d="M 44.5,37.5 C 45.1667,37.5 45.8333,37.5 46.5,37.5C 46.5,37.8333 46.5,38.1667 46.5,38.5C 45.8333,38.5 45.5,38.8333 45.5,39.5C 44.1667,39.8333 44.1667,40.1667 45.5,40.5C 45.2624,42.4044 44.2624,43.7377 42.5,44.5C 42.1667,43.1667 41.8333,43.1667 41.5,44.5C 40.8333,44.5 40.5,44.8333 40.5,45.5C 39.8333,45.5 39.5,45.8333 39.5,46.5C 38.8333,46.5 38.5,46.8333 38.5,47.5C 37.8333,47.5 37.5,47.8333 37.5,48.5C 37.1667,48.5 36.8333,48.5 36.5,48.5C 36.1667,48.5 35.8333,48.5 35.5,48.5C 35.5,48.1667 35.5,47.8333 35.5,47.5C 37.1667,46.5 38.5,45.1667 39.5,43.5C 41.137,41.5248 42.8036,39.5248 44.5,37.5 Z"/></g>
<g><path style="opacity:1" fill="#69aed5" d="M 21.5,41.5 C 23.035,42.3543 24.3684,42.3543 25.5,41.5C 26.1667,42.8333 26.8333,44.1667 27.5,45.5C 27.5,45.8333 27.5,46.1667 27.5,46.5C 27.5,46.8333 27.5,47.1667 27.5,47.5C 26.1667,46.5 24.8333,45.5 23.5,44.5C 22.8333,43.5 22.1667,42.5 21.5,41.5 Z"/></g>
<g><path style="opacity:1" fill="#8cccfb" d="M 31.5,40.5 C 31.5,41.5 31.5,42.5 31.5,43.5C 30.7638,45.2294 29.4305,46.2294 27.5,46.5C 27.5,46.1667 27.5,45.8333 27.5,45.5C 27.5,44.1667 27.5,42.8333 27.5,41.5C 28.9587,41.5674 30.2921,41.2341 31.5,40.5 Z"/></g>
<g><path style="opacity:0.992" fill="#6facd3" d="M 36.5,42.5 C 37.609,42.5569 38.609,42.8902 39.5,43.5C 38.5,45.1667 37.1667,46.5 35.5,47.5C 35.5,46.8333 35.5,46.1667 35.5,45.5C 36.404,44.791 36.7373,43.791 36.5,42.5 Z"/></g>
<g><path style="opacity:0.329" fill="#c2ebf4" d="M 22.5,44.5 C 22.8333,44.5 23.1667,44.5 23.5,44.5C 24.8333,45.5 26.1667,46.5 27.5,47.5C 27.5,47.8333 27.5,48.1667 27.5,48.5C 26.8333,48.5 26.1667,48.5 25.5,48.5C 24.603,49.5981 23.7697,49.5981 23,48.5C 22.51,47.2068 22.3433,45.8734 22.5,44.5 Z"/></g>
<g><path style="opacity:0.012" fill="#fefffe" d="M 41.5,44.5 C 41.8333,44.5 42.1667,44.5 42.5,44.5C 42.3147,45.1701 41.9813,45.1701 41.5,44.5 Z"/></g>
<g><path style="opacity:0.004" fill="#d0e2ef" d="M 21.5,44.5 C 21.631,45.2389 21.4643,45.9056 21,46.5C 20.3083,45.5632 20.475,44.8966 21.5,44.5 Z"/></g>
<g><path style="opacity:0.008" fill="#d2f7f6" d="M 40.5,45.5 C 40.8333,45.5 41.1667,45.5 41.5,45.5C 41.3147,46.1701 40.9813,46.1701 40.5,45.5 Z"/></g>
<g><path style="opacity:1" fill="#92c8ed" d="M 31.5,43.5 C 31.9731,44.9063 32.9731,45.573 34.5,45.5C 34.8333,45.5 35.1667,45.5 35.5,45.5C 35.5,46.1667 35.5,46.8333 35.5,47.5C 35.5,47.8333 35.5,48.1667 35.5,48.5C 35.1667,48.5 34.8333,48.5 34.5,48.5C 32.1667,48.5 29.8333,48.5 27.5,48.5C 27.5,48.1667 27.5,47.8333 27.5,47.5C 27.5,47.1667 27.5,46.8333 27.5,46.5C 29.4305,46.2294 30.7638,45.2294 31.5,43.5 Z"/></g>
<g><path style="opacity:0.012" fill="#fefffe" d="M 39.5,46.5 C 39.8333,46.5 40.1667,46.5 40.5,46.5C 40.3147,47.1701 39.9813,47.1701 39.5,46.5 Z"/></g>
<g><path style="opacity:0.027" fill="#ebf9fe" d="M 38.5,47.5 C 38.8333,47.5 39.1667,47.5 39.5,47.5C 39.3147,48.1701 38.9813,48.1701 38.5,47.5 Z"/></g>
<g><path style="opacity:0.812" fill="#ceebf6" d="M 25.5,48.5 C 26.1667,48.5 26.8333,48.5 27.5,48.5C 29.9564,52.2555 32.2897,52.2555 34.5,48.5C 34.8333,48.5 35.1667,48.5 35.5,48.5C 35.8333,48.5 36.1667,48.5 36.5,48.5C 36.8333,49.8333 37.1667,49.8333 37.5,48.5C 37.8333,48.5 38.1667,48.5 38.5,48.5C 38.573,50.0269 37.9063,51.0269 36.5,51.5C 36.1667,50.1667 35.8333,50.1667 35.5,51.5C 34.1667,51.8333 34.1667,52.1667 35.5,52.5C 35.1667,53.5 34.5,54.1667 33.5,54.5C 30.0385,53.7234 27.3718,51.7234 25.5,48.5 Z"/></g>
<g><path style="opacity:1" fill="#99c8e6" d="M 27.5,48.5 C 29.8333,48.5 32.1667,48.5 34.5,48.5C 32.2897,52.2555 29.9564,52.2555 27.5,48.5 Z"/></g>
<g><path style="opacity:0.008" fill="#d2f7f6" d="M 35.5,51.5 C 35.8333,51.5 36.1667,51.5 36.5,51.5C 36.3147,52.1701 35.9813,52.1701 35.5,51.5 Z"/></g>
<g><path style="opacity:0.004" fill="#cde0f0" d="M 33.5,54.5 C 32.3991,55.5983 31.0657,55.765 29.5,55C 30.7932,54.51 32.1266,54.3433 33.5,54.5 Z"/></g>
</svg>
