<!-- by TradingView --><svg width="56" height="56" viewBox="0 0 56 56" xmlns="http://www.w3.org/2000/svg"><path fill="#181B1E" d="M0 0h56v56H0z"/><path d="M36.55 39.23c1.2-3 1.8-6.92 1.8-11.23 0-4.35-.68-8.32-1.96-11.32a13 13 0 0 1 .16 22.55Zm0 0c-1.43 3.54-3.7 5.77-6.79 5.77C19.96 45 12 37.39 12 28s7.95-17 17.76-17c2.89 0 5.15 2.2 6.63 5.68a13 13 0 1 0 .16 22.56Z" fill="url(#a)"/><defs><linearGradient id="a" x1="37.6" y1="16.55" x2="16.61" y2="40.23" gradientUnits="userSpaceOnUse"><stop stop-color="#FCF5FF"/><stop offset="1" stop-color="#F0C3FF"/></linearGradient></defs></svg>