<?xml version="1.0" encoding="UTF-8"?>
<!DOCTYPE svg PUBLIC "-//W3C//DTD SVG 1.1//EN" "http://www.w3.org/Graphics/SVG/1.1/DTD/svg11.dtd">
<svg xmlns="http://www.w3.org/2000/svg" version="1.1" width="64px" height="64px" style="shape-rendering:geometricPrecision; text-rendering:geometricPrecision; image-rendering:optimizeQuality; fill-rule:evenodd; clip-rule:evenodd" xmlns:xlink="http://www.w3.org/1999/xlink">
<g><path style="opacity:1" fill="#000000" d="M -0.5,-0.5 C 20.8333,-0.5 42.1667,-0.5 63.5,-0.5C 63.5,20.8333 63.5,42.1667 63.5,63.5C 42.1667,63.5 20.8333,63.5 -0.5,63.5C -0.5,42.1667 -0.5,20.8333 -0.5,-0.5 Z"/></g>
<g><path style="opacity:1" fill="#0ed5ad" d="M 15.5,16.5 C 18.8984,16.1796 22.2317,16.513 25.5,17.5C 26.5014,20.1732 28.0014,22.5065 30,24.5C 31.6258,22.0829 33.1258,19.5829 34.5,17C 37.8823,16.1764 41.2156,16.343 44.5,17.5C 46.0426,20.086 47.7093,22.586 49.5,25C 47.7093,27.414 46.0426,29.914 44.5,32.5C 42.7236,30.4622 41.0569,28.2955 39.5,26C 36.4459,25.1786 33.4459,25.3452 30.5,26.5C 33.7516,31.3343 36.7516,36.3343 39.5,41.5C 37.7997,44.0387 36.2997,46.7053 35,49.5C 30.0822,41.9999 25.4155,34.3333 21,26.5C 17.5894,25.7069 14.0894,25.2069 10.5,25C 12.0521,22.0568 13.7188,19.2235 15.5,16.5 Z"/></g>
</svg>
