<!-- by TradingView --><svg width="56" height="56" viewBox="0 0 56 56" xmlns="http://www.w3.org/2000/svg"><path fill="#04BF8F" d="M0 0h56v56H0z"/><path d="M32.6 32.08a.04.04 0 0 0 0-.03.04.04 0 0 0-.01-.02c-3.86-2.12-5.72-6.55-5.6-11.02.1-3.44 1.78-6.86 5.18-7.74 2.23-.58 5.03-.28 6.77 1.45a7.01 7.01 0 0 1 1.9 3.97 14.4 14.4 0 0 1-.91 7.56.1.1 0 0 1-.04.02c-1.64.33-3.35 0-4.4-1.43a.17.17 0 0 1-.02-.16c.5-1.68 1.22-5.7-.7-6.7-1-.5-2.02.07-2.48 1.1-.71 1.58-.48 4.1.11 5.69 1.34 3.6 4.63 4.91 8.08 4.25l.45-.08c.05 0 .07.02.07.06v3.72l-.03.01a16.4 16.4 0 0 1-3.62.44 20.53 20.53 0 0 1-8.5 11.2c-1.3 1-2.6.72-3.83-.22a15.84 15.84 0 0 1-2.95-3c-2.84-3.72-4.74-8.22-6-12.79A67.37 67.37 0 0 1 14 18.07c0-.04.01-.07.06-.07h5.13s.02 0 .03.02l.01.03a56.73 56.73 0 0 0 2.28 10.9 33.4 33.4 0 0 0 5.78 10.86.07.07 0 0 0 .06 0l.03-.02a30.6 30.6 0 0 0 5.23-7.7Z" fill="#fff"/></svg>