<!-- by TradingView --><svg width="56" height="56" viewBox="0 0 56 56" xmlns="http://www.w3.org/2000/svg"><path fill="url(#a)" d="M0 0h56v56H0z"/><path fill-rule="evenodd" d="M33.98 19.75a7.14 7.14 0 0 0-2.47-2.78 6.53 6.53 0 0 0-6.55-.2 7.42 7.42 0 0 0-3.11 3.03 6.1 6.1 0 0 0-.64 4.61c.25 1 .73 1.93 1.44 2.81a8.42 8.42 0 0 0 6.78 3.17.1.1 0 0 1 .09.06.1.1 0 0 1 0 .1 25.73 25.73 0 0 1-2.37 4.1c-.04.05-.08.05-.12-.01a98.5 98.5 0 0 0-.76-1.16l-.04-.06-.1-.15a27.28 27.28 0 0 0-4.22-4.9 25.12 25.12 0 0 0-10.29-5.81c-.32-.1-.96-.22-1.94-.39-.18-.03-.31-.02-.4.02-.2.09-.3.23-.28.44.02.2.12.35.31.45A31.14 31.14 0 0 1 23.6 37.93l.12.26a110.53 110.53 0 0 1 .32.74c.2.45.36.77.5.95.38.5.88.83 1.52 1 1.13.3 2.1.04 2.89-.79a26.67 26.67 0 0 0 3.16-4.14 22.8 22.8 0 0 0 2.79-6.42.2.2 0 0 1 .12-.14 24.52 24.52 0 0 0 7.74-4.7c.17-.15.27-.27.29-.36a.53.53 0 0 0-.07-.42c-.08-.15-.2-.22-.36-.2a.73.73 0 0 0-.32.1 25.44 25.44 0 0 1-6.85 2.93c-.05.01-.07 0-.07-.06.1-2.08-.2-4.08-.94-6a7.72 7.72 0 0 0-.45-.93Zm-4.66 7.49 1.24.16h.04c.02-.02.03-.03.03-.05.32-1.27.4-2.54.24-3.81a5.93 5.93 0 0 0-1.1-2.8 2.26 2.26 0 0 0-2.1-.85c-.81.08-1.5.43-2.05 1.06-.75.85-.93 1.81-.54 2.9.33.95.88 1.72 1.64 2.3.72.57 1.59.93 2.6 1.09Z" fill="url(#b)"/><path d="M44.64 21.74c.17-.16.39-.28.64-.36.27-.09.52-.11.77-.08.6.07.92.41.95 1.03.02.38-.09.73-.32 1.05-.22.3-.51.5-.87.61a.96.96 0 0 1-.82-.1c-.23-.14-.4-.37-.49-.67-.1-.33-.15-.6-.15-.8 0-.28.1-.5.29-.68Z" fill="url(#c)"/><defs><linearGradient id="a" x1="4.24" y1="15.2" x2="47.35" y2="49.81" gradientUnits="userSpaceOnUse"><stop stop-color="#CEF4EE"/><stop offset="1" stop-color="#EBFDD9"/></linearGradient><linearGradient id="b" x1="11.36" y1="22.84" x2="31.81" y2="39.86" gradientUnits="userSpaceOnUse"><stop stop-color="#379D9F"/><stop offset="1" stop-color="#328F8F"/></linearGradient><linearGradient id="c" x1="11.36" y1="22.84" x2="31.81" y2="39.86" gradientUnits="userSpaceOnUse"><stop stop-color="#379D9F"/><stop offset="1" stop-color="#328F8F"/></linearGradient></defs></svg>