<?xml version="1.0" encoding="UTF-8"?>
<!DOCTYPE svg PUBLIC "-//W3C//DTD SVG 1.1//EN" "http://www.w3.org/Graphics/SVG/1.1/DTD/svg11.dtd">
<svg xmlns="http://www.w3.org/2000/svg" version="1.1" width="64px" height="64px" style="shape-rendering:geometricPrecision; text-rendering:geometricPrecision; image-rendering:optimizeQuality; fill-rule:evenodd; clip-rule:evenodd" xmlns:xlink="http://www.w3.org/1999/xlink">
<g><path style="opacity:0.995" fill="#e9204e" d="M 25.5,-0.5 C 29.5,-0.5 33.5,-0.5 37.5,-0.5C 51.1667,3.16667 59.8333,11.8333 63.5,25.5C 63.5,29.5 63.5,33.5 63.5,37.5C 59.8333,51.1667 51.1667,59.8333 37.5,63.5C 33.5,63.5 29.5,63.5 25.5,63.5C 11.8333,59.8333 3.16667,51.1667 -0.5,37.5C -0.5,33.5 -0.5,29.5 -0.5,25.5C 3.16667,11.8333 11.8333,3.16667 25.5,-0.5 Z"/></g>
<g><path style="opacity:1" fill="#fefefe" d="M 14.5,20.5 C 17.9758,19.3567 21.6425,19.1901 25.5,20C 25.9574,20.414 26.2907,20.914 26.5,21.5C 29.1667,22.1667 31.8333,22.8333 34.5,23.5C 34.2907,24.086 33.9574,24.586 33.5,25C 27.1667,25.6667 20.8333,25.6667 14.5,25C 13.4477,23.2835 14.1144,22.2835 16.5,22C 15.9558,21.2828 15.2891,20.7828 14.5,20.5 Z"/></g>
<g><path style="opacity:1" fill="#fefbfb" d="M 38.5,19.5 C 42.226,19.1774 45.8927,19.5108 49.5,20.5C 45.6447,29.045 41.6447,37.545 37.5,46C 33.7887,46.8253 30.122,46.6586 26.5,45.5C 23.9306,41.0332 21.9306,36.3665 20.5,31.5C 24.7826,30.9894 28.7826,31.6561 32.5,33.5C 35.0582,29.0526 37.0582,24.3859 38.5,19.5 Z"/></g>
<g><path style="opacity:1" fill="#fefefe" d="M 15.5,28.5 C 21.0129,27.1843 26.6796,27.1843 32.5,28.5C 26.7799,29.7851 21.1133,29.7851 15.5,28.5 Z"/></g>
</svg>
