<?xml version="1.0" encoding="UTF-8"?>
<!DOCTYPE svg PUBLIC "-//W3C//DTD SVG 1.1//EN" "http://www.w3.org/Graphics/SVG/1.1/DTD/svg11.dtd">
<svg xmlns="http://www.w3.org/2000/svg" version="1.1" width="64px" height="64px" style="shape-rendering:geometricPrecision; text-rendering:geometricPrecision; image-rendering:optimizeQuality; fill-rule:evenodd; clip-rule:evenodd" xmlns:xlink="http://www.w3.org/1999/xlink">
<g><path style="opacity:1" fill="#81bc01" d="M 38.5,11.5 C 37.242,13.6869 36.242,16.0202 35.5,18.5C 33.1645,21.5315 31.1645,24.8648 29.5,28.5C 32.1071,29.3184 34.7737,29.8184 37.5,30C 36.695,31.1127 36.0283,32.2794 35.5,33.5C 32.3401,37.1477 29.6735,41.1477 27.5,45.5C 26.2195,48.4474 24.2195,50.7807 21.5,52.5C 23.0022,46.8274 25.0022,41.3274 27.5,36C 24.5,35.6667 21.5,35.3333 18.5,35C 21.5249,27.5945 24.3582,20.0945 27,12.5C 30.73,11.5399 34.5633,11.2065 38.5,11.5 Z"/></g>
<g><path style="opacity:1" fill="#78b007" d="M 38.5,11.5 C 40.5273,11.3379 42.5273,11.5045 44.5,12C 41.3596,15.8118 38.3596,19.6451 35.5,23.5C 35.5,21.8333 35.5,20.1667 35.5,18.5C 36.242,16.0202 37.242,13.6869 38.5,11.5 Z"/></g>
<g><path style="opacity:1" fill="#72a60d" d="M 35.5,18.5 C 35.5,20.1667 35.5,21.8333 35.5,23.5C 35.1961,24.1499 34.8627,24.8165 34.5,25.5C 37.4465,26.3214 40.4465,26.8214 43.5,27C 40.9688,30.3575 38.3021,33.5242 35.5,36.5C 35.5,35.5 35.5,34.5 35.5,33.5C 36.0283,32.2794 36.695,31.1127 37.5,30C 34.7737,29.8184 32.1071,29.3184 29.5,28.5C 31.1645,24.8648 33.1645,21.5315 35.5,18.5 Z"/></g>
<g><path style="opacity:1" fill="#689814" d="M 35.5,33.5 C 35.5,34.5 35.5,35.5 35.5,36.5C 33.0584,39.729 30.3918,42.729 27.5,45.5C 29.6735,41.1477 32.3401,37.1477 35.5,33.5 Z"/></g>
<g><path style="opacity:1" fill="#63911f" d="M 21.5,52.5 C 21.6716,53.4916 21.3382,54.1583 20.5,54.5C 20.3284,53.5084 20.6618,52.8417 21.5,52.5 Z"/></g>
<g><path style="opacity:1" fill="#81be00" d="M 20.5,54.5 C 19.8333,55.1667 19.8333,55.1667 20.5,54.5 Z"/></g>
</svg>
