<?xml version="1.0" encoding="UTF-8"?>
<!DOCTYPE svg PUBLIC "-//W3C//DTD SVG 1.1//EN" "http://www.w3.org/Graphics/SVG/1.1/DTD/svg11.dtd">
<svg xmlns="http://www.w3.org/2000/svg" version="1.1" width="64px" height="64px" style="shape-rendering:geometricPrecision; text-rendering:geometricPrecision; image-rendering:optimizeQuality; fill-rule:evenodd; clip-rule:evenodd" xmlns:xlink="http://www.w3.org/1999/xlink">
<g><path style="opacity:0.994" fill="#fefefe" d="M 25.5,-0.5 C 29.5,-0.5 33.5,-0.5 37.5,-0.5C 51.1667,3.16667 59.8333,11.8333 63.5,25.5C 63.5,29.5 63.5,33.5 63.5,37.5C 59.8333,51.1667 51.1667,59.8333 37.5,63.5C 33.5,63.5 29.5,63.5 25.5,63.5C 11.8333,59.8333 3.16667,51.1667 -0.5,37.5C -0.5,33.5 -0.5,29.5 -0.5,25.5C 3.16667,11.8333 11.8333,3.16667 25.5,-0.5 Z"/></g>
<g><path style="opacity:1" fill="#000000" d="M 24.5,2.5 C 36.7107,0.735048 46.8774,4.40171 55,13.5C 56.3014,15.3646 56.6347,17.3646 56,19.5C 52.0808,25.6697 48.4141,32.0031 45,38.5C 44.5005,32.1754 44.3338,25.8421 44.5,19.5C 40.774,19.1774 37.1073,19.5108 33.5,20.5C 30.3333,26.1667 27.1667,31.8333 24,37.5C 23.5005,31.5092 23.3338,25.5092 23.5,19.5C 19.8333,19.5 16.1667,19.5 12.5,19.5C 12.5,28.8333 12.5,38.1667 12.5,47.5C 19.6067,48.4446 24.7734,45.7779 28,39.5C 29.746,35.6733 31.746,32.0066 34,28.5C 34.4995,34.8246 34.6662,41.1579 34.5,47.5C 38.4102,47.7372 42.0769,46.9039 45.5,45C 49.7922,38.25 53.9589,31.4167 58,24.5C 58.6667,23.1667 59.3333,23.1667 60,24.5C 62.5161,46.1399 53.0161,58.1399 31.5,60.5C 9.98395,58.1399 0.483949,46.1399 3,24.5C 6.35008,13.3177 13.5167,5.98437 24.5,2.5 Z"/></g>
</svg>
