<!-- by TradingView --><svg width="56" height="56" viewBox="0 0 56 56" xmlns="http://www.w3.org/2000/svg"><path fill="#181B1E" d="M0 0h56v56H0z"/><path d="m19.82 30.47 10.65-10.65 2.85 2.86-10.64 10.64 2.85 2.86 10.65-10.65 2.85 2.86-13.76 13.76L11 27.87 27.87 11l2.86 2.86L16.97 27.6l2.85 2.86Z" fill="#FCFDF8"/><path d="M36.18 25.53 25.53 36.18l-2.85-2.86 10.64-10.64-2.85-2.86-10.65 10.65-2.85-2.86 13.76-13.75L45 28.13 28.13 45l-2.86-2.85 13.76-13.76-2.85-2.86Z" fill="url(#a)"/><defs><linearGradient id="a" x1="30.98" y1="13.86" x2="30.98" y2="45" gradientUnits="userSpaceOnUse"><stop stop-color="#8558D9"/><stop offset="1" stop-color="#9B57B6"/></linearGradient></defs></svg>