<?xml version="1.0" encoding="UTF-8"?>
<!DOCTYPE svg PUBLIC "-//W3C//DTD SVG 1.1//EN" "http://www.w3.org/Graphics/SVG/1.1/DTD/svg11.dtd">
<svg xmlns="http://www.w3.org/2000/svg" version="1.1" width="256px" height="256px" style="shape-rendering:geometricPrecision; text-rendering:geometricPrecision; image-rendering:optimizeQuality; fill-rule:evenodd; clip-rule:evenodd" xmlns:xlink="http://www.w3.org/1999/xlink">
<g><path style="opacity:1" fill="#fdc435" d="M 251.5,101.5 C 254.003,106.773 255.003,112.439 254.5,118.5C 254.233,120.965 253.566,123.299 252.5,125.5C 243.715,136.797 242.215,149.13 248,162.5C 249.322,171.632 248.155,180.299 244.5,188.5C 244.649,187.448 244.483,186.448 244,185.5C 242.883,186.949 242.216,188.616 242,190.5C 236.148,196.842 228.982,200.675 220.5,202C 218.667,203.833 216.833,205.667 215,207.5C 209.705,216.283 204.705,225.283 200,234.5C 195.833,238 191.667,241.5 187.5,245C 189.506,244.85 191.506,244.35 193.5,243.5C 192.942,244.79 191.942,245.623 190.5,246C 185.905,247.802 181.238,249.302 176.5,250.5C 178.598,249.065 180.931,247.898 183.5,247C 169.482,246.712 155.816,244.378 142.5,240C 139.518,239.502 136.518,239.335 133.5,239.5C 135.219,238.978 136.552,237.978 137.5,236.5C 147.379,235.061 157.046,232.728 166.5,229.5C 166.735,230.097 167.235,230.43 168,230.5C 172.244,228.959 176.411,227.292 180.5,225.5C 198.856,214.811 213.189,200.144 223.5,181.5C 234.935,161.317 239.101,139.651 236,116.5C 235.828,123.013 235.328,129.347 234.5,135.5C 234.5,131.5 234.5,127.5 234.5,123.5C 234.5,121.167 234.5,118.833 234.5,116.5C 235.624,111.186 235.624,105.852 234.5,100.5C 236.13,102.026 236.963,104.026 237,106.5C 237.667,112.5 238.333,118.5 239,124.5C 243.335,111.163 242.002,98.4961 235,86.5C 233.373,84.688 231.873,84.5213 230.5,86C 231.609,88.0466 232.276,90.2133 232.5,92.5C 217.452,56.4528 191.118,33.1194 153.5,22.5C 144.93,20.7522 136.263,19.7522 127.5,19.5C 122.245,19.3343 117.245,20.001 112.5,21.5C 109.997,22.3705 107.33,23.0372 104.5,23.5C 102.653,22.4271 100.653,22.4271 98.5,23.5C 98.62,22.4138 99.2867,21.7472 100.5,21.5C 113.673,18.7572 127.006,17.7572 140.5,18.5C 142.738,19.5366 145.071,19.7033 147.5,19C 141.05,16.0412 134.383,13.3746 127.5,11C 121.13,10.2944 114.797,10.4611 108.5,11.5C 105.358,11.1507 102.025,10.9841 98.5,11C 101.174,10.3299 103.507,9.16319 105.5,7.5C 106.309,6.53128 107.309,5.69794 108.5,5C 107.906,4.53566 107.239,4.36899 106.5,4.5C 113.508,1.91221 120.841,1.07888 128.5,2C 135.833,6 143.167,10 150.5,14C 154.298,14.7719 158.131,15.2719 162,15.5C 169.82,14.5376 177.653,14.371 185.5,15C 187.949,15.7246 190.283,16.7246 192.5,18C 199.211,27.711 207.544,35.711 217.5,42C 222.083,45.9123 225.917,50.4123 229,55.5C 229.159,65.151 232.159,73.8177 238,81.5C 244.355,87.0025 248.855,93.6691 251.5,101.5 Z"/></g>
<g><path style="opacity:1" fill="#fdc335" d="M 105.5,7.5 C 103.507,9.16319 101.174,10.3299 98.5,11C 102.025,10.9841 105.358,11.1507 108.5,11.5C 93.0062,16.8308 77.3395,21.6642 61.5,26C 59.9512,27.214 58.7845,28.714 58,30.5C 56.4438,35.2785 54.6105,39.9452 52.5,44.5C 53.6105,44.3758 54.9438,44.7091 56.5,45.5C 56.1667,46.1667 55.8333,46.8333 55.5,47.5C 52.1667,50.1667 49.1667,53.1667 46.5,56.5C 45.5278,53.9017 44.5278,53.9017 43.5,56.5C 39.375,59.4526 35.375,62.6193 31.5,66C 28.5379,68.2866 26.3712,71.1199 25,74.5C 21.6977,85.62 19.6977,96.9533 19,108.5C 19.2321,107.263 19.7321,106.263 20.5,105.5C 20.2322,107.099 20.5655,108.432 21.5,109.5C 21.5,110.5 21.5,111.5 21.5,112.5C 19.4887,116.455 18.4887,120.788 18.5,125.5C 18.6493,129.859 18.9827,134.192 19.5,138.5C 19.4672,142.869 19.8005,147.202 20.5,151.5C 19.7321,150.737 19.2321,149.737 19,148.5C 18.2425,142.851 17.7425,137.184 17.5,131.5C 17.6657,127.154 17.499,122.821 17,118.5C 10.5152,130.83 8.84853,143.83 12,157.5C 16.8556,167.196 23.1889,175.863 31,183.5C 31.4643,182.906 31.631,182.239 31.5,181.5C 33.8208,184.796 36.1542,188.129 38.5,191.5C 63.5306,223.508 96.5306,238.508 137.5,236.5C 136.552,237.978 135.219,238.978 133.5,239.5C 131.801,239.34 130.134,239.506 128.5,240C 125.328,241.752 122.328,243.752 119.5,246C 115.833,246.333 112.167,246.667 108.5,247C 109.846,248.669 111.513,249.836 113.5,250.5C 119.648,250.338 125.648,249.338 131.5,247.5C 125.732,251.024 119.399,252.524 112.5,252C 104.741,248.121 97.0748,244.287 89.5,240.5C 90.2389,240.631 90.9056,240.464 91.5,240C 80.1343,235.991 68.4676,232.991 56.5,231C 50.7095,226.878 45.2095,222.378 40,217.5C 40.044,219.279 40.7107,220.945 42,222.5C 44.705,225.036 47.205,227.703 49.5,230.5C 39.0831,223.677 33.2498,214.01 32,201.5C 28.6292,191.419 22.7959,183.086 14.5,176.5C 10.1879,172.546 6.85453,167.88 4.5,162.5C 2.74182,157.728 2.07515,152.728 2.5,147.5C 3.26791,148.263 3.76791,149.263 4,150.5C 4.33333,150.167 4.66667,149.833 5,149.5C 6.38972,138.056 8.38972,126.723 11,115.5C 11.9216,111.309 11.5882,107.309 10,103.5C 9.82474,108.019 9.32474,112.353 8.5,116.5C 7.9363,106.657 7.9363,96.9906 8.5,87.5C 9.972,85.6744 10.972,83.0077 11.5,79.5C 14.736,74.7225 18.236,70.0559 22,65.5C 23.298,64.0544 23.4646,62.7211 22.5,61.5C 24.2368,59.4503 26.2368,57.617 28.5,56C 32.1641,54.9976 35.3308,53.1642 38,50.5C 43.7058,42.4052 48.8725,34.0718 53.5,25.5C 53.7352,26.0967 54.2352,26.4301 55,26.5C 61.8744,22.3816 69.3744,19.8816 77.5,19C 86.5175,14.2537 95.8508,10.4204 105.5,7.5 Z"/></g>
<g><path style="opacity:1" fill="#fdbe13" d="M 206.5,72.5 C 230.663,110.246 230.497,147.912 206,185.5C 179.429,217.637 145.596,229.637 104.5,221.5C 77.968,213.314 57.968,196.98 44.5,172.5C 43.6431,171.575 42.6431,170.908 41.5,170.5C 39.9866,162.445 38.1533,154.445 36,146.5C 31.9774,123.972 35.3107,102.638 46,82.5C 50.1268,78.2745 53.7934,73.6078 57,68.5C 62.9215,62.5785 68.7548,56.7452 74.5,51C 81.3478,47.41 88.3478,44.0767 95.5,41C 139.654,26.4162 176.654,36.9162 206.5,72.5 Z"/></g>
<g><path style="opacity:1" fill="#f9c42f" d="M 144.5,32.5 C 151.643,34.788 158.976,36.788 166.5,38.5C 181.226,46.5417 194.559,56.5417 206.5,68.5C 206.5,69.8333 206.5,71.1667 206.5,72.5C 176.654,36.9162 139.654,26.4162 95.5,41C 88.3478,44.0767 81.3478,47.41 74.5,51C 68.7548,56.7452 62.9215,62.5785 57,68.5C 53.7934,73.6078 50.1268,78.2745 46,82.5C 35.3107,102.638 31.9774,123.972 36,146.5C 38.1533,154.445 39.9866,162.445 41.5,170.5C 39.5399,167.823 38.0399,164.823 37,161.5C 36.2266,155.51 34.7266,149.843 32.5,144.5C 32.5,144.167 32.5,143.833 32.5,143.5C 32.3512,131.148 32.6846,118.815 33.5,106.5C 36.4998,100.48 38.9998,94.1462 41,87.5C 52.2735,64.3899 69.7735,48.0566 93.5,38.5C 101.256,35.7514 109.256,33.918 117.5,33C 126.494,32.5002 135.494,32.3336 144.5,32.5 Z"/></g>
<g><path style="opacity:1" fill="#cf9105" d="M 231.5,103.5 C 231.387,113.985 231.22,124.652 231,135.5C 229.915,129.093 229.082,122.76 228.5,116.5C 226.896,95.0002 218.896,76.3336 204.5,60.5C 205.133,60.1205 205.8,59.7871 206.5,59.5C 205.143,57.8144 203.81,56.1477 202.5,54.5C 202.435,54.0618 202.601,53.7284 203,53.5C 216.922,67.6807 226.422,84.3473 231.5,103.5 Z"/></g>
<g><path style="opacity:1" fill="#906001" d="M 140.5,30.5 C 131.161,30.3335 121.827,30.5002 112.5,31C 109.618,31.2724 106.951,32.1057 104.5,33.5C 75.163,40.9934 53.663,58.3268 40,85.5C 37.0668,92.2245 34.9001,99.2245 33.5,106.5C 32.7784,106.918 32.2784,107.584 32,108.5C 29.883,120.357 30.0497,132.024 32.5,143.5C 32.5,143.833 32.5,144.167 32.5,144.5C 33.1115,147.696 33.1115,150.696 32.5,153.5C 31.8333,150.833 31.1667,148.167 30.5,145.5C 22.8976,108.645 32.8976,77.6447 60.5,52.5C 85.8512,31.1267 114.851,23.6267 147.5,30C 145.19,30.4966 142.857,30.6633 140.5,30.5 Z"/></g>
<g><path style="opacity:1" fill="#906001" d="M 204.5,60.5 C 218.896,76.3336 226.896,95.0002 228.5,116.5C 228.666,121.511 228.499,126.511 228,131.5C 227.825,126.981 227.325,122.647 226.5,118.5C 226.665,115.15 226.498,111.817 226,108.5C 225.215,102.992 223.381,97.9923 220.5,93.5C 219.864,89.2186 218.364,85.2186 216,81.5C 213.301,76.7442 210.134,72.4109 206.5,68.5C 196.321,54.324 182.987,44.324 166.5,38.5C 162.861,36.2408 158.861,34.5742 154.5,33.5C 153.192,32.7677 151.858,31.9344 150.5,31C 164.807,32.9952 177.807,38.3285 189.5,47C 194.669,51.3371 199.669,55.8371 204.5,60.5 Z"/></g>
<g><path style="opacity:0.561" fill="#fdbc0e" d="M 116.5,-0.5 C 120.833,-0.5 125.167,-0.5 129.5,-0.5C 135.941,3.55911 142.607,7.39245 149.5,11C 153.79,12.0484 158.124,12.8818 162.5,13.5C 170.478,12.4297 178.478,12.263 186.5,13C 194.469,14.966 199.969,19.7993 203,27.5C 208.593,33.0964 214.76,37.9297 221.5,42C 224.021,44.2198 226.188,46.7198 228,49.5C 230.267,57.9424 232.934,66.2757 236,74.5C 239.955,80.1233 244.288,85.4566 249,90.5C 251.74,94.6467 253.907,98.98 255.5,103.5C 255.5,108.5 255.5,113.5 255.5,118.5C 255.167,118.5 254.833,118.5 254.5,118.5C 255.003,112.439 254.003,106.773 251.5,101.5C 248.855,93.6691 244.355,87.0025 238,81.5C 232.159,73.8177 229.159,65.151 229,55.5C 225.917,50.4123 222.083,45.9123 217.5,42C 207.544,35.711 199.211,27.711 192.5,18C 190.283,16.7246 187.949,15.7246 185.5,15C 177.653,14.371 169.82,14.5376 162,15.5C 158.131,15.2719 154.298,14.7719 150.5,14C 143.167,10 135.833,6 128.5,2C 120.841,1.07888 113.508,1.91221 106.5,4.5C 94.4213,7.87034 82.7546,12.3703 71.5,18C 64.0805,17.4999 58.0805,19.9999 53.5,25.5C 48.8725,34.0718 43.7058,42.4052 38,50.5C 35.3308,53.1642 32.1641,54.9976 28.5,56C 26.2368,57.617 24.2368,59.4503 22.5,61.5C 21.5,61.8333 20.8333,62.5 20.5,63.5C 13.3137,69.8727 9.31366,77.8727 8.5,87.5C 7.9363,96.9906 7.9363,106.657 8.5,116.5C 4.45328,126.401 2.45328,136.735 2.5,147.5C 2.07515,152.728 2.74182,157.728 4.5,162.5C 3.10535,160.946 2.43869,161.279 2.5,163.5C 3.17486,166.691 4.34153,169.691 6,172.5C 9.95939,178.292 14.4594,183.626 19.5,188.5C 10.2511,182.59 3.58447,174.59 -0.5,164.5C -0.5,157.167 -0.5,149.833 -0.5,142.5C 0.482123,133.668 2.64879,125.001 6,116.5C 5.65202,106.18 5.65202,95.8462 6,85.5C 8.54956,74.5683 14.0496,65.4016 22.5,58C 30.5423,54.2886 37.0423,48.7886 42,41.5C 45.2133,32.8945 50.0466,25.3945 56.5,19C 60.4865,16.6024 64.6532,15.769 69,16.5C 76.7815,14.1244 84.2815,10.9578 91.5,7C 99.8188,4.00968 108.152,1.50968 116.5,-0.5 Z"/></g>
<g><path style="opacity:1" fill="#d5a01b" d="M 206.5,68.5 C 210.134,72.4109 213.301,76.7442 216,81.5C 218.364,85.2186 219.864,89.2186 220.5,93.5C 216.578,85.9839 211.911,78.9839 206.5,72.5C 206.5,71.1667 206.5,69.8333 206.5,68.5 Z"/></g>
<g><path style="opacity:1" fill="#dfa317" d="M 43.5,56.5 C 34.0056,68.483 26.839,81.8163 22,96.5C 21.0467,99.4318 20.5467,102.432 20.5,105.5C 19.7321,106.263 19.2321,107.263 19,108.5C 19.6977,96.9533 21.6977,85.62 25,74.5C 26.3712,71.1199 28.5379,68.2866 31.5,66C 35.375,62.6193 39.375,59.4526 43.5,56.5 Z"/></g>
<g><path style="opacity:1" fill="#f6b60c" d="M 112.5,21.5 C 125.07,21.0618 137.57,21.7285 150,23.5C 151.385,23.4857 152.551,23.1524 153.5,22.5C 191.118,33.1194 217.452,56.4528 232.5,92.5C 234.04,94.8383 234.706,97.5049 234.5,100.5C 235.624,105.852 235.624,111.186 234.5,116.5C 233.566,115.432 233.232,114.099 233.5,112.5C 232.833,109.5 232.167,106.5 231.5,103.5C 226.422,84.3473 216.922,67.6807 203,53.5C 202.601,53.7284 202.435,54.0618 202.5,54.5C 168.683,24.405 130.349,16.905 87.5,32C 73.3367,38.4025 61.0034,47.2358 50.5,58.5C 45.8639,63.9795 41.3639,69.6461 37,75.5C 37.1503,73.4944 37.6503,71.4944 38.5,69.5C 40.8003,65.2102 43.467,61.2102 46.5,57.5C 49.8333,54.8333 52.8333,51.8333 55.5,48.5C 69.7257,36.2197 86.059,27.8864 104.5,23.5C 107.33,23.0372 109.997,22.3705 112.5,21.5 Z"/></g>
<g><path style="opacity:1" fill="#fee198" d="M 20.5,63.5 C 20.9382,63.4346 21.2716,63.6012 21.5,64C 17.0238,68.4582 13.6904,73.6249 11.5,79.5C 10.972,83.0077 9.972,85.6744 8.5,87.5C 9.31366,77.8727 13.3137,69.8727 20.5,63.5 Z"/></g>
<g><path style="opacity:1" fill="#f4cc52" d="M 195.5,71.5 C 200.047,75.5648 203.38,80.5648 205.5,86.5C 201.922,81.6803 198.588,76.6803 195.5,71.5 Z"/></g>
<g><path style="opacity:1" fill="#fed56a" d="M 22.5,61.5 C 23.4646,62.7211 23.298,64.0544 22,65.5C 18.236,70.0559 14.736,74.7225 11.5,79.5C 13.6904,73.6249 17.0238,68.4582 21.5,64C 21.2716,63.6012 20.9382,63.4346 20.5,63.5C 20.8333,62.5 21.5,61.8333 22.5,61.5 Z"/></g>
<g><path style="opacity:1" fill="#f7d762" d="M 183.5,59.5 C 188.5,62.5 192.5,66.5 195.5,71.5C 191.167,67.8333 187.167,63.8333 183.5,59.5 Z"/></g>
<g><path style="opacity:1" fill="#e5c06e" d="M 55.5,47.5 C 55.5,47.8333 55.5,48.1667 55.5,48.5C 52.8333,51.8333 49.8333,54.8333 46.5,57.5C 46.5,57.1667 46.5,56.8333 46.5,56.5C 49.1667,53.1667 52.1667,50.1667 55.5,47.5 Z"/></g>
<g><path style="opacity:1" fill="#cf9a16" d="M 166.5,38.5 C 182.987,44.324 196.321,54.324 206.5,68.5C 194.559,56.5417 181.226,46.5417 166.5,38.5 Z"/></g>
<g><path style="opacity:1" fill="#c18c0d" d="M 104.5,33.5 C 100.749,34.9729 97.0825,36.6396 93.5,38.5C 69.7735,48.0566 52.2735,64.3899 41,87.5C 38.9998,94.1462 36.4998,100.48 33.5,106.5C 34.9001,99.2245 37.0668,92.2245 40,85.5C 53.663,58.3268 75.163,40.9934 104.5,33.5 Z"/></g>
<g><path style="opacity:1" fill="#f6edd6" d="M 104.5,23.5 C 86.059,27.8864 69.7257,36.2197 55.5,48.5C 55.5,48.1667 55.5,47.8333 55.5,47.5C 55.8333,46.8333 56.1667,46.1667 56.5,45.5C 57.1667,45.1667 57.8333,44.8333 58.5,44.5C 70.1024,34.3638 83.4357,27.3638 98.5,23.5C 100.653,22.4271 102.653,22.4271 104.5,23.5 Z"/></g>
<g><path style="opacity:1" fill="#dfa214" d="M 140.5,18.5 C 127.006,17.7572 113.673,18.7572 100.5,21.5C 99.2867,21.7472 98.62,22.4138 98.5,23.5C 83.4357,27.3638 70.1024,34.3638 58.5,44.5C 58.3433,43.1266 58.51,41.7932 59,40.5C 62.5579,38.6083 65.0579,35.7749 66.5,32C 73.6828,29.7419 80.3494,26.4086 86.5,22C 92.8534,20.9152 98.8534,18.9152 104.5,16C 116.871,13.502 128.871,14.3353 140.5,18.5 Z"/></g>
<g><path style="opacity:1" fill="#a57201" d="M 202.5,54.5 C 203.81,56.1477 205.143,57.8144 206.5,59.5C 205.8,59.7871 205.133,60.1205 204.5,60.5C 199.669,55.8371 194.669,51.3371 189.5,47C 177.807,38.3285 164.807,32.9952 150.5,31C 151.858,31.9344 153.192,32.7677 154.5,33.5C 151.193,32.9492 147.86,32.6159 144.5,32.5C 143.167,31.8333 141.833,31.1667 140.5,30.5C 142.857,30.6633 145.19,30.4966 147.5,30C 114.851,23.6267 85.8512,31.1267 60.5,52.5C 60.1034,51.475 59.4368,51.3083 58.5,52C 56,54.5 53.5,57 51,59.5C 50.6012,59.2716 50.4346,58.9382 50.5,58.5C 61.0034,47.2358 73.3367,38.4025 87.5,32C 130.349,16.905 168.683,24.405 202.5,54.5 Z"/></g>
<g><path style="opacity:1" fill="#efc548" d="M 168.5,49.5 C 158.813,45.5485 148.813,42.7152 138.5,41C 128.486,40.4098 118.486,40.5764 108.5,41.5C 109.609,40.71 110.942,40.21 112.5,40C 122.5,39.3333 132.5,39.3333 142.5,40C 151.913,41.5225 160.58,44.6892 168.5,49.5 Z"/></g>
<g><path style="opacity:1" fill="#d09b17" d="M 144.5,32.5 C 147.86,32.6159 151.193,32.9492 154.5,33.5C 158.861,34.5742 162.861,36.2408 166.5,38.5C 158.976,36.788 151.643,34.788 144.5,32.5 Z"/></g>
<g><path style="opacity:1" fill="#d7a21d" d="M 140.5,30.5 C 141.833,31.1667 143.167,31.8333 144.5,32.5C 135.494,32.3336 126.494,32.5002 117.5,33C 109.256,33.918 101.256,35.7514 93.5,38.5C 97.0825,36.6396 100.749,34.9729 104.5,33.5C 106.951,32.1057 109.618,31.2724 112.5,31C 121.827,30.5002 131.161,30.3335 140.5,30.5 Z"/></g>
<g><path style="opacity:1" fill="#fdd263" d="M 178.5,18.5 C 184.624,17.4097 189.79,19.0764 194,23.5C 194.934,28.0833 193.1,29.5833 188.5,28C 185.032,26.0302 181.699,23.8635 178.5,21.5C 177.438,20.5754 177.438,19.5754 178.5,18.5 Z"/></g>
<g><path style="opacity:1" fill="#d1950c" d="M 153.5,22.5 C 152.551,23.1524 151.385,23.4857 150,23.5C 137.57,21.7285 125.07,21.0618 112.5,21.5C 117.245,20.001 122.245,19.3343 127.5,19.5C 136.263,19.7522 144.93,20.7522 153.5,22.5 Z"/></g>
<g><path style="opacity:1" fill="#f2b106" d="M 140.5,18.5 C 128.871,14.3353 116.871,13.502 104.5,16C 98.8534,18.9152 92.8534,20.9152 86.5,22C 80.3494,26.4086 73.6828,29.7419 66.5,32C 65.0579,35.7749 62.5579,38.6083 59,40.5C 58.51,41.7932 58.3433,43.1266 58.5,44.5C 57.8333,44.8333 57.1667,45.1667 56.5,45.5C 54.9438,44.7091 53.6105,44.3758 52.5,44.5C 54.6105,39.9452 56.4438,35.2785 58,30.5C 58.7845,28.714 59.9512,27.214 61.5,26C 77.3395,21.6642 93.0062,16.8308 108.5,11.5C 114.797,10.4611 121.13,10.2944 127.5,11C 134.383,13.3746 141.05,16.0412 147.5,19C 145.071,19.7033 142.738,19.5366 140.5,18.5 Z"/></g>
<g><path style="opacity:1" fill="#fee6a8" d="M 106.5,4.5 C 107.239,4.36899 107.906,4.53566 108.5,5C 107.309,5.69794 106.309,6.53128 105.5,7.5C 95.8508,10.4204 86.5175,14.2537 77.5,19C 69.3744,19.8816 61.8744,22.3816 55,26.5C 54.2352,26.4301 53.7352,26.0967 53.5,25.5C 58.0805,19.9999 64.0805,17.4999 71.5,18C 82.7546,12.3703 94.4213,7.87034 106.5,4.5 Z"/></g>
<g><path style="opacity:1" fill="#f9c637" d="M 85.5,50.5 C 50.4064,73.0706 36.4064,105.071 43.5,146.5C 42.037,143.797 41.2037,140.797 41,137.5C 40.1686,127.455 40.5019,117.455 42,107.5C 44.1628,101.68 45.4961,95.6797 46,89.5C 48.1223,88.7801 48.6223,87.6134 47.5,86C 50.3073,81.1977 53.8073,77.031 58,73.5C 58.49,72.2068 58.6567,70.8734 58.5,69.5C 63.9191,67.2496 67.9191,63.4163 70.5,58C 71.7932,57.51 73.1266,57.3433 74.5,57.5C 74.5,56.5 74.5,55.5 74.5,54.5C 78.4954,53.9993 82.1621,52.6659 85.5,50.5 Z"/></g>
<g><path style="opacity:1" fill="#f5c548" d="M 46.5,56.5 C 46.5,56.8333 46.5,57.1667 46.5,57.5C 43.467,61.2102 40.8003,65.2102 38.5,69.5C 35.8059,72.8763 33.4726,76.543 31.5,80.5C 27.3738,89.8783 24.0404,99.5449 21.5,109.5C 20.5655,108.432 20.2322,107.099 20.5,105.5C 20.5467,102.432 21.0467,99.4318 22,96.5C 26.839,81.8163 34.0056,68.483 43.5,56.5C 44.5278,53.9017 45.5278,53.9017 46.5,56.5 Z"/></g>
<g><path style="opacity:1" fill="#a47103" d="M 31.5,80.5 C 32.6225,82.2884 32.7891,84.2884 32,86.5C 27.5902,96.8076 24.4235,107.474 22.5,118.5C 21.5344,116.604 21.2011,114.604 21.5,112.5C 21.5,111.5 21.5,110.5 21.5,109.5C 24.0404,99.5449 27.3738,89.8783 31.5,80.5 Z"/></g>
<g><path style="opacity:1" fill="#fbce5c" d="M 234.5,100.5 C 234.706,97.5049 234.04,94.8383 232.5,92.5C 232.276,90.2133 231.609,88.0466 230.5,86C 231.873,84.5213 233.373,84.688 235,86.5C 242.002,98.4961 243.335,111.163 239,124.5C 238.333,118.5 237.667,112.5 237,106.5C 236.963,104.026 236.13,102.026 234.5,100.5 Z"/></g>
<g><path style="opacity:1" fill="#ce920d" d="M 60.5,52.5 C 32.8976,77.6447 22.8976,108.645 30.5,145.5C 28.9891,144.498 27.3224,143.831 25.5,143.5C 25.5,144.5 25.5,145.5 25.5,146.5C 24.8485,145.909 24.1818,145.243 23.5,144.5C 22.5481,146.045 22.2148,147.712 22.5,149.5C 21.6066,145.809 20.6066,142.142 19.5,138.5C 18.9827,134.192 18.6493,129.859 18.5,125.5C 18.4887,120.788 19.4887,116.455 21.5,112.5C 21.2011,114.604 21.5344,116.604 22.5,118.5C 24.4235,107.474 27.5902,96.8076 32,86.5C 32.7891,84.2884 32.6225,82.2884 31.5,80.5C 33.4726,76.543 35.8059,72.8763 38.5,69.5C 37.6503,71.4944 37.1503,73.4944 37,75.5C 41.3639,69.6461 45.8639,63.9795 50.5,58.5C 50.4346,58.9382 50.6012,59.2716 51,59.5C 53.5,57 56,54.5 58.5,52C 59.4368,51.3083 60.1034,51.475 60.5,52.5 Z"/></g>
<g><path style="opacity:1" fill="#eed8a7" d="M 233.5,112.5 C 233.232,114.099 233.566,115.432 234.5,116.5C 234.5,118.833 234.5,121.167 234.5,123.5C 233.833,127.167 233.167,130.833 232.5,134.5C 232.175,126.981 232.508,119.648 233.5,112.5 Z"/></g>
<g><path style="opacity:1" fill="#f4c847" d="M 205.5,86.5 C 210.286,94.3377 213.453,103.004 215,112.5C 215.824,122.009 215.658,131.343 214.5,140.5C 215.877,121.725 212.877,103.725 205.5,86.5 Z"/></g>
<g><path style="opacity:1" fill="#c38e0f" d="M 33.5,106.5 C 32.6846,118.815 32.3512,131.148 32.5,143.5C 30.0497,132.024 29.883,120.357 32,108.5C 32.2784,107.584 32.7784,106.918 33.5,106.5 Z"/></g>
<g><path style="opacity:1" fill="#d6990f" d="M 251.5,101.5 C 252.896,109.189 252.73,116.855 251,124.5C 248.094,129.31 245.427,134.31 243,139.5C 243.733,131.908 245.733,124.575 249,117.5C 249.945,112.044 250.778,106.711 251.5,101.5 Z"/></g>
<g><path style="opacity:0.469" fill="#fdbc0a" d="M 252.5,125.5 C 249.996,132.515 247.996,139.681 246.5,147C 248.739,155.193 250.072,163.526 250.5,172C 251.302,182.602 247.968,191.602 240.5,199C 236.91,200.53 233.243,201.864 229.5,203C 227.266,204.75 224.932,206.25 222.5,207.5C 224.004,205.164 226.004,203.331 228.5,202C 232.581,200.529 236.581,198.862 240.5,197C 242.32,194.36 243.654,191.527 244.5,188.5C 248.155,180.299 249.322,171.632 248,162.5C 242.215,149.13 243.715,136.797 252.5,125.5 Z"/></g>
<g><path style="opacity:1" fill="#fdcf5b" d="M 2.5,147.5 C 2.45328,136.735 4.45328,126.401 8.5,116.5C 9.32474,112.353 9.82474,108.019 10,103.5C 11.5882,107.309 11.9216,111.309 11,115.5C 8.38972,126.723 6.38972,138.056 5,149.5C 4.66667,149.833 4.33333,150.167 4,150.5C 3.76791,149.263 3.26791,148.263 2.5,147.5 Z"/></g>
<g><path style="opacity:1" fill="#fcf9ed" d="M 234.5,123.5 C 234.5,127.5 234.5,131.5 234.5,135.5C 234.425,138.206 234.092,140.873 233.5,143.5C 232.566,142.432 232.232,141.099 232.5,139.5C 232.5,137.833 232.5,136.167 232.5,134.5C 233.167,130.833 233.833,127.167 234.5,123.5 Z"/></g>
<g><path style="opacity:1" fill="#d59614" d="M 223.5,181.5 C 222.957,181.44 222.624,181.107 222.5,180.5C 226.642,172.891 229.642,164.891 231.5,156.5C 231.909,152.124 232.575,147.79 233.5,143.5C 234.092,140.873 234.425,138.206 234.5,135.5C 235.328,129.347 235.828,123.013 236,116.5C 239.101,139.651 234.935,161.317 223.5,181.5 Z"/></g>
<g><path style="opacity:1" fill="#de9f0f" d="M 17.5,131.5 C 17.7425,137.184 18.2425,142.851 19,148.5C 19.2321,149.737 19.7321,150.737 20.5,151.5C 21.7736,153.993 22.4403,156.659 22.5,159.5C 23.0081,162.176 23.1747,164.843 23,167.5C 21.6378,164.764 19.8044,162.431 17.5,160.5C 16.846,158.885 16.346,157.218 16,155.5C 15.3333,146.5 15.3333,137.5 16,128.5C 16.2321,129.737 16.7321,130.737 17.5,131.5 Z"/></g>
<g><path style="opacity:1" fill="#f0b00e" d="M 17.5,131.5 C 16.7321,130.737 16.2321,129.737 16,128.5C 15.3333,137.5 15.3333,146.5 16,155.5C 16.346,157.218 16.846,158.885 17.5,160.5C 19.8044,162.431 21.6378,164.764 23,167.5C 23.1747,164.843 23.0081,162.176 22.5,159.5C 25.0863,166.907 28.0863,174.24 31.5,181.5C 31.631,182.239 31.4643,182.906 31,183.5C 23.1889,175.863 16.8556,167.196 12,157.5C 8.84853,143.83 10.5152,130.83 17,118.5C 17.499,122.821 17.6657,127.154 17.5,131.5 Z"/></g>
<g><path style="opacity:1" fill="#efc865" d="M 231.5,143.5 C 231.411,149.066 229.745,154.066 226.5,158.5C 225.583,159.127 224.583,159.461 223.5,159.5C 225.15,153.902 226.65,148.235 228,142.5C 228.915,143.328 229.581,144.328 230,145.5C 230.278,144.584 230.778,143.918 231.5,143.5 Z"/></g>
<g><path style="opacity:1" fill="#faefd5" d="M 19.5,138.5 C 20.6066,142.142 21.6066,145.809 22.5,149.5C 24.3943,160.52 28.061,170.853 33.5,180.5C 35.5283,184.184 37.5283,187.85 39.5,191.5C 39.1667,191.5 38.8333,191.5 38.5,191.5C 36.1542,188.129 33.8208,184.796 31.5,181.5C 28.0863,174.24 25.0863,166.907 22.5,159.5C 22.4403,156.659 21.7736,153.993 20.5,151.5C 19.8005,147.202 19.4672,142.869 19.5,138.5 Z"/></g>
<g><path style="opacity:1" fill="#f7d674" d="M 30.5,145.5 C 31.1667,148.167 31.8333,150.833 32.5,153.5C 34.8942,159.844 37.3942,166.178 40,172.5C 43.6888,178.999 47.5221,185.333 51.5,191.5C 43.0218,183.063 36.8551,173.063 33,161.5C 31.2897,159.569 29.7897,158.236 28.5,157.5C 27.0552,154.063 26.0552,150.397 25.5,146.5C 25.5,145.5 25.5,144.5 25.5,143.5C 27.3224,143.831 28.9891,144.498 30.5,145.5 Z"/></g>
<g><path style="opacity:1" fill="#f4af12" d="M 25.5,146.5 C 26.0552,150.397 27.0552,154.063 28.5,157.5C 30.3907,165.282 33.3907,172.616 37.5,179.5C 36.6715,180.332 35.8382,179.999 35,178.5C 34.7216,179.416 34.2216,180.082 33.5,180.5C 28.061,170.853 24.3943,160.52 22.5,149.5C 22.2148,147.712 22.5481,146.045 23.5,144.5C 24.1818,145.243 24.8485,145.909 25.5,146.5 Z"/></g>
<g><path style="opacity:1" fill="#d59604" d="M 4.5,162.5 C 6.85453,167.88 10.1879,172.546 14.5,176.5C 17.1172,180.13 19.7839,183.797 22.5,187.5C 21.675,188.386 20.675,188.719 19.5,188.5C 14.4594,183.626 9.95939,178.292 6,172.5C 4.34153,169.691 3.17486,166.691 2.5,163.5C 2.43869,161.279 3.10535,160.946 4.5,162.5 Z"/></g>
<g><path style="opacity:1" fill="#fcf6e8" d="M 227.5,164.5 C 222.991,177.996 215.991,189.996 206.5,200.5C 205.883,200.389 205.383,200.056 205,199.5C 203.981,200.687 202.814,201.687 201.5,202.5C 200.893,202.376 200.56,202.043 200.5,201.5C 212.065,190.054 220.898,176.72 227,161.5C 227.483,162.448 227.649,163.448 227.5,164.5 Z"/></g>
<g><path style="opacity:1" fill="#f6ce51" d="M 214.5,140.5 C 206.102,182.566 180.769,206.899 138.5,213.5C 179.492,205.508 204.826,181.175 214.5,140.5 Z"/></g>
<g><path style="opacity:1" fill="#fdd367" d="M 235.5,155.5 C 238.771,169.963 234.438,181.629 222.5,190.5C 221.417,189.635 221.251,188.635 222,187.5C 227.98,177.377 232.48,166.71 235.5,155.5 Z"/></g>
<g><path style="opacity:1" fill="#fbc425" d="M 37.5,179.5 C 47.573,196.239 61.2396,209.239 78.5,218.5C 78.44,219.043 78.1067,219.376 77.5,219.5C 71.5619,216.814 66.2286,213.314 61.5,209C 60.2068,208.51 58.8734,208.343 57.5,208.5C 50.8431,203.509 44.8431,197.843 39.5,191.5C 37.5283,187.85 35.5283,184.184 33.5,180.5C 34.2216,180.082 34.7216,179.416 35,178.5C 35.8382,179.999 36.6715,180.332 37.5,179.5 Z"/></g>
<g><path style="opacity:1" fill="#a76f07" d="M 168.5,49.5 C 173.32,53.0785 178.32,56.4118 183.5,59.5C 187.167,63.8333 191.167,67.8333 195.5,71.5C 198.588,76.6803 201.922,81.6803 205.5,86.5C 212.877,103.725 215.877,121.725 214.5,140.5C 204.826,181.175 179.492,205.508 138.5,213.5C 129.482,213.552 120.482,213.218 111.5,212.5C 105.4,210.135 99.0671,208.135 92.5,206.5C 84.5685,201.901 76.9018,196.901 69.5,191.5C 56.6826,178.988 48.016,163.988 43.5,146.5C 36.4064,105.071 50.4064,73.0706 85.5,50.5C 93.1323,47.1751 100.799,44.1751 108.5,41.5C 118.486,40.5764 128.486,40.4098 138.5,41C 148.813,42.7152 158.813,45.5485 168.5,49.5 Z"/></g>
<g><path style="opacity:1" fill="#fccc34" d="M 174.5,82.5 C 167.982,85.2174 167.982,88.2174 174.5,91.5C 177.864,88.8249 181.197,86.1582 184.5,83.5C 184.938,83.4346 185.272,83.6012 185.5,84C 184.5,85 183.5,86 182.5,87C 190.928,95.6735 195.594,105.84 196.5,117.5C 199.05,141.154 192.717,161.987 177.5,180C 162.309,192.562 145.976,201.728 128.5,207.5C 134.15,208.473 139.816,208.473 145.5,207.5C 124.844,212.408 105.177,209.575 86.5,199C 81.6888,196.015 77.3555,192.515 73.5,188.5C 76.8735,190.943 80.3735,193.276 84,195.5C 85.3012,194.902 86.1345,193.902 86.5,192.5C 70.8432,174.468 61.5098,153.134 58.5,128.5C 59.2323,113.909 63.2323,100.243 70.5,87.5C 73.1932,93.227 75.5266,99.227 77.5,105.5C 78.9005,108.327 78.5672,110.994 76.5,113.5C 76.7093,114.086 77.0426,114.586 77.5,115C 75.8989,118.267 75.0655,121.767 75,125.5C 74.5804,133.674 74.4137,141.674 74.5,149.5C 76.4486,158.046 78.9486,166.38 82,174.5C 94.7928,196.993 113.626,204.16 138.5,196C 155.438,188.385 168.938,176.885 179,161.5C 184.788,147.472 185.788,133.139 182,118.5C 180.435,115.038 178.602,111.705 176.5,108.5C 179.447,107.679 182.447,107.179 185.5,107C 181.644,106.823 177.977,106.323 174.5,105.5C 178.182,105.665 181.848,105.499 185.5,105C 173.5,95 161.5,85 149.5,75C 146.183,74.5017 142.85,74.335 139.5,74.5C 132.594,72.0515 125.594,72.0515 118.5,74.5C 117.914,74.2907 117.414,73.9574 117,73.5C 110.43,75.4846 103.93,77.6513 97.5,80C 94.5,80.3333 91.5,80.6667 88.5,81C 92.0252,81.1787 95.3586,81.6787 98.5,82.5C 94.8333,82.5 91.1667,82.5 87.5,82.5C 86.1309,87.5779 84.4643,92.5779 82.5,97.5C 80.4746,92.4059 78.4746,87.4059 76.5,82.5C 74.369,81.6862 72.0356,81.1862 69.5,81C 77.5599,80.3022 83.5599,76.3022 87.5,69C 121.276,50.2938 151.609,53.9605 178.5,80C 180.833,80.3333 183.167,80.6667 185.5,81C 181.644,81.1773 177.977,81.6773 174.5,82.5 Z"/></g>
<g><path style="opacity:1" fill="#fcd143" d="M 96.5,100.5 C 81.9177,117.204 77.4177,136.538 83,158.5C 89.5217,190.16 108.022,201.326 138.5,192C 155.5,183.088 168,169.921 176,152.5C 181.211,133.485 176.711,117.318 162.5,104C 163.988,101.238 165.988,100.404 168.5,101.5C 170.754,102.415 172.754,103.748 174.5,105.5C 177.977,106.323 181.644,106.823 185.5,107C 182.447,107.179 179.447,107.679 176.5,108.5C 178.602,111.705 180.435,115.038 182,118.5C 185.788,133.139 184.788,147.472 179,161.5C 168.938,176.885 155.438,188.385 138.5,196C 113.626,204.16 94.7928,196.993 82,174.5C 78.9486,166.38 76.4486,158.046 74.5,149.5C 74.4137,141.674 74.5804,133.674 75,125.5C 75.0655,121.767 75.8989,118.267 77.5,115C 77.0426,114.586 76.7093,114.086 76.5,113.5C 78.5672,110.994 78.9005,108.327 77.5,105.5C 80.8499,105.665 84.1832,105.498 87.5,105C 89.1861,100.458 91.0194,95.9583 93,91.5C 94.7224,94.2791 95.8891,97.2791 96.5,100.5 Z"/></g>
<g><path style="opacity:1" fill="#f3cb52" d="M 60.5,79.5 C 52.2707,93.1902 47.2707,107.857 45.5,123.5C 45.5195,108.274 49.6862,94.2739 58,81.5C 58.7083,80.6195 59.5416,79.9528 60.5,79.5 Z"/></g>
<g><path style="opacity:1" fill="#fadb67" d="M 76.5,62.5 C 72.5,67.1667 68.1667,71.5 63.5,75.5C 66.8333,70.1667 71.1667,65.8333 76.5,62.5 Z"/></g>
<g><path style="opacity:1" fill="#fcc626" d="M 155.5,48.5 C 182.835,59.0045 200.669,78.3378 209,106.5C 215.798,145.145 203.298,175.645 171.5,198C 163.334,202.585 154.667,205.752 145.5,207.5C 139.816,208.473 134.15,208.473 128.5,207.5C 145.976,201.728 162.309,192.562 177.5,180C 192.717,161.987 199.05,141.154 196.5,117.5C 195.594,105.84 190.928,95.6735 182.5,87C 183.5,86 184.5,85 185.5,84C 185.272,83.6012 184.938,83.4346 184.5,83.5C 181.375,82.5206 178.042,82.1872 174.5,82.5C 177.977,81.6773 181.644,81.1773 185.5,81C 183.167,80.6667 180.833,80.3333 178.5,80C 151.609,53.9605 121.276,50.2938 87.5,69C 83.5599,76.3022 77.5599,80.3022 69.5,81C 72.0356,81.1862 74.369,81.6862 76.5,82.5C 74.076,82.1924 71.7427,82.5258 69.5,83.5C 70.2458,84.7362 70.5792,86.0695 70.5,87.5C 63.2323,100.243 59.2323,113.909 58.5,128.5C 61.5098,153.134 70.8432,174.468 86.5,192.5C 86.1345,193.902 85.3012,194.902 84,195.5C 80.3735,193.276 76.8735,190.943 73.5,188.5C 70.1886,187.189 67.8552,184.855 66.5,181.5C 60.3301,172.997 54.9968,163.997 50.5,154.5C 46.1546,144.747 44.4879,134.413 45.5,123.5C 47.2707,107.857 52.2707,93.1902 60.5,79.5C 60.7376,77.5956 61.7376,76.2623 63.5,75.5C 68.1667,71.5 72.5,67.1667 76.5,62.5C 88.2333,54.1941 101.233,48.6941 115.5,46C 128.951,45.0507 142.284,45.884 155.5,48.5 Z"/></g>
<g><path style="opacity:1" fill="#fcd44f" d="M 168.5,101.5 C 165.988,100.404 163.988,101.238 162.5,104C 176.711,117.318 181.211,133.485 176,152.5C 168,169.921 155.5,183.088 138.5,192C 108.022,201.326 89.5217,190.16 83,158.5C 77.4177,136.538 81.9177,117.204 96.5,100.5C 96.8333,101.167 97.1667,101.833 97.5,102.5C 96.8742,106.375 98.5408,108.209 102.5,108C 97.0357,112.081 92.869,117.248 90,123.5C 85.319,141.368 86.6523,158.702 94,175.5C 102.429,189.286 114.596,194.119 130.5,190C 148.48,183.019 161.646,170.853 170,153.5C 175.763,135.133 171.263,119.967 156.5,108C 157.167,107.667 157.833,107.333 158.5,107C 154.975,106.821 151.641,106.321 148.5,105.5C 151.85,105.665 155.183,105.498 158.5,105C 161.011,103.152 163.511,101.319 166,99.5C 167.301,99.6387 168.134,100.305 168.5,101.5 Z"/></g>
<g><path style="opacity:1" fill="#fcd85a" d="M 128.5,98.5 C 127.957,98.56 127.624,98.8933 127.5,99.5C 133.128,100.495 138.794,100.829 144.5,100.5C 145.864,102.191 147.197,103.858 148.5,105.5C 151.641,106.321 154.975,106.821 158.5,107C 157.833,107.333 157.167,107.667 156.5,108C 171.263,119.967 175.763,135.133 170,153.5C 161.646,170.853 148.48,183.019 130.5,190C 114.596,194.119 102.429,189.286 94,175.5C 86.6523,158.702 85.319,141.368 90,123.5C 92.869,117.248 97.0357,112.081 102.5,108C 98.5408,108.209 96.8742,106.375 97.5,102.5C 98.404,103.209 98.7373,104.209 98.5,105.5C 101.85,105.335 105.183,105.502 108.5,106C 107.167,108.191 105.5,110.024 103.5,111.5C 100.236,112.927 97.7364,115.261 96,118.5C 86.3431,139.963 87.6764,160.63 100,180.5C 106.833,188.111 115.333,190.944 125.5,189C 141.691,184.157 154.524,174.657 164,160.5C 172.546,144.807 171.546,129.807 161,115.5C 157.512,112.003 153.512,109.337 149,107.5C 148,107.833 147,108.167 146,108.5C 142.248,106.43 138.248,105.097 134,104.5C 130.865,104.545 127.698,104.545 124.5,104.5C 123.252,105.04 122.085,105.707 121,106.5C 120.536,105.906 120.369,105.239 120.5,104.5C 123.878,98.9423 127.878,93.7757 132.5,89C 133.167,88.3333 133.833,88.3333 134.5,89C 136.283,90.7387 137.95,92.5721 139.5,94.5C 135.329,94.7878 131.663,96.1211 128.5,98.5 Z"/></g>
<g><path style="opacity:1" fill="#fdde73" d="M 103.5,112.5 C 106.85,112.665 110.183,112.498 113.5,112C 114.163,110.482 115.163,109.315 116.5,108.5C 116.735,109.097 117.235,109.43 118,109.5C 134.169,105.226 147.836,109.226 159,121.5C 167.166,135.745 166.499,149.745 157,163.5C 148.43,173.532 137.93,180.699 125.5,185C 119.833,185.667 114.167,185.667 108.5,185C 92.1551,164.195 90.3218,142.028 103,118.5C 104.214,116.951 105.714,115.785 107.5,115C 105.563,114.878 104.23,114.045 103.5,112.5 Z"/></g>
<g><path style="opacity:1" fill="#fdda63" d="M 120.5,104.5 C 120.369,105.239 120.536,105.906 121,106.5C 122.085,105.707 123.252,105.04 124.5,104.5C 127.698,104.545 130.865,104.545 134,104.5C 138.248,105.097 142.248,106.43 146,108.5C 147,108.167 148,107.833 149,107.5C 153.512,109.337 157.512,112.003 161,115.5C 171.546,129.807 172.546,144.807 164,160.5C 154.524,174.657 141.691,184.157 125.5,189C 115.333,190.944 106.833,188.111 100,180.5C 87.6764,160.63 86.3431,139.963 96,118.5C 97.7364,115.261 100.236,112.927 103.5,111.5C 103.5,111.833 103.5,112.167 103.5,112.5C 104.23,114.045 105.563,114.878 107.5,115C 105.714,115.785 104.214,116.951 103,118.5C 90.3218,142.028 92.1551,164.195 108.5,185C 114.167,185.667 119.833,185.667 125.5,185C 137.93,180.699 148.43,173.532 157,163.5C 166.499,149.745 167.166,135.745 159,121.5C 147.836,109.226 134.169,105.226 118,109.5C 117.235,109.43 116.735,109.097 116.5,108.5C 117.5,106.833 118.833,105.5 120.5,104.5 Z"/></g>
<g><path style="opacity:1" fill="#fde382" d="M 155.5,131.5 C 158.296,136.04 159.129,141.04 158,146.5C 153.001,162.332 142.501,172.665 126.5,177.5C 126.795,179.735 126.461,181.735 125.5,183.5C 125.5,176.5 125.5,169.5 125.5,162.5C 149.159,165.176 159.159,154.843 155.5,131.5 Z"/></g>
<g><path style="opacity:1" fill="#fde584" d="M 108.5,120.5 C 108.5,138.167 108.5,155.833 108.5,173.5C 107.71,174.609 107.21,175.942 107,177.5C 106.561,170.848 104.894,164.514 102,158.5C 101.803,153.914 101.303,149.414 100.5,145C 102.134,136.268 104.801,128.102 108.5,120.5 Z"/></g>
<g><path style="opacity:1" fill="#6a3d00" d="M 141.5,121.5 C 131.347,122.494 121.014,122.828 110.5,122.5C 110.5,142.167 110.5,161.833 110.5,181.5C 114.833,181.5 119.167,181.5 123.5,181.5C 123.177,174.978 123.51,168.645 124.5,162.5C 124.5,169.167 124.5,175.833 124.5,182.5C 119.5,182.5 114.5,182.5 109.5,182.5C 109.5,162.167 109.5,141.833 109.5,121.5C 120.167,121.5 130.833,121.5 141.5,121.5 Z"/></g>
<g><path style="opacity:1" fill="#8d661e" d="M 108.5,120.5 C 109.167,120.5 109.833,120.5 110.5,120.5C 121.014,120.172 131.347,120.506 141.5,121.5C 130.833,121.5 120.167,121.5 109.5,121.5C 109.5,141.833 109.5,162.167 109.5,182.5C 114.5,182.5 119.5,182.5 124.5,182.5C 124.5,175.833 124.5,169.167 124.5,162.5C 124.833,162.5 125.167,162.5 125.5,162.5C 125.5,169.5 125.5,176.5 125.5,183.5C 119.833,183.5 114.167,183.5 108.5,183.5C 108.5,180.167 108.5,176.833 108.5,173.5C 108.5,155.833 108.5,138.167 108.5,120.5 Z"/></g>
<g><path style="opacity:1" fill="#7e5203" d="M 141.5,121.5 C 147.567,122.904 152.233,126.237 155.5,131.5C 159.159,154.843 149.159,165.176 125.5,162.5C 125.167,162.5 124.833,162.5 124.5,162.5C 123.51,168.645 123.177,174.978 123.5,181.5C 119.167,181.5 114.833,181.5 110.5,181.5C 110.5,161.833 110.5,142.167 110.5,122.5C 121.014,122.828 131.347,122.494 141.5,121.5 Z"/></g>
<g><path style="opacity:1" fill="#8e5f02" d="M 114.5,123.5 C 124.247,123.08 133.914,123.58 143.5,125C 150.377,128.082 153.377,133.416 152.5,141C 153.216,146.851 151.55,151.851 147.5,156C 140.996,157.877 134.33,158.877 127.5,159C 125.324,159.163 123.491,159.996 122,161.5C 121.83,167.196 121.33,172.862 120.5,178.5C 117.721,180.986 114.888,180.986 112,178.5C 111.333,160.833 111.333,143.167 112,125.5C 112.995,124.934 113.828,124.267 114.5,123.5 Z"/></g>
<g><path style="opacity:1" fill="#875801" d="M 128.5,127.5 C 143.051,128.284 147.885,135.618 143,149.5C 136.403,155.819 129.07,156.819 121,152.5C 118.184,145.969 117.851,139.302 120,132.5C 122.166,129.468 125,127.802 128.5,127.5 Z"/></g>
<g><path style="opacity:1" fill="#c3a451" d="M 134.5,134.5 C 131.5,134.5 128.5,134.5 125.5,134.5C 125.5,139.5 125.5,144.5 125.5,149.5C 124.512,144.36 124.179,139.026 124.5,133.5C 128.042,133.187 131.375,133.521 134.5,134.5 Z"/></g>
<g><path style="opacity:1" fill="#fce486" d="M 134.5,134.5 C 136.752,134.916 138.252,136.249 139,138.5C 140.432,143.805 138.599,147.305 133.5,149C 130.854,149.497 128.187,149.664 125.5,149.5C 125.5,144.5 125.5,139.5 125.5,134.5C 128.5,134.5 131.5,134.5 134.5,134.5 Z"/></g>
<g><path style="opacity:1" fill="#fde382" d="M 155.5,131.5 C 152.233,126.237 147.567,122.904 141.5,121.5C 131.347,120.506 121.014,120.172 110.5,120.5C 110.389,119.883 110.056,119.383 109.5,119C 114.947,118.072 120.28,116.739 125.5,115C 133.711,114.109 141.377,115.776 148.5,120C 151.054,123.716 153.388,127.549 155.5,131.5 Z"/></g>
<g><path style="opacity:1" fill="#7e5102" d="M 174.5,82.5 C 178.042,82.1872 181.375,82.5206 184.5,83.5C 181.197,86.1582 177.864,88.8249 174.5,91.5C 167.982,88.2174 167.982,85.2174 174.5,82.5 Z"/></g>
<g><path style="opacity:1" fill="#805302" d="M 139.5,74.5 C 142.85,74.335 146.183,74.5017 149.5,75C 161.5,85 173.5,95 185.5,105C 181.848,105.499 178.182,105.665 174.5,105.5C 172.754,103.748 170.754,102.415 168.5,101.5C 168.134,100.305 167.301,99.6387 166,99.5C 163.511,101.319 161.011,103.152 158.5,105C 155.183,105.498 151.85,105.665 148.5,105.5C 147.197,103.858 145.864,102.191 144.5,100.5C 139.167,99.8333 133.833,99.1667 128.5,98.5C 131.663,96.1211 135.329,94.7878 139.5,94.5C 137.95,92.5721 136.283,90.7387 134.5,89C 133.833,88.3333 133.167,88.3333 132.5,89C 127.878,93.7757 123.878,98.9423 120.5,104.5C 118.833,105.5 117.5,106.833 116.5,108.5C 115.163,109.315 114.163,110.482 113.5,112C 110.183,112.498 106.85,112.665 103.5,112.5C 103.5,112.167 103.5,111.833 103.5,111.5C 105.5,110.024 107.167,108.191 108.5,106C 105.183,105.502 101.85,105.335 98.5,105.5C 98.7373,104.209 98.404,103.209 97.5,102.5C 97.1667,101.833 96.8333,101.167 96.5,100.5C 95.8891,97.2791 94.7224,94.2791 93,91.5C 91.0194,95.9583 89.1861,100.458 87.5,105C 84.1832,105.498 80.8499,105.665 77.5,105.5C 75.5266,99.227 73.1932,93.227 70.5,87.5C 70.5792,86.0695 70.2458,84.7362 69.5,83.5C 71.7427,82.5258 74.076,82.1924 76.5,82.5C 78.4746,87.4059 80.4746,92.4059 82.5,97.5C 84.4643,92.5779 86.1309,87.5779 87.5,82.5C 91.1667,82.5 94.8333,82.5 98.5,82.5C 100.029,87.2495 101.863,91.9162 104,96.5C 105.667,92.1667 107.333,87.8333 109,83.5C 111.737,82.3895 114.571,82.2228 117.5,83C 114.525,90.0916 112.025,97.2582 110,104.5C 115.645,97.3539 121.478,90.3539 127.5,83.5C 131.5,82.1667 135.5,82.1667 139.5,83.5C 143.823,89.1549 148.49,94.4882 153.5,99.5C 155.69,97.476 158.023,95.6427 160.5,94C 153.167,87.6667 145.833,81.3333 138.5,75C 138.728,74.6012 139.062,74.4346 139.5,74.5 Z"/></g>
<g><path style="opacity:1" fill="#bb922a" d="M 128.5,98.5 C 133.833,99.1667 139.167,99.8333 144.5,100.5C 138.794,100.829 133.128,100.495 127.5,99.5C 127.624,98.8933 127.957,98.56 128.5,98.5 Z"/></g>
<g><path style="opacity:1" fill="#f9d140" d="M 139.5,74.5 C 139.062,74.4346 138.728,74.6012 138.5,75C 145.833,81.3333 153.167,87.6667 160.5,94C 158.023,95.6427 155.69,97.476 153.5,99.5C 148.49,94.4882 143.823,89.1549 139.5,83.5C 135.5,82.1667 131.5,82.1667 127.5,83.5C 121.478,90.3539 115.645,97.3539 110,104.5C 112.025,97.2582 114.525,90.0916 117.5,83C 114.571,82.2228 111.737,82.3895 109,83.5C 107.333,87.8333 105.667,92.1667 104,96.5C 101.863,91.9162 100.029,87.2495 98.5,82.5C 95.3586,81.6787 92.0252,81.1787 88.5,81C 91.5,80.6667 94.5,80.3333 97.5,80C 103.93,77.6513 110.43,75.4846 117,73.5C 117.414,73.9574 117.914,74.2907 118.5,74.5C 125.594,72.0515 132.594,72.0515 139.5,74.5 Z"/></g>
<g><path style="opacity:1" fill="#f6cd49" d="M 155.5,48.5 C 142.284,45.884 128.951,45.0507 115.5,46C 101.233,48.6941 88.2333,54.1941 76.5,62.5C 93.3357,47.865 113.002,41.6983 135.5,44C 142.36,45.192 149.026,46.692 155.5,48.5 Z"/></g>
<g><path style="opacity:1" fill="#f7c331" d="M 206.5,72.5 C 211.911,78.9839 216.578,85.9839 220.5,93.5C 223.381,97.9923 225.215,102.992 226,108.5C 226.498,111.817 226.665,115.15 226.5,118.5C 227.856,170.953 203.856,205.786 154.5,223C 112.666,232.057 78.1658,220.223 51,187.5C 47.7349,181.854 44.5683,176.187 41.5,170.5C 42.6431,170.908 43.6431,171.575 44.5,172.5C 57.968,196.98 77.968,213.314 104.5,221.5C 145.596,229.637 179.429,217.637 206,185.5C 230.497,147.912 230.663,110.246 206.5,72.5 Z"/></g>
<g><path style="opacity:1" fill="#fce8b5" d="M 206.5,200.5 C 204.058,203.729 201.392,206.729 198.5,209.5C 194.183,210.962 190.183,213.128 186.5,216C 183.735,216.743 181.069,217.41 178.5,218C 186.4,213.221 193.733,207.721 200.5,201.5C 200.56,202.043 200.893,202.376 201.5,202.5C 202.814,201.687 203.981,200.687 205,199.5C 205.383,200.056 205.883,200.389 206.5,200.5 Z"/></g>
<g><path style="opacity:1" fill="#d19304" d="M 244.5,188.5 C 243.654,191.527 242.32,194.36 240.5,197C 236.581,198.862 232.581,200.529 228.5,202C 226.004,203.331 224.004,205.164 222.5,207.5C 217.007,212.148 213.84,218.148 213,225.5C 208.669,233.905 202.169,239.905 193.5,243.5C 191.506,244.35 189.506,244.85 187.5,245C 191.667,241.5 195.833,238 200,234.5C 204.705,225.283 209.705,216.283 215,207.5C 216.833,205.667 218.667,203.833 220.5,202C 228.982,200.675 236.148,196.842 242,190.5C 242.216,188.616 242.883,186.949 244,185.5C 244.483,186.448 244.649,187.448 244.5,188.5 Z"/></g>
<g><path style="opacity:1" fill="#faba18" d="M 231.5,156.5 C 229.642,164.891 226.642,172.891 222.5,180.5C 222.624,181.107 222.957,181.44 223.5,181.5C 213.189,200.144 198.856,214.811 180.5,225.5C 176.411,227.292 172.244,228.959 168,230.5C 167.235,230.43 166.735,230.097 166.5,229.5C 168.261,228.687 169.928,227.687 171.5,226.5C 181.689,222.58 190.689,216.914 198.5,209.5C 201.392,206.729 204.058,203.729 206.5,200.5C 215.991,189.996 222.991,177.996 227.5,164.5C 228.641,161.746 229.975,159.079 231.5,156.5 Z"/></g>
<g><path style="opacity:1" fill="#fbe190" d="M 232.5,139.5 C 232.232,141.099 232.566,142.432 233.5,143.5C 232.575,147.79 231.909,152.124 231.5,156.5C 229.975,159.079 228.641,161.746 227.5,164.5C 227.649,163.448 227.483,162.448 227,161.5C 220.898,176.72 212.065,190.054 200.5,201.5C 193.733,207.721 186.4,213.221 178.5,218C 181.069,217.41 183.735,216.743 186.5,216C 190.183,213.128 194.183,210.962 198.5,209.5C 190.689,216.914 181.689,222.58 171.5,226.5C 170.584,226.018 169.584,225.685 168.5,225.5C 143.772,231.998 119.105,231.998 94.5,225.5C 89.0011,223.556 83.6678,221.222 78.5,218.5C 61.2396,209.239 47.573,196.239 37.5,179.5C 33.3907,172.616 30.3907,165.282 28.5,157.5C 29.7897,158.236 31.2897,159.569 33,161.5C 36.8551,173.063 43.0218,183.063 51.5,191.5C 85.6513,227.951 125.985,236.785 172.5,218C 197.188,205.149 214.188,185.649 223.5,159.5C 224.583,159.461 225.583,159.127 226.5,158.5C 229.745,154.066 231.411,149.066 231.5,143.5C 231.232,141.901 231.566,140.568 232.5,139.5 Z"/></g>
<g><path style="opacity:1" fill="#c59018" d="M 231.5,103.5 C 232.167,106.5 232.833,109.5 233.5,112.5C 232.508,119.648 232.175,126.981 232.5,134.5C 232.5,136.167 232.5,137.833 232.5,139.5C 231.566,140.568 231.232,141.901 231.5,143.5C 230.778,143.918 230.278,144.584 230,145.5C 229.581,144.328 228.915,143.328 228,142.5C 226.65,148.235 225.15,153.902 223.5,159.5C 214.188,185.649 197.188,205.149 172.5,218C 125.985,236.785 85.6513,227.951 51.5,191.5C 47.5221,185.333 43.6888,178.999 40,172.5C 37.3942,166.178 34.8942,159.844 32.5,153.5C 33.1115,150.696 33.1115,147.696 32.5,144.5C 34.7266,149.843 36.2266,155.51 37,161.5C 38.0399,164.823 39.5399,167.823 41.5,170.5C 44.5683,176.187 47.7349,181.854 51,187.5C 78.1658,220.223 112.666,232.057 154.5,223C 203.856,205.786 227.856,170.953 226.5,118.5C 227.325,122.647 227.825,126.981 228,131.5C 228.499,126.511 228.666,121.511 228.5,116.5C 229.082,122.76 229.915,129.093 231,135.5C 231.22,124.652 231.387,113.985 231.5,103.5 Z"/></g>
<g><path style="opacity:1" fill="#f5cd4e" d="M 69.5,191.5 C 76.9018,196.901 84.5685,201.901 92.5,206.5C 83.4651,203.441 75.7984,198.441 69.5,191.5 Z"/></g>
<g><path style="opacity:1" fill="#f7d25a" d="M 50.5,154.5 C 54.9968,163.997 60.3301,172.997 66.5,181.5C 58.3682,174.248 53.0349,165.248 50.5,154.5 Z"/></g>
<g><path style="opacity:1" fill="#fad471" d="M 38.5,191.5 C 38.8333,191.5 39.1667,191.5 39.5,191.5C 44.8431,197.843 50.8431,203.509 57.5,208.5C 67.2313,217.783 78.7313,223.783 92,226.5C 93.0698,226.472 93.9032,226.139 94.5,225.5C 119.105,231.998 143.772,231.998 168.5,225.5C 169.584,225.685 170.584,226.018 171.5,226.5C 169.928,227.687 168.261,228.687 166.5,229.5C 157.046,232.728 147.379,235.061 137.5,236.5C 96.5306,238.508 63.5306,223.508 38.5,191.5 Z"/></g>
<g><path style="opacity:0.494" fill="#fcbc0c" d="M 14.5,176.5 C 22.7959,183.086 28.6292,191.419 32,201.5C 33.2498,214.01 39.0831,223.677 49.5,230.5C 61.6028,238.259 74.9361,241.593 89.5,240.5C 97.0748,244.287 104.741,248.121 112.5,252C 119.399,252.524 125.732,251.024 131.5,247.5C 142.122,248.465 152.622,250.132 163,252.5C 165.216,252.347 167.383,252.014 169.5,251.5C 171.903,251.552 174.236,251.219 176.5,250.5C 181.238,249.302 185.905,247.802 190.5,246C 191.942,245.623 192.942,244.79 193.5,243.5C 202.169,239.905 208.669,233.905 213,225.5C 213.84,218.148 217.007,212.148 222.5,207.5C 218.776,215.817 214.943,224.15 211,232.5C 198.416,246.648 182.583,253.981 163.5,254.5C 154.902,253.357 146.402,251.69 138,249.5C 130.732,250.87 123.566,252.537 116.5,254.5C 113.741,254.458 111.075,253.958 108.5,253C 103.5,250 98.5,247 93.5,244C 83.8333,243 74.1667,242 64.5,241C 48.9721,236.14 37.8054,226.307 31,211.5C 30.6667,208.5 30.3333,205.5 30,202.5C 27.4373,197.108 23.9373,192.441 19.5,188.5C 20.675,188.719 21.675,188.386 22.5,187.5C 19.7839,183.797 17.1172,180.13 14.5,176.5 Z"/></g>
<g><path style="opacity:1" fill="#ecab05" d="M 133.5,239.5 C 136.518,239.335 139.518,239.502 142.5,240C 155.816,244.378 169.482,246.712 183.5,247C 180.931,247.898 178.598,249.065 176.5,250.5C 174.236,251.219 171.903,251.552 169.5,251.5C 158.417,247.861 146.917,245.528 135,244.5C 127.751,246.445 120.585,248.445 113.5,250.5C 111.513,249.836 109.846,248.669 108.5,247C 112.167,246.667 115.833,246.333 119.5,246C 122.328,243.752 125.328,241.752 128.5,240C 130.134,239.506 131.801,239.34 133.5,239.5 Z"/></g>
<g><path style="opacity:1" fill="#d79906" d="M 169.5,251.5 C 167.383,252.014 165.216,252.347 163,252.5C 152.622,250.132 142.122,248.465 131.5,247.5C 125.648,249.338 119.648,250.338 113.5,250.5C 120.585,248.445 127.751,246.445 135,244.5C 146.917,245.528 158.417,247.861 169.5,251.5 Z"/></g>
<g><path style="opacity:1" fill="#dea216" d="M 89.5,240.5 C 74.9361,241.593 61.6028,238.259 49.5,230.5C 47.205,227.703 44.705,225.036 42,222.5C 40.7107,220.945 40.044,219.279 40,217.5C 45.2095,222.378 50.7095,226.878 56.5,231C 68.4676,232.991 80.1343,235.991 91.5,240C 90.9056,240.464 90.2389,240.631 89.5,240.5 Z"/></g>
<g><path style="opacity:1" fill="#fed05a" d="M 170.5,231.5 C 179.899,232.348 188.399,229.681 196,223.5C 196.5,222 197,220.5 197.5,219C 197.164,217.97 196.497,217.47 195.5,217.5C 201.397,211.303 202.897,212.303 200,220.5C 198.248,224.588 195.415,227.754 191.5,230C 183.418,233.646 174.918,235.812 166,236.5C 163.833,236.333 161.667,236.167 159.5,236C 163.036,234.209 166.703,232.709 170.5,231.5 Z"/></g>
<g><path style="opacity:1" fill="#fed670" d="M 195.5,217.5 C 196.497,217.47 197.164,217.97 197.5,219C 197,220.5 196.5,222 196,223.5C 188.399,229.681 179.899,232.348 170.5,231.5C 174.168,230.002 177.502,228.002 180.5,225.5C 185.98,223.675 190.98,221.009 195.5,217.5 Z"/></g>
<g><path style="opacity:1" fill="#fad058" d="M 57.5,208.5 C 58.8734,208.343 60.2068,208.51 61.5,209C 66.2286,213.314 71.5619,216.814 77.5,219.5C 78.1067,219.376 78.44,219.043 78.5,218.5C 83.6678,221.222 89.0011,223.556 94.5,225.5C 93.9032,226.139 93.0698,226.472 92,226.5C 78.7313,223.783 67.2313,217.783 57.5,208.5 Z"/></g>
<g><path style="opacity:1" fill="#fad254" d="M 111.5,212.5 C 120.482,213.218 129.482,213.552 138.5,213.5C 135.183,214.165 131.683,214.499 128,214.5C 122.257,214.642 116.757,213.975 111.5,212.5 Z"/></g>
</svg>
