<?xml version="1.0" encoding="UTF-8"?>
<!DOCTYPE svg PUBLIC "-//W3C//DTD SVG 1.1//EN" "http://www.w3.org/Graphics/SVG/1.1/DTD/svg11.dtd">
<svg xmlns="http://www.w3.org/2000/svg" version="1.1" width="64px" height="64px" style="shape-rendering:geometricPrecision; text-rendering:geometricPrecision; image-rendering:optimizeQuality; fill-rule:evenodd; clip-rule:evenodd" xmlns:xlink="http://www.w3.org/1999/xlink">
<g><path style="opacity:1" fill="#aea59a" d="M 20.5,-0.5 C 34.8333,-0.5 49.1667,-0.5 63.5,-0.5C 63.5,8.83333 63.5,18.1667 63.5,27.5C 60.2699,27.439 58.4365,25.7723 58,22.5C 55.8513,21.348 54.018,19.848 52.5,18C 53.3081,17.6924 53.9747,17.1924 54.5,16.5C 53.3595,15.5745 53.3595,14.7412 54.5,14C 53.6721,13.0853 52.6721,12.4186 51.5,12C 53.5127,10.2087 53.5127,8.87534 51.5,8C 51.8333,7.66667 52.1667,7.33333 52.5,7C 51.2161,6.31621 50.0495,6.48288 49,7.5C 48.5,7 48,6.5 47.5,6C 48.8333,5.66667 50.1667,5.33333 51.5,5C 45.6523,4.34625 39.9856,3.84625 34.5,3.5C 33.3527,3.81777 32.5194,4.48444 32,5.5C 31.6667,4.83333 31.3333,4.16667 31,3.5C 28.26,3.50317 25.5933,4.50317 23,6.5C 22.6667,5.83333 22.3333,5.16667 22,4.5C 21.6012,4.72845 21.4346,5.06178 21.5,5.5C 20.5,5.5 19.5,5.5 18.5,5.5C 18.6036,3.29719 19.2702,1.29719 20.5,-0.5 Z"/></g>
<g><path style="opacity:1" fill="#aaa89b" d="M -0.5,-0.5 C 6.5,-0.5 13.5,-0.5 20.5,-0.5C 19.2702,1.29719 18.6036,3.29719 18.5,5.5C 19.5,5.5 20.5,5.5 21.5,5.5C 19.9739,7.12997 17.9739,7.96331 15.5,8C 13.7345,11.5509 11.0678,12.8842 7.5,12C 8.45057,12.7175 8.61723,13.5509 8,14.5C 5.87073,13.1373 5.37073,13.4706 6.5,15.5C 4.34927,16.8199 2.34927,18.3199 0.5,20C 2.85719,21.22 2.52386,22.0533 -0.5,22.5C -0.5,14.8333 -0.5,7.16667 -0.5,-0.5 Z"/></g>
<g><path style="opacity:1" fill="#a89e93" d="M 63.5,27.5 C 63.5,28.8333 63.5,30.1667 63.5,31.5C 62.1266,31.6567 60.7932,31.49 59.5,31C 56.4153,27.3113 53.4153,23.478 50.5,19.5C 48.1987,18.6751 45.8654,18.0084 43.5,17.5C 42.1917,16.7677 40.8584,15.9344 39.5,15C 35.3911,14.3352 31.3911,13.5018 27.5,12.5C 27.6309,11.6236 27.2975,10.9569 26.5,10.5C 22.7168,11.0538 20.0501,13.0538 18.5,16.5C 16.3775,16.6225 14.2109,16.6225 12,16.5C 10.3831,17.5358 10.2164,18.7025 11.5,20C 10.2068,20.49 8.87344,20.6567 7.5,20.5C 7.5,21.5 7.5,22.5 7.5,23.5C 4.72766,23.5952 2.72766,24.9285 1.5,27.5C 0.816537,27.1373 0.14987,26.8039 -0.5,26.5C -0.5,25.1667 -0.5,23.8333 -0.5,22.5C 2.52386,22.0533 2.85719,21.22 0.5,20C 2.34927,18.3199 4.34927,16.8199 6.5,15.5C 5.37073,13.4706 5.87073,13.1373 8,14.5C 8.61723,13.5509 8.45057,12.7175 7.5,12C 11.0678,12.8842 13.7345,11.5509 15.5,8C 17.9739,7.96331 19.9739,7.12997 21.5,5.5C 21.4346,5.06178 21.6012,4.72845 22,4.5C 22.3333,5.16667 22.6667,5.83333 23,6.5C 25.5933,4.50317 28.26,3.50317 31,3.5C 31.3333,4.16667 31.6667,4.83333 32,5.5C 32.5194,4.48444 33.3527,3.81777 34.5,3.5C 39.9856,3.84625 45.6523,4.34625 51.5,5C 50.1667,5.33333 48.8333,5.66667 47.5,6C 48,6.5 48.5,7 49,7.5C 50.0495,6.48288 51.2161,6.31621 52.5,7C 52.1667,7.33333 51.8333,7.66667 51.5,8C 53.5127,8.87534 53.5127,10.2087 51.5,12C 52.6721,12.4186 53.6721,13.0853 54.5,14C 53.3595,14.7412 53.3595,15.5745 54.5,16.5C 53.9747,17.1924 53.3081,17.6924 52.5,18C 54.018,19.848 55.8513,21.348 58,22.5C 58.4365,25.7723 60.2699,27.439 63.5,27.5 Z"/></g>
<g><path style="opacity:1" fill="#a1988d" d="M 27.5,12.5 C 26.0527,14.4032 24.386,16.0699 22.5,17.5C 19.368,19.2031 17.7014,21.8698 17.5,25.5C 15.1667,26.1667 12.8333,26.8333 10.5,27.5C 10.6795,29.9541 10.0128,32.1208 8.5,34C 9.12876,36.1727 8.4621,38.1727 6.5,40C 6.83333,40.3333 7.16667,40.6667 7.5,41C 3.5,41.6667 3.5,42.3333 7.5,43C 5.16667,43.3333 2.83333,43.6667 0.5,44C 2.41332,45.7911 4.07999,47.7911 5.5,50C 3.89253,49.9813 2.22586,49.8146 0.5,49.5C 0.737305,50.791 0.403972,51.791 -0.5,52.5C -0.5,43.8333 -0.5,35.1667 -0.5,26.5C 0.14987,26.8039 0.816537,27.1373 1.5,27.5C 2.72766,24.9285 4.72766,23.5952 7.5,23.5C 7.5,22.5 7.5,21.5 7.5,20.5C 8.87344,20.6567 10.2068,20.49 11.5,20C 10.2164,18.7025 10.3831,17.5358 12,16.5C 14.2109,16.6225 16.3775,16.6225 18.5,16.5C 20.0501,13.0538 22.7168,11.0538 26.5,10.5C 27.2975,10.9569 27.6309,11.6236 27.5,12.5 Z"/></g>
<g><path style="opacity:1" fill="#a76f5f" d="M 40.5,24.5 C 39.2101,26.9866 38.2101,26.6533 37.5,23.5C 36.5,22.1667 35.5,22.1667 34.5,23.5C 33.4937,23.0623 33.4937,22.3957 34.5,21.5C 33.675,20.6143 32.675,20.281 31.5,20.5C 31.6495,21.552 31.4828,22.552 31,23.5C 30.2825,22.5494 29.4491,22.3828 28.5,23C 26.6061,24.1011 25.9394,25.4345 26.5,27C 23.8793,28.5945 21.2126,30.0945 18.5,31.5C 17.3861,30.277 17.2195,28.9437 18,27.5C 19.5848,26.6243 20.5848,25.2909 21,23.5C 21.3333,23.8333 21.6667,24.1667 22,24.5C 22.8841,22.575 23.3841,20.575 23.5,18.5C 24.9643,17.5946 26.2976,17.5946 27.5,18.5C 27.3505,19.552 27.5172,20.552 28,21.5C 29.2284,20.0028 29.7284,18.6694 29.5,17.5C 30.7736,16.8106 30.7736,15.9772 29.5,15C 31.7142,14.5403 32.3808,15.207 31.5,17C 33.953,17.7267 36.2864,18.7267 38.5,20C 38.0426,20.414 37.7093,20.914 37.5,21.5C 38.548,22.548 39.548,23.548 40.5,24.5 Z"/></g>
<g><path style="opacity:1" fill="#7d4c41" d="M 29.5,17.5 C 29.7284,18.6694 29.2284,20.0028 28,21.5C 27.5172,20.552 27.3505,19.552 27.5,18.5C 27.7107,16.5759 28.3774,16.2426 29.5,17.5 Z"/></g>
<g><path style="opacity:1" fill="#aa947b" d="M 43.5,17.5 C 45.8654,18.0084 48.1987,18.6751 50.5,19.5C 53.4153,23.478 56.4153,27.3113 59.5,31C 60.7932,31.49 62.1266,31.6567 63.5,31.5C 63.5,34.1667 63.5,36.8333 63.5,39.5C 62.5,40.1667 61.5,40.8333 60.5,41.5C 59.1266,41.6567 57.7932,41.49 56.5,41C 57.3081,40.6924 57.9747,40.1924 58.5,39.5C 57.2342,38.6376 55.9008,37.9709 54.5,37.5C 53.4706,35.4832 52.4706,33.4832 51.5,31.5C 49.2047,28.6086 47.7047,25.2753 47,21.5C 45.6244,20.2949 44.4577,18.9616 43.5,17.5 Z"/></g>
<g><path style="opacity:1" fill="#e9ad91" d="M 27.5,12.5 C 31.3911,13.5018 35.3911,14.3352 39.5,15C 40.8584,15.9344 42.1917,16.7677 43.5,17.5C 44.4577,18.9616 45.6244,20.2949 47,21.5C 47.7047,25.2753 49.2047,28.6086 51.5,31.5C 50.1667,31.5 48.8333,31.5 47.5,31.5C 47.6716,30.5084 47.3382,29.8417 46.5,29.5C 46.6495,28.448 46.4828,27.448 46,26.5C 45.6667,26.8333 45.3333,27.1667 45,27.5C 44.7734,24.0639 43.2734,23.0639 40.5,24.5C 39.548,23.548 38.548,22.548 37.5,21.5C 37.7093,20.914 38.0426,20.414 38.5,20C 36.2864,18.7267 33.953,17.7267 31.5,17C 32.3808,15.207 31.7142,14.5403 29.5,15C 30.7736,15.9772 30.7736,16.8106 29.5,17.5C 28.3774,16.2426 27.7107,16.5759 27.5,18.5C 26.2976,17.5946 24.9643,17.5946 23.5,18.5C 23.5,17.8333 23.1667,17.5 22.5,17.5C 24.386,16.0699 26.0527,14.4032 27.5,12.5 Z"/></g>
<g><path style="opacity:1" fill="#d99f86" d="M 22.5,17.5 C 23.1667,17.5 23.5,17.8333 23.5,18.5C 23.3841,20.575 22.8841,22.575 22,24.5C 21.6667,24.1667 21.3333,23.8333 21,23.5C 20.5848,25.2909 19.5848,26.6243 18,27.5C 17.2195,28.9437 17.3861,30.277 18.5,31.5C 21.2126,30.0945 23.8793,28.5945 26.5,27C 25.9394,25.4345 26.6061,24.1011 28.5,23C 29.4491,22.3828 30.2825,22.5494 31,23.5C 31.4828,22.552 31.6495,21.552 31.5,20.5C 32.675,20.281 33.675,20.6143 34.5,21.5C 33.4937,22.3957 33.4937,23.0623 34.5,23.5C 35.5,22.1667 36.5,22.1667 37.5,23.5C 38.2101,26.6533 39.2101,26.9866 40.5,24.5C 43.2734,23.0639 44.7734,24.0639 45,27.5C 45.3333,27.1667 45.6667,26.8333 46,26.5C 46.4828,27.448 46.6495,28.448 46.5,29.5C 43.6481,28.7417 40.9815,28.7417 38.5,29.5C 35.2569,28.42 31.9236,28.2534 28.5,29C 24.5326,30.8269 20.5326,32.3269 16.5,33.5C 16.2786,30.7212 16.612,28.0545 17.5,25.5C 17.7014,21.8698 19.368,19.2031 22.5,17.5 Z"/></g>
<g><path style="opacity:1" fill="#915d50" d="M 46.5,29.5 C 47.3382,29.8417 47.6716,30.5084 47.5,31.5C 45.5842,33.1157 44.0842,32.7823 43,30.5C 42.6667,31.1667 42.3333,31.8333 42,32.5C 40.2714,32.0257 39.1047,31.0257 38.5,29.5C 40.9815,28.7417 43.6481,28.7417 46.5,29.5 Z"/></g>
<g><path style="opacity:1" fill="#6a4036" d="M 38.5,29.5 C 39.1047,31.0257 40.2714,32.0257 42,32.5C 42.3333,31.8333 42.6667,31.1667 43,30.5C 44.0842,32.7823 45.5842,33.1157 47.5,31.5C 48.8333,31.5 50.1667,31.5 51.5,31.5C 52.4706,33.4832 53.4706,35.4832 54.5,37.5C 53.0474,38.8249 53.3808,39.6582 55.5,40C 53.9631,42.6119 51.9631,43.1119 49.5,41.5C 49.5,41.1667 49.5,40.8333 49.5,40.5C 50.0431,40.44 50.3764,40.1067 50.5,39.5C 49.6872,38.1861 48.6872,37.0195 47.5,36C 42.9338,34.1917 38.2671,32.6917 33.5,31.5C 30.5946,32.8874 27.5946,33.7207 24.5,34C 25.1667,34.3333 25.8333,34.6667 26.5,35C 24.8068,35.8466 23.1401,36.6799 21.5,37.5C 20.1266,37.3433 18.7932,37.51 17.5,38C 16.9221,39.417 15.9221,40.2504 14.5,40.5C 13.5946,39.2976 13.5946,37.9643 14.5,36.5C 16.8241,36.1227 17.4908,35.1227 16.5,33.5C 20.5326,32.3269 24.5326,30.8269 28.5,29C 31.9236,28.2534 35.2569,28.42 38.5,29.5 Z"/></g>
<g><path style="opacity:1" fill="#3a1d11" d="M 49.5,40.5 C 49.5,39.8333 49.1667,39.5 48.5,39.5C 44.5836,35.2498 40.0836,34.5831 35,37.5C 33.3745,36.7113 31.8745,35.7113 30.5,34.5C 28.5,35.5 26.5,36.5 24.5,37.5C 23.2267,38.2565 23.2267,38.9232 24.5,39.5C 24.5,39.8333 24.5,40.1667 24.5,40.5C 22.8333,40.5 21.1667,40.5 19.5,40.5C 20.1667,39.5 20.8333,38.5 21.5,37.5C 23.1401,36.6799 24.8068,35.8466 26.5,35C 25.8333,34.6667 25.1667,34.3333 24.5,34C 27.5946,33.7207 30.5946,32.8874 33.5,31.5C 38.2671,32.6917 42.9338,34.1917 47.5,36C 48.6872,37.0195 49.6872,38.1861 50.5,39.5C 50.3764,40.1067 50.0431,40.44 49.5,40.5 Z"/></g>
<g><path style="opacity:1" fill="#9f9386" d="M 17.5,25.5 C 16.612,28.0545 16.2786,30.7212 16.5,33.5C 17.4908,35.1227 16.8241,36.1227 14.5,36.5C 13.8501,36.8039 13.1835,37.1373 12.5,37.5C 11.8,41.041 11.1334,44.541 10.5,48C 10.9574,48.414 11.2907,48.914 11.5,49.5C 10.3112,50.4287 8.97782,50.762 7.5,50.5C 7.5,51.8333 7.5,53.1667 7.5,54.5C 6.44802,54.3505 5.44802,54.5172 4.5,55C 4.5,56 4.5,57 4.5,58C 2.86913,59.0915 1.20246,59.9249 -0.5,60.5C -0.5,57.8333 -0.5,55.1667 -0.5,52.5C 0.403972,51.791 0.737305,50.791 0.5,49.5C 2.22586,49.8146 3.89253,49.9813 5.5,50C 4.07999,47.7911 2.41332,45.7911 0.5,44C 2.83333,43.6667 5.16667,43.3333 7.5,43C 3.5,42.3333 3.5,41.6667 7.5,41C 7.16667,40.6667 6.83333,40.3333 6.5,40C 8.4621,38.1727 9.12876,36.1727 8.5,34C 10.0128,32.1208 10.6795,29.9541 10.5,27.5C 12.8333,26.8333 15.1667,26.1667 17.5,25.5 Z"/></g>
<g><path style="opacity:1" fill="#583d1e" d="M 48.5,39.5 C 47.4324,40.4345 46.099,40.7678 44.5,40.5C 42.9504,39.2801 41.2837,39.2801 39.5,40.5C 37.0607,41.0525 34.7273,41.0525 32.5,40.5C 31.6143,41.325 31.281,42.325 31.5,43.5C 29.4131,44.5846 28.0798,46.2512 27.5,48.5C 25.8235,45.991 23.6569,43.991 21,42.5C 20.6174,43.056 20.1174,43.3893 19.5,43.5C 19.5,42.5 19.5,41.5 19.5,40.5C 21.1667,40.5 22.8333,40.5 24.5,40.5C 24.8836,42.2926 26.0503,43.2926 28,43.5C 29.2798,43.3865 30.1131,42.7199 30.5,41.5C 28.8273,39.9137 26.8273,39.2471 24.5,39.5C 23.2267,38.9232 23.2267,38.2565 24.5,37.5C 26.5,36.5 28.5,35.5 30.5,34.5C 31.8745,35.7113 33.3745,36.7113 35,37.5C 40.0836,34.5831 44.5836,35.2498 48.5,39.5 Z"/></g>
<g><path style="opacity:1" fill="#150c09" d="M 24.5,39.5 C 26.8273,39.2471 28.8273,39.9137 30.5,41.5C 30.1131,42.7199 29.2798,43.3865 28,43.5C 26.0503,43.2926 24.8836,42.2926 24.5,40.5C 24.5,40.1667 24.5,39.8333 24.5,39.5 Z"/></g>
<g><path style="opacity:1" fill="#5b3523" d="M 21.5,37.5 C 20.8333,38.5 20.1667,39.5 19.5,40.5C 19.5,41.5 19.5,42.5 19.5,43.5C 18.596,44.209 18.2627,45.209 18.5,46.5C 17.8333,46.5 17.1667,46.5 16.5,46.5C 14.4662,45.4522 13.1329,43.7855 12.5,41.5C 12.9569,40.7025 13.6236,40.3691 14.5,40.5C 15.9221,40.2504 16.9221,39.417 17.5,38C 18.7932,37.51 20.1266,37.3433 21.5,37.5 Z"/></g>
<g><path style="opacity:1" fill="#715025" d="M 48.5,39.5 C 49.1667,39.5 49.5,39.8333 49.5,40.5C 49.5,40.8333 49.5,41.1667 49.5,41.5C 48.5084,41.3284 47.8417,41.6618 47.5,42.5C 45.9519,42.8212 45.2852,43.8212 45.5,45.5C 42.4243,46.0363 39.9243,45.0363 38,42.5C 35.9592,43.4231 33.7925,43.7564 31.5,43.5C 31.281,42.325 31.6143,41.325 32.5,40.5C 34.7273,41.0525 37.0607,41.0525 39.5,40.5C 39.7911,41.6491 40.6244,42.3158 42,42.5C 43.3756,42.3158 44.2089,41.6491 44.5,40.5C 46.099,40.7678 47.4324,40.4345 48.5,39.5 Z"/></g>
<g><path style="opacity:1" fill="#0f0908" d="M 44.5,40.5 C 44.2089,41.6491 43.3756,42.3158 42,42.5C 40.6244,42.3158 39.7911,41.6491 39.5,40.5C 41.2837,39.2801 42.9504,39.2801 44.5,40.5 Z"/></g>
<g><path style="opacity:1" fill="#b28b51" d="M 47.5,42.5 C 47.019,44.6379 45.8524,46.3045 44,47.5C 43.51,48.7932 43.3433,50.1266 43.5,51.5C 41.8007,51.4729 40.4674,50.8062 39.5,49.5C 38.4855,48.2353 36.9855,47.5687 35,47.5C 33.2933,47.5085 31.7933,47.8418 30.5,48.5C 30.5,48.8333 30.5,49.1667 30.5,49.5C 30.1667,49.5 29.8333,49.5 29.5,49.5C 28.0755,51.0311 27.4088,50.6977 27.5,48.5C 28.0798,46.2512 29.4131,44.5846 31.5,43.5C 33.7925,43.7564 35.9592,43.4231 38,42.5C 39.9243,45.0363 42.4243,46.0363 45.5,45.5C 45.2852,43.8212 45.9519,42.8212 47.5,42.5 Z"/></g>
<g><path style="opacity:1" fill="#836f51" d="M 27.5,48.5 C 27.4088,50.6977 28.0755,51.0311 29.5,49.5C 29.5497,52.1977 28.5497,54.3644 26.5,56C 27.0442,56.7172 27.7109,57.2172 28.5,57.5C 28.5,58.1667 28.1667,58.5 27.5,58.5C 22.5797,56.0139 19.5797,52.0139 18.5,46.5C 18.2627,45.209 18.596,44.209 19.5,43.5C 20.1174,43.3893 20.6174,43.056 21,42.5C 23.6569,43.991 25.8235,45.991 27.5,48.5 Z"/></g>
<g><path style="opacity:1" fill="#171510" d="M 30.5,48.5 C 33.1667,48.5 35.8333,48.5 38.5,48.5C 38.7845,50.4147 38.4511,52.0813 37.5,53.5C 35.2043,53.8041 34.871,54.8041 36.5,56.5C 36.1667,56.5 35.8333,56.5 35.5,56.5C 32.4017,56.5875 32.0684,56.0875 34.5,55C 33.7562,53.9614 32.7562,53.4614 31.5,53.5C 31.1667,52.1667 30.8333,50.8333 30.5,49.5C 30.5,49.1667 30.5,48.8333 30.5,48.5 Z"/></g>
<g><path style="opacity:1" fill="#b4a17a" d="M 47.5,42.5 C 48.1174,42.6107 48.6174,42.944 49,43.5C 49.4955,45.4727 49.6621,47.4727 49.5,49.5C 47.8606,51.8061 45.8606,53.8061 43.5,55.5C 40.2244,54.8784 38.8911,52.8784 39.5,49.5C 40.4674,50.8062 41.8007,51.4729 43.5,51.5C 43.3433,50.1266 43.51,48.7932 44,47.5C 45.8524,46.3045 47.019,44.6379 47.5,42.5 Z"/></g>
<g><path style="opacity:1" fill="#615340" d="M 29.5,49.5 C 29.8333,49.5 30.1667,49.5 30.5,49.5C 30.8333,50.8333 31.1667,52.1667 31.5,53.5C 31.2294,55.4305 30.2294,56.7638 28.5,57.5C 27.7109,57.2172 27.0442,56.7172 26.5,56C 28.5497,54.3644 29.5497,52.1977 29.5,49.5 Z"/></g>
<g><path style="opacity:1" fill="#847459" d="M 30.5,48.5 C 31.7933,47.8418 33.2933,47.5085 35,47.5C 36.9855,47.5687 38.4855,48.2353 39.5,49.5C 38.8911,52.8784 40.2244,54.8784 43.5,55.5C 43.1667,56.5 42.5,57.1667 41.5,57.5C 39.8608,56.5275 38.5274,55.1942 37.5,53.5C 38.4511,52.0813 38.7845,50.4147 38.5,48.5C 35.8333,48.5 33.1667,48.5 30.5,48.5 Z"/></g>
<g><path style="opacity:1" fill="#89775e" d="M 54.5,37.5 C 55.9008,37.9709 57.2342,38.6376 58.5,39.5C 57.9747,40.1924 57.3081,40.6924 56.5,41C 57.7932,41.49 59.1266,41.6567 60.5,41.5C 59.3947,43.7131 59.3947,45.8797 60.5,48C 57.3151,48.6567 55.6484,50.6567 55.5,54C 57.8833,54.065 58.55,54.8983 57.5,56.5C 58.0253,57.1924 58.6919,57.6924 59.5,58C 58.9781,58.5613 58.6448,59.228 58.5,60C 59.4295,61.0769 60.0962,62.2436 60.5,63.5C 57.5,63.5 54.5,63.5 51.5,63.5C 50.5448,61.2543 49.8782,58.921 49.5,56.5C 49.5,54.1667 49.5,51.8333 49.5,49.5C 49.6621,47.4727 49.4955,45.4727 49,43.5C 48.6174,42.944 48.1174,42.6107 47.5,42.5C 47.8417,41.6618 48.5084,41.3284 49.5,41.5C 51.9631,43.1119 53.9631,42.6119 55.5,40C 53.3808,39.6582 53.0474,38.8249 54.5,37.5 Z"/></g>
<g><path style="opacity:1" fill="#968676" d="M 63.5,39.5 C 63.5,47.5 63.5,55.5 63.5,63.5C 62.5,63.5 61.5,63.5 60.5,63.5C 60.0962,62.2436 59.4295,61.0769 58.5,60C 58.6448,59.228 58.9781,58.5613 59.5,58C 58.6919,57.6924 58.0253,57.1924 57.5,56.5C 58.55,54.8983 57.8833,54.065 55.5,54C 55.6484,50.6567 57.3151,48.6567 60.5,48C 59.3947,45.8797 59.3947,43.7131 60.5,41.5C 61.5,40.8333 62.5,40.1667 63.5,39.5 Z"/></g>
<g><path style="opacity:1" fill="#3a3023" d="M 37.5,53.5 C 38.5274,55.1942 39.8608,56.5275 41.5,57.5C 41.1667,57.5 40.8333,57.5 40.5,57.5C 38.901,57.7678 37.5676,57.4345 36.5,56.5C 34.871,54.8041 35.2043,53.8041 37.5,53.5 Z"/></g>
<g><path style="opacity:1" fill="#3b3125" d="M 31.5,53.5 C 32.7562,53.4614 33.7562,53.9614 34.5,55C 32.0684,56.0875 32.4017,56.5875 35.5,56.5C 33.3926,57.4682 31.0593,57.8016 28.5,57.5C 30.2294,56.7638 31.2294,55.4305 31.5,53.5 Z"/></g>
<g><path style="opacity:1" fill="#a18f7f" d="M 14.5,36.5 C 13.5946,37.9643 13.5946,39.2976 14.5,40.5C 13.6236,40.3691 12.9569,40.7025 12.5,41.5C 13.1329,43.7855 14.4662,45.4522 16.5,46.5C 17.9331,48.5582 18.5997,50.8915 18.5,53.5C 16.2036,54.733 14.8702,56.733 14.5,59.5C 11.6829,60.0951 9.34952,61.4284 7.5,63.5C 4.83333,63.5 2.16667,63.5 -0.5,63.5C -0.5,62.5 -0.5,61.5 -0.5,60.5C 1.20246,59.9249 2.86913,59.0915 4.5,58C 4.5,57 4.5,56 4.5,55C 5.44802,54.5172 6.44802,54.3505 7.5,54.5C 7.5,53.1667 7.5,51.8333 7.5,50.5C 8.97782,50.762 10.3112,50.4287 11.5,49.5C 11.2907,48.914 10.9574,48.414 10.5,48C 11.1334,44.541 11.8,41.041 12.5,37.5C 13.1835,37.1373 13.8501,36.8039 14.5,36.5 Z"/></g>
<g><path style="opacity:1" fill="#9f8354" d="M 18.5,53.5 C 18.3284,54.4916 18.6618,55.1583 19.5,55.5C 19.6399,57.1238 18.9733,58.2904 17.5,59C 19.9312,60.0924 19.9312,61.2591 17.5,62.5C 16.2719,61.6935 15.2719,60.6935 14.5,59.5C 14.8702,56.733 16.2036,54.733 18.5,53.5 Z"/></g>
<g><path style="opacity:1" fill="#6b532e" d="M 49.5,49.5 C 49.5,51.8333 49.5,54.1667 49.5,56.5C 46.7062,58.2125 43.7062,59.5459 40.5,60.5C 40.5,59.5 40.5,58.5 40.5,57.5C 40.8333,57.5 41.1667,57.5 41.5,57.5C 42.5,57.1667 43.1667,56.5 43.5,55.5C 45.8606,53.8061 47.8606,51.8061 49.5,49.5 Z"/></g>
<g><path style="opacity:1" fill="#7f6944" d="M 19.5,55.5 C 24.1914,57.8444 24.5248,60.5111 20.5,63.5C 19.8333,63.5 19.1667,63.5 18.5,63.5C 18.5,62.8333 18.1667,62.5 17.5,62.5C 19.9312,61.2591 19.9312,60.0924 17.5,59C 18.9733,58.2904 19.6399,57.1238 19.5,55.5 Z"/></g>
<g><path style="opacity:1" fill="#6e5d48" d="M 35.5,56.5 C 35.8333,56.5 36.1667,56.5 36.5,56.5C 37.5676,57.4345 38.901,57.7678 40.5,57.5C 40.5,58.5 40.5,59.5 40.5,60.5C 39.596,61.209 39.2627,62.209 39.5,63.5C 38.1667,63.5 36.8333,63.5 35.5,63.5C 35.6107,62.8826 35.944,62.3826 36.5,62C 33.198,61.3392 30.198,60.1725 27.5,58.5C 28.1667,58.5 28.5,58.1667 28.5,57.5C 31.0593,57.8016 33.3926,57.4682 35.5,56.5 Z"/></g>
<g><path style="opacity:1" fill="#c6a470" d="M 14.5,59.5 C 15.2719,60.6935 16.2719,61.6935 17.5,62.5C 18.1667,62.5 18.5,62.8333 18.5,63.5C 14.8333,63.5 11.1667,63.5 7.5,63.5C 9.34952,61.4284 11.6829,60.0951 14.5,59.5 Z"/></g>
<g><path style="opacity:1" fill="#614d30" d="M 16.5,46.5 C 17.1667,46.5 17.8333,46.5 18.5,46.5C 19.5797,52.0139 22.5797,56.0139 27.5,58.5C 30.198,60.1725 33.198,61.3392 36.5,62C 35.944,62.3826 35.6107,62.8826 35.5,63.5C 30.5,63.5 25.5,63.5 20.5,63.5C 24.5248,60.5111 24.1914,57.8444 19.5,55.5C 18.6618,55.1583 18.3284,54.4916 18.5,53.5C 18.5997,50.8915 17.9331,48.5582 16.5,46.5 Z"/></g>
<g><path style="opacity:1" fill="#8c7146" d="M 49.5,56.5 C 49.8782,58.921 50.5448,61.2543 51.5,63.5C 47.5,63.5 43.5,63.5 39.5,63.5C 39.2627,62.209 39.596,61.209 40.5,60.5C 43.7062,59.5459 46.7062,58.2125 49.5,56.5 Z"/></g>
</svg>
