<?xml version="1.0" encoding="UTF-8"?>
<!DOCTYPE svg PUBLIC "-//W3C//DTD SVG 1.1//EN" "http://www.w3.org/Graphics/SVG/1.1/DTD/svg11.dtd">
<svg xmlns="http://www.w3.org/2000/svg" version="1.1" width="64px" height="64px" style="shape-rendering:geometricPrecision; text-rendering:geometricPrecision; image-rendering:optimizeQuality; fill-rule:evenodd; clip-rule:evenodd" xmlns:xlink="http://www.w3.org/1999/xlink">
<g><path style="opacity:0.961" fill="#000000" d="M 24.5,-0.5 C 28.8333,-0.5 33.1667,-0.5 37.5,-0.5C 50.727,3.05986 59.3937,11.3932 63.5,24.5C 63.5,28.8333 63.5,33.1667 63.5,37.5C 59.9401,50.727 51.6068,59.3937 38.5,63.5C 34.1667,63.5 29.8333,63.5 25.5,63.5C 12.273,59.9401 3.60629,51.6068 -0.5,38.5C -0.5,33.8333 -0.5,29.1667 -0.5,24.5C 3.5,11.8333 11.8333,3.5 24.5,-0.5 Z M 27.5,5.5 C 35.9376,4.93817 43.271,7.43817 49.5,13C 41.0906,13.0933 32.7573,13.76 24.5,15C 19.4897,17.8417 16.1564,22.0084 14.5,27.5C 11.5541,28.6548 8.55413,28.8214 5.5,28C 8.34817,15.9863 15.6815,8.48627 27.5,5.5 Z M 29.5,19.5 C 37.84,19.3336 46.1733,19.5003 54.5,20C 55.6532,22.6157 56.6532,25.2824 57.5,28C 45.4861,28.8326 33.4861,28.6659 21.5,27.5C 23.2163,23.7836 25.8829,21.1169 29.5,19.5 Z M 5.5,35.5 C 11.6415,33.0517 15.4748,35.0517 17,41.5C 19.6867,45.1938 23.1867,47.6938 27.5,49C 34.8333,49.3333 42.1667,49.6667 49.5,50C 36.5842,60.3241 24.0842,59.8241 12,48.5C 8.76873,44.6021 6.60206,40.2688 5.5,35.5 Z M 21.5,34.5 C 33.5046,34.3335 45.5046,34.5001 57.5,35C 56.6532,37.7176 55.6532,40.3843 54.5,43C 46.1667,43.6667 37.8333,43.6667 29.5,43C 25.2518,41.5871 22.5852,38.7538 21.5,34.5 Z"/></g>
</svg>
