<?xml version="1.0" encoding="UTF-8"?>
<!DOCTYPE svg PUBLIC "-//W3C//DTD SVG 1.1//EN" "http://www.w3.org/Graphics/SVG/1.1/DTD/svg11.dtd">
<svg xmlns="http://www.w3.org/2000/svg" version="1.1" width="64px" height="64px" style="shape-rendering:geometricPrecision; text-rendering:geometricPrecision; image-rendering:optimizeQuality; fill-rule:evenodd; clip-rule:evenodd" xmlns:xlink="http://www.w3.org/1999/xlink">
<g><path style="opacity:0.997" fill="#ff4935" d="M 24.5,-0.5 C 28.1667,-0.5 31.8333,-0.5 35.5,-0.5C 23.8571,8.13514 12.1904,16.8018 0.5,25.5C 0.666696,21.3266 2.00003,17.6599 4.5,14.5C 11.4484,10.2154 18.1151,5.54871 24.5,0.5C 24.5,0.166667 24.5,-0.166667 24.5,-0.5 Z"/></g>
<g><path style="opacity:0.997" fill="#ff483b" d="M 35.5,-0.5 C 36.1667,-0.5 36.8333,-0.5 37.5,-0.5C 38.8333,0.166667 40.1667,0.833333 41.5,1.5C 27.7836,11.8808 13.7836,21.8808 -0.5,31.5C -0.5,29.5 -0.5,27.5 -0.5,25.5C -0.166667,25.5 0.166667,25.5 0.5,25.5C 12.1904,16.8018 23.8571,8.13514 35.5,-0.5 Z"/></g>
<g><path style="opacity:0.935" fill="#ff4930" d="M 24.5,0.5 C 18.1151,5.54871 11.4484,10.2154 4.5,14.5C 8.68265,6.39915 15.3493,1.73248 24.5,0.5 Z"/></g>
<g><path style="opacity:0.996" fill="#ff4741" d="M 41.5,1.5 C 43.5529,1.40206 45.2196,2.06873 46.5,3.5C 31.1667,15.1667 15.8333,26.8333 0.5,38.5C 0.166667,38.5 -0.166667,38.5 -0.5,38.5C -0.5,36.1667 -0.5,33.8333 -0.5,31.5C 13.7836,21.8808 27.7836,11.8808 41.5,1.5 Z"/></g>
<g><path style="opacity:0.998" fill="#ff4647" d="M 46.5,3.5 C 48.674,3.74973 50.3406,4.74973 51.5,6.5C 34.8333,18.8333 18.1667,31.1667 1.5,43.5C 0.962003,41.8828 0.628669,40.2161 0.5,38.5C 15.8333,26.8333 31.1667,15.1667 46.5,3.5 Z"/></g>
<g><path style="opacity:0.993" fill="#ff454d" d="M 51.5,6.5 C 43.5128,16.1662 34.5128,25.4995 24.5,34.5C 17.5516,38.7846 10.8849,43.4513 4.5,48.5C 3.26315,47.0351 2.26315,45.3684 1.5,43.5C 18.1667,31.1667 34.8333,18.8333 51.5,6.5 Z"/></g>
<g><path style="opacity:0.977" fill="#ff4742" d="M 58.5,14.5 C 51.0162,20.077 43.3496,25.4103 35.5,30.5C 41.8367,22.9859 48.8367,16.4859 56.5,11C 57.8228,11.8159 58.4894,12.9826 58.5,14.5 Z"/></g>
<g><path style="opacity:0.985" fill="#ff4647" d="M 58.5,14.5 C 59.7368,15.9649 60.7368,17.6316 61.5,19.5C 60.0783,19.7086 58.745,20.2086 57.5,21C 43.6182,31.4301 29.6182,41.5967 15.5,51.5C 22.1389,44.5264 28.8056,37.5264 35.5,30.5C 43.3496,25.4103 51.0162,20.077 58.5,14.5 Z"/></g>
<g><path style="opacity:0.995" fill="#ff454d" d="M 61.5,19.5 C 62.038,21.1172 62.3713,22.7839 62.5,24.5C 47.1667,36.1667 31.8333,47.8333 16.5,59.5C 8.83821,57.5428 8.50488,54.8762 15.5,51.5C 29.6182,41.5967 43.6182,31.4301 57.5,21C 58.745,20.2086 60.0783,19.7086 61.5,19.5 Z"/></g>
<g><path style="opacity:0.998" fill="#ff4453" d="M 62.5,24.5 C 62.8333,24.5 63.1667,24.5 63.5,24.5C 63.5,25.8333 63.5,27.1667 63.5,28.5C 48.5,39.1667 33.5,49.8333 18.5,60.5C 17.5084,60.6716 16.8417,60.3382 16.5,59.5C 31.8333,47.8333 47.1667,36.1667 62.5,24.5 Z"/></g>
<g><path style="opacity:1" fill="#ff4456" d="M 63.5,28.5 C 63.5,29.1667 63.5,29.8333 63.5,30.5C 49.4619,40.8452 35.4619,51.1785 21.5,61.5C 20.209,61.7373 19.209,61.404 18.5,60.5C 33.5,49.8333 48.5,39.1667 63.5,28.5 Z"/></g>
<g><path style="opacity:0.996" fill="#ff435a" d="M 63.5,30.5 C 63.5,32.8333 63.5,35.1667 63.5,37.5C 63.1667,37.5 62.8333,37.5 62.5,37.5C 50.8096,46.1982 39.1429,54.8649 27.5,63.5C 26.5,63.5 25.5,63.5 24.5,63.5C 23.5,62.8333 22.5,62.1667 21.5,61.5C 35.4619,51.1785 49.4619,40.8452 63.5,30.5 Z"/></g>
<g><path style="opacity:0.985" fill="#ff4453" d="M 24.5,34.5 C 18.8695,40.6314 13.0362,46.6314 7,52.5C 5.51869,51.5291 4.68535,50.1958 4.5,48.5C 10.8849,43.4513 17.5516,38.7846 24.5,34.5 Z"/></g>
<g><path style="opacity:0.987" fill="#ff4260" d="M 62.5,37.5 C 62.4725,40.9164 61.4725,43.9164 59.5,46.5C 52.0496,51.4014 44.7163,56.5681 37.5,62C 37.7284,62.3988 38.0618,62.5654 38.5,62.5C 38.5,62.8333 38.5,63.1667 38.5,63.5C 34.8333,63.5 31.1667,63.5 27.5,63.5C 39.1429,54.8649 50.8096,46.1982 62.5,37.5 Z"/></g>
<g><path style="opacity:0.942" fill="#ff4165" d="M 59.5,46.5 C 55.4137,55.5784 48.4137,60.9117 38.5,62.5C 38.0618,62.5654 37.7284,62.3988 37.5,62C 44.7163,56.5681 52.0496,51.4014 59.5,46.5 Z"/></g>
</svg>
