<!-- by TradingView --><svg width="56" height="56" viewBox="0 0 56 56" xmlns="http://www.w3.org/2000/svg"><path fill="url(#akznhnei0)" d="M0 0h56v56H0z"/><path d="m16.5 35 1.5-2.5-3-2v-10l8.5-5 8.5 5v10l-4 2 1.5 2.5 5.5-3V18.5L23.5 12 12 18.5V32l4.5 3Z" fill="#FBFBFB"/><path d="m25.5 21 3 2-4.5 2.5v10l8.5 5 8.5-5v-10L36.5 23l2-2 5.5 3v13l-11.5 7L21 37V23.5l4.5-2.5Z" fill="#FBFBFB"/><defs><linearGradient id="akznhnei0" x1="10.42" y1="9.71" x2="68.15" y2="76.02" gradientUnits="userSpaceOnUse"><stop stop-color="#1A1E21"/><stop offset="1" stop-color="#06060A"/></linearGradient></defs></svg>