<?xml version="1.0" encoding="UTF-8"?>
<!DOCTYPE svg PUBLIC "-//W3C//DTD SVG 1.1//EN" "http://www.w3.org/Graphics/SVG/1.1/DTD/svg11.dtd">
<svg xmlns="http://www.w3.org/2000/svg" version="1.1" width="64px" height="64px" style="shape-rendering:geometricPrecision; text-rendering:geometricPrecision; image-rendering:optimizeQuality; fill-rule:evenodd; clip-rule:evenodd" xmlns:xlink="http://www.w3.org/1999/xlink">
<g><path style="opacity:0.998" fill="#1e2431" d="M 25.5,-0.5 C 29.5,-0.5 33.5,-0.5 37.5,-0.5C 51.1667,3.16667 59.8333,11.8333 63.5,25.5C 63.5,29.5 63.5,33.5 63.5,37.5C 59.8333,51.1667 51.1667,59.8333 37.5,63.5C 33.5,63.5 29.5,63.5 25.5,63.5C 11.8333,59.8333 3.16667,51.1667 -0.5,37.5C -0.5,33.5 -0.5,29.5 -0.5,25.5C 3.16667,11.8333 11.8333,3.16667 25.5,-0.5 Z"/></g>
<g><path style="opacity:1" fill="#23bef8" d="M 35.5,18.5 C 34.0877,20.9976 32.9211,23.6642 32,26.5C 28.2665,30.3036 24.7665,34.3036 21.5,38.5C 20.9717,37.2794 20.305,36.1127 19.5,35C 22.1022,33.9852 23.9355,32.1518 25,29.5C 26.8333,26.3333 28.6667,23.1667 30.5,20C 30.0426,19.586 29.7093,19.086 29.5,18.5C 31.6365,17.2072 33.6365,17.2072 35.5,18.5 Z"/></g>
<g><path style="opacity:1" fill="#3fdccc" d="M 14.5,17.5 C 19.7083,17.369 21.3749,19.7024 19.5,24.5C 12.6987,25.9031 11.032,23.5698 14.5,17.5 Z"/></g>
<g><path style="opacity:1" fill="#24b2fd" d="M 35.5,18.5 C 36.5983,19.6009 36.765,20.9343 36,22.5C 33,27.8333 30,33.1667 27,38.5C 25.0565,39.807 23.2232,39.807 21.5,38.5C 24.7665,34.3036 28.2665,30.3036 32,26.5C 32.9211,23.6642 34.0877,20.9976 35.5,18.5 Z"/></g>
<g><path style="opacity:1" fill="#3b74fd" d="M 48.5,18.5 C 50.4411,20.0106 50.9411,22.0106 50,24.5C 45.0799,32.6717 40.4132,41.005 36,49.5C 33.2991,52.0021 30.7991,52.0021 28.5,49.5C 33.5719,44.3719 37.4052,38.3719 40,31.5C 43.1203,27.2406 45.9537,22.9072 48.5,18.5 Z"/></g>
<g><path style="opacity:1" fill="#3584fd" d="M 48.5,18.5 C 45.9537,22.9072 43.1203,27.2406 40,31.5C 37.4052,38.3719 33.5719,44.3719 28.5,49.5C 27.6364,48.3117 26.6364,47.1451 25.5,46C 28.0075,45.9071 30.1741,45.0738 32,43.5C 36.1285,36.2401 39.9619,28.9067 43.5,21.5C 43.2908,20.0055 42.6241,18.8388 41.5,18C 44.0385,17.2042 46.3718,17.3709 48.5,18.5 Z"/></g>
</svg>
