<?xml version="1.0" encoding="UTF-8"?>
<!DOCTYPE svg PUBLIC "-//W3C//DTD SVG 1.1//EN" "http://www.w3.org/Graphics/SVG/1.1/DTD/svg11.dtd">
<svg xmlns="http://www.w3.org/2000/svg" version="1.1" width="64px" height="64px" style="shape-rendering:geometricPrecision; text-rendering:geometricPrecision; image-rendering:optimizeQuality; fill-rule:evenodd; clip-rule:evenodd" xmlns:xlink="http://www.w3.org/1999/xlink">
<g><path style="opacity:1" fill="#1d1f22" d="M -0.5,-0.5 C 20.8333,-0.5 42.1667,-0.5 63.5,-0.5C 63.5,20.8333 63.5,42.1667 63.5,63.5C 42.1667,63.5 20.8333,63.5 -0.5,63.5C -0.5,42.1667 -0.5,20.8333 -0.5,-0.5 Z"/></g>
<g><path style="opacity:1" fill="#f2fc8a" d="M 43.5,9.5 C 42.8333,10.1667 42.1667,10.8333 41.5,11.5C 34.825,11.3337 28.1583,11.5004 21.5,12C 18.9679,13.7653 16.3013,15.2653 13.5,16.5C 13.238,15.0222 13.5713,13.6888 14.5,12.5C 17.0387,10.7997 19.7053,9.29975 22.5,8C 29.7025,6.95421 36.7025,7.45421 43.5,9.5 Z"/></g>
<g><path style="opacity:1" fill="#000000" d="M 41.5,11.5 C 43.7937,13.653 46.4604,15.3197 49.5,16.5C 49.5,21.5 49.5,26.5 49.5,31.5C 49.8204,34.8984 49.487,38.2317 48.5,41.5C 42.9979,45.0855 37.3312,48.4188 31.5,51.5C 26.6049,48.5536 21.6049,45.8869 16.5,43.5C 15.828,42.7326 14.9947,42.0659 14,41.5C 13.5017,38.1832 13.335,34.8499 13.5,31.5C 13.5,26.5 13.5,21.5 13.5,16.5C 16.3013,15.2653 18.9679,13.7653 21.5,12C 28.1583,11.5004 34.825,11.3337 41.5,11.5 Z"/></g>
<g><path style="opacity:1" fill="#b1f6bd" d="M 43.5,9.5 C 44.973,10.7401 46.6396,11.7401 48.5,12.5C 49.4287,13.6888 49.762,15.0222 49.5,16.5C 46.4604,15.3197 43.7937,13.653 41.5,11.5C 42.1667,10.8333 42.8333,10.1667 43.5,9.5 Z"/></g>
<g><path style="opacity:1" fill="#7af3ef" d="M 22.5,18.5 C 23.1499,18.8039 23.8165,19.1373 24.5,19.5C 24.3923,24.8812 26.7256,28.5478 31.5,30.5C 36.2744,28.5478 38.6077,24.8812 38.5,19.5C 39.086,19.2907 39.586,18.9574 40,18.5C 42.4699,26.7211 39.6365,31.7211 31.5,33.5C 23.5222,31.7242 20.5222,26.7242 22.5,18.5 Z"/></g>
<g><path style="opacity:1" fill="#b7fabf" d="M 13.5,16.5 C 13.5,21.5 13.5,26.5 13.5,31.5C 12.5,31.5 11.5,31.5 10.5,31.5C 10.3343,27.1539 10.501,22.8206 11,18.5C 11.7083,17.6195 12.5416,16.9528 13.5,16.5 Z"/></g>
<g><path style="opacity:1" fill="#7be6fc" d="M 49.5,16.5 C 50.4584,16.9528 51.2917,17.6195 52,18.5C 52.499,22.8206 52.6657,27.1539 52.5,31.5C 51.5,31.5 50.5,31.5 49.5,31.5C 49.5,26.5 49.5,21.5 49.5,16.5 Z"/></g>
<g><path style="opacity:1" fill="#87d7fe" d="M 36.5,34.5 C 37.5735,35.2506 37.7401,36.2506 37,37.5C 34.5015,39.417 31.8349,41.0836 29,42.5C 28.3333,41.5 28.3333,40.5 29,39.5C 31.4795,37.6859 33.9795,36.0192 36.5,34.5 Z"/></g>
<g><path style="opacity:1" fill="#79eafa" d="M 10.5,31.5 C 11.5,31.5 12.5,31.5 13.5,31.5C 13.335,34.8499 13.5017,38.1832 14,41.5C 14.9947,42.0659 15.828,42.7326 16.5,43.5C 16.1583,44.3382 15.4916,44.6716 14.5,44.5C 13.4168,44.4606 12.4168,44.1272 11.5,43.5C 10.5091,39.5546 10.1758,35.5546 10.5,31.5 Z"/></g>
<g><path style="opacity:1" fill="#b2b0fc" d="M 49.5,31.5 C 50.5,31.5 51.5,31.5 52.5,31.5C 52.8242,35.5546 52.4909,39.5546 51.5,43.5C 45.3359,46.7476 39.3359,50.2476 33.5,54C 32.1667,54.6667 30.8333,54.6667 29.5,54C 24.3263,50.9703 19.3263,47.8036 14.5,44.5C 15.4916,44.6716 16.1583,44.3382 16.5,43.5C 21.6049,45.8869 26.6049,48.5536 31.5,51.5C 37.3312,48.4188 42.9979,45.0855 48.5,41.5C 49.487,38.2317 49.8204,34.8984 49.5,31.5 Z"/></g>
</svg>
