<?xml version="1.0" encoding="UTF-8"?>
<!DOCTYPE svg PUBLIC "-//W3C//DTD SVG 1.1//EN" "http://www.w3.org/Graphics/SVG/1.1/DTD/svg11.dtd">
<svg xmlns="http://www.w3.org/2000/svg" version="1.1" width="64px" height="64px" style="shape-rendering:geometricPrecision; text-rendering:geometricPrecision; image-rendering:optimizeQuality; fill-rule:evenodd; clip-rule:evenodd" xmlns:xlink="http://www.w3.org/1999/xlink">
<g><path style="opacity:0.995" fill="#005741" d="M 25.5,-0.5 C 29.5,-0.5 33.5,-0.5 37.5,-0.5C 51.1667,3.16667 59.8333,11.8333 63.5,25.5C 63.5,29.5 63.5,33.5 63.5,37.5C 59.8333,51.1667 51.1667,59.8333 37.5,63.5C 33.5,63.5 29.5,63.5 25.5,63.5C 11.8333,59.8333 3.16667,51.1667 -0.5,37.5C -0.5,33.5 -0.5,29.5 -0.5,25.5C 3.16667,11.8333 11.8333,3.16667 25.5,-0.5 Z"/></g>
<g><path style="opacity:1" fill="#fefefe" d="M 17.5,15.5 C 26.5,15.5 35.5,15.5 44.5,15.5C 44.5,21.5 44.5,27.5 44.5,33.5C 42.8333,33.5 41.1667,33.5 39.5,33.5C 39.6646,30.4816 39.498,27.4816 39,24.5C 34,28.8333 29,33.1667 24,37.5C 22.9914,39.0249 22.4914,40.6916 22.5,42.5C 28.1667,42.5 33.8333,42.5 39.5,42.5C 39.5,41.1667 39.5,39.8333 39.5,38.5C 41.1667,38.5 42.8333,38.5 44.5,38.5C 44.5,41.5 44.5,44.5 44.5,47.5C 35.5,47.5 26.5,47.5 17.5,47.5C 16.9927,42.8791 17.826,38.5458 20,34.5C 25.1667,30 30.3333,25.5 35.5,21C 30.8452,20.5008 26.1785,20.3342 21.5,20.5C 21.5,21.8333 21.5,23.1667 21.5,24.5C 20.1667,24.5 18.8333,24.5 17.5,24.5C 17.5,21.5 17.5,18.5 17.5,15.5 Z"/></g>
</svg>
