<?xml version="1.0" encoding="UTF-8"?>
<!DOCTYPE svg PUBLIC "-//W3C//DTD SVG 1.1//EN" "http://www.w3.org/Graphics/SVG/1.1/DTD/svg11.dtd">
<svg xmlns="http://www.w3.org/2000/svg" version="1.1" width="64px" height="64px" style="shape-rendering:geometricPrecision; text-rendering:geometricPrecision; image-rendering:optimizeQuality; fill-rule:evenodd; clip-rule:evenodd" xmlns:xlink="http://www.w3.org/1999/xlink">
<g><path style="opacity:1" fill="#000000" d="M -0.5,-0.5 C 20.8333,-0.5 42.1667,-0.5 63.5,-0.5C 63.5,20.8333 63.5,42.1667 63.5,63.5C 42.1667,63.5 20.8333,63.5 -0.5,63.5C -0.5,42.1667 -0.5,20.8333 -0.5,-0.5 Z"/></g>
<g><path style="opacity:1" fill="#000101" d="M 24.5,35.5 C 24.5,37.5 24.5,39.5 24.5,41.5C 20.5,41.5 16.5,41.5 12.5,41.5C 12.5,37.1667 12.5,32.8333 12.5,28.5C 12.5,26.1667 12.5,23.8333 12.5,21.5C 16.5,21.5 20.5,21.5 24.5,21.5C 24.5,26.1667 24.5,30.8333 24.5,35.5 Z"/></g>
<g><path style="opacity:1" fill="#010302" d="M 26.5,22.5 C 31.638,25.2371 36.638,28.2371 41.5,31.5C 39.1416,33.6782 36.4749,35.3449 33.5,36.5C 31.4449,37.9477 29.2782,39.281 27,40.5C 26.5005,34.5092 26.3338,28.5092 26.5,22.5 Z"/></g>
<g><path style="opacity:1" fill="#1df5b9" d="M 48.5,44.5 C 48.1667,44.5 47.8333,44.5 47.5,44.5C 48.0906,43.8485 48.7573,43.1818 49.5,42.5C 48.003,38.8351 46.003,35.5017 43.5,32.5C 40.6339,34.4325 37.6339,36.0991 34.5,37.5C 33.8333,37.5 33.5,37.1667 33.5,36.5C 36.4749,35.3449 39.1416,33.6782 41.5,31.5C 36.638,28.2371 31.638,25.2371 26.5,22.5C 25.8333,26.8333 25.1667,31.1667 24.5,35.5C 24.5,30.8333 24.5,26.1667 24.5,21.5C 20.5,21.5 16.5,21.5 12.5,21.5C 12.5,23.8333 12.5,26.1667 12.5,28.5C 12.1667,28.5 11.8333,28.5 11.5,28.5C 11.2161,25.2234 11.5495,22.0567 12.5,19C 18.3312,15.9188 23.9979,12.5855 29.5,9C 30.8333,8.33333 32.1667,8.33333 33.5,9C 39.2505,12.6258 45.0838,16.1258 51,19.5C 51.6667,27.5 51.6667,35.5 51,43.5C 50.3292,44.2524 49.4959,44.5858 48.5,44.5 Z"/></g>
<g><path style="opacity:1" fill="#010803" d="M 27.5,11.5 C 28.2389,11.369 28.9056,11.5357 29.5,12C 27.7905,13.9157 26.4572,16.0824 25.5,18.5C 22.2156,19.657 18.8823,19.8236 15.5,19C 19.7324,16.7254 23.7324,14.2254 27.5,11.5 Z"/></g>
<g><path style="opacity:1" fill="#010402" d="M 31.5,10.5 C 37.7679,13.3018 43.7679,16.6351 49.5,20.5C 48.003,24.1649 46.003,27.4983 43.5,30.5C 37.8685,27.3653 32.3685,24.032 27,20.5C 28.1234,17.1433 29.6234,13.81 31.5,10.5 Z"/></g>
<g><path style="opacity:1" fill="#010603" d="M 49.5,23.5 C 50.6507,28.6503 50.8174,33.9836 50,39.5C 48.2467,36.9952 46.7467,34.3286 45.5,31.5C 46.8466,28.8068 48.1799,26.1401 49.5,23.5 Z"/></g>
<g><path style="opacity:1" fill="#010403" d="M 47.5,44.5 C 42.1959,47.3219 36.8626,49.8219 31.5,52C 29.9594,49.0844 28.2927,46.2511 26.5,43.5C 28.9024,41.0908 31.5691,39.0908 34.5,37.5C 37.6339,36.0991 40.6339,34.4325 43.5,32.5C 46.003,35.5017 48.003,38.8351 49.5,42.5C 48.7573,43.1818 48.0906,43.8485 47.5,44.5 Z"/></g>
<g><path style="opacity:1" fill="#23ecd7" d="M 26.5,22.5 C 26.3338,28.5092 26.5005,34.5092 27,40.5C 29.2782,39.281 31.4449,37.9477 33.5,36.5C 33.5,37.1667 33.8333,37.5 34.5,37.5C 31.5691,39.0908 28.9024,41.0908 26.5,43.5C 28.2927,46.2511 29.9594,49.0844 31.5,52C 36.8626,49.8219 42.1959,47.3219 47.5,44.5C 47.8333,44.5 48.1667,44.5 48.5,44.5C 43.6737,47.8036 38.6737,50.9703 33.5,54C 32.1667,54.6667 30.8333,54.6667 29.5,54C 23.7495,50.3742 17.9162,46.8742 12,43.5C 11.5007,38.5111 11.3341,33.5111 11.5,28.5C 11.8333,28.5 12.1667,28.5 12.5,28.5C 12.5,32.8333 12.5,37.1667 12.5,41.5C 16.5,41.5 20.5,41.5 24.5,41.5C 24.5,39.5 24.5,37.5 24.5,35.5C 25.1667,31.1667 25.8333,26.8333 26.5,22.5 Z"/></g>
<g><path style="opacity:1" fill="#050d0d" d="M 15.5,44.5 C 18.6868,43.1944 22.0202,43.1944 25.5,44.5C 26.4572,46.9176 27.7905,49.0843 29.5,51C 24.8045,49.1558 20.1378,46.9891 15.5,44.5 Z"/></g>
</svg>
